M48
METRIC,TZ
T1C0.200
T2C0.300
T3C0.500
T4C1.000
%
G90
G05
T1
X-25800Y-13100
X-25438Y-13838
X-25400Y-15800
X-23000Y-11200
X-23000Y-14800
X-20600Y-15800
X-20500Y-13840
X-20200Y-13100
T2
X-35000Y-6000
X-35000Y-8000
X-35000Y-10000
X-35000Y-12000
X-35000Y-14000
X-35000Y-16000
X-35000Y-18000
X-35000Y-20000
X-35000Y-22000
X-33000Y-6000
X-33000Y-22000
X-31000Y-6000
X-31000Y-22000
X-29000Y-6000
X-29000Y-22000
X-27000Y-6000
X-27000Y-22000
X-25000Y-6000
X-25000Y-22000
X-23000Y-6000
X-23000Y-22000
X-21000Y-6000
X-21000Y-22000
X-19000Y-6000
X-19000Y-22000
X-17000Y-6000
X-17000Y-22000
X-15000Y-6000
X-15000Y-22000
X-13000Y-6000
X-13000Y-22000
X-11000Y-6000
X-11000Y-8000
X-11000Y-10000
X-11000Y-12000
X-11000Y-14000
X-11000Y-16000
X-11000Y-18000
X-11000Y-20000
X-11000Y-22000
T3
X-27100Y-8600
X-27100Y-10600
X-27100Y-13400
X-27100Y-15400
X-27100Y-17400
X-27100Y-20200
X-18900Y-8600
X-18900Y-10600
X-18900Y-13400
X-18900Y-15400
X-18900Y-17400
X-18900Y-20300
T4
X-30620Y-9420
X-30620Y-11960
X-30620Y-14500
X-30620Y-17040
X-30620Y-19580
X-15380Y-9360
X-15380Y-11900
X-15380Y-14440
X-15380Y-16980
X-15380Y-19520
M30
