%TF.GenerationSoftware,KiCad,Pcbnew,8.0.3*%
%TF.CreationDate,2024-07-29T06:26:44+12:00*%
%TF.ProjectId,sot23-6,736f7432-332d-4362-9e6b-696361645f70,rev?*%
%TF.SameCoordinates,Original*%
%TF.FileFunction,Legend,Top*%
%TF.FilePolarity,Positive*%
%FSLAX46Y46*%
G04 Gerber Fmt 4.6, Leading zero omitted, Abs format (unit mm)*
G04 Created by KiCad (PCBNEW 8.0.3) date 2024-07-29 06:26:44*
%MOMM*%
%LPD*%
G01*
G04 APERTURE LIST*
%ADD10C,0.000000*%
%ADD11C,0.120000*%
%ADD12C,0.350000*%
G04 APERTURE END LIST*
D10*
%TO.C,kibuzzard-66A68C65*%
G36*
X112119392Y-88491280D02*
G01*
X112216694Y-88520797D01*
X112306368Y-88568728D01*
X112384968Y-88633234D01*
X112449473Y-88711833D01*
X112497405Y-88801507D01*
X112526921Y-88898809D01*
X112536887Y-89000000D01*
X112526921Y-89101191D01*
X112497405Y-89198493D01*
X112449473Y-89288167D01*
X112384968Y-89366766D01*
X112306368Y-89431272D01*
X112216694Y-89479203D01*
X112119392Y-89508720D01*
X112018201Y-89518686D01*
X111264297Y-89518686D01*
X111010985Y-89518686D01*
X110735703Y-89518686D01*
X109981799Y-89518686D01*
X109880608Y-89508720D01*
X109783306Y-89479203D01*
X109693632Y-89431272D01*
X109615032Y-89366766D01*
X109550527Y-89288167D01*
X109502595Y-89198493D01*
X109473079Y-89101191D01*
X109469732Y-89067205D01*
X110735703Y-89067205D01*
X110743529Y-89174834D01*
X110767008Y-89261641D01*
X110806139Y-89327625D01*
X110860205Y-89373936D01*
X110928487Y-89401723D01*
X111010985Y-89410985D01*
X111072375Y-89404685D01*
X111124717Y-89385784D01*
X111203554Y-89320517D01*
X111249435Y-89232633D01*
X111264297Y-89138288D01*
X111250727Y-89040065D01*
X111206139Y-88958643D01*
X111126656Y-88903069D01*
X111072859Y-88887561D01*
X111008401Y-88882391D01*
X110967044Y-88888207D01*
X110919225Y-88904362D01*
X110963813Y-88820355D01*
X111035541Y-88765428D01*
X111126010Y-88735057D01*
X111226817Y-88724717D01*
X111217771Y-88589015D01*
X111114055Y-88596769D01*
X111020032Y-88620032D01*
X110937318Y-88658481D01*
X110867528Y-88711793D01*
X110811470Y-88779645D01*
X110769952Y-88861712D01*
X110744265Y-88957674D01*
X110735703Y-89067205D01*
X109469732Y-89067205D01*
X109463113Y-89000000D01*
X109473079Y-88898809D01*
X109502595Y-88801507D01*
X109550527Y-88711833D01*
X109615032Y-88633234D01*
X109693632Y-88568728D01*
X109783306Y-88520797D01*
X109880608Y-88491280D01*
X109981799Y-88481314D01*
X110735703Y-88481314D01*
X111264297Y-88481314D01*
X112018201Y-88481314D01*
X112119392Y-88491280D01*
G37*
G36*
X111044911Y-89022456D02*
G01*
X111082068Y-89047173D01*
X111109208Y-89140872D01*
X111103393Y-89186107D01*
X111085299Y-89228756D01*
X111053635Y-89261066D01*
X111007108Y-89273990D01*
X110950889Y-89257835D01*
X110915347Y-89214540D01*
X110897254Y-89153150D01*
X110892084Y-89081422D01*
X110892730Y-89056866D01*
X110894669Y-89033603D01*
X110937318Y-89019386D01*
X110987722Y-89014216D01*
X111044911Y-89022456D01*
G37*
%TO.C,kibuzzard-66A68C60*%
G36*
X112120826Y-90993816D02*
G01*
X112217643Y-91023185D01*
X112306870Y-91070878D01*
X112385079Y-91135061D01*
X112449262Y-91213270D01*
X112496955Y-91302497D01*
X112526324Y-91399314D01*
X112536241Y-91500000D01*
X112526324Y-91600686D01*
X112496955Y-91697503D01*
X112449262Y-91786730D01*
X112385079Y-91864939D01*
X112306870Y-91929122D01*
X112217643Y-91976815D01*
X112120826Y-92006184D01*
X112020140Y-92016101D01*
X111266236Y-92016101D01*
X110949596Y-92016101D01*
X110733764Y-92016101D01*
X109979860Y-92016101D01*
X109879174Y-92006184D01*
X109782357Y-91976815D01*
X109693130Y-91929122D01*
X109617486Y-91867044D01*
X110733764Y-91867044D01*
X110770598Y-91881260D01*
X110824233Y-91894830D01*
X110886268Y-91904523D01*
X110949596Y-91908401D01*
X111023586Y-91903554D01*
X111087884Y-91889015D01*
X111142488Y-91865751D01*
X111187399Y-91834733D01*
X111246850Y-91752666D01*
X111266236Y-91649919D01*
X111257476Y-91574960D01*
X111231197Y-91512062D01*
X111187399Y-91461228D01*
X111125794Y-91422743D01*
X111046096Y-91396895D01*
X110948304Y-91383683D01*
X110954766Y-91310016D01*
X110961228Y-91223425D01*
X111236511Y-91223425D01*
X111236511Y-91091599D01*
X110828110Y-91091599D01*
X110823263Y-91190307D01*
X110816478Y-91292569D01*
X110807431Y-91397738D01*
X110795800Y-91505170D01*
X110884653Y-91507916D01*
X110954766Y-91516155D01*
X111048465Y-91547173D01*
X111092407Y-91594992D01*
X111103393Y-91656381D01*
X111096931Y-91699031D01*
X111073021Y-91735864D01*
X111025202Y-91762359D01*
X110948304Y-91772698D01*
X110887884Y-91769790D01*
X110838449Y-91761066D01*
X110766074Y-91735218D01*
X110733764Y-91867044D01*
X109617486Y-91867044D01*
X109614921Y-91864939D01*
X109550738Y-91786730D01*
X109503045Y-91697503D01*
X109473676Y-91600686D01*
X109463759Y-91500000D01*
X109473676Y-91399314D01*
X109503045Y-91302497D01*
X109550738Y-91213270D01*
X109614921Y-91135061D01*
X109693130Y-91070878D01*
X109782357Y-91023185D01*
X109879174Y-90993816D01*
X109979860Y-90983899D01*
X110733764Y-90983899D01*
X111266236Y-90983899D01*
X112020140Y-90983899D01*
X112120826Y-90993816D01*
G37*
%TO.C,kibuzzard-66A68C5D*%
G36*
X112142451Y-93502055D02*
G01*
X112237692Y-93530946D01*
X112325467Y-93577862D01*
X112402402Y-93641001D01*
X112465541Y-93717937D01*
X112512458Y-93805711D01*
X112541349Y-93900953D01*
X112551104Y-94000000D01*
X112541349Y-94099047D01*
X112512458Y-94194289D01*
X112465541Y-94282063D01*
X112402402Y-94358999D01*
X112325467Y-94422138D01*
X112237692Y-94469054D01*
X112142451Y-94497945D01*
X112043403Y-94507701D01*
X111289499Y-94507701D01*
X111202908Y-94507701D01*
X110710501Y-94507701D01*
X109956597Y-94507701D01*
X109857549Y-94497945D01*
X109762308Y-94469054D01*
X109674533Y-94422138D01*
X109597598Y-94358999D01*
X109534459Y-94282063D01*
X109487542Y-94194289D01*
X109458651Y-94099047D01*
X109458252Y-94094992D01*
X110710501Y-94094992D01*
X110710501Y-94211309D01*
X111043942Y-94211309D01*
X111043942Y-94400000D01*
X111202908Y-94400000D01*
X111202908Y-94211309D01*
X111289499Y-94211309D01*
X111289499Y-94080775D01*
X111202908Y-94080775D01*
X111202908Y-93600000D01*
X111060743Y-93600000D01*
X111009047Y-93655089D01*
X110957351Y-93716963D01*
X110906947Y-93782714D01*
X110859128Y-93849435D01*
X110814540Y-93915832D01*
X110773829Y-93980614D01*
X110738611Y-94041195D01*
X110710501Y-94094992D01*
X109458252Y-94094992D01*
X109448896Y-94000000D01*
X109458651Y-93900953D01*
X109487542Y-93805711D01*
X109534459Y-93717937D01*
X109597598Y-93641001D01*
X109674533Y-93577862D01*
X109762308Y-93530946D01*
X109857549Y-93502055D01*
X109956597Y-93492299D01*
X110710501Y-93492299D01*
X111289499Y-93492299D01*
X112043403Y-93492299D01*
X112142451Y-93502055D01*
G37*
G36*
X111043942Y-94080775D02*
G01*
X110863005Y-94080775D01*
X110901777Y-94007108D01*
X110947658Y-93932795D01*
X110996123Y-93862359D01*
X111043942Y-93799031D01*
X111043942Y-94080775D01*
G37*
%TO.C,kibuzzard-66A68C47*%
G36*
X90621299Y-93484942D02*
G01*
X90719813Y-93514826D01*
X90810604Y-93563355D01*
X90890183Y-93628664D01*
X90955492Y-93708243D01*
X91004021Y-93799035D01*
X91033905Y-93897549D01*
X91043996Y-94000000D01*
X91033905Y-94102451D01*
X91004021Y-94200965D01*
X90955492Y-94291757D01*
X90890183Y-94371336D01*
X90810604Y-94436645D01*
X90719813Y-94485174D01*
X90621299Y-94515058D01*
X90518848Y-94525148D01*
X89764943Y-94525148D01*
X89457351Y-94525148D01*
X89235057Y-94525148D01*
X88481152Y-94525148D01*
X88378701Y-94515058D01*
X88280187Y-94485174D01*
X88189396Y-94436645D01*
X88112461Y-94373506D01*
X89235057Y-94373506D01*
X89275121Y-94387722D01*
X89331341Y-94401939D01*
X89394669Y-94412924D01*
X89457351Y-94417447D01*
X89531987Y-94412763D01*
X89595638Y-94398708D01*
X89648627Y-94376090D01*
X89691276Y-94345719D01*
X89746850Y-94264943D01*
X89764943Y-94162843D01*
X89756381Y-94097900D01*
X89730695Y-94042649D01*
X89689499Y-93998384D01*
X89634410Y-93966397D01*
X89706785Y-93899192D01*
X89733926Y-93807431D01*
X89718417Y-93718255D01*
X89670598Y-93646527D01*
X89588530Y-93599354D01*
X89534410Y-93586753D01*
X89471567Y-93582553D01*
X89402908Y-93588530D01*
X89341680Y-93606462D01*
X89249273Y-93653635D01*
X89306139Y-93769952D01*
X89383037Y-93733118D01*
X89472859Y-93718255D01*
X89545880Y-93743457D01*
X89572375Y-93812601D01*
X89560097Y-93861712D01*
X89528433Y-93892730D01*
X89484491Y-93909532D01*
X89435380Y-93914701D01*
X89375929Y-93914701D01*
X89375929Y-94046527D01*
X89425040Y-94046527D01*
X89495800Y-94052827D01*
X89552989Y-94071729D01*
X89590792Y-94106462D01*
X89603393Y-94160258D01*
X89570436Y-94246850D01*
X89525363Y-94273021D01*
X89456058Y-94281745D01*
X89394830Y-94278191D01*
X89342973Y-94267528D01*
X89266074Y-94240388D01*
X89235057Y-94373506D01*
X88112461Y-94373506D01*
X88109817Y-94371336D01*
X88044508Y-94291757D01*
X87995979Y-94200965D01*
X87966095Y-94102451D01*
X87956004Y-94000000D01*
X87966095Y-93897549D01*
X87995979Y-93799035D01*
X88044508Y-93708243D01*
X88109817Y-93628664D01*
X88189396Y-93563355D01*
X88280187Y-93514826D01*
X88378701Y-93484942D01*
X88481152Y-93474852D01*
X89235057Y-93474852D01*
X89764943Y-93474852D01*
X90518848Y-93474852D01*
X90621299Y-93484942D01*
G37*
%TO.C,kibuzzard-66A68C43*%
G36*
X90625476Y-90993182D02*
G01*
X90722414Y-91022588D01*
X90811753Y-91070340D01*
X90890059Y-91134604D01*
X90954323Y-91212911D01*
X91002076Y-91302249D01*
X91031482Y-91399188D01*
X91041411Y-91500000D01*
X91031482Y-91600812D01*
X91002076Y-91697751D01*
X90954323Y-91787089D01*
X90890059Y-91865396D01*
X90811753Y-91929660D01*
X90722414Y-91977412D01*
X90625476Y-92006818D01*
X90524663Y-92016747D01*
X89770759Y-92016747D01*
X89229241Y-92016747D01*
X88475337Y-92016747D01*
X88374524Y-92006818D01*
X88277586Y-91977412D01*
X88188247Y-91929660D01*
X88109941Y-91865396D01*
X88045677Y-91787089D01*
X87997924Y-91697751D01*
X87968518Y-91600812D01*
X87958589Y-91500000D01*
X87968518Y-91399188D01*
X87997924Y-91302249D01*
X88045677Y-91212911D01*
X88058791Y-91196931D01*
X89229241Y-91196931D01*
X89308078Y-91308078D01*
X89389499Y-91247334D01*
X89468336Y-91229241D01*
X89543296Y-91255735D01*
X89573021Y-91331341D01*
X89549111Y-91399838D01*
X89488368Y-91469628D01*
X89450242Y-91506624D01*
X89409532Y-91545234D01*
X89368821Y-91586268D01*
X89330695Y-91630533D01*
X89297092Y-91678514D01*
X89269952Y-91730695D01*
X89252019Y-91787561D01*
X89246042Y-91849596D01*
X89245396Y-91876737D01*
X89248627Y-91909047D01*
X89770759Y-91909047D01*
X89770759Y-91777221D01*
X89426979Y-91777221D01*
X89440549Y-91734572D01*
X89473506Y-91688691D01*
X89514863Y-91644750D01*
X89553635Y-91607916D01*
X89619548Y-91543296D01*
X89677706Y-91473506D01*
X89719063Y-91399192D01*
X89734572Y-91319709D01*
X89713893Y-91219548D01*
X89658320Y-91147819D01*
X89578191Y-91105170D01*
X89483845Y-91090953D01*
X89416478Y-91097415D01*
X89348788Y-91116801D01*
X89284976Y-91149758D01*
X89229241Y-91196931D01*
X88058791Y-91196931D01*
X88109941Y-91134604D01*
X88188247Y-91070340D01*
X88277586Y-91022588D01*
X88374524Y-90993182D01*
X88475337Y-90983253D01*
X89229241Y-90983253D01*
X89770759Y-90983253D01*
X90524663Y-90983253D01*
X90625476Y-90993182D01*
G37*
%TO.C,kibuzzard-66A68C2F*%
G36*
X90618541Y-88502055D02*
G01*
X90713782Y-88530946D01*
X90801557Y-88577862D01*
X90878492Y-88641001D01*
X90941631Y-88717937D01*
X90988548Y-88805711D01*
X91017439Y-88900953D01*
X91027194Y-89000000D01*
X91017439Y-89099047D01*
X90988548Y-89194289D01*
X90941631Y-89282063D01*
X90878492Y-89358999D01*
X90801557Y-89422138D01*
X90713782Y-89469054D01*
X90618541Y-89497945D01*
X90519494Y-89507701D01*
X89765590Y-89507701D01*
X89234410Y-89507701D01*
X88480506Y-89507701D01*
X88381459Y-89497945D01*
X88286218Y-89469054D01*
X88198443Y-89422138D01*
X88121508Y-89358999D01*
X88058369Y-89282063D01*
X88011452Y-89194289D01*
X87982561Y-89099047D01*
X87972806Y-89000000D01*
X87982561Y-88900953D01*
X88011452Y-88805711D01*
X88032293Y-88766721D01*
X89234410Y-88766721D01*
X89286107Y-88898546D01*
X89364943Y-88866882D01*
X89447658Y-88821002D01*
X89447658Y-89268174D01*
X89279645Y-89268174D01*
X89279645Y-89400000D01*
X89765590Y-89400000D01*
X89765590Y-89268174D01*
X89606624Y-89268174D01*
X89606624Y-88600000D01*
X89498061Y-88600000D01*
X89442488Y-88650404D01*
X89373990Y-88696931D01*
X89301616Y-88736995D01*
X89234410Y-88766721D01*
X88032293Y-88766721D01*
X88058369Y-88717937D01*
X88121508Y-88641001D01*
X88198443Y-88577862D01*
X88286218Y-88530946D01*
X88381459Y-88502055D01*
X88480506Y-88492299D01*
X89234410Y-88492299D01*
X89765590Y-88492299D01*
X90519494Y-88492299D01*
X90618541Y-88502055D01*
G37*
%TO.C,kibuzzard-66A68BD4*%
G36*
X112090712Y-95984942D02*
G01*
X112189226Y-96014826D01*
X112280017Y-96063355D01*
X112359596Y-96128664D01*
X112424905Y-96208243D01*
X112473434Y-96299035D01*
X112503318Y-96397549D01*
X112513409Y-96500000D01*
X112503318Y-96602451D01*
X112473434Y-96700965D01*
X112424905Y-96791757D01*
X112359596Y-96871336D01*
X112280017Y-96936645D01*
X112189226Y-96985174D01*
X112090712Y-97015058D01*
X111988261Y-97025148D01*
X111934410Y-97025148D01*
X111563489Y-97025148D01*
X111135703Y-97025148D01*
X110392569Y-97025148D01*
X110065590Y-97025148D01*
X110011739Y-97025148D01*
X109909288Y-97015058D01*
X109810774Y-96985174D01*
X109719983Y-96936645D01*
X109640404Y-96871336D01*
X109575095Y-96791757D01*
X109526566Y-96700965D01*
X109496682Y-96602451D01*
X109486591Y-96500000D01*
X110065590Y-96500000D01*
X110071405Y-96597092D01*
X110088853Y-96681583D01*
X110116963Y-96753312D01*
X110154766Y-96812116D01*
X110201777Y-96857997D01*
X110257512Y-96890953D01*
X110321325Y-96910824D01*
X110392569Y-96917447D01*
X110471567Y-96914216D01*
X110537964Y-96904523D01*
X110552718Y-96900646D01*
X110736349Y-96900646D01*
X110879806Y-96900646D01*
X110879806Y-96369467D01*
X110927841Y-96458140D01*
X110973721Y-96546670D01*
X111017447Y-96635057D01*
X111059020Y-96723443D01*
X111098438Y-96811973D01*
X111135703Y-96900646D01*
X111263651Y-96900646D01*
X111263651Y-96110985D01*
X111392892Y-96110985D01*
X111392892Y-96891599D01*
X111480129Y-96906462D01*
X111563489Y-96910985D01*
X111641519Y-96905331D01*
X111712763Y-96888368D01*
X111775929Y-96859128D01*
X111829725Y-96816640D01*
X111873506Y-96760258D01*
X111906624Y-96689338D01*
X111927464Y-96602908D01*
X111934410Y-96500000D01*
X111928110Y-96399354D01*
X111909208Y-96314540D01*
X111878998Y-96244426D01*
X111838772Y-96187884D01*
X111788530Y-96144750D01*
X111728271Y-96114863D01*
X111659612Y-96097415D01*
X111584168Y-96091599D01*
X111494992Y-96095477D01*
X111392892Y-96110985D01*
X111263651Y-96110985D01*
X111263651Y-96100646D01*
X111120194Y-96100646D01*
X111120194Y-96593053D01*
X111097415Y-96542649D01*
X111070436Y-96484491D01*
X111040065Y-96421486D01*
X111007108Y-96356543D01*
X110972375Y-96290468D01*
X110936672Y-96224071D01*
X110900485Y-96159935D01*
X110864297Y-96100646D01*
X110736349Y-96100646D01*
X110736349Y-96900646D01*
X110552718Y-96900646D01*
X110626494Y-96881260D01*
X110626494Y-96481906D01*
X110467528Y-96481906D01*
X110467528Y-96773990D01*
X110436511Y-96777868D01*
X110405493Y-96779160D01*
X110328271Y-96762197D01*
X110272375Y-96711309D01*
X110247245Y-96657674D01*
X110232167Y-96587237D01*
X110227141Y-96500000D01*
X110229887Y-96440711D01*
X110238126Y-96386914D01*
X110274313Y-96299031D01*
X110338288Y-96241519D01*
X110433926Y-96220840D01*
X110519225Y-96235057D01*
X110589015Y-96267367D01*
X110630372Y-96140711D01*
X110603877Y-96125202D01*
X110559289Y-96105816D01*
X110495315Y-96089661D01*
X110411955Y-96082553D01*
X110341842Y-96089176D01*
X110276252Y-96109047D01*
X110217124Y-96142165D01*
X110166397Y-96188530D01*
X110124717Y-96247819D01*
X110092730Y-96319709D01*
X110072375Y-96403877D01*
X110065590Y-96500000D01*
X109486591Y-96500000D01*
X109496682Y-96397549D01*
X109526566Y-96299035D01*
X109575095Y-96208243D01*
X109640404Y-96128664D01*
X109719983Y-96063355D01*
X109810774Y-96014826D01*
X109909288Y-95984942D01*
X110011739Y-95974852D01*
X110065590Y-95974852D01*
X111934410Y-95974852D01*
X111988261Y-95974852D01*
X112090712Y-95984942D01*
G37*
G36*
X111684976Y-96252504D02*
G01*
X111737964Y-96312601D01*
X111765105Y-96399192D01*
X111772859Y-96500000D01*
X111770436Y-96557027D01*
X111763166Y-96609208D01*
X111730856Y-96695153D01*
X111671405Y-96752019D01*
X111580291Y-96772698D01*
X111566074Y-96772698D01*
X111551858Y-96771405D01*
X111551858Y-96233764D01*
X111575121Y-96230533D01*
X111598384Y-96229887D01*
X111684976Y-96252504D01*
G37*
%TO.C,kibuzzard-66A68BCE*%
G36*
X90590712Y-95984942D02*
G01*
X90689226Y-96014826D01*
X90780017Y-96063355D01*
X90859596Y-96128664D01*
X90924905Y-96208243D01*
X90973434Y-96299035D01*
X91003318Y-96397549D01*
X91013409Y-96500000D01*
X91003318Y-96602451D01*
X90973434Y-96700965D01*
X90924905Y-96791757D01*
X90859596Y-96871336D01*
X90780017Y-96936645D01*
X90689226Y-96985174D01*
X90590712Y-97015058D01*
X90488261Y-97025148D01*
X90434410Y-97025148D01*
X90063489Y-97025148D01*
X89635703Y-97025148D01*
X88892569Y-97025148D01*
X88565590Y-97025148D01*
X88511739Y-97025148D01*
X88409288Y-97015058D01*
X88310774Y-96985174D01*
X88219983Y-96936645D01*
X88140404Y-96871336D01*
X88075095Y-96791757D01*
X88026566Y-96700965D01*
X87996682Y-96602451D01*
X87986591Y-96500000D01*
X88565590Y-96500000D01*
X88571405Y-96597092D01*
X88588853Y-96681583D01*
X88616963Y-96753312D01*
X88654766Y-96812116D01*
X88701777Y-96857997D01*
X88757512Y-96890953D01*
X88821325Y-96910824D01*
X88892569Y-96917447D01*
X88971567Y-96914216D01*
X89037964Y-96904523D01*
X89052718Y-96900646D01*
X89236349Y-96900646D01*
X89379806Y-96900646D01*
X89379806Y-96369467D01*
X89427841Y-96458140D01*
X89473721Y-96546670D01*
X89517447Y-96635057D01*
X89559020Y-96723443D01*
X89598438Y-96811973D01*
X89635703Y-96900646D01*
X89763651Y-96900646D01*
X89763651Y-96110985D01*
X89892892Y-96110985D01*
X89892892Y-96891599D01*
X89980129Y-96906462D01*
X90063489Y-96910985D01*
X90141519Y-96905331D01*
X90212763Y-96888368D01*
X90275929Y-96859128D01*
X90329725Y-96816640D01*
X90373506Y-96760258D01*
X90406624Y-96689338D01*
X90427464Y-96602908D01*
X90434410Y-96500000D01*
X90428110Y-96399354D01*
X90409208Y-96314540D01*
X90378998Y-96244426D01*
X90338772Y-96187884D01*
X90288530Y-96144750D01*
X90228271Y-96114863D01*
X90159612Y-96097415D01*
X90084168Y-96091599D01*
X89994992Y-96095477D01*
X89892892Y-96110985D01*
X89763651Y-96110985D01*
X89763651Y-96100646D01*
X89620194Y-96100646D01*
X89620194Y-96593053D01*
X89597415Y-96542649D01*
X89570436Y-96484491D01*
X89540065Y-96421486D01*
X89507108Y-96356543D01*
X89472375Y-96290468D01*
X89436672Y-96224071D01*
X89400485Y-96159935D01*
X89364297Y-96100646D01*
X89236349Y-96100646D01*
X89236349Y-96900646D01*
X89052718Y-96900646D01*
X89126494Y-96881260D01*
X89126494Y-96481906D01*
X88967528Y-96481906D01*
X88967528Y-96773990D01*
X88936511Y-96777868D01*
X88905493Y-96779160D01*
X88828271Y-96762197D01*
X88772375Y-96711309D01*
X88747245Y-96657674D01*
X88732167Y-96587237D01*
X88727141Y-96500000D01*
X88729887Y-96440711D01*
X88738126Y-96386914D01*
X88774313Y-96299031D01*
X88838288Y-96241519D01*
X88933926Y-96220840D01*
X89019225Y-96235057D01*
X89089015Y-96267367D01*
X89130372Y-96140711D01*
X89103877Y-96125202D01*
X89059289Y-96105816D01*
X88995315Y-96089661D01*
X88911955Y-96082553D01*
X88841842Y-96089176D01*
X88776252Y-96109047D01*
X88717124Y-96142165D01*
X88666397Y-96188530D01*
X88624717Y-96247819D01*
X88592730Y-96319709D01*
X88572375Y-96403877D01*
X88565590Y-96500000D01*
X87986591Y-96500000D01*
X87996682Y-96397549D01*
X88026566Y-96299035D01*
X88075095Y-96208243D01*
X88140404Y-96128664D01*
X88219983Y-96063355D01*
X88310774Y-96014826D01*
X88409288Y-95984942D01*
X88511739Y-95974852D01*
X88565590Y-95974852D01*
X90434410Y-95974852D01*
X90488261Y-95974852D01*
X90590712Y-95984942D01*
G37*
G36*
X90184976Y-96252504D02*
G01*
X90237964Y-96312601D01*
X90265105Y-96399192D01*
X90272859Y-96500000D01*
X90270436Y-96557027D01*
X90263166Y-96609208D01*
X90230856Y-96695153D01*
X90171405Y-96752019D01*
X90080291Y-96772698D01*
X90066074Y-96772698D01*
X90051858Y-96771405D01*
X90051858Y-96233764D01*
X90075121Y-96230533D01*
X90098384Y-96229887D01*
X90184976Y-96252504D01*
G37*
%TO.C,kibuzzard-66A68B20*%
G36*
X112097174Y-85984942D02*
G01*
X112195688Y-86014826D01*
X112286479Y-86063355D01*
X112366058Y-86128664D01*
X112431367Y-86208243D01*
X112479896Y-86299035D01*
X112509780Y-86397549D01*
X112519871Y-86500000D01*
X112509780Y-86602451D01*
X112479896Y-86700965D01*
X112431367Y-86791757D01*
X112366058Y-86871336D01*
X112286479Y-86936645D01*
X112195688Y-86985174D01*
X112097174Y-87015058D01*
X111994723Y-87025148D01*
X111940872Y-87025148D01*
X111717286Y-87025148D01*
X111071082Y-87025148D01*
X110282714Y-87025148D01*
X110059128Y-87025148D01*
X110005277Y-87025148D01*
X109902826Y-87015058D01*
X109804312Y-86985174D01*
X109713521Y-86936645D01*
X109633942Y-86871336D01*
X109568633Y-86791757D01*
X109520104Y-86700965D01*
X109490220Y-86602451D01*
X109480129Y-86500000D01*
X109490220Y-86397549D01*
X109520104Y-86299035D01*
X109568633Y-86208243D01*
X109633942Y-86128664D01*
X109668082Y-86100646D01*
X110059128Y-86100646D01*
X110073990Y-86173021D01*
X110095315Y-86263489D01*
X110112404Y-86331197D01*
X110130928Y-86401633D01*
X110150889Y-86474798D01*
X110171998Y-86549399D01*
X110193969Y-86624143D01*
X110216801Y-86699031D01*
X110250727Y-86805654D01*
X110282714Y-86900646D01*
X110446850Y-86900646D01*
X110471549Y-86831790D01*
X110495674Y-86761353D01*
X110519225Y-86689338D01*
X110541842Y-86616963D01*
X110563166Y-86545450D01*
X110576053Y-86500000D01*
X110723425Y-86500000D01*
X110728998Y-86594426D01*
X110745719Y-86677383D01*
X110773586Y-86748869D01*
X110812601Y-86808885D01*
X110880955Y-86869198D01*
X110967115Y-86905385D01*
X111071082Y-86917447D01*
X111141680Y-86913086D01*
X111203554Y-86900000D01*
X111294669Y-86861874D01*
X111254604Y-86736511D01*
X111189338Y-86764943D01*
X111086591Y-86779160D01*
X110994346Y-86760905D01*
X110932149Y-86706139D01*
X110905941Y-86650350D01*
X110890217Y-86580345D01*
X110885217Y-86500000D01*
X111369628Y-86500000D01*
X111375202Y-86594426D01*
X111391922Y-86677383D01*
X111419790Y-86748869D01*
X111458805Y-86808885D01*
X111527159Y-86869198D01*
X111613319Y-86905385D01*
X111717286Y-86917447D01*
X111787884Y-86913086D01*
X111849758Y-86900000D01*
X111940872Y-86861874D01*
X111900808Y-86736511D01*
X111835541Y-86764943D01*
X111732795Y-86779160D01*
X111640549Y-86760905D01*
X111578352Y-86706139D01*
X111552145Y-86650350D01*
X111536421Y-86580345D01*
X111531179Y-86496123D01*
X111535541Y-86423748D01*
X111548627Y-86364297D01*
X111593861Y-86279645D01*
X111657189Y-86234410D01*
X111730210Y-86220840D01*
X111826494Y-86234410D01*
X111898223Y-86267367D01*
X111939580Y-86140711D01*
X111913086Y-86125202D01*
X111869790Y-86105816D01*
X111809693Y-86089661D01*
X111732795Y-86082553D01*
X111657027Y-86089499D01*
X111587399Y-86110339D01*
X111525364Y-86144588D01*
X111472375Y-86191761D01*
X111429241Y-86251373D01*
X111396769Y-86322940D01*
X111376414Y-86405977D01*
X111369628Y-86500000D01*
X110885217Y-86500000D01*
X110884976Y-86496123D01*
X110889338Y-86423748D01*
X110902423Y-86364297D01*
X110947658Y-86279645D01*
X111010985Y-86234410D01*
X111084006Y-86220840D01*
X111180291Y-86234410D01*
X111252019Y-86267367D01*
X111293376Y-86140711D01*
X111266882Y-86125202D01*
X111223586Y-86105816D01*
X111163490Y-86089661D01*
X111086591Y-86082553D01*
X111010824Y-86089499D01*
X110941195Y-86110339D01*
X110879160Y-86144588D01*
X110826171Y-86191761D01*
X110783037Y-86251373D01*
X110750565Y-86322940D01*
X110730210Y-86405977D01*
X110723425Y-86500000D01*
X110576053Y-86500000D01*
X110583199Y-86474798D01*
X110610662Y-86371890D01*
X110634895Y-86273829D01*
X110655735Y-86182714D01*
X110673021Y-86100646D01*
X110506300Y-86100646D01*
X110494669Y-86167851D01*
X110480452Y-86245396D01*
X110464297Y-86329241D01*
X110446850Y-86415347D01*
X110428110Y-86501939D01*
X110408078Y-86587237D01*
X110387399Y-86667205D01*
X110366721Y-86737803D01*
X110345880Y-86666236D01*
X110324717Y-86585945D01*
X110304039Y-86500646D01*
X110284653Y-86414055D01*
X110266721Y-86328110D01*
X110250404Y-86244750D01*
X110236834Y-86167690D01*
X110227141Y-86100646D01*
X110059128Y-86100646D01*
X109668082Y-86100646D01*
X109713521Y-86063355D01*
X109804312Y-86014826D01*
X109902826Y-85984942D01*
X110005277Y-85974852D01*
X110059128Y-85974852D01*
X111940872Y-85974852D01*
X111994723Y-85974852D01*
X112097174Y-85984942D01*
G37*
G36*
X90597174Y-85884942D02*
G01*
X90695688Y-85914826D01*
X90786479Y-85963355D01*
X90866058Y-86028664D01*
X90931367Y-86108243D01*
X90979896Y-86199035D01*
X91009780Y-86297549D01*
X91019871Y-86400000D01*
X91009780Y-86502451D01*
X90979896Y-86600965D01*
X90931367Y-86691757D01*
X90866058Y-86771336D01*
X90786479Y-86836645D01*
X90695688Y-86885174D01*
X90597174Y-86915058D01*
X90494723Y-86925148D01*
X90440872Y-86925148D01*
X90217286Y-86925148D01*
X89571082Y-86925148D01*
X88782714Y-86925148D01*
X88559128Y-86925148D01*
X88505277Y-86925148D01*
X88402826Y-86915058D01*
X88304312Y-86885174D01*
X88213521Y-86836645D01*
X88133942Y-86771336D01*
X88068633Y-86691757D01*
X88020104Y-86600965D01*
X87990220Y-86502451D01*
X87980129Y-86400000D01*
X87990220Y-86297549D01*
X88020104Y-86199035D01*
X88068633Y-86108243D01*
X88133942Y-86028664D01*
X88168082Y-86000646D01*
X88559128Y-86000646D01*
X88573990Y-86073021D01*
X88595315Y-86163489D01*
X88612404Y-86231197D01*
X88630928Y-86301633D01*
X88650889Y-86374798D01*
X88671998Y-86449399D01*
X88693969Y-86524143D01*
X88716801Y-86599031D01*
X88750727Y-86705654D01*
X88782714Y-86800646D01*
X88946850Y-86800646D01*
X88971549Y-86731790D01*
X88995674Y-86661353D01*
X89019225Y-86589338D01*
X89041842Y-86516963D01*
X89063166Y-86445450D01*
X89076053Y-86400000D01*
X89223425Y-86400000D01*
X89228998Y-86494426D01*
X89245719Y-86577383D01*
X89273586Y-86648869D01*
X89312601Y-86708885D01*
X89380955Y-86769198D01*
X89467115Y-86805385D01*
X89571082Y-86817447D01*
X89641680Y-86813086D01*
X89703554Y-86800000D01*
X89794669Y-86761874D01*
X89754604Y-86636511D01*
X89689338Y-86664943D01*
X89586591Y-86679160D01*
X89494346Y-86660905D01*
X89432149Y-86606139D01*
X89405941Y-86550350D01*
X89390217Y-86480345D01*
X89385217Y-86400000D01*
X89869628Y-86400000D01*
X89875202Y-86494426D01*
X89891922Y-86577383D01*
X89919790Y-86648869D01*
X89958805Y-86708885D01*
X90027159Y-86769198D01*
X90113319Y-86805385D01*
X90217286Y-86817447D01*
X90287884Y-86813086D01*
X90349758Y-86800000D01*
X90440872Y-86761874D01*
X90400808Y-86636511D01*
X90335541Y-86664943D01*
X90232795Y-86679160D01*
X90140549Y-86660905D01*
X90078352Y-86606139D01*
X90052145Y-86550350D01*
X90036421Y-86480345D01*
X90031179Y-86396123D01*
X90035541Y-86323748D01*
X90048627Y-86264297D01*
X90093861Y-86179645D01*
X90157189Y-86134410D01*
X90230210Y-86120840D01*
X90326494Y-86134410D01*
X90398223Y-86167367D01*
X90439580Y-86040711D01*
X90413086Y-86025202D01*
X90369790Y-86005816D01*
X90309693Y-85989661D01*
X90232795Y-85982553D01*
X90157027Y-85989499D01*
X90087399Y-86010339D01*
X90025364Y-86044588D01*
X89972375Y-86091761D01*
X89929241Y-86151373D01*
X89896769Y-86222940D01*
X89876414Y-86305977D01*
X89869628Y-86400000D01*
X89385217Y-86400000D01*
X89384976Y-86396123D01*
X89389338Y-86323748D01*
X89402423Y-86264297D01*
X89447658Y-86179645D01*
X89510985Y-86134410D01*
X89584006Y-86120840D01*
X89680291Y-86134410D01*
X89752019Y-86167367D01*
X89793376Y-86040711D01*
X89766882Y-86025202D01*
X89723586Y-86005816D01*
X89663490Y-85989661D01*
X89586591Y-85982553D01*
X89510824Y-85989499D01*
X89441195Y-86010339D01*
X89379160Y-86044588D01*
X89326171Y-86091761D01*
X89283037Y-86151373D01*
X89250565Y-86222940D01*
X89230210Y-86305977D01*
X89223425Y-86400000D01*
X89076053Y-86400000D01*
X89083199Y-86374798D01*
X89110662Y-86271890D01*
X89134895Y-86173829D01*
X89155735Y-86082714D01*
X89173021Y-86000646D01*
X89006300Y-86000646D01*
X88994669Y-86067851D01*
X88980452Y-86145396D01*
X88964297Y-86229241D01*
X88946850Y-86315347D01*
X88928110Y-86401939D01*
X88908078Y-86487237D01*
X88887399Y-86567205D01*
X88866721Y-86637803D01*
X88845880Y-86566236D01*
X88824717Y-86485945D01*
X88804039Y-86400646D01*
X88784653Y-86314055D01*
X88766721Y-86228110D01*
X88750404Y-86144750D01*
X88736834Y-86067690D01*
X88727141Y-86000646D01*
X88559128Y-86000646D01*
X88168082Y-86000646D01*
X88213521Y-85963355D01*
X88304312Y-85914826D01*
X88402826Y-85884942D01*
X88505277Y-85874852D01*
X88559128Y-85874852D01*
X90440872Y-85874852D01*
X90494723Y-85874852D01*
X90597174Y-85884942D01*
G37*
D11*
%TO.C,TP105*%
X96600000Y-91100000D02*
X95200000Y-91100000D01*
X96600000Y-89700000D02*
X96600000Y-91100000D01*
X95200000Y-91100000D02*
X95200000Y-89700000D01*
X95200000Y-89700000D02*
X96600000Y-89700000D01*
%TO.C,C101*%
X99375000Y-89538748D02*
X99375000Y-90061252D01*
X97905000Y-89538748D02*
X97905000Y-90061252D01*
%TO.C,TP102*%
X96600000Y-88300000D02*
X95200000Y-88300000D01*
X96600000Y-86900000D02*
X96600000Y-88300000D01*
X95200000Y-88300000D02*
X95200000Y-86900000D01*
X95200000Y-86900000D02*
X96600000Y-86900000D01*
%TO.C,TP103*%
X104800000Y-88300000D02*
X103400000Y-88300000D01*
X104800000Y-86900000D02*
X104800000Y-88300000D01*
X103400000Y-88300000D02*
X103400000Y-86900000D01*
X103400000Y-86900000D02*
X104800000Y-86900000D01*
%TO.C,TP104*%
X104800000Y-86300000D02*
X103400000Y-86300000D01*
X104800000Y-84900000D02*
X104800000Y-86300000D01*
X103400000Y-86300000D02*
X103400000Y-84900000D01*
X103400000Y-84900000D02*
X104800000Y-84900000D01*
%TO.C,TP107*%
X96600000Y-95100000D02*
X95200000Y-95100000D01*
X96600000Y-93700000D02*
X96600000Y-95100000D01*
X95200000Y-95100000D02*
X95200000Y-93700000D01*
X95200000Y-93700000D02*
X96600000Y-93700000D01*
%TO.C,U101*%
X98700000Y-92240000D02*
X98460000Y-91910000D01*
X98940000Y-91910000D01*
X98700000Y-92240000D01*
G36*
X98700000Y-92240000D02*
G01*
X98460000Y-91910000D01*
X98940000Y-91910000D01*
X98700000Y-92240000D01*
G37*
X100000000Y-95310000D02*
X100800000Y-95310000D01*
X100000000Y-95310000D02*
X99200000Y-95310000D01*
X100000000Y-92190000D02*
X100800000Y-92190000D01*
X100000000Y-92190000D02*
X99200000Y-92190000D01*
%TO.C,TP108*%
X104800000Y-95100000D02*
X103400000Y-95100000D01*
X104800000Y-93700000D02*
X104800000Y-95100000D01*
X103400000Y-95100000D02*
X103400000Y-93700000D01*
X103400000Y-93700000D02*
X104800000Y-93700000D01*
D10*
%TO.C,kibuzzard-66A296D6*%
G36*
X102526297Y-97600000D02*
G01*
X102176198Y-98125148D01*
X101906947Y-98125148D01*
X101629079Y-98125148D01*
X100984168Y-98125148D01*
X100336672Y-98125148D01*
X99691761Y-98125148D01*
X99314378Y-98125148D01*
X98325687Y-98125148D01*
X98093053Y-98125148D01*
X97823802Y-98125148D01*
X97473703Y-97600000D01*
X97611560Y-97393215D01*
X98093053Y-97393215D01*
X98120557Y-97483158D01*
X98148788Y-97569467D01*
X98177746Y-97652141D01*
X98207431Y-97731179D01*
X98247281Y-97829761D01*
X98286699Y-97919584D01*
X98325687Y-98000646D01*
X98458805Y-98000646D01*
X98498438Y-97919584D01*
X98539795Y-97829761D01*
X98582876Y-97731179D01*
X98615105Y-97652141D01*
X98645880Y-97569467D01*
X98675202Y-97483158D01*
X98703069Y-97393215D01*
X98541519Y-97393215D01*
X98528110Y-97443942D01*
X98511147Y-97497900D01*
X98492084Y-97553635D01*
X98472375Y-97609693D01*
X98452181Y-97665105D01*
X98431664Y-97718901D01*
X98394184Y-97815832D01*
X98358643Y-97718901D01*
X98340065Y-97665105D01*
X98321809Y-97609693D01*
X98304200Y-97553635D01*
X98287561Y-97497900D01*
X98272536Y-97443942D01*
X98259774Y-97393215D01*
X98093053Y-97393215D01*
X97611560Y-97393215D01*
X97628792Y-97367367D01*
X98783199Y-97367367D01*
X98834895Y-97499192D01*
X98913732Y-97467528D01*
X98996446Y-97421648D01*
X98996446Y-97868821D01*
X98828433Y-97868821D01*
X98828433Y-98000646D01*
X99314378Y-98000646D01*
X99314378Y-97898546D01*
X99575444Y-97898546D01*
X99585137Y-97948304D01*
X99610985Y-97984491D01*
X99647819Y-98007108D01*
X99691761Y-98014863D01*
X99771890Y-97985137D01*
X99806785Y-97898546D01*
X99771890Y-97814540D01*
X99691761Y-97784814D01*
X99647819Y-97792569D01*
X99610985Y-97814540D01*
X99585137Y-97850081D01*
X99575444Y-97898546D01*
X99314378Y-97898546D01*
X99314378Y-97868821D01*
X99155412Y-97868821D01*
X99155412Y-97598708D01*
X100058805Y-97598708D01*
X100063247Y-97697900D01*
X100076575Y-97783522D01*
X100098788Y-97855574D01*
X100129887Y-97914055D01*
X100184455Y-97971495D01*
X100253384Y-98005959D01*
X100336672Y-98017447D01*
X100419961Y-98005959D01*
X100488889Y-97971495D01*
X100543457Y-97914055D01*
X100551704Y-97898546D01*
X100867851Y-97898546D01*
X100877544Y-97948304D01*
X100903393Y-97984491D01*
X100940226Y-98007108D01*
X100984168Y-98014863D01*
X101064297Y-97985137D01*
X101099192Y-97898546D01*
X101064297Y-97814540D01*
X100984168Y-97784814D01*
X100940226Y-97792569D01*
X100903393Y-97814540D01*
X100877544Y-97850081D01*
X100867851Y-97898546D01*
X100551704Y-97898546D01*
X100574556Y-97855574D01*
X100596769Y-97783522D01*
X100610097Y-97697900D01*
X100614540Y-97598708D01*
X101351212Y-97598708D01*
X101355654Y-97697900D01*
X101368982Y-97783522D01*
X101391195Y-97855574D01*
X101422294Y-97914055D01*
X101476862Y-97971495D01*
X101545791Y-98005959D01*
X101629079Y-98017447D01*
X101712368Y-98005959D01*
X101781296Y-97971495D01*
X101835864Y-97914055D01*
X101866963Y-97855574D01*
X101889176Y-97783522D01*
X101902504Y-97697900D01*
X101906947Y-97598708D01*
X101902504Y-97500121D01*
X101889176Y-97415024D01*
X101866963Y-97343417D01*
X101835864Y-97285299D01*
X101781296Y-97228218D01*
X101712368Y-97193969D01*
X101629079Y-97182553D01*
X101547083Y-97194041D01*
X101478586Y-97228505D01*
X101423586Y-97285945D01*
X101391922Y-97344265D01*
X101369305Y-97415832D01*
X101355735Y-97500646D01*
X101351212Y-97598708D01*
X100614540Y-97598708D01*
X100610097Y-97500121D01*
X100596769Y-97415024D01*
X100574556Y-97343417D01*
X100543457Y-97285299D01*
X100488889Y-97228218D01*
X100419961Y-97193969D01*
X100336672Y-97182553D01*
X100254676Y-97194041D01*
X100186178Y-97228505D01*
X100131179Y-97285945D01*
X100099515Y-97344265D01*
X100076898Y-97415832D01*
X100063328Y-97500646D01*
X100058805Y-97598708D01*
X99155412Y-97598708D01*
X99155412Y-97200646D01*
X99046850Y-97200646D01*
X98991276Y-97251050D01*
X98922779Y-97297577D01*
X98850404Y-97337641D01*
X98783199Y-97367367D01*
X97628792Y-97367367D01*
X97823802Y-97074852D01*
X98093053Y-97074852D01*
X101906947Y-97074852D01*
X102176198Y-97074852D01*
X102526297Y-97600000D01*
G37*
G36*
X101687076Y-97336187D02*
G01*
X101729241Y-97389984D01*
X101748268Y-97445055D01*
X101759684Y-97514629D01*
X101763489Y-97598708D01*
X101759684Y-97683504D01*
X101748268Y-97753509D01*
X101729241Y-97808724D01*
X101687076Y-97862520D01*
X101630372Y-97880053D01*
X101629079Y-97880452D01*
X101571890Y-97862520D01*
X101529564Y-97808724D01*
X101510178Y-97753509D01*
X101498546Y-97683504D01*
X101494669Y-97598708D01*
X101495265Y-97585784D01*
X101557997Y-97585784D01*
X101577383Y-97645880D01*
X101630372Y-97671082D01*
X101681422Y-97645880D01*
X101701454Y-97585784D01*
X101681422Y-97525040D01*
X101630372Y-97499192D01*
X101577383Y-97525040D01*
X101557997Y-97585784D01*
X101495265Y-97585784D01*
X101498546Y-97514629D01*
X101510178Y-97445055D01*
X101529564Y-97389984D01*
X101571890Y-97336187D01*
X101629079Y-97318255D01*
X101687076Y-97336187D01*
G37*
G36*
X100394669Y-97336187D02*
G01*
X100436834Y-97389984D01*
X100455861Y-97445055D01*
X100467277Y-97514629D01*
X100471082Y-97598708D01*
X100467277Y-97683504D01*
X100455861Y-97753509D01*
X100436834Y-97808724D01*
X100394669Y-97862520D01*
X100337964Y-97880053D01*
X100336672Y-97880452D01*
X100279483Y-97862520D01*
X100237157Y-97808724D01*
X100217771Y-97753509D01*
X100206139Y-97683504D01*
X100202262Y-97598708D01*
X100202858Y-97585784D01*
X100265590Y-97585784D01*
X100284976Y-97645880D01*
X100337964Y-97671082D01*
X100389015Y-97645880D01*
X100409047Y-97585784D01*
X100389015Y-97525040D01*
X100337964Y-97499192D01*
X100284976Y-97525040D01*
X100265590Y-97585784D01*
X100202858Y-97585784D01*
X100206139Y-97514629D01*
X100217771Y-97445055D01*
X100237157Y-97389984D01*
X100279483Y-97336187D01*
X100336672Y-97318255D01*
X100394669Y-97336187D01*
G37*
D11*
%TO.C,TP110*%
X104800000Y-91100000D02*
X103400000Y-91100000D01*
X104800000Y-89700000D02*
X104800000Y-91100000D01*
X103400000Y-91100000D02*
X103400000Y-89700000D01*
X103400000Y-89700000D02*
X104800000Y-89700000D01*
%TO.C,TP111*%
X96600000Y-97900000D02*
X95200000Y-97900000D01*
X96600000Y-96500000D02*
X96600000Y-97900000D01*
X95200000Y-97900000D02*
X95200000Y-96500000D01*
X95200000Y-96500000D02*
X96600000Y-96500000D01*
%TO.C,TP109*%
X104800000Y-93100000D02*
X103400000Y-93100000D01*
X104800000Y-91700000D02*
X104800000Y-93100000D01*
X103400000Y-93100000D02*
X103400000Y-91700000D01*
X103400000Y-91700000D02*
X104800000Y-91700000D01*
%TO.C,TP112*%
X104800000Y-98000000D02*
X103400000Y-98000000D01*
X104800000Y-96600000D02*
X104800000Y-98000000D01*
X103400000Y-98000000D02*
X103400000Y-96600000D01*
X103400000Y-96600000D02*
X104800000Y-96600000D01*
D10*
%TO.C,kibuzzard-66A29686*%
G36*
X102578488Y-95784942D02*
G01*
X102677002Y-95814826D01*
X102767793Y-95863355D01*
X102847372Y-95928664D01*
X102912681Y-96008243D01*
X102961210Y-96099035D01*
X102991094Y-96197549D01*
X103001185Y-96300000D01*
X102991094Y-96402451D01*
X102961210Y-96500965D01*
X102912681Y-96591757D01*
X102847372Y-96671336D01*
X102767793Y-96736645D01*
X102677002Y-96785174D01*
X102578488Y-96815058D01*
X102476037Y-96825148D01*
X102206785Y-96825148D01*
X101953473Y-96825148D01*
X101472698Y-96825148D01*
X100601616Y-96825148D01*
X100277221Y-96825148D01*
X99437157Y-96825148D01*
X98712116Y-96825148D01*
X98041357Y-96825148D01*
X97793215Y-96825148D01*
X97523963Y-96825148D01*
X97421512Y-96815058D01*
X97322998Y-96785174D01*
X97232207Y-96736645D01*
X97152628Y-96671336D01*
X97140620Y-96656704D01*
X97793215Y-96656704D01*
X97882391Y-96696123D01*
X97951858Y-96712116D01*
X98041357Y-96717447D01*
X98132041Y-96710626D01*
X98205924Y-96690163D01*
X98263005Y-96656058D01*
X98317771Y-96581906D01*
X98336026Y-96482229D01*
X98330533Y-96421971D01*
X98314055Y-96373021D01*
X98257835Y-96300646D01*
X98256794Y-96300000D01*
X98422617Y-96300000D01*
X98427262Y-96397052D01*
X98441196Y-96481422D01*
X98464418Y-96553110D01*
X98496931Y-96612116D01*
X98553868Y-96670634D01*
X98625597Y-96705744D01*
X98712116Y-96717447D01*
X98796554Y-96705744D01*
X98867205Y-96670634D01*
X98924071Y-96612116D01*
X98956866Y-96553110D01*
X98980291Y-96481422D01*
X98994346Y-96397052D01*
X98999031Y-96300000D01*
X98994427Y-96202948D01*
X98980614Y-96118578D01*
X98957593Y-96046890D01*
X98949718Y-96032472D01*
X99066236Y-96032472D01*
X99276898Y-96032472D01*
X99276898Y-96700646D01*
X99437157Y-96700646D01*
X99437157Y-96032472D01*
X99647819Y-96032472D01*
X99647819Y-95988530D01*
X99735703Y-95988530D01*
X99814540Y-96099677D01*
X99895961Y-96038934D01*
X99974798Y-96020840D01*
X100049758Y-96047334D01*
X100079483Y-96122940D01*
X100055574Y-96191438D01*
X99994830Y-96261228D01*
X99956704Y-96298223D01*
X99915994Y-96336834D01*
X99875283Y-96377868D01*
X99837157Y-96422132D01*
X99803554Y-96470113D01*
X99776414Y-96522294D01*
X99758481Y-96579160D01*
X99752504Y-96641195D01*
X99751858Y-96668336D01*
X99755089Y-96700646D01*
X100277221Y-96700646D01*
X100277221Y-96673506D01*
X100379322Y-96673506D01*
X100419386Y-96687722D01*
X100475606Y-96701939D01*
X100538934Y-96712924D01*
X100601616Y-96717447D01*
X100676252Y-96712763D01*
X100739903Y-96698708D01*
X100792892Y-96676090D01*
X100835541Y-96645719D01*
X100891115Y-96564943D01*
X100909208Y-96462843D01*
X100907163Y-96447334D01*
X101118578Y-96447334D01*
X101472698Y-96447334D01*
X101472698Y-96373667D01*
X101678191Y-96373667D01*
X101686017Y-96481296D01*
X101709496Y-96568103D01*
X101748627Y-96634087D01*
X101802693Y-96680398D01*
X101870975Y-96708185D01*
X101953473Y-96717447D01*
X102014863Y-96711147D01*
X102067205Y-96692246D01*
X102146042Y-96626979D01*
X102191922Y-96539095D01*
X102206785Y-96444750D01*
X102193215Y-96346527D01*
X102148627Y-96265105D01*
X102069144Y-96209532D01*
X102015347Y-96194023D01*
X101950889Y-96188853D01*
X101909532Y-96194669D01*
X101861712Y-96210824D01*
X101906301Y-96126817D01*
X101978029Y-96071890D01*
X102068498Y-96041519D01*
X102169305Y-96031179D01*
X102160259Y-95895477D01*
X102056543Y-95903231D01*
X101962520Y-95926494D01*
X101879806Y-95964943D01*
X101810016Y-96018255D01*
X101753958Y-96086107D01*
X101712439Y-96168174D01*
X101686753Y-96264136D01*
X101678191Y-96373667D01*
X101472698Y-96373667D01*
X101472698Y-96290953D01*
X101118578Y-96290953D01*
X101118578Y-96447334D01*
X100907163Y-96447334D01*
X100900646Y-96397900D01*
X100874960Y-96342649D01*
X100833764Y-96298384D01*
X100778675Y-96266397D01*
X100851050Y-96199192D01*
X100878191Y-96107431D01*
X100862682Y-96018255D01*
X100814863Y-95946527D01*
X100732795Y-95899354D01*
X100678675Y-95886753D01*
X100615832Y-95882553D01*
X100547173Y-95888530D01*
X100485945Y-95906462D01*
X100393538Y-95953635D01*
X100450404Y-96069952D01*
X100527302Y-96033118D01*
X100617124Y-96018255D01*
X100690145Y-96043457D01*
X100716640Y-96112601D01*
X100704362Y-96161712D01*
X100672698Y-96192730D01*
X100628756Y-96209532D01*
X100579645Y-96214701D01*
X100520194Y-96214701D01*
X100520194Y-96346527D01*
X100569305Y-96346527D01*
X100640065Y-96352827D01*
X100697254Y-96371729D01*
X100735057Y-96406462D01*
X100747658Y-96460258D01*
X100714701Y-96546850D01*
X100669628Y-96573021D01*
X100600323Y-96581745D01*
X100539095Y-96578191D01*
X100487238Y-96567528D01*
X100410339Y-96540388D01*
X100379322Y-96673506D01*
X100277221Y-96673506D01*
X100277221Y-96568821D01*
X99933441Y-96568821D01*
X99947011Y-96526171D01*
X99979968Y-96480291D01*
X100021325Y-96436349D01*
X100060097Y-96399515D01*
X100126010Y-96334895D01*
X100184168Y-96265105D01*
X100225525Y-96190792D01*
X100241034Y-96111309D01*
X100220355Y-96011147D01*
X100164782Y-95939418D01*
X100084653Y-95896769D01*
X99990307Y-95882553D01*
X99922940Y-95889015D01*
X99855250Y-95908401D01*
X99791438Y-95941357D01*
X99735703Y-95988530D01*
X99647819Y-95988530D01*
X99647819Y-95900646D01*
X99066236Y-95900646D01*
X99066236Y-96032472D01*
X98949718Y-96032472D01*
X98925364Y-95987884D01*
X98868785Y-95929366D01*
X98797272Y-95894256D01*
X98710824Y-95882553D01*
X98626961Y-95894256D01*
X98556309Y-95929366D01*
X98498869Y-95987884D01*
X98465509Y-96046890D01*
X98441680Y-96118578D01*
X98427383Y-96202948D01*
X98422617Y-96300000D01*
X98256794Y-96300000D01*
X98182876Y-96254120D01*
X98104685Y-96222456D01*
X98054927Y-96203069D01*
X98009693Y-96179160D01*
X97976737Y-96148142D01*
X97963813Y-96107431D01*
X97977886Y-96056453D01*
X98020104Y-96025866D01*
X98090469Y-96015670D01*
X98181583Y-96028595D01*
X98253312Y-96059612D01*
X98299838Y-95936834D01*
X98207431Y-95899354D01*
X98147819Y-95886753D01*
X98078837Y-95882553D01*
X97999641Y-95889589D01*
X97932651Y-95910698D01*
X97877868Y-95945880D01*
X97823102Y-96021486D01*
X97804847Y-96121648D01*
X97825525Y-96216640D01*
X97877868Y-96280614D01*
X97948304Y-96323263D01*
X98023263Y-96352989D01*
X98077544Y-96375606D01*
X98126656Y-96402746D01*
X98162843Y-96436995D01*
X98177060Y-96480937D01*
X98171244Y-96519063D01*
X98149919Y-96552666D01*
X98107916Y-96575929D01*
X98041357Y-96584330D01*
X97976898Y-96579806D01*
X97923102Y-96566236D01*
X97839742Y-96527464D01*
X97793215Y-96656704D01*
X97140620Y-96656704D01*
X97087319Y-96591757D01*
X97038790Y-96500965D01*
X97008906Y-96402451D01*
X96998815Y-96300000D01*
X97008906Y-96197549D01*
X97038790Y-96099035D01*
X97087319Y-96008243D01*
X97152628Y-95928664D01*
X97232207Y-95863355D01*
X97322998Y-95814826D01*
X97421512Y-95784942D01*
X97523963Y-95774852D01*
X97793215Y-95774852D01*
X102206785Y-95774852D01*
X102476037Y-95774852D01*
X102578488Y-95784942D01*
G37*
G36*
X98776737Y-96042811D02*
G01*
X98814863Y-96102262D01*
X98832956Y-96190792D01*
X98836349Y-96243619D01*
X98837480Y-96300000D01*
X98836349Y-96356220D01*
X98832956Y-96408562D01*
X98814863Y-96497092D01*
X98776091Y-96557189D01*
X98710824Y-96579160D01*
X98644911Y-96557189D01*
X98606785Y-96497738D01*
X98588691Y-96409208D01*
X98585299Y-96356381D01*
X98584168Y-96300000D01*
X98585299Y-96243780D01*
X98588691Y-96191438D01*
X98606785Y-96102908D01*
X98644911Y-96042811D01*
X98710824Y-96020840D01*
X98776737Y-96042811D01*
G37*
G36*
X101987399Y-96328918D02*
G01*
X102024556Y-96353635D01*
X102051696Y-96447334D01*
X102045880Y-96492569D01*
X102027787Y-96535218D01*
X101996123Y-96567528D01*
X101949596Y-96580452D01*
X101893376Y-96564297D01*
X101857835Y-96521002D01*
X101839742Y-96459612D01*
X101834572Y-96387884D01*
X101835218Y-96363328D01*
X101837157Y-96340065D01*
X101879806Y-96325848D01*
X101930210Y-96320679D01*
X101987399Y-96328918D01*
G37*
D11*
%TO.C,C102*%
X102095000Y-89538748D02*
X102095000Y-90061252D01*
X100625000Y-89538748D02*
X100625000Y-90061252D01*
%TO.C,TP106*%
X96600000Y-93100000D02*
X95200000Y-93100000D01*
X96600000Y-91700000D02*
X96600000Y-93100000D01*
X95200000Y-93100000D02*
X95200000Y-91700000D01*
X95200000Y-91700000D02*
X96600000Y-91700000D01*
%TO.C,JP101*%
X101400000Y-86100000D02*
G75*
G02*
X100700000Y-86800000I-700000J0D01*
G01*
X100700000Y-84800000D02*
G75*
G02*
X101400000Y-85500000I0J-700000D01*
G01*
X99300000Y-86800000D02*
G75*
G02*
X98600000Y-86100000I-1J699999D01*
G01*
X98600000Y-85500000D02*
G75*
G02*
X99300000Y-84800000I699999J1D01*
G01*
X101400000Y-85500000D02*
X101400000Y-86100000D01*
X100700000Y-86800000D02*
X99300000Y-86800000D01*
X99300000Y-84800000D02*
X100700000Y-84800000D01*
X98600000Y-86100000D02*
X98600000Y-85500000D01*
%TO.C,TP101*%
X96600000Y-86300000D02*
X95200000Y-86300000D01*
X96600000Y-84900000D02*
X96600000Y-86300000D01*
X95200000Y-86300000D02*
X95200000Y-84900000D01*
X95200000Y-84900000D02*
X96600000Y-84900000D01*
%TD*%
D12*
X95900000Y-90400000D03*
X95900000Y-87600000D03*
X104100000Y-87600000D03*
X104100000Y-85600000D03*
X95900000Y-94400000D03*
X104100000Y-94400000D03*
X104100000Y-90400000D03*
X95900000Y-97200000D03*
X104100000Y-92400000D03*
X107620000Y-96520000D03*
X107620000Y-93980000D03*
X107620000Y-91440000D03*
X107620000Y-88900000D03*
X107620000Y-86360000D03*
X104100000Y-97300000D03*
X95900000Y-92400000D03*
X92380000Y-96580000D03*
X92380000Y-94040000D03*
X92380000Y-91500000D03*
X92380000Y-88960000D03*
X92380000Y-86420000D03*
X95900000Y-85600000D03*
M02*
