%TF.GenerationSoftware,KiCad,Pcbnew,8.0.3*%
%TF.CreationDate,2024-07-29T06:26:44+12:00*%
%TF.ProjectId,sot23-6,736f7432-332d-4362-9e6b-696361645f70,rev?*%
%TF.SameCoordinates,Original*%
%TF.FileFunction,Legend,Top*%
%TF.FilePolarity,Positive*%
%FSLAX46Y46*%
G04 Gerber Fmt 4.6, Leading zero omitted, Abs format (unit mm)*
G04 Created by KiCad (PCBNEW 8.0.3) date 2024-07-29 06:26:44*
%MOMM*%
%LPD*%
G01*
G04 APERTURE LIST*
%ADD10C,0.000000*%
%ADD11C,0.120000*%
%ADD12C,0.350000*%
G04 APERTURE END LIST*
D10*
%TO.C,kibuzzard-66A68C65*%
G36*
X-10880608Y-11491280D02*
G01*
X-10783306Y-11520797D01*
X-10693632Y-11568728D01*
X-10615032Y-11633234D01*
X-10550527Y-11711833D01*
X-10502595Y-11801507D01*
X-10473079Y-11898809D01*
X-10463113Y-12000000D01*
X-10473079Y-12101191D01*
X-10502595Y-12198493D01*
X-10550527Y-12288167D01*
X-10615032Y-12366766D01*
X-10693632Y-12431272D01*
X-10783306Y-12479203D01*
X-10880608Y-12508720D01*
X-10981799Y-12518686D01*
X-11735703Y-12518686D01*
X-11989015Y-12518686D01*
X-12264297Y-12518686D01*
X-13018201Y-12518686D01*
X-13119392Y-12508720D01*
X-13216694Y-12479203D01*
X-13306368Y-12431272D01*
X-13384968Y-12366766D01*
X-13449473Y-12288167D01*
X-13497405Y-12198493D01*
X-13526921Y-12101191D01*
X-13530268Y-12067205D01*
X-12264297Y-12067205D01*
X-12256471Y-12174834D01*
X-12232992Y-12261641D01*
X-12193861Y-12327625D01*
X-12139795Y-12373936D01*
X-12071513Y-12401723D01*
X-11989015Y-12410985D01*
X-11927625Y-12404685D01*
X-11875283Y-12385784D01*
X-11796446Y-12320517D01*
X-11750565Y-12232633D01*
X-11735703Y-12138288D01*
X-11749273Y-12040065D01*
X-11793861Y-11958643D01*
X-11873344Y-11903069D01*
X-11927141Y-11887561D01*
X-11991599Y-11882391D01*
X-12032956Y-11888207D01*
X-12080775Y-11904362D01*
X-12036187Y-11820355D01*
X-11964459Y-11765428D01*
X-11873990Y-11735057D01*
X-11773183Y-11724717D01*
X-11782229Y-11589015D01*
X-11885945Y-11596769D01*
X-11979968Y-11620032D01*
X-12062682Y-11658481D01*
X-12132472Y-11711793D01*
X-12188530Y-11779645D01*
X-12230048Y-11861712D01*
X-12255735Y-11957674D01*
X-12264297Y-12067205D01*
X-13530268Y-12067205D01*
X-13536887Y-12000000D01*
X-13526921Y-11898809D01*
X-13497405Y-11801507D01*
X-13449473Y-11711833D01*
X-13384968Y-11633234D01*
X-13306368Y-11568728D01*
X-13216694Y-11520797D01*
X-13119392Y-11491280D01*
X-13018201Y-11481314D01*
X-12264297Y-11481314D01*
X-11735703Y-11481314D01*
X-10981799Y-11481314D01*
X-10880608Y-11491280D01*
G37*
G36*
X-11955089Y-12022456D02*
G01*
X-11917932Y-12047173D01*
X-11890792Y-12140872D01*
X-11896607Y-12186107D01*
X-11914701Y-12228756D01*
X-11946365Y-12261066D01*
X-11992892Y-12273990D01*
X-12049111Y-12257835D01*
X-12084653Y-12214540D01*
X-12102746Y-12153150D01*
X-12107916Y-12081422D01*
X-12107270Y-12056866D01*
X-12105331Y-12033603D01*
X-12062682Y-12019386D01*
X-12012278Y-12014216D01*
X-11955089Y-12022456D01*
G37*
%TO.C,kibuzzard-66A68C60*%
G36*
X-10879174Y-13993816D02*
G01*
X-10782357Y-14023185D01*
X-10693130Y-14070878D01*
X-10614921Y-14135061D01*
X-10550738Y-14213270D01*
X-10503045Y-14302497D01*
X-10473676Y-14399314D01*
X-10463759Y-14500000D01*
X-10473676Y-14600686D01*
X-10503045Y-14697503D01*
X-10550738Y-14786730D01*
X-10614921Y-14864939D01*
X-10693130Y-14929122D01*
X-10782357Y-14976815D01*
X-10879174Y-15006184D01*
X-10979860Y-15016101D01*
X-11733764Y-15016101D01*
X-12050404Y-15016101D01*
X-12266236Y-15016101D01*
X-13020140Y-15016101D01*
X-13120826Y-15006184D01*
X-13217643Y-14976815D01*
X-13306870Y-14929122D01*
X-13382514Y-14867044D01*
X-12266236Y-14867044D01*
X-12229402Y-14881260D01*
X-12175767Y-14894830D01*
X-12113732Y-14904523D01*
X-12050404Y-14908401D01*
X-11976414Y-14903554D01*
X-11912116Y-14889015D01*
X-11857512Y-14865751D01*
X-11812601Y-14834733D01*
X-11753150Y-14752666D01*
X-11733764Y-14649919D01*
X-11742524Y-14574960D01*
X-11768803Y-14512062D01*
X-11812601Y-14461228D01*
X-11874206Y-14422743D01*
X-11953904Y-14396895D01*
X-12051696Y-14383683D01*
X-12045234Y-14310016D01*
X-12038772Y-14223425D01*
X-11763489Y-14223425D01*
X-11763489Y-14091599D01*
X-12171890Y-14091599D01*
X-12176737Y-14190307D01*
X-12183522Y-14292569D01*
X-12192569Y-14397738D01*
X-12204200Y-14505170D01*
X-12115347Y-14507916D01*
X-12045234Y-14516155D01*
X-11951535Y-14547173D01*
X-11907593Y-14594992D01*
X-11896607Y-14656381D01*
X-11903069Y-14699031D01*
X-11926979Y-14735864D01*
X-11974798Y-14762359D01*
X-12051696Y-14772698D01*
X-12112116Y-14769790D01*
X-12161551Y-14761066D01*
X-12233926Y-14735218D01*
X-12266236Y-14867044D01*
X-13382514Y-14867044D01*
X-13385079Y-14864939D01*
X-13449262Y-14786730D01*
X-13496955Y-14697503D01*
X-13526324Y-14600686D01*
X-13536241Y-14500000D01*
X-13526324Y-14399314D01*
X-13496955Y-14302497D01*
X-13449262Y-14213270D01*
X-13385079Y-14135061D01*
X-13306870Y-14070878D01*
X-13217643Y-14023185D01*
X-13120826Y-13993816D01*
X-13020140Y-13983899D01*
X-12266236Y-13983899D01*
X-11733764Y-13983899D01*
X-10979860Y-13983899D01*
X-10879174Y-13993816D01*
G37*
%TO.C,kibuzzard-66A68C5D*%
G36*
X-10857549Y-16502055D02*
G01*
X-10762308Y-16530946D01*
X-10674533Y-16577862D01*
X-10597598Y-16641001D01*
X-10534459Y-16717937D01*
X-10487542Y-16805711D01*
X-10458651Y-16900953D01*
X-10448896Y-17000000D01*
X-10458651Y-17099047D01*
X-10487542Y-17194289D01*
X-10534459Y-17282063D01*
X-10597598Y-17358999D01*
X-10674533Y-17422138D01*
X-10762308Y-17469054D01*
X-10857549Y-17497945D01*
X-10956597Y-17507701D01*
X-11710501Y-17507701D01*
X-11797092Y-17507701D01*
X-12289499Y-17507701D01*
X-13043403Y-17507701D01*
X-13142451Y-17497945D01*
X-13237692Y-17469054D01*
X-13325467Y-17422138D01*
X-13402402Y-17358999D01*
X-13465541Y-17282063D01*
X-13512458Y-17194289D01*
X-13541349Y-17099047D01*
X-13541748Y-17094992D01*
X-12289499Y-17094992D01*
X-12289499Y-17211309D01*
X-11956058Y-17211309D01*
X-11956058Y-17400000D01*
X-11797092Y-17400000D01*
X-11797092Y-17211309D01*
X-11710501Y-17211309D01*
X-11710501Y-17080775D01*
X-11797092Y-17080775D01*
X-11797092Y-16600000D01*
X-11939257Y-16600000D01*
X-11990953Y-16655089D01*
X-12042649Y-16716963D01*
X-12093053Y-16782714D01*
X-12140872Y-16849435D01*
X-12185460Y-16915832D01*
X-12226171Y-16980614D01*
X-12261389Y-17041195D01*
X-12289499Y-17094992D01*
X-13541748Y-17094992D01*
X-13551104Y-17000000D01*
X-13541349Y-16900953D01*
X-13512458Y-16805711D01*
X-13465541Y-16717937D01*
X-13402402Y-16641001D01*
X-13325467Y-16577862D01*
X-13237692Y-16530946D01*
X-13142451Y-16502055D01*
X-13043403Y-16492299D01*
X-12289499Y-16492299D01*
X-11710501Y-16492299D01*
X-10956597Y-16492299D01*
X-10857549Y-16502055D01*
G37*
G36*
X-11956058Y-17080775D02*
G01*
X-12136995Y-17080775D01*
X-12098223Y-17007108D01*
X-12052342Y-16932795D01*
X-12003877Y-16862359D01*
X-11956058Y-16799031D01*
X-11956058Y-17080775D01*
G37*
%TO.C,kibuzzard-66A68C47*%
G36*
X-32378701Y-16484942D02*
G01*
X-32280187Y-16514826D01*
X-32189396Y-16563355D01*
X-32109817Y-16628664D01*
X-32044508Y-16708243D01*
X-31995979Y-16799035D01*
X-31966095Y-16897549D01*
X-31956004Y-17000000D01*
X-31966095Y-17102451D01*
X-31995979Y-17200965D01*
X-32044508Y-17291757D01*
X-32109817Y-17371336D01*
X-32189396Y-17436645D01*
X-32280187Y-17485174D01*
X-32378701Y-17515058D01*
X-32481152Y-17525148D01*
X-33235057Y-17525148D01*
X-33542649Y-17525148D01*
X-33764943Y-17525148D01*
X-34518848Y-17525148D01*
X-34621299Y-17515058D01*
X-34719813Y-17485174D01*
X-34810604Y-17436645D01*
X-34887539Y-17373506D01*
X-33764943Y-17373506D01*
X-33724879Y-17387722D01*
X-33668659Y-17401939D01*
X-33605331Y-17412924D01*
X-33542649Y-17417447D01*
X-33468013Y-17412763D01*
X-33404362Y-17398708D01*
X-33351373Y-17376090D01*
X-33308724Y-17345719D01*
X-33253150Y-17264943D01*
X-33235057Y-17162843D01*
X-33243619Y-17097900D01*
X-33269305Y-17042649D01*
X-33310501Y-16998384D01*
X-33365590Y-16966397D01*
X-33293215Y-16899192D01*
X-33266074Y-16807431D01*
X-33281583Y-16718255D01*
X-33329402Y-16646527D01*
X-33411470Y-16599354D01*
X-33465590Y-16586753D01*
X-33528433Y-16582553D01*
X-33597092Y-16588530D01*
X-33658320Y-16606462D01*
X-33750727Y-16653635D01*
X-33693861Y-16769952D01*
X-33616963Y-16733118D01*
X-33527141Y-16718255D01*
X-33454120Y-16743457D01*
X-33427625Y-16812601D01*
X-33439903Y-16861712D01*
X-33471567Y-16892730D01*
X-33515509Y-16909532D01*
X-33564620Y-16914701D01*
X-33624071Y-16914701D01*
X-33624071Y-17046527D01*
X-33574960Y-17046527D01*
X-33504200Y-17052827D01*
X-33447011Y-17071729D01*
X-33409208Y-17106462D01*
X-33396607Y-17160258D01*
X-33429564Y-17246850D01*
X-33474637Y-17273021D01*
X-33543942Y-17281745D01*
X-33605170Y-17278191D01*
X-33657027Y-17267528D01*
X-33733926Y-17240388D01*
X-33764943Y-17373506D01*
X-34887539Y-17373506D01*
X-34890183Y-17371336D01*
X-34955492Y-17291757D01*
X-35004021Y-17200965D01*
X-35033905Y-17102451D01*
X-35043996Y-17000000D01*
X-35033905Y-16897549D01*
X-35004021Y-16799035D01*
X-34955492Y-16708243D01*
X-34890183Y-16628664D01*
X-34810604Y-16563355D01*
X-34719813Y-16514826D01*
X-34621299Y-16484942D01*
X-34518848Y-16474852D01*
X-33764943Y-16474852D01*
X-33235057Y-16474852D01*
X-32481152Y-16474852D01*
X-32378701Y-16484942D01*
G37*
%TO.C,kibuzzard-66A68C43*%
G36*
X-32374524Y-13993182D02*
G01*
X-32277586Y-14022588D01*
X-32188247Y-14070340D01*
X-32109941Y-14134604D01*
X-32045677Y-14212911D01*
X-31997924Y-14302249D01*
X-31968518Y-14399188D01*
X-31958589Y-14500000D01*
X-31968518Y-14600812D01*
X-31997924Y-14697751D01*
X-32045677Y-14787089D01*
X-32109941Y-14865396D01*
X-32188247Y-14929660D01*
X-32277586Y-14977412D01*
X-32374524Y-15006818D01*
X-32475337Y-15016747D01*
X-33229241Y-15016747D01*
X-33770759Y-15016747D01*
X-34524663Y-15016747D01*
X-34625476Y-15006818D01*
X-34722414Y-14977412D01*
X-34811753Y-14929660D01*
X-34890059Y-14865396D01*
X-34954323Y-14787089D01*
X-35002076Y-14697751D01*
X-35031482Y-14600812D01*
X-35041411Y-14500000D01*
X-35031482Y-14399188D01*
X-35002076Y-14302249D01*
X-34954323Y-14212911D01*
X-34941209Y-14196931D01*
X-33770759Y-14196931D01*
X-33691922Y-14308078D01*
X-33610501Y-14247334D01*
X-33531664Y-14229241D01*
X-33456704Y-14255735D01*
X-33426979Y-14331341D01*
X-33450889Y-14399838D01*
X-33511632Y-14469628D01*
X-33549758Y-14506624D01*
X-33590468Y-14545234D01*
X-33631179Y-14586268D01*
X-33669305Y-14630533D01*
X-33702908Y-14678514D01*
X-33730048Y-14730695D01*
X-33747981Y-14787561D01*
X-33753958Y-14849596D01*
X-33754604Y-14876737D01*
X-33751373Y-14909047D01*
X-33229241Y-14909047D01*
X-33229241Y-14777221D01*
X-33573021Y-14777221D01*
X-33559451Y-14734572D01*
X-33526494Y-14688691D01*
X-33485137Y-14644750D01*
X-33446365Y-14607916D01*
X-33380452Y-14543296D01*
X-33322294Y-14473506D01*
X-33280937Y-14399192D01*
X-33265428Y-14319709D01*
X-33286107Y-14219548D01*
X-33341680Y-14147819D01*
X-33421809Y-14105170D01*
X-33516155Y-14090953D01*
X-33583522Y-14097415D01*
X-33651212Y-14116801D01*
X-33715024Y-14149758D01*
X-33770759Y-14196931D01*
X-34941209Y-14196931D01*
X-34890059Y-14134604D01*
X-34811753Y-14070340D01*
X-34722414Y-14022588D01*
X-34625476Y-13993182D01*
X-34524663Y-13983253D01*
X-33770759Y-13983253D01*
X-33229241Y-13983253D01*
X-32475337Y-13983253D01*
X-32374524Y-13993182D01*
G37*
%TO.C,kibuzzard-66A68C2F*%
G36*
X-32381459Y-11502055D02*
G01*
X-32286218Y-11530946D01*
X-32198443Y-11577862D01*
X-32121508Y-11641001D01*
X-32058369Y-11717937D01*
X-32011452Y-11805711D01*
X-31982561Y-11900953D01*
X-31972806Y-12000000D01*
X-31982561Y-12099047D01*
X-32011452Y-12194289D01*
X-32058369Y-12282063D01*
X-32121508Y-12358999D01*
X-32198443Y-12422138D01*
X-32286218Y-12469054D01*
X-32381459Y-12497945D01*
X-32480506Y-12507701D01*
X-33234410Y-12507701D01*
X-33765590Y-12507701D01*
X-34519494Y-12507701D01*
X-34618541Y-12497945D01*
X-34713782Y-12469054D01*
X-34801557Y-12422138D01*
X-34878492Y-12358999D01*
X-34941631Y-12282063D01*
X-34988548Y-12194289D01*
X-35017439Y-12099047D01*
X-35027194Y-12000000D01*
X-35017439Y-11900953D01*
X-34988548Y-11805711D01*
X-34967707Y-11766721D01*
X-33765590Y-11766721D01*
X-33713893Y-11898546D01*
X-33635057Y-11866882D01*
X-33552342Y-11821002D01*
X-33552342Y-12268174D01*
X-33720355Y-12268174D01*
X-33720355Y-12400000D01*
X-33234410Y-12400000D01*
X-33234410Y-12268174D01*
X-33393376Y-12268174D01*
X-33393376Y-11600000D01*
X-33501939Y-11600000D01*
X-33557512Y-11650404D01*
X-33626010Y-11696931D01*
X-33698384Y-11736995D01*
X-33765590Y-11766721D01*
X-34967707Y-11766721D01*
X-34941631Y-11717937D01*
X-34878492Y-11641001D01*
X-34801557Y-11577862D01*
X-34713782Y-11530946D01*
X-34618541Y-11502055D01*
X-34519494Y-11492299D01*
X-33765590Y-11492299D01*
X-33234410Y-11492299D01*
X-32480506Y-11492299D01*
X-32381459Y-11502055D01*
G37*
%TO.C,kibuzzard-66A68BD4*%
G36*
X-10909288Y-18984942D02*
G01*
X-10810774Y-19014826D01*
X-10719983Y-19063355D01*
X-10640404Y-19128664D01*
X-10575095Y-19208243D01*
X-10526566Y-19299035D01*
X-10496682Y-19397549D01*
X-10486591Y-19500000D01*
X-10496682Y-19602451D01*
X-10526566Y-19700965D01*
X-10575095Y-19791757D01*
X-10640404Y-19871336D01*
X-10719983Y-19936645D01*
X-10810774Y-19985174D01*
X-10909288Y-20015058D01*
X-11011739Y-20025148D01*
X-11065590Y-20025148D01*
X-11436511Y-20025148D01*
X-11864297Y-20025148D01*
X-12607431Y-20025148D01*
X-12934410Y-20025148D01*
X-12988261Y-20025148D01*
X-13090712Y-20015058D01*
X-13189226Y-19985174D01*
X-13280017Y-19936645D01*
X-13359596Y-19871336D01*
X-13424905Y-19791757D01*
X-13473434Y-19700965D01*
X-13503318Y-19602451D01*
X-13513409Y-19500000D01*
X-12934410Y-19500000D01*
X-12928595Y-19597092D01*
X-12911147Y-19681583D01*
X-12883037Y-19753312D01*
X-12845234Y-19812116D01*
X-12798223Y-19857997D01*
X-12742488Y-19890953D01*
X-12678675Y-19910824D01*
X-12607431Y-19917447D01*
X-12528433Y-19914216D01*
X-12462036Y-19904523D01*
X-12447282Y-19900646D01*
X-12263651Y-19900646D01*
X-12120194Y-19900646D01*
X-12120194Y-19369467D01*
X-12072159Y-19458140D01*
X-12026279Y-19546670D01*
X-11982553Y-19635057D01*
X-11940980Y-19723443D01*
X-11901562Y-19811973D01*
X-11864297Y-19900646D01*
X-11736349Y-19900646D01*
X-11736349Y-19110985D01*
X-11607108Y-19110985D01*
X-11607108Y-19891599D01*
X-11519871Y-19906462D01*
X-11436511Y-19910985D01*
X-11358481Y-19905331D01*
X-11287237Y-19888368D01*
X-11224071Y-19859128D01*
X-11170275Y-19816640D01*
X-11126494Y-19760258D01*
X-11093376Y-19689338D01*
X-11072536Y-19602908D01*
X-11065590Y-19500000D01*
X-11071890Y-19399354D01*
X-11090792Y-19314540D01*
X-11121002Y-19244426D01*
X-11161228Y-19187884D01*
X-11211470Y-19144750D01*
X-11271729Y-19114863D01*
X-11340388Y-19097415D01*
X-11415832Y-19091599D01*
X-11505008Y-19095477D01*
X-11607108Y-19110985D01*
X-11736349Y-19110985D01*
X-11736349Y-19100646D01*
X-11879806Y-19100646D01*
X-11879806Y-19593053D01*
X-11902585Y-19542649D01*
X-11929564Y-19484491D01*
X-11959935Y-19421486D01*
X-11992892Y-19356543D01*
X-12027625Y-19290468D01*
X-12063328Y-19224071D01*
X-12099515Y-19159935D01*
X-12135703Y-19100646D01*
X-12263651Y-19100646D01*
X-12263651Y-19900646D01*
X-12447282Y-19900646D01*
X-12373506Y-19881260D01*
X-12373506Y-19481906D01*
X-12532472Y-19481906D01*
X-12532472Y-19773990D01*
X-12563489Y-19777868D01*
X-12594507Y-19779160D01*
X-12671729Y-19762197D01*
X-12727625Y-19711309D01*
X-12752755Y-19657674D01*
X-12767833Y-19587237D01*
X-12772859Y-19500000D01*
X-12770113Y-19440711D01*
X-12761874Y-19386914D01*
X-12725687Y-19299031D01*
X-12661712Y-19241519D01*
X-12566074Y-19220840D01*
X-12480775Y-19235057D01*
X-12410985Y-19267367D01*
X-12369628Y-19140711D01*
X-12396123Y-19125202D01*
X-12440711Y-19105816D01*
X-12504685Y-19089661D01*
X-12588045Y-19082553D01*
X-12658158Y-19089176D01*
X-12723748Y-19109047D01*
X-12782876Y-19142165D01*
X-12833603Y-19188530D01*
X-12875283Y-19247819D01*
X-12907270Y-19319709D01*
X-12927625Y-19403877D01*
X-12934410Y-19500000D01*
X-13513409Y-19500000D01*
X-13503318Y-19397549D01*
X-13473434Y-19299035D01*
X-13424905Y-19208243D01*
X-13359596Y-19128664D01*
X-13280017Y-19063355D01*
X-13189226Y-19014826D01*
X-13090712Y-18984942D01*
X-12988261Y-18974852D01*
X-12934410Y-18974852D01*
X-11065590Y-18974852D01*
X-11011739Y-18974852D01*
X-10909288Y-18984942D01*
G37*
G36*
X-11315024Y-19252504D02*
G01*
X-11262036Y-19312601D01*
X-11234895Y-19399192D01*
X-11227141Y-19500000D01*
X-11229564Y-19557027D01*
X-11236834Y-19609208D01*
X-11269144Y-19695153D01*
X-11328595Y-19752019D01*
X-11419709Y-19772698D01*
X-11433926Y-19772698D01*
X-11448142Y-19771405D01*
X-11448142Y-19233764D01*
X-11424879Y-19230533D01*
X-11401616Y-19229887D01*
X-11315024Y-19252504D01*
G37*
%TO.C,kibuzzard-66A68BCE*%
G36*
X-32409288Y-18984942D02*
G01*
X-32310774Y-19014826D01*
X-32219983Y-19063355D01*
X-32140404Y-19128664D01*
X-32075095Y-19208243D01*
X-32026566Y-19299035D01*
X-31996682Y-19397549D01*
X-31986591Y-19500000D01*
X-31996682Y-19602451D01*
X-32026566Y-19700965D01*
X-32075095Y-19791757D01*
X-32140404Y-19871336D01*
X-32219983Y-19936645D01*
X-32310774Y-19985174D01*
X-32409288Y-20015058D01*
X-32511739Y-20025148D01*
X-32565590Y-20025148D01*
X-32936511Y-20025148D01*
X-33364297Y-20025148D01*
X-34107431Y-20025148D01*
X-34434410Y-20025148D01*
X-34488261Y-20025148D01*
X-34590712Y-20015058D01*
X-34689226Y-19985174D01*
X-34780017Y-19936645D01*
X-34859596Y-19871336D01*
X-34924905Y-19791757D01*
X-34973434Y-19700965D01*
X-35003318Y-19602451D01*
X-35013409Y-19500000D01*
X-34434410Y-19500000D01*
X-34428595Y-19597092D01*
X-34411147Y-19681583D01*
X-34383037Y-19753312D01*
X-34345234Y-19812116D01*
X-34298223Y-19857997D01*
X-34242488Y-19890953D01*
X-34178675Y-19910824D01*
X-34107431Y-19917447D01*
X-34028433Y-19914216D01*
X-33962036Y-19904523D01*
X-33947282Y-19900646D01*
X-33763651Y-19900646D01*
X-33620194Y-19900646D01*
X-33620194Y-19369467D01*
X-33572159Y-19458140D01*
X-33526279Y-19546670D01*
X-33482553Y-19635057D01*
X-33440980Y-19723443D01*
X-33401562Y-19811973D01*
X-33364297Y-19900646D01*
X-33236349Y-19900646D01*
X-33236349Y-19110985D01*
X-33107108Y-19110985D01*
X-33107108Y-19891599D01*
X-33019871Y-19906462D01*
X-32936511Y-19910985D01*
X-32858481Y-19905331D01*
X-32787237Y-19888368D01*
X-32724071Y-19859128D01*
X-32670275Y-19816640D01*
X-32626494Y-19760258D01*
X-32593376Y-19689338D01*
X-32572536Y-19602908D01*
X-32565590Y-19500000D01*
X-32571890Y-19399354D01*
X-32590792Y-19314540D01*
X-32621002Y-19244426D01*
X-32661228Y-19187884D01*
X-32711470Y-19144750D01*
X-32771729Y-19114863D01*
X-32840388Y-19097415D01*
X-32915832Y-19091599D01*
X-33005008Y-19095477D01*
X-33107108Y-19110985D01*
X-33236349Y-19110985D01*
X-33236349Y-19100646D01*
X-33379806Y-19100646D01*
X-33379806Y-19593053D01*
X-33402585Y-19542649D01*
X-33429564Y-19484491D01*
X-33459935Y-19421486D01*
X-33492892Y-19356543D01*
X-33527625Y-19290468D01*
X-33563328Y-19224071D01*
X-33599515Y-19159935D01*
X-33635703Y-19100646D01*
X-33763651Y-19100646D01*
X-33763651Y-19900646D01*
X-33947282Y-19900646D01*
X-33873506Y-19881260D01*
X-33873506Y-19481906D01*
X-34032472Y-19481906D01*
X-34032472Y-19773990D01*
X-34063489Y-19777868D01*
X-34094507Y-19779160D01*
X-34171729Y-19762197D01*
X-34227625Y-19711309D01*
X-34252755Y-19657674D01*
X-34267833Y-19587237D01*
X-34272859Y-19500000D01*
X-34270113Y-19440711D01*
X-34261874Y-19386914D01*
X-34225687Y-19299031D01*
X-34161712Y-19241519D01*
X-34066074Y-19220840D01*
X-33980775Y-19235057D01*
X-33910985Y-19267367D01*
X-33869628Y-19140711D01*
X-33896123Y-19125202D01*
X-33940711Y-19105816D01*
X-34004685Y-19089661D01*
X-34088045Y-19082553D01*
X-34158158Y-19089176D01*
X-34223748Y-19109047D01*
X-34282876Y-19142165D01*
X-34333603Y-19188530D01*
X-34375283Y-19247819D01*
X-34407270Y-19319709D01*
X-34427625Y-19403877D01*
X-34434410Y-19500000D01*
X-35013409Y-19500000D01*
X-35003318Y-19397549D01*
X-34973434Y-19299035D01*
X-34924905Y-19208243D01*
X-34859596Y-19128664D01*
X-34780017Y-19063355D01*
X-34689226Y-19014826D01*
X-34590712Y-18984942D01*
X-34488261Y-18974852D01*
X-34434410Y-18974852D01*
X-32565590Y-18974852D01*
X-32511739Y-18974852D01*
X-32409288Y-18984942D01*
G37*
G36*
X-32815024Y-19252504D02*
G01*
X-32762036Y-19312601D01*
X-32734895Y-19399192D01*
X-32727141Y-19500000D01*
X-32729564Y-19557027D01*
X-32736834Y-19609208D01*
X-32769144Y-19695153D01*
X-32828595Y-19752019D01*
X-32919709Y-19772698D01*
X-32933926Y-19772698D01*
X-32948142Y-19771405D01*
X-32948142Y-19233764D01*
X-32924879Y-19230533D01*
X-32901616Y-19229887D01*
X-32815024Y-19252504D01*
G37*
%TO.C,kibuzzard-66A68B20*%
G36*
X-10902826Y-8984942D02*
G01*
X-10804312Y-9014826D01*
X-10713521Y-9063355D01*
X-10633942Y-9128664D01*
X-10568633Y-9208243D01*
X-10520104Y-9299035D01*
X-10490220Y-9397549D01*
X-10480129Y-9500000D01*
X-10490220Y-9602451D01*
X-10520104Y-9700965D01*
X-10568633Y-9791757D01*
X-10633942Y-9871336D01*
X-10713521Y-9936645D01*
X-10804312Y-9985174D01*
X-10902826Y-10015058D01*
X-11005277Y-10025148D01*
X-11059128Y-10025148D01*
X-11282714Y-10025148D01*
X-11928918Y-10025148D01*
X-12717286Y-10025148D01*
X-12940872Y-10025148D01*
X-12994723Y-10025148D01*
X-13097174Y-10015058D01*
X-13195688Y-9985174D01*
X-13286479Y-9936645D01*
X-13366058Y-9871336D01*
X-13431367Y-9791757D01*
X-13479896Y-9700965D01*
X-13509780Y-9602451D01*
X-13519871Y-9500000D01*
X-13509780Y-9397549D01*
X-13479896Y-9299035D01*
X-13431367Y-9208243D01*
X-13366058Y-9128664D01*
X-13331918Y-9100646D01*
X-12940872Y-9100646D01*
X-12926010Y-9173021D01*
X-12904685Y-9263489D01*
X-12887596Y-9331197D01*
X-12869072Y-9401633D01*
X-12849111Y-9474798D01*
X-12828002Y-9549399D01*
X-12806031Y-9624143D01*
X-12783199Y-9699031D01*
X-12749273Y-9805654D01*
X-12717286Y-9900646D01*
X-12553150Y-9900646D01*
X-12528451Y-9831790D01*
X-12504326Y-9761353D01*
X-12480775Y-9689338D01*
X-12458158Y-9616963D01*
X-12436834Y-9545450D01*
X-12423947Y-9500000D01*
X-12276575Y-9500000D01*
X-12271002Y-9594426D01*
X-12254281Y-9677383D01*
X-12226414Y-9748869D01*
X-12187399Y-9808885D01*
X-12119045Y-9869198D01*
X-12032885Y-9905385D01*
X-11928918Y-9917447D01*
X-11858320Y-9913086D01*
X-11796446Y-9900000D01*
X-11705331Y-9861874D01*
X-11745396Y-9736511D01*
X-11810662Y-9764943D01*
X-11913409Y-9779160D01*
X-12005654Y-9760905D01*
X-12067851Y-9706139D01*
X-12094059Y-9650350D01*
X-12109783Y-9580345D01*
X-12114783Y-9500000D01*
X-11630372Y-9500000D01*
X-11624798Y-9594426D01*
X-11608078Y-9677383D01*
X-11580210Y-9748869D01*
X-11541195Y-9808885D01*
X-11472841Y-9869198D01*
X-11386681Y-9905385D01*
X-11282714Y-9917447D01*
X-11212116Y-9913086D01*
X-11150242Y-9900000D01*
X-11059128Y-9861874D01*
X-11099192Y-9736511D01*
X-11164459Y-9764943D01*
X-11267205Y-9779160D01*
X-11359451Y-9760905D01*
X-11421648Y-9706139D01*
X-11447855Y-9650350D01*
X-11463579Y-9580345D01*
X-11468821Y-9496123D01*
X-11464459Y-9423748D01*
X-11451373Y-9364297D01*
X-11406139Y-9279645D01*
X-11342811Y-9234410D01*
X-11269790Y-9220840D01*
X-11173506Y-9234410D01*
X-11101777Y-9267367D01*
X-11060420Y-9140711D01*
X-11086914Y-9125202D01*
X-11130210Y-9105816D01*
X-11190307Y-9089661D01*
X-11267205Y-9082553D01*
X-11342973Y-9089499D01*
X-11412601Y-9110339D01*
X-11474636Y-9144588D01*
X-11527625Y-9191761D01*
X-11570759Y-9251373D01*
X-11603231Y-9322940D01*
X-11623586Y-9405977D01*
X-11630372Y-9500000D01*
X-12114783Y-9500000D01*
X-12115024Y-9496123D01*
X-12110662Y-9423748D01*
X-12097577Y-9364297D01*
X-12052342Y-9279645D01*
X-11989015Y-9234410D01*
X-11915994Y-9220840D01*
X-11819709Y-9234410D01*
X-11747981Y-9267367D01*
X-11706624Y-9140711D01*
X-11733118Y-9125202D01*
X-11776414Y-9105816D01*
X-11836510Y-9089661D01*
X-11913409Y-9082553D01*
X-11989176Y-9089499D01*
X-12058805Y-9110339D01*
X-12120840Y-9144588D01*
X-12173829Y-9191761D01*
X-12216963Y-9251373D01*
X-12249435Y-9322940D01*
X-12269790Y-9405977D01*
X-12276575Y-9500000D01*
X-12423947Y-9500000D01*
X-12416801Y-9474798D01*
X-12389338Y-9371890D01*
X-12365105Y-9273829D01*
X-12344265Y-9182714D01*
X-12326979Y-9100646D01*
X-12493700Y-9100646D01*
X-12505331Y-9167851D01*
X-12519548Y-9245396D01*
X-12535703Y-9329241D01*
X-12553150Y-9415347D01*
X-12571890Y-9501939D01*
X-12591922Y-9587237D01*
X-12612601Y-9667205D01*
X-12633279Y-9737803D01*
X-12654120Y-9666236D01*
X-12675283Y-9585945D01*
X-12695961Y-9500646D01*
X-12715347Y-9414055D01*
X-12733279Y-9328110D01*
X-12749596Y-9244750D01*
X-12763166Y-9167690D01*
X-12772859Y-9100646D01*
X-12940872Y-9100646D01*
X-13331918Y-9100646D01*
X-13286479Y-9063355D01*
X-13195688Y-9014826D01*
X-13097174Y-8984942D01*
X-12994723Y-8974852D01*
X-12940872Y-8974852D01*
X-11059128Y-8974852D01*
X-11005277Y-8974852D01*
X-10902826Y-8984942D01*
G37*
G36*
X-32402826Y-8884942D02*
G01*
X-32304312Y-8914826D01*
X-32213521Y-8963355D01*
X-32133942Y-9028664D01*
X-32068633Y-9108243D01*
X-32020104Y-9199035D01*
X-31990220Y-9297549D01*
X-31980129Y-9400000D01*
X-31990220Y-9502451D01*
X-32020104Y-9600965D01*
X-32068633Y-9691757D01*
X-32133942Y-9771336D01*
X-32213521Y-9836645D01*
X-32304312Y-9885174D01*
X-32402826Y-9915058D01*
X-32505277Y-9925148D01*
X-32559128Y-9925148D01*
X-32782714Y-9925148D01*
X-33428918Y-9925148D01*
X-34217286Y-9925148D01*
X-34440872Y-9925148D01*
X-34494723Y-9925148D01*
X-34597174Y-9915058D01*
X-34695688Y-9885174D01*
X-34786479Y-9836645D01*
X-34866058Y-9771336D01*
X-34931367Y-9691757D01*
X-34979896Y-9600965D01*
X-35009780Y-9502451D01*
X-35019871Y-9400000D01*
X-35009780Y-9297549D01*
X-34979896Y-9199035D01*
X-34931367Y-9108243D01*
X-34866058Y-9028664D01*
X-34831918Y-9000646D01*
X-34440872Y-9000646D01*
X-34426010Y-9073021D01*
X-34404685Y-9163489D01*
X-34387596Y-9231197D01*
X-34369072Y-9301633D01*
X-34349111Y-9374798D01*
X-34328002Y-9449399D01*
X-34306031Y-9524143D01*
X-34283199Y-9599031D01*
X-34249273Y-9705654D01*
X-34217286Y-9800646D01*
X-34053150Y-9800646D01*
X-34028451Y-9731790D01*
X-34004326Y-9661353D01*
X-33980775Y-9589338D01*
X-33958158Y-9516963D01*
X-33936834Y-9445450D01*
X-33923947Y-9400000D01*
X-33776575Y-9400000D01*
X-33771002Y-9494426D01*
X-33754281Y-9577383D01*
X-33726414Y-9648869D01*
X-33687399Y-9708885D01*
X-33619045Y-9769198D01*
X-33532885Y-9805385D01*
X-33428918Y-9817447D01*
X-33358320Y-9813086D01*
X-33296446Y-9800000D01*
X-33205331Y-9761874D01*
X-33245396Y-9636511D01*
X-33310662Y-9664943D01*
X-33413409Y-9679160D01*
X-33505654Y-9660905D01*
X-33567851Y-9606139D01*
X-33594059Y-9550350D01*
X-33609783Y-9480345D01*
X-33614783Y-9400000D01*
X-33130372Y-9400000D01*
X-33124798Y-9494426D01*
X-33108078Y-9577383D01*
X-33080210Y-9648869D01*
X-33041195Y-9708885D01*
X-32972841Y-9769198D01*
X-32886681Y-9805385D01*
X-32782714Y-9817447D01*
X-32712116Y-9813086D01*
X-32650242Y-9800000D01*
X-32559128Y-9761874D01*
X-32599192Y-9636511D01*
X-32664459Y-9664943D01*
X-32767205Y-9679160D01*
X-32859451Y-9660905D01*
X-32921648Y-9606139D01*
X-32947855Y-9550350D01*
X-32963579Y-9480345D01*
X-32968821Y-9396123D01*
X-32964459Y-9323748D01*
X-32951373Y-9264297D01*
X-32906139Y-9179645D01*
X-32842811Y-9134410D01*
X-32769790Y-9120840D01*
X-32673506Y-9134410D01*
X-32601777Y-9167367D01*
X-32560420Y-9040711D01*
X-32586914Y-9025202D01*
X-32630210Y-9005816D01*
X-32690307Y-8989661D01*
X-32767205Y-8982553D01*
X-32842973Y-8989499D01*
X-32912601Y-9010339D01*
X-32974636Y-9044588D01*
X-33027625Y-9091761D01*
X-33070759Y-9151373D01*
X-33103231Y-9222940D01*
X-33123586Y-9305977D01*
X-33130372Y-9400000D01*
X-33614783Y-9400000D01*
X-33615024Y-9396123D01*
X-33610662Y-9323748D01*
X-33597577Y-9264297D01*
X-33552342Y-9179645D01*
X-33489015Y-9134410D01*
X-33415994Y-9120840D01*
X-33319709Y-9134410D01*
X-33247981Y-9167367D01*
X-33206624Y-9040711D01*
X-33233118Y-9025202D01*
X-33276414Y-9005816D01*
X-33336510Y-8989661D01*
X-33413409Y-8982553D01*
X-33489176Y-8989499D01*
X-33558805Y-9010339D01*
X-33620840Y-9044588D01*
X-33673829Y-9091761D01*
X-33716963Y-9151373D01*
X-33749435Y-9222940D01*
X-33769790Y-9305977D01*
X-33776575Y-9400000D01*
X-33923947Y-9400000D01*
X-33916801Y-9374798D01*
X-33889338Y-9271890D01*
X-33865105Y-9173829D01*
X-33844265Y-9082714D01*
X-33826979Y-9000646D01*
X-33993700Y-9000646D01*
X-34005331Y-9067851D01*
X-34019548Y-9145396D01*
X-34035703Y-9229241D01*
X-34053150Y-9315347D01*
X-34071890Y-9401939D01*
X-34091922Y-9487237D01*
X-34112601Y-9567205D01*
X-34133279Y-9637803D01*
X-34154120Y-9566236D01*
X-34175283Y-9485945D01*
X-34195961Y-9400646D01*
X-34215347Y-9314055D01*
X-34233279Y-9228110D01*
X-34249596Y-9144750D01*
X-34263166Y-9067690D01*
X-34272859Y-9000646D01*
X-34440872Y-9000646D01*
X-34831918Y-9000646D01*
X-34786479Y-8963355D01*
X-34695688Y-8914826D01*
X-34597174Y-8884942D01*
X-34494723Y-8874852D01*
X-34440872Y-8874852D01*
X-32559128Y-8874852D01*
X-32505277Y-8874852D01*
X-32402826Y-8884942D01*
G37*
D11*
%TO.C,TP105*%
X-26400000Y-14100000D02*
X-27800000Y-14100000D01*
X-26400000Y-12700000D02*
X-26400000Y-14100000D01*
X-27800000Y-14100000D02*
X-27800000Y-12700000D01*
X-27800000Y-12700000D02*
X-26400000Y-12700000D01*
%TO.C,C101*%
X-23625000Y-12538748D02*
X-23625000Y-13061252D01*
X-25095000Y-12538748D02*
X-25095000Y-13061252D01*
%TO.C,TP102*%
X-26400000Y-11300000D02*
X-27800000Y-11300000D01*
X-26400000Y-9900000D02*
X-26400000Y-11300000D01*
X-27800000Y-11300000D02*
X-27800000Y-9900000D01*
X-27800000Y-9900000D02*
X-26400000Y-9900000D01*
%TO.C,TP103*%
X-18200000Y-11300000D02*
X-19600000Y-11300000D01*
X-18200000Y-9900000D02*
X-18200000Y-11300000D01*
X-19600000Y-11300000D02*
X-19600000Y-9900000D01*
X-19600000Y-9900000D02*
X-18200000Y-9900000D01*
%TO.C,TP104*%
X-18200000Y-9300000D02*
X-19600000Y-9300000D01*
X-18200000Y-7900000D02*
X-18200000Y-9300000D01*
X-19600000Y-9300000D02*
X-19600000Y-7900000D01*
X-19600000Y-7900000D02*
X-18200000Y-7900000D01*
%TO.C,TP107*%
X-26400000Y-18100000D02*
X-27800000Y-18100000D01*
X-26400000Y-16700000D02*
X-26400000Y-18100000D01*
X-27800000Y-18100000D02*
X-27800000Y-16700000D01*
X-27800000Y-16700000D02*
X-26400000Y-16700000D01*
%TO.C,U101*%
X-24300000Y-15240000D02*
X-24540000Y-14910000D01*
X-24060000Y-14910000D01*
X-24300000Y-15240000D01*
G36*
X-24300000Y-15240000D02*
G01*
X-24540000Y-14910000D01*
X-24060000Y-14910000D01*
X-24300000Y-15240000D01*
G37*
X-23000000Y-18310000D02*
X-22200000Y-18310000D01*
X-23000000Y-18310000D02*
X-23800000Y-18310000D01*
X-23000000Y-15190000D02*
X-22200000Y-15190000D01*
X-23000000Y-15190000D02*
X-23800000Y-15190000D01*
%TO.C,TP108*%
X-18200000Y-18100000D02*
X-19600000Y-18100000D01*
X-18200000Y-16700000D02*
X-18200000Y-18100000D01*
X-19600000Y-18100000D02*
X-19600000Y-16700000D01*
X-19600000Y-16700000D02*
X-18200000Y-16700000D01*
D10*
%TO.C,kibuzzard-66A296D6*%
G36*
X-20473703Y-20600000D02*
G01*
X-20823802Y-21125148D01*
X-21093053Y-21125148D01*
X-21370921Y-21125148D01*
X-22015832Y-21125148D01*
X-22663328Y-21125148D01*
X-23308239Y-21125148D01*
X-23685622Y-21125148D01*
X-24674313Y-21125148D01*
X-24906947Y-21125148D01*
X-25176198Y-21125148D01*
X-25526297Y-20600000D01*
X-25388440Y-20393215D01*
X-24906947Y-20393215D01*
X-24879443Y-20483158D01*
X-24851212Y-20569467D01*
X-24822254Y-20652141D01*
X-24792569Y-20731179D01*
X-24752719Y-20829761D01*
X-24713301Y-20919584D01*
X-24674313Y-21000646D01*
X-24541195Y-21000646D01*
X-24501562Y-20919584D01*
X-24460205Y-20829761D01*
X-24417124Y-20731179D01*
X-24384895Y-20652141D01*
X-24354120Y-20569467D01*
X-24324798Y-20483158D01*
X-24296931Y-20393215D01*
X-24458481Y-20393215D01*
X-24471890Y-20443942D01*
X-24488853Y-20497900D01*
X-24507916Y-20553635D01*
X-24527625Y-20609693D01*
X-24547819Y-20665105D01*
X-24568336Y-20718901D01*
X-24605816Y-20815832D01*
X-24641357Y-20718901D01*
X-24659935Y-20665105D01*
X-24678191Y-20609693D01*
X-24695800Y-20553635D01*
X-24712439Y-20497900D01*
X-24727464Y-20443942D01*
X-24740226Y-20393215D01*
X-24906947Y-20393215D01*
X-25388440Y-20393215D01*
X-25371208Y-20367367D01*
X-24216801Y-20367367D01*
X-24165105Y-20499192D01*
X-24086268Y-20467528D01*
X-24003554Y-20421648D01*
X-24003554Y-20868821D01*
X-24171567Y-20868821D01*
X-24171567Y-21000646D01*
X-23685622Y-21000646D01*
X-23685622Y-20898546D01*
X-23424556Y-20898546D01*
X-23414863Y-20948304D01*
X-23389015Y-20984491D01*
X-23352181Y-21007108D01*
X-23308239Y-21014863D01*
X-23228110Y-20985137D01*
X-23193215Y-20898546D01*
X-23228110Y-20814540D01*
X-23308239Y-20784814D01*
X-23352181Y-20792569D01*
X-23389015Y-20814540D01*
X-23414863Y-20850081D01*
X-23424556Y-20898546D01*
X-23685622Y-20898546D01*
X-23685622Y-20868821D01*
X-23844588Y-20868821D01*
X-23844588Y-20598708D01*
X-22941195Y-20598708D01*
X-22936753Y-20697900D01*
X-22923425Y-20783522D01*
X-22901212Y-20855574D01*
X-22870113Y-20914055D01*
X-22815545Y-20971495D01*
X-22746616Y-21005959D01*
X-22663328Y-21017447D01*
X-22580039Y-21005959D01*
X-22511111Y-20971495D01*
X-22456543Y-20914055D01*
X-22448296Y-20898546D01*
X-22132149Y-20898546D01*
X-22122456Y-20948304D01*
X-22096607Y-20984491D01*
X-22059774Y-21007108D01*
X-22015832Y-21014863D01*
X-21935703Y-20985137D01*
X-21900808Y-20898546D01*
X-21935703Y-20814540D01*
X-22015832Y-20784814D01*
X-22059774Y-20792569D01*
X-22096607Y-20814540D01*
X-22122456Y-20850081D01*
X-22132149Y-20898546D01*
X-22448296Y-20898546D01*
X-22425444Y-20855574D01*
X-22403231Y-20783522D01*
X-22389903Y-20697900D01*
X-22385460Y-20598708D01*
X-21648788Y-20598708D01*
X-21644346Y-20697900D01*
X-21631018Y-20783522D01*
X-21608805Y-20855574D01*
X-21577706Y-20914055D01*
X-21523138Y-20971495D01*
X-21454209Y-21005959D01*
X-21370921Y-21017447D01*
X-21287632Y-21005959D01*
X-21218704Y-20971495D01*
X-21164136Y-20914055D01*
X-21133037Y-20855574D01*
X-21110824Y-20783522D01*
X-21097496Y-20697900D01*
X-21093053Y-20598708D01*
X-21097496Y-20500121D01*
X-21110824Y-20415024D01*
X-21133037Y-20343417D01*
X-21164136Y-20285299D01*
X-21218704Y-20228218D01*
X-21287632Y-20193969D01*
X-21370921Y-20182553D01*
X-21452917Y-20194041D01*
X-21521414Y-20228505D01*
X-21576414Y-20285945D01*
X-21608078Y-20344265D01*
X-21630695Y-20415832D01*
X-21644265Y-20500646D01*
X-21648788Y-20598708D01*
X-22385460Y-20598708D01*
X-22389903Y-20500121D01*
X-22403231Y-20415024D01*
X-22425444Y-20343417D01*
X-22456543Y-20285299D01*
X-22511111Y-20228218D01*
X-22580039Y-20193969D01*
X-22663328Y-20182553D01*
X-22745324Y-20194041D01*
X-22813822Y-20228505D01*
X-22868821Y-20285945D01*
X-22900485Y-20344265D01*
X-22923102Y-20415832D01*
X-22936672Y-20500646D01*
X-22941195Y-20598708D01*
X-23844588Y-20598708D01*
X-23844588Y-20200646D01*
X-23953150Y-20200646D01*
X-24008724Y-20251050D01*
X-24077221Y-20297577D01*
X-24149596Y-20337641D01*
X-24216801Y-20367367D01*
X-25371208Y-20367367D01*
X-25176198Y-20074852D01*
X-24906947Y-20074852D01*
X-21093053Y-20074852D01*
X-20823802Y-20074852D01*
X-20473703Y-20600000D01*
G37*
G36*
X-21312924Y-20336187D02*
G01*
X-21270759Y-20389984D01*
X-21251732Y-20445055D01*
X-21240316Y-20514629D01*
X-21236511Y-20598708D01*
X-21240316Y-20683504D01*
X-21251732Y-20753509D01*
X-21270759Y-20808724D01*
X-21312924Y-20862520D01*
X-21369628Y-20880053D01*
X-21370921Y-20880452D01*
X-21428110Y-20862520D01*
X-21470436Y-20808724D01*
X-21489822Y-20753509D01*
X-21501454Y-20683504D01*
X-21505331Y-20598708D01*
X-21504735Y-20585784D01*
X-21442003Y-20585784D01*
X-21422617Y-20645880D01*
X-21369628Y-20671082D01*
X-21318578Y-20645880D01*
X-21298546Y-20585784D01*
X-21318578Y-20525040D01*
X-21369628Y-20499192D01*
X-21422617Y-20525040D01*
X-21442003Y-20585784D01*
X-21504735Y-20585784D01*
X-21501454Y-20514629D01*
X-21489822Y-20445055D01*
X-21470436Y-20389984D01*
X-21428110Y-20336187D01*
X-21370921Y-20318255D01*
X-21312924Y-20336187D01*
G37*
G36*
X-22605331Y-20336187D02*
G01*
X-22563166Y-20389984D01*
X-22544139Y-20445055D01*
X-22532723Y-20514629D01*
X-22528918Y-20598708D01*
X-22532723Y-20683504D01*
X-22544139Y-20753509D01*
X-22563166Y-20808724D01*
X-22605331Y-20862520D01*
X-22662036Y-20880053D01*
X-22663328Y-20880452D01*
X-22720517Y-20862520D01*
X-22762843Y-20808724D01*
X-22782229Y-20753509D01*
X-22793861Y-20683504D01*
X-22797738Y-20598708D01*
X-22797142Y-20585784D01*
X-22734410Y-20585784D01*
X-22715024Y-20645880D01*
X-22662036Y-20671082D01*
X-22610985Y-20645880D01*
X-22590953Y-20585784D01*
X-22610985Y-20525040D01*
X-22662036Y-20499192D01*
X-22715024Y-20525040D01*
X-22734410Y-20585784D01*
X-22797142Y-20585784D01*
X-22793861Y-20514629D01*
X-22782229Y-20445055D01*
X-22762843Y-20389984D01*
X-22720517Y-20336187D01*
X-22663328Y-20318255D01*
X-22605331Y-20336187D01*
G37*
D11*
%TO.C,TP110*%
X-18200000Y-14100000D02*
X-19600000Y-14100000D01*
X-18200000Y-12700000D02*
X-18200000Y-14100000D01*
X-19600000Y-14100000D02*
X-19600000Y-12700000D01*
X-19600000Y-12700000D02*
X-18200000Y-12700000D01*
%TO.C,TP111*%
X-26400000Y-20900000D02*
X-27800000Y-20900000D01*
X-26400000Y-19500000D02*
X-26400000Y-20900000D01*
X-27800000Y-20900000D02*
X-27800000Y-19500000D01*
X-27800000Y-19500000D02*
X-26400000Y-19500000D01*
%TO.C,TP109*%
X-18200000Y-16100000D02*
X-19600000Y-16100000D01*
X-18200000Y-14700000D02*
X-18200000Y-16100000D01*
X-19600000Y-16100000D02*
X-19600000Y-14700000D01*
X-19600000Y-14700000D02*
X-18200000Y-14700000D01*
%TO.C,TP112*%
X-18200000Y-21000000D02*
X-19600000Y-21000000D01*
X-18200000Y-19600000D02*
X-18200000Y-21000000D01*
X-19600000Y-21000000D02*
X-19600000Y-19600000D01*
X-19600000Y-19600000D02*
X-18200000Y-19600000D01*
D10*
%TO.C,kibuzzard-66A29686*%
G36*
X-20421512Y-18784942D02*
G01*
X-20322998Y-18814826D01*
X-20232207Y-18863355D01*
X-20152628Y-18928664D01*
X-20087319Y-19008243D01*
X-20038790Y-19099035D01*
X-20008906Y-19197549D01*
X-19998815Y-19300000D01*
X-20008906Y-19402451D01*
X-20038790Y-19500965D01*
X-20087319Y-19591757D01*
X-20152628Y-19671336D01*
X-20232207Y-19736645D01*
X-20322998Y-19785174D01*
X-20421512Y-19815058D01*
X-20523963Y-19825148D01*
X-20793215Y-19825148D01*
X-21046527Y-19825148D01*
X-21527302Y-19825148D01*
X-22398384Y-19825148D01*
X-22722779Y-19825148D01*
X-23562843Y-19825148D01*
X-24287884Y-19825148D01*
X-24958643Y-19825148D01*
X-25206785Y-19825148D01*
X-25476037Y-19825148D01*
X-25578488Y-19815058D01*
X-25677002Y-19785174D01*
X-25767793Y-19736645D01*
X-25847372Y-19671336D01*
X-25859380Y-19656704D01*
X-25206785Y-19656704D01*
X-25117609Y-19696123D01*
X-25048142Y-19712116D01*
X-24958643Y-19717447D01*
X-24867959Y-19710626D01*
X-24794076Y-19690163D01*
X-24736995Y-19656058D01*
X-24682229Y-19581906D01*
X-24663974Y-19482229D01*
X-24669467Y-19421971D01*
X-24685945Y-19373021D01*
X-24742165Y-19300646D01*
X-24743206Y-19300000D01*
X-24577383Y-19300000D01*
X-24572738Y-19397052D01*
X-24558804Y-19481422D01*
X-24535582Y-19553110D01*
X-24503069Y-19612116D01*
X-24446132Y-19670634D01*
X-24374403Y-19705744D01*
X-24287884Y-19717447D01*
X-24203446Y-19705744D01*
X-24132795Y-19670634D01*
X-24075929Y-19612116D01*
X-24043134Y-19553110D01*
X-24019709Y-19481422D01*
X-24005654Y-19397052D01*
X-24000969Y-19300000D01*
X-24005573Y-19202948D01*
X-24019386Y-19118578D01*
X-24042407Y-19046890D01*
X-24050282Y-19032472D01*
X-23933764Y-19032472D01*
X-23723102Y-19032472D01*
X-23723102Y-19700646D01*
X-23562843Y-19700646D01*
X-23562843Y-19032472D01*
X-23352181Y-19032472D01*
X-23352181Y-18988530D01*
X-23264297Y-18988530D01*
X-23185460Y-19099677D01*
X-23104039Y-19038934D01*
X-23025202Y-19020840D01*
X-22950242Y-19047334D01*
X-22920517Y-19122940D01*
X-22944426Y-19191438D01*
X-23005170Y-19261228D01*
X-23043296Y-19298223D01*
X-23084006Y-19336834D01*
X-23124717Y-19377868D01*
X-23162843Y-19422132D01*
X-23196446Y-19470113D01*
X-23223586Y-19522294D01*
X-23241519Y-19579160D01*
X-23247496Y-19641195D01*
X-23248142Y-19668336D01*
X-23244911Y-19700646D01*
X-22722779Y-19700646D01*
X-22722779Y-19673506D01*
X-22620678Y-19673506D01*
X-22580614Y-19687722D01*
X-22524394Y-19701939D01*
X-22461066Y-19712924D01*
X-22398384Y-19717447D01*
X-22323748Y-19712763D01*
X-22260097Y-19698708D01*
X-22207108Y-19676090D01*
X-22164459Y-19645719D01*
X-22108885Y-19564943D01*
X-22090792Y-19462843D01*
X-22092837Y-19447334D01*
X-21881422Y-19447334D01*
X-21527302Y-19447334D01*
X-21527302Y-19373667D01*
X-21321809Y-19373667D01*
X-21313983Y-19481296D01*
X-21290504Y-19568103D01*
X-21251373Y-19634087D01*
X-21197307Y-19680398D01*
X-21129025Y-19708185D01*
X-21046527Y-19717447D01*
X-20985137Y-19711147D01*
X-20932795Y-19692246D01*
X-20853958Y-19626979D01*
X-20808078Y-19539095D01*
X-20793215Y-19444750D01*
X-20806785Y-19346527D01*
X-20851373Y-19265105D01*
X-20930856Y-19209532D01*
X-20984653Y-19194023D01*
X-21049111Y-19188853D01*
X-21090468Y-19194669D01*
X-21138288Y-19210824D01*
X-21093699Y-19126817D01*
X-21021971Y-19071890D01*
X-20931502Y-19041519D01*
X-20830695Y-19031179D01*
X-20839741Y-18895477D01*
X-20943457Y-18903231D01*
X-21037480Y-18926494D01*
X-21120194Y-18964943D01*
X-21189984Y-19018255D01*
X-21246042Y-19086107D01*
X-21287561Y-19168174D01*
X-21313247Y-19264136D01*
X-21321809Y-19373667D01*
X-21527302Y-19373667D01*
X-21527302Y-19290953D01*
X-21881422Y-19290953D01*
X-21881422Y-19447334D01*
X-22092837Y-19447334D01*
X-22099354Y-19397900D01*
X-22125040Y-19342649D01*
X-22166236Y-19298384D01*
X-22221325Y-19266397D01*
X-22148950Y-19199192D01*
X-22121809Y-19107431D01*
X-22137318Y-19018255D01*
X-22185137Y-18946527D01*
X-22267205Y-18899354D01*
X-22321325Y-18886753D01*
X-22384168Y-18882553D01*
X-22452827Y-18888530D01*
X-22514055Y-18906462D01*
X-22606462Y-18953635D01*
X-22549596Y-19069952D01*
X-22472698Y-19033118D01*
X-22382876Y-19018255D01*
X-22309855Y-19043457D01*
X-22283360Y-19112601D01*
X-22295638Y-19161712D01*
X-22327302Y-19192730D01*
X-22371244Y-19209532D01*
X-22420355Y-19214701D01*
X-22479806Y-19214701D01*
X-22479806Y-19346527D01*
X-22430695Y-19346527D01*
X-22359935Y-19352827D01*
X-22302746Y-19371729D01*
X-22264943Y-19406462D01*
X-22252342Y-19460258D01*
X-22285299Y-19546850D01*
X-22330372Y-19573021D01*
X-22399677Y-19581745D01*
X-22460905Y-19578191D01*
X-22512762Y-19567528D01*
X-22589661Y-19540388D01*
X-22620678Y-19673506D01*
X-22722779Y-19673506D01*
X-22722779Y-19568821D01*
X-23066559Y-19568821D01*
X-23052989Y-19526171D01*
X-23020032Y-19480291D01*
X-22978675Y-19436349D01*
X-22939903Y-19399515D01*
X-22873990Y-19334895D01*
X-22815832Y-19265105D01*
X-22774475Y-19190792D01*
X-22758966Y-19111309D01*
X-22779645Y-19011147D01*
X-22835218Y-18939418D01*
X-22915347Y-18896769D01*
X-23009693Y-18882553D01*
X-23077060Y-18889015D01*
X-23144750Y-18908401D01*
X-23208562Y-18941357D01*
X-23264297Y-18988530D01*
X-23352181Y-18988530D01*
X-23352181Y-18900646D01*
X-23933764Y-18900646D01*
X-23933764Y-19032472D01*
X-24050282Y-19032472D01*
X-24074636Y-18987884D01*
X-24131215Y-18929366D01*
X-24202728Y-18894256D01*
X-24289176Y-18882553D01*
X-24373039Y-18894256D01*
X-24443691Y-18929366D01*
X-24501131Y-18987884D01*
X-24534491Y-19046890D01*
X-24558320Y-19118578D01*
X-24572617Y-19202948D01*
X-24577383Y-19300000D01*
X-24743206Y-19300000D01*
X-24817124Y-19254120D01*
X-24895315Y-19222456D01*
X-24945073Y-19203069D01*
X-24990307Y-19179160D01*
X-25023263Y-19148142D01*
X-25036187Y-19107431D01*
X-25022114Y-19056453D01*
X-24979896Y-19025866D01*
X-24909531Y-19015670D01*
X-24818417Y-19028595D01*
X-24746688Y-19059612D01*
X-24700162Y-18936834D01*
X-24792569Y-18899354D01*
X-24852181Y-18886753D01*
X-24921163Y-18882553D01*
X-25000359Y-18889589D01*
X-25067349Y-18910698D01*
X-25122132Y-18945880D01*
X-25176898Y-19021486D01*
X-25195153Y-19121648D01*
X-25174475Y-19216640D01*
X-25122132Y-19280614D01*
X-25051696Y-19323263D01*
X-24976737Y-19352989D01*
X-24922456Y-19375606D01*
X-24873344Y-19402746D01*
X-24837157Y-19436995D01*
X-24822940Y-19480937D01*
X-24828756Y-19519063D01*
X-24850081Y-19552666D01*
X-24892084Y-19575929D01*
X-24958643Y-19584330D01*
X-25023102Y-19579806D01*
X-25076898Y-19566236D01*
X-25160258Y-19527464D01*
X-25206785Y-19656704D01*
X-25859380Y-19656704D01*
X-25912681Y-19591757D01*
X-25961210Y-19500965D01*
X-25991094Y-19402451D01*
X-26001185Y-19300000D01*
X-25991094Y-19197549D01*
X-25961210Y-19099035D01*
X-25912681Y-19008243D01*
X-25847372Y-18928664D01*
X-25767793Y-18863355D01*
X-25677002Y-18814826D01*
X-25578488Y-18784942D01*
X-25476037Y-18774852D01*
X-25206785Y-18774852D01*
X-20793215Y-18774852D01*
X-20523963Y-18774852D01*
X-20421512Y-18784942D01*
G37*
G36*
X-24223263Y-19042811D02*
G01*
X-24185137Y-19102262D01*
X-24167044Y-19190792D01*
X-24163651Y-19243619D01*
X-24162520Y-19300000D01*
X-24163651Y-19356220D01*
X-24167044Y-19408562D01*
X-24185137Y-19497092D01*
X-24223909Y-19557189D01*
X-24289176Y-19579160D01*
X-24355089Y-19557189D01*
X-24393215Y-19497738D01*
X-24411309Y-19409208D01*
X-24414701Y-19356381D01*
X-24415832Y-19300000D01*
X-24414701Y-19243780D01*
X-24411309Y-19191438D01*
X-24393215Y-19102908D01*
X-24355089Y-19042811D01*
X-24289176Y-19020840D01*
X-24223263Y-19042811D01*
G37*
G36*
X-21012601Y-19328918D02*
G01*
X-20975444Y-19353635D01*
X-20948304Y-19447334D01*
X-20954120Y-19492569D01*
X-20972213Y-19535218D01*
X-21003877Y-19567528D01*
X-21050404Y-19580452D01*
X-21106624Y-19564297D01*
X-21142165Y-19521002D01*
X-21160258Y-19459612D01*
X-21165428Y-19387884D01*
X-21164782Y-19363328D01*
X-21162843Y-19340065D01*
X-21120194Y-19325848D01*
X-21069790Y-19320679D01*
X-21012601Y-19328918D01*
G37*
D11*
%TO.C,C102*%
X-20905000Y-12538748D02*
X-20905000Y-13061252D01*
X-22375000Y-12538748D02*
X-22375000Y-13061252D01*
%TO.C,TP106*%
X-26400000Y-16100000D02*
X-27800000Y-16100000D01*
X-26400000Y-14700000D02*
X-26400000Y-16100000D01*
X-27800000Y-16100000D02*
X-27800000Y-14700000D01*
X-27800000Y-14700000D02*
X-26400000Y-14700000D01*
%TO.C,JP101*%
X-21600000Y-9100000D02*
G75*
G02*
X-22300000Y-9800000I-700000J0D01*
G01*
X-22300000Y-7800000D02*
G75*
G02*
X-21600000Y-8500000I0J-700000D01*
G01*
X-23700000Y-9800000D02*
G75*
G02*
X-24400000Y-9100000I-1J699999D01*
G01*
X-24400000Y-8500000D02*
G75*
G02*
X-23700000Y-7800000I699999J1D01*
G01*
X-21600000Y-8500000D02*
X-21600000Y-9100000D01*
X-22300000Y-9800000D02*
X-23700000Y-9800000D01*
X-23700000Y-7800000D02*
X-22300000Y-7800000D01*
X-24400000Y-9100000D02*
X-24400000Y-8500000D01*
%TO.C,TP101*%
X-26400000Y-9300000D02*
X-27800000Y-9300000D01*
X-26400000Y-7900000D02*
X-26400000Y-9300000D01*
X-27800000Y-9300000D02*
X-27800000Y-7900000D01*
X-27800000Y-7900000D02*
X-26400000Y-7900000D01*
%TD*%
D12*
X-27100000Y-13400000D03*
X-27100000Y-10600000D03*
X-18900000Y-10600000D03*
X-18900000Y-8600000D03*
X-27100000Y-17400000D03*
X-18900000Y-17400000D03*
X-18900000Y-13400000D03*
X-27100000Y-20200000D03*
X-18900000Y-15400000D03*
X-15380000Y-19520000D03*
X-15380000Y-16980000D03*
X-15380000Y-14440000D03*
X-15380000Y-11900000D03*
X-15380000Y-9360000D03*
X-18900000Y-20300000D03*
X-27100000Y-15400000D03*
X-30620000Y-19580000D03*
X-30620000Y-17040000D03*
X-30620000Y-14500000D03*
X-30620000Y-11960000D03*
X-30620000Y-9420000D03*
X-27100000Y-8600000D03*
M02*
