%TF.GenerationSoftware,KiCad,Pcbnew,8.0.3*%
%TF.CreationDate,2024-07-29T06:26:44+12:00*%
%TF.ProjectId,sot23-6,736f7432-332d-4362-9e6b-696361645f70,rev?*%
%TF.SameCoordinates,Original*%
%TF.FileFunction,Legend,Bot*%
%TF.FilePolarity,Positive*%
%FSLAX46Y46*%
G04 Gerber Fmt 4.6, Leading zero omitted, Abs format (unit mm)*
G04 Created by KiCad (PCBNEW 8.0.3) date 2024-07-29 06:26:44*
%MOMM*%
%LPD*%
G01*
G04 APERTURE LIST*
%ADD10C,0.500000*%
%ADD11C,0.400000*%
%ADD12C,0.100000*%
%ADD13C,0.120000*%
%ADD14C,0.350000*%
G04 APERTURE END LIST*
D10*
X-24901584Y-10575685D02*
X-24901584Y-8575685D01*
X-24901584Y-8575685D02*
X-25377774Y-8575685D01*
X-25377774Y-8575685D02*
X-25663489Y-8670923D01*
X-25663489Y-8670923D02*
X-25853965Y-8861399D01*
X-25853965Y-8861399D02*
X-25949203Y-9051875D01*
X-25949203Y-9051875D02*
X-26044441Y-9432827D01*
X-26044441Y-9432827D02*
X-26044441Y-9718542D01*
X-26044441Y-9718542D02*
X-25949203Y-10099494D01*
X-25949203Y-10099494D02*
X-25853965Y-10289970D01*
X-25853965Y-10289970D02*
X-25663489Y-10480447D01*
X-25663489Y-10480447D02*
X-25377774Y-10575685D01*
X-25377774Y-10575685D02*
X-24901584Y-10575685D01*
X-20768251Y-9528066D02*
X-20101584Y-9528066D01*
X-20101584Y-10575685D02*
X-20101584Y-8575685D01*
X-20101584Y-8575685D02*
X-21053965Y-8575685D01*
D11*
%TO.C,G\u002A\u002A\u002A*%
X-20089339Y-12267768D02*
X-21503553Y-10853554D01*
X-20189339Y-6739340D02*
X-21603553Y-8153554D01*
X-25410660Y-12260661D02*
X-23996446Y-10846447D01*
X-25510660Y-6732233D02*
X-24096446Y-8146447D01*
D12*
X-21710400Y-8967241D02*
X-21535311Y-8967241D01*
X-21535311Y-8792042D01*
X-21710400Y-8792042D01*
X-21710400Y-8967241D01*
G36*
X-21710400Y-8967241D02*
G01*
X-21535311Y-8967241D01*
X-21535311Y-8792042D01*
X-21710400Y-8792042D01*
X-21710400Y-8967241D01*
G37*
X-21710400Y-9390240D02*
X-21535311Y-9390240D01*
X-21535311Y-9215041D01*
X-21710400Y-9215041D01*
X-21710400Y-9390240D01*
G36*
X-21710400Y-9390240D02*
G01*
X-21535311Y-9390240D01*
X-21535311Y-9215041D01*
X-21710400Y-9215041D01*
X-21710400Y-9390240D01*
G37*
X-21710400Y-9801026D02*
X-21535311Y-9801026D01*
X-21535311Y-9625827D01*
X-21710400Y-9625827D01*
X-21710400Y-9801026D01*
G36*
X-21710400Y-9801026D02*
G01*
X-21535311Y-9801026D01*
X-21535311Y-9625827D01*
X-21710400Y-9625827D01*
X-21710400Y-9801026D01*
G37*
X-21710400Y-10184379D02*
X-21535311Y-10184379D01*
X-21535311Y-10009180D01*
X-21710400Y-10009180D01*
X-21710400Y-10184379D01*
G36*
X-21710400Y-10184379D02*
G01*
X-21535311Y-10184379D01*
X-21535311Y-10009180D01*
X-21710400Y-10009180D01*
X-21710400Y-10184379D01*
G37*
X-23745025Y-10429393D02*
X-21907299Y-10429393D01*
X-21907299Y-8558850D01*
X-23745025Y-8558850D01*
X-23745025Y-10429393D01*
X-22083469Y-9146447D02*
X-21931344Y-9146447D01*
X-21931344Y-8646447D01*
X-22083469Y-8646447D01*
X-22083469Y-9146447D01*
G36*
X-22083469Y-9146447D02*
G01*
X-21931344Y-9146447D01*
X-21931344Y-8646447D01*
X-22083469Y-8646447D01*
X-22083469Y-9146447D01*
G37*
X-22451397Y-8723568D02*
X-21931344Y-8723568D01*
X-21931344Y-8646447D01*
X-22451397Y-8646447D01*
X-22451397Y-8723568D01*
G36*
X-22451397Y-8723568D02*
G01*
X-21931344Y-8723568D01*
X-21931344Y-8646447D01*
X-22451397Y-8646447D01*
X-22451397Y-8723568D01*
G37*
X-23696446Y-10346447D02*
X-21996446Y-10346447D01*
X-21996446Y-9146447D01*
X-23696446Y-9146447D01*
X-23696446Y-10346447D01*
G36*
X-23696446Y-10346447D02*
G01*
X-21996446Y-10346447D01*
X-21996446Y-9146447D01*
X-23696446Y-9146447D01*
X-23696446Y-10346447D01*
G37*
X-22311878Y-8380515D02*
X-22136679Y-8380515D01*
X-22136679Y-8205426D01*
X-22311878Y-8205426D01*
X-22311878Y-8380515D01*
G36*
X-22311878Y-8380515D02*
G01*
X-22136679Y-8380515D01*
X-22136679Y-8205426D01*
X-22311878Y-8205426D01*
X-22311878Y-8380515D01*
G37*
X-22311878Y-10833991D02*
X-22136679Y-10833991D01*
X-22136679Y-10658902D01*
X-22311878Y-10658902D01*
X-22311878Y-10833991D01*
G36*
X-22311878Y-10833991D02*
G01*
X-22136679Y-10833991D01*
X-22136679Y-10658902D01*
X-22311878Y-10658902D01*
X-22311878Y-10833991D01*
G37*
X-23696446Y-9074749D02*
X-22508002Y-9074749D01*
X-22508002Y-8646447D01*
X-23696446Y-8646447D01*
X-23696446Y-9074749D01*
G36*
X-23696446Y-9074749D02*
G01*
X-22508002Y-9074749D01*
X-22508002Y-8646447D01*
X-23696446Y-8646447D01*
X-23696446Y-9074749D01*
G37*
X-22695231Y-8380515D02*
X-22520032Y-8380515D01*
X-22520032Y-8205426D01*
X-22695231Y-8205426D01*
X-22695231Y-8380515D01*
G36*
X-22695231Y-8380515D02*
G01*
X-22520032Y-8380515D01*
X-22520032Y-8205426D01*
X-22695231Y-8205426D01*
X-22695231Y-8380515D01*
G37*
X-22695231Y-10833991D02*
X-22520032Y-10833991D01*
X-22520032Y-10658902D01*
X-22695231Y-10658902D01*
X-22695231Y-10833991D01*
G36*
X-22695231Y-10833991D02*
G01*
X-22520032Y-10833991D01*
X-22520032Y-10658902D01*
X-22695231Y-10658902D01*
X-22695231Y-10833991D01*
G37*
X-23106017Y-8380515D02*
X-22930818Y-8380515D01*
X-22930818Y-8205426D01*
X-23106017Y-8205426D01*
X-23106017Y-8380515D01*
G36*
X-23106017Y-8380515D02*
G01*
X-22930818Y-8380515D01*
X-22930818Y-8205426D01*
X-23106017Y-8205426D01*
X-23106017Y-8380515D01*
G37*
X-23106017Y-10833991D02*
X-22930818Y-10833991D01*
X-22930818Y-10658902D01*
X-23106017Y-10658902D01*
X-23106017Y-10833991D01*
G36*
X-23106017Y-10833991D02*
G01*
X-22930818Y-10833991D01*
X-22930818Y-10658902D01*
X-23106017Y-10658902D01*
X-23106017Y-10833991D01*
G37*
X-23529016Y-8380515D02*
X-23353817Y-8380515D01*
X-23353817Y-8205426D01*
X-23529016Y-8205426D01*
X-23529016Y-8380515D01*
G36*
X-23529016Y-8380515D02*
G01*
X-23353817Y-8380515D01*
X-23353817Y-8205426D01*
X-23529016Y-8205426D01*
X-23529016Y-8380515D01*
G37*
X-23529016Y-10833991D02*
X-23353817Y-10833991D01*
X-23353817Y-10658902D01*
X-23529016Y-10658902D01*
X-23529016Y-10833991D01*
G36*
X-23529016Y-10833991D02*
G01*
X-23353817Y-10833991D01*
X-23353817Y-10658902D01*
X-23529016Y-10658902D01*
X-23529016Y-10833991D01*
G37*
X-24122742Y-8967241D02*
X-23947653Y-8967241D01*
X-23947653Y-8792042D01*
X-24122742Y-8792042D01*
X-24122742Y-8967241D01*
G36*
X-24122742Y-8967241D02*
G01*
X-23947653Y-8967241D01*
X-23947653Y-8792042D01*
X-24122742Y-8792042D01*
X-24122742Y-8967241D01*
G37*
X-24122742Y-9390240D02*
X-23947653Y-9390240D01*
X-23947653Y-9215041D01*
X-24122742Y-9215041D01*
X-24122742Y-9390240D01*
G36*
X-24122742Y-9390240D02*
G01*
X-23947653Y-9390240D01*
X-23947653Y-9215041D01*
X-24122742Y-9215041D01*
X-24122742Y-9390240D01*
G37*
X-24122742Y-9801026D02*
X-23947653Y-9801026D01*
X-23947653Y-9625827D01*
X-24122742Y-9625827D01*
X-24122742Y-9801026D01*
G36*
X-24122742Y-9801026D02*
G01*
X-23947653Y-9801026D01*
X-23947653Y-9625827D01*
X-24122742Y-9625827D01*
X-24122742Y-9801026D01*
G37*
X-24122742Y-10184379D02*
X-23947653Y-10184379D01*
X-23947653Y-10009180D01*
X-24122742Y-10009180D01*
X-24122742Y-10184379D01*
G36*
X-24122742Y-10184379D02*
G01*
X-23947653Y-10184379D01*
X-23947653Y-10009180D01*
X-24122742Y-10009180D01*
X-24122742Y-10184379D01*
G37*
X-22096446Y-8946447D02*
G75*
G02*
X-22496446Y-8946447I-200000J0D01*
G01*
X-22496446Y-8946447D02*
G75*
G02*
X-22096446Y-8946447I200000J0D01*
G01*
D13*
%TO.C,J102*%
X-16710000Y-20850000D02*
X-16710000Y-10630000D01*
X-16710000Y-20850000D02*
X-14050000Y-20850000D01*
X-16710000Y-10630000D02*
X-14050000Y-10630000D01*
X-14050000Y-20850000D02*
X-14050000Y-10630000D01*
X-14050000Y-8030000D02*
X-14050000Y-9360000D01*
X-15380000Y-8030000D02*
X-14050000Y-8030000D01*
%TO.C,J101*%
X-31950000Y-20910000D02*
X-31950000Y-10690000D01*
X-31950000Y-20910000D02*
X-29290000Y-20910000D01*
X-31950000Y-10690000D02*
X-29290000Y-10690000D01*
X-29290000Y-20910000D02*
X-29290000Y-10690000D01*
X-29290000Y-8090000D02*
X-29290000Y-9420000D01*
X-30620000Y-8090000D02*
X-29290000Y-8090000D01*
%TD*%
D14*
X-27100000Y-13400000D03*
X-27100000Y-10600000D03*
X-18900000Y-10600000D03*
X-18900000Y-8600000D03*
X-27100000Y-17400000D03*
X-18900000Y-17400000D03*
X-18900000Y-13400000D03*
X-27100000Y-20200000D03*
X-18900000Y-15400000D03*
X-15380000Y-19520000D03*
X-15380000Y-16980000D03*
X-15380000Y-14440000D03*
X-15380000Y-11900000D03*
X-15380000Y-9360000D03*
X-18900000Y-20300000D03*
X-27100000Y-15400000D03*
X-30620000Y-19580000D03*
X-30620000Y-17040000D03*
X-30620000Y-14500000D03*
X-30620000Y-11960000D03*
X-30620000Y-9420000D03*
X-27100000Y-8600000D03*
M02*
