%TF.GenerationSoftware,KiCad,Pcbnew,8.0.3*%
%TF.CreationDate,2024-08-11T06:13:30+12:00*%
%TF.ProjectId,soic-8,736f6963-2d38-42e6-9b69-6361645f7063,rev?*%
%TF.SameCoordinates,Original*%
%TF.FileFunction,Soldermask,Top*%
%TF.FilePolarity,Negative*%
%FSLAX46Y46*%
G04 Gerber Fmt 4.6, Leading zero omitted, Abs format (unit mm)*
G04 Created by KiCad (PCBNEW 8.0.3) date 2024-08-11 06:13:30*
%MOMM*%
%LPD*%
G01*
G04 APERTURE LIST*
G04 Aperture macros list*
%AMRoundRect*
0 Rectangle with rounded corners*
0 $1 Rounding radius*
0 $2 $3 $4 $5 $6 $7 $8 $9 X,Y pos of 4 corners*
0 Add a 4 corners polygon primitive as box body*
4,1,4,$2,$3,$4,$5,$6,$7,$8,$9,$2,$3,0*
0 Add four circle primitives for the rounded corners*
1,1,$1+$1,$2,$3*
1,1,$1+$1,$4,$5*
1,1,$1+$1,$6,$7*
1,1,$1+$1,$8,$9*
0 Add four rect primitives between the rounded corners*
20,1,$1+$1,$2,$3,$4,$5,0*
20,1,$1+$1,$4,$5,$6,$7,0*
20,1,$1+$1,$6,$7,$8,$9,0*
20,1,$1+$1,$8,$9,$2,$3,0*%
%AMFreePoly0*
4,1,19,0.500000,-0.750000,0.000000,-0.750000,0.000000,-0.744911,-0.071157,-0.744911,-0.207708,-0.704816,-0.327430,-0.627875,-0.420627,-0.520320,-0.479746,-0.390866,-0.500000,-0.250000,-0.500000,0.250000,-0.479746,0.390866,-0.420627,0.520320,-0.327430,0.627875,-0.207708,0.704816,-0.071157,0.744911,0.000000,0.744911,0.000000,0.750000,0.500000,0.750000,0.500000,-0.750000,0.500000,-0.750000,
$1*%
%AMFreePoly1*
4,1,19,0.000000,0.744911,0.071157,0.744911,0.207708,0.704816,0.327430,0.627875,0.420627,0.520320,0.479746,0.390866,0.500000,0.250000,0.500000,-0.250000,0.479746,-0.390866,0.420627,-0.520320,0.327430,-0.627875,0.207708,-0.704816,0.071157,-0.744911,0.000000,-0.744911,0.000000,-0.750000,-0.500000,-0.750000,-0.500000,0.750000,0.000000,0.750000,0.000000,0.744911,0.000000,0.744911,
$1*%
G04 Aperture macros list end*
%ADD10R,1.000000X1.000000*%
%ADD11RoundRect,0.250000X-0.475000X0.337500X-0.475000X-0.337500X0.475000X-0.337500X0.475000X0.337500X0*%
%ADD12RoundRect,0.150000X-0.825000X-0.150000X0.825000X-0.150000X0.825000X0.150000X-0.825000X0.150000X0*%
%ADD13R,2.410000X3.810000*%
%ADD14FreePoly0,0.000000*%
%ADD15FreePoly1,0.000000*%
%ADD16R,1.700000X1.700000*%
%ADD17O,1.700000X1.700000*%
G04 APERTURE END LIST*
D10*
%TO.C,TP105*%
X-28500000Y-13800000D03*
%TD*%
D11*
%TO.C,C101*%
X-24360000Y-11762500D03*
X-24360000Y-13837500D03*
%TD*%
D10*
%TO.C,TP102*%
X-28500000Y-10600000D03*
%TD*%
%TO.C,TP103*%
X-17700000Y-10600000D03*
%TD*%
%TO.C,TP104*%
X-17700000Y-8600000D03*
%TD*%
%TO.C,TP107*%
X-28500000Y-17800000D03*
%TD*%
D12*
%TO.C,U101*%
X-25585000Y-15995000D03*
X-25585000Y-17265000D03*
X-25585000Y-18535000D03*
X-25585000Y-19805000D03*
X-20635000Y-19805000D03*
X-20635000Y-18535000D03*
X-20635000Y-17265000D03*
X-20635000Y-15995000D03*
D13*
X-23110000Y-17900000D03*
%TD*%
D10*
%TO.C,TP113*%
X-28500000Y-22500000D03*
%TD*%
%TO.C,TP108*%
X-28500000Y-19800000D03*
%TD*%
%TO.C,TP110*%
X-17700000Y-17800000D03*
%TD*%
%TO.C,TP111*%
X-17700000Y-15800000D03*
%TD*%
%TO.C,TP109*%
X-17700000Y-19800000D03*
%TD*%
%TO.C,TP112*%
X-17700000Y-13800000D03*
%TD*%
%TO.C,TP114*%
X-17700000Y-22500000D03*
%TD*%
D11*
%TO.C,C102*%
X-21640000Y-11762500D03*
X-21640000Y-13837500D03*
%TD*%
D10*
%TO.C,TP106*%
X-28500000Y-15800000D03*
%TD*%
D14*
%TO.C,JP101*%
X-23650000Y-8800000D03*
D15*
X-22350000Y-8800000D03*
%TD*%
D10*
%TO.C,TP101*%
X-28500000Y-8600000D03*
%TD*%
D16*
%TO.C,J102*%
X-14220000Y-9380000D03*
D17*
X-14220000Y-11920000D03*
X-14220000Y-14460000D03*
X-14220000Y-17000000D03*
X-14220000Y-19540000D03*
X-14220000Y-22080000D03*
%TD*%
D16*
%TO.C,J101*%
X-32000000Y-9380000D03*
D17*
X-32000000Y-11920000D03*
X-32000000Y-14460000D03*
X-32000000Y-17000000D03*
X-32000000Y-19540000D03*
X-32000000Y-22080000D03*
%TD*%
M02*
