M48
; DRILL file {KiCad 8.0.3} date 2024-08-11T06:13:30+1200
; FORMAT={-:-/ absolute / metric / decimal}
; #@! TF.CreationDate,2024-08-11T06:13:30+12:00
; #@! TF.GenerationSoftware,Kicad,Pcbnew,8.0.3
; #@! TF.FileFunction,MixedPlating,1,2
FMAT,2
METRIC
; #@! TA.AperFunction,Plated,PTH,ViaDrill
T1C0.200
; #@! TA.AperFunction,Plated,PTH,ComponentDrill
T2C0.200
; #@! TA.AperFunction,Plated,PTH,ViaDrill
T3C0.300
; #@! TA.AperFunction,Plated,PTH,ComponentDrill
T4C0.500
; #@! TA.AperFunction,Plated,PTH,ComponentDrill
T5C1.000
%
G90
G05
T1
X-27.2Y-13.0
X-26.0Y-14.9
X-25.8Y-13.1
X-25.438Y-13.837
X-23.0Y-11.2
X-23.0Y-12.8
X-23.0Y-14.8
X-20.5Y-13.84
X-20.2Y-13.1
X-20.0Y-14.9
X-19.0Y-13.0
T2
X-23.81Y-16.5
X-23.81Y-17.9
X-23.81Y-19.3
X-22.41Y-16.5
X-22.41Y-17.9
X-22.41Y-19.3
T3
X-36.0Y-8.0
X-36.0Y-10.0
X-36.0Y-12.0
X-36.0Y-14.0
X-36.0Y-16.0
X-36.0Y-18.0
X-36.0Y-20.0
X-36.0Y-22.0
X-35.0Y-6.0
X-35.0Y-24.0
X-33.0Y-6.0
X-33.0Y-24.0
X-31.0Y-6.0
X-31.0Y-24.0
X-29.0Y-6.0
X-29.0Y-24.0
X-27.0Y-6.0
X-27.0Y-24.0
X-25.0Y-6.0
X-25.0Y-24.0
X-23.0Y-6.0
X-23.0Y-24.0
X-21.0Y-6.0
X-21.0Y-24.0
X-19.0Y-6.0
X-19.0Y-24.0
X-17.0Y-6.0
X-17.0Y-24.0
X-15.0Y-6.0
X-15.0Y-24.0
X-13.0Y-6.0
X-13.0Y-24.0
X-11.0Y-6.0
X-11.0Y-24.0
X-10.0Y-8.0
X-10.0Y-10.0
X-10.0Y-12.0
X-10.0Y-14.0
X-10.0Y-16.0
X-10.0Y-18.0
X-10.0Y-20.0
X-10.0Y-22.0
T4
X-28.5Y-8.6
X-28.5Y-10.6
X-28.5Y-13.8
X-28.5Y-15.8
X-28.5Y-17.8
X-28.5Y-19.8
X-28.5Y-22.5
X-17.7Y-8.6
X-17.7Y-10.6
X-17.7Y-13.8
X-17.7Y-15.8
X-17.7Y-17.8
X-17.7Y-19.8
X-17.7Y-22.5
T5
X-32.0Y-9.38
X-32.0Y-11.92
X-32.0Y-14.46
X-32.0Y-17.0
X-32.0Y-19.54
X-32.0Y-22.08
X-14.22Y-9.38
X-14.22Y-11.92
X-14.22Y-14.46
X-14.22Y-17.0
X-14.22Y-19.54
X-14.22Y-22.08
M30
