%TF.GenerationSoftware,KiCad,Pcbnew,8.0.3*%
%TF.CreationDate,2024-09-03T06:20:47+12:00*%
%TF.ProjectId,to-252-2,746f2d32-3532-42d3-922e-6b696361645f,rev?*%
%TF.SameCoordinates,Original*%
%TF.FileFunction,Copper,L1,Top*%
%TF.FilePolarity,Positive*%
%FSLAX46Y46*%
G04 Gerber Fmt 4.6, Leading zero omitted, Abs format (unit mm)*
G04 Created by KiCad (PCBNEW 8.0.3) date 2024-09-03 06:20:47*
%MOMM*%
%LPD*%
G01*
G04 APERTURE LIST*
G04 Aperture macros list*
%AMRoundRect*
0 Rectangle with rounded corners*
0 $1 Rounding radius*
0 $2 $3 $4 $5 $6 $7 $8 $9 X,Y pos of 4 corners*
0 Add a 4 corners polygon primitive as box body*
4,1,4,$2,$3,$4,$5,$6,$7,$8,$9,$2,$3,0*
0 Add four circle primitives for the rounded corners*
1,1,$1+$1,$2,$3*
1,1,$1+$1,$4,$5*
1,1,$1+$1,$6,$7*
1,1,$1+$1,$8,$9*
0 Add four rect primitives between the rounded corners*
20,1,$1+$1,$2,$3,$4,$5,0*
20,1,$1+$1,$4,$5,$6,$7,0*
20,1,$1+$1,$6,$7,$8,$9,0*
20,1,$1+$1,$8,$9,$2,$3,0*%
%AMFreePoly0*
4,1,19,0.500000,-0.750000,0.000000,-0.750000,0.000000,-0.744911,-0.071157,-0.744911,-0.207708,-0.704816,-0.327430,-0.627875,-0.420627,-0.520320,-0.479746,-0.390866,-0.500000,-0.250000,-0.500000,0.250000,-0.479746,0.390866,-0.420627,0.520320,-0.327430,0.627875,-0.207708,0.704816,-0.071157,0.744911,0.000000,0.744911,0.000000,0.750000,0.500000,0.750000,0.500000,-0.750000,0.500000,-0.750000,
$1*%
%AMFreePoly1*
4,1,19,0.000000,0.744911,0.071157,0.744911,0.207708,0.704816,0.327430,0.627875,0.420627,0.520320,0.479746,0.390866,0.500000,0.250000,0.500000,-0.250000,0.479746,-0.390866,0.420627,-0.520320,0.327430,-0.627875,0.207708,-0.704816,0.071157,-0.744911,0.000000,-0.744911,0.000000,-0.750000,-0.500000,-0.750000,-0.500000,0.750000,0.000000,0.750000,0.000000,0.744911,0.000000,0.744911,
$1*%
G04 Aperture macros list end*
%TA.AperFunction,EtchedComponent*%
%ADD10C,0.000000*%
%TD*%
%TA.AperFunction,ComponentPad*%
%ADD11R,1.000000X1.000000*%
%TD*%
%TA.AperFunction,SMDPad,CuDef*%
%ADD12RoundRect,0.250000X-0.475000X0.337500X-0.475000X-0.337500X0.475000X-0.337500X0.475000X0.337500X0*%
%TD*%
%TA.AperFunction,SMDPad,CuDef*%
%ADD13RoundRect,0.250000X-0.850000X-0.350000X0.850000X-0.350000X0.850000X0.350000X-0.850000X0.350000X0*%
%TD*%
%TA.AperFunction,SMDPad,CuDef*%
%ADD14RoundRect,0.250000X-1.275000X-1.125000X1.275000X-1.125000X1.275000X1.125000X-1.275000X1.125000X0*%
%TD*%
%TA.AperFunction,SMDPad,CuDef*%
%ADD15RoundRect,0.249997X-2.950003X-2.650003X2.950003X-2.650003X2.950003X2.650003X-2.950003X2.650003X0*%
%TD*%
%TA.AperFunction,SMDPad,CuDef*%
%ADD16FreePoly0,0.000000*%
%TD*%
%TA.AperFunction,SMDPad,CuDef*%
%ADD17FreePoly1,0.000000*%
%TD*%
%TA.AperFunction,ComponentPad*%
%ADD18R,1.700000X1.700000*%
%TD*%
%TA.AperFunction,ComponentPad*%
%ADD19O,1.700000X1.700000*%
%TD*%
%TA.AperFunction,ViaPad*%
%ADD20C,0.600000*%
%TD*%
%TA.AperFunction,Conductor*%
%ADD21C,0.500000*%
%TD*%
%ADD22C,0.300000*%
%ADD23C,0.350000*%
G04 APERTURE END LIST*
D10*
%TA.AperFunction,EtchedComponent*%
%TO.C,JP101*%
G36*
X100250000Y-84000000D02*
G01*
X99750000Y-84000000D01*
X99750000Y-83400000D01*
X100250000Y-83400000D01*
X100250000Y-84000000D01*
G37*
%TD.AperFunction*%
%TD*%
D11*
%TO.P,TP105,1,1*%
%TO.N,Net-(J101-Pin_2)*%
X93100000Y-88900000D03*
%TD*%
D12*
%TO.P,C101,1*%
%TO.N,Net-(J101-Pin_1)*%
X98640000Y-85862500D03*
%TO.P,C101,2*%
%TO.N,GND*%
X98640000Y-87937500D03*
%TD*%
D11*
%TO.P,TP102,1,1*%
%TO.N,Net-(J101-Pin_1)*%
X95700000Y-87900000D03*
%TD*%
%TO.P,TP103,1,1*%
%TO.N,Net-(J102-Pin_1)*%
X104300000Y-87900000D03*
%TD*%
%TO.P,TP104,1,1*%
%TO.N,Net-(J102-Pin_1)*%
X104300000Y-85900000D03*
%TD*%
D13*
%TO.P,U101,1,1*%
%TO.N,Net-(J101-Pin_2)*%
X95940000Y-91470000D03*
D14*
%TO.P,U101,2,2*%
%TO.N,Net-(J102-Pin_2)*%
X100565000Y-92225000D03*
X100565000Y-95275000D03*
D15*
X102240000Y-93750000D03*
D14*
X103915000Y-92225000D03*
X103915000Y-95275000D03*
D13*
%TO.P,U101,3,3*%
%TO.N,Net-(J101-Pin_3)*%
X95940000Y-96030000D03*
%TD*%
D11*
%TO.P,TP110,1,1*%
%TO.N,Net-(J102-Pin_2)*%
X107200000Y-88900000D03*
%TD*%
%TO.P,TP111,1,1*%
%TO.N,GND*%
X93100000Y-98500000D03*
%TD*%
%TO.P,TP109,1,1*%
%TO.N,Net-(J101-Pin_3)*%
X93100000Y-91450000D03*
%TD*%
%TO.P,TP112,1,1*%
%TO.N,GND*%
X107200000Y-98500000D03*
%TD*%
D12*
%TO.P,C102,1*%
%TO.N,Net-(J102-Pin_1)*%
X101360000Y-85862500D03*
%TO.P,C102,2*%
%TO.N,GND*%
X101360000Y-87937500D03*
%TD*%
D16*
%TO.P,JP101,1,A*%
%TO.N,Net-(J101-Pin_1)*%
X99350000Y-83700000D03*
D17*
%TO.P,JP101,2,B*%
%TO.N,Net-(J102-Pin_1)*%
X100650000Y-83700000D03*
%TD*%
D11*
%TO.P,TP101,1,1*%
%TO.N,Net-(J101-Pin_1)*%
X95700000Y-85900000D03*
%TD*%
D18*
%TO.P,J102,1,Pin_1*%
%TO.N,Net-(J102-Pin_1)*%
X110300000Y-86360000D03*
D19*
%TO.P,J102,2,Pin_2*%
%TO.N,Net-(J102-Pin_2)*%
X110300000Y-88900000D03*
%TO.P,J102,3,Pin_3*%
%TO.N,unconnected-(J102-Pin_3-Pad3)*%
X110300000Y-91440000D03*
%TO.P,J102,4,Pin_4*%
%TO.N,GND*%
X110300000Y-93980000D03*
%TD*%
D18*
%TO.P,J101,1,Pin_1*%
%TO.N,Net-(J101-Pin_1)*%
X89980000Y-86360000D03*
D19*
%TO.P,J101,2,Pin_2*%
%TO.N,Net-(J101-Pin_2)*%
X89980000Y-88900000D03*
%TO.P,J101,3,Pin_3*%
%TO.N,Net-(J101-Pin_3)*%
X89980000Y-91440000D03*
%TO.P,J101,4,Pin_4*%
%TO.N,GND*%
X89980000Y-93980000D03*
%TD*%
D20*
%TO.N,GND*%
X102000000Y-101000000D03*
X96000000Y-101000000D03*
X94000000Y-81000000D03*
X96000000Y-81000000D03*
X114000000Y-85000000D03*
X110000000Y-101000000D03*
X102000000Y-81000000D03*
X114000000Y-89000000D03*
X86000000Y-83000000D03*
X98000000Y-81000000D03*
X86000000Y-81000000D03*
X106000000Y-90000000D03*
X114000000Y-93000000D03*
X86000000Y-97000000D03*
X114000000Y-99000000D03*
X112000000Y-101000000D03*
X86000000Y-87000000D03*
X88000000Y-81000000D03*
X96700000Y-89200000D03*
X110000000Y-81000000D03*
X108000000Y-81000000D03*
X114000000Y-97000000D03*
X114000000Y-91000000D03*
X86000000Y-95000000D03*
X114000000Y-87000000D03*
X104000000Y-101000000D03*
X88000000Y-101000000D03*
X86000000Y-89000000D03*
X106000000Y-101000000D03*
X104000000Y-81000000D03*
X102900000Y-87900000D03*
X86000000Y-99000000D03*
X98000000Y-101000000D03*
X90000000Y-81000000D03*
X92000000Y-81000000D03*
X92000000Y-101000000D03*
X90000000Y-101000000D03*
X86000000Y-91000000D03*
X97100000Y-88000000D03*
X106200000Y-92200000D03*
X114000000Y-81000000D03*
X86000000Y-85000000D03*
X108000000Y-101000000D03*
X112000000Y-81000000D03*
X94000000Y-101000000D03*
X114000000Y-83000000D03*
X100000000Y-101000000D03*
X114000000Y-101000000D03*
X100000000Y-81000000D03*
X106000000Y-81000000D03*
X114000000Y-95000000D03*
X86000000Y-93000000D03*
X86000000Y-101000000D03*
%TD*%
D21*
%TO.N,Net-(J101-Pin_2)*%
X95400000Y-89700000D02*
X95940000Y-90240000D01*
X93100000Y-88900000D02*
X93900000Y-89700000D01*
X95940000Y-90240000D02*
X95940000Y-91470000D01*
X89980000Y-88900000D02*
X93100000Y-88900000D01*
X93900000Y-89700000D02*
X95400000Y-89700000D01*
%TO.N,Net-(J101-Pin_3)*%
X93100000Y-95000000D02*
X93100000Y-91450000D01*
X89980000Y-91440000D02*
X93090000Y-91440000D01*
X94130000Y-96030000D02*
X93100000Y-95000000D01*
X95940000Y-96030000D02*
X94130000Y-96030000D01*
%TO.N,Net-(J102-Pin_2)*%
X106150000Y-93750000D02*
X102240000Y-93750000D01*
X107200000Y-88900000D02*
X107200000Y-92700000D01*
X110300000Y-88900000D02*
X107200000Y-88900000D01*
X107200000Y-92700000D02*
X106150000Y-93750000D01*
%TD*%
%TA.AperFunction,Conductor*%
%TO.N,Net-(J101-Pin_1)*%
G36*
X99543039Y-82919685D02*
G01*
X99588794Y-82972489D01*
X99600000Y-83024000D01*
X99600000Y-84723888D01*
X99580315Y-84790927D01*
X99527511Y-84836682D01*
X99458353Y-84846626D01*
X99436997Y-84841594D01*
X99267700Y-84785495D01*
X99267690Y-84785493D01*
X99164986Y-84775000D01*
X98890000Y-84775000D01*
X98890000Y-85988500D01*
X98870315Y-86055539D01*
X98817511Y-86101294D01*
X98766000Y-86112500D01*
X97415001Y-86112500D01*
X97415001Y-86249986D01*
X97425494Y-86352697D01*
X97480641Y-86519119D01*
X97480643Y-86519124D01*
X97572684Y-86668345D01*
X97692658Y-86788319D01*
X97726143Y-86849642D01*
X97721159Y-86919334D01*
X97679287Y-86975267D01*
X97613823Y-86999684D01*
X97604977Y-87000000D01*
X96800000Y-87000000D01*
X96797758Y-87002241D01*
X96780315Y-87061647D01*
X96727511Y-87107402D01*
X96658353Y-87117346D01*
X96594797Y-87088321D01*
X96576734Y-87068919D01*
X96557190Y-87042813D01*
X96499021Y-86999267D01*
X96457150Y-86943333D01*
X96452166Y-86873641D01*
X96485651Y-86812318D01*
X96499021Y-86800733D01*
X96557190Y-86757186D01*
X96643350Y-86642093D01*
X96643354Y-86642086D01*
X96693596Y-86507379D01*
X96693598Y-86507372D01*
X96699999Y-86447844D01*
X96700000Y-86447827D01*
X96700000Y-86150000D01*
X95950000Y-86150000D01*
X95950000Y-87850272D01*
X95911940Y-87758386D01*
X95841614Y-87688060D01*
X95749728Y-87650000D01*
X95650272Y-87650000D01*
X95558386Y-87688060D01*
X95488060Y-87758386D01*
X95450000Y-87850272D01*
X95450000Y-87949728D01*
X95488060Y-88041614D01*
X95558386Y-88111940D01*
X95650272Y-88150000D01*
X94700000Y-88150000D01*
X94700000Y-88447844D01*
X94706401Y-88507372D01*
X94706403Y-88507379D01*
X94756645Y-88642086D01*
X94756649Y-88642093D01*
X94838319Y-88751189D01*
X94862737Y-88816653D01*
X94847886Y-88884926D01*
X94798481Y-88934332D01*
X94739053Y-88949500D01*
X94324000Y-88949500D01*
X94256961Y-88929815D01*
X94211206Y-88877011D01*
X94200000Y-88825500D01*
X94200000Y-87700000D01*
X91335489Y-87700000D01*
X91268450Y-87680315D01*
X91222695Y-87627511D01*
X91212751Y-87558353D01*
X91236223Y-87501689D01*
X91273350Y-87452093D01*
X91273354Y-87452086D01*
X91323596Y-87317379D01*
X91323598Y-87317372D01*
X91329999Y-87257844D01*
X91330000Y-87257827D01*
X91330000Y-86610000D01*
X90413012Y-86610000D01*
X90445925Y-86552993D01*
X90474100Y-86447844D01*
X94700000Y-86447844D01*
X94706401Y-86507372D01*
X94706403Y-86507379D01*
X94756645Y-86642086D01*
X94756649Y-86642093D01*
X94842809Y-86757187D01*
X94900979Y-86800734D01*
X94942849Y-86856668D01*
X94947833Y-86926360D01*
X94914347Y-86987683D01*
X94900979Y-86999266D01*
X94842809Y-87042812D01*
X94756649Y-87157906D01*
X94756645Y-87157913D01*
X94706403Y-87292620D01*
X94706401Y-87292627D01*
X94700000Y-87352155D01*
X94700000Y-87650000D01*
X95450000Y-87650000D01*
X95450000Y-86150000D01*
X94700000Y-86150000D01*
X94700000Y-86447844D01*
X90474100Y-86447844D01*
X90480000Y-86425826D01*
X90480000Y-86294174D01*
X90445925Y-86167007D01*
X90413012Y-86110000D01*
X91330000Y-86110000D01*
X91330000Y-85850272D01*
X95450000Y-85850272D01*
X95450000Y-85949728D01*
X95488060Y-86041614D01*
X95558386Y-86111940D01*
X95650272Y-86150000D01*
X95749728Y-86150000D01*
X95841614Y-86111940D01*
X95911940Y-86041614D01*
X95950000Y-85949728D01*
X95950000Y-85850272D01*
X95911940Y-85758386D01*
X95841614Y-85688060D01*
X95749728Y-85650000D01*
X95950000Y-85650000D01*
X96700000Y-85650000D01*
X96700000Y-85475013D01*
X97415000Y-85475013D01*
X97415000Y-85612500D01*
X98390000Y-85612500D01*
X98390000Y-84775000D01*
X98115029Y-84775000D01*
X98115012Y-84775001D01*
X98012302Y-84785494D01*
X97845880Y-84840641D01*
X97845875Y-84840643D01*
X97696654Y-84932684D01*
X97572684Y-85056654D01*
X97480643Y-85205875D01*
X97480641Y-85205880D01*
X97425494Y-85372302D01*
X97425493Y-85372309D01*
X97415000Y-85475013D01*
X96700000Y-85475013D01*
X96700000Y-85352172D01*
X96699999Y-85352155D01*
X96693598Y-85292627D01*
X96693596Y-85292620D01*
X96643354Y-85157913D01*
X96643350Y-85157906D01*
X96557190Y-85042812D01*
X96557187Y-85042809D01*
X96442093Y-84956649D01*
X96442086Y-84956645D01*
X96307379Y-84906403D01*
X96307372Y-84906401D01*
X96247844Y-84900000D01*
X95950000Y-84900000D01*
X95950000Y-85650000D01*
X95749728Y-85650000D01*
X95650272Y-85650000D01*
X95558386Y-85688060D01*
X95488060Y-85758386D01*
X95450000Y-85850272D01*
X91330000Y-85850272D01*
X91330000Y-85462172D01*
X91329999Y-85462155D01*
X91323598Y-85402627D01*
X91323596Y-85402620D01*
X91304774Y-85352155D01*
X94700000Y-85352155D01*
X94700000Y-85650000D01*
X95450000Y-85650000D01*
X95450000Y-84900000D01*
X95152155Y-84900000D01*
X95092627Y-84906401D01*
X95092620Y-84906403D01*
X94957913Y-84956645D01*
X94957906Y-84956649D01*
X94842812Y-85042809D01*
X94842809Y-85042812D01*
X94756649Y-85157906D01*
X94756645Y-85157913D01*
X94706403Y-85292620D01*
X94706401Y-85292627D01*
X94700000Y-85352155D01*
X91304774Y-85352155D01*
X91273354Y-85267913D01*
X91273350Y-85267906D01*
X91187190Y-85152812D01*
X91187187Y-85152809D01*
X91072093Y-85066649D01*
X91072086Y-85066645D01*
X90937379Y-85016403D01*
X90937372Y-85016401D01*
X90877844Y-85010000D01*
X90230000Y-85010000D01*
X90230000Y-85926988D01*
X90172993Y-85894075D01*
X90045826Y-85860000D01*
X89914174Y-85860000D01*
X89787007Y-85894075D01*
X89730000Y-85926988D01*
X89730000Y-85010000D01*
X89082155Y-85010000D01*
X89022627Y-85016401D01*
X89022620Y-85016403D01*
X88887913Y-85066645D01*
X88887906Y-85066649D01*
X88772812Y-85152809D01*
X88772809Y-85152812D01*
X88686649Y-85267906D01*
X88686645Y-85267913D01*
X88636403Y-85402620D01*
X88636401Y-85402627D01*
X88630000Y-85462155D01*
X88630000Y-86110000D01*
X89546988Y-86110000D01*
X89514075Y-86167007D01*
X89480000Y-86294174D01*
X89480000Y-86425826D01*
X89514075Y-86552993D01*
X89546988Y-86610000D01*
X88630000Y-86610000D01*
X88630000Y-87257844D01*
X88636401Y-87317372D01*
X88636403Y-87317379D01*
X88686645Y-87452086D01*
X88686649Y-87452093D01*
X88723777Y-87501689D01*
X88748195Y-87567153D01*
X88733344Y-87635426D01*
X88683939Y-87684832D01*
X88624511Y-87700000D01*
X88424000Y-87700000D01*
X88356961Y-87680315D01*
X88311206Y-87627511D01*
X88300000Y-87576000D01*
X88300000Y-83024000D01*
X88319685Y-82956961D01*
X88372489Y-82911206D01*
X88424000Y-82900000D01*
X99476000Y-82900000D01*
X99543039Y-82919685D01*
G37*
%TD.AperFunction*%
%TA.AperFunction,Conductor*%
G36*
X95950000Y-88026000D02*
G01*
X95930315Y-88093039D01*
X95877511Y-88138794D01*
X95826000Y-88150000D01*
X95749728Y-88150000D01*
X95841614Y-88111940D01*
X95911940Y-88041614D01*
X95950000Y-87949728D01*
X95950000Y-88026000D01*
G37*
%TD.AperFunction*%
%TD*%
%TA.AperFunction,Conductor*%
%TO.N,Net-(J102-Pin_1)*%
G36*
X111643039Y-82919685D02*
G01*
X111688794Y-82972489D01*
X111700000Y-83024000D01*
X111700000Y-85049427D01*
X111680315Y-85116466D01*
X111627511Y-85162221D01*
X111558353Y-85172165D01*
X111501689Y-85148694D01*
X111392088Y-85066646D01*
X111392086Y-85066645D01*
X111257379Y-85016403D01*
X111257372Y-85016401D01*
X111197844Y-85010000D01*
X110550000Y-85010000D01*
X110550000Y-85926988D01*
X110492993Y-85894075D01*
X110365826Y-85860000D01*
X110234174Y-85860000D01*
X110107007Y-85894075D01*
X110050000Y-85926988D01*
X110050000Y-85010000D01*
X109402155Y-85010000D01*
X109342627Y-85016401D01*
X109342620Y-85016403D01*
X109207913Y-85066645D01*
X109207906Y-85066649D01*
X109092812Y-85152809D01*
X109092809Y-85152812D01*
X109006649Y-85267906D01*
X109006645Y-85267913D01*
X108956403Y-85402620D01*
X108956401Y-85402627D01*
X108950000Y-85462155D01*
X108950000Y-86110000D01*
X109866988Y-86110000D01*
X109834075Y-86167007D01*
X109800000Y-86294174D01*
X109800000Y-86425826D01*
X109834075Y-86552993D01*
X109866988Y-86610000D01*
X108950000Y-86610000D01*
X108950000Y-87257844D01*
X108956401Y-87317372D01*
X108956403Y-87317379D01*
X109006645Y-87452086D01*
X109006649Y-87452093D01*
X109043777Y-87501689D01*
X109068195Y-87567153D01*
X109053344Y-87635426D01*
X109003939Y-87684832D01*
X108944511Y-87700000D01*
X105800000Y-87700000D01*
X105800000Y-88876000D01*
X105780315Y-88943039D01*
X105727511Y-88988794D01*
X105676000Y-89000000D01*
X105205392Y-89000000D01*
X105138353Y-88980315D01*
X105092598Y-88927511D01*
X105082654Y-88858353D01*
X105111679Y-88794797D01*
X105131081Y-88776734D01*
X105157187Y-88757190D01*
X105157190Y-88757187D01*
X105243350Y-88642093D01*
X105243354Y-88642086D01*
X105293596Y-88507379D01*
X105293598Y-88507372D01*
X105299999Y-88447844D01*
X105300000Y-88447827D01*
X105300000Y-88150000D01*
X104349728Y-88150000D01*
X104441614Y-88111940D01*
X104511940Y-88041614D01*
X104550000Y-87949728D01*
X104550000Y-87850272D01*
X104511940Y-87758386D01*
X104441614Y-87688060D01*
X104349728Y-87650000D01*
X104550000Y-87650000D01*
X105300000Y-87650000D01*
X105300000Y-87352172D01*
X105299999Y-87352155D01*
X105293598Y-87292627D01*
X105293596Y-87292620D01*
X105243354Y-87157913D01*
X105243350Y-87157906D01*
X105157190Y-87042813D01*
X105099021Y-86999267D01*
X105057150Y-86943333D01*
X105052166Y-86873641D01*
X105085651Y-86812318D01*
X105099021Y-86800733D01*
X105157190Y-86757186D01*
X105243350Y-86642093D01*
X105243354Y-86642086D01*
X105293596Y-86507379D01*
X105293598Y-86507372D01*
X105299999Y-86447844D01*
X105300000Y-86447827D01*
X105300000Y-86150000D01*
X104550000Y-86150000D01*
X104550000Y-87650000D01*
X104349728Y-87650000D01*
X104250272Y-87650000D01*
X104158386Y-87688060D01*
X104088060Y-87758386D01*
X104050000Y-87850272D01*
X104050000Y-86150000D01*
X103300000Y-86150000D01*
X103300000Y-86447844D01*
X103306401Y-86507372D01*
X103306403Y-86507380D01*
X103353132Y-86632667D01*
X103358116Y-86702359D01*
X103324631Y-86763682D01*
X103263307Y-86797166D01*
X103236950Y-86800000D01*
X102568285Y-86800000D01*
X102501246Y-86780315D01*
X102455491Y-86727511D01*
X102445547Y-86658353D01*
X102462747Y-86610903D01*
X102519353Y-86519130D01*
X102519358Y-86519119D01*
X102574505Y-86352697D01*
X102574506Y-86352690D01*
X102584999Y-86249986D01*
X102585000Y-86249973D01*
X102585000Y-86112500D01*
X101234000Y-86112500D01*
X101166961Y-86092815D01*
X101121206Y-86040011D01*
X101110000Y-85988500D01*
X101110000Y-85850272D01*
X104050000Y-85850272D01*
X104050000Y-85949728D01*
X104088060Y-86041614D01*
X104158386Y-86111940D01*
X104250272Y-86150000D01*
X104349728Y-86150000D01*
X104441614Y-86111940D01*
X104511940Y-86041614D01*
X104550000Y-85949728D01*
X104550000Y-85850272D01*
X104511940Y-85758386D01*
X104441614Y-85688060D01*
X104349728Y-85650000D01*
X104550000Y-85650000D01*
X105300000Y-85650000D01*
X105300000Y-85352172D01*
X105299999Y-85352155D01*
X105293598Y-85292627D01*
X105293596Y-85292620D01*
X105243354Y-85157913D01*
X105243350Y-85157906D01*
X105157190Y-85042812D01*
X105157187Y-85042809D01*
X105042093Y-84956649D01*
X105042086Y-84956645D01*
X104907379Y-84906403D01*
X104907372Y-84906401D01*
X104847844Y-84900000D01*
X104550000Y-84900000D01*
X104550000Y-85650000D01*
X104349728Y-85650000D01*
X104250272Y-85650000D01*
X104158386Y-85688060D01*
X104088060Y-85758386D01*
X104050000Y-85850272D01*
X101110000Y-85850272D01*
X101110000Y-85612500D01*
X101610000Y-85612500D01*
X102584999Y-85612500D01*
X102584999Y-85475028D01*
X102584998Y-85475013D01*
X102574505Y-85372302D01*
X102567829Y-85352155D01*
X103300000Y-85352155D01*
X103300000Y-85650000D01*
X104050000Y-85650000D01*
X104050000Y-84900000D01*
X103752155Y-84900000D01*
X103692627Y-84906401D01*
X103692620Y-84906403D01*
X103557913Y-84956645D01*
X103557906Y-84956649D01*
X103442812Y-85042809D01*
X103442809Y-85042812D01*
X103356649Y-85157906D01*
X103356645Y-85157913D01*
X103306403Y-85292620D01*
X103306401Y-85292627D01*
X103300000Y-85352155D01*
X102567829Y-85352155D01*
X102519358Y-85205880D01*
X102519356Y-85205875D01*
X102427315Y-85056654D01*
X102303345Y-84932684D01*
X102154124Y-84840643D01*
X102154119Y-84840641D01*
X101987697Y-84785494D01*
X101987690Y-84785493D01*
X101884986Y-84775000D01*
X101610000Y-84775000D01*
X101610000Y-85612500D01*
X101110000Y-85612500D01*
X101110000Y-84775000D01*
X100835029Y-84775000D01*
X100835012Y-84775001D01*
X100732302Y-84785494D01*
X100563004Y-84841594D01*
X100493175Y-84843996D01*
X100433134Y-84808264D01*
X100401941Y-84745743D01*
X100400000Y-84723888D01*
X100400000Y-83024000D01*
X100419685Y-82956961D01*
X100472489Y-82911206D01*
X100524000Y-82900000D01*
X111576000Y-82900000D01*
X111643039Y-82919685D01*
G37*
%TD.AperFunction*%
%TA.AperFunction,Conductor*%
G36*
X104088060Y-88041614D02*
G01*
X104158386Y-88111940D01*
X104250272Y-88150000D01*
X104174000Y-88150000D01*
X104106961Y-88130315D01*
X104061206Y-88077511D01*
X104050000Y-88026000D01*
X104050000Y-87949728D01*
X104088060Y-88041614D01*
G37*
%TD.AperFunction*%
%TD*%
%TA.AperFunction,Conductor*%
%TO.N,GND*%
G36*
X100042588Y-85144207D02*
G01*
X100077207Y-85163948D01*
X100118340Y-85197186D01*
X100158112Y-85254631D01*
X100160512Y-85324460D01*
X100158111Y-85332636D01*
X100145001Y-85372199D01*
X100134500Y-85474983D01*
X100134500Y-86250001D01*
X100134501Y-86250019D01*
X100145000Y-86352796D01*
X100145001Y-86352799D01*
X100200185Y-86519331D01*
X100200186Y-86519334D01*
X100292288Y-86668656D01*
X100416344Y-86792712D01*
X100419628Y-86794737D01*
X100419653Y-86794753D01*
X100421445Y-86796746D01*
X100422011Y-86797193D01*
X100421934Y-86797289D01*
X100466379Y-86846699D01*
X100477603Y-86915661D01*
X100449761Y-86979744D01*
X100419665Y-87005826D01*
X100416660Y-87007679D01*
X100416655Y-87007683D01*
X100292684Y-87131654D01*
X100200643Y-87280875D01*
X100200641Y-87280880D01*
X100145494Y-87447302D01*
X100145493Y-87447309D01*
X100135000Y-87550013D01*
X100135000Y-87687500D01*
X102584999Y-87687500D01*
X102584999Y-87550028D01*
X102584998Y-87550010D01*
X102573975Y-87442101D01*
X102586745Y-87373408D01*
X102634626Y-87322524D01*
X102697333Y-87305500D01*
X103175500Y-87305500D01*
X103242539Y-87325185D01*
X103288294Y-87377989D01*
X103299500Y-87429500D01*
X103299500Y-88447870D01*
X103299501Y-88447876D01*
X103305908Y-88507483D01*
X103356202Y-88642328D01*
X103356206Y-88642335D01*
X103442452Y-88757544D01*
X103442455Y-88757547D01*
X103557664Y-88843793D01*
X103557671Y-88843797D01*
X103692517Y-88894091D01*
X103692516Y-88894091D01*
X103699444Y-88894835D01*
X103752127Y-88900500D01*
X104470792Y-88900499D01*
X104537831Y-88920183D01*
X104583586Y-88972987D01*
X104590982Y-88995210D01*
X104590996Y-88995206D01*
X104591109Y-88995592D01*
X104591960Y-88998148D01*
X104592245Y-88999462D01*
X104632778Y-89137501D01*
X104632781Y-89137507D01*
X104710563Y-89258537D01*
X104710571Y-89258548D01*
X104756315Y-89311340D01*
X104756318Y-89311343D01*
X104756322Y-89311347D01*
X104865056Y-89405567D01*
X104865059Y-89405568D01*
X104865060Y-89405569D01*
X104967607Y-89452402D01*
X104995933Y-89465338D01*
X105062972Y-89485023D01*
X105062976Y-89485024D01*
X105205392Y-89505500D01*
X105205395Y-89505500D01*
X105675990Y-89505500D01*
X105676000Y-89505500D01*
X105783456Y-89493947D01*
X105834967Y-89482741D01*
X105869197Y-89471347D01*
X105937497Y-89448616D01*
X105937501Y-89448613D01*
X105937504Y-89448613D01*
X106013770Y-89399598D01*
X106080809Y-89379914D01*
X106147849Y-89399598D01*
X106193604Y-89452402D01*
X106204099Y-89490658D01*
X106205907Y-89507480D01*
X106256202Y-89642328D01*
X106256203Y-89642329D01*
X106256204Y-89642331D01*
X106342451Y-89757542D01*
X106342452Y-89757543D01*
X106342455Y-89757547D01*
X106399810Y-89800482D01*
X106441682Y-89856415D01*
X106449500Y-89899749D01*
X106449500Y-92337770D01*
X106429815Y-92404809D01*
X106413181Y-92425451D01*
X106152181Y-92686451D01*
X106090858Y-92719936D01*
X106021166Y-92714952D01*
X105965233Y-92673080D01*
X105940816Y-92607616D01*
X105940500Y-92598770D01*
X105940500Y-91049993D01*
X105940499Y-91049980D01*
X105929999Y-90947200D01*
X105874815Y-90780664D01*
X105874811Y-90780658D01*
X105874810Y-90780655D01*
X105782714Y-90631346D01*
X105782711Y-90631342D01*
X105736319Y-90584950D01*
X105702834Y-90523627D01*
X105700000Y-90497269D01*
X105700000Y-90200000D01*
X96799011Y-90200000D01*
X96731972Y-90180315D01*
X96686217Y-90127511D01*
X96677394Y-90100192D01*
X96661659Y-90021092D01*
X96661658Y-90021091D01*
X96661658Y-90021087D01*
X96627449Y-89938498D01*
X96605087Y-89884511D01*
X96605080Y-89884498D01*
X96522952Y-89761585D01*
X96518909Y-89757542D01*
X96418416Y-89657049D01*
X96339197Y-89577830D01*
X95874109Y-89112740D01*
X95875977Y-89110871D01*
X95843099Y-89062576D01*
X95841247Y-88992731D01*
X95877449Y-88932972D01*
X95940213Y-88902272D01*
X95961108Y-88900499D01*
X96247871Y-88900499D01*
X96247872Y-88900499D01*
X96307483Y-88894091D01*
X96442331Y-88843796D01*
X96557546Y-88757546D01*
X96643796Y-88642331D01*
X96694091Y-88507483D01*
X96700500Y-88447873D01*
X96700500Y-88324986D01*
X97415001Y-88324986D01*
X97425494Y-88427697D01*
X97480641Y-88594119D01*
X97480643Y-88594124D01*
X97572684Y-88743345D01*
X97696654Y-88867315D01*
X97845875Y-88959356D01*
X97845880Y-88959358D01*
X98012302Y-89014505D01*
X98012309Y-89014506D01*
X98115019Y-89024999D01*
X98389999Y-89024999D01*
X98890000Y-89024999D01*
X99164972Y-89024999D01*
X99164986Y-89024998D01*
X99267697Y-89014505D01*
X99434119Y-88959358D01*
X99434124Y-88959356D01*
X99583345Y-88867315D01*
X99707315Y-88743345D01*
X99799356Y-88594124D01*
X99799358Y-88594119D01*
X99854505Y-88427697D01*
X99854506Y-88427690D01*
X99864999Y-88324986D01*
X100135001Y-88324986D01*
X100145494Y-88427697D01*
X100200641Y-88594119D01*
X100200643Y-88594124D01*
X100292684Y-88743345D01*
X100416654Y-88867315D01*
X100565875Y-88959356D01*
X100565880Y-88959358D01*
X100732302Y-89014505D01*
X100732309Y-89014506D01*
X100835019Y-89024999D01*
X101109999Y-89024999D01*
X101610000Y-89024999D01*
X101884972Y-89024999D01*
X101884986Y-89024998D01*
X101987697Y-89014505D01*
X102154119Y-88959358D01*
X102154124Y-88959356D01*
X102303345Y-88867315D01*
X102427315Y-88743345D01*
X102519356Y-88594124D01*
X102519358Y-88594119D01*
X102574505Y-88427697D01*
X102574506Y-88427690D01*
X102584999Y-88324986D01*
X102585000Y-88324973D01*
X102585000Y-88187500D01*
X101610000Y-88187500D01*
X101610000Y-89024999D01*
X101109999Y-89024999D01*
X101110000Y-89024998D01*
X101110000Y-88187500D01*
X100135001Y-88187500D01*
X100135001Y-88324986D01*
X99864999Y-88324986D01*
X99865000Y-88324973D01*
X99865000Y-88187500D01*
X98890000Y-88187500D01*
X98890000Y-89024999D01*
X98389999Y-89024999D01*
X98390000Y-89024998D01*
X98390000Y-88187500D01*
X97415001Y-88187500D01*
X97415001Y-88324986D01*
X96700500Y-88324986D01*
X96700499Y-87729206D01*
X96720183Y-87662168D01*
X96772987Y-87616413D01*
X96795209Y-87609019D01*
X96795205Y-87609004D01*
X96795635Y-87608877D01*
X96798168Y-87608035D01*
X96799440Y-87607758D01*
X96799455Y-87607756D01*
X96937504Y-87567221D01*
X97002913Y-87525185D01*
X97069953Y-87505500D01*
X97291000Y-87505500D01*
X97358039Y-87525185D01*
X97403794Y-87577989D01*
X97415000Y-87629500D01*
X97415000Y-87687500D01*
X99864999Y-87687500D01*
X99864999Y-87550028D01*
X99864998Y-87550013D01*
X99854505Y-87447302D01*
X99799358Y-87280880D01*
X99799356Y-87280875D01*
X99707315Y-87131654D01*
X99583344Y-87007683D01*
X99583341Y-87007681D01*
X99580339Y-87005829D01*
X99578713Y-87004021D01*
X99577677Y-87003202D01*
X99577817Y-87003024D01*
X99533617Y-86953880D01*
X99522397Y-86884917D01*
X99550243Y-86820836D01*
X99580344Y-86794754D01*
X99583656Y-86792712D01*
X99707712Y-86668656D01*
X99799814Y-86519334D01*
X99854999Y-86352797D01*
X99865500Y-86250009D01*
X99865499Y-85474992D01*
X99854999Y-85372203D01*
X99842299Y-85333876D01*
X99839896Y-85264048D01*
X99875627Y-85204006D01*
X99878751Y-85201202D01*
X99911347Y-85172958D01*
X99911353Y-85172950D01*
X99911578Y-85172727D01*
X99911673Y-85172674D01*
X99914696Y-85170056D01*
X99915265Y-85170712D01*
X99972896Y-85139233D01*
X100042588Y-85144207D01*
G37*
%TD.AperFunction*%
%TA.AperFunction,Conductor*%
G36*
X113384418Y-80040816D02*
G01*
X113584561Y-80055130D01*
X113602063Y-80057647D01*
X113793797Y-80099355D01*
X113810755Y-80104334D01*
X113994609Y-80172909D01*
X114010701Y-80180259D01*
X114182904Y-80274288D01*
X114197784Y-80283849D01*
X114354867Y-80401441D01*
X114368237Y-80413027D01*
X114506972Y-80551762D01*
X114518558Y-80565132D01*
X114636146Y-80722210D01*
X114645711Y-80737095D01*
X114739740Y-80909298D01*
X114747090Y-80925390D01*
X114815662Y-81109236D01*
X114820646Y-81126212D01*
X114862351Y-81317931D01*
X114864869Y-81335442D01*
X114879184Y-81535580D01*
X114879500Y-81544427D01*
X114879500Y-100395572D01*
X114879184Y-100404419D01*
X114864869Y-100604557D01*
X114862351Y-100622068D01*
X114820646Y-100813787D01*
X114815662Y-100830763D01*
X114747090Y-101014609D01*
X114739740Y-101030701D01*
X114645711Y-101202904D01*
X114636146Y-101217789D01*
X114518558Y-101374867D01*
X114506972Y-101388237D01*
X114368237Y-101526972D01*
X114354867Y-101538558D01*
X114197789Y-101656146D01*
X114182904Y-101665711D01*
X114010701Y-101759740D01*
X113994609Y-101767090D01*
X113810763Y-101835662D01*
X113793787Y-101840646D01*
X113602068Y-101882351D01*
X113584557Y-101884869D01*
X113403779Y-101897799D01*
X113384417Y-101899184D01*
X113375572Y-101899500D01*
X86904428Y-101899500D01*
X86895582Y-101899184D01*
X86873622Y-101897613D01*
X86695442Y-101884869D01*
X86677931Y-101882351D01*
X86486212Y-101840646D01*
X86469236Y-101835662D01*
X86285390Y-101767090D01*
X86269298Y-101759740D01*
X86097095Y-101665711D01*
X86082210Y-101656146D01*
X85925132Y-101538558D01*
X85911762Y-101526972D01*
X85773027Y-101388237D01*
X85761441Y-101374867D01*
X85643849Y-101217784D01*
X85634288Y-101202904D01*
X85540259Y-101030701D01*
X85532909Y-101014609D01*
X85472091Y-100851551D01*
X85464334Y-100830755D01*
X85459355Y-100813797D01*
X85417647Y-100622063D01*
X85415130Y-100604556D01*
X85400816Y-100404418D01*
X85400500Y-100395572D01*
X85400500Y-99047844D01*
X92100000Y-99047844D01*
X92106401Y-99107372D01*
X92106403Y-99107379D01*
X92156645Y-99242086D01*
X92156649Y-99242093D01*
X92242809Y-99357187D01*
X92242812Y-99357190D01*
X92357906Y-99443350D01*
X92357913Y-99443354D01*
X92492620Y-99493596D01*
X92492627Y-99493598D01*
X92552155Y-99499999D01*
X92552172Y-99500000D01*
X92850000Y-99500000D01*
X93350000Y-99500000D01*
X93647828Y-99500000D01*
X93647844Y-99499999D01*
X93707372Y-99493598D01*
X93707379Y-99493596D01*
X93842086Y-99443354D01*
X93842093Y-99443350D01*
X93957187Y-99357190D01*
X93957190Y-99357187D01*
X94043350Y-99242093D01*
X94043354Y-99242086D01*
X94093596Y-99107379D01*
X94093598Y-99107372D01*
X94099999Y-99047844D01*
X106200000Y-99047844D01*
X106206401Y-99107372D01*
X106206403Y-99107379D01*
X106256645Y-99242086D01*
X106256649Y-99242093D01*
X106342809Y-99357187D01*
X106342812Y-99357190D01*
X106457906Y-99443350D01*
X106457913Y-99443354D01*
X106592620Y-99493596D01*
X106592627Y-99493598D01*
X106652155Y-99499999D01*
X106652172Y-99500000D01*
X106950000Y-99500000D01*
X107450000Y-99500000D01*
X107747828Y-99500000D01*
X107747844Y-99499999D01*
X107807372Y-99493598D01*
X107807379Y-99493596D01*
X107942086Y-99443354D01*
X107942093Y-99443350D01*
X108057187Y-99357190D01*
X108057190Y-99357187D01*
X108143350Y-99242093D01*
X108143354Y-99242086D01*
X108193596Y-99107379D01*
X108193598Y-99107372D01*
X108199999Y-99047844D01*
X108200000Y-99047827D01*
X108200000Y-98750000D01*
X107450000Y-98750000D01*
X107450000Y-99500000D01*
X106950000Y-99500000D01*
X106950000Y-98750000D01*
X106200000Y-98750000D01*
X106200000Y-99047844D01*
X94099999Y-99047844D01*
X94100000Y-99047827D01*
X94100000Y-98750000D01*
X93350000Y-98750000D01*
X93350000Y-99500000D01*
X92850000Y-99500000D01*
X92850000Y-98750000D01*
X92100000Y-98750000D01*
X92100000Y-99047844D01*
X85400500Y-99047844D01*
X85400500Y-98450272D01*
X92850000Y-98450272D01*
X92850000Y-98549728D01*
X92888060Y-98641614D01*
X92958386Y-98711940D01*
X93050272Y-98750000D01*
X93149728Y-98750000D01*
X93241614Y-98711940D01*
X93311940Y-98641614D01*
X93350000Y-98549728D01*
X93350000Y-98450272D01*
X106950000Y-98450272D01*
X106950000Y-98549728D01*
X106988060Y-98641614D01*
X107058386Y-98711940D01*
X107150272Y-98750000D01*
X107249728Y-98750000D01*
X107341614Y-98711940D01*
X107411940Y-98641614D01*
X107450000Y-98549728D01*
X107450000Y-98450272D01*
X107411940Y-98358386D01*
X107341614Y-98288060D01*
X107249728Y-98250000D01*
X107450000Y-98250000D01*
X108200000Y-98250000D01*
X108200000Y-97952172D01*
X108199999Y-97952155D01*
X108193598Y-97892627D01*
X108193596Y-97892620D01*
X108143354Y-97757913D01*
X108143350Y-97757906D01*
X108057190Y-97642812D01*
X108057187Y-97642809D01*
X107942093Y-97556649D01*
X107942086Y-97556645D01*
X107807379Y-97506403D01*
X107807372Y-97506401D01*
X107747844Y-97500000D01*
X107450000Y-97500000D01*
X107450000Y-98250000D01*
X107249728Y-98250000D01*
X107150272Y-98250000D01*
X107058386Y-98288060D01*
X106988060Y-98358386D01*
X106950000Y-98450272D01*
X93350000Y-98450272D01*
X93311940Y-98358386D01*
X93241614Y-98288060D01*
X93149728Y-98250000D01*
X93350000Y-98250000D01*
X94100000Y-98250000D01*
X94100000Y-97952172D01*
X94099999Y-97952155D01*
X106200000Y-97952155D01*
X106200000Y-98250000D01*
X106950000Y-98250000D01*
X106950000Y-97500000D01*
X106652155Y-97500000D01*
X106592627Y-97506401D01*
X106592620Y-97506403D01*
X106457913Y-97556645D01*
X106457906Y-97556649D01*
X106342812Y-97642809D01*
X106342809Y-97642812D01*
X106256649Y-97757906D01*
X106256645Y-97757913D01*
X106206403Y-97892620D01*
X106206401Y-97892627D01*
X106200000Y-97952155D01*
X94099999Y-97952155D01*
X94093598Y-97892627D01*
X94093596Y-97892620D01*
X94043354Y-97757913D01*
X94043350Y-97757906D01*
X93957190Y-97642812D01*
X93957187Y-97642809D01*
X93842093Y-97556649D01*
X93842086Y-97556645D01*
X93707379Y-97506403D01*
X93707372Y-97506401D01*
X93647844Y-97500000D01*
X93350000Y-97500000D01*
X93350000Y-98250000D01*
X93149728Y-98250000D01*
X93050272Y-98250000D01*
X92958386Y-98288060D01*
X92888060Y-98358386D01*
X92850000Y-98450272D01*
X85400500Y-98450272D01*
X85400500Y-97952155D01*
X92100000Y-97952155D01*
X92100000Y-98250000D01*
X92850000Y-98250000D01*
X92850000Y-97500000D01*
X92552155Y-97500000D01*
X92492627Y-97506401D01*
X92492620Y-97506403D01*
X92357913Y-97556645D01*
X92357906Y-97556649D01*
X92242812Y-97642809D01*
X92242809Y-97642812D01*
X92156649Y-97757906D01*
X92156645Y-97757913D01*
X92106403Y-97892620D01*
X92106401Y-97892627D01*
X92100000Y-97952155D01*
X85400500Y-97952155D01*
X85400500Y-83024000D01*
X87794500Y-83024000D01*
X87794500Y-85604500D01*
X87794500Y-87576000D01*
X87794501Y-87576009D01*
X87806052Y-87683450D01*
X87806054Y-87683462D01*
X87817260Y-87734972D01*
X87851383Y-87837497D01*
X87851386Y-87837503D01*
X87929171Y-87958537D01*
X87929179Y-87958548D01*
X87974923Y-88011340D01*
X87974926Y-88011343D01*
X87974930Y-88011347D01*
X88083664Y-88105567D01*
X88214541Y-88165338D01*
X88281580Y-88185023D01*
X88281584Y-88185024D01*
X88424000Y-88205500D01*
X88424003Y-88205500D01*
X88619097Y-88205500D01*
X88686136Y-88225185D01*
X88731891Y-88277989D01*
X88741835Y-88347147D01*
X88731479Y-88381904D01*
X88706099Y-88436330D01*
X88706094Y-88436344D01*
X88644938Y-88664586D01*
X88644936Y-88664596D01*
X88624341Y-88899999D01*
X88624341Y-88900000D01*
X88644936Y-89135403D01*
X88644938Y-89135413D01*
X88706094Y-89363655D01*
X88706096Y-89363659D01*
X88706097Y-89363663D01*
X88772237Y-89505500D01*
X88805965Y-89577830D01*
X88805967Y-89577834D01*
X88941501Y-89771395D01*
X88941506Y-89771402D01*
X89108597Y-89938493D01*
X89108603Y-89938498D01*
X89294158Y-90068425D01*
X89337783Y-90123002D01*
X89344977Y-90192500D01*
X89313454Y-90254855D01*
X89294158Y-90271575D01*
X89108597Y-90401505D01*
X88941505Y-90568597D01*
X88805965Y-90762169D01*
X88805964Y-90762171D01*
X88706098Y-90976335D01*
X88706094Y-90976344D01*
X88644938Y-91204586D01*
X88644936Y-91204596D01*
X88624341Y-91439999D01*
X88624341Y-91440000D01*
X88644936Y-91675403D01*
X88644938Y-91675413D01*
X88706094Y-91903655D01*
X88706096Y-91903659D01*
X88706097Y-91903663D01*
X88738336Y-91972799D01*
X88805965Y-92117830D01*
X88805967Y-92117834D01*
X88891642Y-92240189D01*
X88941505Y-92311401D01*
X89108599Y-92478495D01*
X89280369Y-92598770D01*
X89294594Y-92608730D01*
X89338219Y-92663307D01*
X89345413Y-92732805D01*
X89313890Y-92795160D01*
X89294595Y-92811880D01*
X89108922Y-92941890D01*
X89108920Y-92941891D01*
X88941891Y-93108920D01*
X88941886Y-93108926D01*
X88806400Y-93302420D01*
X88806399Y-93302422D01*
X88706570Y-93516507D01*
X88706567Y-93516513D01*
X88649364Y-93729999D01*
X88649364Y-93730000D01*
X89546988Y-93730000D01*
X89514075Y-93787007D01*
X89480000Y-93914174D01*
X89480000Y-94045826D01*
X89514075Y-94172993D01*
X89546988Y-94230000D01*
X88649364Y-94230000D01*
X88706567Y-94443486D01*
X88706570Y-94443492D01*
X88806399Y-94657578D01*
X88941894Y-94851082D01*
X89108917Y-95018105D01*
X89302421Y-95153600D01*
X89516507Y-95253429D01*
X89516516Y-95253433D01*
X89730000Y-95310634D01*
X89730000Y-94413012D01*
X89787007Y-94445925D01*
X89914174Y-94480000D01*
X90045826Y-94480000D01*
X90172993Y-94445925D01*
X90230000Y-94413012D01*
X90230000Y-95310633D01*
X90443483Y-95253433D01*
X90443492Y-95253429D01*
X90657578Y-95153600D01*
X90851082Y-95018105D01*
X91018105Y-94851082D01*
X91153600Y-94657578D01*
X91253429Y-94443492D01*
X91253432Y-94443486D01*
X91310636Y-94230000D01*
X90413012Y-94230000D01*
X90445925Y-94172993D01*
X90480000Y-94045826D01*
X90480000Y-93914174D01*
X90445925Y-93787007D01*
X90413012Y-93730000D01*
X91310636Y-93730000D01*
X91310635Y-93729999D01*
X91253432Y-93516513D01*
X91253429Y-93516507D01*
X91153600Y-93302422D01*
X91153599Y-93302420D01*
X91018113Y-93108926D01*
X91018108Y-93108920D01*
X90851078Y-92941890D01*
X90665405Y-92811879D01*
X90621780Y-92757302D01*
X90614588Y-92687804D01*
X90646110Y-92625449D01*
X90665406Y-92608730D01*
X90666997Y-92607616D01*
X90851401Y-92478495D01*
X91018495Y-92311401D01*
X91066127Y-92243376D01*
X91120704Y-92199751D01*
X91167701Y-92190500D01*
X92092764Y-92190500D01*
X92159803Y-92210185D01*
X92192029Y-92240187D01*
X92228313Y-92288656D01*
X92242452Y-92307543D01*
X92242455Y-92307547D01*
X92247605Y-92311402D01*
X92282828Y-92337770D01*
X92299810Y-92350482D01*
X92341682Y-92406415D01*
X92349500Y-92449749D01*
X92349500Y-95073918D01*
X92349500Y-95073920D01*
X92349499Y-95073920D01*
X92378340Y-95218907D01*
X92378343Y-95218917D01*
X92434913Y-95355490D01*
X92434914Y-95355491D01*
X92434916Y-95355495D01*
X92441210Y-95364914D01*
X92441211Y-95364917D01*
X92517046Y-95478414D01*
X92517052Y-95478421D01*
X93651584Y-96612952D01*
X93651586Y-96612954D01*
X93681058Y-96632645D01*
X93725270Y-96662186D01*
X93774505Y-96695084D01*
X93774506Y-96695084D01*
X93774507Y-96695085D01*
X93774509Y-96695086D01*
X93911082Y-96751656D01*
X93911087Y-96751658D01*
X93911091Y-96751658D01*
X93911092Y-96751659D01*
X94056079Y-96780500D01*
X94056082Y-96780500D01*
X94056083Y-96780500D01*
X94203917Y-96780500D01*
X94386042Y-96780500D01*
X94453081Y-96800185D01*
X94491580Y-96839402D01*
X94497287Y-96848655D01*
X94563681Y-96915049D01*
X94597166Y-96976372D01*
X94600000Y-97002730D01*
X94600000Y-97200000D01*
X105700000Y-97200000D01*
X105700000Y-97002731D01*
X105719685Y-96935692D01*
X105736319Y-96915050D01*
X105736320Y-96915049D01*
X105782712Y-96868657D01*
X105874815Y-96719336D01*
X105929999Y-96552800D01*
X105940500Y-96450012D01*
X105940500Y-94624500D01*
X105960185Y-94557461D01*
X106012989Y-94511706D01*
X106064500Y-94500500D01*
X106223920Y-94500500D01*
X106326976Y-94480000D01*
X106368913Y-94471658D01*
X106505495Y-94415084D01*
X106554729Y-94382186D01*
X106628416Y-94332952D01*
X107782951Y-93178416D01*
X107865084Y-93055495D01*
X107921658Y-92918913D01*
X107942949Y-92811879D01*
X107950500Y-92773920D01*
X107950500Y-89899749D01*
X107970185Y-89832710D01*
X108000190Y-89800482D01*
X108057546Y-89757546D01*
X108098098Y-89703376D01*
X108100485Y-89700188D01*
X108156419Y-89658318D01*
X108199751Y-89650500D01*
X109112299Y-89650500D01*
X109179338Y-89670185D01*
X109213873Y-89703376D01*
X109261505Y-89771401D01*
X109428597Y-89938493D01*
X109428603Y-89938498D01*
X109614158Y-90068425D01*
X109657783Y-90123002D01*
X109664977Y-90192500D01*
X109633454Y-90254855D01*
X109614158Y-90271575D01*
X109428597Y-90401505D01*
X109261505Y-90568597D01*
X109125965Y-90762169D01*
X109125964Y-90762171D01*
X109026098Y-90976335D01*
X109026094Y-90976344D01*
X108964938Y-91204586D01*
X108964936Y-91204596D01*
X108944341Y-91439999D01*
X108944341Y-91440000D01*
X108964936Y-91675403D01*
X108964938Y-91675413D01*
X109026094Y-91903655D01*
X109026096Y-91903659D01*
X109026097Y-91903663D01*
X109058336Y-91972799D01*
X109125965Y-92117830D01*
X109125967Y-92117834D01*
X109211642Y-92240189D01*
X109261505Y-92311401D01*
X109428599Y-92478495D01*
X109600369Y-92598770D01*
X109614594Y-92608730D01*
X109658219Y-92663307D01*
X109665413Y-92732805D01*
X109633890Y-92795160D01*
X109614595Y-92811880D01*
X109428922Y-92941890D01*
X109428920Y-92941891D01*
X109261891Y-93108920D01*
X109261886Y-93108926D01*
X109126400Y-93302420D01*
X109126399Y-93302422D01*
X109026570Y-93516507D01*
X109026567Y-93516513D01*
X108969364Y-93729999D01*
X108969364Y-93730000D01*
X109866988Y-93730000D01*
X109834075Y-93787007D01*
X109800000Y-93914174D01*
X109800000Y-94045826D01*
X109834075Y-94172993D01*
X109866988Y-94230000D01*
X108969364Y-94230000D01*
X109026567Y-94443486D01*
X109026570Y-94443492D01*
X109126399Y-94657578D01*
X109261894Y-94851082D01*
X109428917Y-95018105D01*
X109622421Y-95153600D01*
X109836507Y-95253429D01*
X109836516Y-95253433D01*
X110050000Y-95310634D01*
X110050000Y-94413012D01*
X110107007Y-94445925D01*
X110234174Y-94480000D01*
X110365826Y-94480000D01*
X110492993Y-94445925D01*
X110550000Y-94413012D01*
X110550000Y-95310633D01*
X110763483Y-95253433D01*
X110763492Y-95253429D01*
X110977578Y-95153600D01*
X111171082Y-95018105D01*
X111338105Y-94851082D01*
X111473600Y-94657578D01*
X111573429Y-94443492D01*
X111573432Y-94443486D01*
X111630636Y-94230000D01*
X110733012Y-94230000D01*
X110765925Y-94172993D01*
X110800000Y-94045826D01*
X110800000Y-93914174D01*
X110765925Y-93787007D01*
X110733012Y-93730000D01*
X111630636Y-93730000D01*
X111630635Y-93729999D01*
X111573432Y-93516513D01*
X111573429Y-93516507D01*
X111473600Y-93302422D01*
X111473599Y-93302420D01*
X111338113Y-93108926D01*
X111338108Y-93108920D01*
X111171078Y-92941890D01*
X110985405Y-92811879D01*
X110941780Y-92757302D01*
X110934588Y-92687804D01*
X110966110Y-92625449D01*
X110985406Y-92608730D01*
X110986997Y-92607616D01*
X111171401Y-92478495D01*
X111338495Y-92311401D01*
X111474035Y-92117830D01*
X111573903Y-91903663D01*
X111635063Y-91675408D01*
X111655659Y-91440000D01*
X111635063Y-91204592D01*
X111588626Y-91031285D01*
X111573905Y-90976344D01*
X111573904Y-90976343D01*
X111573903Y-90976337D01*
X111474035Y-90762171D01*
X111435873Y-90707669D01*
X111338494Y-90568597D01*
X111171402Y-90401506D01*
X111171396Y-90401501D01*
X110985842Y-90271575D01*
X110942217Y-90216998D01*
X110935023Y-90147500D01*
X110966546Y-90085145D01*
X110985842Y-90068425D01*
X111053440Y-90021092D01*
X111171401Y-89938495D01*
X111338495Y-89771401D01*
X111474035Y-89577830D01*
X111573903Y-89363663D01*
X111635063Y-89135408D01*
X111655659Y-88900000D01*
X111635063Y-88664592D01*
X111573903Y-88436337D01*
X111474035Y-88222171D01*
X111462361Y-88205499D01*
X111338496Y-88028600D01*
X111321236Y-88011340D01*
X111216567Y-87906671D01*
X111183084Y-87845351D01*
X111188068Y-87775659D01*
X111229939Y-87719725D01*
X111260915Y-87702810D01*
X111392331Y-87653796D01*
X111507546Y-87567546D01*
X111593796Y-87452331D01*
X111644091Y-87317483D01*
X111650500Y-87257873D01*
X111650499Y-85769774D01*
X111670184Y-85702736D01*
X111722987Y-85656981D01*
X111739564Y-85650798D01*
X111750472Y-85647594D01*
X111837504Y-85622040D01*
X111958543Y-85544252D01*
X112011347Y-85498497D01*
X112105567Y-85389763D01*
X112165338Y-85258886D01*
X112185023Y-85191847D01*
X112185024Y-85191843D01*
X112205500Y-85049427D01*
X112205500Y-83024000D01*
X112193947Y-82916544D01*
X112182741Y-82865033D01*
X112182637Y-82864722D01*
X112148616Y-82762502D01*
X112148613Y-82762496D01*
X112070828Y-82641462D01*
X112070825Y-82641457D01*
X112070820Y-82641451D01*
X112025076Y-82588659D01*
X112025072Y-82588656D01*
X112025070Y-82588653D01*
X111916336Y-82494433D01*
X111916333Y-82494431D01*
X111916331Y-82494430D01*
X111785465Y-82434664D01*
X111785460Y-82434662D01*
X111785459Y-82434662D01*
X111718420Y-82414977D01*
X111718422Y-82414977D01*
X111718417Y-82414976D01*
X111656347Y-82406052D01*
X111576000Y-82394500D01*
X100524000Y-82394500D01*
X100523991Y-82394500D01*
X100523990Y-82394501D01*
X100416549Y-82406052D01*
X100416537Y-82406054D01*
X100365030Y-82417259D01*
X100302254Y-82438154D01*
X100263094Y-82444500D01*
X100149997Y-82444500D01*
X100078061Y-82449644D01*
X100078056Y-82449645D01*
X100040735Y-82460603D01*
X99988158Y-82464363D01*
X99850001Y-82444500D01*
X99850000Y-82444500D01*
X99733976Y-82444500D01*
X99690085Y-82434947D01*
X99689614Y-82436211D01*
X99685473Y-82434666D01*
X99618417Y-82414976D01*
X99556347Y-82406052D01*
X99476000Y-82394500D01*
X88424000Y-82394500D01*
X88423991Y-82394500D01*
X88423990Y-82394501D01*
X88316549Y-82406052D01*
X88316537Y-82406054D01*
X88265027Y-82417260D01*
X88162502Y-82451383D01*
X88162496Y-82451386D01*
X88041462Y-82529171D01*
X88041451Y-82529179D01*
X87988659Y-82574923D01*
X87894433Y-82683664D01*
X87894430Y-82683668D01*
X87834664Y-82814534D01*
X87814976Y-82881582D01*
X87809949Y-82916549D01*
X87794500Y-83024000D01*
X85400500Y-83024000D01*
X85400500Y-81544427D01*
X85400816Y-81535581D01*
X85415130Y-81335443D01*
X85415131Y-81335442D01*
X85415130Y-81335436D01*
X85417646Y-81317938D01*
X85459356Y-81126199D01*
X85464333Y-81109248D01*
X85532911Y-80925385D01*
X85540259Y-80909298D01*
X85602815Y-80794734D01*
X85634291Y-80737089D01*
X85643845Y-80722221D01*
X85761448Y-80565123D01*
X85773020Y-80551769D01*
X85911769Y-80413020D01*
X85925123Y-80401448D01*
X86082221Y-80283845D01*
X86097089Y-80274291D01*
X86269298Y-80180258D01*
X86285385Y-80172911D01*
X86469248Y-80104333D01*
X86486199Y-80099356D01*
X86677938Y-80057646D01*
X86695436Y-80055130D01*
X86895582Y-80040816D01*
X86904428Y-80040500D01*
X86965892Y-80040500D01*
X113314108Y-80040500D01*
X113375572Y-80040500D01*
X113384418Y-80040816D01*
G37*
%TD.AperFunction*%
%TD*%
D22*
X102000000Y-101000000D03*
X96000000Y-101000000D03*
X94000000Y-81000000D03*
X96000000Y-81000000D03*
X114000000Y-85000000D03*
X110000000Y-101000000D03*
X102000000Y-81000000D03*
X114000000Y-89000000D03*
X86000000Y-83000000D03*
X98000000Y-81000000D03*
X86000000Y-81000000D03*
X106000000Y-90000000D03*
X114000000Y-93000000D03*
X86000000Y-97000000D03*
X114000000Y-99000000D03*
X112000000Y-101000000D03*
X86000000Y-87000000D03*
X88000000Y-81000000D03*
X96700000Y-89200000D03*
X110000000Y-81000000D03*
X108000000Y-81000000D03*
X114000000Y-97000000D03*
X114000000Y-91000000D03*
X86000000Y-95000000D03*
X114000000Y-87000000D03*
X104000000Y-101000000D03*
X88000000Y-101000000D03*
X86000000Y-89000000D03*
X106000000Y-101000000D03*
X104000000Y-81000000D03*
X102900000Y-87900000D03*
X86000000Y-99000000D03*
X98000000Y-101000000D03*
X90000000Y-81000000D03*
X92000000Y-81000000D03*
X92000000Y-101000000D03*
X90000000Y-101000000D03*
X86000000Y-91000000D03*
X97100000Y-88000000D03*
X106200000Y-92200000D03*
X114000000Y-81000000D03*
X86000000Y-85000000D03*
X108000000Y-101000000D03*
X112000000Y-81000000D03*
X94000000Y-101000000D03*
X114000000Y-83000000D03*
X100000000Y-101000000D03*
X114000000Y-101000000D03*
X100000000Y-81000000D03*
X106000000Y-81000000D03*
X114000000Y-95000000D03*
X86000000Y-93000000D03*
X86000000Y-101000000D03*
D23*
X93100000Y-88900000D03*
X95700000Y-87900000D03*
X104300000Y-87900000D03*
X104300000Y-85900000D03*
X107200000Y-88900000D03*
X93100000Y-98500000D03*
X93100000Y-91450000D03*
X107200000Y-98500000D03*
X95700000Y-85900000D03*
X110300000Y-86360000D03*
X110300000Y-88900000D03*
X110300000Y-91440000D03*
X110300000Y-93980000D03*
X89980000Y-86360000D03*
X89980000Y-88900000D03*
X89980000Y-91440000D03*
X89980000Y-93980000D03*
M02*
