%TF.GenerationSoftware,KiCad,Pcbnew,8.0.3*%
%TF.CreationDate,2024-09-03T06:20:47+12:00*%
%TF.ProjectId,to-252-2,746f2d32-3532-42d3-922e-6b696361645f,rev?*%
%TF.SameCoordinates,Original*%
%TF.FileFunction,Legend,Bot*%
%TF.FilePolarity,Positive*%
%FSLAX46Y46*%
G04 Gerber Fmt 4.6, Leading zero omitted, Abs format (unit mm)*
G04 Created by KiCad (PCBNEW 8.0.3) date 2024-09-03 06:20:47*
%MOMM*%
%LPD*%
G01*
G04 APERTURE LIST*
%ADD10C,0.150000*%
%ADD11C,0.500000*%
%ADD12C,0.120000*%
%ADD13C,0.400000*%
%ADD14C,0.100000*%
%ADD15C,0.350000*%
G04 APERTURE END LIST*
D10*
X111585714Y-83484819D02*
X111585714Y-84199104D01*
X111585714Y-84199104D02*
X111633333Y-84341961D01*
X111633333Y-84341961D02*
X111728571Y-84437200D01*
X111728571Y-84437200D02*
X111871428Y-84484819D01*
X111871428Y-84484819D02*
X111966666Y-84484819D01*
X110585714Y-84484819D02*
X111157142Y-84484819D01*
X110871428Y-84484819D02*
X110871428Y-83484819D01*
X110871428Y-83484819D02*
X110966666Y-83627676D01*
X110966666Y-83627676D02*
X111061904Y-83722914D01*
X111061904Y-83722914D02*
X111157142Y-83770533D01*
X109966666Y-83484819D02*
X109871428Y-83484819D01*
X109871428Y-83484819D02*
X109776190Y-83532438D01*
X109776190Y-83532438D02*
X109728571Y-83580057D01*
X109728571Y-83580057D02*
X109680952Y-83675295D01*
X109680952Y-83675295D02*
X109633333Y-83865771D01*
X109633333Y-83865771D02*
X109633333Y-84103866D01*
X109633333Y-84103866D02*
X109680952Y-84294342D01*
X109680952Y-84294342D02*
X109728571Y-84389580D01*
X109728571Y-84389580D02*
X109776190Y-84437200D01*
X109776190Y-84437200D02*
X109871428Y-84484819D01*
X109871428Y-84484819D02*
X109966666Y-84484819D01*
X109966666Y-84484819D02*
X110061904Y-84437200D01*
X110061904Y-84437200D02*
X110109523Y-84389580D01*
X110109523Y-84389580D02*
X110157142Y-84294342D01*
X110157142Y-84294342D02*
X110204761Y-84103866D01*
X110204761Y-84103866D02*
X110204761Y-83865771D01*
X110204761Y-83865771D02*
X110157142Y-83675295D01*
X110157142Y-83675295D02*
X110109523Y-83580057D01*
X110109523Y-83580057D02*
X110061904Y-83532438D01*
X110061904Y-83532438D02*
X109966666Y-83484819D01*
X109252380Y-83580057D02*
X109204761Y-83532438D01*
X109204761Y-83532438D02*
X109109523Y-83484819D01*
X109109523Y-83484819D02*
X108871428Y-83484819D01*
X108871428Y-83484819D02*
X108776190Y-83532438D01*
X108776190Y-83532438D02*
X108728571Y-83580057D01*
X108728571Y-83580057D02*
X108680952Y-83675295D01*
X108680952Y-83675295D02*
X108680952Y-83770533D01*
X108680952Y-83770533D02*
X108728571Y-83913390D01*
X108728571Y-83913390D02*
X109299999Y-84484819D01*
X109299999Y-84484819D02*
X108680952Y-84484819D01*
D11*
X102231749Y-83628066D02*
X102898416Y-83628066D01*
X102898416Y-84675685D02*
X102898416Y-82675685D01*
X102898416Y-82675685D02*
X101946035Y-82675685D01*
X98098416Y-84675685D02*
X98098416Y-82675685D01*
X98098416Y-82675685D02*
X97622226Y-82675685D01*
X97622226Y-82675685D02*
X97336511Y-82770923D01*
X97336511Y-82770923D02*
X97146035Y-82961399D01*
X97146035Y-82961399D02*
X97050797Y-83151875D01*
X97050797Y-83151875D02*
X96955559Y-83532827D01*
X96955559Y-83532827D02*
X96955559Y-83818542D01*
X96955559Y-83818542D02*
X97050797Y-84199494D01*
X97050797Y-84199494D02*
X97146035Y-84389970D01*
X97146035Y-84389970D02*
X97336511Y-84580447D01*
X97336511Y-84580447D02*
X97622226Y-84675685D01*
X97622226Y-84675685D02*
X98098416Y-84675685D01*
D10*
X91265714Y-83484819D02*
X91265714Y-84199104D01*
X91265714Y-84199104D02*
X91313333Y-84341961D01*
X91313333Y-84341961D02*
X91408571Y-84437200D01*
X91408571Y-84437200D02*
X91551428Y-84484819D01*
X91551428Y-84484819D02*
X91646666Y-84484819D01*
X90265714Y-84484819D02*
X90837142Y-84484819D01*
X90551428Y-84484819D02*
X90551428Y-83484819D01*
X90551428Y-83484819D02*
X90646666Y-83627676D01*
X90646666Y-83627676D02*
X90741904Y-83722914D01*
X90741904Y-83722914D02*
X90837142Y-83770533D01*
X89646666Y-83484819D02*
X89551428Y-83484819D01*
X89551428Y-83484819D02*
X89456190Y-83532438D01*
X89456190Y-83532438D02*
X89408571Y-83580057D01*
X89408571Y-83580057D02*
X89360952Y-83675295D01*
X89360952Y-83675295D02*
X89313333Y-83865771D01*
X89313333Y-83865771D02*
X89313333Y-84103866D01*
X89313333Y-84103866D02*
X89360952Y-84294342D01*
X89360952Y-84294342D02*
X89408571Y-84389580D01*
X89408571Y-84389580D02*
X89456190Y-84437200D01*
X89456190Y-84437200D02*
X89551428Y-84484819D01*
X89551428Y-84484819D02*
X89646666Y-84484819D01*
X89646666Y-84484819D02*
X89741904Y-84437200D01*
X89741904Y-84437200D02*
X89789523Y-84389580D01*
X89789523Y-84389580D02*
X89837142Y-84294342D01*
X89837142Y-84294342D02*
X89884761Y-84103866D01*
X89884761Y-84103866D02*
X89884761Y-83865771D01*
X89884761Y-83865771D02*
X89837142Y-83675295D01*
X89837142Y-83675295D02*
X89789523Y-83580057D01*
X89789523Y-83580057D02*
X89741904Y-83532438D01*
X89741904Y-83532438D02*
X89646666Y-83484819D01*
X88360952Y-84484819D02*
X88932380Y-84484819D01*
X88646666Y-84484819D02*
X88646666Y-83484819D01*
X88646666Y-83484819D02*
X88741904Y-83627676D01*
X88741904Y-83627676D02*
X88837142Y-83722914D01*
X88837142Y-83722914D02*
X88932380Y-83770533D01*
D12*
%TO.C,J102*%
X108970000Y-87630000D02*
X111630000Y-87630000D01*
X108970000Y-95310000D02*
X108970000Y-87630000D01*
X108970000Y-95310000D02*
X111630000Y-95310000D01*
X110300000Y-85030000D02*
X111630000Y-85030000D01*
X111630000Y-85030000D02*
X111630000Y-86360000D01*
X111630000Y-95310000D02*
X111630000Y-87630000D01*
D13*
%TO.C,G\u002A\u002A\u002A*%
X97489340Y-80832233D02*
X98903554Y-82246447D01*
X97589340Y-86360661D02*
X99003554Y-84946447D01*
X102810661Y-80839340D02*
X101396447Y-82253554D01*
X102910661Y-86367768D02*
X101496447Y-84953554D01*
D14*
X98877258Y-83067241D02*
X99052347Y-83067241D01*
X99052347Y-82892042D01*
X98877258Y-82892042D01*
X98877258Y-83067241D01*
G36*
X98877258Y-83067241D02*
G01*
X99052347Y-83067241D01*
X99052347Y-82892042D01*
X98877258Y-82892042D01*
X98877258Y-83067241D01*
G37*
X98877258Y-83490240D02*
X99052347Y-83490240D01*
X99052347Y-83315041D01*
X98877258Y-83315041D01*
X98877258Y-83490240D01*
G36*
X98877258Y-83490240D02*
G01*
X99052347Y-83490240D01*
X99052347Y-83315041D01*
X98877258Y-83315041D01*
X98877258Y-83490240D01*
G37*
X98877258Y-83901026D02*
X99052347Y-83901026D01*
X99052347Y-83725827D01*
X98877258Y-83725827D01*
X98877258Y-83901026D01*
G36*
X98877258Y-83901026D02*
G01*
X99052347Y-83901026D01*
X99052347Y-83725827D01*
X98877258Y-83725827D01*
X98877258Y-83901026D01*
G37*
X98877258Y-84284379D02*
X99052347Y-84284379D01*
X99052347Y-84109180D01*
X98877258Y-84109180D01*
X98877258Y-84284379D01*
G36*
X98877258Y-84284379D02*
G01*
X99052347Y-84284379D01*
X99052347Y-84109180D01*
X98877258Y-84109180D01*
X98877258Y-84284379D01*
G37*
X99254975Y-84529393D02*
X101092701Y-84529393D01*
X101092701Y-82658850D01*
X99254975Y-82658850D01*
X99254975Y-84529393D01*
X99303554Y-83174749D02*
X100491998Y-83174749D01*
X100491998Y-82746447D01*
X99303554Y-82746447D01*
X99303554Y-83174749D01*
G36*
X99303554Y-83174749D02*
G01*
X100491998Y-83174749D01*
X100491998Y-82746447D01*
X99303554Y-82746447D01*
X99303554Y-83174749D01*
G37*
X99303554Y-84446447D02*
X101003554Y-84446447D01*
X101003554Y-83246447D01*
X99303554Y-83246447D01*
X99303554Y-84446447D01*
G36*
X99303554Y-84446447D02*
G01*
X101003554Y-84446447D01*
X101003554Y-83246447D01*
X99303554Y-83246447D01*
X99303554Y-84446447D01*
G37*
X99470984Y-82480515D02*
X99646183Y-82480515D01*
X99646183Y-82305426D01*
X99470984Y-82305426D01*
X99470984Y-82480515D01*
G36*
X99470984Y-82480515D02*
G01*
X99646183Y-82480515D01*
X99646183Y-82305426D01*
X99470984Y-82305426D01*
X99470984Y-82480515D01*
G37*
X99470984Y-84933991D02*
X99646183Y-84933991D01*
X99646183Y-84758902D01*
X99470984Y-84758902D01*
X99470984Y-84933991D01*
G36*
X99470984Y-84933991D02*
G01*
X99646183Y-84933991D01*
X99646183Y-84758902D01*
X99470984Y-84758902D01*
X99470984Y-84933991D01*
G37*
X99893983Y-82480515D02*
X100069182Y-82480515D01*
X100069182Y-82305426D01*
X99893983Y-82305426D01*
X99893983Y-82480515D01*
G36*
X99893983Y-82480515D02*
G01*
X100069182Y-82480515D01*
X100069182Y-82305426D01*
X99893983Y-82305426D01*
X99893983Y-82480515D01*
G37*
X99893983Y-84933991D02*
X100069182Y-84933991D01*
X100069182Y-84758902D01*
X99893983Y-84758902D01*
X99893983Y-84933991D01*
G36*
X99893983Y-84933991D02*
G01*
X100069182Y-84933991D01*
X100069182Y-84758902D01*
X99893983Y-84758902D01*
X99893983Y-84933991D01*
G37*
X100304769Y-82480515D02*
X100479968Y-82480515D01*
X100479968Y-82305426D01*
X100304769Y-82305426D01*
X100304769Y-82480515D01*
G36*
X100304769Y-82480515D02*
G01*
X100479968Y-82480515D01*
X100479968Y-82305426D01*
X100304769Y-82305426D01*
X100304769Y-82480515D01*
G37*
X100304769Y-84933991D02*
X100479968Y-84933991D01*
X100479968Y-84758902D01*
X100304769Y-84758902D01*
X100304769Y-84933991D01*
G36*
X100304769Y-84933991D02*
G01*
X100479968Y-84933991D01*
X100479968Y-84758902D01*
X100304769Y-84758902D01*
X100304769Y-84933991D01*
G37*
X100548603Y-82823568D02*
X101068656Y-82823568D01*
X101068656Y-82746447D01*
X100548603Y-82746447D01*
X100548603Y-82823568D01*
G36*
X100548603Y-82823568D02*
G01*
X101068656Y-82823568D01*
X101068656Y-82746447D01*
X100548603Y-82746447D01*
X100548603Y-82823568D01*
G37*
X100688122Y-82480515D02*
X100863321Y-82480515D01*
X100863321Y-82305426D01*
X100688122Y-82305426D01*
X100688122Y-82480515D01*
G36*
X100688122Y-82480515D02*
G01*
X100863321Y-82480515D01*
X100863321Y-82305426D01*
X100688122Y-82305426D01*
X100688122Y-82480515D01*
G37*
X100688122Y-84933991D02*
X100863321Y-84933991D01*
X100863321Y-84758902D01*
X100688122Y-84758902D01*
X100688122Y-84933991D01*
G36*
X100688122Y-84933991D02*
G01*
X100863321Y-84933991D01*
X100863321Y-84758902D01*
X100688122Y-84758902D01*
X100688122Y-84933991D01*
G37*
X100916531Y-83246447D02*
X101068656Y-83246447D01*
X101068656Y-82746447D01*
X100916531Y-82746447D01*
X100916531Y-83246447D01*
G36*
X100916531Y-83246447D02*
G01*
X101068656Y-83246447D01*
X101068656Y-82746447D01*
X100916531Y-82746447D01*
X100916531Y-83246447D01*
G37*
X101289600Y-83067241D02*
X101464689Y-83067241D01*
X101464689Y-82892042D01*
X101289600Y-82892042D01*
X101289600Y-83067241D01*
G36*
X101289600Y-83067241D02*
G01*
X101464689Y-83067241D01*
X101464689Y-82892042D01*
X101289600Y-82892042D01*
X101289600Y-83067241D01*
G37*
X101289600Y-83490240D02*
X101464689Y-83490240D01*
X101464689Y-83315041D01*
X101289600Y-83315041D01*
X101289600Y-83490240D01*
G36*
X101289600Y-83490240D02*
G01*
X101464689Y-83490240D01*
X101464689Y-83315041D01*
X101289600Y-83315041D01*
X101289600Y-83490240D01*
G37*
X101289600Y-83901026D02*
X101464689Y-83901026D01*
X101464689Y-83725827D01*
X101289600Y-83725827D01*
X101289600Y-83901026D01*
G36*
X101289600Y-83901026D02*
G01*
X101464689Y-83901026D01*
X101464689Y-83725827D01*
X101289600Y-83725827D01*
X101289600Y-83901026D01*
G37*
X101289600Y-84284379D02*
X101464689Y-84284379D01*
X101464689Y-84109180D01*
X101289600Y-84109180D01*
X101289600Y-84284379D01*
G36*
X101289600Y-84284379D02*
G01*
X101464689Y-84284379D01*
X101464689Y-84109180D01*
X101289600Y-84109180D01*
X101289600Y-84284379D01*
G37*
X100903554Y-83046447D02*
G75*
G02*
X100503554Y-83046447I-200000J0D01*
G01*
X100503554Y-83046447D02*
G75*
G02*
X100903554Y-83046447I200000J0D01*
G01*
D12*
%TO.C,J101*%
X88650000Y-87630000D02*
X91310000Y-87630000D01*
X88650000Y-95310000D02*
X88650000Y-87630000D01*
X88650000Y-95310000D02*
X91310000Y-95310000D01*
X89980000Y-85030000D02*
X91310000Y-85030000D01*
X91310000Y-85030000D02*
X91310000Y-86360000D01*
X91310000Y-95310000D02*
X91310000Y-87630000D01*
%TD*%
D15*
X93100000Y-88900000D03*
X95700000Y-87900000D03*
X104300000Y-87900000D03*
X104300000Y-85900000D03*
X107200000Y-88900000D03*
X93100000Y-98500000D03*
X93100000Y-91450000D03*
X107200000Y-98500000D03*
X95700000Y-85900000D03*
X110300000Y-86360000D03*
X110300000Y-88900000D03*
X110300000Y-91440000D03*
X110300000Y-93980000D03*
X89980000Y-86360000D03*
X89980000Y-88900000D03*
X89980000Y-91440000D03*
X89980000Y-93980000D03*
M02*
