M48
METRIC,TZ
T1C0.300
T2C0.500
T3C1.000
%
G90
G05
T1
X-37000Y-4000
X-37000Y-6000
X-37000Y-8000
X-37000Y-10000
X-37000Y-12000
X-37000Y-14000
X-37000Y-16000
X-37000Y-18000
X-37000Y-20000
X-37000Y-22000
X-37000Y-24000
X-35000Y-4000
X-35000Y-24000
X-33000Y-4000
X-33000Y-24000
X-31000Y-4000
X-31000Y-24000
X-29000Y-4000
X-29000Y-24000
X-27000Y-4000
X-27000Y-24000
X-26300Y-12200
X-25900Y-11000
X-25000Y-4000
X-25000Y-24000
X-23000Y-4000
X-23000Y-24000
X-21000Y-4000
X-21000Y-24000
X-20100Y-10900
X-19000Y-4000
X-19000Y-24000
X-17000Y-4000
X-17000Y-13000
X-17000Y-24000
X-16800Y-15200
X-15000Y-4000
X-15000Y-24000
X-13000Y-4000
X-13000Y-24000
X-11000Y-4000
X-11000Y-24000
X-9000Y-4000
X-9000Y-6000
X-9000Y-8000
X-9000Y-10000
X-9000Y-12000
X-9000Y-14000
X-9000Y-16000
X-9000Y-18000
X-9000Y-20000
X-9000Y-22000
X-9000Y-24000
T2
X-29900Y-11900
X-29900Y-14450
X-29900Y-21500
X-27300Y-8900
X-27300Y-10900
X-18700Y-8900
X-18700Y-10900
X-15800Y-11900
X-15800Y-21500
T3
X-33020Y-9360
X-33020Y-11900
X-33020Y-14440
X-33020Y-16980
X-12700Y-9360
X-12700Y-11900
X-12700Y-14440
X-12700Y-16980
M30
