%TF.GenerationSoftware,KiCad,Pcbnew,8.0.3*%
%TF.CreationDate,2024-09-03T06:20:47+12:00*%
%TF.ProjectId,to-252-2,746f2d32-3532-42d3-922e-6b696361645f,rev?*%
%TF.SameCoordinates,Original*%
%TF.FileFunction,Legend,Bot*%
%TF.FilePolarity,Positive*%
%FSLAX46Y46*%
G04 Gerber Fmt 4.6, Leading zero omitted, Abs format (unit mm)*
G04 Created by KiCad (PCBNEW 8.0.3) date 2024-09-03 06:20:47*
%MOMM*%
%LPD*%
G01*
G04 APERTURE LIST*
%ADD10C,0.150000*%
%ADD11C,0.500000*%
%ADD12C,0.120000*%
%ADD13C,0.400000*%
%ADD14C,0.100000*%
%ADD15C,0.350000*%
G04 APERTURE END LIST*
D10*
X-11414286Y-6484819D02*
X-11414286Y-7199104D01*
X-11414286Y-7199104D02*
X-11366667Y-7341961D01*
X-11366667Y-7341961D02*
X-11271429Y-7437200D01*
X-11271429Y-7437200D02*
X-11128572Y-7484819D01*
X-11128572Y-7484819D02*
X-11033334Y-7484819D01*
X-12414286Y-7484819D02*
X-11842858Y-7484819D01*
X-12128572Y-7484819D02*
X-12128572Y-6484819D01*
X-12128572Y-6484819D02*
X-12033334Y-6627676D01*
X-12033334Y-6627676D02*
X-11938096Y-6722914D01*
X-11938096Y-6722914D02*
X-11842858Y-6770533D01*
X-13033334Y-6484819D02*
X-13128572Y-6484819D01*
X-13128572Y-6484819D02*
X-13223810Y-6532438D01*
X-13223810Y-6532438D02*
X-13271429Y-6580057D01*
X-13271429Y-6580057D02*
X-13319048Y-6675295D01*
X-13319048Y-6675295D02*
X-13366667Y-6865771D01*
X-13366667Y-6865771D02*
X-13366667Y-7103866D01*
X-13366667Y-7103866D02*
X-13319048Y-7294342D01*
X-13319048Y-7294342D02*
X-13271429Y-7389580D01*
X-13271429Y-7389580D02*
X-13223810Y-7437200D01*
X-13223810Y-7437200D02*
X-13128572Y-7484819D01*
X-13128572Y-7484819D02*
X-13033334Y-7484819D01*
X-13033334Y-7484819D02*
X-12938096Y-7437200D01*
X-12938096Y-7437200D02*
X-12890477Y-7389580D01*
X-12890477Y-7389580D02*
X-12842858Y-7294342D01*
X-12842858Y-7294342D02*
X-12795239Y-7103866D01*
X-12795239Y-7103866D02*
X-12795239Y-6865771D01*
X-12795239Y-6865771D02*
X-12842858Y-6675295D01*
X-12842858Y-6675295D02*
X-12890477Y-6580057D01*
X-12890477Y-6580057D02*
X-12938096Y-6532438D01*
X-12938096Y-6532438D02*
X-13033334Y-6484819D01*
X-13747620Y-6580057D02*
X-13795239Y-6532438D01*
X-13795239Y-6532438D02*
X-13890477Y-6484819D01*
X-13890477Y-6484819D02*
X-14128572Y-6484819D01*
X-14128572Y-6484819D02*
X-14223810Y-6532438D01*
X-14223810Y-6532438D02*
X-14271429Y-6580057D01*
X-14271429Y-6580057D02*
X-14319048Y-6675295D01*
X-14319048Y-6675295D02*
X-14319048Y-6770533D01*
X-14319048Y-6770533D02*
X-14271429Y-6913390D01*
X-14271429Y-6913390D02*
X-13700001Y-7484819D01*
X-13700001Y-7484819D02*
X-14319048Y-7484819D01*
D11*
X-20768251Y-6628066D02*
X-20101584Y-6628066D01*
X-20101584Y-7675685D02*
X-20101584Y-5675685D01*
X-20101584Y-5675685D02*
X-21053965Y-5675685D01*
X-24901584Y-7675685D02*
X-24901584Y-5675685D01*
X-24901584Y-5675685D02*
X-25377774Y-5675685D01*
X-25377774Y-5675685D02*
X-25663489Y-5770923D01*
X-25663489Y-5770923D02*
X-25853965Y-5961399D01*
X-25853965Y-5961399D02*
X-25949203Y-6151875D01*
X-25949203Y-6151875D02*
X-26044441Y-6532827D01*
X-26044441Y-6532827D02*
X-26044441Y-6818542D01*
X-26044441Y-6818542D02*
X-25949203Y-7199494D01*
X-25949203Y-7199494D02*
X-25853965Y-7389970D01*
X-25853965Y-7389970D02*
X-25663489Y-7580447D01*
X-25663489Y-7580447D02*
X-25377774Y-7675685D01*
X-25377774Y-7675685D02*
X-24901584Y-7675685D01*
D10*
X-31734286Y-6484819D02*
X-31734286Y-7199104D01*
X-31734286Y-7199104D02*
X-31686667Y-7341961D01*
X-31686667Y-7341961D02*
X-31591429Y-7437200D01*
X-31591429Y-7437200D02*
X-31448572Y-7484819D01*
X-31448572Y-7484819D02*
X-31353334Y-7484819D01*
X-32734286Y-7484819D02*
X-32162858Y-7484819D01*
X-32448572Y-7484819D02*
X-32448572Y-6484819D01*
X-32448572Y-6484819D02*
X-32353334Y-6627676D01*
X-32353334Y-6627676D02*
X-32258096Y-6722914D01*
X-32258096Y-6722914D02*
X-32162858Y-6770533D01*
X-33353334Y-6484819D02*
X-33448572Y-6484819D01*
X-33448572Y-6484819D02*
X-33543810Y-6532438D01*
X-33543810Y-6532438D02*
X-33591429Y-6580057D01*
X-33591429Y-6580057D02*
X-33639048Y-6675295D01*
X-33639048Y-6675295D02*
X-33686667Y-6865771D01*
X-33686667Y-6865771D02*
X-33686667Y-7103866D01*
X-33686667Y-7103866D02*
X-33639048Y-7294342D01*
X-33639048Y-7294342D02*
X-33591429Y-7389580D01*
X-33591429Y-7389580D02*
X-33543810Y-7437200D01*
X-33543810Y-7437200D02*
X-33448572Y-7484819D01*
X-33448572Y-7484819D02*
X-33353334Y-7484819D01*
X-33353334Y-7484819D02*
X-33258096Y-7437200D01*
X-33258096Y-7437200D02*
X-33210477Y-7389580D01*
X-33210477Y-7389580D02*
X-33162858Y-7294342D01*
X-33162858Y-7294342D02*
X-33115239Y-7103866D01*
X-33115239Y-7103866D02*
X-33115239Y-6865771D01*
X-33115239Y-6865771D02*
X-33162858Y-6675295D01*
X-33162858Y-6675295D02*
X-33210477Y-6580057D01*
X-33210477Y-6580057D02*
X-33258096Y-6532438D01*
X-33258096Y-6532438D02*
X-33353334Y-6484819D01*
X-34639048Y-7484819D02*
X-34067620Y-7484819D01*
X-34353334Y-7484819D02*
X-34353334Y-6484819D01*
X-34353334Y-6484819D02*
X-34258096Y-6627676D01*
X-34258096Y-6627676D02*
X-34162858Y-6722914D01*
X-34162858Y-6722914D02*
X-34067620Y-6770533D01*
D12*
%TO.C,J102*%
X-14030000Y-10630000D02*
X-11370000Y-10630000D01*
X-14030000Y-18310000D02*
X-14030000Y-10630000D01*
X-14030000Y-18310000D02*
X-11370000Y-18310000D01*
X-12700000Y-8030000D02*
X-11370000Y-8030000D01*
X-11370000Y-8030000D02*
X-11370000Y-9360000D01*
X-11370000Y-18310000D02*
X-11370000Y-10630000D01*
D13*
%TO.C,G\u002A\u002A\u002A*%
X-25510660Y-3832233D02*
X-24096446Y-5246447D01*
X-25410660Y-9360661D02*
X-23996446Y-7946447D01*
X-20189339Y-3839340D02*
X-21603553Y-5253554D01*
X-20089339Y-9367768D02*
X-21503553Y-7953554D01*
D14*
X-24122742Y-6067241D02*
X-23947653Y-6067241D01*
X-23947653Y-5892042D01*
X-24122742Y-5892042D01*
X-24122742Y-6067241D01*
G36*
X-24122742Y-6067241D02*
G01*
X-23947653Y-6067241D01*
X-23947653Y-5892042D01*
X-24122742Y-5892042D01*
X-24122742Y-6067241D01*
G37*
X-24122742Y-6490240D02*
X-23947653Y-6490240D01*
X-23947653Y-6315041D01*
X-24122742Y-6315041D01*
X-24122742Y-6490240D01*
G36*
X-24122742Y-6490240D02*
G01*
X-23947653Y-6490240D01*
X-23947653Y-6315041D01*
X-24122742Y-6315041D01*
X-24122742Y-6490240D01*
G37*
X-24122742Y-6901026D02*
X-23947653Y-6901026D01*
X-23947653Y-6725827D01*
X-24122742Y-6725827D01*
X-24122742Y-6901026D01*
G36*
X-24122742Y-6901026D02*
G01*
X-23947653Y-6901026D01*
X-23947653Y-6725827D01*
X-24122742Y-6725827D01*
X-24122742Y-6901026D01*
G37*
X-24122742Y-7284379D02*
X-23947653Y-7284379D01*
X-23947653Y-7109180D01*
X-24122742Y-7109180D01*
X-24122742Y-7284379D01*
G36*
X-24122742Y-7284379D02*
G01*
X-23947653Y-7284379D01*
X-23947653Y-7109180D01*
X-24122742Y-7109180D01*
X-24122742Y-7284379D01*
G37*
X-23745025Y-7529393D02*
X-21907299Y-7529393D01*
X-21907299Y-5658850D01*
X-23745025Y-5658850D01*
X-23745025Y-7529393D01*
X-23696446Y-6174749D02*
X-22508002Y-6174749D01*
X-22508002Y-5746447D01*
X-23696446Y-5746447D01*
X-23696446Y-6174749D01*
G36*
X-23696446Y-6174749D02*
G01*
X-22508002Y-6174749D01*
X-22508002Y-5746447D01*
X-23696446Y-5746447D01*
X-23696446Y-6174749D01*
G37*
X-23696446Y-7446447D02*
X-21996446Y-7446447D01*
X-21996446Y-6246447D01*
X-23696446Y-6246447D01*
X-23696446Y-7446447D01*
G36*
X-23696446Y-7446447D02*
G01*
X-21996446Y-7446447D01*
X-21996446Y-6246447D01*
X-23696446Y-6246447D01*
X-23696446Y-7446447D01*
G37*
X-23529016Y-5480515D02*
X-23353817Y-5480515D01*
X-23353817Y-5305426D01*
X-23529016Y-5305426D01*
X-23529016Y-5480515D01*
G36*
X-23529016Y-5480515D02*
G01*
X-23353817Y-5480515D01*
X-23353817Y-5305426D01*
X-23529016Y-5305426D01*
X-23529016Y-5480515D01*
G37*
X-23529016Y-7933991D02*
X-23353817Y-7933991D01*
X-23353817Y-7758902D01*
X-23529016Y-7758902D01*
X-23529016Y-7933991D01*
G36*
X-23529016Y-7933991D02*
G01*
X-23353817Y-7933991D01*
X-23353817Y-7758902D01*
X-23529016Y-7758902D01*
X-23529016Y-7933991D01*
G37*
X-23106017Y-5480515D02*
X-22930818Y-5480515D01*
X-22930818Y-5305426D01*
X-23106017Y-5305426D01*
X-23106017Y-5480515D01*
G36*
X-23106017Y-5480515D02*
G01*
X-22930818Y-5480515D01*
X-22930818Y-5305426D01*
X-23106017Y-5305426D01*
X-23106017Y-5480515D01*
G37*
X-23106017Y-7933991D02*
X-22930818Y-7933991D01*
X-22930818Y-7758902D01*
X-23106017Y-7758902D01*
X-23106017Y-7933991D01*
G36*
X-23106017Y-7933991D02*
G01*
X-22930818Y-7933991D01*
X-22930818Y-7758902D01*
X-23106017Y-7758902D01*
X-23106017Y-7933991D01*
G37*
X-22695231Y-5480515D02*
X-22520032Y-5480515D01*
X-22520032Y-5305426D01*
X-22695231Y-5305426D01*
X-22695231Y-5480515D01*
G36*
X-22695231Y-5480515D02*
G01*
X-22520032Y-5480515D01*
X-22520032Y-5305426D01*
X-22695231Y-5305426D01*
X-22695231Y-5480515D01*
G37*
X-22695231Y-7933991D02*
X-22520032Y-7933991D01*
X-22520032Y-7758902D01*
X-22695231Y-7758902D01*
X-22695231Y-7933991D01*
G36*
X-22695231Y-7933991D02*
G01*
X-22520032Y-7933991D01*
X-22520032Y-7758902D01*
X-22695231Y-7758902D01*
X-22695231Y-7933991D01*
G37*
X-22451397Y-5823568D02*
X-21931344Y-5823568D01*
X-21931344Y-5746447D01*
X-22451397Y-5746447D01*
X-22451397Y-5823568D01*
G36*
X-22451397Y-5823568D02*
G01*
X-21931344Y-5823568D01*
X-21931344Y-5746447D01*
X-22451397Y-5746447D01*
X-22451397Y-5823568D01*
G37*
X-22311878Y-5480515D02*
X-22136679Y-5480515D01*
X-22136679Y-5305426D01*
X-22311878Y-5305426D01*
X-22311878Y-5480515D01*
G36*
X-22311878Y-5480515D02*
G01*
X-22136679Y-5480515D01*
X-22136679Y-5305426D01*
X-22311878Y-5305426D01*
X-22311878Y-5480515D01*
G37*
X-22311878Y-7933991D02*
X-22136679Y-7933991D01*
X-22136679Y-7758902D01*
X-22311878Y-7758902D01*
X-22311878Y-7933991D01*
G36*
X-22311878Y-7933991D02*
G01*
X-22136679Y-7933991D01*
X-22136679Y-7758902D01*
X-22311878Y-7758902D01*
X-22311878Y-7933991D01*
G37*
X-22083469Y-6246447D02*
X-21931344Y-6246447D01*
X-21931344Y-5746447D01*
X-22083469Y-5746447D01*
X-22083469Y-6246447D01*
G36*
X-22083469Y-6246447D02*
G01*
X-21931344Y-6246447D01*
X-21931344Y-5746447D01*
X-22083469Y-5746447D01*
X-22083469Y-6246447D01*
G37*
X-21710400Y-6067241D02*
X-21535311Y-6067241D01*
X-21535311Y-5892042D01*
X-21710400Y-5892042D01*
X-21710400Y-6067241D01*
G36*
X-21710400Y-6067241D02*
G01*
X-21535311Y-6067241D01*
X-21535311Y-5892042D01*
X-21710400Y-5892042D01*
X-21710400Y-6067241D01*
G37*
X-21710400Y-6490240D02*
X-21535311Y-6490240D01*
X-21535311Y-6315041D01*
X-21710400Y-6315041D01*
X-21710400Y-6490240D01*
G36*
X-21710400Y-6490240D02*
G01*
X-21535311Y-6490240D01*
X-21535311Y-6315041D01*
X-21710400Y-6315041D01*
X-21710400Y-6490240D01*
G37*
X-21710400Y-6901026D02*
X-21535311Y-6901026D01*
X-21535311Y-6725827D01*
X-21710400Y-6725827D01*
X-21710400Y-6901026D01*
G36*
X-21710400Y-6901026D02*
G01*
X-21535311Y-6901026D01*
X-21535311Y-6725827D01*
X-21710400Y-6725827D01*
X-21710400Y-6901026D01*
G37*
X-21710400Y-7284379D02*
X-21535311Y-7284379D01*
X-21535311Y-7109180D01*
X-21710400Y-7109180D01*
X-21710400Y-7284379D01*
G36*
X-21710400Y-7284379D02*
G01*
X-21535311Y-7284379D01*
X-21535311Y-7109180D01*
X-21710400Y-7109180D01*
X-21710400Y-7284379D01*
G37*
X-22096446Y-6046447D02*
G75*
G02*
X-22496446Y-6046447I-200000J0D01*
G01*
X-22496446Y-6046447D02*
G75*
G02*
X-22096446Y-6046447I200000J0D01*
G01*
D12*
%TO.C,J101*%
X-34350000Y-10630000D02*
X-31690000Y-10630000D01*
X-34350000Y-18310000D02*
X-34350000Y-10630000D01*
X-34350000Y-18310000D02*
X-31690000Y-18310000D01*
X-33020000Y-8030000D02*
X-31690000Y-8030000D01*
X-31690000Y-8030000D02*
X-31690000Y-9360000D01*
X-31690000Y-18310000D02*
X-31690000Y-10630000D01*
%TD*%
D15*
X-29900000Y-11900000D03*
X-27300000Y-10900000D03*
X-18700000Y-10900000D03*
X-18700000Y-8900000D03*
X-15800000Y-11900000D03*
X-29900000Y-21500000D03*
X-29900000Y-14450000D03*
X-15800000Y-21500000D03*
X-27300000Y-8900000D03*
X-12700000Y-9360000D03*
X-12700000Y-11900000D03*
X-12700000Y-14440000D03*
X-12700000Y-16980000D03*
X-33020000Y-9360000D03*
X-33020000Y-11900000D03*
X-33020000Y-14440000D03*
X-33020000Y-16980000D03*
M02*
