%TF.GenerationSoftware,KiCad,Pcbnew,8.0.3*%
%TF.CreationDate,2024-09-03T06:20:47+12:00*%
%TF.ProjectId,to-252-2,746f2d32-3532-42d3-922e-6b696361645f,rev?*%
%TF.SameCoordinates,Original*%
%TF.FileFunction,Copper,L1,Top*%
%TF.FilePolarity,Positive*%
%FSLAX46Y46*%
G04 Gerber Fmt 4.6, Leading zero omitted, Abs format (unit mm)*
G04 Created by KiCad (PCBNEW 8.0.3) date 2024-09-03 06:20:47*
%MOMM*%
%LPD*%
G01*
G04 APERTURE LIST*
G04 Aperture macros list*
%AMRoundRect*
0 Rectangle with rounded corners*
0 $1 Rounding radius*
0 $2 $3 $4 $5 $6 $7 $8 $9 X,Y pos of 4 corners*
0 Add a 4 corners polygon primitive as box body*
4,1,4,$2,$3,$4,$5,$6,$7,$8,$9,$2,$3,0*
0 Add four circle primitives for the rounded corners*
1,1,$1+$1,$2,$3*
1,1,$1+$1,$4,$5*
1,1,$1+$1,$6,$7*
1,1,$1+$1,$8,$9*
0 Add four rect primitives between the rounded corners*
20,1,$1+$1,$2,$3,$4,$5,0*
20,1,$1+$1,$4,$5,$6,$7,0*
20,1,$1+$1,$6,$7,$8,$9,0*
20,1,$1+$1,$8,$9,$2,$3,0*%
%AMFreePoly0*
4,1,19,0.500000,-0.750000,0.000000,-0.750000,0.000000,-0.744911,-0.071157,-0.744911,-0.207708,-0.704816,-0.327430,-0.627875,-0.420627,-0.520320,-0.479746,-0.390866,-0.500000,-0.250000,-0.500000,0.250000,-0.479746,0.390866,-0.420627,0.520320,-0.327430,0.627875,-0.207708,0.704816,-0.071157,0.744911,0.000000,0.744911,0.000000,0.750000,0.500000,0.750000,0.500000,-0.750000,0.500000,-0.750000,
$1*%
%AMFreePoly1*
4,1,19,0.000000,0.744911,0.071157,0.744911,0.207708,0.704816,0.327430,0.627875,0.420627,0.520320,0.479746,0.390866,0.500000,0.250000,0.500000,-0.250000,0.479746,-0.390866,0.420627,-0.520320,0.327430,-0.627875,0.207708,-0.704816,0.071157,-0.744911,0.000000,-0.744911,0.000000,-0.750000,-0.500000,-0.750000,-0.500000,0.750000,0.000000,0.750000,0.000000,0.744911,0.000000,0.744911,
$1*%
G04 Aperture macros list end*
%TA.AperFunction,EtchedComponent*%
%ADD10C,0.000000*%
%TD*%
%TA.AperFunction,ComponentPad*%
%ADD11R,1.000000X1.000000*%
%TD*%
%TA.AperFunction,SMDPad,CuDef*%
%ADD12RoundRect,0.250000X-0.475000X0.337500X-0.475000X-0.337500X0.475000X-0.337500X0.475000X0.337500X0*%
%TD*%
%TA.AperFunction,SMDPad,CuDef*%
%ADD13RoundRect,0.250000X-0.850000X-0.350000X0.850000X-0.350000X0.850000X0.350000X-0.850000X0.350000X0*%
%TD*%
%TA.AperFunction,SMDPad,CuDef*%
%ADD14RoundRect,0.250000X-1.275000X-1.125000X1.275000X-1.125000X1.275000X1.125000X-1.275000X1.125000X0*%
%TD*%
%TA.AperFunction,SMDPad,CuDef*%
%ADD15RoundRect,0.249997X-2.950003X-2.650003X2.950003X-2.650003X2.950003X2.650003X-2.950003X2.650003X0*%
%TD*%
%TA.AperFunction,SMDPad,CuDef*%
%ADD16FreePoly0,0.000000*%
%TD*%
%TA.AperFunction,SMDPad,CuDef*%
%ADD17FreePoly1,0.000000*%
%TD*%
%TA.AperFunction,ComponentPad*%
%ADD18R,1.700000X1.700000*%
%TD*%
%TA.AperFunction,ComponentPad*%
%ADD19O,1.700000X1.700000*%
%TD*%
%TA.AperFunction,ViaPad*%
%ADD20C,0.600000*%
%TD*%
%TA.AperFunction,Conductor*%
%ADD21C,0.500000*%
%TD*%
%ADD22C,0.300000*%
%ADD23C,0.350000*%
G04 APERTURE END LIST*
D10*
%TA.AperFunction,EtchedComponent*%
%TO.C,JP101*%
G36*
X-22750000Y-7000000D02*
G01*
X-23250000Y-7000000D01*
X-23250000Y-6400000D01*
X-22750000Y-6400000D01*
X-22750000Y-7000000D01*
G37*
%TD.AperFunction*%
%TD*%
D11*
%TO.P,TP105,1,1*%
%TO.N,Net-(J101-Pin_2)*%
X-29900000Y-11900000D03*
%TD*%
D12*
%TO.P,C101,1*%
%TO.N,Net-(J101-Pin_1)*%
X-24360000Y-8862500D03*
%TO.P,C101,2*%
%TO.N,GND*%
X-24360000Y-10937500D03*
%TD*%
D11*
%TO.P,TP102,1,1*%
%TO.N,Net-(J101-Pin_1)*%
X-27300000Y-10900000D03*
%TD*%
%TO.P,TP103,1,1*%
%TO.N,Net-(J102-Pin_1)*%
X-18700000Y-10900000D03*
%TD*%
%TO.P,TP104,1,1*%
%TO.N,Net-(J102-Pin_1)*%
X-18700000Y-8900000D03*
%TD*%
D13*
%TO.P,U101,1,1*%
%TO.N,Net-(J101-Pin_2)*%
X-27060000Y-14470000D03*
D14*
%TO.P,U101,2,2*%
%TO.N,Net-(J102-Pin_2)*%
X-22435000Y-15225000D03*
X-22435000Y-18275000D03*
D15*
X-20760000Y-16750000D03*
D14*
X-19085000Y-15225000D03*
X-19085000Y-18275000D03*
D13*
%TO.P,U101,3,3*%
%TO.N,Net-(J101-Pin_3)*%
X-27060000Y-19030000D03*
%TD*%
D11*
%TO.P,TP110,1,1*%
%TO.N,Net-(J102-Pin_2)*%
X-15800000Y-11900000D03*
%TD*%
%TO.P,TP111,1,1*%
%TO.N,GND*%
X-29900000Y-21500000D03*
%TD*%
%TO.P,TP109,1,1*%
%TO.N,Net-(J101-Pin_3)*%
X-29900000Y-14450000D03*
%TD*%
%TO.P,TP112,1,1*%
%TO.N,GND*%
X-15800000Y-21500000D03*
%TD*%
D12*
%TO.P,C102,1*%
%TO.N,Net-(J102-Pin_1)*%
X-21640000Y-8862500D03*
%TO.P,C102,2*%
%TO.N,GND*%
X-21640000Y-10937500D03*
%TD*%
D16*
%TO.P,JP101,1,A*%
%TO.N,Net-(J101-Pin_1)*%
X-23650000Y-6700000D03*
D17*
%TO.P,JP101,2,B*%
%TO.N,Net-(J102-Pin_1)*%
X-22350000Y-6700000D03*
%TD*%
D11*
%TO.P,TP101,1,1*%
%TO.N,Net-(J101-Pin_1)*%
X-27300000Y-8900000D03*
%TD*%
D18*
%TO.P,J102,1,Pin_1*%
%TO.N,Net-(J102-Pin_1)*%
X-12700000Y-9360000D03*
D19*
%TO.P,J102,2,Pin_2*%
%TO.N,Net-(J102-Pin_2)*%
X-12700000Y-11900000D03*
%TO.P,J102,3,Pin_3*%
%TO.N,unconnected-(J102-Pin_3-Pad3)*%
X-12700000Y-14440000D03*
%TO.P,J102,4,Pin_4*%
%TO.N,GND*%
X-12700000Y-16980000D03*
%TD*%
D18*
%TO.P,J101,1,Pin_1*%
%TO.N,Net-(J101-Pin_1)*%
X-33020000Y-9360000D03*
D19*
%TO.P,J101,2,Pin_2*%
%TO.N,Net-(J101-Pin_2)*%
X-33020000Y-11900000D03*
%TO.P,J101,3,Pin_3*%
%TO.N,Net-(J101-Pin_3)*%
X-33020000Y-14440000D03*
%TO.P,J101,4,Pin_4*%
%TO.N,GND*%
X-33020000Y-16980000D03*
%TD*%
D20*
%TO.N,GND*%
X-21000000Y-24000000D03*
X-27000000Y-24000000D03*
X-29000000Y-4000000D03*
X-27000000Y-4000000D03*
X-9000000Y-8000000D03*
X-13000000Y-24000000D03*
X-21000000Y-4000000D03*
X-9000000Y-12000000D03*
X-37000000Y-6000000D03*
X-25000000Y-4000000D03*
X-37000000Y-4000000D03*
X-17000000Y-13000000D03*
X-9000000Y-16000000D03*
X-37000000Y-20000000D03*
X-9000000Y-22000000D03*
X-11000000Y-24000000D03*
X-37000000Y-10000000D03*
X-35000000Y-4000000D03*
X-26300000Y-12200000D03*
X-13000000Y-4000000D03*
X-15000000Y-4000000D03*
X-9000000Y-20000000D03*
X-9000000Y-14000000D03*
X-37000000Y-18000000D03*
X-9000000Y-10000000D03*
X-19000000Y-24000000D03*
X-35000000Y-24000000D03*
X-37000000Y-12000000D03*
X-17000000Y-24000000D03*
X-19000000Y-4000000D03*
X-20100000Y-10900000D03*
X-37000000Y-22000000D03*
X-25000000Y-24000000D03*
X-33000000Y-4000000D03*
X-31000000Y-4000000D03*
X-31000000Y-24000000D03*
X-33000000Y-24000000D03*
X-37000000Y-14000000D03*
X-25900000Y-11000000D03*
X-16800000Y-15200000D03*
X-9000000Y-4000000D03*
X-37000000Y-8000000D03*
X-15000000Y-24000000D03*
X-11000000Y-4000000D03*
X-29000000Y-24000000D03*
X-9000000Y-6000000D03*
X-23000000Y-24000000D03*
X-9000000Y-24000000D03*
X-23000000Y-4000000D03*
X-17000000Y-4000000D03*
X-9000000Y-18000000D03*
X-37000000Y-16000000D03*
X-37000000Y-24000000D03*
%TD*%
D21*
%TO.N,Net-(J101-Pin_2)*%
X-27600000Y-12700000D02*
X-27060000Y-13240000D01*
X-29900000Y-11900000D02*
X-29100000Y-12700000D01*
X-27060000Y-13240000D02*
X-27060000Y-14470000D01*
X-33020000Y-11900000D02*
X-29900000Y-11900000D01*
X-29100000Y-12700000D02*
X-27600000Y-12700000D01*
%TO.N,Net-(J101-Pin_3)*%
X-29900000Y-18000000D02*
X-29900000Y-14450000D01*
X-33020000Y-14440000D02*
X-29910000Y-14440000D01*
X-28870000Y-19030000D02*
X-29900000Y-18000000D01*
X-27060000Y-19030000D02*
X-28870000Y-19030000D01*
%TO.N,Net-(J102-Pin_2)*%
X-16850000Y-16750000D02*
X-20760000Y-16750000D01*
X-15800000Y-11900000D02*
X-15800000Y-15700000D01*
X-12700000Y-11900000D02*
X-15800000Y-11900000D01*
X-15800000Y-15700000D02*
X-16850000Y-16750000D01*
%TD*%
%TA.AperFunction,Conductor*%
%TO.N,Net-(J101-Pin_1)*%
G36*
X-23456961Y-5919685D02*
G01*
X-23411206Y-5972489D01*
X-23400000Y-6024000D01*
X-23400000Y-7723888D01*
X-23419685Y-7790927D01*
X-23472489Y-7836682D01*
X-23541647Y-7846626D01*
X-23563003Y-7841594D01*
X-23732300Y-7785495D01*
X-23732310Y-7785493D01*
X-23835014Y-7775000D01*
X-24110000Y-7775000D01*
X-24110000Y-8988500D01*
X-24129685Y-9055539D01*
X-24182489Y-9101294D01*
X-24234000Y-9112500D01*
X-25584999Y-9112500D01*
X-25584999Y-9249986D01*
X-25574506Y-9352697D01*
X-25519359Y-9519119D01*
X-25519357Y-9519124D01*
X-25427316Y-9668345D01*
X-25307342Y-9788319D01*
X-25273857Y-9849642D01*
X-25278841Y-9919334D01*
X-25320713Y-9975267D01*
X-25386177Y-9999684D01*
X-25395023Y-10000000D01*
X-26200000Y-10000000D01*
X-26202242Y-10002241D01*
X-26219685Y-10061647D01*
X-26272489Y-10107402D01*
X-26341647Y-10117346D01*
X-26405203Y-10088321D01*
X-26423266Y-10068919D01*
X-26442810Y-10042813D01*
X-26500979Y-9999267D01*
X-26542850Y-9943333D01*
X-26547834Y-9873641D01*
X-26514349Y-9812318D01*
X-26500979Y-9800733D01*
X-26442810Y-9757186D01*
X-26356650Y-9642093D01*
X-26356646Y-9642086D01*
X-26306404Y-9507379D01*
X-26306402Y-9507372D01*
X-26300001Y-9447844D01*
X-26300000Y-9447827D01*
X-26300000Y-9150000D01*
X-27050000Y-9150000D01*
X-27050000Y-10850272D01*
X-27088060Y-10758386D01*
X-27158386Y-10688060D01*
X-27250272Y-10650000D01*
X-27349728Y-10650000D01*
X-27441614Y-10688060D01*
X-27511940Y-10758386D01*
X-27550000Y-10850272D01*
X-27550000Y-10949728D01*
X-27511940Y-11041614D01*
X-27441614Y-11111940D01*
X-27349728Y-11150000D01*
X-28300000Y-11150000D01*
X-28300000Y-11447844D01*
X-28293599Y-11507372D01*
X-28293597Y-11507379D01*
X-28243355Y-11642086D01*
X-28243351Y-11642093D01*
X-28161681Y-11751189D01*
X-28137263Y-11816653D01*
X-28152114Y-11884926D01*
X-28201519Y-11934332D01*
X-28260947Y-11949500D01*
X-28676000Y-11949500D01*
X-28743039Y-11929815D01*
X-28788794Y-11877011D01*
X-28800000Y-11825500D01*
X-28800000Y-10700000D01*
X-31664511Y-10700000D01*
X-31731550Y-10680315D01*
X-31777305Y-10627511D01*
X-31787249Y-10558353D01*
X-31763777Y-10501689D01*
X-31726650Y-10452093D01*
X-31726646Y-10452086D01*
X-31676404Y-10317379D01*
X-31676402Y-10317372D01*
X-31670001Y-10257844D01*
X-31670000Y-10257827D01*
X-31670000Y-9610000D01*
X-32586988Y-9610000D01*
X-32554075Y-9552993D01*
X-32525900Y-9447844D01*
X-28300000Y-9447844D01*
X-28293599Y-9507372D01*
X-28293597Y-9507379D01*
X-28243355Y-9642086D01*
X-28243351Y-9642093D01*
X-28157191Y-9757187D01*
X-28099021Y-9800734D01*
X-28057151Y-9856668D01*
X-28052167Y-9926360D01*
X-28085653Y-9987683D01*
X-28099021Y-9999266D01*
X-28157191Y-10042812D01*
X-28243351Y-10157906D01*
X-28243355Y-10157913D01*
X-28293597Y-10292620D01*
X-28293599Y-10292627D01*
X-28300000Y-10352155D01*
X-28300000Y-10650000D01*
X-27550000Y-10650000D01*
X-27550000Y-9150000D01*
X-28300000Y-9150000D01*
X-28300000Y-9447844D01*
X-32525900Y-9447844D01*
X-32520000Y-9425826D01*
X-32520000Y-9294174D01*
X-32554075Y-9167007D01*
X-32586988Y-9110000D01*
X-31670000Y-9110000D01*
X-31670000Y-8850272D01*
X-27550000Y-8850272D01*
X-27550000Y-8949728D01*
X-27511940Y-9041614D01*
X-27441614Y-9111940D01*
X-27349728Y-9150000D01*
X-27250272Y-9150000D01*
X-27158386Y-9111940D01*
X-27088060Y-9041614D01*
X-27050000Y-8949728D01*
X-27050000Y-8850272D01*
X-27088060Y-8758386D01*
X-27158386Y-8688060D01*
X-27250272Y-8650000D01*
X-27050000Y-8650000D01*
X-26300000Y-8650000D01*
X-26300000Y-8475013D01*
X-25585000Y-8475013D01*
X-25585000Y-8612500D01*
X-24610000Y-8612500D01*
X-24610000Y-7775000D01*
X-24884971Y-7775000D01*
X-24884988Y-7775001D01*
X-24987698Y-7785494D01*
X-25154120Y-7840641D01*
X-25154125Y-7840643D01*
X-25303346Y-7932684D01*
X-25427316Y-8056654D01*
X-25519357Y-8205875D01*
X-25519359Y-8205880D01*
X-25574506Y-8372302D01*
X-25574507Y-8372309D01*
X-25585000Y-8475013D01*
X-26300000Y-8475013D01*
X-26300000Y-8352172D01*
X-26300001Y-8352155D01*
X-26306402Y-8292627D01*
X-26306404Y-8292620D01*
X-26356646Y-8157913D01*
X-26356650Y-8157906D01*
X-26442810Y-8042812D01*
X-26442813Y-8042809D01*
X-26557907Y-7956649D01*
X-26557914Y-7956645D01*
X-26692621Y-7906403D01*
X-26692628Y-7906401D01*
X-26752156Y-7900000D01*
X-27050000Y-7900000D01*
X-27050000Y-8650000D01*
X-27250272Y-8650000D01*
X-27349728Y-8650000D01*
X-27441614Y-8688060D01*
X-27511940Y-8758386D01*
X-27550000Y-8850272D01*
X-31670000Y-8850272D01*
X-31670000Y-8462172D01*
X-31670001Y-8462155D01*
X-31676402Y-8402627D01*
X-31676404Y-8402620D01*
X-31695226Y-8352155D01*
X-28300000Y-8352155D01*
X-28300000Y-8650000D01*
X-27550000Y-8650000D01*
X-27550000Y-7900000D01*
X-27847845Y-7900000D01*
X-27907373Y-7906401D01*
X-27907380Y-7906403D01*
X-28042087Y-7956645D01*
X-28042094Y-7956649D01*
X-28157188Y-8042809D01*
X-28157191Y-8042812D01*
X-28243351Y-8157906D01*
X-28243355Y-8157913D01*
X-28293597Y-8292620D01*
X-28293599Y-8292627D01*
X-28300000Y-8352155D01*
X-31695226Y-8352155D01*
X-31726646Y-8267913D01*
X-31726650Y-8267906D01*
X-31812810Y-8152812D01*
X-31812813Y-8152809D01*
X-31927907Y-8066649D01*
X-31927914Y-8066645D01*
X-32062621Y-8016403D01*
X-32062628Y-8016401D01*
X-32122156Y-8010000D01*
X-32770000Y-8010000D01*
X-32770000Y-8926988D01*
X-32827007Y-8894075D01*
X-32954174Y-8860000D01*
X-33085826Y-8860000D01*
X-33212993Y-8894075D01*
X-33270000Y-8926988D01*
X-33270000Y-8010000D01*
X-33917845Y-8010000D01*
X-33977373Y-8016401D01*
X-33977380Y-8016403D01*
X-34112087Y-8066645D01*
X-34112094Y-8066649D01*
X-34227188Y-8152809D01*
X-34227191Y-8152812D01*
X-34313351Y-8267906D01*
X-34313355Y-8267913D01*
X-34363597Y-8402620D01*
X-34363599Y-8402627D01*
X-34370000Y-8462155D01*
X-34370000Y-9110000D01*
X-33453012Y-9110000D01*
X-33485925Y-9167007D01*
X-33520000Y-9294174D01*
X-33520000Y-9425826D01*
X-33485925Y-9552993D01*
X-33453012Y-9610000D01*
X-34370000Y-9610000D01*
X-34370000Y-10257844D01*
X-34363599Y-10317372D01*
X-34363597Y-10317379D01*
X-34313355Y-10452086D01*
X-34313351Y-10452093D01*
X-34276223Y-10501689D01*
X-34251805Y-10567153D01*
X-34266656Y-10635426D01*
X-34316061Y-10684832D01*
X-34375489Y-10700000D01*
X-34576000Y-10700000D01*
X-34643039Y-10680315D01*
X-34688794Y-10627511D01*
X-34700000Y-10576000D01*
X-34700000Y-6024000D01*
X-34680315Y-5956961D01*
X-34627511Y-5911206D01*
X-34576000Y-5900000D01*
X-23524000Y-5900000D01*
X-23456961Y-5919685D01*
G37*
%TD.AperFunction*%
%TA.AperFunction,Conductor*%
G36*
X-27050000Y-11026000D02*
G01*
X-27069685Y-11093039D01*
X-27122489Y-11138794D01*
X-27174000Y-11150000D01*
X-27250272Y-11150000D01*
X-27158386Y-11111940D01*
X-27088060Y-11041614D01*
X-27050000Y-10949728D01*
X-27050000Y-11026000D01*
G37*
%TD.AperFunction*%
%TD*%
%TA.AperFunction,Conductor*%
%TO.N,Net-(J102-Pin_1)*%
G36*
X-11356961Y-5919685D02*
G01*
X-11311206Y-5972489D01*
X-11300000Y-6024000D01*
X-11300000Y-8049427D01*
X-11319685Y-8116466D01*
X-11372489Y-8162221D01*
X-11441647Y-8172165D01*
X-11498311Y-8148694D01*
X-11607912Y-8066646D01*
X-11607914Y-8066645D01*
X-11742621Y-8016403D01*
X-11742628Y-8016401D01*
X-11802156Y-8010000D01*
X-12450000Y-8010000D01*
X-12450000Y-8926988D01*
X-12507007Y-8894075D01*
X-12634174Y-8860000D01*
X-12765826Y-8860000D01*
X-12892993Y-8894075D01*
X-12950000Y-8926988D01*
X-12950000Y-8010000D01*
X-13597845Y-8010000D01*
X-13657373Y-8016401D01*
X-13657380Y-8016403D01*
X-13792087Y-8066645D01*
X-13792094Y-8066649D01*
X-13907188Y-8152809D01*
X-13907191Y-8152812D01*
X-13993351Y-8267906D01*
X-13993355Y-8267913D01*
X-14043597Y-8402620D01*
X-14043599Y-8402627D01*
X-14050000Y-8462155D01*
X-14050000Y-9110000D01*
X-13133012Y-9110000D01*
X-13165925Y-9167007D01*
X-13200000Y-9294174D01*
X-13200000Y-9425826D01*
X-13165925Y-9552993D01*
X-13133012Y-9610000D01*
X-14050000Y-9610000D01*
X-14050000Y-10257844D01*
X-14043599Y-10317372D01*
X-14043597Y-10317379D01*
X-13993355Y-10452086D01*
X-13993351Y-10452093D01*
X-13956223Y-10501689D01*
X-13931805Y-10567153D01*
X-13946656Y-10635426D01*
X-13996061Y-10684832D01*
X-14055489Y-10700000D01*
X-17200000Y-10700000D01*
X-17200000Y-11876000D01*
X-17219685Y-11943039D01*
X-17272489Y-11988794D01*
X-17324000Y-12000000D01*
X-17794608Y-12000000D01*
X-17861647Y-11980315D01*
X-17907402Y-11927511D01*
X-17917346Y-11858353D01*
X-17888321Y-11794797D01*
X-17868919Y-11776734D01*
X-17842813Y-11757190D01*
X-17842810Y-11757187D01*
X-17756650Y-11642093D01*
X-17756646Y-11642086D01*
X-17706404Y-11507379D01*
X-17706402Y-11507372D01*
X-17700001Y-11447844D01*
X-17700000Y-11447827D01*
X-17700000Y-11150000D01*
X-18650272Y-11150000D01*
X-18558386Y-11111940D01*
X-18488060Y-11041614D01*
X-18450000Y-10949728D01*
X-18450000Y-10850272D01*
X-18488060Y-10758386D01*
X-18558386Y-10688060D01*
X-18650272Y-10650000D01*
X-18450000Y-10650000D01*
X-17700000Y-10650000D01*
X-17700000Y-10352172D01*
X-17700001Y-10352155D01*
X-17706402Y-10292627D01*
X-17706404Y-10292620D01*
X-17756646Y-10157913D01*
X-17756650Y-10157906D01*
X-17842810Y-10042813D01*
X-17900979Y-9999267D01*
X-17942850Y-9943333D01*
X-17947834Y-9873641D01*
X-17914349Y-9812318D01*
X-17900979Y-9800733D01*
X-17842810Y-9757186D01*
X-17756650Y-9642093D01*
X-17756646Y-9642086D01*
X-17706404Y-9507379D01*
X-17706402Y-9507372D01*
X-17700001Y-9447844D01*
X-17700000Y-9447827D01*
X-17700000Y-9150000D01*
X-18450000Y-9150000D01*
X-18450000Y-10650000D01*
X-18650272Y-10650000D01*
X-18749728Y-10650000D01*
X-18841614Y-10688060D01*
X-18911940Y-10758386D01*
X-18950000Y-10850272D01*
X-18950000Y-9150000D01*
X-19700000Y-9150000D01*
X-19700000Y-9447844D01*
X-19693599Y-9507372D01*
X-19693597Y-9507380D01*
X-19646868Y-9632667D01*
X-19641884Y-9702359D01*
X-19675369Y-9763682D01*
X-19736693Y-9797166D01*
X-19763050Y-9800000D01*
X-20431715Y-9800000D01*
X-20498754Y-9780315D01*
X-20544509Y-9727511D01*
X-20554453Y-9658353D01*
X-20537253Y-9610903D01*
X-20480647Y-9519130D01*
X-20480642Y-9519119D01*
X-20425495Y-9352697D01*
X-20425494Y-9352690D01*
X-20415001Y-9249986D01*
X-20415000Y-9249973D01*
X-20415000Y-9112500D01*
X-21766000Y-9112500D01*
X-21833039Y-9092815D01*
X-21878794Y-9040011D01*
X-21890000Y-8988500D01*
X-21890000Y-8850272D01*
X-18950000Y-8850272D01*
X-18950000Y-8949728D01*
X-18911940Y-9041614D01*
X-18841614Y-9111940D01*
X-18749728Y-9150000D01*
X-18650272Y-9150000D01*
X-18558386Y-9111940D01*
X-18488060Y-9041614D01*
X-18450000Y-8949728D01*
X-18450000Y-8850272D01*
X-18488060Y-8758386D01*
X-18558386Y-8688060D01*
X-18650272Y-8650000D01*
X-18450000Y-8650000D01*
X-17700000Y-8650000D01*
X-17700000Y-8352172D01*
X-17700001Y-8352155D01*
X-17706402Y-8292627D01*
X-17706404Y-8292620D01*
X-17756646Y-8157913D01*
X-17756650Y-8157906D01*
X-17842810Y-8042812D01*
X-17842813Y-8042809D01*
X-17957907Y-7956649D01*
X-17957914Y-7956645D01*
X-18092621Y-7906403D01*
X-18092628Y-7906401D01*
X-18152156Y-7900000D01*
X-18450000Y-7900000D01*
X-18450000Y-8650000D01*
X-18650272Y-8650000D01*
X-18749728Y-8650000D01*
X-18841614Y-8688060D01*
X-18911940Y-8758386D01*
X-18950000Y-8850272D01*
X-21890000Y-8850272D01*
X-21890000Y-8612500D01*
X-21390000Y-8612500D01*
X-20415001Y-8612500D01*
X-20415001Y-8475028D01*
X-20415002Y-8475013D01*
X-20425495Y-8372302D01*
X-20432171Y-8352155D01*
X-19700000Y-8352155D01*
X-19700000Y-8650000D01*
X-18950000Y-8650000D01*
X-18950000Y-7900000D01*
X-19247845Y-7900000D01*
X-19307373Y-7906401D01*
X-19307380Y-7906403D01*
X-19442087Y-7956645D01*
X-19442094Y-7956649D01*
X-19557188Y-8042809D01*
X-19557191Y-8042812D01*
X-19643351Y-8157906D01*
X-19643355Y-8157913D01*
X-19693597Y-8292620D01*
X-19693599Y-8292627D01*
X-19700000Y-8352155D01*
X-20432171Y-8352155D01*
X-20480642Y-8205880D01*
X-20480644Y-8205875D01*
X-20572685Y-8056654D01*
X-20696655Y-7932684D01*
X-20845876Y-7840643D01*
X-20845881Y-7840641D01*
X-21012303Y-7785494D01*
X-21012310Y-7785493D01*
X-21115014Y-7775000D01*
X-21390000Y-7775000D01*
X-21390000Y-8612500D01*
X-21890000Y-8612500D01*
X-21890000Y-7775000D01*
X-22164971Y-7775000D01*
X-22164988Y-7775001D01*
X-22267698Y-7785494D01*
X-22436996Y-7841594D01*
X-22506825Y-7843996D01*
X-22566866Y-7808264D01*
X-22598059Y-7745743D01*
X-22600000Y-7723888D01*
X-22600000Y-6024000D01*
X-22580315Y-5956961D01*
X-22527511Y-5911206D01*
X-22476000Y-5900000D01*
X-11424000Y-5900000D01*
X-11356961Y-5919685D01*
G37*
%TD.AperFunction*%
%TA.AperFunction,Conductor*%
G36*
X-18911940Y-11041614D02*
G01*
X-18841614Y-11111940D01*
X-18749728Y-11150000D01*
X-18826000Y-11150000D01*
X-18893039Y-11130315D01*
X-18938794Y-11077511D01*
X-18950000Y-11026000D01*
X-18950000Y-10949728D01*
X-18911940Y-11041614D01*
G37*
%TD.AperFunction*%
%TD*%
%TA.AperFunction,Conductor*%
%TO.N,GND*%
G36*
X-22957412Y-8144207D02*
G01*
X-22922793Y-8163948D01*
X-22881660Y-8197186D01*
X-22841888Y-8254631D01*
X-22839488Y-8324460D01*
X-22841889Y-8332636D01*
X-22854999Y-8372199D01*
X-22865500Y-8474983D01*
X-22865500Y-9250001D01*
X-22865499Y-9250019D01*
X-22855000Y-9352796D01*
X-22854999Y-9352799D01*
X-22799815Y-9519331D01*
X-22799814Y-9519334D01*
X-22707712Y-9668656D01*
X-22583656Y-9792712D01*
X-22580372Y-9794737D01*
X-22580347Y-9794753D01*
X-22578555Y-9796746D01*
X-22577989Y-9797193D01*
X-22578066Y-9797289D01*
X-22533621Y-9846699D01*
X-22522397Y-9915661D01*
X-22550239Y-9979744D01*
X-22580335Y-10005826D01*
X-22583340Y-10007679D01*
X-22583345Y-10007683D01*
X-22707316Y-10131654D01*
X-22799357Y-10280875D01*
X-22799359Y-10280880D01*
X-22854506Y-10447302D01*
X-22854507Y-10447309D01*
X-22865000Y-10550013D01*
X-22865000Y-10687500D01*
X-20415001Y-10687500D01*
X-20415001Y-10550028D01*
X-20415002Y-10550010D01*
X-20426025Y-10442101D01*
X-20413255Y-10373408D01*
X-20365374Y-10322524D01*
X-20302667Y-10305500D01*
X-19824500Y-10305500D01*
X-19757461Y-10325185D01*
X-19711706Y-10377989D01*
X-19700500Y-10429500D01*
X-19700500Y-11447870D01*
X-19700499Y-11447876D01*
X-19694092Y-11507483D01*
X-19643798Y-11642328D01*
X-19643794Y-11642335D01*
X-19557548Y-11757544D01*
X-19557545Y-11757547D01*
X-19442336Y-11843793D01*
X-19442329Y-11843797D01*
X-19307483Y-11894091D01*
X-19307484Y-11894091D01*
X-19300556Y-11894835D01*
X-19247873Y-11900500D01*
X-18529208Y-11900499D01*
X-18462169Y-11920183D01*
X-18416414Y-11972987D01*
X-18409018Y-11995210D01*
X-18409004Y-11995206D01*
X-18408891Y-11995592D01*
X-18408040Y-11998148D01*
X-18407755Y-11999462D01*
X-18367222Y-12137501D01*
X-18367219Y-12137507D01*
X-18289437Y-12258537D01*
X-18289429Y-12258548D01*
X-18243685Y-12311340D01*
X-18243682Y-12311343D01*
X-18243678Y-12311347D01*
X-18134944Y-12405567D01*
X-18134941Y-12405568D01*
X-18134940Y-12405569D01*
X-18032393Y-12452402D01*
X-18004067Y-12465338D01*
X-17937028Y-12485023D01*
X-17937024Y-12485024D01*
X-17794608Y-12505500D01*
X-17794605Y-12505500D01*
X-17324010Y-12505500D01*
X-17324000Y-12505500D01*
X-17216544Y-12493947D01*
X-17165033Y-12482741D01*
X-17130803Y-12471347D01*
X-17062503Y-12448616D01*
X-17062499Y-12448613D01*
X-17062496Y-12448613D01*
X-16986230Y-12399598D01*
X-16919191Y-12379914D01*
X-16852151Y-12399598D01*
X-16806396Y-12452402D01*
X-16795901Y-12490658D01*
X-16794093Y-12507480D01*
X-16743798Y-12642328D01*
X-16743797Y-12642329D01*
X-16743796Y-12642331D01*
X-16657549Y-12757542D01*
X-16657548Y-12757543D01*
X-16657545Y-12757547D01*
X-16600190Y-12800482D01*
X-16558318Y-12856415D01*
X-16550500Y-12899749D01*
X-16550500Y-15337770D01*
X-16570185Y-15404809D01*
X-16586819Y-15425451D01*
X-16847819Y-15686451D01*
X-16909142Y-15719936D01*
X-16978834Y-15714952D01*
X-17034767Y-15673080D01*
X-17059184Y-15607616D01*
X-17059500Y-15598770D01*
X-17059500Y-14049993D01*
X-17059501Y-14049980D01*
X-17070001Y-13947200D01*
X-17125185Y-13780664D01*
X-17125189Y-13780658D01*
X-17125190Y-13780655D01*
X-17217286Y-13631346D01*
X-17217289Y-13631342D01*
X-17263681Y-13584950D01*
X-17297166Y-13523627D01*
X-17300000Y-13497269D01*
X-17300000Y-13200000D01*
X-26200989Y-13200000D01*
X-26268028Y-13180315D01*
X-26313783Y-13127511D01*
X-26322606Y-13100192D01*
X-26338341Y-13021092D01*
X-26338342Y-13021091D01*
X-26338342Y-13021087D01*
X-26372551Y-12938498D01*
X-26394913Y-12884511D01*
X-26394920Y-12884498D01*
X-26477048Y-12761585D01*
X-26481091Y-12757542D01*
X-26581584Y-12657049D01*
X-26660803Y-12577830D01*
X-27125891Y-12112740D01*
X-27124023Y-12110871D01*
X-27156901Y-12062576D01*
X-27158753Y-11992731D01*
X-27122551Y-11932972D01*
X-27059787Y-11902272D01*
X-27038892Y-11900499D01*
X-26752129Y-11900499D01*
X-26752128Y-11900499D01*
X-26692517Y-11894091D01*
X-26557669Y-11843796D01*
X-26442454Y-11757546D01*
X-26356204Y-11642331D01*
X-26305909Y-11507483D01*
X-26299500Y-11447873D01*
X-26299500Y-11324986D01*
X-25584999Y-11324986D01*
X-25574506Y-11427697D01*
X-25519359Y-11594119D01*
X-25519357Y-11594124D01*
X-25427316Y-11743345D01*
X-25303346Y-11867315D01*
X-25154125Y-11959356D01*
X-25154120Y-11959358D01*
X-24987698Y-12014505D01*
X-24987691Y-12014506D01*
X-24884981Y-12024999D01*
X-24610001Y-12024999D01*
X-24110000Y-12024999D01*
X-23835028Y-12024999D01*
X-23835014Y-12024998D01*
X-23732303Y-12014505D01*
X-23565881Y-11959358D01*
X-23565876Y-11959356D01*
X-23416655Y-11867315D01*
X-23292685Y-11743345D01*
X-23200644Y-11594124D01*
X-23200642Y-11594119D01*
X-23145495Y-11427697D01*
X-23145494Y-11427690D01*
X-23135001Y-11324986D01*
X-22864999Y-11324986D01*
X-22854506Y-11427697D01*
X-22799359Y-11594119D01*
X-22799357Y-11594124D01*
X-22707316Y-11743345D01*
X-22583346Y-11867315D01*
X-22434125Y-11959356D01*
X-22434120Y-11959358D01*
X-22267698Y-12014505D01*
X-22267691Y-12014506D01*
X-22164981Y-12024999D01*
X-21890001Y-12024999D01*
X-21390000Y-12024999D01*
X-21115028Y-12024999D01*
X-21115014Y-12024998D01*
X-21012303Y-12014505D01*
X-20845881Y-11959358D01*
X-20845876Y-11959356D01*
X-20696655Y-11867315D01*
X-20572685Y-11743345D01*
X-20480644Y-11594124D01*
X-20480642Y-11594119D01*
X-20425495Y-11427697D01*
X-20425494Y-11427690D01*
X-20415001Y-11324986D01*
X-20415000Y-11324973D01*
X-20415000Y-11187500D01*
X-21390000Y-11187500D01*
X-21390000Y-12024999D01*
X-21890001Y-12024999D01*
X-21890000Y-12024998D01*
X-21890000Y-11187500D01*
X-22864999Y-11187500D01*
X-22864999Y-11324986D01*
X-23135001Y-11324986D01*
X-23135000Y-11324973D01*
X-23135000Y-11187500D01*
X-24110000Y-11187500D01*
X-24110000Y-12024999D01*
X-24610001Y-12024999D01*
X-24610000Y-12024998D01*
X-24610000Y-11187500D01*
X-25584999Y-11187500D01*
X-25584999Y-11324986D01*
X-26299500Y-11324986D01*
X-26299501Y-10729206D01*
X-26279817Y-10662168D01*
X-26227013Y-10616413D01*
X-26204791Y-10609019D01*
X-26204795Y-10609004D01*
X-26204365Y-10608877D01*
X-26201832Y-10608035D01*
X-26200560Y-10607758D01*
X-26200545Y-10607756D01*
X-26062496Y-10567221D01*
X-25997087Y-10525185D01*
X-25930047Y-10505500D01*
X-25709000Y-10505500D01*
X-25641961Y-10525185D01*
X-25596206Y-10577989D01*
X-25585000Y-10629500D01*
X-25585000Y-10687500D01*
X-23135001Y-10687500D01*
X-23135001Y-10550028D01*
X-23135002Y-10550013D01*
X-23145495Y-10447302D01*
X-23200642Y-10280880D01*
X-23200644Y-10280875D01*
X-23292685Y-10131654D01*
X-23416656Y-10007683D01*
X-23416659Y-10007681D01*
X-23419661Y-10005829D01*
X-23421287Y-10004021D01*
X-23422323Y-10003202D01*
X-23422183Y-10003024D01*
X-23466383Y-9953880D01*
X-23477603Y-9884917D01*
X-23449757Y-9820836D01*
X-23419656Y-9794754D01*
X-23416344Y-9792712D01*
X-23292288Y-9668656D01*
X-23200186Y-9519334D01*
X-23145001Y-9352797D01*
X-23134500Y-9250009D01*
X-23134501Y-8474992D01*
X-23145001Y-8372203D01*
X-23157701Y-8333876D01*
X-23160104Y-8264048D01*
X-23124373Y-8204006D01*
X-23121249Y-8201202D01*
X-23088653Y-8172958D01*
X-23088647Y-8172950D01*
X-23088422Y-8172727D01*
X-23088327Y-8172674D01*
X-23085304Y-8170056D01*
X-23084735Y-8170712D01*
X-23027104Y-8139233D01*
X-22957412Y-8144207D01*
G37*
%TD.AperFunction*%
%TA.AperFunction,Conductor*%
G36*
X-9615582Y-3040816D02*
G01*
X-9415439Y-3055130D01*
X-9397937Y-3057647D01*
X-9206203Y-3099355D01*
X-9189245Y-3104334D01*
X-9005391Y-3172909D01*
X-8989299Y-3180259D01*
X-8817096Y-3274288D01*
X-8802216Y-3283849D01*
X-8645133Y-3401441D01*
X-8631763Y-3413027D01*
X-8493028Y-3551762D01*
X-8481442Y-3565132D01*
X-8363854Y-3722210D01*
X-8354289Y-3737095D01*
X-8260260Y-3909298D01*
X-8252910Y-3925390D01*
X-8184338Y-4109236D01*
X-8179354Y-4126212D01*
X-8137649Y-4317931D01*
X-8135131Y-4335442D01*
X-8120816Y-4535580D01*
X-8120500Y-4544427D01*
X-8120500Y-23395572D01*
X-8120816Y-23404419D01*
X-8135131Y-23604557D01*
X-8137649Y-23622068D01*
X-8179354Y-23813787D01*
X-8184338Y-23830763D01*
X-8252910Y-24014609D01*
X-8260260Y-24030701D01*
X-8354289Y-24202904D01*
X-8363854Y-24217789D01*
X-8481442Y-24374867D01*
X-8493028Y-24388237D01*
X-8631763Y-24526972D01*
X-8645133Y-24538558D01*
X-8802211Y-24656146D01*
X-8817096Y-24665711D01*
X-8989299Y-24759740D01*
X-9005391Y-24767090D01*
X-9189237Y-24835662D01*
X-9206213Y-24840646D01*
X-9397932Y-24882351D01*
X-9415443Y-24884869D01*
X-9596221Y-24897799D01*
X-9615583Y-24899184D01*
X-9624428Y-24899500D01*
X-36095572Y-24899500D01*
X-36104418Y-24899184D01*
X-36126378Y-24897613D01*
X-36304558Y-24884869D01*
X-36322069Y-24882351D01*
X-36513788Y-24840646D01*
X-36530764Y-24835662D01*
X-36714610Y-24767090D01*
X-36730702Y-24759740D01*
X-36902905Y-24665711D01*
X-36917790Y-24656146D01*
X-37074868Y-24538558D01*
X-37088238Y-24526972D01*
X-37226973Y-24388237D01*
X-37238559Y-24374867D01*
X-37356151Y-24217784D01*
X-37365712Y-24202904D01*
X-37459741Y-24030701D01*
X-37467091Y-24014609D01*
X-37527909Y-23851551D01*
X-37535666Y-23830755D01*
X-37540645Y-23813797D01*
X-37582353Y-23622063D01*
X-37584870Y-23604556D01*
X-37599184Y-23404418D01*
X-37599500Y-23395572D01*
X-37599500Y-22047844D01*
X-30900000Y-22047844D01*
X-30893599Y-22107372D01*
X-30893597Y-22107379D01*
X-30843355Y-22242086D01*
X-30843351Y-22242093D01*
X-30757191Y-22357187D01*
X-30757188Y-22357190D01*
X-30642094Y-22443350D01*
X-30642087Y-22443354D01*
X-30507380Y-22493596D01*
X-30507373Y-22493598D01*
X-30447845Y-22499999D01*
X-30447828Y-22500000D01*
X-30150000Y-22500000D01*
X-29650000Y-22500000D01*
X-29352172Y-22500000D01*
X-29352156Y-22499999D01*
X-29292628Y-22493598D01*
X-29292621Y-22493596D01*
X-29157914Y-22443354D01*
X-29157907Y-22443350D01*
X-29042813Y-22357190D01*
X-29042810Y-22357187D01*
X-28956650Y-22242093D01*
X-28956646Y-22242086D01*
X-28906404Y-22107379D01*
X-28906402Y-22107372D01*
X-28900001Y-22047844D01*
X-16800000Y-22047844D01*
X-16793599Y-22107372D01*
X-16793597Y-22107379D01*
X-16743355Y-22242086D01*
X-16743351Y-22242093D01*
X-16657191Y-22357187D01*
X-16657188Y-22357190D01*
X-16542094Y-22443350D01*
X-16542087Y-22443354D01*
X-16407380Y-22493596D01*
X-16407373Y-22493598D01*
X-16347845Y-22499999D01*
X-16347828Y-22500000D01*
X-16050000Y-22500000D01*
X-15550000Y-22500000D01*
X-15252172Y-22500000D01*
X-15252156Y-22499999D01*
X-15192628Y-22493598D01*
X-15192621Y-22493596D01*
X-15057914Y-22443354D01*
X-15057907Y-22443350D01*
X-14942813Y-22357190D01*
X-14942810Y-22357187D01*
X-14856650Y-22242093D01*
X-14856646Y-22242086D01*
X-14806404Y-22107379D01*
X-14806402Y-22107372D01*
X-14800001Y-22047844D01*
X-14800000Y-22047827D01*
X-14800000Y-21750000D01*
X-15550000Y-21750000D01*
X-15550000Y-22500000D01*
X-16050000Y-22500000D01*
X-16050000Y-21750000D01*
X-16800000Y-21750000D01*
X-16800000Y-22047844D01*
X-28900001Y-22047844D01*
X-28900000Y-22047827D01*
X-28900000Y-21750000D01*
X-29650000Y-21750000D01*
X-29650000Y-22500000D01*
X-30150000Y-22500000D01*
X-30150000Y-21750000D01*
X-30900000Y-21750000D01*
X-30900000Y-22047844D01*
X-37599500Y-22047844D01*
X-37599500Y-21450272D01*
X-30150000Y-21450272D01*
X-30150000Y-21549728D01*
X-30111940Y-21641614D01*
X-30041614Y-21711940D01*
X-29949728Y-21750000D01*
X-29850272Y-21750000D01*
X-29758386Y-21711940D01*
X-29688060Y-21641614D01*
X-29650000Y-21549728D01*
X-29650000Y-21450272D01*
X-16050000Y-21450272D01*
X-16050000Y-21549728D01*
X-16011940Y-21641614D01*
X-15941614Y-21711940D01*
X-15849728Y-21750000D01*
X-15750272Y-21750000D01*
X-15658386Y-21711940D01*
X-15588060Y-21641614D01*
X-15550000Y-21549728D01*
X-15550000Y-21450272D01*
X-15588060Y-21358386D01*
X-15658386Y-21288060D01*
X-15750272Y-21250000D01*
X-15550000Y-21250000D01*
X-14800000Y-21250000D01*
X-14800000Y-20952172D01*
X-14800001Y-20952155D01*
X-14806402Y-20892627D01*
X-14806404Y-20892620D01*
X-14856646Y-20757913D01*
X-14856650Y-20757906D01*
X-14942810Y-20642812D01*
X-14942813Y-20642809D01*
X-15057907Y-20556649D01*
X-15057914Y-20556645D01*
X-15192621Y-20506403D01*
X-15192628Y-20506401D01*
X-15252156Y-20500000D01*
X-15550000Y-20500000D01*
X-15550000Y-21250000D01*
X-15750272Y-21250000D01*
X-15849728Y-21250000D01*
X-15941614Y-21288060D01*
X-16011940Y-21358386D01*
X-16050000Y-21450272D01*
X-29650000Y-21450272D01*
X-29688060Y-21358386D01*
X-29758386Y-21288060D01*
X-29850272Y-21250000D01*
X-29650000Y-21250000D01*
X-28900000Y-21250000D01*
X-28900000Y-20952172D01*
X-28900001Y-20952155D01*
X-16800000Y-20952155D01*
X-16800000Y-21250000D01*
X-16050000Y-21250000D01*
X-16050000Y-20500000D01*
X-16347845Y-20500000D01*
X-16407373Y-20506401D01*
X-16407380Y-20506403D01*
X-16542087Y-20556645D01*
X-16542094Y-20556649D01*
X-16657188Y-20642809D01*
X-16657191Y-20642812D01*
X-16743351Y-20757906D01*
X-16743355Y-20757913D01*
X-16793597Y-20892620D01*
X-16793599Y-20892627D01*
X-16800000Y-20952155D01*
X-28900001Y-20952155D01*
X-28906402Y-20892627D01*
X-28906404Y-20892620D01*
X-28956646Y-20757913D01*
X-28956650Y-20757906D01*
X-29042810Y-20642812D01*
X-29042813Y-20642809D01*
X-29157907Y-20556649D01*
X-29157914Y-20556645D01*
X-29292621Y-20506403D01*
X-29292628Y-20506401D01*
X-29352156Y-20500000D01*
X-29650000Y-20500000D01*
X-29650000Y-21250000D01*
X-29850272Y-21250000D01*
X-29949728Y-21250000D01*
X-30041614Y-21288060D01*
X-30111940Y-21358386D01*
X-30150000Y-21450272D01*
X-37599500Y-21450272D01*
X-37599500Y-20952155D01*
X-30900000Y-20952155D01*
X-30900000Y-21250000D01*
X-30150000Y-21250000D01*
X-30150000Y-20500000D01*
X-30447845Y-20500000D01*
X-30507373Y-20506401D01*
X-30507380Y-20506403D01*
X-30642087Y-20556645D01*
X-30642094Y-20556649D01*
X-30757188Y-20642809D01*
X-30757191Y-20642812D01*
X-30843351Y-20757906D01*
X-30843355Y-20757913D01*
X-30893597Y-20892620D01*
X-30893599Y-20892627D01*
X-30900000Y-20952155D01*
X-37599500Y-20952155D01*
X-37599500Y-6024000D01*
X-35205500Y-6024000D01*
X-35205500Y-8604500D01*
X-35205500Y-10576000D01*
X-35205499Y-10576009D01*
X-35193948Y-10683450D01*
X-35193946Y-10683462D01*
X-35182740Y-10734972D01*
X-35148617Y-10837497D01*
X-35148614Y-10837503D01*
X-35070829Y-10958537D01*
X-35070821Y-10958548D01*
X-35025077Y-11011340D01*
X-35025074Y-11011343D01*
X-35025070Y-11011347D01*
X-34916336Y-11105567D01*
X-34785459Y-11165338D01*
X-34718420Y-11185023D01*
X-34718416Y-11185024D01*
X-34576000Y-11205500D01*
X-34575997Y-11205500D01*
X-34380903Y-11205500D01*
X-34313864Y-11225185D01*
X-34268109Y-11277989D01*
X-34258165Y-11347147D01*
X-34268521Y-11381904D01*
X-34293901Y-11436330D01*
X-34293906Y-11436344D01*
X-34355062Y-11664586D01*
X-34355064Y-11664596D01*
X-34375659Y-11899999D01*
X-34375659Y-11900000D01*
X-34355064Y-12135403D01*
X-34355062Y-12135413D01*
X-34293906Y-12363655D01*
X-34293904Y-12363659D01*
X-34293903Y-12363663D01*
X-34227763Y-12505500D01*
X-34194035Y-12577830D01*
X-34194033Y-12577834D01*
X-34058499Y-12771395D01*
X-34058494Y-12771402D01*
X-33891403Y-12938493D01*
X-33891397Y-12938498D01*
X-33705842Y-13068425D01*
X-33662217Y-13123002D01*
X-33655023Y-13192500D01*
X-33686546Y-13254855D01*
X-33705842Y-13271575D01*
X-33891403Y-13401505D01*
X-34058495Y-13568597D01*
X-34194035Y-13762169D01*
X-34194036Y-13762171D01*
X-34293902Y-13976335D01*
X-34293906Y-13976344D01*
X-34355062Y-14204586D01*
X-34355064Y-14204596D01*
X-34375659Y-14439999D01*
X-34375659Y-14440000D01*
X-34355064Y-14675403D01*
X-34355062Y-14675413D01*
X-34293906Y-14903655D01*
X-34293904Y-14903659D01*
X-34293903Y-14903663D01*
X-34261664Y-14972799D01*
X-34194035Y-15117830D01*
X-34194033Y-15117834D01*
X-34108358Y-15240189D01*
X-34058495Y-15311401D01*
X-33891401Y-15478495D01*
X-33719631Y-15598770D01*
X-33705406Y-15608730D01*
X-33661781Y-15663307D01*
X-33654587Y-15732805D01*
X-33686110Y-15795160D01*
X-33705405Y-15811880D01*
X-33891078Y-15941890D01*
X-33891080Y-15941891D01*
X-34058109Y-16108920D01*
X-34058114Y-16108926D01*
X-34193600Y-16302420D01*
X-34193601Y-16302422D01*
X-34293430Y-16516507D01*
X-34293433Y-16516513D01*
X-34350636Y-16729999D01*
X-34350636Y-16730000D01*
X-33453012Y-16730000D01*
X-33485925Y-16787007D01*
X-33520000Y-16914174D01*
X-33520000Y-17045826D01*
X-33485925Y-17172993D01*
X-33453012Y-17230000D01*
X-34350636Y-17230000D01*
X-34293433Y-17443486D01*
X-34293430Y-17443492D01*
X-34193601Y-17657578D01*
X-34058106Y-17851082D01*
X-33891083Y-18018105D01*
X-33697579Y-18153600D01*
X-33483493Y-18253429D01*
X-33483484Y-18253433D01*
X-33270000Y-18310634D01*
X-33270000Y-17413012D01*
X-33212993Y-17445925D01*
X-33085826Y-17480000D01*
X-32954174Y-17480000D01*
X-32827007Y-17445925D01*
X-32770000Y-17413012D01*
X-32770000Y-18310633D01*
X-32556517Y-18253433D01*
X-32556508Y-18253429D01*
X-32342422Y-18153600D01*
X-32148918Y-18018105D01*
X-31981895Y-17851082D01*
X-31846400Y-17657578D01*
X-31746571Y-17443492D01*
X-31746568Y-17443486D01*
X-31689364Y-17230000D01*
X-32586988Y-17230000D01*
X-32554075Y-17172993D01*
X-32520000Y-17045826D01*
X-32520000Y-16914174D01*
X-32554075Y-16787007D01*
X-32586988Y-16730000D01*
X-31689364Y-16730000D01*
X-31689365Y-16729999D01*
X-31746568Y-16516513D01*
X-31746571Y-16516507D01*
X-31846400Y-16302422D01*
X-31846401Y-16302420D01*
X-31981887Y-16108926D01*
X-31981892Y-16108920D01*
X-32148922Y-15941890D01*
X-32334595Y-15811879D01*
X-32378220Y-15757302D01*
X-32385412Y-15687804D01*
X-32353890Y-15625449D01*
X-32334594Y-15608730D01*
X-32333003Y-15607616D01*
X-32148599Y-15478495D01*
X-31981505Y-15311401D01*
X-31933873Y-15243376D01*
X-31879296Y-15199751D01*
X-31832299Y-15190500D01*
X-30907236Y-15190500D01*
X-30840197Y-15210185D01*
X-30807971Y-15240187D01*
X-30771687Y-15288656D01*
X-30757548Y-15307543D01*
X-30757545Y-15307547D01*
X-30752395Y-15311402D01*
X-30717172Y-15337770D01*
X-30700190Y-15350482D01*
X-30658318Y-15406415D01*
X-30650500Y-15449749D01*
X-30650500Y-18073918D01*
X-30650500Y-18073920D01*
X-30650501Y-18073920D01*
X-30621660Y-18218907D01*
X-30621657Y-18218917D01*
X-30565087Y-18355490D01*
X-30565086Y-18355491D01*
X-30565084Y-18355495D01*
X-30558790Y-18364914D01*
X-30558789Y-18364917D01*
X-30482954Y-18478414D01*
X-30482948Y-18478421D01*
X-29348416Y-19612952D01*
X-29348414Y-19612954D01*
X-29318942Y-19632645D01*
X-29274730Y-19662186D01*
X-29225495Y-19695084D01*
X-29225494Y-19695084D01*
X-29225493Y-19695085D01*
X-29225491Y-19695086D01*
X-29088918Y-19751656D01*
X-29088913Y-19751658D01*
X-29088909Y-19751658D01*
X-29088908Y-19751659D01*
X-28943921Y-19780500D01*
X-28943918Y-19780500D01*
X-28943917Y-19780500D01*
X-28796083Y-19780500D01*
X-28613958Y-19780500D01*
X-28546919Y-19800185D01*
X-28508420Y-19839402D01*
X-28502713Y-19848655D01*
X-28436319Y-19915049D01*
X-28402834Y-19976372D01*
X-28400000Y-20002730D01*
X-28400000Y-20200000D01*
X-17300000Y-20200000D01*
X-17300000Y-20002731D01*
X-17280315Y-19935692D01*
X-17263681Y-19915050D01*
X-17263680Y-19915049D01*
X-17217288Y-19868657D01*
X-17125185Y-19719336D01*
X-17070001Y-19552800D01*
X-17059500Y-19450012D01*
X-17059500Y-17624500D01*
X-17039815Y-17557461D01*
X-16987011Y-17511706D01*
X-16935500Y-17500500D01*
X-16776080Y-17500500D01*
X-16673024Y-17480000D01*
X-16631087Y-17471658D01*
X-16494505Y-17415084D01*
X-16445271Y-17382186D01*
X-16371584Y-17332952D01*
X-15217049Y-16178416D01*
X-15134916Y-16055495D01*
X-15078342Y-15918913D01*
X-15057051Y-15811879D01*
X-15049500Y-15773920D01*
X-15049500Y-12899749D01*
X-15029815Y-12832710D01*
X-14999810Y-12800482D01*
X-14942454Y-12757546D01*
X-14901902Y-12703376D01*
X-14899515Y-12700188D01*
X-14843581Y-12658318D01*
X-14800249Y-12650500D01*
X-13887701Y-12650500D01*
X-13820662Y-12670185D01*
X-13786127Y-12703376D01*
X-13738495Y-12771401D01*
X-13571403Y-12938493D01*
X-13571397Y-12938498D01*
X-13385842Y-13068425D01*
X-13342217Y-13123002D01*
X-13335023Y-13192500D01*
X-13366546Y-13254855D01*
X-13385842Y-13271575D01*
X-13571403Y-13401505D01*
X-13738495Y-13568597D01*
X-13874035Y-13762169D01*
X-13874036Y-13762171D01*
X-13973902Y-13976335D01*
X-13973906Y-13976344D01*
X-14035062Y-14204586D01*
X-14035064Y-14204596D01*
X-14055659Y-14439999D01*
X-14055659Y-14440000D01*
X-14035064Y-14675403D01*
X-14035062Y-14675413D01*
X-13973906Y-14903655D01*
X-13973904Y-14903659D01*
X-13973903Y-14903663D01*
X-13941664Y-14972799D01*
X-13874035Y-15117830D01*
X-13874033Y-15117834D01*
X-13788358Y-15240189D01*
X-13738495Y-15311401D01*
X-13571401Y-15478495D01*
X-13399631Y-15598770D01*
X-13385406Y-15608730D01*
X-13341781Y-15663307D01*
X-13334587Y-15732805D01*
X-13366110Y-15795160D01*
X-13385405Y-15811880D01*
X-13571078Y-15941890D01*
X-13571080Y-15941891D01*
X-13738109Y-16108920D01*
X-13738114Y-16108926D01*
X-13873600Y-16302420D01*
X-13873601Y-16302422D01*
X-13973430Y-16516507D01*
X-13973433Y-16516513D01*
X-14030636Y-16729999D01*
X-14030636Y-16730000D01*
X-13133012Y-16730000D01*
X-13165925Y-16787007D01*
X-13200000Y-16914174D01*
X-13200000Y-17045826D01*
X-13165925Y-17172993D01*
X-13133012Y-17230000D01*
X-14030636Y-17230000D01*
X-13973433Y-17443486D01*
X-13973430Y-17443492D01*
X-13873601Y-17657578D01*
X-13738106Y-17851082D01*
X-13571083Y-18018105D01*
X-13377579Y-18153600D01*
X-13163493Y-18253429D01*
X-13163484Y-18253433D01*
X-12950000Y-18310634D01*
X-12950000Y-17413012D01*
X-12892993Y-17445925D01*
X-12765826Y-17480000D01*
X-12634174Y-17480000D01*
X-12507007Y-17445925D01*
X-12450000Y-17413012D01*
X-12450000Y-18310633D01*
X-12236517Y-18253433D01*
X-12236508Y-18253429D01*
X-12022422Y-18153600D01*
X-11828918Y-18018105D01*
X-11661895Y-17851082D01*
X-11526400Y-17657578D01*
X-11426571Y-17443492D01*
X-11426568Y-17443486D01*
X-11369364Y-17230000D01*
X-12266988Y-17230000D01*
X-12234075Y-17172993D01*
X-12200000Y-17045826D01*
X-12200000Y-16914174D01*
X-12234075Y-16787007D01*
X-12266988Y-16730000D01*
X-11369364Y-16730000D01*
X-11369365Y-16729999D01*
X-11426568Y-16516513D01*
X-11426571Y-16516507D01*
X-11526400Y-16302422D01*
X-11526401Y-16302420D01*
X-11661887Y-16108926D01*
X-11661892Y-16108920D01*
X-11828922Y-15941890D01*
X-12014595Y-15811879D01*
X-12058220Y-15757302D01*
X-12065412Y-15687804D01*
X-12033890Y-15625449D01*
X-12014594Y-15608730D01*
X-12013003Y-15607616D01*
X-11828599Y-15478495D01*
X-11661505Y-15311401D01*
X-11525965Y-15117830D01*
X-11426097Y-14903663D01*
X-11364937Y-14675408D01*
X-11344341Y-14440000D01*
X-11364937Y-14204592D01*
X-11411374Y-14031285D01*
X-11426095Y-13976344D01*
X-11426096Y-13976343D01*
X-11426097Y-13976337D01*
X-11525965Y-13762171D01*
X-11564127Y-13707669D01*
X-11661506Y-13568597D01*
X-11828598Y-13401506D01*
X-11828604Y-13401501D01*
X-12014158Y-13271575D01*
X-12057783Y-13216998D01*
X-12064977Y-13147500D01*
X-12033454Y-13085145D01*
X-12014158Y-13068425D01*
X-11946560Y-13021092D01*
X-11828599Y-12938495D01*
X-11661505Y-12771401D01*
X-11525965Y-12577830D01*
X-11426097Y-12363663D01*
X-11364937Y-12135408D01*
X-11344341Y-11900000D01*
X-11364937Y-11664592D01*
X-11426097Y-11436337D01*
X-11525965Y-11222171D01*
X-11537639Y-11205499D01*
X-11661504Y-11028600D01*
X-11678764Y-11011340D01*
X-11783433Y-10906671D01*
X-11816916Y-10845351D01*
X-11811932Y-10775659D01*
X-11770061Y-10719725D01*
X-11739085Y-10702810D01*
X-11607669Y-10653796D01*
X-11492454Y-10567546D01*
X-11406204Y-10452331D01*
X-11355909Y-10317483D01*
X-11349500Y-10257873D01*
X-11349501Y-8769774D01*
X-11329816Y-8702736D01*
X-11277013Y-8656981D01*
X-11260436Y-8650798D01*
X-11249528Y-8647594D01*
X-11162496Y-8622040D01*
X-11041457Y-8544252D01*
X-10988653Y-8498497D01*
X-10894433Y-8389763D01*
X-10834662Y-8258886D01*
X-10814977Y-8191847D01*
X-10814976Y-8191843D01*
X-10794500Y-8049427D01*
X-10794500Y-6024000D01*
X-10806053Y-5916544D01*
X-10817259Y-5865033D01*
X-10817363Y-5864722D01*
X-10851384Y-5762502D01*
X-10851387Y-5762496D01*
X-10929172Y-5641462D01*
X-10929175Y-5641457D01*
X-10929180Y-5641451D01*
X-10974924Y-5588659D01*
X-10974928Y-5588656D01*
X-10974930Y-5588653D01*
X-11083664Y-5494433D01*
X-11083667Y-5494431D01*
X-11083669Y-5494430D01*
X-11214535Y-5434664D01*
X-11214540Y-5434662D01*
X-11214541Y-5434662D01*
X-11281580Y-5414977D01*
X-11281578Y-5414977D01*
X-11281583Y-5414976D01*
X-11343653Y-5406052D01*
X-11424000Y-5394500D01*
X-22476000Y-5394500D01*
X-22476009Y-5394500D01*
X-22476010Y-5394501D01*
X-22583451Y-5406052D01*
X-22583463Y-5406054D01*
X-22634970Y-5417259D01*
X-22697746Y-5438154D01*
X-22736906Y-5444500D01*
X-22850003Y-5444500D01*
X-22921939Y-5449644D01*
X-22921944Y-5449645D01*
X-22959265Y-5460603D01*
X-23011842Y-5464363D01*
X-23149999Y-5444500D01*
X-23150000Y-5444500D01*
X-23266024Y-5444500D01*
X-23309915Y-5434947D01*
X-23310386Y-5436211D01*
X-23314527Y-5434666D01*
X-23381583Y-5414976D01*
X-23443653Y-5406052D01*
X-23524000Y-5394500D01*
X-34576000Y-5394500D01*
X-34576009Y-5394500D01*
X-34576010Y-5394501D01*
X-34683451Y-5406052D01*
X-34683463Y-5406054D01*
X-34734973Y-5417260D01*
X-34837498Y-5451383D01*
X-34837504Y-5451386D01*
X-34958538Y-5529171D01*
X-34958549Y-5529179D01*
X-35011341Y-5574923D01*
X-35105567Y-5683664D01*
X-35105570Y-5683668D01*
X-35165336Y-5814534D01*
X-35185024Y-5881582D01*
X-35190051Y-5916549D01*
X-35205500Y-6024000D01*
X-37599500Y-6024000D01*
X-37599500Y-4544427D01*
X-37599184Y-4535581D01*
X-37584870Y-4335443D01*
X-37584869Y-4335442D01*
X-37584870Y-4335436D01*
X-37582354Y-4317938D01*
X-37540644Y-4126199D01*
X-37535667Y-4109248D01*
X-37467089Y-3925385D01*
X-37459741Y-3909298D01*
X-37397185Y-3794734D01*
X-37365709Y-3737089D01*
X-37356155Y-3722221D01*
X-37238552Y-3565123D01*
X-37226980Y-3551769D01*
X-37088231Y-3413020D01*
X-37074877Y-3401448D01*
X-36917779Y-3283845D01*
X-36902911Y-3274291D01*
X-36730702Y-3180258D01*
X-36714615Y-3172911D01*
X-36530752Y-3104333D01*
X-36513801Y-3099356D01*
X-36322062Y-3057646D01*
X-36304564Y-3055130D01*
X-36104418Y-3040816D01*
X-36095572Y-3040500D01*
X-36034108Y-3040500D01*
X-9685892Y-3040500D01*
X-9624428Y-3040500D01*
X-9615582Y-3040816D01*
G37*
%TD.AperFunction*%
%TD*%
D22*
X-21000000Y-24000000D03*
X-27000000Y-24000000D03*
X-29000000Y-4000000D03*
X-27000000Y-4000000D03*
X-9000000Y-8000000D03*
X-13000000Y-24000000D03*
X-21000000Y-4000000D03*
X-9000000Y-12000000D03*
X-37000000Y-6000000D03*
X-25000000Y-4000000D03*
X-37000000Y-4000000D03*
X-17000000Y-13000000D03*
X-9000000Y-16000000D03*
X-37000000Y-20000000D03*
X-9000000Y-22000000D03*
X-11000000Y-24000000D03*
X-37000000Y-10000000D03*
X-35000000Y-4000000D03*
X-26300000Y-12200000D03*
X-13000000Y-4000000D03*
X-15000000Y-4000000D03*
X-9000000Y-20000000D03*
X-9000000Y-14000000D03*
X-37000000Y-18000000D03*
X-9000000Y-10000000D03*
X-19000000Y-24000000D03*
X-35000000Y-24000000D03*
X-37000000Y-12000000D03*
X-17000000Y-24000000D03*
X-19000000Y-4000000D03*
X-20100000Y-10900000D03*
X-37000000Y-22000000D03*
X-25000000Y-24000000D03*
X-33000000Y-4000000D03*
X-31000000Y-4000000D03*
X-31000000Y-24000000D03*
X-33000000Y-24000000D03*
X-37000000Y-14000000D03*
X-25900000Y-11000000D03*
X-16800000Y-15200000D03*
X-9000000Y-4000000D03*
X-37000000Y-8000000D03*
X-15000000Y-24000000D03*
X-11000000Y-4000000D03*
X-29000000Y-24000000D03*
X-9000000Y-6000000D03*
X-23000000Y-24000000D03*
X-9000000Y-24000000D03*
X-23000000Y-4000000D03*
X-17000000Y-4000000D03*
X-9000000Y-18000000D03*
X-37000000Y-16000000D03*
X-37000000Y-24000000D03*
D23*
X-29900000Y-11900000D03*
X-27300000Y-10900000D03*
X-18700000Y-10900000D03*
X-18700000Y-8900000D03*
X-15800000Y-11900000D03*
X-29900000Y-21500000D03*
X-29900000Y-14450000D03*
X-15800000Y-21500000D03*
X-27300000Y-8900000D03*
X-12700000Y-9360000D03*
X-12700000Y-11900000D03*
X-12700000Y-14440000D03*
X-12700000Y-16980000D03*
X-33020000Y-9360000D03*
X-33020000Y-11900000D03*
X-33020000Y-14440000D03*
X-33020000Y-16980000D03*
M02*
