%TF.GenerationSoftware,KiCad,Pcbnew,8.0.3*%
%TF.CreationDate,2024-08-11T06:13:30+12:00*%
%TF.ProjectId,soic-8,736f6963-2d38-42e6-9b69-6361645f7063,rev?*%
%TF.SameCoordinates,Original*%
%TF.FileFunction,Copper,L1,Top*%
%TF.FilePolarity,Positive*%
%FSLAX46Y46*%
G04 Gerber Fmt 4.6, Leading zero omitted, Abs format (unit mm)*
G04 Created by KiCad (PCBNEW 8.0.3) date 2024-08-11 06:13:30*
%MOMM*%
%LPD*%
G01*
G04 APERTURE LIST*
G04 Aperture macros list*
%AMRoundRect*
0 Rectangle with rounded corners*
0 $1 Rounding radius*
0 $2 $3 $4 $5 $6 $7 $8 $9 X,Y pos of 4 corners*
0 Add a 4 corners polygon primitive as box body*
4,1,4,$2,$3,$4,$5,$6,$7,$8,$9,$2,$3,0*
0 Add four circle primitives for the rounded corners*
1,1,$1+$1,$2,$3*
1,1,$1+$1,$4,$5*
1,1,$1+$1,$6,$7*
1,1,$1+$1,$8,$9*
0 Add four rect primitives between the rounded corners*
20,1,$1+$1,$2,$3,$4,$5,0*
20,1,$1+$1,$4,$5,$6,$7,0*
20,1,$1+$1,$6,$7,$8,$9,0*
20,1,$1+$1,$8,$9,$2,$3,0*%
%AMFreePoly0*
4,1,19,0.500000,-0.750000,0.000000,-0.750000,0.000000,-0.744911,-0.071157,-0.744911,-0.207708,-0.704816,-0.327430,-0.627875,-0.420627,-0.520320,-0.479746,-0.390866,-0.500000,-0.250000,-0.500000,0.250000,-0.479746,0.390866,-0.420627,0.520320,-0.327430,0.627875,-0.207708,0.704816,-0.071157,0.744911,0.000000,0.744911,0.000000,0.750000,0.500000,0.750000,0.500000,-0.750000,0.500000,-0.750000,
$1*%
%AMFreePoly1*
4,1,19,0.000000,0.744911,0.071157,0.744911,0.207708,0.704816,0.327430,0.627875,0.420627,0.520320,0.479746,0.390866,0.500000,0.250000,0.500000,-0.250000,0.479746,-0.390866,0.420627,-0.520320,0.327430,-0.627875,0.207708,-0.704816,0.071157,-0.744911,0.000000,-0.744911,0.000000,-0.750000,-0.500000,-0.750000,-0.500000,0.750000,0.000000,0.750000,0.000000,0.744911,0.000000,0.744911,
$1*%
G04 Aperture macros list end*
%TA.AperFunction,EtchedComponent*%
%ADD10C,0.000000*%
%TD*%
%TA.AperFunction,ComponentPad*%
%ADD11R,1.000000X1.000000*%
%TD*%
%TA.AperFunction,SMDPad,CuDef*%
%ADD12RoundRect,0.250000X-0.475000X0.337500X-0.475000X-0.337500X0.475000X-0.337500X0.475000X0.337500X0*%
%TD*%
%TA.AperFunction,SMDPad,CuDef*%
%ADD13RoundRect,0.150000X-0.825000X-0.150000X0.825000X-0.150000X0.825000X0.150000X-0.825000X0.150000X0*%
%TD*%
%TA.AperFunction,HeatsinkPad*%
%ADD14C,0.500000*%
%TD*%
%TA.AperFunction,HeatsinkPad*%
%ADD15R,2.410000X3.810000*%
%TD*%
%TA.AperFunction,SMDPad,CuDef*%
%ADD16FreePoly0,0.000000*%
%TD*%
%TA.AperFunction,SMDPad,CuDef*%
%ADD17FreePoly1,0.000000*%
%TD*%
%TA.AperFunction,ComponentPad*%
%ADD18R,1.700000X1.700000*%
%TD*%
%TA.AperFunction,ComponentPad*%
%ADD19O,1.700000X1.700000*%
%TD*%
%TA.AperFunction,ViaPad*%
%ADD20C,0.600000*%
%TD*%
%TA.AperFunction,ViaPad*%
%ADD21C,0.400000*%
%TD*%
%TA.AperFunction,Conductor*%
%ADD22C,0.200000*%
%TD*%
%ADD23C,0.300000*%
%ADD24C,0.200000*%
%ADD25C,0.350000*%
G04 APERTURE END LIST*
D10*
%TA.AperFunction,EtchedComponent*%
%TO.C,JP101*%
G36*
X-22750000Y-9100000D02*
G01*
X-23250000Y-9100000D01*
X-23250000Y-8500000D01*
X-22750000Y-8500000D01*
X-22750000Y-9100000D01*
G37*
%TD.AperFunction*%
%TD*%
D11*
%TO.P,TP105,1,1*%
%TO.N,Net-(J101-Pin_2)*%
X-28500000Y-13800000D03*
%TD*%
D12*
%TO.P,C101,1*%
%TO.N,Net-(J101-Pin_1)*%
X-24360000Y-11762500D03*
%TO.P,C101,2*%
%TO.N,GND*%
X-24360000Y-13837500D03*
%TD*%
D11*
%TO.P,TP102,1,1*%
%TO.N,Net-(J101-Pin_1)*%
X-28500000Y-10600000D03*
%TD*%
%TO.P,TP103,1,1*%
%TO.N,Net-(J102-Pin_1)*%
X-17700000Y-10600000D03*
%TD*%
%TO.P,TP104,1,1*%
%TO.N,Net-(J102-Pin_1)*%
X-17700000Y-8600000D03*
%TD*%
%TO.P,TP107,1,1*%
%TO.N,Net-(J101-Pin_4)*%
X-28500000Y-17800000D03*
%TD*%
D13*
%TO.P,U101,1,1*%
%TO.N,Net-(J101-Pin_2)*%
X-25585000Y-15995000D03*
%TO.P,U101,2,2*%
%TO.N,Net-(J101-Pin_3)*%
X-25585000Y-17265000D03*
%TO.P,U101,3,3*%
%TO.N,Net-(J101-Pin_4)*%
X-25585000Y-18535000D03*
%TO.P,U101,4,4*%
%TO.N,Net-(J101-Pin_5)*%
X-25585000Y-19805000D03*
%TO.P,U101,5,5*%
%TO.N,Net-(J102-Pin_5)*%
X-20635000Y-19805000D03*
%TO.P,U101,6,6*%
%TO.N,Net-(J102-Pin_4)*%
X-20635000Y-18535000D03*
%TO.P,U101,7,7*%
%TO.N,Net-(J102-Pin_3)*%
X-20635000Y-17265000D03*
%TO.P,U101,8,8*%
%TO.N,Net-(J102-Pin_2)*%
X-20635000Y-15995000D03*
D14*
%TO.P,U101,9,PAD*%
%TO.N,GND*%
X-23810000Y-16500000D03*
X-23810000Y-17900000D03*
X-23810000Y-19300000D03*
D15*
X-23110000Y-17900000D03*
D14*
X-22410000Y-16500000D03*
X-22410000Y-17900000D03*
X-22410000Y-19300000D03*
%TD*%
D11*
%TO.P,TP113,1,1*%
%TO.N,GND*%
X-28500000Y-22500000D03*
%TD*%
%TO.P,TP108,1,1*%
%TO.N,Net-(J101-Pin_5)*%
X-28500000Y-19800000D03*
%TD*%
%TO.P,TP110,1,1*%
%TO.N,Net-(J102-Pin_4)*%
X-17700000Y-17800000D03*
%TD*%
%TO.P,TP111,1,1*%
%TO.N,Net-(J102-Pin_3)*%
X-17700000Y-15800000D03*
%TD*%
%TO.P,TP109,1,1*%
%TO.N,Net-(J102-Pin_5)*%
X-17700000Y-19800000D03*
%TD*%
%TO.P,TP112,1,1*%
%TO.N,Net-(J102-Pin_2)*%
X-17700000Y-13800000D03*
%TD*%
%TO.P,TP114,1,1*%
%TO.N,GND*%
X-17700000Y-22500000D03*
%TD*%
D12*
%TO.P,C102,1*%
%TO.N,Net-(J102-Pin_1)*%
X-21640000Y-11762500D03*
%TO.P,C102,2*%
%TO.N,GND*%
X-21640000Y-13837500D03*
%TD*%
D11*
%TO.P,TP106,1,1*%
%TO.N,Net-(J101-Pin_3)*%
X-28500000Y-15800000D03*
%TD*%
D16*
%TO.P,JP101,1,A*%
%TO.N,Net-(J101-Pin_1)*%
X-23650000Y-8800000D03*
D17*
%TO.P,JP101,2,B*%
%TO.N,Net-(J102-Pin_1)*%
X-22350000Y-8800000D03*
%TD*%
D11*
%TO.P,TP101,1,1*%
%TO.N,Net-(J101-Pin_1)*%
X-28500000Y-8600000D03*
%TD*%
D18*
%TO.P,J102,1,Pin_1*%
%TO.N,Net-(J102-Pin_1)*%
X-14220000Y-9380000D03*
D19*
%TO.P,J102,2,Pin_2*%
%TO.N,Net-(J102-Pin_2)*%
X-14220000Y-11920000D03*
%TO.P,J102,3,Pin_3*%
%TO.N,Net-(J102-Pin_3)*%
X-14220000Y-14460000D03*
%TO.P,J102,4,Pin_4*%
%TO.N,Net-(J102-Pin_4)*%
X-14220000Y-17000000D03*
%TO.P,J102,5,Pin_5*%
%TO.N,Net-(J102-Pin_5)*%
X-14220000Y-19540000D03*
%TO.P,J102,6,Pin_6*%
%TO.N,GND*%
X-14220000Y-22080000D03*
%TD*%
D18*
%TO.P,J101,1,Pin_1*%
%TO.N,Net-(J101-Pin_1)*%
X-32000000Y-9380000D03*
D19*
%TO.P,J101,2,Pin_2*%
%TO.N,Net-(J101-Pin_2)*%
X-32000000Y-11920000D03*
%TO.P,J101,3,Pin_3*%
%TO.N,Net-(J101-Pin_3)*%
X-32000000Y-14460000D03*
%TO.P,J101,4,Pin_4*%
%TO.N,Net-(J101-Pin_4)*%
X-32000000Y-17000000D03*
%TO.P,J101,5,Pin_5*%
%TO.N,Net-(J101-Pin_5)*%
X-32000000Y-19540000D03*
%TO.P,J101,6,Pin_6*%
%TO.N,GND*%
X-32000000Y-22080000D03*
%TD*%
D20*
%TO.N,GND*%
X-21000000Y-24000000D03*
X-35000000Y-24000000D03*
D21*
X-20500000Y-13840380D03*
D20*
X-27000000Y-24000000D03*
D21*
X-26000000Y-14900000D03*
D20*
X-29000000Y-6000000D03*
D21*
X-23000000Y-12800000D03*
X-19000000Y-13000000D03*
X-27200000Y-13000000D03*
D20*
X-10000000Y-22000000D03*
X-27000000Y-6000000D03*
X-13000000Y-24000000D03*
X-21000000Y-6000000D03*
X-25000000Y-6000000D03*
X-10000000Y-8000000D03*
X-36000000Y-20000000D03*
D21*
X-23000000Y-11200000D03*
D20*
X-36000000Y-10000000D03*
D21*
X-25437500Y-13837500D03*
D20*
X-13000000Y-6000000D03*
X-15000000Y-6000000D03*
X-36000000Y-18000000D03*
X-10000000Y-12000000D03*
X-35000000Y-6000000D03*
X-19000000Y-24000000D03*
X-36000000Y-12000000D03*
D21*
X-23000000Y-14800000D03*
D20*
X-17000000Y-24000000D03*
X-19000000Y-6000000D03*
X-25000000Y-24000000D03*
X-33000000Y-6000000D03*
X-11000000Y-24000000D03*
X-31000000Y-6000000D03*
D21*
X-25800000Y-13100000D03*
D20*
X-31000000Y-24000000D03*
X-33000000Y-24000000D03*
X-10000000Y-14000000D03*
X-36000000Y-14000000D03*
X-11000000Y-6000000D03*
X-36000000Y-8000000D03*
X-15000000Y-24000000D03*
X-10000000Y-20000000D03*
D21*
X-20000000Y-14900000D03*
D20*
X-29000000Y-24000000D03*
D21*
X-20200000Y-13100000D03*
D20*
X-10000000Y-10000000D03*
X-23000000Y-24000000D03*
X-36000000Y-22000000D03*
X-23000000Y-6000000D03*
X-17000000Y-6000000D03*
X-10000000Y-18000000D03*
X-36000000Y-16000000D03*
X-10000000Y-16000000D03*
%TD*%
D22*
%TO.N,Net-(J101-Pin_4)*%
X-28500000Y-17800000D02*
X-29300000Y-17800000D01*
X-30060000Y-17040000D02*
X-32000000Y-17040000D01*
X-29300000Y-17800000D02*
X-30060000Y-17040000D01*
X-28500000Y-17800000D02*
X-27700000Y-17800000D01*
X-26965000Y-18535000D02*
X-25475000Y-18535000D01*
X-27700000Y-17800000D02*
X-26965000Y-18535000D01*
%TO.N,Net-(J101-Pin_2)*%
X-30540000Y-11960000D02*
X-32000000Y-11960000D01*
X-27400000Y-13800000D02*
X-28500000Y-13800000D01*
X-28500000Y-13800000D02*
X-29700000Y-13800000D01*
X-25475000Y-15995000D02*
X-26505000Y-15995000D01*
X-26705000Y-15995000D02*
X-25585000Y-15995000D01*
X-27100000Y-14100000D02*
X-27400000Y-13800000D01*
X-27100000Y-15600000D02*
X-27100000Y-14100000D01*
X-30200000Y-12300000D02*
X-30540000Y-11960000D01*
X-26705000Y-15995000D02*
X-27100000Y-15600000D01*
X-29700000Y-13800000D02*
X-30200000Y-13300000D01*
X-30200000Y-13300000D02*
X-30200000Y-12300000D01*
%TO.N,Net-(J101-Pin_3)*%
X-28300000Y-15800000D02*
X-29900000Y-15800000D01*
X-29900000Y-15800000D02*
X-30200000Y-15500000D01*
X-27400000Y-16200000D02*
X-27400000Y-17000000D01*
X-30200000Y-15500000D02*
X-30200000Y-14750000D01*
X-30450000Y-14500000D02*
X-32000000Y-14500000D01*
X-27135000Y-17265000D02*
X-25475000Y-17265000D01*
X-30200000Y-14750000D02*
X-30450000Y-14500000D01*
X-27800000Y-15800000D02*
X-27400000Y-16200000D01*
X-27400000Y-17000000D02*
X-27135000Y-17265000D01*
X-28500000Y-15800000D02*
X-27800000Y-15800000D01*
%TO.N,Net-(J102-Pin_2)*%
X-15800000Y-12200000D02*
X-15800000Y-13400000D01*
X-15800000Y-13400000D02*
X-16200000Y-13800000D01*
X-19100000Y-15600000D02*
X-19100000Y-14000000D01*
X-20525000Y-15995000D02*
X-19495000Y-15995000D01*
X-19495000Y-15995000D02*
X-19100000Y-15600000D01*
X-16200000Y-13800000D02*
X-17700000Y-13800000D01*
X-19100000Y-14000000D02*
X-18900000Y-13800000D01*
X-18900000Y-13800000D02*
X-17700000Y-13800000D01*
X-14000000Y-11920000D02*
X-15520000Y-11920000D01*
X-15520000Y-11920000D02*
X-15800000Y-12200000D01*
%TO.N,Net-(J102-Pin_3)*%
X-18800000Y-16200000D02*
X-18400000Y-15800000D01*
X-15800000Y-15500000D02*
X-15800000Y-14700000D01*
X-18800000Y-17000000D02*
X-18800000Y-16200000D01*
X-20525000Y-17265000D02*
X-19065000Y-17265000D01*
X-15800000Y-14700000D02*
X-15560000Y-14460000D01*
X-18400000Y-15800000D02*
X-17700000Y-15800000D01*
X-17700000Y-15800000D02*
X-16100000Y-15800000D01*
X-15560000Y-14460000D02*
X-14000000Y-14460000D01*
X-19065000Y-17265000D02*
X-18800000Y-17000000D01*
X-16100000Y-15800000D02*
X-15800000Y-15500000D01*
%TO.N,Net-(J102-Pin_4)*%
X-17700000Y-17800000D02*
X-16700000Y-17800000D01*
X-19235000Y-18535000D02*
X-18500000Y-17800000D01*
X-15900000Y-17000000D02*
X-14000000Y-17000000D01*
X-16700000Y-17800000D02*
X-15900000Y-17000000D01*
X-18500000Y-17800000D02*
X-17700000Y-17800000D01*
X-20525000Y-18535000D02*
X-19235000Y-18535000D01*
%TO.N,Net-(J101-Pin_5)*%
X-30120000Y-19580000D02*
X-32000000Y-19580000D01*
X-28495000Y-19805000D02*
X-28500000Y-19800000D01*
X-25475000Y-19805000D02*
X-28495000Y-19805000D01*
X-29900000Y-19800000D02*
X-30120000Y-19580000D01*
X-28500000Y-19800000D02*
X-29900000Y-19800000D01*
%TO.N,Net-(J102-Pin_5)*%
X-17705000Y-19805000D02*
X-17700000Y-19800000D01*
X-18005000Y-19805000D02*
X-18000000Y-19800000D01*
X-20525000Y-19805000D02*
X-17705000Y-19805000D01*
X-15840000Y-19540000D02*
X-14000000Y-19540000D01*
X-16100000Y-19800000D02*
X-15840000Y-19540000D01*
X-17700000Y-19800000D02*
X-16100000Y-19800000D01*
%TD*%
%TA.AperFunction,Conductor*%
%TO.N,Net-(J101-Pin_1)*%
G36*
X-23456961Y-7119685D02*
G01*
X-23411206Y-7172489D01*
X-23400000Y-7224000D01*
X-23400000Y-10562703D01*
X-23419685Y-10629742D01*
X-23441773Y-10655518D01*
X-23492037Y-10700048D01*
X-23555270Y-10729770D01*
X-23613268Y-10724939D01*
X-23732303Y-10685494D01*
X-23732310Y-10685493D01*
X-23835014Y-10675000D01*
X-24110000Y-10675000D01*
X-24110000Y-11888500D01*
X-24129685Y-11955539D01*
X-24182489Y-12001294D01*
X-24234000Y-12012500D01*
X-25584999Y-12012500D01*
X-25584999Y-12149984D01*
X-25583628Y-12163397D01*
X-25596397Y-12232090D01*
X-25644277Y-12282975D01*
X-25706986Y-12300000D01*
X-27103325Y-12300000D01*
X-27111597Y-12299500D01*
X-27114944Y-12299500D01*
X-27285056Y-12299500D01*
X-27288403Y-12299500D01*
X-27296675Y-12300000D01*
X-29176000Y-12300000D01*
X-29243039Y-12280315D01*
X-29288794Y-12227511D01*
X-29300000Y-12176000D01*
X-29300000Y-11700347D01*
X-29280315Y-11633308D01*
X-29227511Y-11587553D01*
X-29158353Y-11577609D01*
X-29132666Y-11584165D01*
X-29107377Y-11593597D01*
X-29107373Y-11593598D01*
X-29047845Y-11599999D01*
X-29047828Y-11600000D01*
X-28750000Y-11600000D01*
X-28250000Y-11600000D01*
X-27952172Y-11600000D01*
X-27952156Y-11599999D01*
X-27892628Y-11593598D01*
X-27892621Y-11593596D01*
X-27757914Y-11543354D01*
X-27757907Y-11543350D01*
X-27642813Y-11457190D01*
X-27642810Y-11457187D01*
X-27581294Y-11375013D01*
X-25585000Y-11375013D01*
X-25585000Y-11512500D01*
X-24610000Y-11512500D01*
X-24610000Y-10675000D01*
X-24884971Y-10675000D01*
X-24884988Y-10675001D01*
X-24987698Y-10685494D01*
X-25154120Y-10740641D01*
X-25154125Y-10740643D01*
X-25303346Y-10832684D01*
X-25427316Y-10956654D01*
X-25519357Y-11105875D01*
X-25519359Y-11105880D01*
X-25574506Y-11272302D01*
X-25574507Y-11272309D01*
X-25585000Y-11375013D01*
X-27581294Y-11375013D01*
X-27556650Y-11342093D01*
X-27556646Y-11342086D01*
X-27506404Y-11207379D01*
X-27506402Y-11207372D01*
X-27500001Y-11147844D01*
X-27500000Y-11147827D01*
X-27500000Y-10850000D01*
X-28250000Y-10850000D01*
X-28250000Y-11600000D01*
X-28750000Y-11600000D01*
X-28750000Y-10649728D01*
X-28711940Y-10741614D01*
X-28641614Y-10811940D01*
X-28549728Y-10850000D01*
X-28450272Y-10850000D01*
X-28358386Y-10811940D01*
X-28288060Y-10741614D01*
X-28250000Y-10649728D01*
X-28250000Y-10550272D01*
X-28288060Y-10458386D01*
X-28358386Y-10388060D01*
X-28450272Y-10350000D01*
X-28250000Y-10350000D01*
X-27500000Y-10350000D01*
X-27500000Y-10052172D01*
X-27500001Y-10052155D01*
X-27506402Y-9992627D01*
X-27506404Y-9992620D01*
X-27556646Y-9857913D01*
X-27556650Y-9857906D01*
X-27642810Y-9742813D01*
X-27700979Y-9699267D01*
X-27742850Y-9643333D01*
X-27747834Y-9573641D01*
X-27714349Y-9512318D01*
X-27700979Y-9500733D01*
X-27642810Y-9457186D01*
X-27556650Y-9342093D01*
X-27556646Y-9342086D01*
X-27506404Y-9207379D01*
X-27506402Y-9207372D01*
X-27500001Y-9147844D01*
X-27500000Y-9147827D01*
X-27500000Y-8850000D01*
X-28250000Y-8850000D01*
X-28250000Y-10350000D01*
X-28450272Y-10350000D01*
X-28549728Y-10350000D01*
X-28641614Y-10388060D01*
X-28711940Y-10458386D01*
X-28750000Y-10550272D01*
X-28750000Y-8850000D01*
X-29500000Y-8850000D01*
X-29500000Y-9147844D01*
X-29493599Y-9207372D01*
X-29493597Y-9207379D01*
X-29443355Y-9342086D01*
X-29443351Y-9342093D01*
X-29357191Y-9457187D01*
X-29299021Y-9500734D01*
X-29257151Y-9556668D01*
X-29252167Y-9626360D01*
X-29285653Y-9687683D01*
X-29299021Y-9699266D01*
X-29357191Y-9742812D01*
X-29443351Y-9857906D01*
X-29443355Y-9857913D01*
X-29493597Y-9992620D01*
X-29493599Y-9992627D01*
X-29500000Y-10052155D01*
X-29500000Y-10076000D01*
X-29519685Y-10143039D01*
X-29572489Y-10188794D01*
X-29624000Y-10200000D01*
X-30526000Y-10200000D01*
X-30593039Y-10180315D01*
X-30638794Y-10127511D01*
X-30650000Y-10076000D01*
X-30650000Y-9630000D01*
X-31566988Y-9630000D01*
X-31534075Y-9572993D01*
X-31500000Y-9445826D01*
X-31500000Y-9314174D01*
X-31534075Y-9187007D01*
X-31566988Y-9130000D01*
X-30650000Y-9130000D01*
X-30650000Y-8550272D01*
X-28750000Y-8550272D01*
X-28750000Y-8649728D01*
X-28711940Y-8741614D01*
X-28641614Y-8811940D01*
X-28549728Y-8850000D01*
X-28450272Y-8850000D01*
X-28358386Y-8811940D01*
X-28288060Y-8741614D01*
X-28250000Y-8649728D01*
X-28250000Y-8550272D01*
X-28288060Y-8458386D01*
X-28358386Y-8388060D01*
X-28450272Y-8350000D01*
X-28250000Y-8350000D01*
X-27500000Y-8350000D01*
X-27500000Y-8052172D01*
X-27500001Y-8052155D01*
X-27506402Y-7992627D01*
X-27506404Y-7992620D01*
X-27556646Y-7857913D01*
X-27556650Y-7857906D01*
X-27642810Y-7742812D01*
X-27642813Y-7742809D01*
X-27757907Y-7656649D01*
X-27757914Y-7656645D01*
X-27892621Y-7606403D01*
X-27892628Y-7606401D01*
X-27952156Y-7600000D01*
X-28250000Y-7600000D01*
X-28250000Y-8350000D01*
X-28450272Y-8350000D01*
X-28549728Y-8350000D01*
X-28641614Y-8388060D01*
X-28711940Y-8458386D01*
X-28750000Y-8550272D01*
X-30650000Y-8550272D01*
X-30650000Y-8482172D01*
X-30650001Y-8482155D01*
X-30656402Y-8422627D01*
X-30656404Y-8422620D01*
X-30706646Y-8287913D01*
X-30706650Y-8287906D01*
X-30792810Y-8172812D01*
X-30792813Y-8172809D01*
X-30907907Y-8086649D01*
X-30907914Y-8086645D01*
X-31000387Y-8052155D01*
X-29500000Y-8052155D01*
X-29500000Y-8350000D01*
X-28750000Y-8350000D01*
X-28750000Y-7600000D01*
X-29047845Y-7600000D01*
X-29107373Y-7606401D01*
X-29107380Y-7606403D01*
X-29242087Y-7656645D01*
X-29242094Y-7656649D01*
X-29357188Y-7742809D01*
X-29357191Y-7742812D01*
X-29443351Y-7857906D01*
X-29443355Y-7857913D01*
X-29493597Y-7992620D01*
X-29493599Y-7992627D01*
X-29500000Y-8052155D01*
X-31000387Y-8052155D01*
X-31042621Y-8036403D01*
X-31042628Y-8036401D01*
X-31102156Y-8030000D01*
X-31750000Y-8030000D01*
X-31750000Y-8946988D01*
X-31807007Y-8914075D01*
X-31934174Y-8880000D01*
X-32065826Y-8880000D01*
X-32192993Y-8914075D01*
X-32250000Y-8946988D01*
X-32250000Y-8030000D01*
X-32376000Y-8030000D01*
X-32443039Y-8010315D01*
X-32488794Y-7957511D01*
X-32500000Y-7906000D01*
X-32500000Y-7224000D01*
X-32480315Y-7156961D01*
X-32427511Y-7111206D01*
X-32376000Y-7100000D01*
X-23524000Y-7100000D01*
X-23456961Y-7119685D01*
G37*
%TD.AperFunction*%
%TD*%
%TA.AperFunction,Conductor*%
%TO.N,Net-(J102-Pin_1)*%
G36*
X-13556961Y-7119685D02*
G01*
X-13511206Y-7172489D01*
X-13500000Y-7224000D01*
X-13500000Y-7906000D01*
X-13519685Y-7973039D01*
X-13572489Y-8018794D01*
X-13624000Y-8030000D01*
X-13970000Y-8030000D01*
X-13970000Y-8946988D01*
X-14027007Y-8914075D01*
X-14154174Y-8880000D01*
X-14285826Y-8880000D01*
X-14412993Y-8914075D01*
X-14470000Y-8946988D01*
X-14470000Y-8030000D01*
X-15117845Y-8030000D01*
X-15177373Y-8036401D01*
X-15177380Y-8036403D01*
X-15312087Y-8086645D01*
X-15312094Y-8086649D01*
X-15427188Y-8172809D01*
X-15427191Y-8172812D01*
X-15513351Y-8287906D01*
X-15513355Y-8287913D01*
X-15563597Y-8422620D01*
X-15563599Y-8422627D01*
X-15570000Y-8482155D01*
X-15570000Y-9130000D01*
X-14653012Y-9130000D01*
X-14685925Y-9187007D01*
X-14720000Y-9314174D01*
X-14720000Y-9445826D01*
X-14685925Y-9572993D01*
X-14653012Y-9630000D01*
X-15570000Y-9630000D01*
X-15570000Y-10076000D01*
X-15589685Y-10143039D01*
X-15642489Y-10188794D01*
X-15694000Y-10200000D01*
X-16576000Y-10200000D01*
X-16643039Y-10180315D01*
X-16688794Y-10127511D01*
X-16700000Y-10076000D01*
X-16700000Y-10052172D01*
X-16700001Y-10052155D01*
X-16706402Y-9992627D01*
X-16706404Y-9992620D01*
X-16756646Y-9857913D01*
X-16756650Y-9857906D01*
X-16842810Y-9742813D01*
X-16900979Y-9699267D01*
X-16942850Y-9643333D01*
X-16947834Y-9573641D01*
X-16914349Y-9512318D01*
X-16900979Y-9500733D01*
X-16842810Y-9457186D01*
X-16756650Y-9342093D01*
X-16756646Y-9342086D01*
X-16706404Y-9207379D01*
X-16706402Y-9207372D01*
X-16700001Y-9147844D01*
X-16700000Y-9147827D01*
X-16700000Y-8850000D01*
X-17450000Y-8850000D01*
X-17450000Y-10550272D01*
X-17488060Y-10458386D01*
X-17558386Y-10388060D01*
X-17650272Y-10350000D01*
X-17749728Y-10350000D01*
X-17841614Y-10388060D01*
X-17911940Y-10458386D01*
X-17950000Y-10550272D01*
X-17950000Y-10649728D01*
X-17911940Y-10741614D01*
X-17841614Y-10811940D01*
X-17749728Y-10850000D01*
X-17650272Y-10850000D01*
X-17558386Y-10811940D01*
X-17488060Y-10741614D01*
X-17450000Y-10649728D01*
X-17450000Y-11600000D01*
X-17152172Y-11600000D01*
X-17152156Y-11599999D01*
X-17092628Y-11593598D01*
X-17092621Y-11593596D01*
X-16957914Y-11543354D01*
X-16957911Y-11543352D01*
X-16898312Y-11498736D01*
X-16832848Y-11474318D01*
X-16764575Y-11489169D01*
X-16715169Y-11538573D01*
X-16700000Y-11598002D01*
X-16700000Y-12176000D01*
X-16719685Y-12243039D01*
X-16772489Y-12288794D01*
X-16824000Y-12300000D01*
X-18903325Y-12300000D01*
X-18911597Y-12299500D01*
X-18914944Y-12299500D01*
X-19085056Y-12299500D01*
X-19088403Y-12299500D01*
X-19096675Y-12300000D01*
X-20293013Y-12300000D01*
X-20360052Y-12280315D01*
X-20405807Y-12227511D01*
X-20416371Y-12163395D01*
X-20415001Y-12149981D01*
X-20415000Y-12149973D01*
X-20415000Y-12012500D01*
X-21766000Y-12012500D01*
X-21833039Y-11992815D01*
X-21878794Y-11940011D01*
X-21890000Y-11888500D01*
X-21890000Y-11512500D01*
X-21390000Y-11512500D01*
X-20415001Y-11512500D01*
X-20415001Y-11375028D01*
X-20415002Y-11375013D01*
X-20425495Y-11272302D01*
X-20466736Y-11147844D01*
X-18700000Y-11147844D01*
X-18693599Y-11207372D01*
X-18693597Y-11207379D01*
X-18643355Y-11342086D01*
X-18643351Y-11342093D01*
X-18557191Y-11457187D01*
X-18557188Y-11457190D01*
X-18442094Y-11543350D01*
X-18442087Y-11543354D01*
X-18307380Y-11593596D01*
X-18307373Y-11593598D01*
X-18247845Y-11599999D01*
X-18247828Y-11600000D01*
X-17950000Y-11600000D01*
X-17950000Y-10850000D01*
X-18700000Y-10850000D01*
X-18700000Y-11147844D01*
X-20466736Y-11147844D01*
X-20480642Y-11105880D01*
X-20480644Y-11105875D01*
X-20572685Y-10956654D01*
X-20696655Y-10832684D01*
X-20845876Y-10740643D01*
X-20845881Y-10740641D01*
X-21012303Y-10685494D01*
X-21012310Y-10685493D01*
X-21115014Y-10675000D01*
X-21390000Y-10675000D01*
X-21390000Y-11512500D01*
X-21890000Y-11512500D01*
X-21890000Y-10675000D01*
X-22164971Y-10675000D01*
X-22164988Y-10675001D01*
X-22267699Y-10685494D01*
X-22386734Y-10724938D01*
X-22456562Y-10727340D01*
X-22507964Y-10700047D01*
X-22558227Y-10655518D01*
X-22595354Y-10596329D01*
X-22600000Y-10562703D01*
X-22600000Y-9147844D01*
X-18700000Y-9147844D01*
X-18693599Y-9207372D01*
X-18693597Y-9207379D01*
X-18643355Y-9342086D01*
X-18643351Y-9342093D01*
X-18557191Y-9457187D01*
X-18499021Y-9500734D01*
X-18457151Y-9556668D01*
X-18452167Y-9626360D01*
X-18485653Y-9687683D01*
X-18499021Y-9699266D01*
X-18557191Y-9742812D01*
X-18643351Y-9857906D01*
X-18643355Y-9857913D01*
X-18693597Y-9992620D01*
X-18693599Y-9992627D01*
X-18700000Y-10052155D01*
X-18700000Y-10350000D01*
X-17950000Y-10350000D01*
X-17950000Y-8850000D01*
X-18700000Y-8850000D01*
X-18700000Y-9147844D01*
X-22600000Y-9147844D01*
X-22600000Y-8550272D01*
X-17950000Y-8550272D01*
X-17950000Y-8649728D01*
X-17911940Y-8741614D01*
X-17841614Y-8811940D01*
X-17749728Y-8850000D01*
X-17650272Y-8850000D01*
X-17558386Y-8811940D01*
X-17488060Y-8741614D01*
X-17450000Y-8649728D01*
X-17450000Y-8550272D01*
X-17488060Y-8458386D01*
X-17558386Y-8388060D01*
X-17650272Y-8350000D01*
X-17450000Y-8350000D01*
X-16700000Y-8350000D01*
X-16700000Y-8052172D01*
X-16700001Y-8052155D01*
X-16706402Y-7992627D01*
X-16706404Y-7992620D01*
X-16756646Y-7857913D01*
X-16756650Y-7857906D01*
X-16842810Y-7742812D01*
X-16842813Y-7742809D01*
X-16957907Y-7656649D01*
X-16957914Y-7656645D01*
X-17092621Y-7606403D01*
X-17092628Y-7606401D01*
X-17152156Y-7600000D01*
X-17450000Y-7600000D01*
X-17450000Y-8350000D01*
X-17650272Y-8350000D01*
X-17749728Y-8350000D01*
X-17841614Y-8388060D01*
X-17911940Y-8458386D01*
X-17950000Y-8550272D01*
X-22600000Y-8550272D01*
X-22600000Y-8052155D01*
X-18700000Y-8052155D01*
X-18700000Y-8350000D01*
X-17950000Y-8350000D01*
X-17950000Y-7600000D01*
X-18247845Y-7600000D01*
X-18307373Y-7606401D01*
X-18307380Y-7606403D01*
X-18442087Y-7656645D01*
X-18442094Y-7656649D01*
X-18557188Y-7742809D01*
X-18557191Y-7742812D01*
X-18643351Y-7857906D01*
X-18643355Y-7857913D01*
X-18693597Y-7992620D01*
X-18693599Y-7992627D01*
X-18700000Y-8052155D01*
X-22600000Y-8052155D01*
X-22600000Y-7224000D01*
X-22580315Y-7156961D01*
X-22527511Y-7111206D01*
X-22476000Y-7100000D01*
X-13624000Y-7100000D01*
X-13556961Y-7119685D01*
G37*
%TD.AperFunction*%
%TD*%
%TA.AperFunction,Conductor*%
%TO.N,GND*%
G36*
X-10980103Y-5500501D02*
G01*
X-10918637Y-5500500D01*
X-10909792Y-5500815D01*
X-10709649Y-5515128D01*
X-10692146Y-5517645D01*
X-10500413Y-5559353D01*
X-10483447Y-5564334D01*
X-10299598Y-5632906D01*
X-10283516Y-5640249D01*
X-10111285Y-5734294D01*
X-10096422Y-5743847D01*
X-9939345Y-5861432D01*
X-9925974Y-5873017D01*
X-9787228Y-6011762D01*
X-9775642Y-6025133D01*
X-9658056Y-6182208D01*
X-9648491Y-6197092D01*
X-9554460Y-6369296D01*
X-9547110Y-6385389D01*
X-9478539Y-6569234D01*
X-9473555Y-6586210D01*
X-9431849Y-6777931D01*
X-9429331Y-6795442D01*
X-9415030Y-6995384D01*
X-9414714Y-7004231D01*
X-9414714Y-23012286D01*
X-9414715Y-23012304D01*
X-9414715Y-23081364D01*
X-9415031Y-23090209D01*
X-9429343Y-23290345D01*
X-9431861Y-23307858D01*
X-9473567Y-23499580D01*
X-9478551Y-23516555D01*
X-9547119Y-23700396D01*
X-9554469Y-23716490D01*
X-9648502Y-23888699D01*
X-9658067Y-23903582D01*
X-9775649Y-24060654D01*
X-9787235Y-24074025D01*
X-9925975Y-24212765D01*
X-9939346Y-24224351D01*
X-10096418Y-24341933D01*
X-10111301Y-24351498D01*
X-10283510Y-24445531D01*
X-10299604Y-24452881D01*
X-10483445Y-24521449D01*
X-10500420Y-24526433D01*
X-10692142Y-24568139D01*
X-10709655Y-24570657D01*
X-10909791Y-24584969D01*
X-10918636Y-24585285D01*
X-10987697Y-24585285D01*
X-10987713Y-24585286D01*
X-35012287Y-24585286D01*
X-35012303Y-24585285D01*
X-35081365Y-24585285D01*
X-35090210Y-24584969D01*
X-35290346Y-24570657D01*
X-35307859Y-24568139D01*
X-35499581Y-24526433D01*
X-35516556Y-24521449D01*
X-35608477Y-24487165D01*
X-35700401Y-24452879D01*
X-35716486Y-24445533D01*
X-35888703Y-24351496D01*
X-35903579Y-24341935D01*
X-36060655Y-24224351D01*
X-36074026Y-24212765D01*
X-36212766Y-24074025D01*
X-36224352Y-24060654D01*
X-36341939Y-23903575D01*
X-36351495Y-23888706D01*
X-36445537Y-23716479D01*
X-36452877Y-23700407D01*
X-36521452Y-23516550D01*
X-36526434Y-23499580D01*
X-36527736Y-23493596D01*
X-36568141Y-23307853D01*
X-36570658Y-23290345D01*
X-36573286Y-23253600D01*
X-36584971Y-23090208D01*
X-36585286Y-23081362D01*
X-36585285Y-23019897D01*
X-36585286Y-23019893D01*
X-36585286Y-11919999D01*
X-33355659Y-11919999D01*
X-33355659Y-11920000D01*
X-33335064Y-12155403D01*
X-33335062Y-12155413D01*
X-33273906Y-12383655D01*
X-33273904Y-12383659D01*
X-33273903Y-12383663D01*
X-33257269Y-12419334D01*
X-33174035Y-12597830D01*
X-33174033Y-12597834D01*
X-33087905Y-12720836D01*
X-33040580Y-12788424D01*
X-33038499Y-12791395D01*
X-33038494Y-12791402D01*
X-32871403Y-12958493D01*
X-32871397Y-12958498D01*
X-32685842Y-13088425D01*
X-32642217Y-13143002D01*
X-32635023Y-13212500D01*
X-32666546Y-13274855D01*
X-32685842Y-13291575D01*
X-32871403Y-13421505D01*
X-33038495Y-13588597D01*
X-33174035Y-13782169D01*
X-33174036Y-13782171D01*
X-33273902Y-13996335D01*
X-33273906Y-13996344D01*
X-33335062Y-14224586D01*
X-33335064Y-14224596D01*
X-33355659Y-14459999D01*
X-33355659Y-14460000D01*
X-33335064Y-14695403D01*
X-33335062Y-14695413D01*
X-33273906Y-14923655D01*
X-33273904Y-14923659D01*
X-33273903Y-14923663D01*
X-33203100Y-15075500D01*
X-33174035Y-15137830D01*
X-33174033Y-15137834D01*
X-33100216Y-15243255D01*
X-33041631Y-15326923D01*
X-33038499Y-15331395D01*
X-33038494Y-15331402D01*
X-32871403Y-15498493D01*
X-32871397Y-15498498D01*
X-32685842Y-15628425D01*
X-32642217Y-15683002D01*
X-32635023Y-15752500D01*
X-32666546Y-15814855D01*
X-32685842Y-15831575D01*
X-32871403Y-15961505D01*
X-33038495Y-16128597D01*
X-33174035Y-16322169D01*
X-33174036Y-16322171D01*
X-33273902Y-16536335D01*
X-33273906Y-16536344D01*
X-33335062Y-16764586D01*
X-33335064Y-16764596D01*
X-33355659Y-16999999D01*
X-33355659Y-17000000D01*
X-33335064Y-17235403D01*
X-33335062Y-17235413D01*
X-33273906Y-17463655D01*
X-33273904Y-17463659D01*
X-33273903Y-17463663D01*
X-33208773Y-17603334D01*
X-33174035Y-17677830D01*
X-33174033Y-17677834D01*
X-33065719Y-17832521D01*
X-33038499Y-17871396D01*
X-33038494Y-17871402D01*
X-32871403Y-18038493D01*
X-32871397Y-18038498D01*
X-32685842Y-18168425D01*
X-32642217Y-18223002D01*
X-32635023Y-18292500D01*
X-32666546Y-18354855D01*
X-32685842Y-18371575D01*
X-32871403Y-18501505D01*
X-33038495Y-18668597D01*
X-33174035Y-18862169D01*
X-33174036Y-18862171D01*
X-33273902Y-19076335D01*
X-33273906Y-19076344D01*
X-33335062Y-19304586D01*
X-33335064Y-19304596D01*
X-33355659Y-19539999D01*
X-33355659Y-19540000D01*
X-33335064Y-19775403D01*
X-33335062Y-19775413D01*
X-33273906Y-20003655D01*
X-33273904Y-20003659D01*
X-33273903Y-20003663D01*
X-33208773Y-20143334D01*
X-33174035Y-20217830D01*
X-33174033Y-20217834D01*
X-33076684Y-20356862D01*
X-33038499Y-20411396D01*
X-33038494Y-20411402D01*
X-32871403Y-20578493D01*
X-32871397Y-20578498D01*
X-32832835Y-20605499D01*
X-32758505Y-20657546D01*
X-32685406Y-20708730D01*
X-32641781Y-20763307D01*
X-32634587Y-20832805D01*
X-32666110Y-20895160D01*
X-32685405Y-20911880D01*
X-32871078Y-21041890D01*
X-32871080Y-21041891D01*
X-33038109Y-21208920D01*
X-33038114Y-21208926D01*
X-33173600Y-21402420D01*
X-33173601Y-21402422D01*
X-33273430Y-21616507D01*
X-33273433Y-21616513D01*
X-33330636Y-21829999D01*
X-33330636Y-21830000D01*
X-32433012Y-21830000D01*
X-32465925Y-21887007D01*
X-32500000Y-22014174D01*
X-32500000Y-22145826D01*
X-32465925Y-22272993D01*
X-32433012Y-22330000D01*
X-33330636Y-22330000D01*
X-33273433Y-22543486D01*
X-33273430Y-22543492D01*
X-33173601Y-22757578D01*
X-33038106Y-22951082D01*
X-32871083Y-23118105D01*
X-32677579Y-23253600D01*
X-32463493Y-23353429D01*
X-32463484Y-23353433D01*
X-32250000Y-23410634D01*
X-32250000Y-22513012D01*
X-32192993Y-22545925D01*
X-32065826Y-22580000D01*
X-31934174Y-22580000D01*
X-31807007Y-22545925D01*
X-31750000Y-22513012D01*
X-31750000Y-23410633D01*
X-31536517Y-23353433D01*
X-31536508Y-23353429D01*
X-31322422Y-23253600D01*
X-31128918Y-23118105D01*
X-31058657Y-23047844D01*
X-29500000Y-23047844D01*
X-29493599Y-23107372D01*
X-29493597Y-23107379D01*
X-29443355Y-23242086D01*
X-29443351Y-23242093D01*
X-29357191Y-23357187D01*
X-29357188Y-23357190D01*
X-29242094Y-23443350D01*
X-29242087Y-23443354D01*
X-29107380Y-23493596D01*
X-29107373Y-23493598D01*
X-29047845Y-23499999D01*
X-29047828Y-23500000D01*
X-28750000Y-23500000D01*
X-28250000Y-23500000D01*
X-27952172Y-23500000D01*
X-27952156Y-23499999D01*
X-27892628Y-23493598D01*
X-27892621Y-23493596D01*
X-27757914Y-23443354D01*
X-27757907Y-23443350D01*
X-27642813Y-23357190D01*
X-27642810Y-23357187D01*
X-27556650Y-23242093D01*
X-27556646Y-23242086D01*
X-27506404Y-23107379D01*
X-27506402Y-23107372D01*
X-27500001Y-23047844D01*
X-18700000Y-23047844D01*
X-18693599Y-23107372D01*
X-18693597Y-23107379D01*
X-18643355Y-23242086D01*
X-18643351Y-23242093D01*
X-18557191Y-23357187D01*
X-18557188Y-23357190D01*
X-18442094Y-23443350D01*
X-18442087Y-23443354D01*
X-18307380Y-23493596D01*
X-18307373Y-23493598D01*
X-18247845Y-23499999D01*
X-18247828Y-23500000D01*
X-17950000Y-23500000D01*
X-17450000Y-23500000D01*
X-17152172Y-23500000D01*
X-17152156Y-23499999D01*
X-17092628Y-23493598D01*
X-17092621Y-23493596D01*
X-16957914Y-23443354D01*
X-16957907Y-23443350D01*
X-16842813Y-23357190D01*
X-16842810Y-23357187D01*
X-16756650Y-23242093D01*
X-16756646Y-23242086D01*
X-16706404Y-23107379D01*
X-16706402Y-23107372D01*
X-16700001Y-23047844D01*
X-16700000Y-23047827D01*
X-16700000Y-22750000D01*
X-17450000Y-22750000D01*
X-17450000Y-23500000D01*
X-17950000Y-23500000D01*
X-17950000Y-22750000D01*
X-18700000Y-22750000D01*
X-18700000Y-23047844D01*
X-27500001Y-23047844D01*
X-27500000Y-23047827D01*
X-27500000Y-22750000D01*
X-28250000Y-22750000D01*
X-28250000Y-23500000D01*
X-28750000Y-23500000D01*
X-28750000Y-22750000D01*
X-29500000Y-22750000D01*
X-29500000Y-23047844D01*
X-31058657Y-23047844D01*
X-30961895Y-22951082D01*
X-30826400Y-22757578D01*
X-30726571Y-22543492D01*
X-30726568Y-22543486D01*
X-30701591Y-22450272D01*
X-28750000Y-22450272D01*
X-28750000Y-22549728D01*
X-28711940Y-22641614D01*
X-28641614Y-22711940D01*
X-28549728Y-22750000D01*
X-28450272Y-22750000D01*
X-28358386Y-22711940D01*
X-28288060Y-22641614D01*
X-28250000Y-22549728D01*
X-28250000Y-22450272D01*
X-17950000Y-22450272D01*
X-17950000Y-22549728D01*
X-17911940Y-22641614D01*
X-17841614Y-22711940D01*
X-17749728Y-22750000D01*
X-17650272Y-22750000D01*
X-17558386Y-22711940D01*
X-17488060Y-22641614D01*
X-17450000Y-22549728D01*
X-17450000Y-22450272D01*
X-17488060Y-22358386D01*
X-17558386Y-22288060D01*
X-17650272Y-22250000D01*
X-17450000Y-22250000D01*
X-16700000Y-22250000D01*
X-16700000Y-21952172D01*
X-16700001Y-21952155D01*
X-16706402Y-21892627D01*
X-16706404Y-21892620D01*
X-16756646Y-21757913D01*
X-16756650Y-21757906D01*
X-16842810Y-21642812D01*
X-16842813Y-21642809D01*
X-16957907Y-21556649D01*
X-16957914Y-21556645D01*
X-17092621Y-21506403D01*
X-17092628Y-21506401D01*
X-17152156Y-21500000D01*
X-17450000Y-21500000D01*
X-17450000Y-22250000D01*
X-17650272Y-22250000D01*
X-17749728Y-22250000D01*
X-17841614Y-22288060D01*
X-17911940Y-22358386D01*
X-17950000Y-22450272D01*
X-28250000Y-22450272D01*
X-28288060Y-22358386D01*
X-28358386Y-22288060D01*
X-28450272Y-22250000D01*
X-28250000Y-22250000D01*
X-27500000Y-22250000D01*
X-27500000Y-21952172D01*
X-27500001Y-21952155D01*
X-18700000Y-21952155D01*
X-18700000Y-22250000D01*
X-17950000Y-22250000D01*
X-17950000Y-21500000D01*
X-18247845Y-21500000D01*
X-18307373Y-21506401D01*
X-18307380Y-21506403D01*
X-18442087Y-21556645D01*
X-18442094Y-21556649D01*
X-18557188Y-21642809D01*
X-18557191Y-21642812D01*
X-18643351Y-21757906D01*
X-18643355Y-21757913D01*
X-18693597Y-21892620D01*
X-18693599Y-21892627D01*
X-18700000Y-21952155D01*
X-27500001Y-21952155D01*
X-27506402Y-21892627D01*
X-27506404Y-21892620D01*
X-27556646Y-21757913D01*
X-27556650Y-21757906D01*
X-27642810Y-21642812D01*
X-27642813Y-21642809D01*
X-27757907Y-21556649D01*
X-27757914Y-21556645D01*
X-27892621Y-21506403D01*
X-27892628Y-21506401D01*
X-27952156Y-21500000D01*
X-28250000Y-21500000D01*
X-28250000Y-22250000D01*
X-28450272Y-22250000D01*
X-28549728Y-22250000D01*
X-28641614Y-22288060D01*
X-28711940Y-22358386D01*
X-28750000Y-22450272D01*
X-30701591Y-22450272D01*
X-30669364Y-22330000D01*
X-31566988Y-22330000D01*
X-31534075Y-22272993D01*
X-31500000Y-22145826D01*
X-31500000Y-22014174D01*
X-31516618Y-21952155D01*
X-29500000Y-21952155D01*
X-29500000Y-22250000D01*
X-28750000Y-22250000D01*
X-28750000Y-21500000D01*
X-29047845Y-21500000D01*
X-29107373Y-21506401D01*
X-29107380Y-21506403D01*
X-29242087Y-21556645D01*
X-29242094Y-21556649D01*
X-29357188Y-21642809D01*
X-29357191Y-21642812D01*
X-29443351Y-21757906D01*
X-29443355Y-21757913D01*
X-29493597Y-21892620D01*
X-29493599Y-21892627D01*
X-29500000Y-21952155D01*
X-31516618Y-21952155D01*
X-31534075Y-21887007D01*
X-31566988Y-21830000D01*
X-30669364Y-21830000D01*
X-30669365Y-21829999D01*
X-30726568Y-21616513D01*
X-30726571Y-21616507D01*
X-30826400Y-21402422D01*
X-30826401Y-21402420D01*
X-30961887Y-21208926D01*
X-30961892Y-21208920D01*
X-31128922Y-21041890D01*
X-31314595Y-20911879D01*
X-31358220Y-20857302D01*
X-31365412Y-20787804D01*
X-31333890Y-20725449D01*
X-31314594Y-20708730D01*
X-31241497Y-20657547D01*
X-31128599Y-20578495D01*
X-30961505Y-20411401D01*
X-30836851Y-20233377D01*
X-30782274Y-20189752D01*
X-30735276Y-20180500D01*
X-30420098Y-20180500D01*
X-30353059Y-20200185D01*
X-30332417Y-20216819D01*
X-30268716Y-20280520D01*
X-30205289Y-20317139D01*
X-30144611Y-20352172D01*
X-30136488Y-20356862D01*
X-30131787Y-20359576D01*
X-30131786Y-20359576D01*
X-30131785Y-20359577D01*
X-29979057Y-20400501D01*
X-29979054Y-20400501D01*
X-29813347Y-20400501D01*
X-29813331Y-20400500D01*
X-29582791Y-20400500D01*
X-29515752Y-20420185D01*
X-29469997Y-20472989D01*
X-29466609Y-20481167D01*
X-29443798Y-20542328D01*
X-29443794Y-20542335D01*
X-29357548Y-20657544D01*
X-29357545Y-20657547D01*
X-29242336Y-20743793D01*
X-29242329Y-20743797D01*
X-29107483Y-20794091D01*
X-29107484Y-20794091D01*
X-29100556Y-20794835D01*
X-29047873Y-20800500D01*
X-27952128Y-20800499D01*
X-27892517Y-20794091D01*
X-27757669Y-20743796D01*
X-27642454Y-20657546D01*
X-27556204Y-20542331D01*
X-27535256Y-20486167D01*
X-27493385Y-20430233D01*
X-27427921Y-20405816D01*
X-27419074Y-20405500D01*
X-26930808Y-20405500D01*
X-26863769Y-20425185D01*
X-26843126Y-20441820D01*
X-26811871Y-20473076D01*
X-26811867Y-20473079D01*
X-26811865Y-20473081D01*
X-26670398Y-20556744D01*
X-26628776Y-20568836D01*
X-26512574Y-20602597D01*
X-26512571Y-20602597D01*
X-26512569Y-20602598D01*
X-26475694Y-20605500D01*
X-26475686Y-20605500D01*
X-24694314Y-20605500D01*
X-24694306Y-20605500D01*
X-24657431Y-20602598D01*
X-24657429Y-20602597D01*
X-24657427Y-20602597D01*
X-24615809Y-20590505D01*
X-24499602Y-20556744D01*
X-24358135Y-20473081D01*
X-24241919Y-20356865D01*
X-24158256Y-20215398D01*
X-24112402Y-20057569D01*
X-24109500Y-20020694D01*
X-24109500Y-19589306D01*
X-24112402Y-19552431D01*
X-24116014Y-19540000D01*
X-24158255Y-19394606D01*
X-24158256Y-19394603D01*
X-24158256Y-19394602D01*
X-24241919Y-19253135D01*
X-24241922Y-19253132D01*
X-24246702Y-19246969D01*
X-24244250Y-19245066D01*
X-24270845Y-19196421D01*
X-24265896Y-19126726D01*
X-24245060Y-19094304D01*
X-24246702Y-19093031D01*
X-24241925Y-19086870D01*
X-24241919Y-19086865D01*
X-24158256Y-18945398D01*
X-24117730Y-18805909D01*
X-24112403Y-18787573D01*
X-24112402Y-18787567D01*
X-24111306Y-18773641D01*
X-24109500Y-18750694D01*
X-24109500Y-18319306D01*
X-24112402Y-18282431D01*
X-24112957Y-18280521D01*
X-24158255Y-18124606D01*
X-24158256Y-18124603D01*
X-24158256Y-18124602D01*
X-24241919Y-17983135D01*
X-24241922Y-17983132D01*
X-24246702Y-17976969D01*
X-24244250Y-17975066D01*
X-24270845Y-17926421D01*
X-24265896Y-17856726D01*
X-24245060Y-17824304D01*
X-24246702Y-17823031D01*
X-24241925Y-17816870D01*
X-24241919Y-17816865D01*
X-24158256Y-17675398D01*
X-24112402Y-17517569D01*
X-24109500Y-17480694D01*
X-24109500Y-17049306D01*
X-24112402Y-17012431D01*
X-24116014Y-17000000D01*
X-24158255Y-16854606D01*
X-24158256Y-16854603D01*
X-24158256Y-16854602D01*
X-24241919Y-16713135D01*
X-24241922Y-16713132D01*
X-24246702Y-16706969D01*
X-24244250Y-16705066D01*
X-24270845Y-16656421D01*
X-24265896Y-16586726D01*
X-24245060Y-16554304D01*
X-24246702Y-16553031D01*
X-24241925Y-16546870D01*
X-24241919Y-16546865D01*
X-24158256Y-16405398D01*
X-24112402Y-16247569D01*
X-24109500Y-16210694D01*
X-24109500Y-15779306D01*
X-24112402Y-15742431D01*
X-24115496Y-15731783D01*
X-24158255Y-15584606D01*
X-24158256Y-15584603D01*
X-24158256Y-15584602D01*
X-24241919Y-15443135D01*
X-24241921Y-15443133D01*
X-24241924Y-15443129D01*
X-24358130Y-15326923D01*
X-24358138Y-15326917D01*
X-24499604Y-15243255D01*
X-24499607Y-15243254D01*
X-24657427Y-15197402D01*
X-24657433Y-15197401D01*
X-24694299Y-15194500D01*
X-24694306Y-15194500D01*
X-26375500Y-15194500D01*
X-26442539Y-15174815D01*
X-26488294Y-15122011D01*
X-26499500Y-15070500D01*
X-26499500Y-14224986D01*
X-25584999Y-14224986D01*
X-25574506Y-14327697D01*
X-25519359Y-14494119D01*
X-25519357Y-14494124D01*
X-25427316Y-14643345D01*
X-25303346Y-14767315D01*
X-25154125Y-14859356D01*
X-25154120Y-14859358D01*
X-24987698Y-14914505D01*
X-24987691Y-14914506D01*
X-24884981Y-14924999D01*
X-24610001Y-14924999D01*
X-24110000Y-14924999D01*
X-23835028Y-14924999D01*
X-23835014Y-14924998D01*
X-23732303Y-14914505D01*
X-23565881Y-14859358D01*
X-23565876Y-14859356D01*
X-23416655Y-14767315D01*
X-23292685Y-14643345D01*
X-23200644Y-14494124D01*
X-23200642Y-14494119D01*
X-23145495Y-14327697D01*
X-23145494Y-14327690D01*
X-23135001Y-14224986D01*
X-22864999Y-14224986D01*
X-22854506Y-14327697D01*
X-22799359Y-14494119D01*
X-22799357Y-14494124D01*
X-22707316Y-14643345D01*
X-22583346Y-14767315D01*
X-22434125Y-14859356D01*
X-22434120Y-14859358D01*
X-22267698Y-14914505D01*
X-22267691Y-14914506D01*
X-22164981Y-14924999D01*
X-21890001Y-14924999D01*
X-21390000Y-14924999D01*
X-21115028Y-14924999D01*
X-21115014Y-14924998D01*
X-21012303Y-14914505D01*
X-20845881Y-14859358D01*
X-20845876Y-14859356D01*
X-20696655Y-14767315D01*
X-20572685Y-14643345D01*
X-20480644Y-14494124D01*
X-20480642Y-14494119D01*
X-20425495Y-14327697D01*
X-20425494Y-14327690D01*
X-20415001Y-14224986D01*
X-20415000Y-14224973D01*
X-20415000Y-14087500D01*
X-21390000Y-14087500D01*
X-21390000Y-14924999D01*
X-21890001Y-14924999D01*
X-21890000Y-14924998D01*
X-21890000Y-14087500D01*
X-22864999Y-14087500D01*
X-22864999Y-14224986D01*
X-23135001Y-14224986D01*
X-23135000Y-14224973D01*
X-23135000Y-14087500D01*
X-24110000Y-14087500D01*
X-24110000Y-14924999D01*
X-24610001Y-14924999D01*
X-24610000Y-14924998D01*
X-24610000Y-14087500D01*
X-25584999Y-14087500D01*
X-25584999Y-14224986D01*
X-26499500Y-14224986D01*
X-26499500Y-14020945D01*
X-26499500Y-14020943D01*
X-26526295Y-13920943D01*
X-26540423Y-13868215D01*
X-26597869Y-13768716D01*
X-26619480Y-13731284D01*
X-26731284Y-13619480D01*
X-26731285Y-13619479D01*
X-26735615Y-13615149D01*
X-26735626Y-13615139D01*
X-26912410Y-13438355D01*
X-26912412Y-13438352D01*
X-27031283Y-13319481D01*
X-27031284Y-13319480D01*
X-27118096Y-13269360D01*
X-27118096Y-13269359D01*
X-27118100Y-13269358D01*
X-27168215Y-13240423D01*
X-27320943Y-13199499D01*
X-27417210Y-13199499D01*
X-27484249Y-13179814D01*
X-27530004Y-13127010D01*
X-27533392Y-13118831D01*
X-27556202Y-13057673D01*
X-27556205Y-13057668D01*
X-27596522Y-13003811D01*
X-27620939Y-12938347D01*
X-27606087Y-12870074D01*
X-27556682Y-12820668D01*
X-27497255Y-12805500D01*
X-27296686Y-12805500D01*
X-27296675Y-12805500D01*
X-27284691Y-12805138D01*
X-27281969Y-12805056D01*
X-27278230Y-12805000D01*
X-27121770Y-12805000D01*
X-27118031Y-12805056D01*
X-27115310Y-12805138D01*
X-27103325Y-12805500D01*
X-27103314Y-12805500D01*
X-25706980Y-12805500D01*
X-25618690Y-12793727D01*
X-25574541Y-12787841D01*
X-25511832Y-12770816D01*
X-25498645Y-12765276D01*
X-25429217Y-12757462D01*
X-25366582Y-12788424D01*
X-25330630Y-12848335D01*
X-25332776Y-12918171D01*
X-25362942Y-12967281D01*
X-25427318Y-13031657D01*
X-25519357Y-13180875D01*
X-25519359Y-13180880D01*
X-25574506Y-13347302D01*
X-25574507Y-13347309D01*
X-25585000Y-13450013D01*
X-25585000Y-13587500D01*
X-23135001Y-13587500D01*
X-23135001Y-13450028D01*
X-23135002Y-13450013D01*
X-23145495Y-13347302D01*
X-23200642Y-13180880D01*
X-23200644Y-13180875D01*
X-23292685Y-13031654D01*
X-23416656Y-12907683D01*
X-23416659Y-12907681D01*
X-23419661Y-12905829D01*
X-23421287Y-12904021D01*
X-23422323Y-12903202D01*
X-23422183Y-12903024D01*
X-23466383Y-12853880D01*
X-23477603Y-12784917D01*
X-23449757Y-12720836D01*
X-23419656Y-12694754D01*
X-23416344Y-12692712D01*
X-23292288Y-12568656D01*
X-23200186Y-12419334D01*
X-23145001Y-12252797D01*
X-23134500Y-12150009D01*
X-23134501Y-11374992D01*
X-23136084Y-11359500D01*
X-23140170Y-11319499D01*
X-23145001Y-11272203D01*
X-23171612Y-11191900D01*
X-23174013Y-11122074D01*
X-23138282Y-11062032D01*
X-23136193Y-11060137D01*
X-23106565Y-11033890D01*
X-23087289Y-11014293D01*
X-23026248Y-10980306D01*
X-22956518Y-10984714D01*
X-22904292Y-11021080D01*
X-22893435Y-11033891D01*
X-22863873Y-11060081D01*
X-22863870Y-11060083D01*
X-22826743Y-11119273D01*
X-22827511Y-11189138D01*
X-22828390Y-11191901D01*
X-22832668Y-11204811D01*
X-22848062Y-11251270D01*
X-22854999Y-11272204D01*
X-22855000Y-11272209D01*
X-22865500Y-11374983D01*
X-22865500Y-12150001D01*
X-22865499Y-12150019D01*
X-22855000Y-12252796D01*
X-22854999Y-12252799D01*
X-22811637Y-12383655D01*
X-22799814Y-12419334D01*
X-22707712Y-12568656D01*
X-22583656Y-12692712D01*
X-22580372Y-12694737D01*
X-22580347Y-12694753D01*
X-22578555Y-12696746D01*
X-22577989Y-12697193D01*
X-22578066Y-12697289D01*
X-22533621Y-12746699D01*
X-22522397Y-12815661D01*
X-22550239Y-12879744D01*
X-22580335Y-12905826D01*
X-22583340Y-12907679D01*
X-22583345Y-12907683D01*
X-22707316Y-13031654D01*
X-22799357Y-13180875D01*
X-22799359Y-13180880D01*
X-22854506Y-13347302D01*
X-22854507Y-13347309D01*
X-22865000Y-13450013D01*
X-22865000Y-13587500D01*
X-20415001Y-13587500D01*
X-20415001Y-13450028D01*
X-20415002Y-13450013D01*
X-20425495Y-13347302D01*
X-20480642Y-13180880D01*
X-20480644Y-13180875D01*
X-20572685Y-13031654D01*
X-20636121Y-12968218D01*
X-20669606Y-12906895D01*
X-20664622Y-12837203D01*
X-20622750Y-12781270D01*
X-20557286Y-12756853D01*
X-20506730Y-12764122D01*
X-20506720Y-12764090D01*
X-20506495Y-12764156D01*
X-20505105Y-12764356D01*
X-20502480Y-12765334D01*
X-20502472Y-12765338D01*
X-20435433Y-12785023D01*
X-20435429Y-12785024D01*
X-20293013Y-12805500D01*
X-20293010Y-12805500D01*
X-19096686Y-12805500D01*
X-19096675Y-12805500D01*
X-19084691Y-12805138D01*
X-19081969Y-12805056D01*
X-19078230Y-12805000D01*
X-18921770Y-12805000D01*
X-18918031Y-12805056D01*
X-18915310Y-12805138D01*
X-18903325Y-12805500D01*
X-18702745Y-12805500D01*
X-18635706Y-12825185D01*
X-18589951Y-12877989D01*
X-18580007Y-12947147D01*
X-18603478Y-13003811D01*
X-18643796Y-13057668D01*
X-18643798Y-13057671D01*
X-18666609Y-13118833D01*
X-18708480Y-13174767D01*
X-18773944Y-13199184D01*
X-18782791Y-13199500D01*
X-18813330Y-13199500D01*
X-18813346Y-13199499D01*
X-18820942Y-13199499D01*
X-18979057Y-13199499D01*
X-19055421Y-13219961D01*
X-19131786Y-13240423D01*
X-19131791Y-13240426D01*
X-19268710Y-13319475D01*
X-19268718Y-13319481D01*
X-19580519Y-13631282D01*
X-19580521Y-13631285D01*
X-19630639Y-13718094D01*
X-19630641Y-13718096D01*
X-19659575Y-13768209D01*
X-19659576Y-13768210D01*
X-19663316Y-13782169D01*
X-19700501Y-13920943D01*
X-19700501Y-13920945D01*
X-19700501Y-14089046D01*
X-19700500Y-14089059D01*
X-19700500Y-15070500D01*
X-19720185Y-15137539D01*
X-19772989Y-15183294D01*
X-19824500Y-15194500D01*
X-21525702Y-15194500D01*
X-21562568Y-15197401D01*
X-21562574Y-15197402D01*
X-21720394Y-15243254D01*
X-21720397Y-15243255D01*
X-21861863Y-15326917D01*
X-21861871Y-15326923D01*
X-21978077Y-15443129D01*
X-21978083Y-15443137D01*
X-22061745Y-15584603D01*
X-22061746Y-15584606D01*
X-22107598Y-15742426D01*
X-22107599Y-15742432D01*
X-22110500Y-15779298D01*
X-22110500Y-16210701D01*
X-22107599Y-16247567D01*
X-22107598Y-16247573D01*
X-22061746Y-16405393D01*
X-22061745Y-16405396D01*
X-21978083Y-16546862D01*
X-21973298Y-16553031D01*
X-21975744Y-16554927D01*
X-21949143Y-16603642D01*
X-21954127Y-16673334D01*
X-21974931Y-16705703D01*
X-21973298Y-16706969D01*
X-21978083Y-16713137D01*
X-22061745Y-16854603D01*
X-22061746Y-16854606D01*
X-22107598Y-17012426D01*
X-22107599Y-17012432D01*
X-22110500Y-17049298D01*
X-22110500Y-17480701D01*
X-22107599Y-17517567D01*
X-22107598Y-17517573D01*
X-22061746Y-17675393D01*
X-22061745Y-17675396D01*
X-22061744Y-17675398D01*
X-22060306Y-17677830D01*
X-21978083Y-17816862D01*
X-21973298Y-17823031D01*
X-21975744Y-17824927D01*
X-21949143Y-17873642D01*
X-21954127Y-17943334D01*
X-21974931Y-17975703D01*
X-21973298Y-17976969D01*
X-21978083Y-17983137D01*
X-22061745Y-18124603D01*
X-22061746Y-18124606D01*
X-22107598Y-18282426D01*
X-22107599Y-18282432D01*
X-22110500Y-18319298D01*
X-22110500Y-18750701D01*
X-22107599Y-18787567D01*
X-22107598Y-18787573D01*
X-22061746Y-18945393D01*
X-22061745Y-18945396D01*
X-21978083Y-19086862D01*
X-21973298Y-19093031D01*
X-21975744Y-19094927D01*
X-21949143Y-19143642D01*
X-21954127Y-19213334D01*
X-21974931Y-19245703D01*
X-21973298Y-19246969D01*
X-21978083Y-19253137D01*
X-22061745Y-19394603D01*
X-22061746Y-19394606D01*
X-22107598Y-19552426D01*
X-22107599Y-19552432D01*
X-22110500Y-19589298D01*
X-22110500Y-20020701D01*
X-22107599Y-20057567D01*
X-22107598Y-20057573D01*
X-22061746Y-20215393D01*
X-22061745Y-20215396D01*
X-22061744Y-20215398D01*
X-22060306Y-20217830D01*
X-21978083Y-20356862D01*
X-21978077Y-20356870D01*
X-21861871Y-20473076D01*
X-21861867Y-20473079D01*
X-21861865Y-20473081D01*
X-21720398Y-20556744D01*
X-21678776Y-20568836D01*
X-21562574Y-20602597D01*
X-21562571Y-20602597D01*
X-21562569Y-20602598D01*
X-21525694Y-20605500D01*
X-21525686Y-20605500D01*
X-19744314Y-20605500D01*
X-19744306Y-20605500D01*
X-19707431Y-20602598D01*
X-19707429Y-20602597D01*
X-19707427Y-20602597D01*
X-19665809Y-20590505D01*
X-19549602Y-20556744D01*
X-19408135Y-20473081D01*
X-19376874Y-20441820D01*
X-19315552Y-20408334D01*
X-19289192Y-20405500D01*
X-18780926Y-20405500D01*
X-18713887Y-20425185D01*
X-18668132Y-20477989D01*
X-18664744Y-20486167D01*
X-18643798Y-20542328D01*
X-18643794Y-20542335D01*
X-18557548Y-20657544D01*
X-18557545Y-20657547D01*
X-18442336Y-20743793D01*
X-18442329Y-20743797D01*
X-18307483Y-20794091D01*
X-18307484Y-20794091D01*
X-18300556Y-20794835D01*
X-18247873Y-20800500D01*
X-17152128Y-20800499D01*
X-17092517Y-20794091D01*
X-16957669Y-20743796D01*
X-16842454Y-20657546D01*
X-16756204Y-20542331D01*
X-16733391Y-20481167D01*
X-16691520Y-20425233D01*
X-16626056Y-20400816D01*
X-16617209Y-20400500D01*
X-16186669Y-20400500D01*
X-16186653Y-20400501D01*
X-16179057Y-20400501D01*
X-16020946Y-20400501D01*
X-16020943Y-20400501D01*
X-15868215Y-20359577D01*
X-15794711Y-20317139D01*
X-15731284Y-20280520D01*
X-15627583Y-20176819D01*
X-15566260Y-20143334D01*
X-15539902Y-20140500D01*
X-15509091Y-20140500D01*
X-15442052Y-20160185D01*
X-15396708Y-20212097D01*
X-15394035Y-20217830D01*
X-15258499Y-20411396D01*
X-15258494Y-20411402D01*
X-15091403Y-20578493D01*
X-15091397Y-20578498D01*
X-15052835Y-20605499D01*
X-14978505Y-20657546D01*
X-14905406Y-20708730D01*
X-14861781Y-20763307D01*
X-14854587Y-20832805D01*
X-14886110Y-20895160D01*
X-14905405Y-20911880D01*
X-15091078Y-21041890D01*
X-15091080Y-21041891D01*
X-15258109Y-21208920D01*
X-15258114Y-21208926D01*
X-15393600Y-21402420D01*
X-15393601Y-21402422D01*
X-15493430Y-21616507D01*
X-15493433Y-21616513D01*
X-15550636Y-21829999D01*
X-15550636Y-21830000D01*
X-14653012Y-21830000D01*
X-14685925Y-21887007D01*
X-14720000Y-22014174D01*
X-14720000Y-22145826D01*
X-14685925Y-22272993D01*
X-14653012Y-22330000D01*
X-15550636Y-22330000D01*
X-15493433Y-22543486D01*
X-15493430Y-22543492D01*
X-15393601Y-22757578D01*
X-15258106Y-22951082D01*
X-15091083Y-23118105D01*
X-14897579Y-23253600D01*
X-14683493Y-23353429D01*
X-14683484Y-23353433D01*
X-14470000Y-23410634D01*
X-14470000Y-22513012D01*
X-14412993Y-22545925D01*
X-14285826Y-22580000D01*
X-14154174Y-22580000D01*
X-14027007Y-22545925D01*
X-13970000Y-22513012D01*
X-13970000Y-23410633D01*
X-13756517Y-23353433D01*
X-13756508Y-23353429D01*
X-13542422Y-23253600D01*
X-13348918Y-23118105D01*
X-13181895Y-22951082D01*
X-13046400Y-22757578D01*
X-12946571Y-22543492D01*
X-12946568Y-22543486D01*
X-12889364Y-22330000D01*
X-13786988Y-22330000D01*
X-13754075Y-22272993D01*
X-13720000Y-22145826D01*
X-13720000Y-22014174D01*
X-13754075Y-21887007D01*
X-13786988Y-21830000D01*
X-12889364Y-21830000D01*
X-12889365Y-21829999D01*
X-12946568Y-21616513D01*
X-12946571Y-21616507D01*
X-13046400Y-21402422D01*
X-13046401Y-21402420D01*
X-13181887Y-21208926D01*
X-13181892Y-21208920D01*
X-13348922Y-21041890D01*
X-13534595Y-20911879D01*
X-13578220Y-20857302D01*
X-13585412Y-20787804D01*
X-13553890Y-20725449D01*
X-13534594Y-20708730D01*
X-13461497Y-20657547D01*
X-13348599Y-20578495D01*
X-13181505Y-20411401D01*
X-13045965Y-20217830D01*
X-12946097Y-20003663D01*
X-12884937Y-19775408D01*
X-12864341Y-19540000D01*
X-12884937Y-19304592D01*
X-12946097Y-19076337D01*
X-13045965Y-18862171D01*
X-13045966Y-18862169D01*
X-13181506Y-18668597D01*
X-13348598Y-18501506D01*
X-13348604Y-18501501D01*
X-13534158Y-18371575D01*
X-13577783Y-18316998D01*
X-13584977Y-18247500D01*
X-13553454Y-18185145D01*
X-13534158Y-18168425D01*
X-13471574Y-18124603D01*
X-13348599Y-18038495D01*
X-13181505Y-17871401D01*
X-13045965Y-17677830D01*
X-12946097Y-17463663D01*
X-12884937Y-17235408D01*
X-12864341Y-17000000D01*
X-12884937Y-16764592D01*
X-12946097Y-16536337D01*
X-13045965Y-16322171D01*
X-13069092Y-16289141D01*
X-13181506Y-16128597D01*
X-13348598Y-15961506D01*
X-13348604Y-15961501D01*
X-13534158Y-15831575D01*
X-13577783Y-15776998D01*
X-13584977Y-15707500D01*
X-13553454Y-15645145D01*
X-13534158Y-15628425D01*
X-13471574Y-15584603D01*
X-13348599Y-15498495D01*
X-13181505Y-15331401D01*
X-13045965Y-15137830D01*
X-12946097Y-14923663D01*
X-12884937Y-14695408D01*
X-12864341Y-14460000D01*
X-12884937Y-14224592D01*
X-12946097Y-13996337D01*
X-13045965Y-13782171D01*
X-13055740Y-13768210D01*
X-13181506Y-13588597D01*
X-13348598Y-13421506D01*
X-13348604Y-13421501D01*
X-13534158Y-13291575D01*
X-13577783Y-13236998D01*
X-13584977Y-13167500D01*
X-13553454Y-13105145D01*
X-13534158Y-13088425D01*
X-13413317Y-13003811D01*
X-13348599Y-12958495D01*
X-13181505Y-12791401D01*
X-13045965Y-12597830D01*
X-12946097Y-12383663D01*
X-12884937Y-12155408D01*
X-12864341Y-11920000D01*
X-12884937Y-11684592D01*
X-12940438Y-11477457D01*
X-12946095Y-11456344D01*
X-12946096Y-11456343D01*
X-12946097Y-11456337D01*
X-13045965Y-11242171D01*
X-13045966Y-11242169D01*
X-13181504Y-11048600D01*
X-13234884Y-10995220D01*
X-13303433Y-10926671D01*
X-13336916Y-10865351D01*
X-13331932Y-10795659D01*
X-13290061Y-10739725D01*
X-13259085Y-10722810D01*
X-13127669Y-10673796D01*
X-13012454Y-10587546D01*
X-12926204Y-10472331D01*
X-12875909Y-10337483D01*
X-12869500Y-10277873D01*
X-12869501Y-8482128D01*
X-12875909Y-8422517D01*
X-12926204Y-8287669D01*
X-12926205Y-8287668D01*
X-12926207Y-8287664D01*
X-13003227Y-8184779D01*
X-13027645Y-8119315D01*
X-13022938Y-8075531D01*
X-13021972Y-8072241D01*
X-13014977Y-8048420D01*
X-13014976Y-8048416D01*
X-12994500Y-7906000D01*
X-12994500Y-7224000D01*
X-13006053Y-7116544D01*
X-13017259Y-7065033D01*
X-13017363Y-7064722D01*
X-13051384Y-6962502D01*
X-13051387Y-6962496D01*
X-13103548Y-6881333D01*
X-13129175Y-6841457D01*
X-13156363Y-6810080D01*
X-13174924Y-6788659D01*
X-13174928Y-6788656D01*
X-13174930Y-6788653D01*
X-13283664Y-6694433D01*
X-13283667Y-6694431D01*
X-13283669Y-6694430D01*
X-13414535Y-6634664D01*
X-13414540Y-6634662D01*
X-13414541Y-6634662D01*
X-13481580Y-6614977D01*
X-13481578Y-6614977D01*
X-13481583Y-6614976D01*
X-13543653Y-6606052D01*
X-13624000Y-6594500D01*
X-22476000Y-6594500D01*
X-22476009Y-6594500D01*
X-22476010Y-6594501D01*
X-22583451Y-6606052D01*
X-22583463Y-6606054D01*
X-22634973Y-6617260D01*
X-22737498Y-6651383D01*
X-22737504Y-6651386D01*
X-22858538Y-6729171D01*
X-22858542Y-6729173D01*
X-22911355Y-6774936D01*
X-22913026Y-6776608D01*
X-22913720Y-6776986D01*
X-22914693Y-6777830D01*
X-22914877Y-6777618D01*
X-22974356Y-6810080D01*
X-23044047Y-6805081D01*
X-23081891Y-6782621D01*
X-23183664Y-6694433D01*
X-23183667Y-6694431D01*
X-23183669Y-6694430D01*
X-23314535Y-6634664D01*
X-23314540Y-6634662D01*
X-23314541Y-6634662D01*
X-23381580Y-6614977D01*
X-23381578Y-6614977D01*
X-23381583Y-6614976D01*
X-23443653Y-6606052D01*
X-23524000Y-6594500D01*
X-32376000Y-6594500D01*
X-32376009Y-6594500D01*
X-32376010Y-6594501D01*
X-32483451Y-6606052D01*
X-32483463Y-6606054D01*
X-32534973Y-6617260D01*
X-32637498Y-6651383D01*
X-32637504Y-6651386D01*
X-32758538Y-6729171D01*
X-32758549Y-6729179D01*
X-32811341Y-6774923D01*
X-32905567Y-6883664D01*
X-32905570Y-6883668D01*
X-32965336Y-7014534D01*
X-32985024Y-7081582D01*
X-32990051Y-7116549D01*
X-33005500Y-7224000D01*
X-33005500Y-7906000D01*
X-33000517Y-7952345D01*
X-33012924Y-8021105D01*
X-33060535Y-8072241D01*
X-33080468Y-8081779D01*
X-33092334Y-8086205D01*
X-33092335Y-8086205D01*
X-33207545Y-8172452D01*
X-33207548Y-8172455D01*
X-33293794Y-8287664D01*
X-33293798Y-8287671D01*
X-33344092Y-8422517D01*
X-33350499Y-8482116D01*
X-33350499Y-8482123D01*
X-33350500Y-8482135D01*
X-33350500Y-10277870D01*
X-33350499Y-10277876D01*
X-33344092Y-10337483D01*
X-33293798Y-10472328D01*
X-33293794Y-10472335D01*
X-33207548Y-10587544D01*
X-33207545Y-10587547D01*
X-33092336Y-10673793D01*
X-33092329Y-10673797D01*
X-32960919Y-10722810D01*
X-32904985Y-10764681D01*
X-32880568Y-10830145D01*
X-32895420Y-10898418D01*
X-32916570Y-10926673D01*
X-33038497Y-11048600D01*
X-33174035Y-11242169D01*
X-33174036Y-11242171D01*
X-33273902Y-11456335D01*
X-33273906Y-11456344D01*
X-33335062Y-11684586D01*
X-33335064Y-11684596D01*
X-33355659Y-11919999D01*
X-36585286Y-11919999D01*
X-36585286Y-7004427D01*
X-36584970Y-6995581D01*
X-36576966Y-6883668D01*
X-36570656Y-6795437D01*
X-36568140Y-6777940D01*
X-36526430Y-6586201D01*
X-36521453Y-6569250D01*
X-36452873Y-6385382D01*
X-36445534Y-6369312D01*
X-36351494Y-6197092D01*
X-36341937Y-6182220D01*
X-36224342Y-6025133D01*
X-36212770Y-6011778D01*
X-36074011Y-5873020D01*
X-36060654Y-5861447D01*
X-35903573Y-5743859D01*
X-35888707Y-5734304D01*
X-35716482Y-5640263D01*
X-35700394Y-5632917D01*
X-35516550Y-5564347D01*
X-35499584Y-5559366D01*
X-35307849Y-5517658D01*
X-35290354Y-5515143D01*
X-35090013Y-5500815D01*
X-35081168Y-5500500D01*
X-35019897Y-5500501D01*
X-35019893Y-5500500D01*
X-10980107Y-5500500D01*
X-10980103Y-5500501D01*
G37*
%TD.AperFunction*%
%TD*%
D23*
X-21000000Y-24000000D03*
X-35000000Y-24000000D03*
D24*
X-20500000Y-13840380D03*
D23*
X-27000000Y-24000000D03*
D24*
X-26000000Y-14900000D03*
D23*
X-29000000Y-6000000D03*
D24*
X-23000000Y-12800000D03*
X-19000000Y-13000000D03*
X-27200000Y-13000000D03*
D23*
X-10000000Y-22000000D03*
X-27000000Y-6000000D03*
X-13000000Y-24000000D03*
X-21000000Y-6000000D03*
X-25000000Y-6000000D03*
X-10000000Y-8000000D03*
X-36000000Y-20000000D03*
D24*
X-23000000Y-11200000D03*
D23*
X-36000000Y-10000000D03*
D24*
X-25437500Y-13837500D03*
D23*
X-13000000Y-6000000D03*
X-15000000Y-6000000D03*
X-36000000Y-18000000D03*
X-10000000Y-12000000D03*
X-35000000Y-6000000D03*
X-19000000Y-24000000D03*
X-36000000Y-12000000D03*
D24*
X-23000000Y-14800000D03*
D23*
X-17000000Y-24000000D03*
X-19000000Y-6000000D03*
X-25000000Y-24000000D03*
X-33000000Y-6000000D03*
X-11000000Y-24000000D03*
X-31000000Y-6000000D03*
D24*
X-25800000Y-13100000D03*
D23*
X-31000000Y-24000000D03*
X-33000000Y-24000000D03*
X-10000000Y-14000000D03*
X-36000000Y-14000000D03*
X-11000000Y-6000000D03*
X-36000000Y-8000000D03*
X-15000000Y-24000000D03*
X-10000000Y-20000000D03*
D24*
X-20000000Y-14900000D03*
D23*
X-29000000Y-24000000D03*
D24*
X-20200000Y-13100000D03*
D23*
X-10000000Y-10000000D03*
X-23000000Y-24000000D03*
X-36000000Y-22000000D03*
X-23000000Y-6000000D03*
X-17000000Y-6000000D03*
X-10000000Y-18000000D03*
X-36000000Y-16000000D03*
X-10000000Y-16000000D03*
D25*
X-28500000Y-13800000D03*
X-28500000Y-10600000D03*
X-17700000Y-10600000D03*
X-17700000Y-8600000D03*
X-28500000Y-17800000D03*
D24*
X-23810000Y-16500000D03*
X-23810000Y-17900000D03*
X-23810000Y-19300000D03*
X-22410000Y-16500000D03*
X-22410000Y-17900000D03*
X-22410000Y-19300000D03*
D25*
X-28500000Y-22500000D03*
X-28500000Y-19800000D03*
X-17700000Y-17800000D03*
X-17700000Y-15800000D03*
X-17700000Y-19800000D03*
X-17700000Y-13800000D03*
X-17700000Y-22500000D03*
X-28500000Y-15800000D03*
X-28500000Y-8600000D03*
X-14220000Y-9380000D03*
X-14220000Y-11920000D03*
X-14220000Y-14460000D03*
X-14220000Y-17000000D03*
X-14220000Y-19540000D03*
X-14220000Y-22080000D03*
X-32000000Y-9380000D03*
X-32000000Y-11920000D03*
X-32000000Y-14460000D03*
X-32000000Y-17000000D03*
X-32000000Y-19540000D03*
X-32000000Y-22080000D03*
M02*
