%TF.GenerationSoftware,KiCad,Pcbnew,8.0.3*%
%TF.CreationDate,2024-09-03T06:20:47+12:00*%
%TF.ProjectId,to-252-2,746f2d32-3532-42d3-922e-6b696361645f,rev?*%
%TF.SameCoordinates,Original*%
%TF.FileFunction,Legend,Top*%
%TF.FilePolarity,Positive*%
%FSLAX46Y46*%
G04 Gerber Fmt 4.6, Leading zero omitted, Abs format (unit mm)*
G04 Created by KiCad (PCBNEW 8.0.3) date 2024-09-03 06:20:47*
%MOMM*%
%LPD*%
G01*
G04 APERTURE LIST*
%ADD10C,0.120000*%
%ADD11C,0.000000*%
%ADD12C,0.350000*%
G04 APERTURE END LIST*
D10*
%TO.C,TP105*%
X-30600000Y-11200000D02*
X-29200000Y-11200000D01*
X-30600000Y-12600000D02*
X-30600000Y-11200000D01*
X-29200000Y-11200000D02*
X-29200000Y-12600000D01*
X-29200000Y-12600000D02*
X-30600000Y-12600000D01*
%TO.C,C101*%
X-25095000Y-9638748D02*
X-25095000Y-10161252D01*
X-23625000Y-9638748D02*
X-23625000Y-10161252D01*
D11*
%TO.C,kibuzzard-66A68BCE*%
G36*
X-35121486Y-16752504D02*
G01*
X-35068498Y-16812601D01*
X-35041357Y-16899192D01*
X-35033603Y-17000000D01*
X-35036026Y-17057027D01*
X-35043296Y-17109208D01*
X-35075606Y-17195153D01*
X-35135057Y-17252019D01*
X-35226171Y-17272698D01*
X-35240388Y-17272698D01*
X-35254604Y-17271405D01*
X-35254604Y-16733764D01*
X-35231341Y-16730533D01*
X-35208078Y-16729887D01*
X-35121486Y-16752504D01*
G37*
G36*
X-34715750Y-16484942D02*
G01*
X-34617236Y-16514826D01*
X-34526445Y-16563355D01*
X-34446866Y-16628664D01*
X-34381557Y-16708243D01*
X-34333028Y-16799035D01*
X-34303144Y-16897549D01*
X-34293053Y-17000000D01*
X-34303144Y-17102451D01*
X-34333028Y-17200965D01*
X-34381557Y-17291757D01*
X-34446866Y-17371336D01*
X-34526445Y-17436645D01*
X-34617236Y-17485174D01*
X-34715750Y-17515058D01*
X-34818201Y-17525148D01*
X-34872052Y-17525148D01*
X-35242973Y-17525148D01*
X-35670759Y-17525148D01*
X-36413893Y-17525148D01*
X-36740872Y-17525148D01*
X-36794723Y-17525148D01*
X-36897174Y-17515058D01*
X-36995688Y-17485174D01*
X-37086479Y-17436645D01*
X-37166058Y-17371336D01*
X-37231367Y-17291757D01*
X-37279896Y-17200965D01*
X-37309780Y-17102451D01*
X-37319871Y-17000000D01*
X-36740872Y-17000000D01*
X-36735057Y-17097092D01*
X-36717609Y-17181583D01*
X-36689499Y-17253312D01*
X-36651696Y-17312116D01*
X-36604685Y-17357997D01*
X-36548950Y-17390953D01*
X-36485137Y-17410824D01*
X-36413893Y-17417447D01*
X-36334895Y-17414216D01*
X-36268498Y-17404523D01*
X-36253744Y-17400646D01*
X-36070113Y-17400646D01*
X-35926656Y-17400646D01*
X-35926656Y-16869467D01*
X-35878621Y-16958140D01*
X-35832741Y-17046670D01*
X-35789015Y-17135057D01*
X-35747442Y-17223443D01*
X-35708024Y-17311973D01*
X-35670759Y-17400646D01*
X-35542811Y-17400646D01*
X-35542811Y-16610985D01*
X-35413570Y-16610985D01*
X-35413570Y-17391599D01*
X-35326333Y-17406462D01*
X-35242973Y-17410985D01*
X-35164943Y-17405331D01*
X-35093699Y-17388368D01*
X-35030533Y-17359128D01*
X-34976737Y-17316640D01*
X-34932956Y-17260258D01*
X-34899838Y-17189338D01*
X-34878998Y-17102908D01*
X-34872052Y-17000000D01*
X-34878352Y-16899354D01*
X-34897254Y-16814540D01*
X-34927464Y-16744426D01*
X-34967690Y-16687884D01*
X-35017932Y-16644750D01*
X-35078191Y-16614863D01*
X-35146850Y-16597415D01*
X-35222294Y-16591599D01*
X-35311470Y-16595477D01*
X-35413570Y-16610985D01*
X-35542811Y-16610985D01*
X-35542811Y-16600646D01*
X-35686268Y-16600646D01*
X-35686268Y-17093053D01*
X-35709047Y-17042649D01*
X-35736026Y-16984491D01*
X-35766397Y-16921486D01*
X-35799354Y-16856543D01*
X-35834087Y-16790468D01*
X-35869790Y-16724071D01*
X-35905977Y-16659935D01*
X-35942165Y-16600646D01*
X-36070113Y-16600646D01*
X-36070113Y-17400646D01*
X-36253744Y-17400646D01*
X-36179968Y-17381260D01*
X-36179968Y-16981906D01*
X-36338934Y-16981906D01*
X-36338934Y-17273990D01*
X-36369951Y-17277868D01*
X-36400969Y-17279160D01*
X-36478191Y-17262197D01*
X-36534087Y-17211309D01*
X-36559217Y-17157674D01*
X-36574295Y-17087237D01*
X-36579321Y-17000000D01*
X-36576575Y-16940711D01*
X-36568336Y-16886914D01*
X-36532149Y-16799031D01*
X-36468174Y-16741519D01*
X-36372536Y-16720840D01*
X-36287237Y-16735057D01*
X-36217447Y-16767367D01*
X-36176090Y-16640711D01*
X-36202585Y-16625202D01*
X-36247173Y-16605816D01*
X-36311147Y-16589661D01*
X-36394507Y-16582553D01*
X-36464620Y-16589176D01*
X-36530210Y-16609047D01*
X-36589338Y-16642165D01*
X-36640065Y-16688530D01*
X-36681745Y-16747819D01*
X-36713732Y-16819709D01*
X-36734087Y-16903877D01*
X-36740872Y-17000000D01*
X-37319871Y-17000000D01*
X-37309780Y-16897549D01*
X-37279896Y-16799035D01*
X-37231367Y-16708243D01*
X-37166058Y-16628664D01*
X-37086479Y-16563355D01*
X-36995688Y-16514826D01*
X-36897174Y-16484942D01*
X-36794723Y-16474852D01*
X-36740872Y-16474852D01*
X-34872052Y-16474852D01*
X-34818201Y-16474852D01*
X-34715750Y-16484942D01*
G37*
D10*
%TO.C,TP102*%
X-28000000Y-10200000D02*
X-26600000Y-10200000D01*
X-28000000Y-11600000D02*
X-28000000Y-10200000D01*
X-26600000Y-10200000D02*
X-26600000Y-11600000D01*
X-26600000Y-11600000D02*
X-28000000Y-11600000D01*
%TO.C,TP103*%
X-19400000Y-10200000D02*
X-18000000Y-10200000D01*
X-19400000Y-11600000D02*
X-19400000Y-10200000D01*
X-18000000Y-10200000D02*
X-18000000Y-11600000D01*
X-18000000Y-11600000D02*
X-19400000Y-11600000D01*
%TO.C,TP104*%
X-19400000Y-8200000D02*
X-18000000Y-8200000D01*
X-19400000Y-9600000D02*
X-19400000Y-8200000D01*
X-18000000Y-8200000D02*
X-18000000Y-9600000D01*
X-18000000Y-9600000D02*
X-19400000Y-9600000D01*
%TO.C,U101*%
X-25330000Y-13300000D02*
X-25330000Y-13570000D01*
X-25330000Y-20200000D02*
X-25330000Y-19930000D01*
X-18910000Y-13300000D02*
X-25330000Y-13300000D01*
X-18910000Y-20200000D02*
X-25330000Y-20200000D01*
X-26750000Y-13610000D02*
X-26990000Y-13280000D01*
X-26510000Y-13280000D01*
X-26750000Y-13610000D01*
G36*
X-26750000Y-13610000D02*
G01*
X-26990000Y-13280000D01*
X-26510000Y-13280000D01*
X-26750000Y-13610000D01*
G37*
D11*
%TO.C,kibuzzard-66A68B20*%
G36*
X-34702826Y-8884942D02*
G01*
X-34604312Y-8914826D01*
X-34513521Y-8963355D01*
X-34433942Y-9028664D01*
X-34368633Y-9108243D01*
X-34320104Y-9199035D01*
X-34290220Y-9297549D01*
X-34280129Y-9400000D01*
X-34290220Y-9502451D01*
X-34320104Y-9600965D01*
X-34368633Y-9691757D01*
X-34433942Y-9771336D01*
X-34513521Y-9836645D01*
X-34604312Y-9885174D01*
X-34702826Y-9915058D01*
X-34805277Y-9925148D01*
X-34859128Y-9925148D01*
X-35082714Y-9925148D01*
X-35728918Y-9925148D01*
X-36517286Y-9925148D01*
X-36740872Y-9925148D01*
X-36794723Y-9925148D01*
X-36897174Y-9915058D01*
X-36995688Y-9885174D01*
X-37086479Y-9836645D01*
X-37166058Y-9771336D01*
X-37231367Y-9691757D01*
X-37279896Y-9600965D01*
X-37309780Y-9502451D01*
X-37319871Y-9400000D01*
X-37309780Y-9297549D01*
X-37279896Y-9199035D01*
X-37231367Y-9108243D01*
X-37166058Y-9028664D01*
X-37131918Y-9000646D01*
X-36740872Y-9000646D01*
X-36726010Y-9073021D01*
X-36704685Y-9163489D01*
X-36687596Y-9231197D01*
X-36669072Y-9301633D01*
X-36649111Y-9374798D01*
X-36628002Y-9449399D01*
X-36606031Y-9524143D01*
X-36583199Y-9599031D01*
X-36549273Y-9705654D01*
X-36517286Y-9800646D01*
X-36353150Y-9800646D01*
X-36328451Y-9731790D01*
X-36304326Y-9661353D01*
X-36280775Y-9589338D01*
X-36258158Y-9516963D01*
X-36236834Y-9445450D01*
X-36223947Y-9400000D01*
X-36076575Y-9400000D01*
X-36071002Y-9494426D01*
X-36054281Y-9577383D01*
X-36026414Y-9648869D01*
X-35987399Y-9708885D01*
X-35919045Y-9769198D01*
X-35832885Y-9805385D01*
X-35728918Y-9817447D01*
X-35658320Y-9813086D01*
X-35596446Y-9800000D01*
X-35505331Y-9761874D01*
X-35545396Y-9636511D01*
X-35610662Y-9664943D01*
X-35713409Y-9679160D01*
X-35805654Y-9660905D01*
X-35867851Y-9606139D01*
X-35894059Y-9550350D01*
X-35909783Y-9480345D01*
X-35914783Y-9400000D01*
X-35430372Y-9400000D01*
X-35424798Y-9494426D01*
X-35408078Y-9577383D01*
X-35380210Y-9648869D01*
X-35341195Y-9708885D01*
X-35272841Y-9769198D01*
X-35186681Y-9805385D01*
X-35082714Y-9817447D01*
X-35012116Y-9813086D01*
X-34950242Y-9800000D01*
X-34859128Y-9761874D01*
X-34899192Y-9636511D01*
X-34964459Y-9664943D01*
X-35067205Y-9679160D01*
X-35159451Y-9660905D01*
X-35221648Y-9606139D01*
X-35247855Y-9550350D01*
X-35263579Y-9480345D01*
X-35268821Y-9396123D01*
X-35264459Y-9323748D01*
X-35251373Y-9264297D01*
X-35206139Y-9179645D01*
X-35142811Y-9134410D01*
X-35069790Y-9120840D01*
X-34973506Y-9134410D01*
X-34901777Y-9167367D01*
X-34860420Y-9040711D01*
X-34886914Y-9025202D01*
X-34930210Y-9005816D01*
X-34990307Y-8989661D01*
X-35067205Y-8982553D01*
X-35142973Y-8989499D01*
X-35212601Y-9010339D01*
X-35274636Y-9044588D01*
X-35327625Y-9091761D01*
X-35370759Y-9151373D01*
X-35403231Y-9222940D01*
X-35423586Y-9305977D01*
X-35430372Y-9400000D01*
X-35914783Y-9400000D01*
X-35915024Y-9396123D01*
X-35910662Y-9323748D01*
X-35897577Y-9264297D01*
X-35852342Y-9179645D01*
X-35789015Y-9134410D01*
X-35715994Y-9120840D01*
X-35619709Y-9134410D01*
X-35547981Y-9167367D01*
X-35506624Y-9040711D01*
X-35533118Y-9025202D01*
X-35576414Y-9005816D01*
X-35636510Y-8989661D01*
X-35713409Y-8982553D01*
X-35789176Y-8989499D01*
X-35858805Y-9010339D01*
X-35920840Y-9044588D01*
X-35973829Y-9091761D01*
X-36016963Y-9151373D01*
X-36049435Y-9222940D01*
X-36069790Y-9305977D01*
X-36076575Y-9400000D01*
X-36223947Y-9400000D01*
X-36216801Y-9374798D01*
X-36189338Y-9271890D01*
X-36165105Y-9173829D01*
X-36144265Y-9082714D01*
X-36126979Y-9000646D01*
X-36293700Y-9000646D01*
X-36305331Y-9067851D01*
X-36319548Y-9145396D01*
X-36335703Y-9229241D01*
X-36353150Y-9315347D01*
X-36371890Y-9401939D01*
X-36391922Y-9487237D01*
X-36412601Y-9567205D01*
X-36433279Y-9637803D01*
X-36454120Y-9566236D01*
X-36475283Y-9485945D01*
X-36495961Y-9400646D01*
X-36515347Y-9314055D01*
X-36533279Y-9228110D01*
X-36549596Y-9144750D01*
X-36563166Y-9067690D01*
X-36572859Y-9000646D01*
X-36740872Y-9000646D01*
X-37131918Y-9000646D01*
X-37086479Y-8963355D01*
X-36995688Y-8914826D01*
X-36897174Y-8884942D01*
X-36794723Y-8874852D01*
X-36740872Y-8874852D01*
X-34859128Y-8874852D01*
X-34805277Y-8874852D01*
X-34702826Y-8884942D01*
G37*
D10*
%TO.C,TP110*%
X-16500000Y-11200000D02*
X-15100000Y-11200000D01*
X-16500000Y-12600000D02*
X-16500000Y-11200000D01*
X-15100000Y-11200000D02*
X-15100000Y-12600000D01*
X-15100000Y-12600000D02*
X-16500000Y-12600000D01*
D11*
%TO.C,kibuzzard-66A68BCE*%
G36*
X-32015024Y-21352504D02*
G01*
X-31962036Y-21412601D01*
X-31934895Y-21499192D01*
X-31927141Y-21600000D01*
X-31929564Y-21657027D01*
X-31936834Y-21709208D01*
X-31969144Y-21795153D01*
X-32028595Y-21852019D01*
X-32119709Y-21872698D01*
X-32133926Y-21872698D01*
X-32148142Y-21871405D01*
X-32148142Y-21333764D01*
X-32124879Y-21330533D01*
X-32101616Y-21329887D01*
X-32015024Y-21352504D01*
G37*
G36*
X-31609288Y-21084942D02*
G01*
X-31510774Y-21114826D01*
X-31419983Y-21163355D01*
X-31340404Y-21228664D01*
X-31275095Y-21308243D01*
X-31226566Y-21399035D01*
X-31196682Y-21497549D01*
X-31186591Y-21600000D01*
X-31196682Y-21702451D01*
X-31226566Y-21800965D01*
X-31275095Y-21891757D01*
X-31340404Y-21971336D01*
X-31419983Y-22036645D01*
X-31510774Y-22085174D01*
X-31609288Y-22115058D01*
X-31711739Y-22125148D01*
X-31765590Y-22125148D01*
X-32136511Y-22125148D01*
X-32564297Y-22125148D01*
X-33307431Y-22125148D01*
X-33634410Y-22125148D01*
X-33688261Y-22125148D01*
X-33790712Y-22115058D01*
X-33889226Y-22085174D01*
X-33980017Y-22036645D01*
X-34059596Y-21971336D01*
X-34124905Y-21891757D01*
X-34173434Y-21800965D01*
X-34203318Y-21702451D01*
X-34213409Y-21600000D01*
X-33634410Y-21600000D01*
X-33628595Y-21697092D01*
X-33611147Y-21781583D01*
X-33583037Y-21853312D01*
X-33545234Y-21912116D01*
X-33498223Y-21957997D01*
X-33442488Y-21990953D01*
X-33378675Y-22010824D01*
X-33307431Y-22017447D01*
X-33228433Y-22014216D01*
X-33162036Y-22004523D01*
X-33147282Y-22000646D01*
X-32963651Y-22000646D01*
X-32820194Y-22000646D01*
X-32820194Y-21469467D01*
X-32772159Y-21558140D01*
X-32726279Y-21646670D01*
X-32682553Y-21735057D01*
X-32640980Y-21823443D01*
X-32601562Y-21911973D01*
X-32564297Y-22000646D01*
X-32436349Y-22000646D01*
X-32436349Y-21210985D01*
X-32307108Y-21210985D01*
X-32307108Y-21991599D01*
X-32219871Y-22006462D01*
X-32136511Y-22010985D01*
X-32058481Y-22005331D01*
X-31987237Y-21988368D01*
X-31924071Y-21959128D01*
X-31870275Y-21916640D01*
X-31826494Y-21860258D01*
X-31793376Y-21789338D01*
X-31772536Y-21702908D01*
X-31765590Y-21600000D01*
X-31771890Y-21499354D01*
X-31790792Y-21414540D01*
X-31821002Y-21344426D01*
X-31861228Y-21287884D01*
X-31911470Y-21244750D01*
X-31971729Y-21214863D01*
X-32040388Y-21197415D01*
X-32115832Y-21191599D01*
X-32205008Y-21195477D01*
X-32307108Y-21210985D01*
X-32436349Y-21210985D01*
X-32436349Y-21200646D01*
X-32579806Y-21200646D01*
X-32579806Y-21693053D01*
X-32602585Y-21642649D01*
X-32629564Y-21584491D01*
X-32659935Y-21521486D01*
X-32692892Y-21456543D01*
X-32727625Y-21390468D01*
X-32763328Y-21324071D01*
X-32799515Y-21259935D01*
X-32835703Y-21200646D01*
X-32963651Y-21200646D01*
X-32963651Y-22000646D01*
X-33147282Y-22000646D01*
X-33073506Y-21981260D01*
X-33073506Y-21581906D01*
X-33232472Y-21581906D01*
X-33232472Y-21873990D01*
X-33263489Y-21877868D01*
X-33294507Y-21879160D01*
X-33371729Y-21862197D01*
X-33427625Y-21811309D01*
X-33452755Y-21757674D01*
X-33467833Y-21687237D01*
X-33472859Y-21600000D01*
X-33470113Y-21540711D01*
X-33461874Y-21486914D01*
X-33425687Y-21399031D01*
X-33361712Y-21341519D01*
X-33266074Y-21320840D01*
X-33180775Y-21335057D01*
X-33110985Y-21367367D01*
X-33069628Y-21240711D01*
X-33096123Y-21225202D01*
X-33140711Y-21205816D01*
X-33204685Y-21189661D01*
X-33288045Y-21182553D01*
X-33358158Y-21189176D01*
X-33423748Y-21209047D01*
X-33482876Y-21242165D01*
X-33533603Y-21288530D01*
X-33575283Y-21347819D01*
X-33607270Y-21419709D01*
X-33627625Y-21503877D01*
X-33634410Y-21600000D01*
X-34213409Y-21600000D01*
X-34203318Y-21497549D01*
X-34173434Y-21399035D01*
X-34124905Y-21308243D01*
X-34059596Y-21228664D01*
X-33980017Y-21163355D01*
X-33889226Y-21114826D01*
X-33790712Y-21084942D01*
X-33688261Y-21074852D01*
X-33634410Y-21074852D01*
X-31765590Y-21074852D01*
X-31711739Y-21074852D01*
X-31609288Y-21084942D01*
G37*
%TO.C,kibuzzard-66A68B20*%
G36*
X-8902826Y-8884942D02*
G01*
X-8804312Y-8914826D01*
X-8713521Y-8963355D01*
X-8633942Y-9028664D01*
X-8568633Y-9108243D01*
X-8520104Y-9199035D01*
X-8490220Y-9297549D01*
X-8480129Y-9400000D01*
X-8490220Y-9502451D01*
X-8520104Y-9600965D01*
X-8568633Y-9691757D01*
X-8633942Y-9771336D01*
X-8713521Y-9836645D01*
X-8804312Y-9885174D01*
X-8902826Y-9915058D01*
X-9005277Y-9925148D01*
X-9059128Y-9925148D01*
X-9282714Y-9925148D01*
X-9928918Y-9925148D01*
X-10717286Y-9925148D01*
X-10940872Y-9925148D01*
X-10994723Y-9925148D01*
X-11097174Y-9915058D01*
X-11195688Y-9885174D01*
X-11286479Y-9836645D01*
X-11366058Y-9771336D01*
X-11431367Y-9691757D01*
X-11479896Y-9600965D01*
X-11509780Y-9502451D01*
X-11519871Y-9400000D01*
X-11509780Y-9297549D01*
X-11479896Y-9199035D01*
X-11431367Y-9108243D01*
X-11366058Y-9028664D01*
X-11331918Y-9000646D01*
X-10940872Y-9000646D01*
X-10926010Y-9073021D01*
X-10904685Y-9163489D01*
X-10887596Y-9231197D01*
X-10869072Y-9301633D01*
X-10849111Y-9374798D01*
X-10828002Y-9449399D01*
X-10806031Y-9524143D01*
X-10783199Y-9599031D01*
X-10749273Y-9705654D01*
X-10717286Y-9800646D01*
X-10553150Y-9800646D01*
X-10528451Y-9731790D01*
X-10504326Y-9661353D01*
X-10480775Y-9589338D01*
X-10458158Y-9516963D01*
X-10436834Y-9445450D01*
X-10423947Y-9400000D01*
X-10276575Y-9400000D01*
X-10271002Y-9494426D01*
X-10254281Y-9577383D01*
X-10226414Y-9648869D01*
X-10187399Y-9708885D01*
X-10119045Y-9769198D01*
X-10032885Y-9805385D01*
X-9928918Y-9817447D01*
X-9858320Y-9813086D01*
X-9796446Y-9800000D01*
X-9705331Y-9761874D01*
X-9745396Y-9636511D01*
X-9810662Y-9664943D01*
X-9913409Y-9679160D01*
X-10005654Y-9660905D01*
X-10067851Y-9606139D01*
X-10094059Y-9550350D01*
X-10109783Y-9480345D01*
X-10114783Y-9400000D01*
X-9630372Y-9400000D01*
X-9624798Y-9494426D01*
X-9608078Y-9577383D01*
X-9580210Y-9648869D01*
X-9541195Y-9708885D01*
X-9472841Y-9769198D01*
X-9386681Y-9805385D01*
X-9282714Y-9817447D01*
X-9212116Y-9813086D01*
X-9150242Y-9800000D01*
X-9059128Y-9761874D01*
X-9099192Y-9636511D01*
X-9164459Y-9664943D01*
X-9267205Y-9679160D01*
X-9359451Y-9660905D01*
X-9421648Y-9606139D01*
X-9447855Y-9550350D01*
X-9463579Y-9480345D01*
X-9468821Y-9396123D01*
X-9464459Y-9323748D01*
X-9451373Y-9264297D01*
X-9406139Y-9179645D01*
X-9342811Y-9134410D01*
X-9269790Y-9120840D01*
X-9173506Y-9134410D01*
X-9101777Y-9167367D01*
X-9060420Y-9040711D01*
X-9086914Y-9025202D01*
X-9130210Y-9005816D01*
X-9190307Y-8989661D01*
X-9267205Y-8982553D01*
X-9342973Y-8989499D01*
X-9412601Y-9010339D01*
X-9474636Y-9044588D01*
X-9527625Y-9091761D01*
X-9570759Y-9151373D01*
X-9603231Y-9222940D01*
X-9623586Y-9305977D01*
X-9630372Y-9400000D01*
X-10114783Y-9400000D01*
X-10115024Y-9396123D01*
X-10110662Y-9323748D01*
X-10097577Y-9264297D01*
X-10052342Y-9179645D01*
X-9989015Y-9134410D01*
X-9915994Y-9120840D01*
X-9819709Y-9134410D01*
X-9747981Y-9167367D01*
X-9706624Y-9040711D01*
X-9733118Y-9025202D01*
X-9776414Y-9005816D01*
X-9836510Y-8989661D01*
X-9913409Y-8982553D01*
X-9989176Y-8989499D01*
X-10058805Y-9010339D01*
X-10120840Y-9044588D01*
X-10173829Y-9091761D01*
X-10216963Y-9151373D01*
X-10249435Y-9222940D01*
X-10269790Y-9305977D01*
X-10276575Y-9400000D01*
X-10423947Y-9400000D01*
X-10416801Y-9374798D01*
X-10389338Y-9271890D01*
X-10365105Y-9173829D01*
X-10344265Y-9082714D01*
X-10326979Y-9000646D01*
X-10493700Y-9000646D01*
X-10505331Y-9067851D01*
X-10519548Y-9145396D01*
X-10535703Y-9229241D01*
X-10553150Y-9315347D01*
X-10571890Y-9401939D01*
X-10591922Y-9487237D01*
X-10612601Y-9567205D01*
X-10633279Y-9637803D01*
X-10654120Y-9566236D01*
X-10675283Y-9485945D01*
X-10695961Y-9400646D01*
X-10715347Y-9314055D01*
X-10733279Y-9228110D01*
X-10749596Y-9144750D01*
X-10763166Y-9067690D01*
X-10772859Y-9000646D01*
X-10940872Y-9000646D01*
X-11331918Y-9000646D01*
X-11286479Y-8963355D01*
X-11195688Y-8914826D01*
X-11097174Y-8884942D01*
X-10994723Y-8874852D01*
X-10940872Y-8874852D01*
X-9059128Y-8874852D01*
X-9005277Y-8874852D01*
X-8902826Y-8884942D01*
G37*
D10*
%TO.C,TP111*%
X-30600000Y-20800000D02*
X-29200000Y-20800000D01*
X-30600000Y-22200000D02*
X-30600000Y-20800000D01*
X-29200000Y-20800000D02*
X-29200000Y-22200000D01*
X-29200000Y-22200000D02*
X-30600000Y-22200000D01*
%TO.C,TP109*%
X-30600000Y-13750000D02*
X-29200000Y-13750000D01*
X-30600000Y-15150000D02*
X-30600000Y-13750000D01*
X-29200000Y-13750000D02*
X-29200000Y-15150000D01*
X-29200000Y-15150000D02*
X-30600000Y-15150000D01*
D11*
%TO.C,kibuzzard-66A68C2F*%
G36*
X-34674136Y-11402055D02*
G01*
X-34578895Y-11430946D01*
X-34491120Y-11477862D01*
X-34414185Y-11541001D01*
X-34351046Y-11617937D01*
X-34304129Y-11705711D01*
X-34275238Y-11800953D01*
X-34265483Y-11900000D01*
X-34275238Y-11999047D01*
X-34304129Y-12094289D01*
X-34351046Y-12182063D01*
X-34414185Y-12258999D01*
X-34491120Y-12322138D01*
X-34578895Y-12369054D01*
X-34674136Y-12397945D01*
X-34773183Y-12407701D01*
X-35527087Y-12407701D01*
X-36058267Y-12407701D01*
X-36812171Y-12407701D01*
X-36911218Y-12397945D01*
X-37006459Y-12369054D01*
X-37094234Y-12322138D01*
X-37171169Y-12258999D01*
X-37234308Y-12182063D01*
X-37281225Y-12094289D01*
X-37310116Y-11999047D01*
X-37319871Y-11900000D01*
X-37310116Y-11800953D01*
X-37281225Y-11705711D01*
X-37260384Y-11666721D01*
X-36058267Y-11666721D01*
X-36006570Y-11798546D01*
X-35927734Y-11766882D01*
X-35845019Y-11721002D01*
X-35845019Y-12168174D01*
X-36013032Y-12168174D01*
X-36013032Y-12300000D01*
X-35527087Y-12300000D01*
X-35527087Y-12168174D01*
X-35686053Y-12168174D01*
X-35686053Y-11500000D01*
X-35794616Y-11500000D01*
X-35850189Y-11550404D01*
X-35918687Y-11596931D01*
X-35991061Y-11636995D01*
X-36058267Y-11666721D01*
X-37260384Y-11666721D01*
X-37234308Y-11617937D01*
X-37171169Y-11541001D01*
X-37094234Y-11477862D01*
X-37006459Y-11430946D01*
X-36911218Y-11402055D01*
X-36812171Y-11392299D01*
X-36058267Y-11392299D01*
X-35527087Y-11392299D01*
X-34773183Y-11392299D01*
X-34674136Y-11402055D01*
G37*
%TO.C,kibuzzard-66A68C47*%
G36*
X-34654576Y-13884942D02*
G01*
X-34556062Y-13914826D01*
X-34465271Y-13963355D01*
X-34385692Y-14028664D01*
X-34320383Y-14108243D01*
X-34271854Y-14199035D01*
X-34241970Y-14297549D01*
X-34231879Y-14400000D01*
X-34241970Y-14502451D01*
X-34271854Y-14600965D01*
X-34320383Y-14691757D01*
X-34385692Y-14771336D01*
X-34465271Y-14836645D01*
X-34556062Y-14885174D01*
X-34654576Y-14915058D01*
X-34757027Y-14925148D01*
X-35510932Y-14925148D01*
X-35818524Y-14925148D01*
X-36040818Y-14925148D01*
X-36794723Y-14925148D01*
X-36897174Y-14915058D01*
X-36995688Y-14885174D01*
X-37086479Y-14836645D01*
X-37163414Y-14773506D01*
X-36040818Y-14773506D01*
X-36000754Y-14787722D01*
X-35944534Y-14801939D01*
X-35881206Y-14812924D01*
X-35818524Y-14817447D01*
X-35743888Y-14812763D01*
X-35680237Y-14798708D01*
X-35627248Y-14776090D01*
X-35584599Y-14745719D01*
X-35529025Y-14664943D01*
X-35510932Y-14562843D01*
X-35519494Y-14497900D01*
X-35545180Y-14442649D01*
X-35586376Y-14398384D01*
X-35641465Y-14366397D01*
X-35569090Y-14299192D01*
X-35541949Y-14207431D01*
X-35557458Y-14118255D01*
X-35605277Y-14046527D01*
X-35687345Y-13999354D01*
X-35741465Y-13986753D01*
X-35804308Y-13982553D01*
X-35872967Y-13988530D01*
X-35934195Y-14006462D01*
X-36026602Y-14053635D01*
X-35969736Y-14169952D01*
X-35892838Y-14133118D01*
X-35803016Y-14118255D01*
X-35729995Y-14143457D01*
X-35703500Y-14212601D01*
X-35715778Y-14261712D01*
X-35747442Y-14292730D01*
X-35791384Y-14309532D01*
X-35840495Y-14314701D01*
X-35899946Y-14314701D01*
X-35899946Y-14446527D01*
X-35850835Y-14446527D01*
X-35780075Y-14452827D01*
X-35722886Y-14471729D01*
X-35685083Y-14506462D01*
X-35672482Y-14560258D01*
X-35705439Y-14646850D01*
X-35750512Y-14673021D01*
X-35819817Y-14681745D01*
X-35881045Y-14678191D01*
X-35932902Y-14667528D01*
X-36009801Y-14640388D01*
X-36040818Y-14773506D01*
X-37163414Y-14773506D01*
X-37166058Y-14771336D01*
X-37231367Y-14691757D01*
X-37279896Y-14600965D01*
X-37309780Y-14502451D01*
X-37319871Y-14400000D01*
X-37309780Y-14297549D01*
X-37279896Y-14199035D01*
X-37231367Y-14108243D01*
X-37166058Y-14028664D01*
X-37086479Y-13963355D01*
X-36995688Y-13914826D01*
X-36897174Y-13884942D01*
X-36794723Y-13874852D01*
X-36040818Y-13874852D01*
X-35510932Y-13874852D01*
X-34757027Y-13874852D01*
X-34654576Y-13884942D01*
G37*
%TO.C,kibuzzard-66CB75F7*%
G36*
X-22605331Y-22536187D02*
G01*
X-22563166Y-22589984D01*
X-22544139Y-22645055D01*
X-22532723Y-22714629D01*
X-22528918Y-22798708D01*
X-22532723Y-22883504D01*
X-22544139Y-22953509D01*
X-22563166Y-23008724D01*
X-22605331Y-23062520D01*
X-22662036Y-23080053D01*
X-22663328Y-23080452D01*
X-22720517Y-23062520D01*
X-22762843Y-23008724D01*
X-22782229Y-22953509D01*
X-22793861Y-22883504D01*
X-22797738Y-22798708D01*
X-22797142Y-22785784D01*
X-22734410Y-22785784D01*
X-22715024Y-22845880D01*
X-22662036Y-22871082D01*
X-22610985Y-22845880D01*
X-22590953Y-22785784D01*
X-22610985Y-22725040D01*
X-22662036Y-22699192D01*
X-22715024Y-22725040D01*
X-22734410Y-22785784D01*
X-22797142Y-22785784D01*
X-22793861Y-22714629D01*
X-22782229Y-22645055D01*
X-22762843Y-22589984D01*
X-22720517Y-22536187D01*
X-22663328Y-22518255D01*
X-22605331Y-22536187D01*
G37*
G36*
X-21312924Y-22536187D02*
G01*
X-21270759Y-22589984D01*
X-21251732Y-22645055D01*
X-21240316Y-22714629D01*
X-21236511Y-22798708D01*
X-21240316Y-22883504D01*
X-21251732Y-22953509D01*
X-21270759Y-23008724D01*
X-21312924Y-23062520D01*
X-21369628Y-23080053D01*
X-21370921Y-23080452D01*
X-21428110Y-23062520D01*
X-21470436Y-23008724D01*
X-21489822Y-22953509D01*
X-21501454Y-22883504D01*
X-21505331Y-22798708D01*
X-21504735Y-22785784D01*
X-21442003Y-22785784D01*
X-21422617Y-22845880D01*
X-21369628Y-22871082D01*
X-21318578Y-22845880D01*
X-21298546Y-22785784D01*
X-21318578Y-22725040D01*
X-21369628Y-22699192D01*
X-21422617Y-22725040D01*
X-21442003Y-22785784D01*
X-21504735Y-22785784D01*
X-21501454Y-22714629D01*
X-21489822Y-22645055D01*
X-21470436Y-22589984D01*
X-21428110Y-22536187D01*
X-21370921Y-22518255D01*
X-21312924Y-22536187D01*
G37*
G36*
X-20473703Y-22800000D02*
G01*
X-20823802Y-23325148D01*
X-21093053Y-23325148D01*
X-21370921Y-23325148D01*
X-22015832Y-23325148D01*
X-22663328Y-23325148D01*
X-23308239Y-23325148D01*
X-23685622Y-23325148D01*
X-24674313Y-23325148D01*
X-24906947Y-23325148D01*
X-25176198Y-23325148D01*
X-25526297Y-22800000D01*
X-25388440Y-22593215D01*
X-24906947Y-22593215D01*
X-24879443Y-22683158D01*
X-24851212Y-22769467D01*
X-24822254Y-22852141D01*
X-24792569Y-22931179D01*
X-24752719Y-23029761D01*
X-24713301Y-23119584D01*
X-24674313Y-23200646D01*
X-24541195Y-23200646D01*
X-24501562Y-23119584D01*
X-24460205Y-23029761D01*
X-24417124Y-22931179D01*
X-24384895Y-22852141D01*
X-24354120Y-22769467D01*
X-24324798Y-22683158D01*
X-24296931Y-22593215D01*
X-24458481Y-22593215D01*
X-24471890Y-22643942D01*
X-24488853Y-22697900D01*
X-24507916Y-22753635D01*
X-24527625Y-22809693D01*
X-24547819Y-22865105D01*
X-24568336Y-22918901D01*
X-24605816Y-23015832D01*
X-24641357Y-22918901D01*
X-24659935Y-22865105D01*
X-24678191Y-22809693D01*
X-24695800Y-22753635D01*
X-24712439Y-22697900D01*
X-24727464Y-22643942D01*
X-24740226Y-22593215D01*
X-24906947Y-22593215D01*
X-25388440Y-22593215D01*
X-25371208Y-22567367D01*
X-24216801Y-22567367D01*
X-24165105Y-22699192D01*
X-24086268Y-22667528D01*
X-24003554Y-22621648D01*
X-24003554Y-23068821D01*
X-24171567Y-23068821D01*
X-24171567Y-23200646D01*
X-23685622Y-23200646D01*
X-23685622Y-23098546D01*
X-23424556Y-23098546D01*
X-23414863Y-23148304D01*
X-23389015Y-23184491D01*
X-23352181Y-23207108D01*
X-23308239Y-23214863D01*
X-23228110Y-23185137D01*
X-23193215Y-23098546D01*
X-23228110Y-23014540D01*
X-23308239Y-22984814D01*
X-23352181Y-22992569D01*
X-23389015Y-23014540D01*
X-23414863Y-23050081D01*
X-23424556Y-23098546D01*
X-23685622Y-23098546D01*
X-23685622Y-23068821D01*
X-23844588Y-23068821D01*
X-23844588Y-22798708D01*
X-22941195Y-22798708D01*
X-22936753Y-22897900D01*
X-22923425Y-22983522D01*
X-22901212Y-23055574D01*
X-22870113Y-23114055D01*
X-22815545Y-23171495D01*
X-22746616Y-23205959D01*
X-22663328Y-23217447D01*
X-22580039Y-23205959D01*
X-22511111Y-23171495D01*
X-22456543Y-23114055D01*
X-22448296Y-23098546D01*
X-22132149Y-23098546D01*
X-22122456Y-23148304D01*
X-22096607Y-23184491D01*
X-22059774Y-23207108D01*
X-22015832Y-23214863D01*
X-21935703Y-23185137D01*
X-21900808Y-23098546D01*
X-21935703Y-23014540D01*
X-22015832Y-22984814D01*
X-22059774Y-22992569D01*
X-22096607Y-23014540D01*
X-22122456Y-23050081D01*
X-22132149Y-23098546D01*
X-22448296Y-23098546D01*
X-22425444Y-23055574D01*
X-22403231Y-22983522D01*
X-22389903Y-22897900D01*
X-22385460Y-22798708D01*
X-21648788Y-22798708D01*
X-21644346Y-22897900D01*
X-21631018Y-22983522D01*
X-21608805Y-23055574D01*
X-21577706Y-23114055D01*
X-21523138Y-23171495D01*
X-21454209Y-23205959D01*
X-21370921Y-23217447D01*
X-21287632Y-23205959D01*
X-21218704Y-23171495D01*
X-21164136Y-23114055D01*
X-21133037Y-23055574D01*
X-21110824Y-22983522D01*
X-21097496Y-22897900D01*
X-21093053Y-22798708D01*
X-21097496Y-22700121D01*
X-21110824Y-22615024D01*
X-21133037Y-22543417D01*
X-21164136Y-22485299D01*
X-21218704Y-22428218D01*
X-21287632Y-22393969D01*
X-21370921Y-22382553D01*
X-21452917Y-22394041D01*
X-21521414Y-22428505D01*
X-21576414Y-22485945D01*
X-21608078Y-22544265D01*
X-21630695Y-22615832D01*
X-21644265Y-22700646D01*
X-21648788Y-22798708D01*
X-22385460Y-22798708D01*
X-22389903Y-22700121D01*
X-22403231Y-22615024D01*
X-22425444Y-22543417D01*
X-22456543Y-22485299D01*
X-22511111Y-22428218D01*
X-22580039Y-22393969D01*
X-22663328Y-22382553D01*
X-22745324Y-22394041D01*
X-22813822Y-22428505D01*
X-22868821Y-22485945D01*
X-22900485Y-22544265D01*
X-22923102Y-22615832D01*
X-22936672Y-22700646D01*
X-22941195Y-22798708D01*
X-23844588Y-22798708D01*
X-23844588Y-22400646D01*
X-23953150Y-22400646D01*
X-24008724Y-22451050D01*
X-24077221Y-22497577D01*
X-24149596Y-22537641D01*
X-24216801Y-22567367D01*
X-25371208Y-22567367D01*
X-25176198Y-22274852D01*
X-24906947Y-22274852D01*
X-21093053Y-22274852D01*
X-20823802Y-22274852D01*
X-20473703Y-22800000D01*
G37*
D10*
%TO.C,TP112*%
X-16500000Y-20800000D02*
X-15100000Y-20800000D01*
X-16500000Y-22200000D02*
X-16500000Y-20800000D01*
X-15100000Y-20800000D02*
X-15100000Y-22200000D01*
X-15100000Y-22200000D02*
X-16500000Y-22200000D01*
D11*
%TO.C,kibuzzard-66CCC686*%
G36*
X-24441195Y-21142811D02*
G01*
X-24403069Y-21202262D01*
X-24384976Y-21290792D01*
X-24381583Y-21343619D01*
X-24380452Y-21400000D01*
X-24381583Y-21456220D01*
X-24384976Y-21508562D01*
X-24403069Y-21597092D01*
X-24441842Y-21657189D01*
X-24507108Y-21679160D01*
X-24573021Y-21657189D01*
X-24611147Y-21597738D01*
X-24629241Y-21509208D01*
X-24632633Y-21456381D01*
X-24633764Y-21400000D01*
X-24632633Y-21343780D01*
X-24629241Y-21291438D01*
X-24611147Y-21202908D01*
X-24573021Y-21142811D01*
X-24507108Y-21120840D01*
X-24441195Y-21142811D01*
G37*
G36*
X-19984194Y-20884943D02*
G01*
X-19885680Y-20914826D01*
X-19794888Y-20963355D01*
X-19715309Y-21028664D01*
X-19650000Y-21108243D01*
X-19601472Y-21199035D01*
X-19571588Y-21297549D01*
X-19561497Y-21400000D01*
X-19571588Y-21502451D01*
X-19601472Y-21600965D01*
X-19650000Y-21691757D01*
X-19715309Y-21771336D01*
X-19794888Y-21836645D01*
X-19885680Y-21885174D01*
X-19984194Y-21915057D01*
X-20086645Y-21925148D01*
X-20355897Y-21925148D01*
X-21099031Y-21925148D01*
X-21648304Y-21925148D01*
X-22630533Y-21925148D01*
X-22940711Y-21925148D01*
X-23683845Y-21925148D01*
X-24505816Y-21925148D01*
X-25073183Y-21925148D01*
X-25444103Y-21925148D01*
X-25713355Y-21925148D01*
X-25815806Y-21915058D01*
X-25914320Y-21885174D01*
X-26005111Y-21836645D01*
X-26084691Y-21771336D01*
X-26150000Y-21691757D01*
X-26198528Y-21600965D01*
X-26228412Y-21502451D01*
X-26238503Y-21400000D01*
X-26228412Y-21297549D01*
X-26198528Y-21199035D01*
X-26162950Y-21132472D01*
X-25444103Y-21132472D01*
X-25233441Y-21132472D01*
X-25233441Y-21800646D01*
X-25073183Y-21800646D01*
X-25073183Y-21400000D01*
X-24795315Y-21400000D01*
X-24790670Y-21497052D01*
X-24776737Y-21581422D01*
X-24753514Y-21653110D01*
X-24721002Y-21712116D01*
X-24664064Y-21770634D01*
X-24592335Y-21805744D01*
X-24505816Y-21817447D01*
X-24421379Y-21805744D01*
X-24350727Y-21770634D01*
X-24293861Y-21712116D01*
X-24261066Y-21653110D01*
X-24237641Y-21581422D01*
X-24231962Y-21547334D01*
X-24037964Y-21547334D01*
X-23683845Y-21547334D01*
X-23683845Y-21390953D01*
X-24037964Y-21390953D01*
X-24037964Y-21547334D01*
X-24231962Y-21547334D01*
X-24223586Y-21497052D01*
X-24218901Y-21400000D01*
X-24223506Y-21302948D01*
X-24237318Y-21218578D01*
X-24260339Y-21146890D01*
X-24292216Y-21088530D01*
X-23482229Y-21088530D01*
X-23403393Y-21199677D01*
X-23321971Y-21138934D01*
X-23243134Y-21120840D01*
X-23168174Y-21147334D01*
X-23138449Y-21222940D01*
X-23162359Y-21291438D01*
X-23223102Y-21361228D01*
X-23261228Y-21398223D01*
X-23301939Y-21436834D01*
X-23342649Y-21477868D01*
X-23380775Y-21522132D01*
X-23414378Y-21570113D01*
X-23441519Y-21622294D01*
X-23459451Y-21679160D01*
X-23465428Y-21741195D01*
X-23466074Y-21768336D01*
X-23462843Y-21800646D01*
X-22940711Y-21800646D01*
X-22940711Y-21776090D01*
X-22846365Y-21776090D01*
X-22809531Y-21790307D01*
X-22755897Y-21803877D01*
X-22693861Y-21813570D01*
X-22630533Y-21817447D01*
X-22556543Y-21812601D01*
X-22492246Y-21798061D01*
X-22437641Y-21774798D01*
X-22392730Y-21743780D01*
X-22333279Y-21661712D01*
X-22313893Y-21558966D01*
X-22322653Y-21484006D01*
X-22348932Y-21421109D01*
X-22392730Y-21370275D01*
X-22454335Y-21331790D01*
X-22534033Y-21305941D01*
X-22631825Y-21292730D01*
X-22625363Y-21219063D01*
X-22618901Y-21132472D01*
X-22343619Y-21132472D01*
X-22343619Y-21088530D01*
X-22189822Y-21088530D01*
X-22110985Y-21199677D01*
X-22029564Y-21138934D01*
X-21950727Y-21120840D01*
X-21875767Y-21147334D01*
X-21846042Y-21222940D01*
X-21869951Y-21291438D01*
X-21930695Y-21361228D01*
X-21968821Y-21398223D01*
X-22009531Y-21436834D01*
X-22050242Y-21477868D01*
X-22088368Y-21522132D01*
X-22121971Y-21570113D01*
X-22149111Y-21622294D01*
X-22167044Y-21679160D01*
X-22173021Y-21741195D01*
X-22173667Y-21768336D01*
X-22170436Y-21800646D01*
X-21648304Y-21800646D01*
X-21648304Y-21668821D01*
X-21992084Y-21668821D01*
X-21978514Y-21626171D01*
X-21945557Y-21580291D01*
X-21914539Y-21547334D01*
X-21453150Y-21547334D01*
X-21099031Y-21547334D01*
X-21099031Y-21390953D01*
X-21453150Y-21390953D01*
X-21453150Y-21547334D01*
X-21914539Y-21547334D01*
X-21904200Y-21536349D01*
X-21865428Y-21499515D01*
X-21799515Y-21434895D01*
X-21741357Y-21365105D01*
X-21700000Y-21290792D01*
X-21684491Y-21211309D01*
X-21705170Y-21111147D01*
X-21722693Y-21088530D01*
X-20897415Y-21088530D01*
X-20818578Y-21199677D01*
X-20737157Y-21138934D01*
X-20658320Y-21120840D01*
X-20583360Y-21147334D01*
X-20553635Y-21222940D01*
X-20577544Y-21291438D01*
X-20638288Y-21361228D01*
X-20676414Y-21398223D01*
X-20717124Y-21436834D01*
X-20757835Y-21477868D01*
X-20795961Y-21522132D01*
X-20829564Y-21570113D01*
X-20856704Y-21622294D01*
X-20874636Y-21679160D01*
X-20880614Y-21741195D01*
X-20881260Y-21768336D01*
X-20878029Y-21800646D01*
X-20355897Y-21800646D01*
X-20355897Y-21668821D01*
X-20699677Y-21668821D01*
X-20686107Y-21626171D01*
X-20653150Y-21580291D01*
X-20611793Y-21536349D01*
X-20573021Y-21499515D01*
X-20507108Y-21434895D01*
X-20448950Y-21365105D01*
X-20407593Y-21290792D01*
X-20392084Y-21211309D01*
X-20412762Y-21111147D01*
X-20468336Y-21039418D01*
X-20548465Y-20996769D01*
X-20642811Y-20982553D01*
X-20710178Y-20989015D01*
X-20777867Y-21008401D01*
X-20841680Y-21041357D01*
X-20897415Y-21088530D01*
X-21722693Y-21088530D01*
X-21760743Y-21039418D01*
X-21840872Y-20996769D01*
X-21935218Y-20982553D01*
X-22002585Y-20989015D01*
X-22070275Y-21008401D01*
X-22134087Y-21041357D01*
X-22189822Y-21088530D01*
X-22343619Y-21088530D01*
X-22343619Y-21000646D01*
X-22752019Y-21000646D01*
X-22756866Y-21099354D01*
X-22763651Y-21201616D01*
X-22772698Y-21306785D01*
X-22784330Y-21414216D01*
X-22695477Y-21416963D01*
X-22625363Y-21425202D01*
X-22531664Y-21456220D01*
X-22487722Y-21504039D01*
X-22476737Y-21565428D01*
X-22483199Y-21608078D01*
X-22507108Y-21644911D01*
X-22554927Y-21671405D01*
X-22631825Y-21681745D01*
X-22692246Y-21678837D01*
X-22741680Y-21670113D01*
X-22814055Y-21644265D01*
X-22846365Y-21776090D01*
X-22940711Y-21776090D01*
X-22940711Y-21668821D01*
X-23284491Y-21668821D01*
X-23270921Y-21626171D01*
X-23237964Y-21580291D01*
X-23196607Y-21536349D01*
X-23157835Y-21499515D01*
X-23091922Y-21434895D01*
X-23033764Y-21365105D01*
X-22992407Y-21290792D01*
X-22976898Y-21211309D01*
X-22997577Y-21111147D01*
X-23053150Y-21039418D01*
X-23133279Y-20996769D01*
X-23227625Y-20982553D01*
X-23294992Y-20989015D01*
X-23362682Y-21008401D01*
X-23426494Y-21041357D01*
X-23482229Y-21088530D01*
X-24292216Y-21088530D01*
X-24292569Y-21087884D01*
X-24349147Y-21029366D01*
X-24420661Y-20994256D01*
X-24507108Y-20982553D01*
X-24590971Y-20994256D01*
X-24661623Y-21029366D01*
X-24719063Y-21087884D01*
X-24752423Y-21146890D01*
X-24776252Y-21218578D01*
X-24790549Y-21302948D01*
X-24795315Y-21400000D01*
X-25073183Y-21400000D01*
X-25073183Y-21132472D01*
X-24862520Y-21132472D01*
X-24862520Y-21000646D01*
X-25444103Y-21000646D01*
X-25444103Y-21132472D01*
X-26162950Y-21132472D01*
X-26150000Y-21108243D01*
X-26084691Y-21028664D01*
X-26005111Y-20963355D01*
X-25914320Y-20914826D01*
X-25815806Y-20884942D01*
X-25713355Y-20874852D01*
X-25444103Y-20874852D01*
X-20355897Y-20874852D01*
X-20086645Y-20874852D01*
X-19984194Y-20884943D01*
G37*
%TO.C,kibuzzard-66A68C43*%
G36*
X-8852984Y-11293182D02*
G01*
X-8756046Y-11322588D01*
X-8666707Y-11370340D01*
X-8588401Y-11434604D01*
X-8524137Y-11512911D01*
X-8476384Y-11602249D01*
X-8446978Y-11699188D01*
X-8437049Y-11800000D01*
X-8446978Y-11900812D01*
X-8476384Y-11997751D01*
X-8524137Y-12087089D01*
X-8588401Y-12165396D01*
X-8666707Y-12229660D01*
X-8756046Y-12277412D01*
X-8852984Y-12306818D01*
X-8953797Y-12316747D01*
X-9707701Y-12316747D01*
X-10249219Y-12316747D01*
X-11003123Y-12316747D01*
X-11103936Y-12306818D01*
X-11200874Y-12277412D01*
X-11290213Y-12229660D01*
X-11368519Y-12165396D01*
X-11432783Y-12087089D01*
X-11480536Y-11997751D01*
X-11509942Y-11900812D01*
X-11519871Y-11800000D01*
X-11509942Y-11699188D01*
X-11480536Y-11602249D01*
X-11432783Y-11512911D01*
X-11419669Y-11496931D01*
X-10249219Y-11496931D01*
X-10170382Y-11608078D01*
X-10088961Y-11547334D01*
X-10010124Y-11529241D01*
X-9935164Y-11555735D01*
X-9905439Y-11631341D01*
X-9929349Y-11699838D01*
X-9990092Y-11769628D01*
X-10028218Y-11806624D01*
X-10068928Y-11845234D01*
X-10109639Y-11886268D01*
X-10147765Y-11930533D01*
X-10181368Y-11978514D01*
X-10208508Y-12030695D01*
X-10226441Y-12087561D01*
X-10232418Y-12149596D01*
X-10233064Y-12176737D01*
X-10229833Y-12209047D01*
X-9707701Y-12209047D01*
X-9707701Y-12077221D01*
X-10051481Y-12077221D01*
X-10037911Y-12034572D01*
X-10004954Y-11988691D01*
X-9963597Y-11944750D01*
X-9924825Y-11907916D01*
X-9858912Y-11843296D01*
X-9800754Y-11773506D01*
X-9759397Y-11699192D01*
X-9743888Y-11619709D01*
X-9764567Y-11519548D01*
X-9820140Y-11447819D01*
X-9900269Y-11405170D01*
X-9994615Y-11390953D01*
X-10061982Y-11397415D01*
X-10129672Y-11416801D01*
X-10193484Y-11449758D01*
X-10249219Y-11496931D01*
X-11419669Y-11496931D01*
X-11368519Y-11434604D01*
X-11290213Y-11370340D01*
X-11200874Y-11322588D01*
X-11103936Y-11293182D01*
X-11003123Y-11283253D01*
X-10249219Y-11283253D01*
X-9707701Y-11283253D01*
X-8953797Y-11283253D01*
X-8852984Y-11293182D01*
G37*
%TO.C,kibuzzard-66A68BCE*%
G36*
X-12315024Y-21252504D02*
G01*
X-12262036Y-21312601D01*
X-12234895Y-21399192D01*
X-12227141Y-21500000D01*
X-12229564Y-21557027D01*
X-12236834Y-21609208D01*
X-12269144Y-21695153D01*
X-12328595Y-21752019D01*
X-12419709Y-21772698D01*
X-12433926Y-21772698D01*
X-12448142Y-21771405D01*
X-12448142Y-21233764D01*
X-12424879Y-21230533D01*
X-12401616Y-21229887D01*
X-12315024Y-21252504D01*
G37*
G36*
X-11909288Y-20984942D02*
G01*
X-11810774Y-21014826D01*
X-11719983Y-21063355D01*
X-11640404Y-21128664D01*
X-11575095Y-21208243D01*
X-11526566Y-21299035D01*
X-11496682Y-21397549D01*
X-11486591Y-21500000D01*
X-11496682Y-21602451D01*
X-11526566Y-21700965D01*
X-11575095Y-21791757D01*
X-11640404Y-21871336D01*
X-11719983Y-21936645D01*
X-11810774Y-21985174D01*
X-11909288Y-22015058D01*
X-12011739Y-22025148D01*
X-12065590Y-22025148D01*
X-12436511Y-22025148D01*
X-12864297Y-22025148D01*
X-13607431Y-22025148D01*
X-13934410Y-22025148D01*
X-13988261Y-22025148D01*
X-14090712Y-22015058D01*
X-14189226Y-21985174D01*
X-14280017Y-21936645D01*
X-14359596Y-21871336D01*
X-14424905Y-21791757D01*
X-14473434Y-21700965D01*
X-14503318Y-21602451D01*
X-14513409Y-21500000D01*
X-13934410Y-21500000D01*
X-13928595Y-21597092D01*
X-13911147Y-21681583D01*
X-13883037Y-21753312D01*
X-13845234Y-21812116D01*
X-13798223Y-21857997D01*
X-13742488Y-21890953D01*
X-13678675Y-21910824D01*
X-13607431Y-21917447D01*
X-13528433Y-21914216D01*
X-13462036Y-21904523D01*
X-13447282Y-21900646D01*
X-13263651Y-21900646D01*
X-13120194Y-21900646D01*
X-13120194Y-21369467D01*
X-13072159Y-21458140D01*
X-13026279Y-21546670D01*
X-12982553Y-21635057D01*
X-12940980Y-21723443D01*
X-12901562Y-21811973D01*
X-12864297Y-21900646D01*
X-12736349Y-21900646D01*
X-12736349Y-21110985D01*
X-12607108Y-21110985D01*
X-12607108Y-21891599D01*
X-12519871Y-21906462D01*
X-12436511Y-21910985D01*
X-12358481Y-21905331D01*
X-12287237Y-21888368D01*
X-12224071Y-21859128D01*
X-12170275Y-21816640D01*
X-12126494Y-21760258D01*
X-12093376Y-21689338D01*
X-12072536Y-21602908D01*
X-12065590Y-21500000D01*
X-12071890Y-21399354D01*
X-12090792Y-21314540D01*
X-12121002Y-21244426D01*
X-12161228Y-21187884D01*
X-12211470Y-21144750D01*
X-12271729Y-21114863D01*
X-12340388Y-21097415D01*
X-12415832Y-21091599D01*
X-12505008Y-21095477D01*
X-12607108Y-21110985D01*
X-12736349Y-21110985D01*
X-12736349Y-21100646D01*
X-12879806Y-21100646D01*
X-12879806Y-21593053D01*
X-12902585Y-21542649D01*
X-12929564Y-21484491D01*
X-12959935Y-21421486D01*
X-12992892Y-21356543D01*
X-13027625Y-21290468D01*
X-13063328Y-21224071D01*
X-13099515Y-21159935D01*
X-13135703Y-21100646D01*
X-13263651Y-21100646D01*
X-13263651Y-21900646D01*
X-13447282Y-21900646D01*
X-13373506Y-21881260D01*
X-13373506Y-21481906D01*
X-13532472Y-21481906D01*
X-13532472Y-21773990D01*
X-13563489Y-21777868D01*
X-13594507Y-21779160D01*
X-13671729Y-21762197D01*
X-13727625Y-21711309D01*
X-13752755Y-21657674D01*
X-13767833Y-21587237D01*
X-13772859Y-21500000D01*
X-13770113Y-21440711D01*
X-13761874Y-21386914D01*
X-13725687Y-21299031D01*
X-13661712Y-21241519D01*
X-13566074Y-21220840D01*
X-13480775Y-21235057D01*
X-13410985Y-21267367D01*
X-13369628Y-21140711D01*
X-13396123Y-21125202D01*
X-13440711Y-21105816D01*
X-13504685Y-21089661D01*
X-13588045Y-21082553D01*
X-13658158Y-21089176D01*
X-13723748Y-21109047D01*
X-13782876Y-21142165D01*
X-13833603Y-21188530D01*
X-13875283Y-21247819D01*
X-13907270Y-21319709D01*
X-13927625Y-21403877D01*
X-13934410Y-21500000D01*
X-14513409Y-21500000D01*
X-14503318Y-21397549D01*
X-14473434Y-21299035D01*
X-14424905Y-21208243D01*
X-14359596Y-21128664D01*
X-14280017Y-21063355D01*
X-14189226Y-21014826D01*
X-14090712Y-20984942D01*
X-13988261Y-20974852D01*
X-13934410Y-20974852D01*
X-12065590Y-20974852D01*
X-12011739Y-20974852D01*
X-11909288Y-20984942D01*
G37*
%TO.C,kibuzzard-66A68BD4*%
G36*
X-9321486Y-16752504D02*
G01*
X-9268498Y-16812601D01*
X-9241357Y-16899192D01*
X-9233603Y-17000000D01*
X-9236026Y-17057027D01*
X-9243296Y-17109208D01*
X-9275606Y-17195153D01*
X-9335057Y-17252019D01*
X-9426171Y-17272698D01*
X-9440388Y-17272698D01*
X-9454604Y-17271405D01*
X-9454604Y-16733764D01*
X-9431341Y-16730533D01*
X-9408078Y-16729887D01*
X-9321486Y-16752504D01*
G37*
G36*
X-8915750Y-16484942D02*
G01*
X-8817236Y-16514826D01*
X-8726445Y-16563355D01*
X-8646866Y-16628664D01*
X-8581557Y-16708243D01*
X-8533028Y-16799035D01*
X-8503144Y-16897549D01*
X-8493053Y-17000000D01*
X-8503144Y-17102451D01*
X-8533028Y-17200965D01*
X-8581557Y-17291757D01*
X-8646866Y-17371336D01*
X-8726445Y-17436645D01*
X-8817236Y-17485174D01*
X-8915750Y-17515058D01*
X-9018201Y-17525148D01*
X-9072052Y-17525148D01*
X-9442973Y-17525148D01*
X-9870759Y-17525148D01*
X-10613893Y-17525148D01*
X-10940872Y-17525148D01*
X-10994723Y-17525148D01*
X-11097174Y-17515058D01*
X-11195688Y-17485174D01*
X-11286479Y-17436645D01*
X-11366058Y-17371336D01*
X-11431367Y-17291757D01*
X-11479896Y-17200965D01*
X-11509780Y-17102451D01*
X-11519871Y-17000000D01*
X-10940872Y-17000000D01*
X-10935057Y-17097092D01*
X-10917609Y-17181583D01*
X-10889499Y-17253312D01*
X-10851696Y-17312116D01*
X-10804685Y-17357997D01*
X-10748950Y-17390953D01*
X-10685137Y-17410824D01*
X-10613893Y-17417447D01*
X-10534895Y-17414216D01*
X-10468498Y-17404523D01*
X-10453744Y-17400646D01*
X-10270113Y-17400646D01*
X-10126656Y-17400646D01*
X-10126656Y-16869467D01*
X-10078621Y-16958140D01*
X-10032741Y-17046670D01*
X-9989015Y-17135057D01*
X-9947442Y-17223443D01*
X-9908024Y-17311973D01*
X-9870759Y-17400646D01*
X-9742811Y-17400646D01*
X-9742811Y-16610985D01*
X-9613570Y-16610985D01*
X-9613570Y-17391599D01*
X-9526333Y-17406462D01*
X-9442973Y-17410985D01*
X-9364943Y-17405331D01*
X-9293699Y-17388368D01*
X-9230533Y-17359128D01*
X-9176737Y-17316640D01*
X-9132956Y-17260258D01*
X-9099838Y-17189338D01*
X-9078998Y-17102908D01*
X-9072052Y-17000000D01*
X-9078352Y-16899354D01*
X-9097254Y-16814540D01*
X-9127464Y-16744426D01*
X-9167690Y-16687884D01*
X-9217932Y-16644750D01*
X-9278191Y-16614863D01*
X-9346850Y-16597415D01*
X-9422294Y-16591599D01*
X-9511470Y-16595477D01*
X-9613570Y-16610985D01*
X-9742811Y-16610985D01*
X-9742811Y-16600646D01*
X-9886268Y-16600646D01*
X-9886268Y-17093053D01*
X-9909047Y-17042649D01*
X-9936026Y-16984491D01*
X-9966397Y-16921486D01*
X-9999354Y-16856543D01*
X-10034087Y-16790468D01*
X-10069790Y-16724071D01*
X-10105977Y-16659935D01*
X-10142165Y-16600646D01*
X-10270113Y-16600646D01*
X-10270113Y-17400646D01*
X-10453744Y-17400646D01*
X-10379968Y-17381260D01*
X-10379968Y-16981906D01*
X-10538934Y-16981906D01*
X-10538934Y-17273990D01*
X-10569951Y-17277868D01*
X-10600969Y-17279160D01*
X-10678191Y-17262197D01*
X-10734087Y-17211309D01*
X-10759217Y-17157674D01*
X-10774295Y-17087237D01*
X-10779321Y-17000000D01*
X-10776575Y-16940711D01*
X-10768336Y-16886914D01*
X-10732149Y-16799031D01*
X-10668174Y-16741519D01*
X-10572536Y-16720840D01*
X-10487237Y-16735057D01*
X-10417447Y-16767367D01*
X-10376090Y-16640711D01*
X-10402585Y-16625202D01*
X-10447173Y-16605816D01*
X-10511147Y-16589661D01*
X-10594507Y-16582553D01*
X-10664620Y-16589176D01*
X-10730210Y-16609047D01*
X-10789338Y-16642165D01*
X-10840065Y-16688530D01*
X-10881745Y-16747819D01*
X-10913732Y-16819709D01*
X-10934087Y-16903877D01*
X-10940872Y-17000000D01*
X-11519871Y-17000000D01*
X-11509780Y-16897549D01*
X-11479896Y-16799035D01*
X-11431367Y-16708243D01*
X-11366058Y-16628664D01*
X-11286479Y-16563355D01*
X-11195688Y-16514826D01*
X-11097174Y-16484942D01*
X-10994723Y-16474852D01*
X-10940872Y-16474852D01*
X-9072052Y-16474852D01*
X-9018201Y-16474852D01*
X-8915750Y-16484942D01*
G37*
D10*
%TO.C,C102*%
X-22375000Y-9638748D02*
X-22375000Y-10161252D01*
X-20905000Y-9638748D02*
X-20905000Y-10161252D01*
%TO.C,JP101*%
X-24400000Y-7000000D02*
X-24400000Y-6400000D01*
X-23700000Y-5700000D02*
X-22300000Y-5700000D01*
X-22300000Y-7700000D02*
X-23700000Y-7700000D01*
X-21600000Y-6400000D02*
X-21600000Y-7000000D01*
X-24400000Y-6400000D02*
G75*
G02*
X-23700000Y-5700000I699999J1D01*
G01*
X-23700000Y-7700000D02*
G75*
G02*
X-24400000Y-7000000I-1J699999D01*
G01*
X-22300000Y-5700000D02*
G75*
G02*
X-21600000Y-6400000I0J-700000D01*
G01*
X-21600000Y-7000000D02*
G75*
G02*
X-22300000Y-7700000I-700000J0D01*
G01*
%TO.C,TP101*%
X-28000000Y-8200000D02*
X-26600000Y-8200000D01*
X-28000000Y-9600000D02*
X-28000000Y-8200000D01*
X-26600000Y-8200000D02*
X-26600000Y-9600000D01*
X-26600000Y-9600000D02*
X-28000000Y-9600000D01*
%TD*%
D12*
X-29900000Y-11900000D03*
X-27300000Y-10900000D03*
X-18700000Y-10900000D03*
X-18700000Y-8900000D03*
X-15800000Y-11900000D03*
X-29900000Y-21500000D03*
X-29900000Y-14450000D03*
X-15800000Y-21500000D03*
X-27300000Y-8900000D03*
X-12700000Y-9360000D03*
X-12700000Y-11900000D03*
X-12700000Y-14440000D03*
X-12700000Y-16980000D03*
X-33020000Y-9360000D03*
X-33020000Y-11900000D03*
X-33020000Y-14440000D03*
X-33020000Y-16980000D03*
M02*
