%TF.GenerationSoftware,KiCad,Pcbnew,8.0.3*%
%TF.CreationDate,2024-08-04T06:55:43+12:00*%
%TF.ProjectId,sot23-6,736f7432-332d-4362-9e6b-696361645f70,rev?*%
%TF.SameCoordinates,Original*%
%TF.FileFunction,Copper,L2,Bot*%
%TF.FilePolarity,Positive*%
%FSLAX46Y46*%
G04 Gerber Fmt 4.6, Leading zero omitted, Abs format (unit mm)*
G04 Created by KiCad (PCBNEW 8.0.3) date 2024-08-04 06:55:43*
%MOMM*%
%LPD*%
G01*
G04 APERTURE LIST*
%TA.AperFunction,ComponentPad*%
%ADD10R,1.000000X1.000000*%
%TD*%
%TA.AperFunction,ComponentPad*%
%ADD11R,1.700000X1.700000*%
%TD*%
%TA.AperFunction,ComponentPad*%
%ADD12O,1.700000X1.700000*%
%TD*%
%TA.AperFunction,ViaPad*%
%ADD13C,0.600000*%
%TD*%
%TA.AperFunction,ViaPad*%
%ADD14C,0.400000*%
%TD*%
%TA.AperFunction,Conductor*%
%ADD15C,0.300000*%
%TD*%
%ADD16C,0.300000*%
%ADD17C,0.200000*%
%ADD18C,0.350000*%
G04 APERTURE END LIST*
D10*
%TO.P,TP105,1,1*%
%TO.N,Net-(J101-Pin_2)*%
X95900000Y-90400000D03*
%TD*%
%TO.P,TP102,1,1*%
%TO.N,Net-(J101-Pin_1)*%
X95900000Y-87600000D03*
%TD*%
%TO.P,TP103,1,1*%
%TO.N,Net-(J102-Pin_1)*%
X104100000Y-87600000D03*
%TD*%
%TO.P,TP104,1,1*%
%TO.N,Net-(J102-Pin_1)*%
X104100000Y-85600000D03*
%TD*%
%TO.P,TP107,1,1*%
%TO.N,Net-(J101-Pin_4)*%
X95900000Y-94400000D03*
%TD*%
%TO.P,TP108,1,1*%
%TO.N,Net-(J102-Pin_4)*%
X104100000Y-94400000D03*
%TD*%
%TO.P,TP110,1,1*%
%TO.N,Net-(J102-Pin_2)*%
X104100000Y-90400000D03*
%TD*%
%TO.P,TP111,1,1*%
%TO.N,GND*%
X95900000Y-97200000D03*
%TD*%
%TO.P,TP109,1,1*%
%TO.N,Net-(J102-Pin_3)*%
X104100000Y-92400000D03*
%TD*%
%TO.P,TP112,1,1*%
%TO.N,GND*%
X104100000Y-97300000D03*
%TD*%
%TO.P,TP106,1,1*%
%TO.N,Net-(J101-Pin_3)*%
X95900000Y-92400000D03*
%TD*%
%TO.P,TP101,1,1*%
%TO.N,Net-(J101-Pin_1)*%
X95900000Y-85600000D03*
%TD*%
D11*
%TO.P,J102,1,Pin_1*%
%TO.N,Net-(J102-Pin_1)*%
X107620000Y-86360000D03*
D12*
%TO.P,J102,2,Pin_2*%
%TO.N,Net-(J102-Pin_2)*%
X107620000Y-88900000D03*
%TO.P,J102,3,Pin_3*%
%TO.N,Net-(J102-Pin_3)*%
X107620000Y-91440000D03*
%TO.P,J102,4,Pin_4*%
%TO.N,Net-(J102-Pin_4)*%
X107620000Y-93980000D03*
%TO.P,J102,5,Pin_5*%
%TO.N,GND*%
X107620000Y-96520000D03*
%TD*%
D11*
%TO.P,J101,1,Pin_1*%
%TO.N,Net-(J101-Pin_1)*%
X92380000Y-86420000D03*
D12*
%TO.P,J101,2,Pin_2*%
%TO.N,Net-(J101-Pin_2)*%
X92380000Y-88960000D03*
%TO.P,J101,3,Pin_3*%
%TO.N,Net-(J101-Pin_3)*%
X92380000Y-91500000D03*
%TO.P,J101,4,Pin_4*%
%TO.N,Net-(J101-Pin_4)*%
X92380000Y-94040000D03*
%TO.P,J101,5,Pin_5*%
%TO.N,GND*%
X92380000Y-96580000D03*
%TD*%
D13*
%TO.N,GND*%
X102000000Y-99000000D03*
D14*
X102500000Y-90840380D03*
D13*
X96000000Y-99000000D03*
X94000000Y-83000000D03*
X96000000Y-83000000D03*
X110000000Y-99000000D03*
X102000000Y-83000000D03*
X98000000Y-83000000D03*
X112000000Y-85000000D03*
X88000000Y-97000000D03*
D14*
X100000000Y-88200000D03*
D13*
X88000000Y-87000000D03*
D14*
X97562500Y-90837500D03*
D13*
X110000000Y-83000000D03*
X108000000Y-83000000D03*
X88000000Y-95000000D03*
X112000000Y-89000000D03*
X104000000Y-99000000D03*
X88000000Y-89000000D03*
D14*
X100000000Y-91800000D03*
D13*
X106000000Y-99000000D03*
X104000000Y-83000000D03*
X98000000Y-99000000D03*
X90000000Y-83000000D03*
X92000000Y-83000000D03*
D14*
X97200000Y-90100000D03*
D13*
X92000000Y-99000000D03*
X90000000Y-99000000D03*
X112000000Y-91000000D03*
X88000000Y-91000000D03*
X88000000Y-85000000D03*
X108000000Y-99000000D03*
X112000000Y-97000000D03*
X94000000Y-99000000D03*
D14*
X102800000Y-90100000D03*
D13*
X112000000Y-87000000D03*
X100000000Y-99000000D03*
X100000000Y-83000000D03*
X106000000Y-83000000D03*
X112000000Y-95000000D03*
X88000000Y-93000000D03*
X112000000Y-93000000D03*
D14*
%TO.N,Net-(J101-Pin_2)*%
X97600000Y-92800000D03*
%TO.N,Net-(J102-Pin_2)*%
X102400000Y-92800000D03*
%TD*%
D15*
%TO.N,Net-(J101-Pin_2)*%
X97600000Y-92100000D02*
X95900000Y-90400000D01*
X97600000Y-92800000D02*
X97600000Y-92100000D01*
%TO.N,Net-(J102-Pin_2)*%
X102400000Y-92100000D02*
X102400000Y-92800000D01*
X104100000Y-90400000D02*
X102400000Y-92100000D01*
%TD*%
%TA.AperFunction,Conductor*%
%TO.N,GND*%
G36*
X111004418Y-82500816D02*
G01*
X111204561Y-82515130D01*
X111222063Y-82517647D01*
X111413797Y-82559355D01*
X111430755Y-82564334D01*
X111614609Y-82632909D01*
X111630701Y-82640259D01*
X111802904Y-82734288D01*
X111817784Y-82743849D01*
X111974867Y-82861441D01*
X111988237Y-82873027D01*
X112126972Y-83011762D01*
X112138558Y-83025132D01*
X112256146Y-83182210D01*
X112265711Y-83197095D01*
X112359740Y-83369298D01*
X112367090Y-83385390D01*
X112435662Y-83569236D01*
X112440646Y-83586212D01*
X112482351Y-83777931D01*
X112484869Y-83795442D01*
X112499184Y-83995580D01*
X112499500Y-84004427D01*
X112499500Y-97995572D01*
X112499184Y-98004419D01*
X112484869Y-98204557D01*
X112482351Y-98222068D01*
X112440646Y-98413787D01*
X112435662Y-98430763D01*
X112367090Y-98614609D01*
X112359740Y-98630701D01*
X112265711Y-98802904D01*
X112256146Y-98817789D01*
X112138558Y-98974867D01*
X112126972Y-98988237D01*
X111988237Y-99126972D01*
X111974867Y-99138558D01*
X111817789Y-99256146D01*
X111802904Y-99265711D01*
X111630701Y-99359740D01*
X111614609Y-99367090D01*
X111430763Y-99435662D01*
X111413787Y-99440646D01*
X111222068Y-99482351D01*
X111204557Y-99484869D01*
X111023779Y-99497799D01*
X111004417Y-99499184D01*
X110995572Y-99499500D01*
X89004428Y-99499500D01*
X88995582Y-99499184D01*
X88973622Y-99497613D01*
X88795442Y-99484869D01*
X88777931Y-99482351D01*
X88586212Y-99440646D01*
X88569236Y-99435662D01*
X88385390Y-99367090D01*
X88369298Y-99359740D01*
X88197095Y-99265711D01*
X88182210Y-99256146D01*
X88025132Y-99138558D01*
X88011762Y-99126972D01*
X87873027Y-98988237D01*
X87861441Y-98974867D01*
X87743849Y-98817784D01*
X87734288Y-98802904D01*
X87640259Y-98630701D01*
X87632909Y-98614609D01*
X87572091Y-98451551D01*
X87564334Y-98430755D01*
X87559355Y-98413797D01*
X87517647Y-98222063D01*
X87515130Y-98204556D01*
X87514804Y-98200000D01*
X87500816Y-98004418D01*
X87500500Y-97995572D01*
X87500500Y-88959999D01*
X91024341Y-88959999D01*
X91024341Y-88960000D01*
X91044936Y-89195403D01*
X91044938Y-89195413D01*
X91106094Y-89423655D01*
X91106096Y-89423659D01*
X91106097Y-89423663D01*
X91177988Y-89577834D01*
X91205965Y-89637830D01*
X91205967Y-89637834D01*
X91341501Y-89831395D01*
X91341506Y-89831402D01*
X91508597Y-89998493D01*
X91508603Y-89998498D01*
X91694158Y-90128425D01*
X91737783Y-90183002D01*
X91744977Y-90252500D01*
X91713454Y-90314855D01*
X91694158Y-90331575D01*
X91508597Y-90461505D01*
X91341505Y-90628597D01*
X91205965Y-90822169D01*
X91205964Y-90822171D01*
X91106098Y-91036335D01*
X91106094Y-91036344D01*
X91044938Y-91264586D01*
X91044936Y-91264596D01*
X91024341Y-91499999D01*
X91024341Y-91500000D01*
X91044936Y-91735403D01*
X91044938Y-91735413D01*
X91106094Y-91963655D01*
X91106096Y-91963659D01*
X91106097Y-91963663D01*
X91177988Y-92117834D01*
X91205965Y-92177830D01*
X91205967Y-92177834D01*
X91341501Y-92371395D01*
X91341506Y-92371402D01*
X91508597Y-92538493D01*
X91508603Y-92538498D01*
X91694158Y-92668425D01*
X91737783Y-92723002D01*
X91744977Y-92792500D01*
X91713454Y-92854855D01*
X91694158Y-92871575D01*
X91508597Y-93001505D01*
X91341505Y-93168597D01*
X91205965Y-93362169D01*
X91205964Y-93362171D01*
X91106098Y-93576335D01*
X91106094Y-93576344D01*
X91044938Y-93804586D01*
X91044936Y-93804596D01*
X91024341Y-94039999D01*
X91024341Y-94040000D01*
X91044936Y-94275403D01*
X91044938Y-94275413D01*
X91106094Y-94503655D01*
X91106096Y-94503659D01*
X91106097Y-94503663D01*
X91177988Y-94657834D01*
X91205965Y-94717830D01*
X91205967Y-94717834D01*
X91341501Y-94911395D01*
X91341506Y-94911402D01*
X91508597Y-95078493D01*
X91508603Y-95078498D01*
X91694594Y-95208730D01*
X91738219Y-95263307D01*
X91745413Y-95332805D01*
X91713890Y-95395160D01*
X91694595Y-95411880D01*
X91508922Y-95541890D01*
X91508920Y-95541891D01*
X91341891Y-95708920D01*
X91341886Y-95708926D01*
X91206400Y-95902420D01*
X91206399Y-95902422D01*
X91106570Y-96116507D01*
X91106567Y-96116513D01*
X91049364Y-96329999D01*
X91049364Y-96330000D01*
X91946988Y-96330000D01*
X91914075Y-96387007D01*
X91880000Y-96514174D01*
X91880000Y-96645826D01*
X91914075Y-96772993D01*
X91946988Y-96830000D01*
X91049364Y-96830000D01*
X91106567Y-97043486D01*
X91106570Y-97043492D01*
X91206399Y-97257578D01*
X91341894Y-97451082D01*
X91508917Y-97618105D01*
X91702421Y-97753600D01*
X91916507Y-97853429D01*
X91916516Y-97853433D01*
X92130000Y-97910634D01*
X92130000Y-97013012D01*
X92187007Y-97045925D01*
X92314174Y-97080000D01*
X92445826Y-97080000D01*
X92572993Y-97045925D01*
X92630000Y-97013012D01*
X92630000Y-97910633D01*
X92843483Y-97853433D01*
X92843492Y-97853429D01*
X93057578Y-97753600D01*
X93065798Y-97747844D01*
X94900000Y-97747844D01*
X94906401Y-97807372D01*
X94906403Y-97807379D01*
X94956645Y-97942086D01*
X94956649Y-97942093D01*
X95042809Y-98057187D01*
X95042812Y-98057190D01*
X95157906Y-98143350D01*
X95157913Y-98143354D01*
X95292620Y-98193596D01*
X95292627Y-98193598D01*
X95352155Y-98199999D01*
X95352172Y-98200000D01*
X95650000Y-98200000D01*
X96150000Y-98200000D01*
X96447828Y-98200000D01*
X96447844Y-98199999D01*
X96507372Y-98193598D01*
X96507379Y-98193596D01*
X96642086Y-98143354D01*
X96642093Y-98143350D01*
X96757187Y-98057190D01*
X96757190Y-98057187D01*
X96843350Y-97942093D01*
X96843354Y-97942086D01*
X96878504Y-97847844D01*
X103100000Y-97847844D01*
X103106401Y-97907372D01*
X103106403Y-97907379D01*
X103156645Y-98042086D01*
X103156649Y-98042093D01*
X103242809Y-98157187D01*
X103242812Y-98157190D01*
X103357906Y-98243350D01*
X103357913Y-98243354D01*
X103492620Y-98293596D01*
X103492627Y-98293598D01*
X103552155Y-98299999D01*
X103552172Y-98300000D01*
X103850000Y-98300000D01*
X104350000Y-98300000D01*
X104647828Y-98300000D01*
X104647844Y-98299999D01*
X104707372Y-98293598D01*
X104707379Y-98293596D01*
X104842086Y-98243354D01*
X104842093Y-98243350D01*
X104957187Y-98157190D01*
X104957190Y-98157187D01*
X105043350Y-98042093D01*
X105043354Y-98042086D01*
X105093596Y-97907379D01*
X105093598Y-97907372D01*
X105099999Y-97847844D01*
X105100000Y-97847827D01*
X105100000Y-97550000D01*
X104350000Y-97550000D01*
X104350000Y-98300000D01*
X103850000Y-98300000D01*
X103850000Y-97550000D01*
X103100000Y-97550000D01*
X103100000Y-97847844D01*
X96878504Y-97847844D01*
X96893596Y-97807379D01*
X96893598Y-97807372D01*
X96899999Y-97747844D01*
X96900000Y-97747827D01*
X96900000Y-97450000D01*
X96150000Y-97450000D01*
X96150000Y-98200000D01*
X95650000Y-98200000D01*
X95650000Y-97450000D01*
X94900000Y-97450000D01*
X94900000Y-97747844D01*
X93065798Y-97747844D01*
X93251082Y-97618105D01*
X93418105Y-97451082D01*
X93553600Y-97257578D01*
X93603637Y-97150272D01*
X95650000Y-97150272D01*
X95650000Y-97249728D01*
X95688060Y-97341614D01*
X95758386Y-97411940D01*
X95850272Y-97450000D01*
X95949728Y-97450000D01*
X96041614Y-97411940D01*
X96111940Y-97341614D01*
X96149775Y-97250272D01*
X103850000Y-97250272D01*
X103850000Y-97349728D01*
X103888060Y-97441614D01*
X103958386Y-97511940D01*
X104050272Y-97550000D01*
X104149728Y-97550000D01*
X104241614Y-97511940D01*
X104311940Y-97441614D01*
X104350000Y-97349728D01*
X104350000Y-97250272D01*
X104311940Y-97158386D01*
X104241614Y-97088060D01*
X104149728Y-97050000D01*
X104350000Y-97050000D01*
X105100000Y-97050000D01*
X105100000Y-96752172D01*
X105099999Y-96752155D01*
X105093598Y-96692627D01*
X105093596Y-96692620D01*
X105043354Y-96557913D01*
X105043350Y-96557906D01*
X104957190Y-96442812D01*
X104957187Y-96442809D01*
X104842093Y-96356649D01*
X104842086Y-96356645D01*
X104707379Y-96306403D01*
X104707372Y-96306401D01*
X104647844Y-96300000D01*
X104350000Y-96300000D01*
X104350000Y-97050000D01*
X104149728Y-97050000D01*
X104050272Y-97050000D01*
X103958386Y-97088060D01*
X103888060Y-97158386D01*
X103850000Y-97250272D01*
X96149775Y-97250272D01*
X96150000Y-97249728D01*
X96150000Y-97150272D01*
X96111940Y-97058386D01*
X96041614Y-96988060D01*
X95949728Y-96950000D01*
X96150000Y-96950000D01*
X96900000Y-96950000D01*
X96900000Y-96752155D01*
X103100000Y-96752155D01*
X103100000Y-97050000D01*
X103850000Y-97050000D01*
X103850000Y-96300000D01*
X103552155Y-96300000D01*
X103492627Y-96306401D01*
X103492620Y-96306403D01*
X103357913Y-96356645D01*
X103357906Y-96356649D01*
X103242812Y-96442809D01*
X103242809Y-96442812D01*
X103156649Y-96557906D01*
X103156645Y-96557913D01*
X103106403Y-96692620D01*
X103106401Y-96692627D01*
X103100000Y-96752155D01*
X96900000Y-96752155D01*
X96900000Y-96652172D01*
X96899999Y-96652155D01*
X96893598Y-96592627D01*
X96893596Y-96592620D01*
X96843354Y-96457913D01*
X96843350Y-96457906D01*
X96757190Y-96342812D01*
X96757187Y-96342809D01*
X96642093Y-96256649D01*
X96642086Y-96256645D01*
X96507379Y-96206403D01*
X96507372Y-96206401D01*
X96447844Y-96200000D01*
X96150000Y-96200000D01*
X96150000Y-96950000D01*
X95949728Y-96950000D01*
X95850272Y-96950000D01*
X95758386Y-96988060D01*
X95688060Y-97058386D01*
X95650000Y-97150272D01*
X93603637Y-97150272D01*
X93653429Y-97043492D01*
X93653432Y-97043486D01*
X93710636Y-96830000D01*
X92813012Y-96830000D01*
X92845925Y-96772993D01*
X92878304Y-96652155D01*
X94900000Y-96652155D01*
X94900000Y-96950000D01*
X95650000Y-96950000D01*
X95650000Y-96200000D01*
X95352155Y-96200000D01*
X95292627Y-96206401D01*
X95292620Y-96206403D01*
X95157913Y-96256645D01*
X95157906Y-96256649D01*
X95042812Y-96342809D01*
X95042809Y-96342812D01*
X94956649Y-96457906D01*
X94956645Y-96457913D01*
X94906403Y-96592620D01*
X94906401Y-96592627D01*
X94900000Y-96652155D01*
X92878304Y-96652155D01*
X92880000Y-96645826D01*
X92880000Y-96514174D01*
X92845925Y-96387007D01*
X92813012Y-96330000D01*
X93710636Y-96330000D01*
X93710635Y-96329999D01*
X93653432Y-96116513D01*
X93653429Y-96116507D01*
X93553600Y-95902422D01*
X93553599Y-95902420D01*
X93418113Y-95708926D01*
X93418108Y-95708920D01*
X93251078Y-95541890D01*
X93065405Y-95411879D01*
X93021780Y-95357302D01*
X93014588Y-95287804D01*
X93046110Y-95225449D01*
X93065406Y-95208730D01*
X93073151Y-95203307D01*
X93251401Y-95078495D01*
X93418495Y-94911401D01*
X93554035Y-94717830D01*
X93653903Y-94503663D01*
X93715063Y-94275408D01*
X93735659Y-94040000D01*
X93715063Y-93804592D01*
X93653903Y-93576337D01*
X93554035Y-93362171D01*
X93512022Y-93302169D01*
X93418494Y-93168597D01*
X93251402Y-93001506D01*
X93251396Y-93001501D01*
X93065842Y-92871575D01*
X93022217Y-92816998D01*
X93015023Y-92747500D01*
X93046546Y-92685145D01*
X93065842Y-92668425D01*
X93088026Y-92652891D01*
X93251401Y-92538495D01*
X93418495Y-92371401D01*
X93554035Y-92177830D01*
X93653903Y-91963663D01*
X93715063Y-91735408D01*
X93735659Y-91500000D01*
X93715063Y-91264592D01*
X93653903Y-91036337D01*
X93554035Y-90822171D01*
X93512022Y-90762169D01*
X93418494Y-90628597D01*
X93251402Y-90461506D01*
X93251396Y-90461501D01*
X93065842Y-90331575D01*
X93022217Y-90276998D01*
X93015023Y-90207500D01*
X93046546Y-90145145D01*
X93065842Y-90128425D01*
X93143519Y-90074035D01*
X93251401Y-89998495D01*
X93397761Y-89852135D01*
X94899500Y-89852135D01*
X94899500Y-90947870D01*
X94899501Y-90947876D01*
X94905908Y-91007483D01*
X94956202Y-91142328D01*
X94956206Y-91142335D01*
X95042452Y-91257544D01*
X95042453Y-91257544D01*
X95042454Y-91257546D01*
X95051872Y-91264596D01*
X95100145Y-91300734D01*
X95142015Y-91356668D01*
X95146999Y-91426360D01*
X95113513Y-91487683D01*
X95100145Y-91499266D01*
X95042452Y-91542455D01*
X94956206Y-91657664D01*
X94956202Y-91657671D01*
X94905908Y-91792517D01*
X94899501Y-91852116D01*
X94899501Y-91852123D01*
X94899500Y-91852135D01*
X94899500Y-92947870D01*
X94899501Y-92947876D01*
X94905908Y-93007483D01*
X94956202Y-93142328D01*
X94956206Y-93142335D01*
X95042452Y-93257544D01*
X95042453Y-93257544D01*
X95042454Y-93257546D01*
X95056323Y-93267928D01*
X95100145Y-93300734D01*
X95142015Y-93356668D01*
X95146999Y-93426360D01*
X95113513Y-93487683D01*
X95100145Y-93499266D01*
X95042452Y-93542455D01*
X94956206Y-93657664D01*
X94956202Y-93657671D01*
X94905908Y-93792517D01*
X94899501Y-93852116D01*
X94899501Y-93852123D01*
X94899500Y-93852135D01*
X94899500Y-94947870D01*
X94899501Y-94947876D01*
X94905908Y-95007483D01*
X94956202Y-95142328D01*
X94956206Y-95142335D01*
X95042452Y-95257544D01*
X95042455Y-95257547D01*
X95157664Y-95343793D01*
X95157671Y-95343797D01*
X95292517Y-95394091D01*
X95292516Y-95394091D01*
X95299444Y-95394835D01*
X95352127Y-95400500D01*
X96447872Y-95400499D01*
X96507483Y-95394091D01*
X96642331Y-95343796D01*
X96757546Y-95257546D01*
X96843796Y-95142331D01*
X96894091Y-95007483D01*
X96900500Y-94947873D01*
X96900499Y-93852128D01*
X96894091Y-93792517D01*
X96843796Y-93657669D01*
X96843795Y-93657668D01*
X96843793Y-93657664D01*
X96757547Y-93542456D01*
X96757548Y-93542456D01*
X96757546Y-93542454D01*
X96699854Y-93499265D01*
X96657984Y-93443333D01*
X96653000Y-93373641D01*
X96686485Y-93312318D01*
X96699854Y-93300734D01*
X96757546Y-93257546D01*
X96813975Y-93182165D01*
X96869908Y-93140296D01*
X96939600Y-93135312D01*
X97000923Y-93168797D01*
X97015288Y-93186034D01*
X97071817Y-93267929D01*
X97171983Y-93356668D01*
X97199150Y-93380736D01*
X97349773Y-93459789D01*
X97349775Y-93459790D01*
X97514944Y-93500500D01*
X97685056Y-93500500D01*
X97850225Y-93459790D01*
X97975403Y-93394091D01*
X98000849Y-93380736D01*
X98000850Y-93380734D01*
X98000852Y-93380734D01*
X98128183Y-93267929D01*
X98224818Y-93127930D01*
X98285140Y-92968872D01*
X98305645Y-92800000D01*
X101694355Y-92800000D01*
X101714859Y-92968869D01*
X101714860Y-92968874D01*
X101775182Y-93127931D01*
X101815291Y-93186038D01*
X101871817Y-93267929D01*
X101971983Y-93356668D01*
X101999150Y-93380736D01*
X102149773Y-93459789D01*
X102149775Y-93459790D01*
X102314944Y-93500500D01*
X102485056Y-93500500D01*
X102650225Y-93459790D01*
X102775403Y-93394091D01*
X102800849Y-93380736D01*
X102800850Y-93380734D01*
X102800852Y-93380734D01*
X102928183Y-93267929D01*
X102984709Y-93186036D01*
X103038991Y-93142048D01*
X103108439Y-93134388D01*
X103171004Y-93165491D01*
X103186024Y-93182166D01*
X103242454Y-93257546D01*
X103281124Y-93286494D01*
X103300145Y-93300734D01*
X103342015Y-93356668D01*
X103346999Y-93426360D01*
X103313513Y-93487683D01*
X103300145Y-93499266D01*
X103242452Y-93542455D01*
X103156206Y-93657664D01*
X103156202Y-93657671D01*
X103105908Y-93792517D01*
X103099501Y-93852116D01*
X103099501Y-93852123D01*
X103099500Y-93852135D01*
X103099500Y-94947870D01*
X103099501Y-94947876D01*
X103105908Y-95007483D01*
X103156202Y-95142328D01*
X103156206Y-95142335D01*
X103242452Y-95257544D01*
X103242455Y-95257547D01*
X103357664Y-95343793D01*
X103357671Y-95343797D01*
X103492517Y-95394091D01*
X103492516Y-95394091D01*
X103499444Y-95394835D01*
X103552127Y-95400500D01*
X104647872Y-95400499D01*
X104707483Y-95394091D01*
X104842331Y-95343796D01*
X104957546Y-95257546D01*
X105043796Y-95142331D01*
X105094091Y-95007483D01*
X105100500Y-94947873D01*
X105100499Y-93852128D01*
X105094091Y-93792517D01*
X105043796Y-93657669D01*
X105043795Y-93657668D01*
X105043793Y-93657664D01*
X104957547Y-93542456D01*
X104957548Y-93542456D01*
X104957546Y-93542454D01*
X104899854Y-93499265D01*
X104857984Y-93443333D01*
X104853000Y-93373641D01*
X104886485Y-93312318D01*
X104899854Y-93300734D01*
X104957546Y-93257546D01*
X105043796Y-93142331D01*
X105094091Y-93007483D01*
X105100500Y-92947873D01*
X105100499Y-91852128D01*
X105094091Y-91792517D01*
X105054113Y-91685331D01*
X105043797Y-91657671D01*
X105043793Y-91657664D01*
X104957547Y-91542456D01*
X104957548Y-91542456D01*
X104957546Y-91542454D01*
X104899854Y-91499265D01*
X104857984Y-91443333D01*
X104853000Y-91373641D01*
X104886485Y-91312318D01*
X104899854Y-91300734D01*
X104957546Y-91257546D01*
X105043796Y-91142331D01*
X105094091Y-91007483D01*
X105100500Y-90947873D01*
X105100499Y-89852128D01*
X105094091Y-89792517D01*
X105086215Y-89771401D01*
X105043797Y-89657671D01*
X105043793Y-89657664D01*
X104957547Y-89542455D01*
X104957544Y-89542452D01*
X104842335Y-89456206D01*
X104842328Y-89456202D01*
X104707482Y-89405908D01*
X104707483Y-89405908D01*
X104647883Y-89399501D01*
X104647881Y-89399500D01*
X104647873Y-89399500D01*
X104647864Y-89399500D01*
X103552129Y-89399500D01*
X103552123Y-89399501D01*
X103492516Y-89405908D01*
X103357671Y-89456202D01*
X103357664Y-89456206D01*
X103242455Y-89542452D01*
X103242452Y-89542455D01*
X103156206Y-89657664D01*
X103156202Y-89657671D01*
X103105908Y-89792517D01*
X103101729Y-89831395D01*
X103099501Y-89852123D01*
X103099500Y-89852135D01*
X103099500Y-90429191D01*
X103079815Y-90496230D01*
X103063181Y-90516872D01*
X101894727Y-91685325D01*
X101894726Y-91685326D01*
X101823533Y-91791876D01*
X101774499Y-91910255D01*
X101774497Y-91910261D01*
X101749500Y-92035928D01*
X101749500Y-92517065D01*
X101741442Y-92561035D01*
X101714861Y-92631122D01*
X101714859Y-92631130D01*
X101694355Y-92800000D01*
X98305645Y-92800000D01*
X98285140Y-92631128D01*
X98258558Y-92561035D01*
X98250500Y-92517065D01*
X98250500Y-92035928D01*
X98225502Y-91910261D01*
X98225501Y-91910260D01*
X98225501Y-91910256D01*
X98176465Y-91791873D01*
X98176440Y-91791835D01*
X98105277Y-91685331D01*
X98105275Y-91685329D01*
X98105273Y-91685326D01*
X96936818Y-90516871D01*
X96903333Y-90455548D01*
X96900499Y-90429190D01*
X96900499Y-89852129D01*
X96900498Y-89852123D01*
X96900497Y-89852116D01*
X96894091Y-89792517D01*
X96886215Y-89771401D01*
X96843797Y-89657671D01*
X96843793Y-89657664D01*
X96757547Y-89542455D01*
X96757544Y-89542452D01*
X96642335Y-89456206D01*
X96642328Y-89456202D01*
X96507482Y-89405908D01*
X96507483Y-89405908D01*
X96447883Y-89399501D01*
X96447881Y-89399500D01*
X96447873Y-89399500D01*
X96447864Y-89399500D01*
X95352129Y-89399500D01*
X95352123Y-89399501D01*
X95292516Y-89405908D01*
X95157671Y-89456202D01*
X95157664Y-89456206D01*
X95042455Y-89542452D01*
X95042452Y-89542455D01*
X94956206Y-89657664D01*
X94956202Y-89657671D01*
X94905908Y-89792517D01*
X94901729Y-89831395D01*
X94899501Y-89852123D01*
X94899500Y-89852135D01*
X93397761Y-89852135D01*
X93418495Y-89831401D01*
X93554035Y-89637830D01*
X93653903Y-89423663D01*
X93715063Y-89195408D01*
X93735659Y-88960000D01*
X93730409Y-88899999D01*
X106264341Y-88899999D01*
X106264341Y-88900000D01*
X106284936Y-89135403D01*
X106284938Y-89135413D01*
X106346094Y-89363655D01*
X106346096Y-89363659D01*
X106346097Y-89363663D01*
X106365797Y-89405909D01*
X106445965Y-89577830D01*
X106445967Y-89577834D01*
X106581501Y-89771395D01*
X106581506Y-89771402D01*
X106748597Y-89938493D01*
X106748603Y-89938498D01*
X106934158Y-90068425D01*
X106977783Y-90123002D01*
X106984977Y-90192500D01*
X106953454Y-90254855D01*
X106934158Y-90271575D01*
X106748597Y-90401505D01*
X106581505Y-90568597D01*
X106445965Y-90762169D01*
X106445964Y-90762171D01*
X106346098Y-90976335D01*
X106346094Y-90976344D01*
X106284938Y-91204586D01*
X106284936Y-91204596D01*
X106264341Y-91439999D01*
X106264341Y-91440000D01*
X106284936Y-91675403D01*
X106284938Y-91675413D01*
X106346094Y-91903655D01*
X106346096Y-91903659D01*
X106346097Y-91903663D01*
X106407775Y-92035931D01*
X106445965Y-92117830D01*
X106445967Y-92117834D01*
X106581501Y-92311395D01*
X106581506Y-92311402D01*
X106748597Y-92478493D01*
X106748603Y-92478498D01*
X106934158Y-92608425D01*
X106977783Y-92663002D01*
X106984977Y-92732500D01*
X106953454Y-92794855D01*
X106934158Y-92811575D01*
X106748597Y-92941505D01*
X106581505Y-93108597D01*
X106445965Y-93302169D01*
X106445964Y-93302171D01*
X106346098Y-93516335D01*
X106346094Y-93516344D01*
X106284938Y-93744586D01*
X106284936Y-93744596D01*
X106264341Y-93979999D01*
X106264341Y-93980000D01*
X106284936Y-94215403D01*
X106284938Y-94215413D01*
X106346094Y-94443655D01*
X106346096Y-94443659D01*
X106346097Y-94443663D01*
X106374072Y-94503655D01*
X106445965Y-94657830D01*
X106445967Y-94657834D01*
X106581501Y-94851395D01*
X106581506Y-94851402D01*
X106748597Y-95018493D01*
X106748603Y-95018498D01*
X106934594Y-95148730D01*
X106978219Y-95203307D01*
X106985413Y-95272805D01*
X106953890Y-95335160D01*
X106934595Y-95351880D01*
X106748922Y-95481890D01*
X106748920Y-95481891D01*
X106581891Y-95648920D01*
X106581886Y-95648926D01*
X106446400Y-95842420D01*
X106446399Y-95842422D01*
X106346570Y-96056507D01*
X106346567Y-96056513D01*
X106289364Y-96269999D01*
X106289364Y-96270000D01*
X107186988Y-96270000D01*
X107154075Y-96327007D01*
X107120000Y-96454174D01*
X107120000Y-96585826D01*
X107154075Y-96712993D01*
X107186988Y-96770000D01*
X106289364Y-96770000D01*
X106346567Y-96983486D01*
X106346570Y-96983492D01*
X106446399Y-97197578D01*
X106581894Y-97391082D01*
X106748917Y-97558105D01*
X106942421Y-97693600D01*
X107156507Y-97793429D01*
X107156516Y-97793433D01*
X107370000Y-97850634D01*
X107370000Y-96953012D01*
X107427007Y-96985925D01*
X107554174Y-97020000D01*
X107685826Y-97020000D01*
X107812993Y-96985925D01*
X107870000Y-96953012D01*
X107870000Y-97850633D01*
X108083483Y-97793433D01*
X108083492Y-97793429D01*
X108297578Y-97693600D01*
X108491082Y-97558105D01*
X108658105Y-97391082D01*
X108793600Y-97197578D01*
X108893429Y-96983492D01*
X108893432Y-96983486D01*
X108950636Y-96770000D01*
X108053012Y-96770000D01*
X108085925Y-96712993D01*
X108120000Y-96585826D01*
X108120000Y-96454174D01*
X108085925Y-96327007D01*
X108053012Y-96270000D01*
X108950636Y-96270000D01*
X108950635Y-96269999D01*
X108893432Y-96056513D01*
X108893429Y-96056507D01*
X108793600Y-95842422D01*
X108793599Y-95842420D01*
X108658113Y-95648926D01*
X108658108Y-95648920D01*
X108491078Y-95481890D01*
X108305405Y-95351879D01*
X108261780Y-95297302D01*
X108254588Y-95227804D01*
X108286110Y-95165449D01*
X108305406Y-95148730D01*
X108314549Y-95142328D01*
X108491401Y-95018495D01*
X108658495Y-94851401D01*
X108794035Y-94657830D01*
X108893903Y-94443663D01*
X108955063Y-94215408D01*
X108975659Y-93980000D01*
X108955063Y-93744592D01*
X108908626Y-93571285D01*
X108893905Y-93516344D01*
X108893904Y-93516343D01*
X108893903Y-93516337D01*
X108794035Y-93302171D01*
X108793029Y-93300733D01*
X108658494Y-93108597D01*
X108491402Y-92941506D01*
X108491396Y-92941501D01*
X108305842Y-92811575D01*
X108262217Y-92756998D01*
X108255023Y-92687500D01*
X108286546Y-92625145D01*
X108305842Y-92608425D01*
X108373522Y-92561035D01*
X108491401Y-92478495D01*
X108658495Y-92311401D01*
X108794035Y-92117830D01*
X108893903Y-91903663D01*
X108955063Y-91675408D01*
X108975659Y-91440000D01*
X108955063Y-91204592D01*
X108893903Y-90976337D01*
X108794035Y-90762171D01*
X108700508Y-90628599D01*
X108658494Y-90568597D01*
X108491402Y-90401506D01*
X108491396Y-90401501D01*
X108305842Y-90271575D01*
X108262217Y-90216998D01*
X108255023Y-90147500D01*
X108286546Y-90085145D01*
X108305842Y-90068425D01*
X108405715Y-89998493D01*
X108491401Y-89938495D01*
X108658495Y-89771401D01*
X108794035Y-89577830D01*
X108893903Y-89363663D01*
X108955063Y-89135408D01*
X108975659Y-88900000D01*
X108955063Y-88664592D01*
X108893903Y-88436337D01*
X108794035Y-88222171D01*
X108783750Y-88207483D01*
X108658496Y-88028600D01*
X108658495Y-88028599D01*
X108536567Y-87906671D01*
X108503084Y-87845351D01*
X108508068Y-87775659D01*
X108549939Y-87719725D01*
X108580915Y-87702810D01*
X108712331Y-87653796D01*
X108827546Y-87567546D01*
X108913796Y-87452331D01*
X108964091Y-87317483D01*
X108970500Y-87257873D01*
X108970499Y-85462128D01*
X108964091Y-85402517D01*
X108936175Y-85327671D01*
X108913797Y-85267671D01*
X108913793Y-85267664D01*
X108827547Y-85152455D01*
X108827544Y-85152452D01*
X108712335Y-85066206D01*
X108712328Y-85066202D01*
X108577482Y-85015908D01*
X108577483Y-85015908D01*
X108517883Y-85009501D01*
X108517881Y-85009500D01*
X108517873Y-85009500D01*
X108517864Y-85009500D01*
X106722129Y-85009500D01*
X106722123Y-85009501D01*
X106662516Y-85015908D01*
X106527671Y-85066202D01*
X106527664Y-85066206D01*
X106412455Y-85152452D01*
X106412452Y-85152455D01*
X106326206Y-85267664D01*
X106326202Y-85267671D01*
X106275908Y-85402517D01*
X106269501Y-85462116D01*
X106269501Y-85462123D01*
X106269500Y-85462135D01*
X106269500Y-87257870D01*
X106269501Y-87257876D01*
X106275908Y-87317483D01*
X106326202Y-87452328D01*
X106326206Y-87452335D01*
X106412452Y-87567544D01*
X106412455Y-87567547D01*
X106527664Y-87653793D01*
X106527671Y-87653797D01*
X106659081Y-87702810D01*
X106715015Y-87744681D01*
X106739432Y-87810145D01*
X106724580Y-87878418D01*
X106703430Y-87906673D01*
X106581503Y-88028600D01*
X106445965Y-88222169D01*
X106445964Y-88222171D01*
X106346098Y-88436335D01*
X106346094Y-88436344D01*
X106284938Y-88664586D01*
X106284936Y-88664596D01*
X106264341Y-88899999D01*
X93730409Y-88899999D01*
X93715063Y-88724592D01*
X93653903Y-88496337D01*
X93554035Y-88282171D01*
X93512021Y-88222169D01*
X93418496Y-88088600D01*
X93358495Y-88028599D01*
X93296567Y-87966671D01*
X93263084Y-87905351D01*
X93268068Y-87835659D01*
X93309939Y-87779725D01*
X93340915Y-87762810D01*
X93472331Y-87713796D01*
X93587546Y-87627546D01*
X93673796Y-87512331D01*
X93724091Y-87377483D01*
X93730500Y-87317873D01*
X93730499Y-85522128D01*
X93724091Y-85462517D01*
X93723946Y-85462129D01*
X93673797Y-85327671D01*
X93673793Y-85327664D01*
X93587547Y-85212455D01*
X93587544Y-85212452D01*
X93472335Y-85126206D01*
X93472328Y-85126202D01*
X93337482Y-85075908D01*
X93337483Y-85075908D01*
X93277883Y-85069501D01*
X93277881Y-85069500D01*
X93277873Y-85069500D01*
X93277864Y-85069500D01*
X91482129Y-85069500D01*
X91482123Y-85069501D01*
X91422516Y-85075908D01*
X91287671Y-85126202D01*
X91287664Y-85126206D01*
X91172455Y-85212452D01*
X91172452Y-85212455D01*
X91086206Y-85327664D01*
X91086202Y-85327671D01*
X91035908Y-85462517D01*
X91029501Y-85522116D01*
X91029501Y-85522123D01*
X91029500Y-85522135D01*
X91029500Y-87317870D01*
X91029501Y-87317876D01*
X91035908Y-87377483D01*
X91086202Y-87512328D01*
X91086206Y-87512335D01*
X91172452Y-87627544D01*
X91172455Y-87627547D01*
X91287664Y-87713793D01*
X91287671Y-87713797D01*
X91419081Y-87762810D01*
X91475015Y-87804681D01*
X91499432Y-87870145D01*
X91484580Y-87938418D01*
X91463430Y-87966673D01*
X91341503Y-88088600D01*
X91205965Y-88282169D01*
X91205964Y-88282171D01*
X91106098Y-88496335D01*
X91106094Y-88496344D01*
X91044938Y-88724586D01*
X91044936Y-88724596D01*
X91024341Y-88959999D01*
X87500500Y-88959999D01*
X87500500Y-85052135D01*
X94899500Y-85052135D01*
X94899500Y-86147870D01*
X94899501Y-86147876D01*
X94905908Y-86207483D01*
X94956202Y-86342328D01*
X94956206Y-86342335D01*
X95042452Y-86457544D01*
X95042453Y-86457544D01*
X95042454Y-86457546D01*
X95071615Y-86479376D01*
X95100145Y-86500734D01*
X95142015Y-86556668D01*
X95146999Y-86626360D01*
X95113513Y-86687683D01*
X95100145Y-86699266D01*
X95042452Y-86742455D01*
X94956206Y-86857664D01*
X94956202Y-86857671D01*
X94905908Y-86992517D01*
X94899501Y-87052116D01*
X94899501Y-87052123D01*
X94899500Y-87052135D01*
X94899500Y-88147870D01*
X94899501Y-88147876D01*
X94905908Y-88207483D01*
X94956202Y-88342328D01*
X94956206Y-88342335D01*
X95042452Y-88457544D01*
X95042455Y-88457547D01*
X95157664Y-88543793D01*
X95157671Y-88543797D01*
X95292517Y-88594091D01*
X95292516Y-88594091D01*
X95299444Y-88594835D01*
X95352127Y-88600500D01*
X96447872Y-88600499D01*
X96507483Y-88594091D01*
X96642331Y-88543796D01*
X96757546Y-88457546D01*
X96843796Y-88342331D01*
X96894091Y-88207483D01*
X96900500Y-88147873D01*
X96900499Y-87052128D01*
X96894091Y-86992517D01*
X96843796Y-86857669D01*
X96843795Y-86857668D01*
X96843793Y-86857664D01*
X96757547Y-86742456D01*
X96757548Y-86742456D01*
X96757546Y-86742454D01*
X96699854Y-86699265D01*
X96657984Y-86643333D01*
X96653000Y-86573641D01*
X96686485Y-86512318D01*
X96699854Y-86500734D01*
X96757546Y-86457546D01*
X96843796Y-86342331D01*
X96894091Y-86207483D01*
X96900500Y-86147873D01*
X96900499Y-85052135D01*
X103099500Y-85052135D01*
X103099500Y-86147870D01*
X103099501Y-86147876D01*
X103105908Y-86207483D01*
X103156202Y-86342328D01*
X103156206Y-86342335D01*
X103242452Y-86457544D01*
X103242453Y-86457544D01*
X103242454Y-86457546D01*
X103271615Y-86479376D01*
X103300145Y-86500734D01*
X103342015Y-86556668D01*
X103346999Y-86626360D01*
X103313513Y-86687683D01*
X103300145Y-86699266D01*
X103242452Y-86742455D01*
X103156206Y-86857664D01*
X103156202Y-86857671D01*
X103105908Y-86992517D01*
X103099501Y-87052116D01*
X103099501Y-87052123D01*
X103099500Y-87052135D01*
X103099500Y-88147870D01*
X103099501Y-88147876D01*
X103105908Y-88207483D01*
X103156202Y-88342328D01*
X103156206Y-88342335D01*
X103242452Y-88457544D01*
X103242455Y-88457547D01*
X103357664Y-88543793D01*
X103357671Y-88543797D01*
X103492517Y-88594091D01*
X103492516Y-88594091D01*
X103499444Y-88594835D01*
X103552127Y-88600500D01*
X104647872Y-88600499D01*
X104707483Y-88594091D01*
X104842331Y-88543796D01*
X104957546Y-88457546D01*
X105043796Y-88342331D01*
X105094091Y-88207483D01*
X105100500Y-88147873D01*
X105100499Y-87052128D01*
X105094091Y-86992517D01*
X105043796Y-86857669D01*
X105043795Y-86857668D01*
X105043793Y-86857664D01*
X104957547Y-86742456D01*
X104957548Y-86742456D01*
X104957546Y-86742454D01*
X104899854Y-86699265D01*
X104857984Y-86643333D01*
X104853000Y-86573641D01*
X104886485Y-86512318D01*
X104899854Y-86500734D01*
X104957546Y-86457546D01*
X105043796Y-86342331D01*
X105094091Y-86207483D01*
X105100500Y-86147873D01*
X105100499Y-85052128D01*
X105094091Y-84992517D01*
X105043796Y-84857669D01*
X105043795Y-84857668D01*
X105043793Y-84857664D01*
X104957547Y-84742455D01*
X104957544Y-84742452D01*
X104842335Y-84656206D01*
X104842328Y-84656202D01*
X104707482Y-84605908D01*
X104707483Y-84605908D01*
X104647883Y-84599501D01*
X104647881Y-84599500D01*
X104647873Y-84599500D01*
X104647864Y-84599500D01*
X103552129Y-84599500D01*
X103552123Y-84599501D01*
X103492516Y-84605908D01*
X103357671Y-84656202D01*
X103357664Y-84656206D01*
X103242455Y-84742452D01*
X103242452Y-84742455D01*
X103156206Y-84857664D01*
X103156202Y-84857671D01*
X103105908Y-84992517D01*
X103099501Y-85052116D01*
X103099501Y-85052123D01*
X103099500Y-85052135D01*
X96900499Y-85052135D01*
X96900499Y-85052128D01*
X96894091Y-84992517D01*
X96843796Y-84857669D01*
X96843795Y-84857668D01*
X96843793Y-84857664D01*
X96757547Y-84742455D01*
X96757544Y-84742452D01*
X96642335Y-84656206D01*
X96642328Y-84656202D01*
X96507482Y-84605908D01*
X96507483Y-84605908D01*
X96447883Y-84599501D01*
X96447881Y-84599500D01*
X96447873Y-84599500D01*
X96447864Y-84599500D01*
X95352129Y-84599500D01*
X95352123Y-84599501D01*
X95292516Y-84605908D01*
X95157671Y-84656202D01*
X95157664Y-84656206D01*
X95042455Y-84742452D01*
X95042452Y-84742455D01*
X94956206Y-84857664D01*
X94956202Y-84857671D01*
X94905908Y-84992517D01*
X94899501Y-85052116D01*
X94899501Y-85052123D01*
X94899500Y-85052135D01*
X87500500Y-85052135D01*
X87500500Y-84004427D01*
X87500816Y-83995581D01*
X87515130Y-83795443D01*
X87515131Y-83795442D01*
X87515130Y-83795436D01*
X87517646Y-83777938D01*
X87559356Y-83586199D01*
X87564333Y-83569248D01*
X87632911Y-83385385D01*
X87640259Y-83369298D01*
X87702815Y-83254734D01*
X87734291Y-83197089D01*
X87743845Y-83182221D01*
X87861448Y-83025123D01*
X87873020Y-83011769D01*
X88011769Y-82873020D01*
X88025123Y-82861448D01*
X88182221Y-82743845D01*
X88197089Y-82734291D01*
X88369298Y-82640258D01*
X88385385Y-82632911D01*
X88569248Y-82564333D01*
X88586199Y-82559356D01*
X88777938Y-82517646D01*
X88795436Y-82515130D01*
X88995582Y-82500816D01*
X89004428Y-82500500D01*
X89065892Y-82500500D01*
X110934108Y-82500500D01*
X110995572Y-82500500D01*
X111004418Y-82500816D01*
G37*
%TD.AperFunction*%
%TD*%
D16*
X102000000Y-99000000D03*
D17*
X102500000Y-90840380D03*
D16*
X96000000Y-99000000D03*
X94000000Y-83000000D03*
X96000000Y-83000000D03*
X110000000Y-99000000D03*
X102000000Y-83000000D03*
X98000000Y-83000000D03*
X112000000Y-85000000D03*
X88000000Y-97000000D03*
D17*
X100000000Y-88200000D03*
D16*
X88000000Y-87000000D03*
D17*
X97562500Y-90837500D03*
D16*
X110000000Y-83000000D03*
X108000000Y-83000000D03*
X88000000Y-95000000D03*
X112000000Y-89000000D03*
X104000000Y-99000000D03*
X88000000Y-89000000D03*
D17*
X100000000Y-91800000D03*
D16*
X106000000Y-99000000D03*
X104000000Y-83000000D03*
X98000000Y-99000000D03*
X90000000Y-83000000D03*
X92000000Y-83000000D03*
D17*
X97200000Y-90100000D03*
D16*
X92000000Y-99000000D03*
X90000000Y-99000000D03*
X112000000Y-91000000D03*
X88000000Y-91000000D03*
X88000000Y-85000000D03*
X108000000Y-99000000D03*
X112000000Y-97000000D03*
X94000000Y-99000000D03*
D17*
X102800000Y-90100000D03*
D16*
X112000000Y-87000000D03*
X100000000Y-99000000D03*
X100000000Y-83000000D03*
X106000000Y-83000000D03*
X112000000Y-95000000D03*
X88000000Y-93000000D03*
X112000000Y-93000000D03*
D17*
X97600000Y-92800000D03*
X102400000Y-92800000D03*
D18*
X95900000Y-90400000D03*
X95900000Y-87600000D03*
X104100000Y-87600000D03*
X104100000Y-85600000D03*
X95900000Y-94400000D03*
X104100000Y-94400000D03*
X104100000Y-90400000D03*
X95900000Y-97200000D03*
X104100000Y-92400000D03*
X104100000Y-97300000D03*
X95900000Y-92400000D03*
X95900000Y-85600000D03*
X107620000Y-86360000D03*
X107620000Y-88900000D03*
X107620000Y-91440000D03*
X107620000Y-93980000D03*
X107620000Y-96520000D03*
X92380000Y-86420000D03*
X92380000Y-88960000D03*
X92380000Y-91500000D03*
X92380000Y-94040000D03*
X92380000Y-96580000D03*
M02*
