%TF.GenerationSoftware,KiCad,Pcbnew,8.0.3*%
%TF.CreationDate,2024-07-29T06:26:45+12:00*%
%TF.ProjectId,sot23-6,736f7432-332d-4362-9e6b-696361645f70,rev?*%
%TF.SameCoordinates,Original*%
%TF.FileFunction,Copper,L1,Top*%
%TF.FilePolarity,Positive*%
%FSLAX46Y46*%
G04 Gerber Fmt 4.6, Leading zero omitted, Abs format (unit mm)*
G04 Created by KiCad (PCBNEW 8.0.3) date 2024-07-29 06:26:45*
%MOMM*%
%LPD*%
G01*
G04 APERTURE LIST*
G04 Aperture macros list*
%AMRoundRect*
0 Rectangle with rounded corners*
0 $1 Rounding radius*
0 $2 $3 $4 $5 $6 $7 $8 $9 X,Y pos of 4 corners*
0 Add a 4 corners polygon primitive as box body*
4,1,4,$2,$3,$4,$5,$6,$7,$8,$9,$2,$3,0*
0 Add four circle primitives for the rounded corners*
1,1,$1+$1,$2,$3*
1,1,$1+$1,$4,$5*
1,1,$1+$1,$6,$7*
1,1,$1+$1,$8,$9*
0 Add four rect primitives between the rounded corners*
20,1,$1+$1,$2,$3,$4,$5,0*
20,1,$1+$1,$4,$5,$6,$7,0*
20,1,$1+$1,$6,$7,$8,$9,0*
20,1,$1+$1,$8,$9,$2,$3,0*%
%AMFreePoly0*
4,1,19,0.000000,0.744911,0.071157,0.744911,0.207708,0.704816,0.327430,0.627875,0.420627,0.520320,0.479746,0.390866,0.500000,0.250000,0.500000,-0.250000,0.479746,-0.390866,0.420627,-0.520320,0.327430,-0.627875,0.207708,-0.704816,0.071157,-0.744911,0.000000,-0.744911,0.000000,-0.750000,-0.500000,-0.750000,-0.500000,0.750000,0.000000,0.750000,0.000000,0.744911,0.000000,0.744911,
$1*%
%AMFreePoly1*
4,1,19,0.500000,-0.750000,0.000000,-0.750000,0.000000,-0.744911,-0.071157,-0.744911,-0.207708,-0.704816,-0.327430,-0.627875,-0.420627,-0.520320,-0.479746,-0.390866,-0.500000,-0.250000,-0.500000,0.250000,-0.479746,0.390866,-0.420627,0.520320,-0.327430,0.627875,-0.207708,0.704816,-0.071157,0.744911,0.000000,0.744911,0.000000,0.750000,0.500000,0.750000,0.500000,-0.750000,0.500000,-0.750000,
$1*%
G04 Aperture macros list end*
%TA.AperFunction,EtchedComponent*%
%ADD10C,0.000000*%
%TD*%
%TA.AperFunction,ComponentPad*%
%ADD11R,1.000000X1.000000*%
%TD*%
%TA.AperFunction,SMDPad,CuDef*%
%ADD12RoundRect,0.250000X-0.475000X0.337500X-0.475000X-0.337500X0.475000X-0.337500X0.475000X0.337500X0*%
%TD*%
%TA.AperFunction,SMDPad,CuDef*%
%ADD13RoundRect,0.150000X-0.512500X-0.150000X0.512500X-0.150000X0.512500X0.150000X-0.512500X0.150000X0*%
%TD*%
%TA.AperFunction,ComponentPad*%
%ADD14O,1.700000X1.700000*%
%TD*%
%TA.AperFunction,ComponentPad*%
%ADD15R,1.700000X1.700000*%
%TD*%
%TA.AperFunction,SMDPad,CuDef*%
%ADD16FreePoly0,0.000000*%
%TD*%
%TA.AperFunction,SMDPad,CuDef*%
%ADD17FreePoly1,0.000000*%
%TD*%
%TA.AperFunction,ViaPad*%
%ADD18C,0.600000*%
%TD*%
%TA.AperFunction,ViaPad*%
%ADD19C,0.400000*%
%TD*%
%TA.AperFunction,Conductor*%
%ADD20C,0.300000*%
%TD*%
%ADD21C,0.300000*%
%ADD22C,0.200000*%
%ADD23C,0.350000*%
G04 APERTURE END LIST*
D10*
%TA.AperFunction,EtchedComponent*%
%TO.C,JP101*%
G36*
X100250000Y-86100000D02*
G01*
X99750000Y-86100000D01*
X99750000Y-85500000D01*
X100250000Y-85500000D01*
X100250000Y-86100000D01*
G37*
%TD.AperFunction*%
%TD*%
D11*
%TO.P,TP105,1,1*%
%TO.N,Net-(J101-Pin_2)*%
X95900000Y-90400000D03*
%TD*%
D12*
%TO.P,C101,2*%
%TO.N,GND*%
X98640000Y-90837500D03*
%TO.P,C101,1*%
%TO.N,Net-(J101-Pin_1)*%
X98640000Y-88762500D03*
%TD*%
D11*
%TO.P,TP102,1,1*%
%TO.N,Net-(J101-Pin_1)*%
X95900000Y-87600000D03*
%TD*%
%TO.P,TP103,1,1*%
%TO.N,Net-(J102-Pin_1)*%
X104100000Y-87600000D03*
%TD*%
%TO.P,TP104,1,1*%
%TO.N,Net-(J102-Pin_1)*%
X104100000Y-85600000D03*
%TD*%
%TO.P,TP107,1,1*%
%TO.N,Net-(J101-Pin_4)*%
X95900000Y-94400000D03*
%TD*%
D13*
%TO.P,U101,6,6*%
%TO.N,Net-(J102-Pin_2)*%
X101137500Y-92800000D03*
%TO.P,U101,5,5*%
%TO.N,Net-(J102-Pin_3)*%
X101137500Y-93750000D03*
%TO.P,U101,4,4*%
%TO.N,Net-(J102-Pin_4)*%
X101137500Y-94700000D03*
%TO.P,U101,3,3*%
%TO.N,Net-(J101-Pin_4)*%
X98862500Y-94700000D03*
%TO.P,U101,2,2*%
%TO.N,Net-(J101-Pin_3)*%
X98862500Y-93750000D03*
%TO.P,U101,1,1*%
%TO.N,Net-(J101-Pin_2)*%
X98862500Y-92800000D03*
%TD*%
D11*
%TO.P,TP108,1,1*%
%TO.N,Net-(J102-Pin_4)*%
X104100000Y-94400000D03*
%TD*%
%TO.P,TP110,1,1*%
%TO.N,Net-(J102-Pin_2)*%
X104100000Y-90400000D03*
%TD*%
%TO.P,TP111,1,1*%
%TO.N,GND*%
X95900000Y-97200000D03*
%TD*%
%TO.P,TP109,1,1*%
%TO.N,Net-(J102-Pin_3)*%
X104100000Y-92400000D03*
%TD*%
D14*
%TO.P,J102,5,Pin_5*%
%TO.N,GND*%
X107620000Y-96520000D03*
%TO.P,J102,4,Pin_4*%
%TO.N,Net-(J102-Pin_4)*%
X107620000Y-93980000D03*
%TO.P,J102,3,Pin_3*%
%TO.N,Net-(J102-Pin_3)*%
X107620000Y-91440000D03*
%TO.P,J102,2,Pin_2*%
%TO.N,Net-(J102-Pin_2)*%
X107620000Y-88900000D03*
D15*
%TO.P,J102,1,Pin_1*%
%TO.N,Net-(J102-Pin_1)*%
X107620000Y-86360000D03*
%TD*%
D11*
%TO.P,TP112,1,1*%
%TO.N,GND*%
X104100000Y-97300000D03*
%TD*%
D12*
%TO.P,C102,2*%
%TO.N,GND*%
X101360000Y-90837500D03*
%TO.P,C102,1*%
%TO.N,Net-(J102-Pin_1)*%
X101360000Y-88762500D03*
%TD*%
D11*
%TO.P,TP106,1,1*%
%TO.N,Net-(J101-Pin_3)*%
X95900000Y-92400000D03*
%TD*%
D14*
%TO.P,J101,5,Pin_5*%
%TO.N,GND*%
X92380000Y-96580000D03*
%TO.P,J101,4,Pin_4*%
%TO.N,Net-(J101-Pin_4)*%
X92380000Y-94040000D03*
%TO.P,J101,3,Pin_3*%
%TO.N,Net-(J101-Pin_3)*%
X92380000Y-91500000D03*
%TO.P,J101,2,Pin_2*%
%TO.N,Net-(J101-Pin_2)*%
X92380000Y-88960000D03*
D15*
%TO.P,J101,1,Pin_1*%
%TO.N,Net-(J101-Pin_1)*%
X92380000Y-86420000D03*
%TD*%
D16*
%TO.P,JP101,2,B*%
%TO.N,Net-(J102-Pin_1)*%
X100650000Y-85800000D03*
D17*
%TO.P,JP101,1,A*%
%TO.N,Net-(J101-Pin_1)*%
X99350000Y-85800000D03*
%TD*%
D11*
%TO.P,TP101,1,1*%
%TO.N,Net-(J101-Pin_1)*%
X95900000Y-85600000D03*
%TD*%
D18*
%TO.N,GND*%
X110000000Y-83000000D03*
X106000000Y-99000000D03*
X88000000Y-85000000D03*
X88000000Y-87000000D03*
X88000000Y-89000000D03*
X88000000Y-91000000D03*
X88000000Y-93000000D03*
X88000000Y-95000000D03*
X88000000Y-97000000D03*
X88000000Y-99000000D03*
X90000000Y-99000000D03*
X92000000Y-99000000D03*
X94000000Y-99000000D03*
X96000000Y-99000000D03*
X98000000Y-99000000D03*
X100000000Y-99000000D03*
X102000000Y-99000000D03*
X104000000Y-99000000D03*
X108000000Y-99000000D03*
X110000000Y-99000000D03*
X112000000Y-99000000D03*
X112000000Y-97000000D03*
X112000000Y-95000000D03*
X112000000Y-93000000D03*
X112000000Y-91000000D03*
X112000000Y-89000000D03*
X112000000Y-87000000D03*
X112000000Y-85000000D03*
X112000000Y-83000000D03*
X108000000Y-83000000D03*
X106000000Y-83000000D03*
X104000000Y-83000000D03*
X102000000Y-83000000D03*
X100000000Y-83000000D03*
X98000000Y-83000000D03*
X96000000Y-83000000D03*
X94000000Y-83000000D03*
X92000000Y-83000000D03*
X90000000Y-83000000D03*
X88000000Y-83000000D03*
D19*
X102500000Y-90840380D03*
X100000000Y-88200000D03*
X97562500Y-90837500D03*
X100000000Y-91800000D03*
X97200000Y-90100000D03*
X102800000Y-90100000D03*
%TO.N,Net-(J101-Pin_2)*%
X97600000Y-92800000D03*
%TO.N,Net-(J102-Pin_2)*%
X102400000Y-92800000D03*
%TD*%
D20*
%TO.N,GND*%
X102500000Y-90840380D02*
X101362880Y-90840380D01*
X97562500Y-90837500D02*
X98640000Y-90837500D01*
X101362880Y-90840380D02*
X101360000Y-90837500D01*
%TO.N,Net-(J101-Pin_4)*%
X94400000Y-94400000D02*
X95900000Y-94400000D01*
X94040000Y-94040000D02*
X94400000Y-94400000D01*
X97400000Y-94700000D02*
X97100000Y-94400000D01*
X98862500Y-94700000D02*
X97400000Y-94700000D01*
X92380000Y-94040000D02*
X94040000Y-94040000D01*
X97100000Y-94400000D02*
X95900000Y-94400000D01*
%TO.N,Net-(J101-Pin_2)*%
X98862500Y-92800000D02*
X97600000Y-92800000D01*
X93820000Y-90400000D02*
X95900000Y-90400000D01*
X97600000Y-92800000D02*
X97700000Y-92800000D01*
X92380000Y-88960000D02*
X93820000Y-90400000D01*
%TO.N,Net-(J101-Pin_3)*%
X93280000Y-92400000D02*
X95900000Y-92400000D01*
X97250000Y-93750000D02*
X95900000Y-92400000D01*
X92380000Y-91500000D02*
X93280000Y-92400000D01*
X98862500Y-93750000D02*
X97250000Y-93750000D01*
%TO.N,Net-(J102-Pin_2)*%
X101137500Y-92800000D02*
X102400000Y-92800000D01*
X106120000Y-90400000D02*
X104100000Y-90400000D01*
X107620000Y-88900000D02*
X106120000Y-90400000D01*
%TO.N,Net-(J102-Pin_3)*%
X107620000Y-91480000D02*
X106700000Y-92400000D01*
X107620000Y-91440000D02*
X107620000Y-91480000D01*
X101137500Y-93750000D02*
X102750000Y-93750000D01*
X102750000Y-93750000D02*
X104100000Y-92400000D01*
X106700000Y-92400000D02*
X104100000Y-92400000D01*
%TO.N,Net-(J102-Pin_4)*%
X104100000Y-94400000D02*
X105500000Y-94400000D01*
X105500000Y-94400000D02*
X105920000Y-93980000D01*
X105920000Y-93980000D02*
X107620000Y-93980000D01*
X104100000Y-94400000D02*
X103000000Y-94400000D01*
X102700000Y-94700000D02*
X101137500Y-94700000D01*
X103000000Y-94400000D02*
X102700000Y-94700000D01*
%TD*%
%TA.AperFunction,Conductor*%
%TO.N,Net-(J101-Pin_1)*%
G36*
X99543039Y-84119685D02*
G01*
X99588794Y-84172489D01*
X99600000Y-84224000D01*
X99600000Y-87562703D01*
X99580315Y-87629742D01*
X99558227Y-87655518D01*
X99507963Y-87700048D01*
X99444730Y-87729770D01*
X99386732Y-87724939D01*
X99267697Y-87685494D01*
X99267690Y-87685493D01*
X99164986Y-87675000D01*
X98890000Y-87675000D01*
X98890000Y-88888500D01*
X98870315Y-88955539D01*
X98817511Y-89001294D01*
X98766000Y-89012500D01*
X97415001Y-89012500D01*
X97415001Y-89149984D01*
X97416372Y-89163397D01*
X97403603Y-89232090D01*
X97355723Y-89282975D01*
X97293014Y-89300000D01*
X94324000Y-89300000D01*
X94256961Y-89280315D01*
X94211206Y-89227511D01*
X94200000Y-89176000D01*
X94200000Y-88147844D01*
X94900000Y-88147844D01*
X94906401Y-88207372D01*
X94906403Y-88207379D01*
X94956645Y-88342086D01*
X94956649Y-88342093D01*
X95042809Y-88457187D01*
X95042812Y-88457190D01*
X95157906Y-88543350D01*
X95157913Y-88543354D01*
X95292620Y-88593596D01*
X95292627Y-88593598D01*
X95352155Y-88599999D01*
X95352172Y-88600000D01*
X95650000Y-88600000D01*
X96150000Y-88600000D01*
X96447828Y-88600000D01*
X96447844Y-88599999D01*
X96507372Y-88593598D01*
X96507379Y-88593596D01*
X96642086Y-88543354D01*
X96642093Y-88543350D01*
X96757187Y-88457190D01*
X96757190Y-88457187D01*
X96818706Y-88375013D01*
X97415000Y-88375013D01*
X97415000Y-88512500D01*
X98390000Y-88512500D01*
X98390000Y-87675000D01*
X98115029Y-87675000D01*
X98115012Y-87675001D01*
X98012302Y-87685494D01*
X97845880Y-87740641D01*
X97845875Y-87740643D01*
X97696654Y-87832684D01*
X97572684Y-87956654D01*
X97480643Y-88105875D01*
X97480641Y-88105880D01*
X97425494Y-88272302D01*
X97425493Y-88272309D01*
X97415000Y-88375013D01*
X96818706Y-88375013D01*
X96843350Y-88342093D01*
X96843354Y-88342086D01*
X96893596Y-88207379D01*
X96893598Y-88207372D01*
X96899999Y-88147844D01*
X96900000Y-88147827D01*
X96900000Y-87850000D01*
X96150000Y-87850000D01*
X96150000Y-88600000D01*
X95650000Y-88600000D01*
X95650000Y-87850000D01*
X94900000Y-87850000D01*
X94900000Y-88147844D01*
X94200000Y-88147844D01*
X94200000Y-87550272D01*
X95650000Y-87550272D01*
X95650000Y-87649728D01*
X95688060Y-87741614D01*
X95758386Y-87811940D01*
X95850272Y-87850000D01*
X95949728Y-87850000D01*
X96041614Y-87811940D01*
X96111940Y-87741614D01*
X96150000Y-87649728D01*
X96150000Y-87550272D01*
X96111940Y-87458386D01*
X96041614Y-87388060D01*
X95949728Y-87350000D01*
X96150000Y-87350000D01*
X96900000Y-87350000D01*
X96900000Y-87052172D01*
X96899999Y-87052155D01*
X96893598Y-86992627D01*
X96893596Y-86992620D01*
X96843354Y-86857913D01*
X96843350Y-86857906D01*
X96757190Y-86742813D01*
X96699021Y-86699267D01*
X96657150Y-86643333D01*
X96652166Y-86573641D01*
X96685651Y-86512318D01*
X96699021Y-86500733D01*
X96757190Y-86457186D01*
X96843350Y-86342093D01*
X96843354Y-86342086D01*
X96893596Y-86207379D01*
X96893598Y-86207372D01*
X96899999Y-86147844D01*
X96900000Y-86147827D01*
X96900000Y-85850000D01*
X96150000Y-85850000D01*
X96150000Y-87350000D01*
X95949728Y-87350000D01*
X95850272Y-87350000D01*
X95758386Y-87388060D01*
X95688060Y-87458386D01*
X95650000Y-87550272D01*
X94200000Y-87550272D01*
X94200000Y-87200000D01*
X93854000Y-87200000D01*
X93786961Y-87180315D01*
X93741206Y-87127511D01*
X93730000Y-87076000D01*
X93730000Y-86670000D01*
X92813012Y-86670000D01*
X92845925Y-86612993D01*
X92880000Y-86485826D01*
X92880000Y-86354174D01*
X92845925Y-86227007D01*
X92813012Y-86170000D01*
X93730000Y-86170000D01*
X93730000Y-86147844D01*
X94900000Y-86147844D01*
X94906401Y-86207372D01*
X94906403Y-86207379D01*
X94956645Y-86342086D01*
X94956649Y-86342093D01*
X95042809Y-86457187D01*
X95100979Y-86500734D01*
X95142849Y-86556668D01*
X95147833Y-86626360D01*
X95114347Y-86687683D01*
X95100979Y-86699266D01*
X95042809Y-86742812D01*
X94956649Y-86857906D01*
X94956645Y-86857913D01*
X94906403Y-86992620D01*
X94906401Y-86992627D01*
X94900000Y-87052155D01*
X94900000Y-87350000D01*
X95650000Y-87350000D01*
X95650000Y-85850000D01*
X94900000Y-85850000D01*
X94900000Y-86147844D01*
X93730000Y-86147844D01*
X93730000Y-85550272D01*
X95650000Y-85550272D01*
X95650000Y-85649728D01*
X95688060Y-85741614D01*
X95758386Y-85811940D01*
X95850272Y-85850000D01*
X95949728Y-85850000D01*
X96041614Y-85811940D01*
X96111940Y-85741614D01*
X96150000Y-85649728D01*
X96150000Y-85550272D01*
X96111940Y-85458386D01*
X96041614Y-85388060D01*
X95949728Y-85350000D01*
X96150000Y-85350000D01*
X96900000Y-85350000D01*
X96900000Y-85052172D01*
X96899999Y-85052155D01*
X96893598Y-84992627D01*
X96893596Y-84992620D01*
X96843354Y-84857913D01*
X96843350Y-84857906D01*
X96757190Y-84742812D01*
X96757187Y-84742809D01*
X96642093Y-84656649D01*
X96642086Y-84656645D01*
X96507379Y-84606403D01*
X96507372Y-84606401D01*
X96447844Y-84600000D01*
X96150000Y-84600000D01*
X96150000Y-85350000D01*
X95949728Y-85350000D01*
X95850272Y-85350000D01*
X95758386Y-85388060D01*
X95688060Y-85458386D01*
X95650000Y-85550272D01*
X93730000Y-85550272D01*
X93730000Y-85522172D01*
X93729999Y-85522155D01*
X93723598Y-85462627D01*
X93723596Y-85462620D01*
X93673354Y-85327913D01*
X93673350Y-85327906D01*
X93587190Y-85212812D01*
X93587187Y-85212809D01*
X93472093Y-85126649D01*
X93472086Y-85126645D01*
X93337379Y-85076403D01*
X93337372Y-85076401D01*
X93277844Y-85070000D01*
X92630000Y-85070000D01*
X92630000Y-85986988D01*
X92572993Y-85954075D01*
X92445826Y-85920000D01*
X92314174Y-85920000D01*
X92187007Y-85954075D01*
X92130000Y-85986988D01*
X92130000Y-85070000D01*
X91482155Y-85070000D01*
X91422627Y-85076401D01*
X91422620Y-85076403D01*
X91287913Y-85126645D01*
X91287906Y-85126649D01*
X91172812Y-85212809D01*
X91172809Y-85212812D01*
X91086649Y-85327906D01*
X91086645Y-85327913D01*
X91036403Y-85462620D01*
X91036401Y-85462627D01*
X91030000Y-85522155D01*
X91030000Y-86170000D01*
X91946988Y-86170000D01*
X91914075Y-86227007D01*
X91880000Y-86354174D01*
X91880000Y-86485826D01*
X91914075Y-86612993D01*
X91946988Y-86670000D01*
X91030000Y-86670000D01*
X91030000Y-87076000D01*
X91010315Y-87143039D01*
X90957511Y-87188794D01*
X90906000Y-87200000D01*
X90624000Y-87200000D01*
X90556961Y-87180315D01*
X90511206Y-87127511D01*
X90500000Y-87076000D01*
X90500000Y-85052155D01*
X94900000Y-85052155D01*
X94900000Y-85350000D01*
X95650000Y-85350000D01*
X95650000Y-84600000D01*
X95352155Y-84600000D01*
X95292627Y-84606401D01*
X95292620Y-84606403D01*
X95157913Y-84656645D01*
X95157906Y-84656649D01*
X95042812Y-84742809D01*
X95042809Y-84742812D01*
X94956649Y-84857906D01*
X94956645Y-84857913D01*
X94906403Y-84992620D01*
X94906401Y-84992627D01*
X94900000Y-85052155D01*
X90500000Y-85052155D01*
X90500000Y-84224000D01*
X90519685Y-84156961D01*
X90572489Y-84111206D01*
X90624000Y-84100000D01*
X99476000Y-84100000D01*
X99543039Y-84119685D01*
G37*
%TD.AperFunction*%
%TD*%
%TA.AperFunction,Conductor*%
%TO.N,Net-(J102-Pin_1)*%
G36*
X109443039Y-84119685D02*
G01*
X109488794Y-84172489D01*
X109500000Y-84224000D01*
X109500000Y-87076000D01*
X109480315Y-87143039D01*
X109427511Y-87188794D01*
X109376000Y-87200000D01*
X109094000Y-87200000D01*
X109026961Y-87180315D01*
X108981206Y-87127511D01*
X108970000Y-87076000D01*
X108970000Y-86610000D01*
X108053012Y-86610000D01*
X108085925Y-86552993D01*
X108120000Y-86425826D01*
X108120000Y-86294174D01*
X108085925Y-86167007D01*
X108053012Y-86110000D01*
X108970000Y-86110000D01*
X108970000Y-85462172D01*
X108969999Y-85462155D01*
X108963598Y-85402627D01*
X108963596Y-85402620D01*
X108913354Y-85267913D01*
X108913350Y-85267906D01*
X108827190Y-85152812D01*
X108827187Y-85152809D01*
X108712093Y-85066649D01*
X108712086Y-85066645D01*
X108577379Y-85016403D01*
X108577372Y-85016401D01*
X108517844Y-85010000D01*
X107870000Y-85010000D01*
X107870000Y-85926988D01*
X107812993Y-85894075D01*
X107685826Y-85860000D01*
X107554174Y-85860000D01*
X107427007Y-85894075D01*
X107370000Y-85926988D01*
X107370000Y-85010000D01*
X106722155Y-85010000D01*
X106662627Y-85016401D01*
X106662620Y-85016403D01*
X106527913Y-85066645D01*
X106527906Y-85066649D01*
X106412812Y-85152809D01*
X106412809Y-85152812D01*
X106326649Y-85267906D01*
X106326645Y-85267913D01*
X106276403Y-85402620D01*
X106276401Y-85402627D01*
X106270000Y-85462155D01*
X106270000Y-86110000D01*
X107186988Y-86110000D01*
X107154075Y-86167007D01*
X107120000Y-86294174D01*
X107120000Y-86425826D01*
X107154075Y-86552993D01*
X107186988Y-86610000D01*
X106270000Y-86610000D01*
X106270000Y-87076000D01*
X106250315Y-87143039D01*
X106197511Y-87188794D01*
X106146000Y-87200000D01*
X105800000Y-87200000D01*
X105800000Y-89176000D01*
X105780315Y-89243039D01*
X105727511Y-89288794D01*
X105676000Y-89300000D01*
X102706987Y-89300000D01*
X102639948Y-89280315D01*
X102594193Y-89227511D01*
X102583629Y-89163395D01*
X102584999Y-89149981D01*
X102585000Y-89149973D01*
X102585000Y-89012500D01*
X101234000Y-89012500D01*
X101166961Y-88992815D01*
X101121206Y-88940011D01*
X101110000Y-88888500D01*
X101110000Y-88512500D01*
X101610000Y-88512500D01*
X102584999Y-88512500D01*
X102584999Y-88375028D01*
X102584998Y-88375013D01*
X102574505Y-88272302D01*
X102533264Y-88147844D01*
X103100000Y-88147844D01*
X103106401Y-88207372D01*
X103106403Y-88207379D01*
X103156645Y-88342086D01*
X103156649Y-88342093D01*
X103242809Y-88457187D01*
X103242812Y-88457190D01*
X103357906Y-88543350D01*
X103357913Y-88543354D01*
X103492620Y-88593596D01*
X103492627Y-88593598D01*
X103552155Y-88599999D01*
X103552172Y-88600000D01*
X103850000Y-88600000D01*
X104350000Y-88600000D01*
X104647828Y-88600000D01*
X104647844Y-88599999D01*
X104707372Y-88593598D01*
X104707379Y-88593596D01*
X104842086Y-88543354D01*
X104842093Y-88543350D01*
X104957187Y-88457190D01*
X104957190Y-88457187D01*
X105043350Y-88342093D01*
X105043354Y-88342086D01*
X105093596Y-88207379D01*
X105093598Y-88207372D01*
X105099999Y-88147844D01*
X105100000Y-88147827D01*
X105100000Y-87850000D01*
X104350000Y-87850000D01*
X104350000Y-88600000D01*
X103850000Y-88600000D01*
X103850000Y-87850000D01*
X103100000Y-87850000D01*
X103100000Y-88147844D01*
X102533264Y-88147844D01*
X102519358Y-88105880D01*
X102519356Y-88105875D01*
X102427315Y-87956654D01*
X102303345Y-87832684D01*
X102154124Y-87740643D01*
X102154119Y-87740641D01*
X101987697Y-87685494D01*
X101987690Y-87685493D01*
X101884986Y-87675000D01*
X101610000Y-87675000D01*
X101610000Y-88512500D01*
X101110000Y-88512500D01*
X101110000Y-87675000D01*
X100835029Y-87675000D01*
X100835012Y-87675001D01*
X100732301Y-87685494D01*
X100613266Y-87724938D01*
X100543438Y-87727340D01*
X100492036Y-87700047D01*
X100441773Y-87655518D01*
X100404646Y-87596329D01*
X100400000Y-87562703D01*
X100400000Y-87550272D01*
X103850000Y-87550272D01*
X103850000Y-87649728D01*
X103888060Y-87741614D01*
X103958386Y-87811940D01*
X104050272Y-87850000D01*
X104149728Y-87850000D01*
X104241614Y-87811940D01*
X104311940Y-87741614D01*
X104350000Y-87649728D01*
X104350000Y-87550272D01*
X104311940Y-87458386D01*
X104241614Y-87388060D01*
X104149728Y-87350000D01*
X104350000Y-87350000D01*
X105100000Y-87350000D01*
X105100000Y-87052172D01*
X105099999Y-87052155D01*
X105093598Y-86992627D01*
X105093596Y-86992620D01*
X105043354Y-86857913D01*
X105043350Y-86857906D01*
X104957190Y-86742813D01*
X104899021Y-86699267D01*
X104857150Y-86643333D01*
X104852166Y-86573641D01*
X104885651Y-86512318D01*
X104899021Y-86500733D01*
X104957190Y-86457186D01*
X105043350Y-86342093D01*
X105043354Y-86342086D01*
X105093596Y-86207379D01*
X105093598Y-86207372D01*
X105099999Y-86147844D01*
X105100000Y-86147827D01*
X105100000Y-85850000D01*
X104350000Y-85850000D01*
X104350000Y-87350000D01*
X104149728Y-87350000D01*
X104050272Y-87350000D01*
X103958386Y-87388060D01*
X103888060Y-87458386D01*
X103850000Y-87550272D01*
X100400000Y-87550272D01*
X100400000Y-86147844D01*
X103100000Y-86147844D01*
X103106401Y-86207372D01*
X103106403Y-86207379D01*
X103156645Y-86342086D01*
X103156649Y-86342093D01*
X103242809Y-86457187D01*
X103300979Y-86500734D01*
X103342849Y-86556668D01*
X103347833Y-86626360D01*
X103314347Y-86687683D01*
X103300979Y-86699266D01*
X103242809Y-86742812D01*
X103156649Y-86857906D01*
X103156645Y-86857913D01*
X103106403Y-86992620D01*
X103106401Y-86992627D01*
X103100000Y-87052155D01*
X103100000Y-87350000D01*
X103850000Y-87350000D01*
X103850000Y-85850000D01*
X103100000Y-85850000D01*
X103100000Y-86147844D01*
X100400000Y-86147844D01*
X100400000Y-85550272D01*
X103850000Y-85550272D01*
X103850000Y-85649728D01*
X103888060Y-85741614D01*
X103958386Y-85811940D01*
X104050272Y-85850000D01*
X104149728Y-85850000D01*
X104241614Y-85811940D01*
X104311940Y-85741614D01*
X104350000Y-85649728D01*
X104350000Y-85550272D01*
X104311940Y-85458386D01*
X104241614Y-85388060D01*
X104149728Y-85350000D01*
X104350000Y-85350000D01*
X105100000Y-85350000D01*
X105100000Y-85052172D01*
X105099999Y-85052155D01*
X105093598Y-84992627D01*
X105093596Y-84992620D01*
X105043354Y-84857913D01*
X105043350Y-84857906D01*
X104957190Y-84742812D01*
X104957187Y-84742809D01*
X104842093Y-84656649D01*
X104842086Y-84656645D01*
X104707379Y-84606403D01*
X104707372Y-84606401D01*
X104647844Y-84600000D01*
X104350000Y-84600000D01*
X104350000Y-85350000D01*
X104149728Y-85350000D01*
X104050272Y-85350000D01*
X103958386Y-85388060D01*
X103888060Y-85458386D01*
X103850000Y-85550272D01*
X100400000Y-85550272D01*
X100400000Y-85052155D01*
X103100000Y-85052155D01*
X103100000Y-85350000D01*
X103850000Y-85350000D01*
X103850000Y-84600000D01*
X103552155Y-84600000D01*
X103492627Y-84606401D01*
X103492620Y-84606403D01*
X103357913Y-84656645D01*
X103357906Y-84656649D01*
X103242812Y-84742809D01*
X103242809Y-84742812D01*
X103156649Y-84857906D01*
X103156645Y-84857913D01*
X103106403Y-84992620D01*
X103106401Y-84992627D01*
X103100000Y-85052155D01*
X100400000Y-85052155D01*
X100400000Y-84224000D01*
X100419685Y-84156961D01*
X100472489Y-84111206D01*
X100524000Y-84100000D01*
X109376000Y-84100000D01*
X109443039Y-84119685D01*
G37*
%TD.AperFunction*%
%TD*%
%TA.AperFunction,Conductor*%
%TO.N,GND*%
G36*
X100043482Y-87984714D02*
G01*
X100095708Y-88021080D01*
X100106565Y-88033891D01*
X100136127Y-88060081D01*
X100136130Y-88060083D01*
X100173257Y-88119273D01*
X100172489Y-88189138D01*
X100171610Y-88191901D01*
X100145001Y-88272204D01*
X100145000Y-88272209D01*
X100134500Y-88374983D01*
X100134500Y-89150001D01*
X100134501Y-89150019D01*
X100145000Y-89252796D01*
X100145001Y-89252799D01*
X100181736Y-89363655D01*
X100200186Y-89419334D01*
X100292288Y-89568656D01*
X100416344Y-89692712D01*
X100419628Y-89694737D01*
X100419653Y-89694753D01*
X100421445Y-89696746D01*
X100422011Y-89697193D01*
X100421934Y-89697289D01*
X100466379Y-89746699D01*
X100477603Y-89815661D01*
X100449761Y-89879744D01*
X100419665Y-89905826D01*
X100416660Y-89907679D01*
X100416655Y-89907683D01*
X100292684Y-90031654D01*
X100200643Y-90180875D01*
X100200641Y-90180880D01*
X100145494Y-90347302D01*
X100145493Y-90347309D01*
X100135000Y-90450013D01*
X100135000Y-90587500D01*
X102584999Y-90587500D01*
X102584999Y-90450028D01*
X102584998Y-90450013D01*
X102574505Y-90347302D01*
X102519358Y-90180880D01*
X102519356Y-90180875D01*
X102427315Y-90031654D01*
X102363879Y-89968218D01*
X102330394Y-89906895D01*
X102335378Y-89837203D01*
X102377250Y-89781270D01*
X102442714Y-89756853D01*
X102493270Y-89764122D01*
X102493280Y-89764090D01*
X102493505Y-89764156D01*
X102494895Y-89764356D01*
X102497520Y-89765334D01*
X102497528Y-89765338D01*
X102564567Y-89785023D01*
X102564571Y-89785024D01*
X102706987Y-89805500D01*
X102975500Y-89805500D01*
X103042539Y-89825185D01*
X103088294Y-89877989D01*
X103099500Y-89929500D01*
X103099500Y-90947870D01*
X103099501Y-90947876D01*
X103105908Y-91007483D01*
X103156202Y-91142328D01*
X103156206Y-91142335D01*
X103242452Y-91257544D01*
X103242453Y-91257544D01*
X103242454Y-91257546D01*
X103251872Y-91264596D01*
X103300145Y-91300734D01*
X103342015Y-91356668D01*
X103346999Y-91426360D01*
X103313513Y-91487683D01*
X103300145Y-91499266D01*
X103242452Y-91542455D01*
X103156206Y-91657664D01*
X103156202Y-91657671D01*
X103105908Y-91792517D01*
X103104807Y-91802763D01*
X103099501Y-91852123D01*
X103099500Y-91852135D01*
X103099500Y-92208328D01*
X103079815Y-92275367D01*
X103027011Y-92321122D01*
X102957853Y-92331066D01*
X102894297Y-92302041D01*
X102893317Y-92301183D01*
X102833444Y-92248140D01*
X102800849Y-92219263D01*
X102650226Y-92140210D01*
X102485056Y-92099500D01*
X102314944Y-92099500D01*
X102142492Y-92142005D01*
X102141854Y-92139417D01*
X102084745Y-92143811D01*
X102047330Y-92129237D01*
X102027770Y-92117669D01*
X101980089Y-92066599D01*
X101967587Y-91997857D01*
X101994234Y-91933269D01*
X102051571Y-91893340D01*
X102051892Y-91893233D01*
X102154117Y-91859359D01*
X102154124Y-91859356D01*
X102303345Y-91767315D01*
X102427315Y-91643345D01*
X102519356Y-91494124D01*
X102519358Y-91494119D01*
X102574505Y-91327697D01*
X102574506Y-91327690D01*
X102584999Y-91224986D01*
X102585000Y-91224973D01*
X102585000Y-91087500D01*
X100135001Y-91087500D01*
X100135001Y-91224986D01*
X100145494Y-91327697D01*
X100200641Y-91494119D01*
X100200643Y-91494124D01*
X100292684Y-91643345D01*
X100416656Y-91767317D01*
X100471830Y-91801348D01*
X100518555Y-91853295D01*
X100529778Y-91922258D01*
X100501935Y-91986340D01*
X100443866Y-92025197D01*
X100441330Y-92025963D01*
X100364605Y-92048254D01*
X100364603Y-92048255D01*
X100223137Y-92131917D01*
X100223129Y-92131923D01*
X100106923Y-92248129D01*
X100106914Y-92248140D01*
X100106729Y-92248455D01*
X100106519Y-92248650D01*
X100102139Y-92254298D01*
X100101227Y-92253591D01*
X100055657Y-92296136D01*
X99986915Y-92308637D01*
X99922327Y-92281988D01*
X99898143Y-92254078D01*
X99897861Y-92254298D01*
X99893823Y-92249092D01*
X99893271Y-92248455D01*
X99893085Y-92248140D01*
X99893076Y-92248129D01*
X99776870Y-92131923D01*
X99776862Y-92131917D01*
X99635396Y-92048255D01*
X99635395Y-92048254D01*
X99558669Y-92025963D01*
X99499784Y-91988356D01*
X99470578Y-91924883D01*
X99480324Y-91855697D01*
X99525929Y-91802763D01*
X99528170Y-91801347D01*
X99583345Y-91767315D01*
X99707315Y-91643345D01*
X99799356Y-91494124D01*
X99799358Y-91494119D01*
X99854505Y-91327697D01*
X99854506Y-91327690D01*
X99864999Y-91224986D01*
X99865000Y-91224973D01*
X99865000Y-91087500D01*
X97415001Y-91087500D01*
X97415001Y-91224986D01*
X97425494Y-91327697D01*
X97480641Y-91494119D01*
X97480643Y-91494124D01*
X97572684Y-91643345D01*
X97696654Y-91767315D01*
X97845875Y-91859356D01*
X97845882Y-91859359D01*
X97948108Y-91893233D01*
X98005553Y-91933005D01*
X98032377Y-91997521D01*
X98020062Y-92066297D01*
X97972520Y-92117497D01*
X97972226Y-92117671D01*
X97952669Y-92129237D01*
X97884945Y-92146420D01*
X97857776Y-92140917D01*
X97857508Y-92142005D01*
X97685056Y-92099500D01*
X97514944Y-92099500D01*
X97349773Y-92140210D01*
X97199150Y-92219264D01*
X97106726Y-92301144D01*
X97043492Y-92330865D01*
X96974229Y-92321681D01*
X96920926Y-92276508D01*
X96900506Y-92209689D01*
X96900499Y-92208328D01*
X96900499Y-91852129D01*
X96900498Y-91852123D01*
X96900497Y-91852116D01*
X96894091Y-91792517D01*
X96884691Y-91767315D01*
X96843797Y-91657671D01*
X96843793Y-91657664D01*
X96757547Y-91542456D01*
X96757548Y-91542456D01*
X96757546Y-91542454D01*
X96699854Y-91499265D01*
X96657984Y-91443333D01*
X96653000Y-91373641D01*
X96686485Y-91312318D01*
X96699854Y-91300734D01*
X96757546Y-91257546D01*
X96843796Y-91142331D01*
X96894091Y-91007483D01*
X96900500Y-90947873D01*
X96900499Y-89929499D01*
X96920183Y-89862461D01*
X96972987Y-89816706D01*
X97024499Y-89805500D01*
X97293020Y-89805500D01*
X97381310Y-89793727D01*
X97425459Y-89787841D01*
X97488168Y-89770816D01*
X97501355Y-89765276D01*
X97570783Y-89757462D01*
X97633418Y-89788424D01*
X97669370Y-89848335D01*
X97667224Y-89918171D01*
X97637058Y-89967281D01*
X97572682Y-90031657D01*
X97480643Y-90180875D01*
X97480641Y-90180880D01*
X97425494Y-90347302D01*
X97425493Y-90347309D01*
X97415000Y-90450013D01*
X97415000Y-90587500D01*
X99864999Y-90587500D01*
X99864999Y-90450028D01*
X99864998Y-90450013D01*
X99854505Y-90347302D01*
X99799358Y-90180880D01*
X99799356Y-90180875D01*
X99707315Y-90031654D01*
X99583344Y-89907683D01*
X99583341Y-89907681D01*
X99580339Y-89905829D01*
X99578713Y-89904021D01*
X99577677Y-89903202D01*
X99577817Y-89903024D01*
X99533617Y-89853880D01*
X99522397Y-89784917D01*
X99550243Y-89720836D01*
X99580344Y-89694754D01*
X99583656Y-89692712D01*
X99707712Y-89568656D01*
X99799814Y-89419334D01*
X99854999Y-89252797D01*
X99865500Y-89150009D01*
X99865499Y-88374992D01*
X99854999Y-88272203D01*
X99828388Y-88191900D01*
X99825987Y-88122074D01*
X99861718Y-88062032D01*
X99863807Y-88060137D01*
X99893435Y-88033890D01*
X99912711Y-88014293D01*
X99973752Y-87980306D01*
X100043482Y-87984714D01*
G37*
%TD.AperFunction*%
%TA.AperFunction,Conductor*%
G36*
X112442539Y-82520185D02*
G01*
X112488294Y-82572989D01*
X112499500Y-82624500D01*
X112499500Y-99375500D01*
X112479815Y-99442539D01*
X112427011Y-99488294D01*
X112375500Y-99499500D01*
X87624500Y-99499500D01*
X87557461Y-99479815D01*
X87511706Y-99427011D01*
X87500500Y-99375500D01*
X87500500Y-84224000D01*
X89994500Y-84224000D01*
X89994500Y-85664500D01*
X89994500Y-87076000D01*
X89994501Y-87076009D01*
X90006052Y-87183450D01*
X90006054Y-87183462D01*
X90017260Y-87234972D01*
X90051383Y-87337497D01*
X90051386Y-87337503D01*
X90129171Y-87458537D01*
X90129179Y-87458548D01*
X90174923Y-87511340D01*
X90174926Y-87511343D01*
X90174930Y-87511347D01*
X90283664Y-87605567D01*
X90283667Y-87605568D01*
X90283668Y-87605569D01*
X90400614Y-87658978D01*
X90414541Y-87665338D01*
X90481580Y-87685023D01*
X90481584Y-87685024D01*
X90624000Y-87705500D01*
X90624003Y-87705500D01*
X90905990Y-87705500D01*
X90906000Y-87705500D01*
X91013456Y-87693947D01*
X91064967Y-87682741D01*
X91128866Y-87661472D01*
X91198689Y-87658978D01*
X91242336Y-87679860D01*
X91287668Y-87713795D01*
X91287671Y-87713797D01*
X91419081Y-87762810D01*
X91475015Y-87804681D01*
X91499432Y-87870145D01*
X91484580Y-87938418D01*
X91463430Y-87966673D01*
X91341503Y-88088600D01*
X91205965Y-88282169D01*
X91205964Y-88282171D01*
X91106098Y-88496335D01*
X91106094Y-88496344D01*
X91044938Y-88724586D01*
X91044936Y-88724596D01*
X91024341Y-88959999D01*
X91024341Y-88960000D01*
X91044936Y-89195403D01*
X91044938Y-89195413D01*
X91106094Y-89423655D01*
X91106096Y-89423659D01*
X91106097Y-89423663D01*
X91177988Y-89577834D01*
X91205965Y-89637830D01*
X91205967Y-89637834D01*
X91309031Y-89785023D01*
X91331215Y-89816706D01*
X91341501Y-89831395D01*
X91341506Y-89831402D01*
X91508597Y-89998493D01*
X91508603Y-89998498D01*
X91694158Y-90128425D01*
X91737783Y-90183002D01*
X91744977Y-90252500D01*
X91713454Y-90314855D01*
X91694158Y-90331575D01*
X91508597Y-90461505D01*
X91341505Y-90628597D01*
X91205965Y-90822169D01*
X91205964Y-90822171D01*
X91106098Y-91036335D01*
X91106094Y-91036344D01*
X91044938Y-91264586D01*
X91044936Y-91264596D01*
X91024341Y-91499999D01*
X91024341Y-91500000D01*
X91044936Y-91735403D01*
X91044938Y-91735413D01*
X91106094Y-91963655D01*
X91106096Y-91963659D01*
X91106097Y-91963663D01*
X91205965Y-92177830D01*
X91205967Y-92177834D01*
X91341501Y-92371395D01*
X91341506Y-92371402D01*
X91508597Y-92538493D01*
X91508603Y-92538498D01*
X91694158Y-92668425D01*
X91737783Y-92723002D01*
X91744977Y-92792500D01*
X91713454Y-92854855D01*
X91694158Y-92871575D01*
X91508597Y-93001505D01*
X91341505Y-93168597D01*
X91205965Y-93362169D01*
X91205964Y-93362171D01*
X91106098Y-93576335D01*
X91106094Y-93576344D01*
X91044938Y-93804586D01*
X91044936Y-93804596D01*
X91024341Y-94039999D01*
X91024341Y-94040000D01*
X91044936Y-94275403D01*
X91044938Y-94275413D01*
X91106094Y-94503655D01*
X91106096Y-94503659D01*
X91106097Y-94503663D01*
X91177988Y-94657834D01*
X91205965Y-94717830D01*
X91205967Y-94717834D01*
X91299493Y-94851402D01*
X91341505Y-94911401D01*
X91508599Y-95078495D01*
X91689662Y-95205277D01*
X91694594Y-95208730D01*
X91738219Y-95263307D01*
X91745413Y-95332805D01*
X91713890Y-95395160D01*
X91694595Y-95411880D01*
X91508922Y-95541890D01*
X91508920Y-95541891D01*
X91341891Y-95708920D01*
X91341886Y-95708926D01*
X91206400Y-95902420D01*
X91206399Y-95902422D01*
X91106570Y-96116507D01*
X91106567Y-96116513D01*
X91049364Y-96329999D01*
X91049364Y-96330000D01*
X91946988Y-96330000D01*
X91914075Y-96387007D01*
X91880000Y-96514174D01*
X91880000Y-96645826D01*
X91914075Y-96772993D01*
X91946988Y-96830000D01*
X91049364Y-96830000D01*
X91106567Y-97043486D01*
X91106570Y-97043492D01*
X91206399Y-97257578D01*
X91341894Y-97451082D01*
X91508917Y-97618105D01*
X91702421Y-97753600D01*
X91916507Y-97853429D01*
X91916516Y-97853433D01*
X92130000Y-97910634D01*
X92130000Y-97013012D01*
X92187007Y-97045925D01*
X92314174Y-97080000D01*
X92445826Y-97080000D01*
X92572993Y-97045925D01*
X92630000Y-97013012D01*
X92630000Y-97910633D01*
X92843483Y-97853433D01*
X92843492Y-97853429D01*
X93057578Y-97753600D01*
X93065798Y-97747844D01*
X94900000Y-97747844D01*
X94906401Y-97807372D01*
X94906403Y-97807379D01*
X94956645Y-97942086D01*
X94956649Y-97942093D01*
X95042809Y-98057187D01*
X95042812Y-98057190D01*
X95157906Y-98143350D01*
X95157913Y-98143354D01*
X95292620Y-98193596D01*
X95292627Y-98193598D01*
X95352155Y-98199999D01*
X95352172Y-98200000D01*
X95650000Y-98200000D01*
X96150000Y-98200000D01*
X96447828Y-98200000D01*
X96447844Y-98199999D01*
X96507372Y-98193598D01*
X96507379Y-98193596D01*
X96642086Y-98143354D01*
X96642093Y-98143350D01*
X96757187Y-98057190D01*
X96757190Y-98057187D01*
X96843350Y-97942093D01*
X96843354Y-97942086D01*
X96878504Y-97847844D01*
X103100000Y-97847844D01*
X103106401Y-97907372D01*
X103106403Y-97907379D01*
X103156645Y-98042086D01*
X103156649Y-98042093D01*
X103242809Y-98157187D01*
X103242812Y-98157190D01*
X103357906Y-98243350D01*
X103357913Y-98243354D01*
X103492620Y-98293596D01*
X103492627Y-98293598D01*
X103552155Y-98299999D01*
X103552172Y-98300000D01*
X103850000Y-98300000D01*
X104350000Y-98300000D01*
X104647828Y-98300000D01*
X104647844Y-98299999D01*
X104707372Y-98293598D01*
X104707379Y-98293596D01*
X104842086Y-98243354D01*
X104842093Y-98243350D01*
X104957187Y-98157190D01*
X104957190Y-98157187D01*
X105043350Y-98042093D01*
X105043354Y-98042086D01*
X105093596Y-97907379D01*
X105093598Y-97907372D01*
X105099999Y-97847844D01*
X105100000Y-97847827D01*
X105100000Y-97550000D01*
X104350000Y-97550000D01*
X104350000Y-98300000D01*
X103850000Y-98300000D01*
X103850000Y-97550000D01*
X103100000Y-97550000D01*
X103100000Y-97847844D01*
X96878504Y-97847844D01*
X96893596Y-97807379D01*
X96893598Y-97807372D01*
X96899999Y-97747844D01*
X96900000Y-97747827D01*
X96900000Y-97450000D01*
X96150000Y-97450000D01*
X96150000Y-98200000D01*
X95650000Y-98200000D01*
X95650000Y-97450000D01*
X94900000Y-97450000D01*
X94900000Y-97747844D01*
X93065798Y-97747844D01*
X93251082Y-97618105D01*
X93418105Y-97451082D01*
X93553600Y-97257578D01*
X93603637Y-97150272D01*
X95650000Y-97150272D01*
X95650000Y-97249728D01*
X95688060Y-97341614D01*
X95758386Y-97411940D01*
X95850272Y-97450000D01*
X95949728Y-97450000D01*
X96041614Y-97411940D01*
X96111940Y-97341614D01*
X96149775Y-97250272D01*
X103850000Y-97250272D01*
X103850000Y-97349728D01*
X103888060Y-97441614D01*
X103958386Y-97511940D01*
X104050272Y-97550000D01*
X104149728Y-97550000D01*
X104241614Y-97511940D01*
X104311940Y-97441614D01*
X104350000Y-97349728D01*
X104350000Y-97250272D01*
X104311940Y-97158386D01*
X104241614Y-97088060D01*
X104149728Y-97050000D01*
X104350000Y-97050000D01*
X105100000Y-97050000D01*
X105100000Y-96752172D01*
X105099999Y-96752155D01*
X105093598Y-96692627D01*
X105093596Y-96692620D01*
X105043354Y-96557913D01*
X105043350Y-96557906D01*
X104957190Y-96442812D01*
X104957187Y-96442809D01*
X104842093Y-96356649D01*
X104842086Y-96356645D01*
X104707379Y-96306403D01*
X104707372Y-96306401D01*
X104647844Y-96300000D01*
X104350000Y-96300000D01*
X104350000Y-97050000D01*
X104149728Y-97050000D01*
X104050272Y-97050000D01*
X103958386Y-97088060D01*
X103888060Y-97158386D01*
X103850000Y-97250272D01*
X96149775Y-97250272D01*
X96150000Y-97249728D01*
X96150000Y-97150272D01*
X96111940Y-97058386D01*
X96041614Y-96988060D01*
X95949728Y-96950000D01*
X96150000Y-96950000D01*
X96900000Y-96950000D01*
X96900000Y-96752155D01*
X103100000Y-96752155D01*
X103100000Y-97050000D01*
X103850000Y-97050000D01*
X103850000Y-96300000D01*
X103552155Y-96300000D01*
X103492627Y-96306401D01*
X103492620Y-96306403D01*
X103357913Y-96356645D01*
X103357906Y-96356649D01*
X103242812Y-96442809D01*
X103242809Y-96442812D01*
X103156649Y-96557906D01*
X103156645Y-96557913D01*
X103106403Y-96692620D01*
X103106401Y-96692627D01*
X103100000Y-96752155D01*
X96900000Y-96752155D01*
X96900000Y-96652172D01*
X96899999Y-96652155D01*
X96893598Y-96592627D01*
X96893596Y-96592620D01*
X96843354Y-96457913D01*
X96843350Y-96457906D01*
X96757190Y-96342812D01*
X96757187Y-96342809D01*
X96642093Y-96256649D01*
X96642086Y-96256645D01*
X96507379Y-96206403D01*
X96507372Y-96206401D01*
X96447844Y-96200000D01*
X96150000Y-96200000D01*
X96150000Y-96950000D01*
X95949728Y-96950000D01*
X95850272Y-96950000D01*
X95758386Y-96988060D01*
X95688060Y-97058386D01*
X95650000Y-97150272D01*
X93603637Y-97150272D01*
X93653429Y-97043492D01*
X93653432Y-97043486D01*
X93710636Y-96830000D01*
X92813012Y-96830000D01*
X92845925Y-96772993D01*
X92878304Y-96652155D01*
X94900000Y-96652155D01*
X94900000Y-96950000D01*
X95650000Y-96950000D01*
X95650000Y-96200000D01*
X95352155Y-96200000D01*
X95292627Y-96206401D01*
X95292620Y-96206403D01*
X95157913Y-96256645D01*
X95157906Y-96256649D01*
X95042812Y-96342809D01*
X95042809Y-96342812D01*
X94956649Y-96457906D01*
X94956645Y-96457913D01*
X94906403Y-96592620D01*
X94906401Y-96592627D01*
X94900000Y-96652155D01*
X92878304Y-96652155D01*
X92880000Y-96645826D01*
X92880000Y-96514174D01*
X92845925Y-96387007D01*
X92813012Y-96330000D01*
X93710636Y-96330000D01*
X93710635Y-96329999D01*
X93653432Y-96116513D01*
X93653429Y-96116507D01*
X93553600Y-95902422D01*
X93553599Y-95902420D01*
X93418113Y-95708926D01*
X93418108Y-95708920D01*
X93251078Y-95541890D01*
X93065405Y-95411879D01*
X93021780Y-95357302D01*
X93014588Y-95287804D01*
X93046110Y-95225449D01*
X93065406Y-95208730D01*
X93251401Y-95078495D01*
X93418495Y-94911401D01*
X93536147Y-94743377D01*
X93590724Y-94699752D01*
X93637722Y-94690500D01*
X93719192Y-94690500D01*
X93786231Y-94710185D01*
X93806873Y-94726819D01*
X93985325Y-94905272D01*
X93985332Y-94905278D01*
X94056110Y-94952570D01*
X94056111Y-94952570D01*
X94091866Y-94976461D01*
X94091872Y-94976464D01*
X94091873Y-94976465D01*
X94210256Y-95025501D01*
X94210260Y-95025501D01*
X94210261Y-95025502D01*
X94335928Y-95050500D01*
X94335931Y-95050500D01*
X94835859Y-95050500D01*
X94902898Y-95070185D01*
X94948653Y-95122989D01*
X94952030Y-95131140D01*
X94956204Y-95142331D01*
X94956205Y-95142332D01*
X94956206Y-95142335D01*
X95042452Y-95257544D01*
X95042455Y-95257547D01*
X95157664Y-95343793D01*
X95157671Y-95343797D01*
X95292517Y-95394091D01*
X95292516Y-95394091D01*
X95299444Y-95394835D01*
X95352127Y-95400500D01*
X96447872Y-95400499D01*
X96507483Y-95394091D01*
X96642331Y-95343796D01*
X96757546Y-95257546D01*
X96791681Y-95211946D01*
X96847614Y-95170075D01*
X96917306Y-95165091D01*
X96978629Y-95198576D01*
X96985326Y-95205273D01*
X96985329Y-95205275D01*
X96985331Y-95205277D01*
X97091873Y-95276465D01*
X97210256Y-95325501D01*
X97210260Y-95325501D01*
X97210261Y-95325502D01*
X97335928Y-95350500D01*
X97335931Y-95350500D01*
X97884484Y-95350500D01*
X97947605Y-95367768D01*
X97993923Y-95395160D01*
X98089602Y-95451744D01*
X98131224Y-95463836D01*
X98247426Y-95497597D01*
X98247429Y-95497597D01*
X98247431Y-95497598D01*
X98284306Y-95500500D01*
X98284314Y-95500500D01*
X99440686Y-95500500D01*
X99440694Y-95500500D01*
X99477569Y-95497598D01*
X99477571Y-95497597D01*
X99477573Y-95497597D01*
X99531636Y-95481890D01*
X99635398Y-95451744D01*
X99776865Y-95368081D01*
X99893081Y-95251865D01*
X99893267Y-95251549D01*
X99893477Y-95251353D01*
X99897861Y-95245702D01*
X99898772Y-95246409D01*
X99944336Y-95203866D01*
X100013077Y-95191362D01*
X100077667Y-95218006D01*
X100101855Y-95245921D01*
X100102139Y-95245702D01*
X100106179Y-95250911D01*
X100106732Y-95251548D01*
X100106919Y-95251865D01*
X100106921Y-95251867D01*
X100106923Y-95251870D01*
X100223129Y-95368076D01*
X100223133Y-95368079D01*
X100223135Y-95368081D01*
X100364602Y-95451744D01*
X100406224Y-95463836D01*
X100522426Y-95497597D01*
X100522429Y-95497597D01*
X100522431Y-95497598D01*
X100559306Y-95500500D01*
X100559314Y-95500500D01*
X101715686Y-95500500D01*
X101715694Y-95500500D01*
X101752569Y-95497598D01*
X101752571Y-95497597D01*
X101752573Y-95497597D01*
X101806636Y-95481890D01*
X101910398Y-95451744D01*
X102013905Y-95390529D01*
X102052395Y-95367768D01*
X102115516Y-95350500D01*
X102764071Y-95350500D01*
X102853025Y-95332805D01*
X102889744Y-95325501D01*
X103008127Y-95276465D01*
X103008127Y-95276464D01*
X103008129Y-95276464D01*
X103076043Y-95231086D01*
X103142720Y-95210208D01*
X103210100Y-95228693D01*
X103235518Y-95251939D01*
X103236183Y-95251275D01*
X103242455Y-95257547D01*
X103357664Y-95343793D01*
X103357671Y-95343797D01*
X103492517Y-95394091D01*
X103492516Y-95394091D01*
X103499444Y-95394835D01*
X103552127Y-95400500D01*
X104647872Y-95400499D01*
X104707483Y-95394091D01*
X104842331Y-95343796D01*
X104957546Y-95257546D01*
X105043796Y-95142331D01*
X105047960Y-95131165D01*
X105089829Y-95075234D01*
X105155293Y-95050816D01*
X105164141Y-95050500D01*
X105564071Y-95050500D01*
X105665362Y-95030351D01*
X105689744Y-95025501D01*
X105808127Y-94976465D01*
X105843889Y-94952570D01*
X105843890Y-94952570D01*
X105905502Y-94911402D01*
X105914669Y-94905277D01*
X106153127Y-94666819D01*
X106214450Y-94633334D01*
X106240808Y-94630500D01*
X106362278Y-94630500D01*
X106429317Y-94650185D01*
X106463853Y-94683377D01*
X106581501Y-94851396D01*
X106581506Y-94851402D01*
X106748597Y-95018493D01*
X106748603Y-95018498D01*
X106934594Y-95148730D01*
X106978219Y-95203307D01*
X106985413Y-95272805D01*
X106953890Y-95335160D01*
X106934595Y-95351880D01*
X106748922Y-95481890D01*
X106748920Y-95481891D01*
X106581891Y-95648920D01*
X106581886Y-95648926D01*
X106446400Y-95842420D01*
X106446399Y-95842422D01*
X106346570Y-96056507D01*
X106346567Y-96056513D01*
X106289364Y-96269999D01*
X106289364Y-96270000D01*
X107186988Y-96270000D01*
X107154075Y-96327007D01*
X107120000Y-96454174D01*
X107120000Y-96585826D01*
X107154075Y-96712993D01*
X107186988Y-96770000D01*
X106289364Y-96770000D01*
X106346567Y-96983486D01*
X106346570Y-96983492D01*
X106446399Y-97197578D01*
X106581894Y-97391082D01*
X106748917Y-97558105D01*
X106942421Y-97693600D01*
X107156507Y-97793429D01*
X107156516Y-97793433D01*
X107370000Y-97850634D01*
X107370000Y-96953012D01*
X107427007Y-96985925D01*
X107554174Y-97020000D01*
X107685826Y-97020000D01*
X107812993Y-96985925D01*
X107870000Y-96953012D01*
X107870000Y-97850633D01*
X108083483Y-97793433D01*
X108083492Y-97793429D01*
X108297578Y-97693600D01*
X108491082Y-97558105D01*
X108658105Y-97391082D01*
X108793600Y-97197578D01*
X108893429Y-96983492D01*
X108893432Y-96983486D01*
X108950636Y-96770000D01*
X108053012Y-96770000D01*
X108085925Y-96712993D01*
X108120000Y-96585826D01*
X108120000Y-96454174D01*
X108085925Y-96327007D01*
X108053012Y-96270000D01*
X108950636Y-96270000D01*
X108950635Y-96269999D01*
X108893432Y-96056513D01*
X108893429Y-96056507D01*
X108793600Y-95842422D01*
X108793599Y-95842420D01*
X108658113Y-95648926D01*
X108658108Y-95648920D01*
X108491078Y-95481890D01*
X108305405Y-95351879D01*
X108261780Y-95297302D01*
X108254588Y-95227804D01*
X108286110Y-95165449D01*
X108305406Y-95148730D01*
X108396292Y-95085091D01*
X108491401Y-95018495D01*
X108658495Y-94851401D01*
X108794035Y-94657830D01*
X108893903Y-94443663D01*
X108955063Y-94215408D01*
X108975659Y-93980000D01*
X108955063Y-93744592D01*
X108908626Y-93571285D01*
X108893905Y-93516344D01*
X108893904Y-93516343D01*
X108893903Y-93516337D01*
X108794035Y-93302171D01*
X108793029Y-93300733D01*
X108658494Y-93108597D01*
X108491402Y-92941506D01*
X108491396Y-92941501D01*
X108305842Y-92811575D01*
X108262217Y-92756998D01*
X108255023Y-92687500D01*
X108286546Y-92625145D01*
X108305842Y-92608425D01*
X108414462Y-92532368D01*
X108491401Y-92478495D01*
X108658495Y-92311401D01*
X108794035Y-92117830D01*
X108893903Y-91903663D01*
X108955063Y-91675408D01*
X108975659Y-91440000D01*
X108955063Y-91204592D01*
X108893903Y-90976337D01*
X108794035Y-90762171D01*
X108700508Y-90628599D01*
X108658494Y-90568597D01*
X108491402Y-90401506D01*
X108491396Y-90401501D01*
X108305842Y-90271575D01*
X108262217Y-90216998D01*
X108255023Y-90147500D01*
X108286546Y-90085145D01*
X108305842Y-90068425D01*
X108450290Y-89967281D01*
X108491401Y-89938495D01*
X108658495Y-89771401D01*
X108794035Y-89577830D01*
X108893903Y-89363663D01*
X108955063Y-89135408D01*
X108975659Y-88900000D01*
X108955063Y-88664592D01*
X108893903Y-88436337D01*
X108794035Y-88222171D01*
X108772841Y-88191903D01*
X108658496Y-88028600D01*
X108610202Y-87980306D01*
X108536567Y-87906671D01*
X108503084Y-87845351D01*
X108508068Y-87775659D01*
X108549939Y-87719725D01*
X108580915Y-87702810D01*
X108664816Y-87671518D01*
X108712329Y-87653797D01*
X108720112Y-87649547D01*
X108721274Y-87651675D01*
X108774547Y-87631793D01*
X108834929Y-87642680D01*
X108884541Y-87665338D01*
X108951580Y-87685023D01*
X108951584Y-87685024D01*
X109094000Y-87705500D01*
X109094003Y-87705500D01*
X109375990Y-87705500D01*
X109376000Y-87705500D01*
X109483456Y-87693947D01*
X109534967Y-87682741D01*
X109569197Y-87671347D01*
X109637497Y-87648616D01*
X109637501Y-87648613D01*
X109637504Y-87648613D01*
X109758543Y-87570825D01*
X109811347Y-87525070D01*
X109905567Y-87416336D01*
X109965338Y-87285459D01*
X109985023Y-87218420D01*
X109985024Y-87218416D01*
X110005500Y-87076000D01*
X110005500Y-84224000D01*
X109993947Y-84116544D01*
X109982741Y-84065033D01*
X109982637Y-84064722D01*
X109948616Y-83962502D01*
X109948613Y-83962496D01*
X109870828Y-83841462D01*
X109870825Y-83841457D01*
X109843637Y-83810080D01*
X109825076Y-83788659D01*
X109825072Y-83788656D01*
X109825070Y-83788653D01*
X109716336Y-83694433D01*
X109716333Y-83694431D01*
X109716331Y-83694430D01*
X109585465Y-83634664D01*
X109585460Y-83634662D01*
X109585459Y-83634662D01*
X109518420Y-83614977D01*
X109518422Y-83614977D01*
X109518417Y-83614976D01*
X109456347Y-83606052D01*
X109376000Y-83594500D01*
X100524000Y-83594500D01*
X100523991Y-83594500D01*
X100523990Y-83594501D01*
X100416549Y-83606052D01*
X100416537Y-83606054D01*
X100365027Y-83617260D01*
X100262502Y-83651383D01*
X100262496Y-83651386D01*
X100141462Y-83729171D01*
X100141458Y-83729173D01*
X100088645Y-83774936D01*
X100086974Y-83776608D01*
X100086280Y-83776986D01*
X100085307Y-83777830D01*
X100085123Y-83777618D01*
X100025644Y-83810080D01*
X99955953Y-83805081D01*
X99918109Y-83782621D01*
X99816336Y-83694433D01*
X99816333Y-83694431D01*
X99816331Y-83694430D01*
X99685465Y-83634664D01*
X99685460Y-83634662D01*
X99685459Y-83634662D01*
X99618420Y-83614977D01*
X99618422Y-83614977D01*
X99618417Y-83614976D01*
X99556347Y-83606052D01*
X99476000Y-83594500D01*
X90624000Y-83594500D01*
X90623991Y-83594500D01*
X90623990Y-83594501D01*
X90516549Y-83606052D01*
X90516537Y-83606054D01*
X90465027Y-83617260D01*
X90362502Y-83651383D01*
X90362496Y-83651386D01*
X90241462Y-83729171D01*
X90241451Y-83729179D01*
X90188659Y-83774923D01*
X90094433Y-83883664D01*
X90094430Y-83883668D01*
X90034664Y-84014534D01*
X90014976Y-84081582D01*
X90009949Y-84116549D01*
X89994500Y-84224000D01*
X87500500Y-84224000D01*
X87500500Y-82624500D01*
X87520185Y-82557461D01*
X87572989Y-82511706D01*
X87624500Y-82500500D01*
X112375500Y-82500500D01*
X112442539Y-82520185D01*
G37*
%TD.AperFunction*%
%TD*%
D21*
X110000000Y-83000000D03*
X106000000Y-99000000D03*
X88000000Y-85000000D03*
X88000000Y-87000000D03*
X88000000Y-89000000D03*
X88000000Y-91000000D03*
X88000000Y-93000000D03*
X88000000Y-95000000D03*
X88000000Y-97000000D03*
X88000000Y-99000000D03*
X90000000Y-99000000D03*
X92000000Y-99000000D03*
X94000000Y-99000000D03*
X96000000Y-99000000D03*
X98000000Y-99000000D03*
X100000000Y-99000000D03*
X102000000Y-99000000D03*
X104000000Y-99000000D03*
X108000000Y-99000000D03*
X110000000Y-99000000D03*
X112000000Y-99000000D03*
X112000000Y-97000000D03*
X112000000Y-95000000D03*
X112000000Y-93000000D03*
X112000000Y-91000000D03*
X112000000Y-89000000D03*
X112000000Y-87000000D03*
X112000000Y-85000000D03*
X112000000Y-83000000D03*
X108000000Y-83000000D03*
X106000000Y-83000000D03*
X104000000Y-83000000D03*
X102000000Y-83000000D03*
X100000000Y-83000000D03*
X98000000Y-83000000D03*
X96000000Y-83000000D03*
X94000000Y-83000000D03*
X92000000Y-83000000D03*
X90000000Y-83000000D03*
X88000000Y-83000000D03*
D22*
X102500000Y-90840380D03*
X100000000Y-88200000D03*
X97562500Y-90837500D03*
X100000000Y-91800000D03*
X97200000Y-90100000D03*
X102800000Y-90100000D03*
X97600000Y-92800000D03*
X102400000Y-92800000D03*
D23*
X95900000Y-90400000D03*
X95900000Y-87600000D03*
X104100000Y-87600000D03*
X104100000Y-85600000D03*
X95900000Y-94400000D03*
X104100000Y-94400000D03*
X104100000Y-90400000D03*
X95900000Y-97200000D03*
X104100000Y-92400000D03*
X107620000Y-96520000D03*
X107620000Y-93980000D03*
X107620000Y-91440000D03*
X107620000Y-88900000D03*
X107620000Y-86360000D03*
X104100000Y-97300000D03*
X95900000Y-92400000D03*
X92380000Y-96580000D03*
X92380000Y-94040000D03*
X92380000Y-91500000D03*
X92380000Y-88960000D03*
X92380000Y-86420000D03*
X95900000Y-85600000D03*
M02*
