%TF.GenerationSoftware,KiCad,Pcbnew,8.0.3*%
%TF.CreationDate,2024-08-04T06:55:43+12:00*%
%TF.ProjectId,sot23-6,736f7432-332d-4362-9e6b-696361645f70,rev?*%
%TF.SameCoordinates,Original*%
%TF.FileFunction,Legend,Bot*%
%TF.FilePolarity,Positive*%
%FSLAX46Y46*%
G04 Gerber Fmt 4.6, Leading zero omitted, Abs format (unit mm)*
G04 Created by KiCad (PCBNEW 8.0.3) date 2024-08-04 06:55:43*
%MOMM*%
%LPD*%
G01*
G04 APERTURE LIST*
%ADD10C,0.500000*%
%ADD11C,0.120000*%
%ADD12C,0.400000*%
%ADD13C,0.100000*%
%ADD14C,0.350000*%
G04 APERTURE END LIST*
D10*
X102231749Y-86528066D02*
X102898416Y-86528066D01*
X102898416Y-87575685D02*
X102898416Y-85575685D01*
X102898416Y-85575685D02*
X101946035Y-85575685D01*
X98098416Y-87575685D02*
X98098416Y-85575685D01*
X98098416Y-85575685D02*
X97622226Y-85575685D01*
X97622226Y-85575685D02*
X97336511Y-85670923D01*
X97336511Y-85670923D02*
X97146035Y-85861399D01*
X97146035Y-85861399D02*
X97050797Y-86051875D01*
X97050797Y-86051875D02*
X96955559Y-86432827D01*
X96955559Y-86432827D02*
X96955559Y-86718542D01*
X96955559Y-86718542D02*
X97050797Y-87099494D01*
X97050797Y-87099494D02*
X97146035Y-87289970D01*
X97146035Y-87289970D02*
X97336511Y-87480447D01*
X97336511Y-87480447D02*
X97622226Y-87575685D01*
X97622226Y-87575685D02*
X98098416Y-87575685D01*
D11*
%TO.C,J102*%
X106290000Y-87630000D02*
X108950000Y-87630000D01*
X106290000Y-97850000D02*
X106290000Y-87630000D01*
X106290000Y-97850000D02*
X108950000Y-97850000D01*
X107620000Y-85030000D02*
X108950000Y-85030000D01*
X108950000Y-85030000D02*
X108950000Y-86360000D01*
X108950000Y-97850000D02*
X108950000Y-87630000D01*
D12*
%TO.C,G\u002A\u002A\u002A*%
X97489340Y-83732233D02*
X98903554Y-85146447D01*
X97589340Y-89260661D02*
X99003554Y-87846447D01*
X102810661Y-83739340D02*
X101396447Y-85153554D01*
X102910661Y-89267768D02*
X101496447Y-87853554D01*
D13*
X98877258Y-85967241D02*
X99052347Y-85967241D01*
X99052347Y-85792042D01*
X98877258Y-85792042D01*
X98877258Y-85967241D01*
G36*
X98877258Y-85967241D02*
G01*
X99052347Y-85967241D01*
X99052347Y-85792042D01*
X98877258Y-85792042D01*
X98877258Y-85967241D01*
G37*
X98877258Y-86390240D02*
X99052347Y-86390240D01*
X99052347Y-86215041D01*
X98877258Y-86215041D01*
X98877258Y-86390240D01*
G36*
X98877258Y-86390240D02*
G01*
X99052347Y-86390240D01*
X99052347Y-86215041D01*
X98877258Y-86215041D01*
X98877258Y-86390240D01*
G37*
X98877258Y-86801026D02*
X99052347Y-86801026D01*
X99052347Y-86625827D01*
X98877258Y-86625827D01*
X98877258Y-86801026D01*
G36*
X98877258Y-86801026D02*
G01*
X99052347Y-86801026D01*
X99052347Y-86625827D01*
X98877258Y-86625827D01*
X98877258Y-86801026D01*
G37*
X98877258Y-87184379D02*
X99052347Y-87184379D01*
X99052347Y-87009180D01*
X98877258Y-87009180D01*
X98877258Y-87184379D01*
G36*
X98877258Y-87184379D02*
G01*
X99052347Y-87184379D01*
X99052347Y-87009180D01*
X98877258Y-87009180D01*
X98877258Y-87184379D01*
G37*
X99254975Y-87429393D02*
X101092701Y-87429393D01*
X101092701Y-85558850D01*
X99254975Y-85558850D01*
X99254975Y-87429393D01*
X99303554Y-86074749D02*
X100491998Y-86074749D01*
X100491998Y-85646447D01*
X99303554Y-85646447D01*
X99303554Y-86074749D01*
G36*
X99303554Y-86074749D02*
G01*
X100491998Y-86074749D01*
X100491998Y-85646447D01*
X99303554Y-85646447D01*
X99303554Y-86074749D01*
G37*
X99303554Y-87346447D02*
X101003554Y-87346447D01*
X101003554Y-86146447D01*
X99303554Y-86146447D01*
X99303554Y-87346447D01*
G36*
X99303554Y-87346447D02*
G01*
X101003554Y-87346447D01*
X101003554Y-86146447D01*
X99303554Y-86146447D01*
X99303554Y-87346447D01*
G37*
X99470984Y-85380515D02*
X99646183Y-85380515D01*
X99646183Y-85205426D01*
X99470984Y-85205426D01*
X99470984Y-85380515D01*
G36*
X99470984Y-85380515D02*
G01*
X99646183Y-85380515D01*
X99646183Y-85205426D01*
X99470984Y-85205426D01*
X99470984Y-85380515D01*
G37*
X99470984Y-87833991D02*
X99646183Y-87833991D01*
X99646183Y-87658902D01*
X99470984Y-87658902D01*
X99470984Y-87833991D01*
G36*
X99470984Y-87833991D02*
G01*
X99646183Y-87833991D01*
X99646183Y-87658902D01*
X99470984Y-87658902D01*
X99470984Y-87833991D01*
G37*
X99893983Y-85380515D02*
X100069182Y-85380515D01*
X100069182Y-85205426D01*
X99893983Y-85205426D01*
X99893983Y-85380515D01*
G36*
X99893983Y-85380515D02*
G01*
X100069182Y-85380515D01*
X100069182Y-85205426D01*
X99893983Y-85205426D01*
X99893983Y-85380515D01*
G37*
X99893983Y-87833991D02*
X100069182Y-87833991D01*
X100069182Y-87658902D01*
X99893983Y-87658902D01*
X99893983Y-87833991D01*
G36*
X99893983Y-87833991D02*
G01*
X100069182Y-87833991D01*
X100069182Y-87658902D01*
X99893983Y-87658902D01*
X99893983Y-87833991D01*
G37*
X100304769Y-85380515D02*
X100479968Y-85380515D01*
X100479968Y-85205426D01*
X100304769Y-85205426D01*
X100304769Y-85380515D01*
G36*
X100304769Y-85380515D02*
G01*
X100479968Y-85380515D01*
X100479968Y-85205426D01*
X100304769Y-85205426D01*
X100304769Y-85380515D01*
G37*
X100304769Y-87833991D02*
X100479968Y-87833991D01*
X100479968Y-87658902D01*
X100304769Y-87658902D01*
X100304769Y-87833991D01*
G36*
X100304769Y-87833991D02*
G01*
X100479968Y-87833991D01*
X100479968Y-87658902D01*
X100304769Y-87658902D01*
X100304769Y-87833991D01*
G37*
X100548603Y-85723568D02*
X101068656Y-85723568D01*
X101068656Y-85646447D01*
X100548603Y-85646447D01*
X100548603Y-85723568D01*
G36*
X100548603Y-85723568D02*
G01*
X101068656Y-85723568D01*
X101068656Y-85646447D01*
X100548603Y-85646447D01*
X100548603Y-85723568D01*
G37*
X100688122Y-85380515D02*
X100863321Y-85380515D01*
X100863321Y-85205426D01*
X100688122Y-85205426D01*
X100688122Y-85380515D01*
G36*
X100688122Y-85380515D02*
G01*
X100863321Y-85380515D01*
X100863321Y-85205426D01*
X100688122Y-85205426D01*
X100688122Y-85380515D01*
G37*
X100688122Y-87833991D02*
X100863321Y-87833991D01*
X100863321Y-87658902D01*
X100688122Y-87658902D01*
X100688122Y-87833991D01*
G36*
X100688122Y-87833991D02*
G01*
X100863321Y-87833991D01*
X100863321Y-87658902D01*
X100688122Y-87658902D01*
X100688122Y-87833991D01*
G37*
X100916531Y-86146447D02*
X101068656Y-86146447D01*
X101068656Y-85646447D01*
X100916531Y-85646447D01*
X100916531Y-86146447D01*
G36*
X100916531Y-86146447D02*
G01*
X101068656Y-86146447D01*
X101068656Y-85646447D01*
X100916531Y-85646447D01*
X100916531Y-86146447D01*
G37*
X101289600Y-85967241D02*
X101464689Y-85967241D01*
X101464689Y-85792042D01*
X101289600Y-85792042D01*
X101289600Y-85967241D01*
G36*
X101289600Y-85967241D02*
G01*
X101464689Y-85967241D01*
X101464689Y-85792042D01*
X101289600Y-85792042D01*
X101289600Y-85967241D01*
G37*
X101289600Y-86390240D02*
X101464689Y-86390240D01*
X101464689Y-86215041D01*
X101289600Y-86215041D01*
X101289600Y-86390240D01*
G36*
X101289600Y-86390240D02*
G01*
X101464689Y-86390240D01*
X101464689Y-86215041D01*
X101289600Y-86215041D01*
X101289600Y-86390240D01*
G37*
X101289600Y-86801026D02*
X101464689Y-86801026D01*
X101464689Y-86625827D01*
X101289600Y-86625827D01*
X101289600Y-86801026D01*
G36*
X101289600Y-86801026D02*
G01*
X101464689Y-86801026D01*
X101464689Y-86625827D01*
X101289600Y-86625827D01*
X101289600Y-86801026D01*
G37*
X101289600Y-87184379D02*
X101464689Y-87184379D01*
X101464689Y-87009180D01*
X101289600Y-87009180D01*
X101289600Y-87184379D01*
G36*
X101289600Y-87184379D02*
G01*
X101464689Y-87184379D01*
X101464689Y-87009180D01*
X101289600Y-87009180D01*
X101289600Y-87184379D01*
G37*
X100903554Y-85946447D02*
G75*
G02*
X100503554Y-85946447I-200000J0D01*
G01*
X100503554Y-85946447D02*
G75*
G02*
X100903554Y-85946447I200000J0D01*
G01*
D11*
%TO.C,J101*%
X91050000Y-87690000D02*
X93710000Y-87690000D01*
X91050000Y-97910000D02*
X91050000Y-87690000D01*
X91050000Y-97910000D02*
X93710000Y-97910000D01*
X92380000Y-85090000D02*
X93710000Y-85090000D01*
X93710000Y-85090000D02*
X93710000Y-86420000D01*
X93710000Y-97910000D02*
X93710000Y-87690000D01*
%TD*%
D14*
X95900000Y-90400000D03*
X95900000Y-87600000D03*
X104100000Y-87600000D03*
X104100000Y-85600000D03*
X95900000Y-94400000D03*
X104100000Y-94400000D03*
X104100000Y-90400000D03*
X95900000Y-97200000D03*
X104100000Y-92400000D03*
X104100000Y-97300000D03*
X95900000Y-92400000D03*
X95900000Y-85600000D03*
X107620000Y-86360000D03*
X107620000Y-88900000D03*
X107620000Y-91440000D03*
X107620000Y-93980000D03*
X107620000Y-96520000D03*
X92380000Y-86420000D03*
X92380000Y-88960000D03*
X92380000Y-91500000D03*
X92380000Y-94040000D03*
X92380000Y-96580000D03*
M02*
