%TF.GenerationSoftware,KiCad,Pcbnew,8.0.3*%
%TF.CreationDate,2024-09-03T06:20:47+12:00*%
%TF.ProjectId,to-252-2,746f2d32-3532-42d3-922e-6b696361645f,rev?*%
%TF.SameCoordinates,Original*%
%TF.FileFunction,Copper,L2,Bot*%
%TF.FilePolarity,Positive*%
%FSLAX46Y46*%
G04 Gerber Fmt 4.6, Leading zero omitted, Abs format (unit mm)*
G04 Created by KiCad (PCBNEW 8.0.3) date 2024-09-03 06:20:47*
%MOMM*%
%LPD*%
G01*
G04 APERTURE LIST*
%TA.AperFunction,ComponentPad*%
%ADD10R,1.000000X1.000000*%
%TD*%
%TA.AperFunction,ComponentPad*%
%ADD11R,1.700000X1.700000*%
%TD*%
%TA.AperFunction,ComponentPad*%
%ADD12O,1.700000X1.700000*%
%TD*%
%TA.AperFunction,ViaPad*%
%ADD13C,0.600000*%
%TD*%
%ADD14C,0.300000*%
%ADD15C,0.350000*%
G04 APERTURE END LIST*
D10*
%TO.P,TP105,1,1*%
%TO.N,Net-(J101-Pin_2)*%
X-29900000Y-11900000D03*
%TD*%
%TO.P,TP102,1,1*%
%TO.N,Net-(J101-Pin_1)*%
X-27300000Y-10900000D03*
%TD*%
%TO.P,TP103,1,1*%
%TO.N,Net-(J102-Pin_1)*%
X-18700000Y-10900000D03*
%TD*%
%TO.P,TP104,1,1*%
%TO.N,Net-(J102-Pin_1)*%
X-18700000Y-8900000D03*
%TD*%
%TO.P,TP110,1,1*%
%TO.N,Net-(J102-Pin_2)*%
X-15800000Y-11900000D03*
%TD*%
%TO.P,TP111,1,1*%
%TO.N,GND*%
X-29900000Y-21500000D03*
%TD*%
%TO.P,TP109,1,1*%
%TO.N,Net-(J101-Pin_3)*%
X-29900000Y-14450000D03*
%TD*%
%TO.P,TP112,1,1*%
%TO.N,GND*%
X-15800000Y-21500000D03*
%TD*%
%TO.P,TP101,1,1*%
%TO.N,Net-(J101-Pin_1)*%
X-27300000Y-8900000D03*
%TD*%
D11*
%TO.P,J102,1,Pin_1*%
%TO.N,Net-(J102-Pin_1)*%
X-12700000Y-9360000D03*
D12*
%TO.P,J102,2,Pin_2*%
%TO.N,Net-(J102-Pin_2)*%
X-12700000Y-11900000D03*
%TO.P,J102,3,Pin_3*%
%TO.N,unconnected-(J102-Pin_3-Pad3)*%
X-12700000Y-14440000D03*
%TO.P,J102,4,Pin_4*%
%TO.N,GND*%
X-12700000Y-16980000D03*
%TD*%
D11*
%TO.P,J101,1,Pin_1*%
%TO.N,Net-(J101-Pin_1)*%
X-33020000Y-9360000D03*
D12*
%TO.P,J101,2,Pin_2*%
%TO.N,Net-(J101-Pin_2)*%
X-33020000Y-11900000D03*
%TO.P,J101,3,Pin_3*%
%TO.N,Net-(J101-Pin_3)*%
X-33020000Y-14440000D03*
%TO.P,J101,4,Pin_4*%
%TO.N,GND*%
X-33020000Y-16980000D03*
%TD*%
D13*
%TO.N,GND*%
X-21000000Y-24000000D03*
X-27000000Y-24000000D03*
X-29000000Y-4000000D03*
X-27000000Y-4000000D03*
X-9000000Y-8000000D03*
X-13000000Y-24000000D03*
X-21000000Y-4000000D03*
X-9000000Y-12000000D03*
X-37000000Y-6000000D03*
X-25000000Y-4000000D03*
X-37000000Y-4000000D03*
X-17000000Y-13000000D03*
X-9000000Y-16000000D03*
X-37000000Y-20000000D03*
X-9000000Y-22000000D03*
X-11000000Y-24000000D03*
X-37000000Y-10000000D03*
X-35000000Y-4000000D03*
X-26300000Y-12200000D03*
X-13000000Y-4000000D03*
X-15000000Y-4000000D03*
X-9000000Y-20000000D03*
X-9000000Y-14000000D03*
X-37000000Y-18000000D03*
X-9000000Y-10000000D03*
X-19000000Y-24000000D03*
X-35000000Y-24000000D03*
X-37000000Y-12000000D03*
X-17000000Y-24000000D03*
X-19000000Y-4000000D03*
X-20100000Y-10900000D03*
X-37000000Y-22000000D03*
X-25000000Y-24000000D03*
X-33000000Y-4000000D03*
X-31000000Y-4000000D03*
X-31000000Y-24000000D03*
X-33000000Y-24000000D03*
X-37000000Y-14000000D03*
X-25900000Y-11000000D03*
X-16800000Y-15200000D03*
X-9000000Y-4000000D03*
X-37000000Y-8000000D03*
X-15000000Y-24000000D03*
X-11000000Y-4000000D03*
X-29000000Y-24000000D03*
X-9000000Y-6000000D03*
X-23000000Y-24000000D03*
X-9000000Y-24000000D03*
X-23000000Y-4000000D03*
X-17000000Y-4000000D03*
X-9000000Y-18000000D03*
X-37000000Y-16000000D03*
X-37000000Y-24000000D03*
%TD*%
%TA.AperFunction,Conductor*%
%TO.N,GND*%
G36*
X-9615582Y-3040816D02*
G01*
X-9415439Y-3055130D01*
X-9397937Y-3057647D01*
X-9206203Y-3099355D01*
X-9189245Y-3104334D01*
X-9005391Y-3172909D01*
X-8989299Y-3180259D01*
X-8817096Y-3274288D01*
X-8802216Y-3283849D01*
X-8645133Y-3401441D01*
X-8631763Y-3413027D01*
X-8493028Y-3551762D01*
X-8481442Y-3565132D01*
X-8363854Y-3722210D01*
X-8354289Y-3737095D01*
X-8260260Y-3909298D01*
X-8252910Y-3925390D01*
X-8184338Y-4109236D01*
X-8179354Y-4126212D01*
X-8137649Y-4317931D01*
X-8135131Y-4335442D01*
X-8120816Y-4535580D01*
X-8120500Y-4544427D01*
X-8120500Y-23395572D01*
X-8120816Y-23404419D01*
X-8135131Y-23604557D01*
X-8137649Y-23622068D01*
X-8179354Y-23813787D01*
X-8184338Y-23830763D01*
X-8252910Y-24014609D01*
X-8260260Y-24030701D01*
X-8354289Y-24202904D01*
X-8363854Y-24217789D01*
X-8481442Y-24374867D01*
X-8493028Y-24388237D01*
X-8631763Y-24526972D01*
X-8645133Y-24538558D01*
X-8802211Y-24656146D01*
X-8817096Y-24665711D01*
X-8989299Y-24759740D01*
X-9005391Y-24767090D01*
X-9189237Y-24835662D01*
X-9206213Y-24840646D01*
X-9397932Y-24882351D01*
X-9415443Y-24884869D01*
X-9596221Y-24897799D01*
X-9615583Y-24899184D01*
X-9624428Y-24899500D01*
X-36095572Y-24899500D01*
X-36104418Y-24899184D01*
X-36126378Y-24897613D01*
X-36304558Y-24884869D01*
X-36322069Y-24882351D01*
X-36513788Y-24840646D01*
X-36530764Y-24835662D01*
X-36714610Y-24767090D01*
X-36730702Y-24759740D01*
X-36902905Y-24665711D01*
X-36917790Y-24656146D01*
X-37074868Y-24538558D01*
X-37088238Y-24526972D01*
X-37226973Y-24388237D01*
X-37238559Y-24374867D01*
X-37356151Y-24217784D01*
X-37365712Y-24202904D01*
X-37459741Y-24030701D01*
X-37467091Y-24014609D01*
X-37527909Y-23851551D01*
X-37535666Y-23830755D01*
X-37540645Y-23813797D01*
X-37582353Y-23622063D01*
X-37584870Y-23604556D01*
X-37599184Y-23404418D01*
X-37599500Y-23395572D01*
X-37599500Y-22047844D01*
X-30900000Y-22047844D01*
X-30893599Y-22107372D01*
X-30893597Y-22107379D01*
X-30843355Y-22242086D01*
X-30843351Y-22242093D01*
X-30757191Y-22357187D01*
X-30757188Y-22357190D01*
X-30642094Y-22443350D01*
X-30642087Y-22443354D01*
X-30507380Y-22493596D01*
X-30507373Y-22493598D01*
X-30447845Y-22499999D01*
X-30447828Y-22500000D01*
X-30150000Y-22500000D01*
X-29650000Y-22500000D01*
X-29352172Y-22500000D01*
X-29352156Y-22499999D01*
X-29292628Y-22493598D01*
X-29292621Y-22493596D01*
X-29157914Y-22443354D01*
X-29157907Y-22443350D01*
X-29042813Y-22357190D01*
X-29042810Y-22357187D01*
X-28956650Y-22242093D01*
X-28956646Y-22242086D01*
X-28906404Y-22107379D01*
X-28906402Y-22107372D01*
X-28900001Y-22047844D01*
X-16800000Y-22047844D01*
X-16793599Y-22107372D01*
X-16793597Y-22107379D01*
X-16743355Y-22242086D01*
X-16743351Y-22242093D01*
X-16657191Y-22357187D01*
X-16657188Y-22357190D01*
X-16542094Y-22443350D01*
X-16542087Y-22443354D01*
X-16407380Y-22493596D01*
X-16407373Y-22493598D01*
X-16347845Y-22499999D01*
X-16347828Y-22500000D01*
X-16050000Y-22500000D01*
X-15550000Y-22500000D01*
X-15252172Y-22500000D01*
X-15252156Y-22499999D01*
X-15192628Y-22493598D01*
X-15192621Y-22493596D01*
X-15057914Y-22443354D01*
X-15057907Y-22443350D01*
X-14942813Y-22357190D01*
X-14942810Y-22357187D01*
X-14856650Y-22242093D01*
X-14856646Y-22242086D01*
X-14806404Y-22107379D01*
X-14806402Y-22107372D01*
X-14800001Y-22047844D01*
X-14800000Y-22047827D01*
X-14800000Y-21750000D01*
X-15550000Y-21750000D01*
X-15550000Y-22500000D01*
X-16050000Y-22500000D01*
X-16050000Y-21750000D01*
X-16800000Y-21750000D01*
X-16800000Y-22047844D01*
X-28900001Y-22047844D01*
X-28900000Y-22047827D01*
X-28900000Y-21750000D01*
X-29650000Y-21750000D01*
X-29650000Y-22500000D01*
X-30150000Y-22500000D01*
X-30150000Y-21750000D01*
X-30900000Y-21750000D01*
X-30900000Y-22047844D01*
X-37599500Y-22047844D01*
X-37599500Y-21450272D01*
X-30150000Y-21450272D01*
X-30150000Y-21549728D01*
X-30111940Y-21641614D01*
X-30041614Y-21711940D01*
X-29949728Y-21750000D01*
X-29850272Y-21750000D01*
X-29758386Y-21711940D01*
X-29688060Y-21641614D01*
X-29650000Y-21549728D01*
X-29650000Y-21450272D01*
X-16050000Y-21450272D01*
X-16050000Y-21549728D01*
X-16011940Y-21641614D01*
X-15941614Y-21711940D01*
X-15849728Y-21750000D01*
X-15750272Y-21750000D01*
X-15658386Y-21711940D01*
X-15588060Y-21641614D01*
X-15550000Y-21549728D01*
X-15550000Y-21450272D01*
X-15588060Y-21358386D01*
X-15658386Y-21288060D01*
X-15750272Y-21250000D01*
X-15550000Y-21250000D01*
X-14800000Y-21250000D01*
X-14800000Y-20952172D01*
X-14800001Y-20952155D01*
X-14806402Y-20892627D01*
X-14806404Y-20892620D01*
X-14856646Y-20757913D01*
X-14856650Y-20757906D01*
X-14942810Y-20642812D01*
X-14942813Y-20642809D01*
X-15057907Y-20556649D01*
X-15057914Y-20556645D01*
X-15192621Y-20506403D01*
X-15192628Y-20506401D01*
X-15252156Y-20500000D01*
X-15550000Y-20500000D01*
X-15550000Y-21250000D01*
X-15750272Y-21250000D01*
X-15849728Y-21250000D01*
X-15941614Y-21288060D01*
X-16011940Y-21358386D01*
X-16050000Y-21450272D01*
X-29650000Y-21450272D01*
X-29688060Y-21358386D01*
X-29758386Y-21288060D01*
X-29850272Y-21250000D01*
X-29650000Y-21250000D01*
X-28900000Y-21250000D01*
X-28900000Y-20952172D01*
X-28900001Y-20952155D01*
X-16800000Y-20952155D01*
X-16800000Y-21250000D01*
X-16050000Y-21250000D01*
X-16050000Y-20500000D01*
X-16347845Y-20500000D01*
X-16407373Y-20506401D01*
X-16407380Y-20506403D01*
X-16542087Y-20556645D01*
X-16542094Y-20556649D01*
X-16657188Y-20642809D01*
X-16657191Y-20642812D01*
X-16743351Y-20757906D01*
X-16743355Y-20757913D01*
X-16793597Y-20892620D01*
X-16793599Y-20892627D01*
X-16800000Y-20952155D01*
X-28900001Y-20952155D01*
X-28906402Y-20892627D01*
X-28906404Y-20892620D01*
X-28956646Y-20757913D01*
X-28956650Y-20757906D01*
X-29042810Y-20642812D01*
X-29042813Y-20642809D01*
X-29157907Y-20556649D01*
X-29157914Y-20556645D01*
X-29292621Y-20506403D01*
X-29292628Y-20506401D01*
X-29352156Y-20500000D01*
X-29650000Y-20500000D01*
X-29650000Y-21250000D01*
X-29850272Y-21250000D01*
X-29949728Y-21250000D01*
X-30041614Y-21288060D01*
X-30111940Y-21358386D01*
X-30150000Y-21450272D01*
X-37599500Y-21450272D01*
X-37599500Y-20952155D01*
X-30900000Y-20952155D01*
X-30900000Y-21250000D01*
X-30150000Y-21250000D01*
X-30150000Y-20500000D01*
X-30447845Y-20500000D01*
X-30507373Y-20506401D01*
X-30507380Y-20506403D01*
X-30642087Y-20556645D01*
X-30642094Y-20556649D01*
X-30757188Y-20642809D01*
X-30757191Y-20642812D01*
X-30843351Y-20757906D01*
X-30843355Y-20757913D01*
X-30893597Y-20892620D01*
X-30893599Y-20892627D01*
X-30900000Y-20952155D01*
X-37599500Y-20952155D01*
X-37599500Y-11899999D01*
X-34375659Y-11899999D01*
X-34375659Y-11900000D01*
X-34355064Y-12135403D01*
X-34355062Y-12135413D01*
X-34293906Y-12363655D01*
X-34293904Y-12363659D01*
X-34293903Y-12363663D01*
X-34254630Y-12447883D01*
X-34194035Y-12577830D01*
X-34194033Y-12577834D01*
X-34058499Y-12771395D01*
X-34058494Y-12771402D01*
X-33891403Y-12938493D01*
X-33891397Y-12938498D01*
X-33705842Y-13068425D01*
X-33662217Y-13123002D01*
X-33655023Y-13192500D01*
X-33686546Y-13254855D01*
X-33705842Y-13271575D01*
X-33891403Y-13401505D01*
X-34058495Y-13568597D01*
X-34194035Y-13762169D01*
X-34194036Y-13762171D01*
X-34293902Y-13976335D01*
X-34293906Y-13976344D01*
X-34355062Y-14204586D01*
X-34355064Y-14204596D01*
X-34375659Y-14439999D01*
X-34375659Y-14440000D01*
X-34355064Y-14675403D01*
X-34355062Y-14675413D01*
X-34293906Y-14903655D01*
X-34293904Y-14903659D01*
X-34293903Y-14903663D01*
X-34249967Y-14997883D01*
X-34194035Y-15117830D01*
X-34194033Y-15117834D01*
X-34141871Y-15192328D01*
X-34061194Y-15307547D01*
X-34058499Y-15311395D01*
X-34058494Y-15311402D01*
X-33891403Y-15478493D01*
X-33891397Y-15478498D01*
X-33705406Y-15608730D01*
X-33661781Y-15663307D01*
X-33654587Y-15732805D01*
X-33686110Y-15795160D01*
X-33705405Y-15811880D01*
X-33891078Y-15941890D01*
X-33891080Y-15941891D01*
X-34058109Y-16108920D01*
X-34058114Y-16108926D01*
X-34193600Y-16302420D01*
X-34193601Y-16302422D01*
X-34293430Y-16516507D01*
X-34293433Y-16516513D01*
X-34350636Y-16729999D01*
X-34350636Y-16730000D01*
X-33453012Y-16730000D01*
X-33485925Y-16787007D01*
X-33520000Y-16914174D01*
X-33520000Y-17045826D01*
X-33485925Y-17172993D01*
X-33453012Y-17230000D01*
X-34350636Y-17230000D01*
X-34293433Y-17443486D01*
X-34293430Y-17443492D01*
X-34193601Y-17657578D01*
X-34058106Y-17851082D01*
X-33891083Y-18018105D01*
X-33697579Y-18153600D01*
X-33483493Y-18253429D01*
X-33483484Y-18253433D01*
X-33270000Y-18310634D01*
X-33270000Y-17413012D01*
X-33212993Y-17445925D01*
X-33085826Y-17480000D01*
X-32954174Y-17480000D01*
X-32827007Y-17445925D01*
X-32770000Y-17413012D01*
X-32770000Y-18310633D01*
X-32556517Y-18253433D01*
X-32556508Y-18253429D01*
X-32342422Y-18153600D01*
X-32148918Y-18018105D01*
X-31981895Y-17851082D01*
X-31846400Y-17657578D01*
X-31746571Y-17443492D01*
X-31746568Y-17443486D01*
X-31689364Y-17230000D01*
X-32586988Y-17230000D01*
X-32554075Y-17172993D01*
X-32520000Y-17045826D01*
X-32520000Y-16914174D01*
X-32554075Y-16787007D01*
X-32586988Y-16730000D01*
X-31689364Y-16730000D01*
X-31689365Y-16729999D01*
X-31746568Y-16516513D01*
X-31746571Y-16516507D01*
X-31846400Y-16302422D01*
X-31846401Y-16302420D01*
X-31981887Y-16108926D01*
X-31981892Y-16108920D01*
X-32148922Y-15941890D01*
X-32334595Y-15811879D01*
X-32378220Y-15757302D01*
X-32385412Y-15687804D01*
X-32353890Y-15625449D01*
X-32334594Y-15608730D01*
X-32148599Y-15478495D01*
X-31981505Y-15311401D01*
X-31845965Y-15117830D01*
X-31746097Y-14903663D01*
X-31684937Y-14675408D01*
X-31664341Y-14440000D01*
X-31684937Y-14204592D01*
X-31746097Y-13976337D01*
X-31780698Y-13902135D01*
X-30900500Y-13902135D01*
X-30900500Y-14997870D01*
X-30900499Y-14997876D01*
X-30894092Y-15057483D01*
X-30843798Y-15192328D01*
X-30843794Y-15192335D01*
X-30757548Y-15307544D01*
X-30757545Y-15307547D01*
X-30642336Y-15393793D01*
X-30642329Y-15393797D01*
X-30507483Y-15444091D01*
X-30507484Y-15444091D01*
X-30500556Y-15444835D01*
X-30447873Y-15450500D01*
X-29352128Y-15450499D01*
X-29292517Y-15444091D01*
X-29157669Y-15393796D01*
X-29042454Y-15307546D01*
X-28956204Y-15192331D01*
X-28905909Y-15057483D01*
X-28899500Y-14997873D01*
X-28899501Y-13902128D01*
X-28905909Y-13842517D01*
X-28956204Y-13707669D01*
X-28956205Y-13707668D01*
X-28956207Y-13707664D01*
X-29042453Y-13592455D01*
X-29042456Y-13592452D01*
X-29157665Y-13506206D01*
X-29157672Y-13506202D01*
X-29292518Y-13455908D01*
X-29292517Y-13455908D01*
X-29352117Y-13449501D01*
X-29352119Y-13449500D01*
X-29352127Y-13449500D01*
X-29352136Y-13449500D01*
X-30447871Y-13449500D01*
X-30447877Y-13449501D01*
X-30507484Y-13455908D01*
X-30642329Y-13506202D01*
X-30642336Y-13506206D01*
X-30757545Y-13592452D01*
X-30757548Y-13592455D01*
X-30843794Y-13707664D01*
X-30843798Y-13707671D01*
X-30894092Y-13842517D01*
X-30900499Y-13902116D01*
X-30900499Y-13902123D01*
X-30900500Y-13902135D01*
X-31780698Y-13902135D01*
X-31845965Y-13762171D01*
X-31884127Y-13707669D01*
X-31981506Y-13568597D01*
X-32148598Y-13401506D01*
X-32148604Y-13401501D01*
X-32334158Y-13271575D01*
X-32377783Y-13216998D01*
X-32384977Y-13147500D01*
X-32353454Y-13085145D01*
X-32334158Y-13068425D01*
X-32311974Y-13052891D01*
X-32148599Y-12938495D01*
X-31981505Y-12771401D01*
X-31845965Y-12577830D01*
X-31746097Y-12363663D01*
X-31684937Y-12135408D01*
X-31664341Y-11900000D01*
X-31684937Y-11664592D01*
X-31746097Y-11436337D01*
X-31785361Y-11352135D01*
X-30900500Y-11352135D01*
X-30900500Y-12447870D01*
X-30900499Y-12447876D01*
X-30894092Y-12507483D01*
X-30843798Y-12642328D01*
X-30843794Y-12642335D01*
X-30757548Y-12757544D01*
X-30757545Y-12757547D01*
X-30642336Y-12843793D01*
X-30642329Y-12843797D01*
X-30507483Y-12894091D01*
X-30507484Y-12894091D01*
X-30500556Y-12894835D01*
X-30447873Y-12900500D01*
X-29352128Y-12900499D01*
X-29292517Y-12894091D01*
X-29157669Y-12843796D01*
X-29042454Y-12757546D01*
X-28956204Y-12642331D01*
X-28905909Y-12507483D01*
X-28899500Y-12447873D01*
X-28899501Y-11352128D01*
X-28905909Y-11292517D01*
X-28956204Y-11157669D01*
X-28956205Y-11157668D01*
X-28956207Y-11157664D01*
X-29042453Y-11042455D01*
X-29042456Y-11042452D01*
X-29157665Y-10956206D01*
X-29157672Y-10956202D01*
X-29292518Y-10905908D01*
X-29292517Y-10905908D01*
X-29352117Y-10899501D01*
X-29352119Y-10899500D01*
X-29352127Y-10899500D01*
X-29352136Y-10899500D01*
X-30447871Y-10899500D01*
X-30447877Y-10899501D01*
X-30507484Y-10905908D01*
X-30642329Y-10956202D01*
X-30642336Y-10956206D01*
X-30757545Y-11042452D01*
X-30757548Y-11042455D01*
X-30843794Y-11157664D01*
X-30843798Y-11157671D01*
X-30894092Y-11292517D01*
X-30900499Y-11352116D01*
X-30900499Y-11352123D01*
X-30900500Y-11352135D01*
X-31785361Y-11352135D01*
X-31845965Y-11222171D01*
X-31891130Y-11157669D01*
X-31981504Y-11028600D01*
X-31981505Y-11028599D01*
X-32103433Y-10906671D01*
X-32136916Y-10845351D01*
X-32131932Y-10775659D01*
X-32090061Y-10719725D01*
X-32059085Y-10702810D01*
X-31927669Y-10653796D01*
X-31812454Y-10567546D01*
X-31726204Y-10452331D01*
X-31675909Y-10317483D01*
X-31669500Y-10257873D01*
X-31669501Y-8462128D01*
X-31675909Y-8402517D01*
X-31694701Y-8352135D01*
X-28300500Y-8352135D01*
X-28300500Y-9447870D01*
X-28300499Y-9447876D01*
X-28294092Y-9507483D01*
X-28243798Y-9642328D01*
X-28243794Y-9642335D01*
X-28157548Y-9757544D01*
X-28157547Y-9757544D01*
X-28157546Y-9757546D01*
X-28128385Y-9779376D01*
X-28099855Y-9800734D01*
X-28057985Y-9856668D01*
X-28053001Y-9926360D01*
X-28086487Y-9987683D01*
X-28099855Y-9999266D01*
X-28157548Y-10042455D01*
X-28243794Y-10157664D01*
X-28243798Y-10157671D01*
X-28294092Y-10292517D01*
X-28300499Y-10352116D01*
X-28300499Y-10352123D01*
X-28300500Y-10352135D01*
X-28300500Y-11447870D01*
X-28300499Y-11447876D01*
X-28294092Y-11507483D01*
X-28243798Y-11642328D01*
X-28243794Y-11642335D01*
X-28157548Y-11757544D01*
X-28157545Y-11757547D01*
X-28042336Y-11843793D01*
X-28042329Y-11843797D01*
X-27907483Y-11894091D01*
X-27907484Y-11894091D01*
X-27900556Y-11894835D01*
X-27847873Y-11900500D01*
X-26752128Y-11900499D01*
X-26692517Y-11894091D01*
X-26557669Y-11843796D01*
X-26442454Y-11757546D01*
X-26356204Y-11642331D01*
X-26305909Y-11507483D01*
X-26299500Y-11447873D01*
X-26299501Y-10352128D01*
X-26305909Y-10292517D01*
X-26318827Y-10257883D01*
X-26356203Y-10157671D01*
X-26356207Y-10157664D01*
X-26442453Y-10042456D01*
X-26442452Y-10042456D01*
X-26442454Y-10042454D01*
X-26500146Y-9999265D01*
X-26542016Y-9943333D01*
X-26547000Y-9873641D01*
X-26513515Y-9812318D01*
X-26500146Y-9800734D01*
X-26442454Y-9757546D01*
X-26356204Y-9642331D01*
X-26305909Y-9507483D01*
X-26299500Y-9447873D01*
X-26299501Y-8352135D01*
X-19700500Y-8352135D01*
X-19700500Y-9447870D01*
X-19700499Y-9447876D01*
X-19694092Y-9507483D01*
X-19643798Y-9642328D01*
X-19643794Y-9642335D01*
X-19557548Y-9757544D01*
X-19557547Y-9757544D01*
X-19557546Y-9757546D01*
X-19528385Y-9779376D01*
X-19499855Y-9800734D01*
X-19457985Y-9856668D01*
X-19453001Y-9926360D01*
X-19486487Y-9987683D01*
X-19499855Y-9999266D01*
X-19557548Y-10042455D01*
X-19643794Y-10157664D01*
X-19643798Y-10157671D01*
X-19694092Y-10292517D01*
X-19700499Y-10352116D01*
X-19700499Y-10352123D01*
X-19700500Y-10352135D01*
X-19700500Y-11447870D01*
X-19700499Y-11447876D01*
X-19694092Y-11507483D01*
X-19643798Y-11642328D01*
X-19643794Y-11642335D01*
X-19557548Y-11757544D01*
X-19557545Y-11757547D01*
X-19442336Y-11843793D01*
X-19442329Y-11843797D01*
X-19307483Y-11894091D01*
X-19307484Y-11894091D01*
X-19300556Y-11894835D01*
X-19247873Y-11900500D01*
X-18152128Y-11900499D01*
X-18092517Y-11894091D01*
X-17957669Y-11843796D01*
X-17842454Y-11757546D01*
X-17756204Y-11642331D01*
X-17705909Y-11507483D01*
X-17699500Y-11447873D01*
X-17699500Y-11352135D01*
X-16800500Y-11352135D01*
X-16800500Y-12447870D01*
X-16800499Y-12447876D01*
X-16794092Y-12507483D01*
X-16743798Y-12642328D01*
X-16743794Y-12642335D01*
X-16657548Y-12757544D01*
X-16657545Y-12757547D01*
X-16542336Y-12843793D01*
X-16542329Y-12843797D01*
X-16407483Y-12894091D01*
X-16407484Y-12894091D01*
X-16400556Y-12894835D01*
X-16347873Y-12900500D01*
X-15252128Y-12900499D01*
X-15192517Y-12894091D01*
X-15057669Y-12843796D01*
X-14942454Y-12757546D01*
X-14856204Y-12642331D01*
X-14805909Y-12507483D01*
X-14799500Y-12447873D01*
X-14799501Y-11899999D01*
X-14055659Y-11899999D01*
X-14055659Y-11900000D01*
X-14035064Y-12135403D01*
X-14035062Y-12135413D01*
X-13973906Y-12363655D01*
X-13973904Y-12363659D01*
X-13973903Y-12363663D01*
X-13934630Y-12447883D01*
X-13874035Y-12577830D01*
X-13874033Y-12577834D01*
X-13738499Y-12771395D01*
X-13738494Y-12771402D01*
X-13571403Y-12938493D01*
X-13571397Y-12938498D01*
X-13385842Y-13068425D01*
X-13342217Y-13123002D01*
X-13335023Y-13192500D01*
X-13366546Y-13254855D01*
X-13385842Y-13271575D01*
X-13571403Y-13401505D01*
X-13738495Y-13568597D01*
X-13874035Y-13762169D01*
X-13874036Y-13762171D01*
X-13973902Y-13976335D01*
X-13973906Y-13976344D01*
X-14035062Y-14204586D01*
X-14035064Y-14204596D01*
X-14055659Y-14439999D01*
X-14055659Y-14440000D01*
X-14035064Y-14675403D01*
X-14035062Y-14675413D01*
X-13973906Y-14903655D01*
X-13973904Y-14903659D01*
X-13973903Y-14903663D01*
X-13929967Y-14997883D01*
X-13874035Y-15117830D01*
X-13874033Y-15117834D01*
X-13821871Y-15192328D01*
X-13741194Y-15307547D01*
X-13738499Y-15311395D01*
X-13738494Y-15311402D01*
X-13571403Y-15478493D01*
X-13571397Y-15478498D01*
X-13385406Y-15608730D01*
X-13341781Y-15663307D01*
X-13334587Y-15732805D01*
X-13366110Y-15795160D01*
X-13385405Y-15811880D01*
X-13571078Y-15941890D01*
X-13571080Y-15941891D01*
X-13738109Y-16108920D01*
X-13738114Y-16108926D01*
X-13873600Y-16302420D01*
X-13873601Y-16302422D01*
X-13973430Y-16516507D01*
X-13973433Y-16516513D01*
X-14030636Y-16729999D01*
X-14030636Y-16730000D01*
X-13133012Y-16730000D01*
X-13165925Y-16787007D01*
X-13200000Y-16914174D01*
X-13200000Y-17045826D01*
X-13165925Y-17172993D01*
X-13133012Y-17230000D01*
X-14030636Y-17230000D01*
X-13973433Y-17443486D01*
X-13973430Y-17443492D01*
X-13873601Y-17657578D01*
X-13738106Y-17851082D01*
X-13571083Y-18018105D01*
X-13377579Y-18153600D01*
X-13163493Y-18253429D01*
X-13163484Y-18253433D01*
X-12950000Y-18310634D01*
X-12950000Y-17413012D01*
X-12892993Y-17445925D01*
X-12765826Y-17480000D01*
X-12634174Y-17480000D01*
X-12507007Y-17445925D01*
X-12450000Y-17413012D01*
X-12450000Y-18310633D01*
X-12236517Y-18253433D01*
X-12236508Y-18253429D01*
X-12022422Y-18153600D01*
X-11828918Y-18018105D01*
X-11661895Y-17851082D01*
X-11526400Y-17657578D01*
X-11426571Y-17443492D01*
X-11426568Y-17443486D01*
X-11369364Y-17230000D01*
X-12266988Y-17230000D01*
X-12234075Y-17172993D01*
X-12200000Y-17045826D01*
X-12200000Y-16914174D01*
X-12234075Y-16787007D01*
X-12266988Y-16730000D01*
X-11369364Y-16730000D01*
X-11369365Y-16729999D01*
X-11426568Y-16516513D01*
X-11426571Y-16516507D01*
X-11526400Y-16302422D01*
X-11526401Y-16302420D01*
X-11661887Y-16108926D01*
X-11661892Y-16108920D01*
X-11828922Y-15941890D01*
X-12014595Y-15811879D01*
X-12058220Y-15757302D01*
X-12065412Y-15687804D01*
X-12033890Y-15625449D01*
X-12014594Y-15608730D01*
X-11828599Y-15478495D01*
X-11661505Y-15311401D01*
X-11525965Y-15117830D01*
X-11426097Y-14903663D01*
X-11364937Y-14675408D01*
X-11344341Y-14440000D01*
X-11364937Y-14204592D01*
X-11426097Y-13976337D01*
X-11525965Y-13762171D01*
X-11564127Y-13707669D01*
X-11661506Y-13568597D01*
X-11828598Y-13401506D01*
X-11828604Y-13401501D01*
X-12014158Y-13271575D01*
X-12057783Y-13216998D01*
X-12064977Y-13147500D01*
X-12033454Y-13085145D01*
X-12014158Y-13068425D01*
X-11991974Y-13052891D01*
X-11828599Y-12938495D01*
X-11661505Y-12771401D01*
X-11525965Y-12577830D01*
X-11426097Y-12363663D01*
X-11364937Y-12135408D01*
X-11344341Y-11900000D01*
X-11364937Y-11664592D01*
X-11426097Y-11436337D01*
X-11525965Y-11222171D01*
X-11571130Y-11157669D01*
X-11661504Y-11028600D01*
X-11661505Y-11028599D01*
X-11783433Y-10906671D01*
X-11816916Y-10845351D01*
X-11811932Y-10775659D01*
X-11770061Y-10719725D01*
X-11739085Y-10702810D01*
X-11607669Y-10653796D01*
X-11492454Y-10567546D01*
X-11406204Y-10452331D01*
X-11355909Y-10317483D01*
X-11349500Y-10257873D01*
X-11349501Y-8462128D01*
X-11355909Y-8402517D01*
X-11374705Y-8352123D01*
X-11406203Y-8267671D01*
X-11406207Y-8267664D01*
X-11492453Y-8152455D01*
X-11492456Y-8152452D01*
X-11607665Y-8066206D01*
X-11607672Y-8066202D01*
X-11742518Y-8015908D01*
X-11742517Y-8015908D01*
X-11802117Y-8009501D01*
X-11802119Y-8009500D01*
X-11802127Y-8009500D01*
X-11802136Y-8009500D01*
X-13597871Y-8009500D01*
X-13597877Y-8009501D01*
X-13657484Y-8015908D01*
X-13792329Y-8066202D01*
X-13792336Y-8066206D01*
X-13907545Y-8152452D01*
X-13907548Y-8152455D01*
X-13993794Y-8267664D01*
X-13993798Y-8267671D01*
X-14044092Y-8402517D01*
X-14050499Y-8462116D01*
X-14050499Y-8462123D01*
X-14050500Y-8462135D01*
X-14050500Y-10257870D01*
X-14050499Y-10257876D01*
X-14044092Y-10317483D01*
X-13993798Y-10452328D01*
X-13993794Y-10452335D01*
X-13907548Y-10567544D01*
X-13907545Y-10567547D01*
X-13792336Y-10653793D01*
X-13792329Y-10653797D01*
X-13660919Y-10702810D01*
X-13604985Y-10744681D01*
X-13580568Y-10810145D01*
X-13595420Y-10878418D01*
X-13616570Y-10906673D01*
X-13738497Y-11028600D01*
X-13874035Y-11222169D01*
X-13874036Y-11222171D01*
X-13973902Y-11436335D01*
X-13973906Y-11436344D01*
X-14035062Y-11664586D01*
X-14035064Y-11664596D01*
X-14055659Y-11899999D01*
X-14799501Y-11899999D01*
X-14799501Y-11352128D01*
X-14805909Y-11292517D01*
X-14856204Y-11157669D01*
X-14856205Y-11157668D01*
X-14856207Y-11157664D01*
X-14942453Y-11042455D01*
X-14942456Y-11042452D01*
X-15057665Y-10956206D01*
X-15057672Y-10956202D01*
X-15192518Y-10905908D01*
X-15192517Y-10905908D01*
X-15252117Y-10899501D01*
X-15252119Y-10899500D01*
X-15252127Y-10899500D01*
X-15252136Y-10899500D01*
X-16347871Y-10899500D01*
X-16347877Y-10899501D01*
X-16407484Y-10905908D01*
X-16542329Y-10956202D01*
X-16542336Y-10956206D01*
X-16657545Y-11042452D01*
X-16657548Y-11042455D01*
X-16743794Y-11157664D01*
X-16743798Y-11157671D01*
X-16794092Y-11292517D01*
X-16800499Y-11352116D01*
X-16800499Y-11352123D01*
X-16800500Y-11352135D01*
X-17699500Y-11352135D01*
X-17699501Y-10352128D01*
X-17705909Y-10292517D01*
X-17718827Y-10257883D01*
X-17756203Y-10157671D01*
X-17756207Y-10157664D01*
X-17842453Y-10042456D01*
X-17842452Y-10042456D01*
X-17842454Y-10042454D01*
X-17900146Y-9999265D01*
X-17942016Y-9943333D01*
X-17947000Y-9873641D01*
X-17913515Y-9812318D01*
X-17900146Y-9800734D01*
X-17842454Y-9757546D01*
X-17756204Y-9642331D01*
X-17705909Y-9507483D01*
X-17699500Y-9447873D01*
X-17699501Y-8352128D01*
X-17705909Y-8292517D01*
X-17715177Y-8267669D01*
X-17756203Y-8157671D01*
X-17756207Y-8157664D01*
X-17842453Y-8042455D01*
X-17842456Y-8042452D01*
X-17957665Y-7956206D01*
X-17957672Y-7956202D01*
X-18092518Y-7905908D01*
X-18092517Y-7905908D01*
X-18152117Y-7899501D01*
X-18152119Y-7899500D01*
X-18152127Y-7899500D01*
X-18152136Y-7899500D01*
X-19247871Y-7899500D01*
X-19247877Y-7899501D01*
X-19307484Y-7905908D01*
X-19442329Y-7956202D01*
X-19442336Y-7956206D01*
X-19557545Y-8042452D01*
X-19557548Y-8042455D01*
X-19643794Y-8157664D01*
X-19643798Y-8157671D01*
X-19694092Y-8292517D01*
X-19700499Y-8352116D01*
X-19700499Y-8352123D01*
X-19700500Y-8352135D01*
X-26299501Y-8352135D01*
X-26299501Y-8352128D01*
X-26305909Y-8292517D01*
X-26315177Y-8267669D01*
X-26356203Y-8157671D01*
X-26356207Y-8157664D01*
X-26442453Y-8042455D01*
X-26442456Y-8042452D01*
X-26557665Y-7956206D01*
X-26557672Y-7956202D01*
X-26692518Y-7905908D01*
X-26692517Y-7905908D01*
X-26752117Y-7899501D01*
X-26752119Y-7899500D01*
X-26752127Y-7899500D01*
X-26752136Y-7899500D01*
X-27847871Y-7899500D01*
X-27847877Y-7899501D01*
X-27907484Y-7905908D01*
X-28042329Y-7956202D01*
X-28042336Y-7956206D01*
X-28157545Y-8042452D01*
X-28157548Y-8042455D01*
X-28243794Y-8157664D01*
X-28243798Y-8157671D01*
X-28294092Y-8292517D01*
X-28300499Y-8352116D01*
X-28300499Y-8352123D01*
X-28300500Y-8352135D01*
X-31694701Y-8352135D01*
X-31694705Y-8352123D01*
X-31726203Y-8267671D01*
X-31726207Y-8267664D01*
X-31812453Y-8152455D01*
X-31812456Y-8152452D01*
X-31927665Y-8066206D01*
X-31927672Y-8066202D01*
X-32062518Y-8015908D01*
X-32062517Y-8015908D01*
X-32122117Y-8009501D01*
X-32122119Y-8009500D01*
X-32122127Y-8009500D01*
X-32122136Y-8009500D01*
X-33917871Y-8009500D01*
X-33917877Y-8009501D01*
X-33977484Y-8015908D01*
X-34112329Y-8066202D01*
X-34112336Y-8066206D01*
X-34227545Y-8152452D01*
X-34227548Y-8152455D01*
X-34313794Y-8267664D01*
X-34313798Y-8267671D01*
X-34364092Y-8402517D01*
X-34370499Y-8462116D01*
X-34370499Y-8462123D01*
X-34370500Y-8462135D01*
X-34370500Y-10257870D01*
X-34370499Y-10257876D01*
X-34364092Y-10317483D01*
X-34313798Y-10452328D01*
X-34313794Y-10452335D01*
X-34227548Y-10567544D01*
X-34227545Y-10567547D01*
X-34112336Y-10653793D01*
X-34112329Y-10653797D01*
X-33980919Y-10702810D01*
X-33924985Y-10744681D01*
X-33900568Y-10810145D01*
X-33915420Y-10878418D01*
X-33936570Y-10906673D01*
X-34058497Y-11028600D01*
X-34194035Y-11222169D01*
X-34194036Y-11222171D01*
X-34293902Y-11436335D01*
X-34293906Y-11436344D01*
X-34355062Y-11664586D01*
X-34355064Y-11664596D01*
X-34375659Y-11899999D01*
X-37599500Y-11899999D01*
X-37599500Y-4544427D01*
X-37599184Y-4535581D01*
X-37584870Y-4335443D01*
X-37584869Y-4335442D01*
X-37584870Y-4335436D01*
X-37582354Y-4317938D01*
X-37540644Y-4126199D01*
X-37535667Y-4109248D01*
X-37467089Y-3925385D01*
X-37459741Y-3909298D01*
X-37397185Y-3794734D01*
X-37365709Y-3737089D01*
X-37356155Y-3722221D01*
X-37238552Y-3565123D01*
X-37226980Y-3551769D01*
X-37088231Y-3413020D01*
X-37074877Y-3401448D01*
X-36917779Y-3283845D01*
X-36902911Y-3274291D01*
X-36730702Y-3180258D01*
X-36714615Y-3172911D01*
X-36530752Y-3104333D01*
X-36513801Y-3099356D01*
X-36322062Y-3057646D01*
X-36304564Y-3055130D01*
X-36104418Y-3040816D01*
X-36095572Y-3040500D01*
X-36034108Y-3040500D01*
X-9685892Y-3040500D01*
X-9624428Y-3040500D01*
X-9615582Y-3040816D01*
G37*
%TD.AperFunction*%
%TD*%
D14*
X-21000000Y-24000000D03*
X-27000000Y-24000000D03*
X-29000000Y-4000000D03*
X-27000000Y-4000000D03*
X-9000000Y-8000000D03*
X-13000000Y-24000000D03*
X-21000000Y-4000000D03*
X-9000000Y-12000000D03*
X-37000000Y-6000000D03*
X-25000000Y-4000000D03*
X-37000000Y-4000000D03*
X-17000000Y-13000000D03*
X-9000000Y-16000000D03*
X-37000000Y-20000000D03*
X-9000000Y-22000000D03*
X-11000000Y-24000000D03*
X-37000000Y-10000000D03*
X-35000000Y-4000000D03*
X-26300000Y-12200000D03*
X-13000000Y-4000000D03*
X-15000000Y-4000000D03*
X-9000000Y-20000000D03*
X-9000000Y-14000000D03*
X-37000000Y-18000000D03*
X-9000000Y-10000000D03*
X-19000000Y-24000000D03*
X-35000000Y-24000000D03*
X-37000000Y-12000000D03*
X-17000000Y-24000000D03*
X-19000000Y-4000000D03*
X-20100000Y-10900000D03*
X-37000000Y-22000000D03*
X-25000000Y-24000000D03*
X-33000000Y-4000000D03*
X-31000000Y-4000000D03*
X-31000000Y-24000000D03*
X-33000000Y-24000000D03*
X-37000000Y-14000000D03*
X-25900000Y-11000000D03*
X-16800000Y-15200000D03*
X-9000000Y-4000000D03*
X-37000000Y-8000000D03*
X-15000000Y-24000000D03*
X-11000000Y-4000000D03*
X-29000000Y-24000000D03*
X-9000000Y-6000000D03*
X-23000000Y-24000000D03*
X-9000000Y-24000000D03*
X-23000000Y-4000000D03*
X-17000000Y-4000000D03*
X-9000000Y-18000000D03*
X-37000000Y-16000000D03*
X-37000000Y-24000000D03*
D15*
X-29900000Y-11900000D03*
X-27300000Y-10900000D03*
X-18700000Y-10900000D03*
X-18700000Y-8900000D03*
X-15800000Y-11900000D03*
X-29900000Y-21500000D03*
X-29900000Y-14450000D03*
X-15800000Y-21500000D03*
X-27300000Y-8900000D03*
X-12700000Y-9360000D03*
X-12700000Y-11900000D03*
X-12700000Y-14440000D03*
X-12700000Y-16980000D03*
X-33020000Y-9360000D03*
X-33020000Y-11900000D03*
X-33020000Y-14440000D03*
X-33020000Y-16980000D03*
M02*
