%TF.GenerationSoftware,KiCad,Pcbnew,8.0.3*%
%TF.CreationDate,2024-07-29T06:26:44+12:00*%
%TF.ProjectId,sot23-6,736f7432-332d-4362-9e6b-696361645f70,rev?*%
%TF.SameCoordinates,Original*%
%TF.FileFunction,Copper,L1,Top*%
%TF.FilePolarity,Positive*%
%FSLAX46Y46*%
G04 Gerber Fmt 4.6, Leading zero omitted, Abs format (unit mm)*
G04 Created by KiCad (PCBNEW 8.0.3) date 2024-07-29 06:26:44*
%MOMM*%
%LPD*%
G01*
G04 APERTURE LIST*
G04 Aperture macros list*
%AMRoundRect*
0 Rectangle with rounded corners*
0 $1 Rounding radius*
0 $2 $3 $4 $5 $6 $7 $8 $9 X,Y pos of 4 corners*
0 Add a 4 corners polygon primitive as box body*
4,1,4,$2,$3,$4,$5,$6,$7,$8,$9,$2,$3,0*
0 Add four circle primitives for the rounded corners*
1,1,$1+$1,$2,$3*
1,1,$1+$1,$4,$5*
1,1,$1+$1,$6,$7*
1,1,$1+$1,$8,$9*
0 Add four rect primitives between the rounded corners*
20,1,$1+$1,$2,$3,$4,$5,0*
20,1,$1+$1,$4,$5,$6,$7,0*
20,1,$1+$1,$6,$7,$8,$9,0*
20,1,$1+$1,$8,$9,$2,$3,0*%
%AMFreePoly0*
4,1,19,0.000000,0.744911,0.071157,0.744911,0.207708,0.704816,0.327430,0.627875,0.420627,0.520320,0.479746,0.390866,0.500000,0.250000,0.500000,-0.250000,0.479746,-0.390866,0.420627,-0.520320,0.327430,-0.627875,0.207708,-0.704816,0.071157,-0.744911,0.000000,-0.744911,0.000000,-0.750000,-0.500000,-0.750000,-0.500000,0.750000,0.000000,0.750000,0.000000,0.744911,0.000000,0.744911,
$1*%
%AMFreePoly1*
4,1,19,0.500000,-0.750000,0.000000,-0.750000,0.000000,-0.744911,-0.071157,-0.744911,-0.207708,-0.704816,-0.327430,-0.627875,-0.420627,-0.520320,-0.479746,-0.390866,-0.500000,-0.250000,-0.500000,0.250000,-0.479746,0.390866,-0.420627,0.520320,-0.327430,0.627875,-0.207708,0.704816,-0.071157,0.744911,0.000000,0.744911,0.000000,0.750000,0.500000,0.750000,0.500000,-0.750000,0.500000,-0.750000,
$1*%
G04 Aperture macros list end*
%TA.AperFunction,EtchedComponent*%
%ADD10C,0.000000*%
%TD*%
%TA.AperFunction,ComponentPad*%
%ADD11R,1.000000X1.000000*%
%TD*%
%TA.AperFunction,SMDPad,CuDef*%
%ADD12RoundRect,0.250000X-0.475000X0.337500X-0.475000X-0.337500X0.475000X-0.337500X0.475000X0.337500X0*%
%TD*%
%TA.AperFunction,SMDPad,CuDef*%
%ADD13RoundRect,0.150000X-0.512500X-0.150000X0.512500X-0.150000X0.512500X0.150000X-0.512500X0.150000X0*%
%TD*%
%TA.AperFunction,ComponentPad*%
%ADD14O,1.700000X1.700000*%
%TD*%
%TA.AperFunction,ComponentPad*%
%ADD15R,1.700000X1.700000*%
%TD*%
%TA.AperFunction,SMDPad,CuDef*%
%ADD16FreePoly0,0.000000*%
%TD*%
%TA.AperFunction,SMDPad,CuDef*%
%ADD17FreePoly1,0.000000*%
%TD*%
%TA.AperFunction,ViaPad*%
%ADD18C,0.600000*%
%TD*%
%TA.AperFunction,ViaPad*%
%ADD19C,0.400000*%
%TD*%
%TA.AperFunction,Conductor*%
%ADD20C,0.300000*%
%TD*%
%ADD21C,0.300000*%
%ADD22C,0.200000*%
%ADD23C,0.350000*%
G04 APERTURE END LIST*
D10*
%TA.AperFunction,EtchedComponent*%
%TO.C,JP101*%
G36*
X-22750000Y-9100000D02*
G01*
X-23250000Y-9100000D01*
X-23250000Y-8500000D01*
X-22750000Y-8500000D01*
X-22750000Y-9100000D01*
G37*
%TD.AperFunction*%
%TD*%
D11*
%TO.P,TP105,1,1*%
%TO.N,Net-(J101-Pin_2)*%
X-27100000Y-13400000D03*
%TD*%
D12*
%TO.P,C101,2*%
%TO.N,GND*%
X-24360000Y-13837500D03*
%TO.P,C101,1*%
%TO.N,Net-(J101-Pin_1)*%
X-24360000Y-11762500D03*
%TD*%
D11*
%TO.P,TP102,1,1*%
%TO.N,Net-(J101-Pin_1)*%
X-27100000Y-10600000D03*
%TD*%
%TO.P,TP103,1,1*%
%TO.N,Net-(J102-Pin_1)*%
X-18900000Y-10600000D03*
%TD*%
%TO.P,TP104,1,1*%
%TO.N,Net-(J102-Pin_1)*%
X-18900000Y-8600000D03*
%TD*%
%TO.P,TP107,1,1*%
%TO.N,Net-(J101-Pin_4)*%
X-27100000Y-17400000D03*
%TD*%
D13*
%TO.P,U101,6,6*%
%TO.N,Net-(J102-Pin_2)*%
X-21862500Y-15800000D03*
%TO.P,U101,5,5*%
%TO.N,Net-(J102-Pin_3)*%
X-21862500Y-16750000D03*
%TO.P,U101,4,4*%
%TO.N,Net-(J102-Pin_4)*%
X-21862500Y-17700000D03*
%TO.P,U101,3,3*%
%TO.N,Net-(J101-Pin_4)*%
X-24137500Y-17700000D03*
%TO.P,U101,2,2*%
%TO.N,Net-(J101-Pin_3)*%
X-24137500Y-16750000D03*
%TO.P,U101,1,1*%
%TO.N,Net-(J101-Pin_2)*%
X-24137500Y-15800000D03*
%TD*%
D11*
%TO.P,TP108,1,1*%
%TO.N,Net-(J102-Pin_4)*%
X-18900000Y-17400000D03*
%TD*%
%TO.P,TP110,1,1*%
%TO.N,Net-(J102-Pin_2)*%
X-18900000Y-13400000D03*
%TD*%
%TO.P,TP111,1,1*%
%TO.N,GND*%
X-27100000Y-20200000D03*
%TD*%
%TO.P,TP109,1,1*%
%TO.N,Net-(J102-Pin_3)*%
X-18900000Y-15400000D03*
%TD*%
D14*
%TO.P,J102,5,Pin_5*%
%TO.N,GND*%
X-15380000Y-19520000D03*
%TO.P,J102,4,Pin_4*%
%TO.N,Net-(J102-Pin_4)*%
X-15380000Y-16980000D03*
%TO.P,J102,3,Pin_3*%
%TO.N,Net-(J102-Pin_3)*%
X-15380000Y-14440000D03*
%TO.P,J102,2,Pin_2*%
%TO.N,Net-(J102-Pin_2)*%
X-15380000Y-11900000D03*
D15*
%TO.P,J102,1,Pin_1*%
%TO.N,Net-(J102-Pin_1)*%
X-15380000Y-9360000D03*
%TD*%
D11*
%TO.P,TP112,1,1*%
%TO.N,GND*%
X-18900000Y-20300000D03*
%TD*%
D12*
%TO.P,C102,2*%
%TO.N,GND*%
X-21640000Y-13837500D03*
%TO.P,C102,1*%
%TO.N,Net-(J102-Pin_1)*%
X-21640000Y-11762500D03*
%TD*%
D11*
%TO.P,TP106,1,1*%
%TO.N,Net-(J101-Pin_3)*%
X-27100000Y-15400000D03*
%TD*%
D14*
%TO.P,J101,5,Pin_5*%
%TO.N,GND*%
X-30620000Y-19580000D03*
%TO.P,J101,4,Pin_4*%
%TO.N,Net-(J101-Pin_4)*%
X-30620000Y-17040000D03*
%TO.P,J101,3,Pin_3*%
%TO.N,Net-(J101-Pin_3)*%
X-30620000Y-14500000D03*
%TO.P,J101,2,Pin_2*%
%TO.N,Net-(J101-Pin_2)*%
X-30620000Y-11960000D03*
D15*
%TO.P,J101,1,Pin_1*%
%TO.N,Net-(J101-Pin_1)*%
X-30620000Y-9420000D03*
%TD*%
D16*
%TO.P,JP101,2,B*%
%TO.N,Net-(J102-Pin_1)*%
X-22350000Y-8800000D03*
D17*
%TO.P,JP101,1,A*%
%TO.N,Net-(J101-Pin_1)*%
X-23650000Y-8800000D03*
%TD*%
D11*
%TO.P,TP101,1,1*%
%TO.N,Net-(J101-Pin_1)*%
X-27100000Y-8600000D03*
%TD*%
D18*
%TO.N,GND*%
X-13000000Y-6000000D03*
X-17000000Y-22000000D03*
X-35000000Y-8000000D03*
X-35000000Y-10000000D03*
X-35000000Y-12000000D03*
X-35000000Y-14000000D03*
X-35000000Y-16000000D03*
X-35000000Y-18000000D03*
X-35000000Y-20000000D03*
X-35000000Y-22000000D03*
X-33000000Y-22000000D03*
X-31000000Y-22000000D03*
X-29000000Y-22000000D03*
X-27000000Y-22000000D03*
X-25000000Y-22000000D03*
X-23000000Y-22000000D03*
X-21000000Y-22000000D03*
X-19000000Y-22000000D03*
X-15000000Y-22000000D03*
X-13000000Y-22000000D03*
X-11000000Y-22000000D03*
X-11000000Y-20000000D03*
X-11000000Y-18000000D03*
X-11000000Y-16000000D03*
X-11000000Y-14000000D03*
X-11000000Y-12000000D03*
X-11000000Y-10000000D03*
X-11000000Y-8000000D03*
X-11000000Y-6000000D03*
X-15000000Y-6000000D03*
X-17000000Y-6000000D03*
X-19000000Y-6000000D03*
X-21000000Y-6000000D03*
X-23000000Y-6000000D03*
X-25000000Y-6000000D03*
X-27000000Y-6000000D03*
X-29000000Y-6000000D03*
X-31000000Y-6000000D03*
X-33000000Y-6000000D03*
X-35000000Y-6000000D03*
D19*
X-20500000Y-13840380D03*
X-23000000Y-11200000D03*
X-25437500Y-13837500D03*
X-23000000Y-14800000D03*
X-25800000Y-13100000D03*
X-20200000Y-13100000D03*
%TO.N,Net-(J101-Pin_2)*%
X-25400000Y-15800000D03*
%TO.N,Net-(J102-Pin_2)*%
X-20600000Y-15800000D03*
%TD*%
D20*
%TO.N,GND*%
X-20500000Y-13840380D02*
X-21637120Y-13840380D01*
X-25437500Y-13837500D02*
X-24360000Y-13837500D01*
X-21637120Y-13840380D02*
X-21640000Y-13837500D01*
%TO.N,Net-(J101-Pin_4)*%
X-28600000Y-17400000D02*
X-27100000Y-17400000D01*
X-28960000Y-17040000D02*
X-28600000Y-17400000D01*
X-25600000Y-17700000D02*
X-25900000Y-17400000D01*
X-24137500Y-17700000D02*
X-25600000Y-17700000D01*
X-30620000Y-17040000D02*
X-28960000Y-17040000D01*
X-25900000Y-17400000D02*
X-27100000Y-17400000D01*
%TO.N,Net-(J101-Pin_2)*%
X-24137500Y-15800000D02*
X-25400000Y-15800000D01*
X-29180000Y-13400000D02*
X-27100000Y-13400000D01*
X-25400000Y-15800000D02*
X-25300000Y-15800000D01*
X-30620000Y-11960000D02*
X-29180000Y-13400000D01*
%TO.N,Net-(J101-Pin_3)*%
X-29720000Y-15400000D02*
X-27100000Y-15400000D01*
X-25750000Y-16750000D02*
X-27100000Y-15400000D01*
X-30620000Y-14500000D02*
X-29720000Y-15400000D01*
X-24137500Y-16750000D02*
X-25750000Y-16750000D01*
%TO.N,Net-(J102-Pin_2)*%
X-21862500Y-15800000D02*
X-20600000Y-15800000D01*
X-16880000Y-13400000D02*
X-18900000Y-13400000D01*
X-15380000Y-11900000D02*
X-16880000Y-13400000D01*
%TO.N,Net-(J102-Pin_3)*%
X-15380000Y-14480000D02*
X-16300000Y-15400000D01*
X-15380000Y-14440000D02*
X-15380000Y-14480000D01*
X-21862500Y-16750000D02*
X-20250000Y-16750000D01*
X-20250000Y-16750000D02*
X-18900000Y-15400000D01*
X-16300000Y-15400000D02*
X-18900000Y-15400000D01*
%TO.N,Net-(J102-Pin_4)*%
X-18900000Y-17400000D02*
X-17500000Y-17400000D01*
X-17500000Y-17400000D02*
X-17080000Y-16980000D01*
X-17080000Y-16980000D02*
X-15380000Y-16980000D01*
X-18900000Y-17400000D02*
X-20000000Y-17400000D01*
X-20300000Y-17700000D02*
X-21862500Y-17700000D01*
X-20000000Y-17400000D02*
X-20300000Y-17700000D01*
%TD*%
%TA.AperFunction,Conductor*%
%TO.N,Net-(J101-Pin_1)*%
G36*
X-23456961Y-7119685D02*
G01*
X-23411206Y-7172489D01*
X-23400000Y-7224000D01*
X-23400000Y-10562703D01*
X-23419685Y-10629742D01*
X-23441773Y-10655518D01*
X-23492037Y-10700048D01*
X-23555270Y-10729770D01*
X-23613268Y-10724939D01*
X-23732303Y-10685494D01*
X-23732310Y-10685493D01*
X-23835014Y-10675000D01*
X-24110000Y-10675000D01*
X-24110000Y-11888500D01*
X-24129685Y-11955539D01*
X-24182489Y-12001294D01*
X-24234000Y-12012500D01*
X-25584999Y-12012500D01*
X-25584999Y-12149984D01*
X-25583628Y-12163397D01*
X-25596397Y-12232090D01*
X-25644277Y-12282975D01*
X-25706986Y-12300000D01*
X-28676000Y-12300000D01*
X-28743039Y-12280315D01*
X-28788794Y-12227511D01*
X-28800000Y-12176000D01*
X-28800000Y-11147844D01*
X-28100000Y-11147844D01*
X-28093599Y-11207372D01*
X-28093597Y-11207379D01*
X-28043355Y-11342086D01*
X-28043351Y-11342093D01*
X-27957191Y-11457187D01*
X-27957188Y-11457190D01*
X-27842094Y-11543350D01*
X-27842087Y-11543354D01*
X-27707380Y-11593596D01*
X-27707373Y-11593598D01*
X-27647845Y-11599999D01*
X-27647828Y-11600000D01*
X-27350000Y-11600000D01*
X-26850000Y-11600000D01*
X-26552172Y-11600000D01*
X-26552156Y-11599999D01*
X-26492628Y-11593598D01*
X-26492621Y-11593596D01*
X-26357914Y-11543354D01*
X-26357907Y-11543350D01*
X-26242813Y-11457190D01*
X-26242810Y-11457187D01*
X-26181294Y-11375013D01*
X-25585000Y-11375013D01*
X-25585000Y-11512500D01*
X-24610000Y-11512500D01*
X-24610000Y-10675000D01*
X-24884971Y-10675000D01*
X-24884988Y-10675001D01*
X-24987698Y-10685494D01*
X-25154120Y-10740641D01*
X-25154125Y-10740643D01*
X-25303346Y-10832684D01*
X-25427316Y-10956654D01*
X-25519357Y-11105875D01*
X-25519359Y-11105880D01*
X-25574506Y-11272302D01*
X-25574507Y-11272309D01*
X-25585000Y-11375013D01*
X-26181294Y-11375013D01*
X-26156650Y-11342093D01*
X-26156646Y-11342086D01*
X-26106404Y-11207379D01*
X-26106402Y-11207372D01*
X-26100001Y-11147844D01*
X-26100000Y-11147827D01*
X-26100000Y-10850000D01*
X-26850000Y-10850000D01*
X-26850000Y-11600000D01*
X-27350000Y-11600000D01*
X-27350000Y-10850000D01*
X-28100000Y-10850000D01*
X-28100000Y-11147844D01*
X-28800000Y-11147844D01*
X-28800000Y-10550272D01*
X-27350000Y-10550272D01*
X-27350000Y-10649728D01*
X-27311940Y-10741614D01*
X-27241614Y-10811940D01*
X-27149728Y-10850000D01*
X-27050272Y-10850000D01*
X-26958386Y-10811940D01*
X-26888060Y-10741614D01*
X-26850000Y-10649728D01*
X-26850000Y-10550272D01*
X-26888060Y-10458386D01*
X-26958386Y-10388060D01*
X-27050272Y-10350000D01*
X-26850000Y-10350000D01*
X-26100000Y-10350000D01*
X-26100000Y-10052172D01*
X-26100001Y-10052155D01*
X-26106402Y-9992627D01*
X-26106404Y-9992620D01*
X-26156646Y-9857913D01*
X-26156650Y-9857906D01*
X-26242810Y-9742813D01*
X-26300979Y-9699267D01*
X-26342850Y-9643333D01*
X-26347834Y-9573641D01*
X-26314349Y-9512318D01*
X-26300979Y-9500733D01*
X-26242810Y-9457186D01*
X-26156650Y-9342093D01*
X-26156646Y-9342086D01*
X-26106404Y-9207379D01*
X-26106402Y-9207372D01*
X-26100001Y-9147844D01*
X-26100000Y-9147827D01*
X-26100000Y-8850000D01*
X-26850000Y-8850000D01*
X-26850000Y-10350000D01*
X-27050272Y-10350000D01*
X-27149728Y-10350000D01*
X-27241614Y-10388060D01*
X-27311940Y-10458386D01*
X-27350000Y-10550272D01*
X-28800000Y-10550272D01*
X-28800000Y-10200000D01*
X-29146000Y-10200000D01*
X-29213039Y-10180315D01*
X-29258794Y-10127511D01*
X-29270000Y-10076000D01*
X-29270000Y-9670000D01*
X-30186988Y-9670000D01*
X-30154075Y-9612993D01*
X-30120000Y-9485826D01*
X-30120000Y-9354174D01*
X-30154075Y-9227007D01*
X-30186988Y-9170000D01*
X-29270000Y-9170000D01*
X-29270000Y-9147844D01*
X-28100000Y-9147844D01*
X-28093599Y-9207372D01*
X-28093597Y-9207379D01*
X-28043355Y-9342086D01*
X-28043351Y-9342093D01*
X-27957191Y-9457187D01*
X-27899021Y-9500734D01*
X-27857151Y-9556668D01*
X-27852167Y-9626360D01*
X-27885653Y-9687683D01*
X-27899021Y-9699266D01*
X-27957191Y-9742812D01*
X-28043351Y-9857906D01*
X-28043355Y-9857913D01*
X-28093597Y-9992620D01*
X-28093599Y-9992627D01*
X-28100000Y-10052155D01*
X-28100000Y-10350000D01*
X-27350000Y-10350000D01*
X-27350000Y-8850000D01*
X-28100000Y-8850000D01*
X-28100000Y-9147844D01*
X-29270000Y-9147844D01*
X-29270000Y-8550272D01*
X-27350000Y-8550272D01*
X-27350000Y-8649728D01*
X-27311940Y-8741614D01*
X-27241614Y-8811940D01*
X-27149728Y-8850000D01*
X-27050272Y-8850000D01*
X-26958386Y-8811940D01*
X-26888060Y-8741614D01*
X-26850000Y-8649728D01*
X-26850000Y-8550272D01*
X-26888060Y-8458386D01*
X-26958386Y-8388060D01*
X-27050272Y-8350000D01*
X-26850000Y-8350000D01*
X-26100000Y-8350000D01*
X-26100000Y-8052172D01*
X-26100001Y-8052155D01*
X-26106402Y-7992627D01*
X-26106404Y-7992620D01*
X-26156646Y-7857913D01*
X-26156650Y-7857906D01*
X-26242810Y-7742812D01*
X-26242813Y-7742809D01*
X-26357907Y-7656649D01*
X-26357914Y-7656645D01*
X-26492621Y-7606403D01*
X-26492628Y-7606401D01*
X-26552156Y-7600000D01*
X-26850000Y-7600000D01*
X-26850000Y-8350000D01*
X-27050272Y-8350000D01*
X-27149728Y-8350000D01*
X-27241614Y-8388060D01*
X-27311940Y-8458386D01*
X-27350000Y-8550272D01*
X-29270000Y-8550272D01*
X-29270000Y-8522172D01*
X-29270001Y-8522155D01*
X-29276402Y-8462627D01*
X-29276404Y-8462620D01*
X-29326646Y-8327913D01*
X-29326650Y-8327906D01*
X-29412810Y-8212812D01*
X-29412813Y-8212809D01*
X-29527907Y-8126649D01*
X-29527914Y-8126645D01*
X-29662621Y-8076403D01*
X-29662628Y-8076401D01*
X-29722156Y-8070000D01*
X-30370000Y-8070000D01*
X-30370000Y-8986988D01*
X-30427007Y-8954075D01*
X-30554174Y-8920000D01*
X-30685826Y-8920000D01*
X-30812993Y-8954075D01*
X-30870000Y-8986988D01*
X-30870000Y-8070000D01*
X-31517845Y-8070000D01*
X-31577373Y-8076401D01*
X-31577380Y-8076403D01*
X-31712087Y-8126645D01*
X-31712094Y-8126649D01*
X-31827188Y-8212809D01*
X-31827191Y-8212812D01*
X-31913351Y-8327906D01*
X-31913355Y-8327913D01*
X-31963597Y-8462620D01*
X-31963599Y-8462627D01*
X-31970000Y-8522155D01*
X-31970000Y-9170000D01*
X-31053012Y-9170000D01*
X-31085925Y-9227007D01*
X-31120000Y-9354174D01*
X-31120000Y-9485826D01*
X-31085925Y-9612993D01*
X-31053012Y-9670000D01*
X-31970000Y-9670000D01*
X-31970000Y-10076000D01*
X-31989685Y-10143039D01*
X-32042489Y-10188794D01*
X-32094000Y-10200000D01*
X-32376000Y-10200000D01*
X-32443039Y-10180315D01*
X-32488794Y-10127511D01*
X-32500000Y-10076000D01*
X-32500000Y-8052155D01*
X-28100000Y-8052155D01*
X-28100000Y-8350000D01*
X-27350000Y-8350000D01*
X-27350000Y-7600000D01*
X-27647845Y-7600000D01*
X-27707373Y-7606401D01*
X-27707380Y-7606403D01*
X-27842087Y-7656645D01*
X-27842094Y-7656649D01*
X-27957188Y-7742809D01*
X-27957191Y-7742812D01*
X-28043351Y-7857906D01*
X-28043355Y-7857913D01*
X-28093597Y-7992620D01*
X-28093599Y-7992627D01*
X-28100000Y-8052155D01*
X-32500000Y-8052155D01*
X-32500000Y-7224000D01*
X-32480315Y-7156961D01*
X-32427511Y-7111206D01*
X-32376000Y-7100000D01*
X-23524000Y-7100000D01*
X-23456961Y-7119685D01*
G37*
%TD.AperFunction*%
%TD*%
%TA.AperFunction,Conductor*%
%TO.N,Net-(J102-Pin_1)*%
G36*
X-13556961Y-7119685D02*
G01*
X-13511206Y-7172489D01*
X-13500000Y-7224000D01*
X-13500000Y-10076000D01*
X-13519685Y-10143039D01*
X-13572489Y-10188794D01*
X-13624000Y-10200000D01*
X-13906000Y-10200000D01*
X-13973039Y-10180315D01*
X-14018794Y-10127511D01*
X-14030000Y-10076000D01*
X-14030000Y-9610000D01*
X-14946988Y-9610000D01*
X-14914075Y-9552993D01*
X-14880000Y-9425826D01*
X-14880000Y-9294174D01*
X-14914075Y-9167007D01*
X-14946988Y-9110000D01*
X-14030000Y-9110000D01*
X-14030000Y-8462172D01*
X-14030001Y-8462155D01*
X-14036402Y-8402627D01*
X-14036404Y-8402620D01*
X-14086646Y-8267913D01*
X-14086650Y-8267906D01*
X-14172810Y-8152812D01*
X-14172813Y-8152809D01*
X-14287907Y-8066649D01*
X-14287914Y-8066645D01*
X-14422621Y-8016403D01*
X-14422628Y-8016401D01*
X-14482156Y-8010000D01*
X-15130000Y-8010000D01*
X-15130000Y-8926988D01*
X-15187007Y-8894075D01*
X-15314174Y-8860000D01*
X-15445826Y-8860000D01*
X-15572993Y-8894075D01*
X-15630000Y-8926988D01*
X-15630000Y-8010000D01*
X-16277845Y-8010000D01*
X-16337373Y-8016401D01*
X-16337380Y-8016403D01*
X-16472087Y-8066645D01*
X-16472094Y-8066649D01*
X-16587188Y-8152809D01*
X-16587191Y-8152812D01*
X-16673351Y-8267906D01*
X-16673355Y-8267913D01*
X-16723597Y-8402620D01*
X-16723599Y-8402627D01*
X-16730000Y-8462155D01*
X-16730000Y-9110000D01*
X-15813012Y-9110000D01*
X-15845925Y-9167007D01*
X-15880000Y-9294174D01*
X-15880000Y-9425826D01*
X-15845925Y-9552993D01*
X-15813012Y-9610000D01*
X-16730000Y-9610000D01*
X-16730000Y-10076000D01*
X-16749685Y-10143039D01*
X-16802489Y-10188794D01*
X-16854000Y-10200000D01*
X-17200000Y-10200000D01*
X-17200000Y-12176000D01*
X-17219685Y-12243039D01*
X-17272489Y-12288794D01*
X-17324000Y-12300000D01*
X-20293013Y-12300000D01*
X-20360052Y-12280315D01*
X-20405807Y-12227511D01*
X-20416371Y-12163395D01*
X-20415001Y-12149981D01*
X-20415000Y-12149973D01*
X-20415000Y-12012500D01*
X-21766000Y-12012500D01*
X-21833039Y-11992815D01*
X-21878794Y-11940011D01*
X-21890000Y-11888500D01*
X-21890000Y-11512500D01*
X-21390000Y-11512500D01*
X-20415001Y-11512500D01*
X-20415001Y-11375028D01*
X-20415002Y-11375013D01*
X-20425495Y-11272302D01*
X-20466736Y-11147844D01*
X-19900000Y-11147844D01*
X-19893599Y-11207372D01*
X-19893597Y-11207379D01*
X-19843355Y-11342086D01*
X-19843351Y-11342093D01*
X-19757191Y-11457187D01*
X-19757188Y-11457190D01*
X-19642094Y-11543350D01*
X-19642087Y-11543354D01*
X-19507380Y-11593596D01*
X-19507373Y-11593598D01*
X-19447845Y-11599999D01*
X-19447828Y-11600000D01*
X-19150000Y-11600000D01*
X-18650000Y-11600000D01*
X-18352172Y-11600000D01*
X-18352156Y-11599999D01*
X-18292628Y-11593598D01*
X-18292621Y-11593596D01*
X-18157914Y-11543354D01*
X-18157907Y-11543350D01*
X-18042813Y-11457190D01*
X-18042810Y-11457187D01*
X-17956650Y-11342093D01*
X-17956646Y-11342086D01*
X-17906404Y-11207379D01*
X-17906402Y-11207372D01*
X-17900001Y-11147844D01*
X-17900000Y-11147827D01*
X-17900000Y-10850000D01*
X-18650000Y-10850000D01*
X-18650000Y-11600000D01*
X-19150000Y-11600000D01*
X-19150000Y-10850000D01*
X-19900000Y-10850000D01*
X-19900000Y-11147844D01*
X-20466736Y-11147844D01*
X-20480642Y-11105880D01*
X-20480644Y-11105875D01*
X-20572685Y-10956654D01*
X-20696655Y-10832684D01*
X-20845876Y-10740643D01*
X-20845881Y-10740641D01*
X-21012303Y-10685494D01*
X-21012310Y-10685493D01*
X-21115014Y-10675000D01*
X-21390000Y-10675000D01*
X-21390000Y-11512500D01*
X-21890000Y-11512500D01*
X-21890000Y-10675000D01*
X-22164971Y-10675000D01*
X-22164988Y-10675001D01*
X-22267699Y-10685494D01*
X-22386734Y-10724938D01*
X-22456562Y-10727340D01*
X-22507964Y-10700047D01*
X-22558227Y-10655518D01*
X-22595354Y-10596329D01*
X-22600000Y-10562703D01*
X-22600000Y-10550272D01*
X-19150000Y-10550272D01*
X-19150000Y-10649728D01*
X-19111940Y-10741614D01*
X-19041614Y-10811940D01*
X-18949728Y-10850000D01*
X-18850272Y-10850000D01*
X-18758386Y-10811940D01*
X-18688060Y-10741614D01*
X-18650000Y-10649728D01*
X-18650000Y-10550272D01*
X-18688060Y-10458386D01*
X-18758386Y-10388060D01*
X-18850272Y-10350000D01*
X-18650000Y-10350000D01*
X-17900000Y-10350000D01*
X-17900000Y-10052172D01*
X-17900001Y-10052155D01*
X-17906402Y-9992627D01*
X-17906404Y-9992620D01*
X-17956646Y-9857913D01*
X-17956650Y-9857906D01*
X-18042810Y-9742813D01*
X-18100979Y-9699267D01*
X-18142850Y-9643333D01*
X-18147834Y-9573641D01*
X-18114349Y-9512318D01*
X-18100979Y-9500733D01*
X-18042810Y-9457186D01*
X-17956650Y-9342093D01*
X-17956646Y-9342086D01*
X-17906404Y-9207379D01*
X-17906402Y-9207372D01*
X-17900001Y-9147844D01*
X-17900000Y-9147827D01*
X-17900000Y-8850000D01*
X-18650000Y-8850000D01*
X-18650000Y-10350000D01*
X-18850272Y-10350000D01*
X-18949728Y-10350000D01*
X-19041614Y-10388060D01*
X-19111940Y-10458386D01*
X-19150000Y-10550272D01*
X-22600000Y-10550272D01*
X-22600000Y-9147844D01*
X-19900000Y-9147844D01*
X-19893599Y-9207372D01*
X-19893597Y-9207379D01*
X-19843355Y-9342086D01*
X-19843351Y-9342093D01*
X-19757191Y-9457187D01*
X-19699021Y-9500734D01*
X-19657151Y-9556668D01*
X-19652167Y-9626360D01*
X-19685653Y-9687683D01*
X-19699021Y-9699266D01*
X-19757191Y-9742812D01*
X-19843351Y-9857906D01*
X-19843355Y-9857913D01*
X-19893597Y-9992620D01*
X-19893599Y-9992627D01*
X-19900000Y-10052155D01*
X-19900000Y-10350000D01*
X-19150000Y-10350000D01*
X-19150000Y-8850000D01*
X-19900000Y-8850000D01*
X-19900000Y-9147844D01*
X-22600000Y-9147844D01*
X-22600000Y-8550272D01*
X-19150000Y-8550272D01*
X-19150000Y-8649728D01*
X-19111940Y-8741614D01*
X-19041614Y-8811940D01*
X-18949728Y-8850000D01*
X-18850272Y-8850000D01*
X-18758386Y-8811940D01*
X-18688060Y-8741614D01*
X-18650000Y-8649728D01*
X-18650000Y-8550272D01*
X-18688060Y-8458386D01*
X-18758386Y-8388060D01*
X-18850272Y-8350000D01*
X-18650000Y-8350000D01*
X-17900000Y-8350000D01*
X-17900000Y-8052172D01*
X-17900001Y-8052155D01*
X-17906402Y-7992627D01*
X-17906404Y-7992620D01*
X-17956646Y-7857913D01*
X-17956650Y-7857906D01*
X-18042810Y-7742812D01*
X-18042813Y-7742809D01*
X-18157907Y-7656649D01*
X-18157914Y-7656645D01*
X-18292621Y-7606403D01*
X-18292628Y-7606401D01*
X-18352156Y-7600000D01*
X-18650000Y-7600000D01*
X-18650000Y-8350000D01*
X-18850272Y-8350000D01*
X-18949728Y-8350000D01*
X-19041614Y-8388060D01*
X-19111940Y-8458386D01*
X-19150000Y-8550272D01*
X-22600000Y-8550272D01*
X-22600000Y-8052155D01*
X-19900000Y-8052155D01*
X-19900000Y-8350000D01*
X-19150000Y-8350000D01*
X-19150000Y-7600000D01*
X-19447845Y-7600000D01*
X-19507373Y-7606401D01*
X-19507380Y-7606403D01*
X-19642087Y-7656645D01*
X-19642094Y-7656649D01*
X-19757188Y-7742809D01*
X-19757191Y-7742812D01*
X-19843351Y-7857906D01*
X-19843355Y-7857913D01*
X-19893597Y-7992620D01*
X-19893599Y-7992627D01*
X-19900000Y-8052155D01*
X-22600000Y-8052155D01*
X-22600000Y-7224000D01*
X-22580315Y-7156961D01*
X-22527511Y-7111206D01*
X-22476000Y-7100000D01*
X-13624000Y-7100000D01*
X-13556961Y-7119685D01*
G37*
%TD.AperFunction*%
%TD*%
%TA.AperFunction,Conductor*%
%TO.N,GND*%
G36*
X-22956518Y-10984714D02*
G01*
X-22904292Y-11021080D01*
X-22893435Y-11033891D01*
X-22863873Y-11060081D01*
X-22863870Y-11060083D01*
X-22826743Y-11119273D01*
X-22827511Y-11189138D01*
X-22828390Y-11191901D01*
X-22854999Y-11272204D01*
X-22855000Y-11272209D01*
X-22865500Y-11374983D01*
X-22865500Y-12150001D01*
X-22865499Y-12150019D01*
X-22855000Y-12252796D01*
X-22854999Y-12252799D01*
X-22818264Y-12363655D01*
X-22799814Y-12419334D01*
X-22707712Y-12568656D01*
X-22583656Y-12692712D01*
X-22580372Y-12694737D01*
X-22580347Y-12694753D01*
X-22578555Y-12696746D01*
X-22577989Y-12697193D01*
X-22578066Y-12697289D01*
X-22533621Y-12746699D01*
X-22522397Y-12815661D01*
X-22550239Y-12879744D01*
X-22580335Y-12905826D01*
X-22583340Y-12907679D01*
X-22583345Y-12907683D01*
X-22707316Y-13031654D01*
X-22799357Y-13180875D01*
X-22799359Y-13180880D01*
X-22854506Y-13347302D01*
X-22854507Y-13347309D01*
X-22865000Y-13450013D01*
X-22865000Y-13587500D01*
X-20415001Y-13587500D01*
X-20415001Y-13450028D01*
X-20415002Y-13450013D01*
X-20425495Y-13347302D01*
X-20480642Y-13180880D01*
X-20480644Y-13180875D01*
X-20572685Y-13031654D01*
X-20636121Y-12968218D01*
X-20669606Y-12906895D01*
X-20664622Y-12837203D01*
X-20622750Y-12781270D01*
X-20557286Y-12756853D01*
X-20506730Y-12764122D01*
X-20506720Y-12764090D01*
X-20506495Y-12764156D01*
X-20505105Y-12764356D01*
X-20502480Y-12765334D01*
X-20502472Y-12765338D01*
X-20435433Y-12785023D01*
X-20435429Y-12785024D01*
X-20293013Y-12805500D01*
X-20024500Y-12805500D01*
X-19957461Y-12825185D01*
X-19911706Y-12877989D01*
X-19900500Y-12929500D01*
X-19900500Y-13947870D01*
X-19900499Y-13947876D01*
X-19894092Y-14007483D01*
X-19843798Y-14142328D01*
X-19843794Y-14142335D01*
X-19757548Y-14257544D01*
X-19757547Y-14257544D01*
X-19757546Y-14257546D01*
X-19748128Y-14264596D01*
X-19699855Y-14300734D01*
X-19657985Y-14356668D01*
X-19653001Y-14426360D01*
X-19686487Y-14487683D01*
X-19699855Y-14499266D01*
X-19757548Y-14542455D01*
X-19843794Y-14657664D01*
X-19843798Y-14657671D01*
X-19894092Y-14792517D01*
X-19895193Y-14802763D01*
X-19900499Y-14852123D01*
X-19900500Y-14852135D01*
X-19900500Y-15208328D01*
X-19920185Y-15275367D01*
X-19972989Y-15321122D01*
X-20042147Y-15331066D01*
X-20105703Y-15302041D01*
X-20106683Y-15301183D01*
X-20166556Y-15248140D01*
X-20199151Y-15219263D01*
X-20349774Y-15140210D01*
X-20514944Y-15099500D01*
X-20685056Y-15099500D01*
X-20857508Y-15142005D01*
X-20858146Y-15139417D01*
X-20915255Y-15143811D01*
X-20952670Y-15129237D01*
X-20972230Y-15117669D01*
X-21019911Y-15066599D01*
X-21032413Y-14997857D01*
X-21005766Y-14933269D01*
X-20948429Y-14893340D01*
X-20948108Y-14893233D01*
X-20845883Y-14859359D01*
X-20845876Y-14859356D01*
X-20696655Y-14767315D01*
X-20572685Y-14643345D01*
X-20480644Y-14494124D01*
X-20480642Y-14494119D01*
X-20425495Y-14327697D01*
X-20425494Y-14327690D01*
X-20415001Y-14224986D01*
X-20415000Y-14224973D01*
X-20415000Y-14087500D01*
X-22864999Y-14087500D01*
X-22864999Y-14224986D01*
X-22854506Y-14327697D01*
X-22799359Y-14494119D01*
X-22799357Y-14494124D01*
X-22707316Y-14643345D01*
X-22583344Y-14767317D01*
X-22528170Y-14801348D01*
X-22481445Y-14853295D01*
X-22470222Y-14922258D01*
X-22498065Y-14986340D01*
X-22556134Y-15025197D01*
X-22558670Y-15025963D01*
X-22635395Y-15048254D01*
X-22635397Y-15048255D01*
X-22776863Y-15131917D01*
X-22776871Y-15131923D01*
X-22893077Y-15248129D01*
X-22893086Y-15248140D01*
X-22893271Y-15248455D01*
X-22893481Y-15248650D01*
X-22897861Y-15254298D01*
X-22898773Y-15253591D01*
X-22944343Y-15296136D01*
X-23013085Y-15308637D01*
X-23077673Y-15281988D01*
X-23101857Y-15254078D01*
X-23102139Y-15254298D01*
X-23106177Y-15249092D01*
X-23106729Y-15248455D01*
X-23106915Y-15248140D01*
X-23106924Y-15248129D01*
X-23223130Y-15131923D01*
X-23223138Y-15131917D01*
X-23364604Y-15048255D01*
X-23364605Y-15048254D01*
X-23441331Y-15025963D01*
X-23500216Y-14988356D01*
X-23529422Y-14924883D01*
X-23519676Y-14855697D01*
X-23474071Y-14802763D01*
X-23471830Y-14801347D01*
X-23416655Y-14767315D01*
X-23292685Y-14643345D01*
X-23200644Y-14494124D01*
X-23200642Y-14494119D01*
X-23145495Y-14327697D01*
X-23145494Y-14327690D01*
X-23135001Y-14224986D01*
X-23135000Y-14224973D01*
X-23135000Y-14087500D01*
X-25584999Y-14087500D01*
X-25584999Y-14224986D01*
X-25574506Y-14327697D01*
X-25519359Y-14494119D01*
X-25519357Y-14494124D01*
X-25427316Y-14643345D01*
X-25303346Y-14767315D01*
X-25154125Y-14859356D01*
X-25154118Y-14859359D01*
X-25051892Y-14893233D01*
X-24994447Y-14933005D01*
X-24967623Y-14997521D01*
X-24979938Y-15066297D01*
X-25027480Y-15117497D01*
X-25027774Y-15117671D01*
X-25047331Y-15129237D01*
X-25115055Y-15146420D01*
X-25142224Y-15140917D01*
X-25142492Y-15142005D01*
X-25314944Y-15099500D01*
X-25485056Y-15099500D01*
X-25650227Y-15140210D01*
X-25800850Y-15219264D01*
X-25893274Y-15301144D01*
X-25956508Y-15330865D01*
X-26025771Y-15321681D01*
X-26079074Y-15276508D01*
X-26099494Y-15209689D01*
X-26099501Y-15208328D01*
X-26099501Y-14852129D01*
X-26099502Y-14852123D01*
X-26099503Y-14852116D01*
X-26105909Y-14792517D01*
X-26115309Y-14767315D01*
X-26156203Y-14657671D01*
X-26156207Y-14657664D01*
X-26242453Y-14542456D01*
X-26242452Y-14542456D01*
X-26242454Y-14542454D01*
X-26300146Y-14499265D01*
X-26342016Y-14443333D01*
X-26347000Y-14373641D01*
X-26313515Y-14312318D01*
X-26300146Y-14300734D01*
X-26242454Y-14257546D01*
X-26156204Y-14142331D01*
X-26105909Y-14007483D01*
X-26099500Y-13947873D01*
X-26099501Y-12929499D01*
X-26079817Y-12862461D01*
X-26027013Y-12816706D01*
X-25975501Y-12805500D01*
X-25706980Y-12805500D01*
X-25618690Y-12793727D01*
X-25574541Y-12787841D01*
X-25511832Y-12770816D01*
X-25498645Y-12765276D01*
X-25429217Y-12757462D01*
X-25366582Y-12788424D01*
X-25330630Y-12848335D01*
X-25332776Y-12918171D01*
X-25362942Y-12967281D01*
X-25427318Y-13031657D01*
X-25519357Y-13180875D01*
X-25519359Y-13180880D01*
X-25574506Y-13347302D01*
X-25574507Y-13347309D01*
X-25585000Y-13450013D01*
X-25585000Y-13587500D01*
X-23135001Y-13587500D01*
X-23135001Y-13450028D01*
X-23135002Y-13450013D01*
X-23145495Y-13347302D01*
X-23200642Y-13180880D01*
X-23200644Y-13180875D01*
X-23292685Y-13031654D01*
X-23416656Y-12907683D01*
X-23416659Y-12907681D01*
X-23419661Y-12905829D01*
X-23421287Y-12904021D01*
X-23422323Y-12903202D01*
X-23422183Y-12903024D01*
X-23466383Y-12853880D01*
X-23477603Y-12784917D01*
X-23449757Y-12720836D01*
X-23419656Y-12694754D01*
X-23416344Y-12692712D01*
X-23292288Y-12568656D01*
X-23200186Y-12419334D01*
X-23145001Y-12252797D01*
X-23134500Y-12150009D01*
X-23134501Y-11374992D01*
X-23145001Y-11272203D01*
X-23171612Y-11191900D01*
X-23174013Y-11122074D01*
X-23138282Y-11062032D01*
X-23136193Y-11060137D01*
X-23106565Y-11033890D01*
X-23087289Y-11014293D01*
X-23026248Y-10980306D01*
X-22956518Y-10984714D01*
G37*
%TD.AperFunction*%
%TA.AperFunction,Conductor*%
G36*
X-10557461Y-5520185D02*
G01*
X-10511706Y-5572989D01*
X-10500500Y-5624500D01*
X-10500500Y-22375500D01*
X-10520185Y-22442539D01*
X-10572989Y-22488294D01*
X-10624500Y-22499500D01*
X-35375500Y-22499500D01*
X-35442539Y-22479815D01*
X-35488294Y-22427011D01*
X-35499500Y-22375500D01*
X-35499500Y-7224000D01*
X-33005500Y-7224000D01*
X-33005500Y-8664500D01*
X-33005500Y-10076000D01*
X-33005499Y-10076009D01*
X-32993948Y-10183450D01*
X-32993946Y-10183462D01*
X-32982740Y-10234972D01*
X-32948617Y-10337497D01*
X-32948614Y-10337503D01*
X-32870829Y-10458537D01*
X-32870821Y-10458548D01*
X-32825077Y-10511340D01*
X-32825074Y-10511343D01*
X-32825070Y-10511347D01*
X-32716336Y-10605567D01*
X-32716333Y-10605568D01*
X-32716332Y-10605569D01*
X-32599386Y-10658978D01*
X-32585459Y-10665338D01*
X-32518420Y-10685023D01*
X-32518416Y-10685024D01*
X-32376000Y-10705500D01*
X-32375997Y-10705500D01*
X-32094010Y-10705500D01*
X-32094000Y-10705500D01*
X-31986544Y-10693947D01*
X-31935033Y-10682741D01*
X-31871134Y-10661472D01*
X-31801311Y-10658978D01*
X-31757664Y-10679860D01*
X-31712332Y-10713795D01*
X-31712329Y-10713797D01*
X-31580919Y-10762810D01*
X-31524985Y-10804681D01*
X-31500568Y-10870145D01*
X-31515420Y-10938418D01*
X-31536570Y-10966673D01*
X-31658497Y-11088600D01*
X-31794035Y-11282169D01*
X-31794036Y-11282171D01*
X-31893902Y-11496335D01*
X-31893906Y-11496344D01*
X-31955062Y-11724586D01*
X-31955064Y-11724596D01*
X-31975659Y-11959999D01*
X-31975659Y-11960000D01*
X-31955064Y-12195403D01*
X-31955062Y-12195413D01*
X-31893906Y-12423655D01*
X-31893904Y-12423659D01*
X-31893903Y-12423663D01*
X-31822012Y-12577834D01*
X-31794035Y-12637830D01*
X-31794033Y-12637834D01*
X-31690969Y-12785023D01*
X-31668785Y-12816706D01*
X-31658499Y-12831395D01*
X-31658494Y-12831402D01*
X-31491403Y-12998493D01*
X-31491397Y-12998498D01*
X-31305842Y-13128425D01*
X-31262217Y-13183002D01*
X-31255023Y-13252500D01*
X-31286546Y-13314855D01*
X-31305842Y-13331575D01*
X-31491403Y-13461505D01*
X-31658495Y-13628597D01*
X-31794035Y-13822169D01*
X-31794036Y-13822171D01*
X-31893902Y-14036335D01*
X-31893906Y-14036344D01*
X-31955062Y-14264586D01*
X-31955064Y-14264596D01*
X-31975659Y-14499999D01*
X-31975659Y-14500000D01*
X-31955064Y-14735403D01*
X-31955062Y-14735413D01*
X-31893906Y-14963655D01*
X-31893904Y-14963659D01*
X-31893903Y-14963663D01*
X-31794035Y-15177830D01*
X-31794033Y-15177834D01*
X-31658499Y-15371395D01*
X-31658494Y-15371402D01*
X-31491403Y-15538493D01*
X-31491397Y-15538498D01*
X-31305842Y-15668425D01*
X-31262217Y-15723002D01*
X-31255023Y-15792500D01*
X-31286546Y-15854855D01*
X-31305842Y-15871575D01*
X-31491403Y-16001505D01*
X-31658495Y-16168597D01*
X-31794035Y-16362169D01*
X-31794036Y-16362171D01*
X-31893902Y-16576335D01*
X-31893906Y-16576344D01*
X-31955062Y-16804586D01*
X-31955064Y-16804596D01*
X-31975659Y-17039999D01*
X-31975659Y-17040000D01*
X-31955064Y-17275403D01*
X-31955062Y-17275413D01*
X-31893906Y-17503655D01*
X-31893904Y-17503659D01*
X-31893903Y-17503663D01*
X-31822012Y-17657834D01*
X-31794035Y-17717830D01*
X-31794033Y-17717834D01*
X-31700507Y-17851402D01*
X-31658495Y-17911401D01*
X-31491401Y-18078495D01*
X-31310338Y-18205277D01*
X-31305406Y-18208730D01*
X-31261781Y-18263307D01*
X-31254587Y-18332805D01*
X-31286110Y-18395160D01*
X-31305405Y-18411880D01*
X-31491078Y-18541890D01*
X-31491080Y-18541891D01*
X-31658109Y-18708920D01*
X-31658114Y-18708926D01*
X-31793600Y-18902420D01*
X-31793601Y-18902422D01*
X-31893430Y-19116507D01*
X-31893433Y-19116513D01*
X-31950636Y-19329999D01*
X-31950636Y-19330000D01*
X-31053012Y-19330000D01*
X-31085925Y-19387007D01*
X-31120000Y-19514174D01*
X-31120000Y-19645826D01*
X-31085925Y-19772993D01*
X-31053012Y-19830000D01*
X-31950636Y-19830000D01*
X-31893433Y-20043486D01*
X-31893430Y-20043492D01*
X-31793601Y-20257578D01*
X-31658106Y-20451082D01*
X-31491083Y-20618105D01*
X-31297579Y-20753600D01*
X-31083493Y-20853429D01*
X-31083484Y-20853433D01*
X-30870000Y-20910634D01*
X-30870000Y-20013012D01*
X-30812993Y-20045925D01*
X-30685826Y-20080000D01*
X-30554174Y-20080000D01*
X-30427007Y-20045925D01*
X-30370000Y-20013012D01*
X-30370000Y-20910633D01*
X-30156517Y-20853433D01*
X-30156508Y-20853429D01*
X-29942422Y-20753600D01*
X-29934202Y-20747844D01*
X-28100000Y-20747844D01*
X-28093599Y-20807372D01*
X-28093597Y-20807379D01*
X-28043355Y-20942086D01*
X-28043351Y-20942093D01*
X-27957191Y-21057187D01*
X-27957188Y-21057190D01*
X-27842094Y-21143350D01*
X-27842087Y-21143354D01*
X-27707380Y-21193596D01*
X-27707373Y-21193598D01*
X-27647845Y-21199999D01*
X-27647828Y-21200000D01*
X-27350000Y-21200000D01*
X-26850000Y-21200000D01*
X-26552172Y-21200000D01*
X-26552156Y-21199999D01*
X-26492628Y-21193598D01*
X-26492621Y-21193596D01*
X-26357914Y-21143354D01*
X-26357907Y-21143350D01*
X-26242813Y-21057190D01*
X-26242810Y-21057187D01*
X-26156650Y-20942093D01*
X-26156646Y-20942086D01*
X-26121496Y-20847844D01*
X-19900000Y-20847844D01*
X-19893599Y-20907372D01*
X-19893597Y-20907379D01*
X-19843355Y-21042086D01*
X-19843351Y-21042093D01*
X-19757191Y-21157187D01*
X-19757188Y-21157190D01*
X-19642094Y-21243350D01*
X-19642087Y-21243354D01*
X-19507380Y-21293596D01*
X-19507373Y-21293598D01*
X-19447845Y-21299999D01*
X-19447828Y-21300000D01*
X-19150000Y-21300000D01*
X-18650000Y-21300000D01*
X-18352172Y-21300000D01*
X-18352156Y-21299999D01*
X-18292628Y-21293598D01*
X-18292621Y-21293596D01*
X-18157914Y-21243354D01*
X-18157907Y-21243350D01*
X-18042813Y-21157190D01*
X-18042810Y-21157187D01*
X-17956650Y-21042093D01*
X-17956646Y-21042086D01*
X-17906404Y-20907379D01*
X-17906402Y-20907372D01*
X-17900001Y-20847844D01*
X-17900000Y-20847827D01*
X-17900000Y-20550000D01*
X-18650000Y-20550000D01*
X-18650000Y-21300000D01*
X-19150000Y-21300000D01*
X-19150000Y-20550000D01*
X-19900000Y-20550000D01*
X-19900000Y-20847844D01*
X-26121496Y-20847844D01*
X-26106404Y-20807379D01*
X-26106402Y-20807372D01*
X-26100001Y-20747844D01*
X-26100000Y-20747827D01*
X-26100000Y-20450000D01*
X-26850000Y-20450000D01*
X-26850000Y-21200000D01*
X-27350000Y-21200000D01*
X-27350000Y-20450000D01*
X-28100000Y-20450000D01*
X-28100000Y-20747844D01*
X-29934202Y-20747844D01*
X-29748918Y-20618105D01*
X-29581895Y-20451082D01*
X-29446400Y-20257578D01*
X-29396363Y-20150272D01*
X-27350000Y-20150272D01*
X-27350000Y-20249728D01*
X-27311940Y-20341614D01*
X-27241614Y-20411940D01*
X-27149728Y-20450000D01*
X-27050272Y-20450000D01*
X-26958386Y-20411940D01*
X-26888060Y-20341614D01*
X-26850225Y-20250272D01*
X-19150000Y-20250272D01*
X-19150000Y-20349728D01*
X-19111940Y-20441614D01*
X-19041614Y-20511940D01*
X-18949728Y-20550000D01*
X-18850272Y-20550000D01*
X-18758386Y-20511940D01*
X-18688060Y-20441614D01*
X-18650000Y-20349728D01*
X-18650000Y-20250272D01*
X-18688060Y-20158386D01*
X-18758386Y-20088060D01*
X-18850272Y-20050000D01*
X-18650000Y-20050000D01*
X-17900000Y-20050000D01*
X-17900000Y-19752172D01*
X-17900001Y-19752155D01*
X-17906402Y-19692627D01*
X-17906404Y-19692620D01*
X-17956646Y-19557913D01*
X-17956650Y-19557906D01*
X-18042810Y-19442812D01*
X-18042813Y-19442809D01*
X-18157907Y-19356649D01*
X-18157914Y-19356645D01*
X-18292621Y-19306403D01*
X-18292628Y-19306401D01*
X-18352156Y-19300000D01*
X-18650000Y-19300000D01*
X-18650000Y-20050000D01*
X-18850272Y-20050000D01*
X-18949728Y-20050000D01*
X-19041614Y-20088060D01*
X-19111940Y-20158386D01*
X-19150000Y-20250272D01*
X-26850225Y-20250272D01*
X-26850000Y-20249728D01*
X-26850000Y-20150272D01*
X-26888060Y-20058386D01*
X-26958386Y-19988060D01*
X-27050272Y-19950000D01*
X-26850000Y-19950000D01*
X-26100000Y-19950000D01*
X-26100000Y-19752155D01*
X-19900000Y-19752155D01*
X-19900000Y-20050000D01*
X-19150000Y-20050000D01*
X-19150000Y-19300000D01*
X-19447845Y-19300000D01*
X-19507373Y-19306401D01*
X-19507380Y-19306403D01*
X-19642087Y-19356645D01*
X-19642094Y-19356649D01*
X-19757188Y-19442809D01*
X-19757191Y-19442812D01*
X-19843351Y-19557906D01*
X-19843355Y-19557913D01*
X-19893597Y-19692620D01*
X-19893599Y-19692627D01*
X-19900000Y-19752155D01*
X-26100000Y-19752155D01*
X-26100000Y-19652172D01*
X-26100001Y-19652155D01*
X-26106402Y-19592627D01*
X-26106404Y-19592620D01*
X-26156646Y-19457913D01*
X-26156650Y-19457906D01*
X-26242810Y-19342812D01*
X-26242813Y-19342809D01*
X-26357907Y-19256649D01*
X-26357914Y-19256645D01*
X-26492621Y-19206403D01*
X-26492628Y-19206401D01*
X-26552156Y-19200000D01*
X-26850000Y-19200000D01*
X-26850000Y-19950000D01*
X-27050272Y-19950000D01*
X-27149728Y-19950000D01*
X-27241614Y-19988060D01*
X-27311940Y-20058386D01*
X-27350000Y-20150272D01*
X-29396363Y-20150272D01*
X-29346571Y-20043492D01*
X-29346568Y-20043486D01*
X-29289364Y-19830000D01*
X-30186988Y-19830000D01*
X-30154075Y-19772993D01*
X-30121696Y-19652155D01*
X-28100000Y-19652155D01*
X-28100000Y-19950000D01*
X-27350000Y-19950000D01*
X-27350000Y-19200000D01*
X-27647845Y-19200000D01*
X-27707373Y-19206401D01*
X-27707380Y-19206403D01*
X-27842087Y-19256645D01*
X-27842094Y-19256649D01*
X-27957188Y-19342809D01*
X-27957191Y-19342812D01*
X-28043351Y-19457906D01*
X-28043355Y-19457913D01*
X-28093597Y-19592620D01*
X-28093599Y-19592627D01*
X-28100000Y-19652155D01*
X-30121696Y-19652155D01*
X-30120000Y-19645826D01*
X-30120000Y-19514174D01*
X-30154075Y-19387007D01*
X-30186988Y-19330000D01*
X-29289364Y-19330000D01*
X-29289365Y-19329999D01*
X-29346568Y-19116513D01*
X-29346571Y-19116507D01*
X-29446400Y-18902422D01*
X-29446401Y-18902420D01*
X-29581887Y-18708926D01*
X-29581892Y-18708920D01*
X-29748922Y-18541890D01*
X-29934595Y-18411879D01*
X-29978220Y-18357302D01*
X-29985412Y-18287804D01*
X-29953890Y-18225449D01*
X-29934594Y-18208730D01*
X-29748599Y-18078495D01*
X-29581505Y-17911401D01*
X-29463853Y-17743377D01*
X-29409276Y-17699752D01*
X-29362278Y-17690500D01*
X-29280808Y-17690500D01*
X-29213769Y-17710185D01*
X-29193127Y-17726819D01*
X-29014675Y-17905272D01*
X-29014668Y-17905278D01*
X-28943890Y-17952570D01*
X-28943889Y-17952570D01*
X-28908134Y-17976461D01*
X-28908128Y-17976464D01*
X-28908127Y-17976465D01*
X-28789744Y-18025501D01*
X-28789740Y-18025501D01*
X-28789739Y-18025502D01*
X-28664072Y-18050500D01*
X-28664069Y-18050500D01*
X-28164141Y-18050500D01*
X-28097102Y-18070185D01*
X-28051347Y-18122989D01*
X-28047970Y-18131140D01*
X-28043796Y-18142331D01*
X-28043795Y-18142332D01*
X-28043794Y-18142335D01*
X-27957548Y-18257544D01*
X-27957545Y-18257547D01*
X-27842336Y-18343793D01*
X-27842329Y-18343797D01*
X-27707483Y-18394091D01*
X-27707484Y-18394091D01*
X-27700556Y-18394835D01*
X-27647873Y-18400500D01*
X-26552128Y-18400499D01*
X-26492517Y-18394091D01*
X-26357669Y-18343796D01*
X-26242454Y-18257546D01*
X-26208319Y-18211946D01*
X-26152386Y-18170075D01*
X-26082694Y-18165091D01*
X-26021371Y-18198576D01*
X-26014674Y-18205273D01*
X-26014671Y-18205275D01*
X-26014669Y-18205277D01*
X-25908127Y-18276465D01*
X-25789744Y-18325501D01*
X-25789740Y-18325501D01*
X-25789739Y-18325502D01*
X-25664072Y-18350500D01*
X-25664069Y-18350500D01*
X-25115516Y-18350500D01*
X-25052395Y-18367768D01*
X-25006077Y-18395160D01*
X-24910398Y-18451744D01*
X-24868776Y-18463836D01*
X-24752574Y-18497597D01*
X-24752571Y-18497597D01*
X-24752569Y-18497598D01*
X-24715694Y-18500500D01*
X-24715686Y-18500500D01*
X-23559314Y-18500500D01*
X-23559306Y-18500500D01*
X-23522431Y-18497598D01*
X-23522429Y-18497597D01*
X-23522427Y-18497597D01*
X-23468364Y-18481890D01*
X-23364602Y-18451744D01*
X-23223135Y-18368081D01*
X-23106919Y-18251865D01*
X-23106733Y-18251549D01*
X-23106523Y-18251353D01*
X-23102139Y-18245702D01*
X-23101228Y-18246409D01*
X-23055664Y-18203866D01*
X-22986923Y-18191362D01*
X-22922333Y-18218006D01*
X-22898145Y-18245921D01*
X-22897861Y-18245702D01*
X-22893821Y-18250911D01*
X-22893268Y-18251548D01*
X-22893081Y-18251865D01*
X-22893079Y-18251867D01*
X-22893077Y-18251870D01*
X-22776871Y-18368076D01*
X-22776867Y-18368079D01*
X-22776865Y-18368081D01*
X-22635398Y-18451744D01*
X-22593776Y-18463836D01*
X-22477574Y-18497597D01*
X-22477571Y-18497597D01*
X-22477569Y-18497598D01*
X-22440694Y-18500500D01*
X-22440686Y-18500500D01*
X-21284314Y-18500500D01*
X-21284306Y-18500500D01*
X-21247431Y-18497598D01*
X-21247429Y-18497597D01*
X-21247427Y-18497597D01*
X-21193364Y-18481890D01*
X-21089602Y-18451744D01*
X-20986095Y-18390529D01*
X-20947605Y-18367768D01*
X-20884484Y-18350500D01*
X-20235929Y-18350500D01*
X-20146975Y-18332805D01*
X-20110256Y-18325501D01*
X-19991873Y-18276465D01*
X-19991873Y-18276464D01*
X-19991871Y-18276464D01*
X-19923957Y-18231086D01*
X-19857280Y-18210208D01*
X-19789900Y-18228693D01*
X-19764482Y-18251939D01*
X-19763817Y-18251275D01*
X-19757545Y-18257547D01*
X-19642336Y-18343793D01*
X-19642329Y-18343797D01*
X-19507483Y-18394091D01*
X-19507484Y-18394091D01*
X-19500556Y-18394835D01*
X-19447873Y-18400500D01*
X-18352128Y-18400499D01*
X-18292517Y-18394091D01*
X-18157669Y-18343796D01*
X-18042454Y-18257546D01*
X-17956204Y-18142331D01*
X-17952040Y-18131165D01*
X-17910171Y-18075234D01*
X-17844707Y-18050816D01*
X-17835859Y-18050500D01*
X-17435929Y-18050500D01*
X-17334638Y-18030351D01*
X-17310256Y-18025501D01*
X-17191873Y-17976465D01*
X-17156111Y-17952570D01*
X-17156110Y-17952570D01*
X-17094498Y-17911402D01*
X-17085331Y-17905277D01*
X-16846873Y-17666819D01*
X-16785550Y-17633334D01*
X-16759192Y-17630500D01*
X-16637722Y-17630500D01*
X-16570683Y-17650185D01*
X-16536147Y-17683377D01*
X-16418499Y-17851396D01*
X-16418494Y-17851402D01*
X-16251403Y-18018493D01*
X-16251397Y-18018498D01*
X-16065406Y-18148730D01*
X-16021781Y-18203307D01*
X-16014587Y-18272805D01*
X-16046110Y-18335160D01*
X-16065405Y-18351880D01*
X-16251078Y-18481890D01*
X-16251080Y-18481891D01*
X-16418109Y-18648920D01*
X-16418114Y-18648926D01*
X-16553600Y-18842420D01*
X-16553601Y-18842422D01*
X-16653430Y-19056507D01*
X-16653433Y-19056513D01*
X-16710636Y-19269999D01*
X-16710636Y-19270000D01*
X-15813012Y-19270000D01*
X-15845925Y-19327007D01*
X-15880000Y-19454174D01*
X-15880000Y-19585826D01*
X-15845925Y-19712993D01*
X-15813012Y-19770000D01*
X-16710636Y-19770000D01*
X-16653433Y-19983486D01*
X-16653430Y-19983492D01*
X-16553601Y-20197578D01*
X-16418106Y-20391082D01*
X-16251083Y-20558105D01*
X-16057579Y-20693600D01*
X-15843493Y-20793429D01*
X-15843484Y-20793433D01*
X-15630000Y-20850634D01*
X-15630000Y-19953012D01*
X-15572993Y-19985925D01*
X-15445826Y-20020000D01*
X-15314174Y-20020000D01*
X-15187007Y-19985925D01*
X-15130000Y-19953012D01*
X-15130000Y-20850633D01*
X-14916517Y-20793433D01*
X-14916508Y-20793429D01*
X-14702422Y-20693600D01*
X-14508918Y-20558105D01*
X-14341895Y-20391082D01*
X-14206400Y-20197578D01*
X-14106571Y-19983492D01*
X-14106568Y-19983486D01*
X-14049364Y-19770000D01*
X-14946988Y-19770000D01*
X-14914075Y-19712993D01*
X-14880000Y-19585826D01*
X-14880000Y-19454174D01*
X-14914075Y-19327007D01*
X-14946988Y-19270000D01*
X-14049364Y-19270000D01*
X-14049365Y-19269999D01*
X-14106568Y-19056513D01*
X-14106571Y-19056507D01*
X-14206400Y-18842422D01*
X-14206401Y-18842420D01*
X-14341887Y-18648926D01*
X-14341892Y-18648920D01*
X-14508922Y-18481890D01*
X-14694595Y-18351879D01*
X-14738220Y-18297302D01*
X-14745412Y-18227804D01*
X-14713890Y-18165449D01*
X-14694594Y-18148730D01*
X-14603708Y-18085091D01*
X-14508599Y-18018495D01*
X-14341505Y-17851401D01*
X-14205965Y-17657830D01*
X-14106097Y-17443663D01*
X-14044937Y-17215408D01*
X-14024341Y-16980000D01*
X-14044937Y-16744592D01*
X-14091374Y-16571285D01*
X-14106095Y-16516344D01*
X-14106096Y-16516343D01*
X-14106097Y-16516337D01*
X-14205965Y-16302171D01*
X-14206971Y-16300733D01*
X-14341506Y-16108597D01*
X-14508598Y-15941506D01*
X-14508604Y-15941501D01*
X-14694158Y-15811575D01*
X-14737783Y-15756998D01*
X-14744977Y-15687500D01*
X-14713454Y-15625145D01*
X-14694158Y-15608425D01*
X-14585538Y-15532368D01*
X-14508599Y-15478495D01*
X-14341505Y-15311401D01*
X-14205965Y-15117830D01*
X-14106097Y-14903663D01*
X-14044937Y-14675408D01*
X-14024341Y-14440000D01*
X-14044937Y-14204592D01*
X-14106097Y-13976337D01*
X-14205965Y-13762171D01*
X-14299492Y-13628599D01*
X-14341506Y-13568597D01*
X-14508598Y-13401506D01*
X-14508604Y-13401501D01*
X-14694158Y-13271575D01*
X-14737783Y-13216998D01*
X-14744977Y-13147500D01*
X-14713454Y-13085145D01*
X-14694158Y-13068425D01*
X-14549710Y-12967281D01*
X-14508599Y-12938495D01*
X-14341505Y-12771401D01*
X-14205965Y-12577830D01*
X-14106097Y-12363663D01*
X-14044937Y-12135408D01*
X-14024341Y-11900000D01*
X-14044937Y-11664592D01*
X-14106097Y-11436337D01*
X-14205965Y-11222171D01*
X-14227159Y-11191903D01*
X-14341504Y-11028600D01*
X-14389798Y-10980306D01*
X-14463433Y-10906671D01*
X-14496916Y-10845351D01*
X-14491932Y-10775659D01*
X-14450061Y-10719725D01*
X-14419085Y-10702810D01*
X-14335184Y-10671518D01*
X-14287671Y-10653797D01*
X-14279888Y-10649547D01*
X-14278726Y-10651675D01*
X-14225453Y-10631793D01*
X-14165071Y-10642680D01*
X-14115459Y-10665338D01*
X-14048420Y-10685023D01*
X-14048416Y-10685024D01*
X-13906000Y-10705500D01*
X-13905997Y-10705500D01*
X-13624010Y-10705500D01*
X-13624000Y-10705500D01*
X-13516544Y-10693947D01*
X-13465033Y-10682741D01*
X-13430803Y-10671347D01*
X-13362503Y-10648616D01*
X-13362499Y-10648613D01*
X-13362496Y-10648613D01*
X-13241457Y-10570825D01*
X-13188653Y-10525070D01*
X-13094433Y-10416336D01*
X-13034662Y-10285459D01*
X-13014977Y-10218420D01*
X-13014976Y-10218416D01*
X-12994500Y-10076000D01*
X-12994500Y-7224000D01*
X-13006053Y-7116544D01*
X-13017259Y-7065033D01*
X-13017363Y-7064722D01*
X-13051384Y-6962502D01*
X-13051387Y-6962496D01*
X-13129172Y-6841462D01*
X-13129175Y-6841457D01*
X-13156363Y-6810080D01*
X-13174924Y-6788659D01*
X-13174928Y-6788656D01*
X-13174930Y-6788653D01*
X-13283664Y-6694433D01*
X-13283667Y-6694431D01*
X-13283669Y-6694430D01*
X-13414535Y-6634664D01*
X-13414540Y-6634662D01*
X-13414541Y-6634662D01*
X-13481580Y-6614977D01*
X-13481578Y-6614977D01*
X-13481583Y-6614976D01*
X-13543653Y-6606052D01*
X-13624000Y-6594500D01*
X-22476000Y-6594500D01*
X-22476009Y-6594500D01*
X-22476010Y-6594501D01*
X-22583451Y-6606052D01*
X-22583463Y-6606054D01*
X-22634973Y-6617260D01*
X-22737498Y-6651383D01*
X-22737504Y-6651386D01*
X-22858538Y-6729171D01*
X-22858542Y-6729173D01*
X-22911355Y-6774936D01*
X-22913026Y-6776608D01*
X-22913720Y-6776986D01*
X-22914693Y-6777830D01*
X-22914877Y-6777618D01*
X-22974356Y-6810080D01*
X-23044047Y-6805081D01*
X-23081891Y-6782621D01*
X-23183664Y-6694433D01*
X-23183667Y-6694431D01*
X-23183669Y-6694430D01*
X-23314535Y-6634664D01*
X-23314540Y-6634662D01*
X-23314541Y-6634662D01*
X-23381580Y-6614977D01*
X-23381578Y-6614977D01*
X-23381583Y-6614976D01*
X-23443653Y-6606052D01*
X-23524000Y-6594500D01*
X-32376000Y-6594500D01*
X-32376009Y-6594500D01*
X-32376010Y-6594501D01*
X-32483451Y-6606052D01*
X-32483463Y-6606054D01*
X-32534973Y-6617260D01*
X-32637498Y-6651383D01*
X-32637504Y-6651386D01*
X-32758538Y-6729171D01*
X-32758549Y-6729179D01*
X-32811341Y-6774923D01*
X-32905567Y-6883664D01*
X-32905570Y-6883668D01*
X-32965336Y-7014534D01*
X-32985024Y-7081582D01*
X-32990051Y-7116549D01*
X-33005500Y-7224000D01*
X-35499500Y-7224000D01*
X-35499500Y-5624500D01*
X-35479815Y-5557461D01*
X-35427011Y-5511706D01*
X-35375500Y-5500500D01*
X-10624500Y-5500500D01*
X-10557461Y-5520185D01*
G37*
%TD.AperFunction*%
%TD*%
D21*
X-13000000Y-6000000D03*
X-17000000Y-22000000D03*
X-35000000Y-8000000D03*
X-35000000Y-10000000D03*
X-35000000Y-12000000D03*
X-35000000Y-14000000D03*
X-35000000Y-16000000D03*
X-35000000Y-18000000D03*
X-35000000Y-20000000D03*
X-35000000Y-22000000D03*
X-33000000Y-22000000D03*
X-31000000Y-22000000D03*
X-29000000Y-22000000D03*
X-27000000Y-22000000D03*
X-25000000Y-22000000D03*
X-23000000Y-22000000D03*
X-21000000Y-22000000D03*
X-19000000Y-22000000D03*
X-15000000Y-22000000D03*
X-13000000Y-22000000D03*
X-11000000Y-22000000D03*
X-11000000Y-20000000D03*
X-11000000Y-18000000D03*
X-11000000Y-16000000D03*
X-11000000Y-14000000D03*
X-11000000Y-12000000D03*
X-11000000Y-10000000D03*
X-11000000Y-8000000D03*
X-11000000Y-6000000D03*
X-15000000Y-6000000D03*
X-17000000Y-6000000D03*
X-19000000Y-6000000D03*
X-21000000Y-6000000D03*
X-23000000Y-6000000D03*
X-25000000Y-6000000D03*
X-27000000Y-6000000D03*
X-29000000Y-6000000D03*
X-31000000Y-6000000D03*
X-33000000Y-6000000D03*
X-35000000Y-6000000D03*
D22*
X-20500000Y-13840380D03*
X-23000000Y-11200000D03*
X-25437500Y-13837500D03*
X-23000000Y-14800000D03*
X-25800000Y-13100000D03*
X-20200000Y-13100000D03*
X-25400000Y-15800000D03*
X-20600000Y-15800000D03*
D23*
X-27100000Y-13400000D03*
X-27100000Y-10600000D03*
X-18900000Y-10600000D03*
X-18900000Y-8600000D03*
X-27100000Y-17400000D03*
X-18900000Y-17400000D03*
X-18900000Y-13400000D03*
X-27100000Y-20200000D03*
X-18900000Y-15400000D03*
X-15380000Y-19520000D03*
X-15380000Y-16980000D03*
X-15380000Y-14440000D03*
X-15380000Y-11900000D03*
X-15380000Y-9360000D03*
X-18900000Y-20300000D03*
X-27100000Y-15400000D03*
X-30620000Y-19580000D03*
X-30620000Y-17040000D03*
X-30620000Y-14500000D03*
X-30620000Y-11960000D03*
X-30620000Y-9420000D03*
X-27100000Y-8600000D03*
M02*
