%TF.GenerationSoftware,KiCad,Pcbnew,8.0.3*%
%TF.CreationDate,2024-08-11T06:13:30+12:00*%
%TF.ProjectId,soic-8,736f6963-2d38-42e6-9b69-6361645f7063,rev?*%
%TF.SameCoordinates,Original*%
%TF.FileFunction,Legend,Top*%
%TF.FilePolarity,Positive*%
%FSLAX46Y46*%
G04 Gerber Fmt 4.6, Leading zero omitted, Abs format (unit mm)*
G04 Created by KiCad (PCBNEW 8.0.3) date 2024-08-11 06:13:30*
%MOMM*%
%LPD*%
G01*
G04 APERTURE LIST*
%ADD10C,0.120000*%
%ADD11C,0.000000*%
%ADD12C,0.350000*%
%ADD13C,0.200000*%
G04 APERTURE END LIST*
D10*
%TO.C,TP105*%
X-29200000Y-13100000D02*
X-27800000Y-13100000D01*
X-29200000Y-14500000D02*
X-29200000Y-13100000D01*
X-27800000Y-13100000D02*
X-27800000Y-14500000D01*
X-27800000Y-14500000D02*
X-29200000Y-14500000D01*
%TO.C,C101*%
X-25095000Y-12538748D02*
X-25095000Y-13061252D01*
X-23625000Y-12538748D02*
X-23625000Y-13061252D01*
D11*
%TO.C,kibuzzard-66A68BCE*%
G36*
X-34315024Y-21752504D02*
G01*
X-34262036Y-21812601D01*
X-34234895Y-21899192D01*
X-34227141Y-22000000D01*
X-34229564Y-22057027D01*
X-34236834Y-22109208D01*
X-34269144Y-22195153D01*
X-34328595Y-22252019D01*
X-34419709Y-22272698D01*
X-34433926Y-22272698D01*
X-34448142Y-22271405D01*
X-34448142Y-21733764D01*
X-34424879Y-21730533D01*
X-34401616Y-21729887D01*
X-34315024Y-21752504D01*
G37*
G36*
X-33909288Y-21484942D02*
G01*
X-33810774Y-21514826D01*
X-33719983Y-21563355D01*
X-33640404Y-21628664D01*
X-33575095Y-21708243D01*
X-33526566Y-21799035D01*
X-33496682Y-21897549D01*
X-33486591Y-22000000D01*
X-33496682Y-22102451D01*
X-33526566Y-22200965D01*
X-33575095Y-22291757D01*
X-33640404Y-22371336D01*
X-33719983Y-22436645D01*
X-33810774Y-22485174D01*
X-33909288Y-22515058D01*
X-34011739Y-22525148D01*
X-34065590Y-22525148D01*
X-34436511Y-22525148D01*
X-34864297Y-22525148D01*
X-35607431Y-22525148D01*
X-35934410Y-22525148D01*
X-35988261Y-22525148D01*
X-36090712Y-22515058D01*
X-36189226Y-22485174D01*
X-36280017Y-22436645D01*
X-36359596Y-22371336D01*
X-36424905Y-22291757D01*
X-36473434Y-22200965D01*
X-36503318Y-22102451D01*
X-36513409Y-22000000D01*
X-35934410Y-22000000D01*
X-35928595Y-22097092D01*
X-35911147Y-22181583D01*
X-35883037Y-22253312D01*
X-35845234Y-22312116D01*
X-35798223Y-22357997D01*
X-35742488Y-22390953D01*
X-35678675Y-22410824D01*
X-35607431Y-22417447D01*
X-35528433Y-22414216D01*
X-35462036Y-22404523D01*
X-35447282Y-22400646D01*
X-35263651Y-22400646D01*
X-35120194Y-22400646D01*
X-35120194Y-21869467D01*
X-35072159Y-21958140D01*
X-35026279Y-22046670D01*
X-34982553Y-22135057D01*
X-34940980Y-22223443D01*
X-34901562Y-22311973D01*
X-34864297Y-22400646D01*
X-34736349Y-22400646D01*
X-34736349Y-21610985D01*
X-34607108Y-21610985D01*
X-34607108Y-22391599D01*
X-34519871Y-22406462D01*
X-34436511Y-22410985D01*
X-34358481Y-22405331D01*
X-34287237Y-22388368D01*
X-34224071Y-22359128D01*
X-34170275Y-22316640D01*
X-34126494Y-22260258D01*
X-34093376Y-22189338D01*
X-34072536Y-22102908D01*
X-34065590Y-22000000D01*
X-34071890Y-21899354D01*
X-34090792Y-21814540D01*
X-34121002Y-21744426D01*
X-34161228Y-21687884D01*
X-34211470Y-21644750D01*
X-34271729Y-21614863D01*
X-34340388Y-21597415D01*
X-34415832Y-21591599D01*
X-34505008Y-21595477D01*
X-34607108Y-21610985D01*
X-34736349Y-21610985D01*
X-34736349Y-21600646D01*
X-34879806Y-21600646D01*
X-34879806Y-22093053D01*
X-34902585Y-22042649D01*
X-34929564Y-21984491D01*
X-34959935Y-21921486D01*
X-34992892Y-21856543D01*
X-35027625Y-21790468D01*
X-35063328Y-21724071D01*
X-35099515Y-21659935D01*
X-35135703Y-21600646D01*
X-35263651Y-21600646D01*
X-35263651Y-22400646D01*
X-35447282Y-22400646D01*
X-35373506Y-22381260D01*
X-35373506Y-21981906D01*
X-35532472Y-21981906D01*
X-35532472Y-22273990D01*
X-35563489Y-22277868D01*
X-35594507Y-22279160D01*
X-35671729Y-22262197D01*
X-35727625Y-22211309D01*
X-35752755Y-22157674D01*
X-35767833Y-22087237D01*
X-35772859Y-22000000D01*
X-35770113Y-21940711D01*
X-35761874Y-21886914D01*
X-35725687Y-21799031D01*
X-35661712Y-21741519D01*
X-35566074Y-21720840D01*
X-35480775Y-21735057D01*
X-35410985Y-21767367D01*
X-35369628Y-21640711D01*
X-35396123Y-21625202D01*
X-35440711Y-21605816D01*
X-35504685Y-21589661D01*
X-35588045Y-21582553D01*
X-35658158Y-21589176D01*
X-35723748Y-21609047D01*
X-35782876Y-21642165D01*
X-35833603Y-21688530D01*
X-35875283Y-21747819D01*
X-35907270Y-21819709D01*
X-35927625Y-21903877D01*
X-35934410Y-22000000D01*
X-36513409Y-22000000D01*
X-36503318Y-21897549D01*
X-36473434Y-21799035D01*
X-36424905Y-21708243D01*
X-36359596Y-21628664D01*
X-36280017Y-21563355D01*
X-36189226Y-21514826D01*
X-36090712Y-21484942D01*
X-35988261Y-21474852D01*
X-35934410Y-21474852D01*
X-34065590Y-21474852D01*
X-34011739Y-21474852D01*
X-33909288Y-21484942D01*
G37*
D10*
%TO.C,TP102*%
X-29200000Y-9900000D02*
X-27800000Y-9900000D01*
X-29200000Y-11300000D02*
X-29200000Y-9900000D01*
X-27800000Y-9900000D02*
X-27800000Y-11300000D01*
X-27800000Y-11300000D02*
X-29200000Y-11300000D01*
%TO.C,TP103*%
X-18400000Y-9900000D02*
X-17000000Y-9900000D01*
X-18400000Y-11300000D02*
X-18400000Y-9900000D01*
X-17000000Y-9900000D02*
X-17000000Y-11300000D01*
X-17000000Y-11300000D02*
X-18400000Y-11300000D01*
%TO.C,TP104*%
X-18400000Y-7900000D02*
X-17000000Y-7900000D01*
X-18400000Y-9300000D02*
X-18400000Y-7900000D01*
X-17000000Y-7900000D02*
X-17000000Y-9300000D01*
X-17000000Y-9300000D02*
X-18400000Y-9300000D01*
%TO.C,TP107*%
X-29200000Y-17100000D02*
X-27800000Y-17100000D01*
X-29200000Y-18500000D02*
X-29200000Y-17100000D01*
X-27800000Y-17100000D02*
X-27800000Y-18500000D01*
X-27800000Y-18500000D02*
X-29200000Y-18500000D01*
%TO.C,U101*%
X-23110000Y-15340000D02*
X-25060000Y-15340000D01*
X-23110000Y-15340000D02*
X-21160000Y-15340000D01*
X-23110000Y-20460000D02*
X-25060000Y-20460000D01*
X-23110000Y-20460000D02*
X-21160000Y-20460000D01*
X-25810000Y-15435000D02*
X-26050000Y-15105000D01*
X-25570000Y-15105000D01*
X-25810000Y-15435000D01*
G36*
X-25810000Y-15435000D02*
G01*
X-26050000Y-15105000D01*
X-25570000Y-15105000D01*
X-25810000Y-15435000D01*
G37*
%TO.C,TP113*%
X-29200000Y-21800000D02*
X-27800000Y-21800000D01*
X-29200000Y-23200000D02*
X-29200000Y-21800000D01*
X-27800000Y-21800000D02*
X-27800000Y-23200000D01*
X-27800000Y-23200000D02*
X-29200000Y-23200000D01*
%TO.C,TP108*%
X-29200000Y-19100000D02*
X-27800000Y-19100000D01*
X-29200000Y-20500000D02*
X-29200000Y-19100000D01*
X-27800000Y-19100000D02*
X-27800000Y-20500000D01*
X-27800000Y-20500000D02*
X-29200000Y-20500000D01*
D11*
%TO.C,kibuzzard-66A68B20*%
G36*
X-33902826Y-8884942D02*
G01*
X-33804312Y-8914826D01*
X-33713521Y-8963355D01*
X-33633942Y-9028664D01*
X-33568633Y-9108243D01*
X-33520104Y-9199035D01*
X-33490220Y-9297549D01*
X-33480129Y-9400000D01*
X-33490220Y-9502451D01*
X-33520104Y-9600965D01*
X-33568633Y-9691757D01*
X-33633942Y-9771336D01*
X-33713521Y-9836645D01*
X-33804312Y-9885174D01*
X-33902826Y-9915058D01*
X-34005277Y-9925148D01*
X-34059128Y-9925148D01*
X-34282714Y-9925148D01*
X-34928918Y-9925148D01*
X-35717286Y-9925148D01*
X-35940872Y-9925148D01*
X-35994723Y-9925148D01*
X-36097174Y-9915058D01*
X-36195688Y-9885174D01*
X-36286479Y-9836645D01*
X-36366058Y-9771336D01*
X-36431367Y-9691757D01*
X-36479896Y-9600965D01*
X-36509780Y-9502451D01*
X-36519871Y-9400000D01*
X-36509780Y-9297549D01*
X-36479896Y-9199035D01*
X-36431367Y-9108243D01*
X-36366058Y-9028664D01*
X-36331918Y-9000646D01*
X-35940872Y-9000646D01*
X-35926010Y-9073021D01*
X-35904685Y-9163489D01*
X-35887596Y-9231197D01*
X-35869072Y-9301633D01*
X-35849111Y-9374798D01*
X-35828002Y-9449399D01*
X-35806031Y-9524143D01*
X-35783199Y-9599031D01*
X-35749273Y-9705654D01*
X-35717286Y-9800646D01*
X-35553150Y-9800646D01*
X-35528451Y-9731790D01*
X-35504326Y-9661353D01*
X-35480775Y-9589338D01*
X-35458158Y-9516963D01*
X-35436834Y-9445450D01*
X-35423947Y-9400000D01*
X-35276575Y-9400000D01*
X-35271002Y-9494426D01*
X-35254281Y-9577383D01*
X-35226414Y-9648869D01*
X-35187399Y-9708885D01*
X-35119045Y-9769198D01*
X-35032885Y-9805385D01*
X-34928918Y-9817447D01*
X-34858320Y-9813086D01*
X-34796446Y-9800000D01*
X-34705331Y-9761874D01*
X-34745396Y-9636511D01*
X-34810662Y-9664943D01*
X-34913409Y-9679160D01*
X-35005654Y-9660905D01*
X-35067851Y-9606139D01*
X-35094059Y-9550350D01*
X-35109783Y-9480345D01*
X-35114783Y-9400000D01*
X-34630372Y-9400000D01*
X-34624798Y-9494426D01*
X-34608078Y-9577383D01*
X-34580210Y-9648869D01*
X-34541195Y-9708885D01*
X-34472841Y-9769198D01*
X-34386681Y-9805385D01*
X-34282714Y-9817447D01*
X-34212116Y-9813086D01*
X-34150242Y-9800000D01*
X-34059128Y-9761874D01*
X-34099192Y-9636511D01*
X-34164459Y-9664943D01*
X-34267205Y-9679160D01*
X-34359451Y-9660905D01*
X-34421648Y-9606139D01*
X-34447855Y-9550350D01*
X-34463579Y-9480345D01*
X-34468821Y-9396123D01*
X-34464459Y-9323748D01*
X-34451373Y-9264297D01*
X-34406139Y-9179645D01*
X-34342811Y-9134410D01*
X-34269790Y-9120840D01*
X-34173506Y-9134410D01*
X-34101777Y-9167367D01*
X-34060420Y-9040711D01*
X-34086914Y-9025202D01*
X-34130210Y-9005816D01*
X-34190307Y-8989661D01*
X-34267205Y-8982553D01*
X-34342973Y-8989499D01*
X-34412601Y-9010339D01*
X-34474636Y-9044588D01*
X-34527625Y-9091761D01*
X-34570759Y-9151373D01*
X-34603231Y-9222940D01*
X-34623586Y-9305977D01*
X-34630372Y-9400000D01*
X-35114783Y-9400000D01*
X-35115024Y-9396123D01*
X-35110662Y-9323748D01*
X-35097577Y-9264297D01*
X-35052342Y-9179645D01*
X-34989015Y-9134410D01*
X-34915994Y-9120840D01*
X-34819709Y-9134410D01*
X-34747981Y-9167367D01*
X-34706624Y-9040711D01*
X-34733118Y-9025202D01*
X-34776414Y-9005816D01*
X-34836510Y-8989661D01*
X-34913409Y-8982553D01*
X-34989176Y-8989499D01*
X-35058805Y-9010339D01*
X-35120840Y-9044588D01*
X-35173829Y-9091761D01*
X-35216963Y-9151373D01*
X-35249435Y-9222940D01*
X-35269790Y-9305977D01*
X-35276575Y-9400000D01*
X-35423947Y-9400000D01*
X-35416801Y-9374798D01*
X-35389338Y-9271890D01*
X-35365105Y-9173829D01*
X-35344265Y-9082714D01*
X-35326979Y-9000646D01*
X-35493700Y-9000646D01*
X-35505331Y-9067851D01*
X-35519548Y-9145396D01*
X-35535703Y-9229241D01*
X-35553150Y-9315347D01*
X-35571890Y-9401939D01*
X-35591922Y-9487237D01*
X-35612601Y-9567205D01*
X-35633279Y-9637803D01*
X-35654120Y-9566236D01*
X-35675283Y-9485945D01*
X-35695961Y-9400646D01*
X-35715347Y-9314055D01*
X-35733279Y-9228110D01*
X-35749596Y-9144750D01*
X-35763166Y-9067690D01*
X-35772859Y-9000646D01*
X-35940872Y-9000646D01*
X-36331918Y-9000646D01*
X-36286479Y-8963355D01*
X-36195688Y-8914826D01*
X-36097174Y-8884942D01*
X-35994723Y-8874852D01*
X-35940872Y-8874852D01*
X-34059128Y-8874852D01*
X-34005277Y-8874852D01*
X-33902826Y-8884942D01*
G37*
D10*
%TO.C,TP110*%
X-18400000Y-17100000D02*
X-17000000Y-17100000D01*
X-18400000Y-18500000D02*
X-18400000Y-17100000D01*
X-17000000Y-17100000D02*
X-17000000Y-18500000D01*
X-17000000Y-18500000D02*
X-18400000Y-18500000D01*
D11*
%TO.C,kibuzzard-66A68C60*%
G36*
X-10079174Y-18993816D02*
G01*
X-9982357Y-19023185D01*
X-9893130Y-19070878D01*
X-9814921Y-19135061D01*
X-9750738Y-19213270D01*
X-9703045Y-19302497D01*
X-9673676Y-19399314D01*
X-9663759Y-19500000D01*
X-9673676Y-19600686D01*
X-9703045Y-19697503D01*
X-9750738Y-19786730D01*
X-9814921Y-19864939D01*
X-9893130Y-19929122D01*
X-9982357Y-19976815D01*
X-10079174Y-20006184D01*
X-10179860Y-20016101D01*
X-10933764Y-20016101D01*
X-11250404Y-20016101D01*
X-11466236Y-20016101D01*
X-12220140Y-20016101D01*
X-12320826Y-20006184D01*
X-12417643Y-19976815D01*
X-12506870Y-19929122D01*
X-12582514Y-19867044D01*
X-11466236Y-19867044D01*
X-11429402Y-19881260D01*
X-11375767Y-19894830D01*
X-11313732Y-19904523D01*
X-11250404Y-19908401D01*
X-11176414Y-19903554D01*
X-11112116Y-19889015D01*
X-11057512Y-19865751D01*
X-11012601Y-19834733D01*
X-10953150Y-19752666D01*
X-10933764Y-19649919D01*
X-10942524Y-19574960D01*
X-10968803Y-19512062D01*
X-11012601Y-19461228D01*
X-11074206Y-19422743D01*
X-11153904Y-19396895D01*
X-11251696Y-19383683D01*
X-11245234Y-19310016D01*
X-11238772Y-19223425D01*
X-10963489Y-19223425D01*
X-10963489Y-19091599D01*
X-11371890Y-19091599D01*
X-11376737Y-19190307D01*
X-11383522Y-19292569D01*
X-11392569Y-19397738D01*
X-11404200Y-19505170D01*
X-11315347Y-19507916D01*
X-11245234Y-19516155D01*
X-11151535Y-19547173D01*
X-11107593Y-19594992D01*
X-11096607Y-19656381D01*
X-11103069Y-19699031D01*
X-11126979Y-19735864D01*
X-11174798Y-19762359D01*
X-11251696Y-19772698D01*
X-11312116Y-19769790D01*
X-11361551Y-19761066D01*
X-11433926Y-19735218D01*
X-11466236Y-19867044D01*
X-12582514Y-19867044D01*
X-12585079Y-19864939D01*
X-12649262Y-19786730D01*
X-12696955Y-19697503D01*
X-12726324Y-19600686D01*
X-12736241Y-19500000D01*
X-12726324Y-19399314D01*
X-12696955Y-19302497D01*
X-12649262Y-19213270D01*
X-12585079Y-19135061D01*
X-12506870Y-19070878D01*
X-12417643Y-19023185D01*
X-12320826Y-18993816D01*
X-12220140Y-18983899D01*
X-11466236Y-18983899D01*
X-10933764Y-18983899D01*
X-10179860Y-18983899D01*
X-10079174Y-18993816D01*
G37*
%TO.C,kibuzzard-66A68B20*%
G36*
X-10102826Y-8984942D02*
G01*
X-10004312Y-9014826D01*
X-9913521Y-9063355D01*
X-9833942Y-9128664D01*
X-9768633Y-9208243D01*
X-9720104Y-9299035D01*
X-9690220Y-9397549D01*
X-9680129Y-9500000D01*
X-9690220Y-9602451D01*
X-9720104Y-9700965D01*
X-9768633Y-9791757D01*
X-9833942Y-9871336D01*
X-9913521Y-9936645D01*
X-10004312Y-9985174D01*
X-10102826Y-10015058D01*
X-10205277Y-10025148D01*
X-10259128Y-10025148D01*
X-10482714Y-10025148D01*
X-11128918Y-10025148D01*
X-11917286Y-10025148D01*
X-12140872Y-10025148D01*
X-12194723Y-10025148D01*
X-12297174Y-10015058D01*
X-12395688Y-9985174D01*
X-12486479Y-9936645D01*
X-12566058Y-9871336D01*
X-12631367Y-9791757D01*
X-12679896Y-9700965D01*
X-12709780Y-9602451D01*
X-12719871Y-9500000D01*
X-12709780Y-9397549D01*
X-12679896Y-9299035D01*
X-12631367Y-9208243D01*
X-12566058Y-9128664D01*
X-12531918Y-9100646D01*
X-12140872Y-9100646D01*
X-12126010Y-9173021D01*
X-12104685Y-9263489D01*
X-12087596Y-9331197D01*
X-12069072Y-9401633D01*
X-12049111Y-9474798D01*
X-12028002Y-9549399D01*
X-12006031Y-9624143D01*
X-11983199Y-9699031D01*
X-11949273Y-9805654D01*
X-11917286Y-9900646D01*
X-11753150Y-9900646D01*
X-11728451Y-9831790D01*
X-11704326Y-9761353D01*
X-11680775Y-9689338D01*
X-11658158Y-9616963D01*
X-11636834Y-9545450D01*
X-11623947Y-9500000D01*
X-11476575Y-9500000D01*
X-11471002Y-9594426D01*
X-11454281Y-9677383D01*
X-11426414Y-9748869D01*
X-11387399Y-9808885D01*
X-11319045Y-9869198D01*
X-11232885Y-9905385D01*
X-11128918Y-9917447D01*
X-11058320Y-9913086D01*
X-10996446Y-9900000D01*
X-10905331Y-9861874D01*
X-10945396Y-9736511D01*
X-11010662Y-9764943D01*
X-11113409Y-9779160D01*
X-11205654Y-9760905D01*
X-11267851Y-9706139D01*
X-11294059Y-9650350D01*
X-11309783Y-9580345D01*
X-11314783Y-9500000D01*
X-10830372Y-9500000D01*
X-10824798Y-9594426D01*
X-10808078Y-9677383D01*
X-10780210Y-9748869D01*
X-10741195Y-9808885D01*
X-10672841Y-9869198D01*
X-10586681Y-9905385D01*
X-10482714Y-9917447D01*
X-10412116Y-9913086D01*
X-10350242Y-9900000D01*
X-10259128Y-9861874D01*
X-10299192Y-9736511D01*
X-10364459Y-9764943D01*
X-10467205Y-9779160D01*
X-10559451Y-9760905D01*
X-10621648Y-9706139D01*
X-10647855Y-9650350D01*
X-10663579Y-9580345D01*
X-10668821Y-9496123D01*
X-10664459Y-9423748D01*
X-10651373Y-9364297D01*
X-10606139Y-9279645D01*
X-10542811Y-9234410D01*
X-10469790Y-9220840D01*
X-10373506Y-9234410D01*
X-10301777Y-9267367D01*
X-10260420Y-9140711D01*
X-10286914Y-9125202D01*
X-10330210Y-9105816D01*
X-10390307Y-9089661D01*
X-10467205Y-9082553D01*
X-10542973Y-9089499D01*
X-10612601Y-9110339D01*
X-10674636Y-9144588D01*
X-10727625Y-9191761D01*
X-10770759Y-9251373D01*
X-10803231Y-9322940D01*
X-10823586Y-9405977D01*
X-10830372Y-9500000D01*
X-11314783Y-9500000D01*
X-11315024Y-9496123D01*
X-11310662Y-9423748D01*
X-11297577Y-9364297D01*
X-11252342Y-9279645D01*
X-11189015Y-9234410D01*
X-11115994Y-9220840D01*
X-11019709Y-9234410D01*
X-10947981Y-9267367D01*
X-10906624Y-9140711D01*
X-10933118Y-9125202D01*
X-10976414Y-9105816D01*
X-11036510Y-9089661D01*
X-11113409Y-9082553D01*
X-11189176Y-9089499D01*
X-11258805Y-9110339D01*
X-11320840Y-9144588D01*
X-11373829Y-9191761D01*
X-11416963Y-9251373D01*
X-11449435Y-9322940D01*
X-11469790Y-9405977D01*
X-11476575Y-9500000D01*
X-11623947Y-9500000D01*
X-11616801Y-9474798D01*
X-11589338Y-9371890D01*
X-11565105Y-9273829D01*
X-11544265Y-9182714D01*
X-11526979Y-9100646D01*
X-11693700Y-9100646D01*
X-11705331Y-9167851D01*
X-11719548Y-9245396D01*
X-11735703Y-9329241D01*
X-11753150Y-9415347D01*
X-11771890Y-9501939D01*
X-11791922Y-9587237D01*
X-11812601Y-9667205D01*
X-11833279Y-9737803D01*
X-11854120Y-9666236D01*
X-11875283Y-9585945D01*
X-11895961Y-9500646D01*
X-11915347Y-9414055D01*
X-11933279Y-9328110D01*
X-11949596Y-9244750D01*
X-11963166Y-9167690D01*
X-11972859Y-9100646D01*
X-12140872Y-9100646D01*
X-12531918Y-9100646D01*
X-12486479Y-9063355D01*
X-12395688Y-9014826D01*
X-12297174Y-8984942D01*
X-12194723Y-8974852D01*
X-12140872Y-8974852D01*
X-10259128Y-8974852D01*
X-10205277Y-8974852D01*
X-10102826Y-8984942D01*
G37*
%TO.C,kibuzzard-66AFC706*%
G36*
X-22605331Y-22236187D02*
G01*
X-22563166Y-22289984D01*
X-22544139Y-22345055D01*
X-22532723Y-22414629D01*
X-22528918Y-22498708D01*
X-22532723Y-22583504D01*
X-22544139Y-22653509D01*
X-22563166Y-22708724D01*
X-22605331Y-22762520D01*
X-22662036Y-22780053D01*
X-22663328Y-22780452D01*
X-22720517Y-22762520D01*
X-22762843Y-22708724D01*
X-22782229Y-22653509D01*
X-22793861Y-22583504D01*
X-22797738Y-22498708D01*
X-22797142Y-22485784D01*
X-22734410Y-22485784D01*
X-22715024Y-22545880D01*
X-22662036Y-22571082D01*
X-22610985Y-22545880D01*
X-22590953Y-22485784D01*
X-22610985Y-22425040D01*
X-22662036Y-22399192D01*
X-22715024Y-22425040D01*
X-22734410Y-22485784D01*
X-22797142Y-22485784D01*
X-22793861Y-22414629D01*
X-22782229Y-22345055D01*
X-22762843Y-22289984D01*
X-22720517Y-22236187D01*
X-22663328Y-22218255D01*
X-22605331Y-22236187D01*
G37*
G36*
X-21312924Y-22236187D02*
G01*
X-21270759Y-22289984D01*
X-21251732Y-22345055D01*
X-21240316Y-22414629D01*
X-21236511Y-22498708D01*
X-21240316Y-22583504D01*
X-21251732Y-22653509D01*
X-21270759Y-22708724D01*
X-21312924Y-22762520D01*
X-21369628Y-22780053D01*
X-21370921Y-22780452D01*
X-21428110Y-22762520D01*
X-21470436Y-22708724D01*
X-21489822Y-22653509D01*
X-21501454Y-22583504D01*
X-21505331Y-22498708D01*
X-21504735Y-22485784D01*
X-21442003Y-22485784D01*
X-21422617Y-22545880D01*
X-21369628Y-22571082D01*
X-21318578Y-22545880D01*
X-21298546Y-22485784D01*
X-21318578Y-22425040D01*
X-21369628Y-22399192D01*
X-21422617Y-22425040D01*
X-21442003Y-22485784D01*
X-21504735Y-22485784D01*
X-21501454Y-22414629D01*
X-21489822Y-22345055D01*
X-21470436Y-22289984D01*
X-21428110Y-22236187D01*
X-21370921Y-22218255D01*
X-21312924Y-22236187D01*
G37*
G36*
X-20473703Y-22500000D02*
G01*
X-20823802Y-23025148D01*
X-21093053Y-23025148D01*
X-21370921Y-23025148D01*
X-22015832Y-23025148D01*
X-22663328Y-23025148D01*
X-23308239Y-23025148D01*
X-23685622Y-23025148D01*
X-24674313Y-23025148D01*
X-24906947Y-23025148D01*
X-25176198Y-23025148D01*
X-25526297Y-22500000D01*
X-25388440Y-22293215D01*
X-24906947Y-22293215D01*
X-24879443Y-22383158D01*
X-24851212Y-22469467D01*
X-24822254Y-22552141D01*
X-24792569Y-22631179D01*
X-24752719Y-22729761D01*
X-24713301Y-22819584D01*
X-24674313Y-22900646D01*
X-24541195Y-22900646D01*
X-24501562Y-22819584D01*
X-24460205Y-22729761D01*
X-24417124Y-22631179D01*
X-24384895Y-22552141D01*
X-24354120Y-22469467D01*
X-24324798Y-22383158D01*
X-24296931Y-22293215D01*
X-24458481Y-22293215D01*
X-24471890Y-22343942D01*
X-24488853Y-22397900D01*
X-24507916Y-22453635D01*
X-24527625Y-22509693D01*
X-24547819Y-22565105D01*
X-24568336Y-22618901D01*
X-24605816Y-22715832D01*
X-24641357Y-22618901D01*
X-24659935Y-22565105D01*
X-24678191Y-22509693D01*
X-24695800Y-22453635D01*
X-24712439Y-22397900D01*
X-24727464Y-22343942D01*
X-24740226Y-22293215D01*
X-24906947Y-22293215D01*
X-25388440Y-22293215D01*
X-25371208Y-22267367D01*
X-24216801Y-22267367D01*
X-24165105Y-22399192D01*
X-24086268Y-22367528D01*
X-24003554Y-22321648D01*
X-24003554Y-22768821D01*
X-24171567Y-22768821D01*
X-24171567Y-22900646D01*
X-23685622Y-22900646D01*
X-23685622Y-22798546D01*
X-23424556Y-22798546D01*
X-23414863Y-22848304D01*
X-23389015Y-22884491D01*
X-23352181Y-22907108D01*
X-23308239Y-22914863D01*
X-23228110Y-22885137D01*
X-23193215Y-22798546D01*
X-23228110Y-22714540D01*
X-23308239Y-22684814D01*
X-23352181Y-22692569D01*
X-23389015Y-22714540D01*
X-23414863Y-22750081D01*
X-23424556Y-22798546D01*
X-23685622Y-22798546D01*
X-23685622Y-22768821D01*
X-23844588Y-22768821D01*
X-23844588Y-22498708D01*
X-22941195Y-22498708D01*
X-22936753Y-22597900D01*
X-22923425Y-22683522D01*
X-22901212Y-22755574D01*
X-22870113Y-22814055D01*
X-22815545Y-22871495D01*
X-22746616Y-22905959D01*
X-22663328Y-22917447D01*
X-22580039Y-22905959D01*
X-22511111Y-22871495D01*
X-22456543Y-22814055D01*
X-22448296Y-22798546D01*
X-22132149Y-22798546D01*
X-22122456Y-22848304D01*
X-22096607Y-22884491D01*
X-22059774Y-22907108D01*
X-22015832Y-22914863D01*
X-21935703Y-22885137D01*
X-21900808Y-22798546D01*
X-21935703Y-22714540D01*
X-22015832Y-22684814D01*
X-22059774Y-22692569D01*
X-22096607Y-22714540D01*
X-22122456Y-22750081D01*
X-22132149Y-22798546D01*
X-22448296Y-22798546D01*
X-22425444Y-22755574D01*
X-22403231Y-22683522D01*
X-22389903Y-22597900D01*
X-22385460Y-22498708D01*
X-21648788Y-22498708D01*
X-21644346Y-22597900D01*
X-21631018Y-22683522D01*
X-21608805Y-22755574D01*
X-21577706Y-22814055D01*
X-21523138Y-22871495D01*
X-21454209Y-22905959D01*
X-21370921Y-22917447D01*
X-21287632Y-22905959D01*
X-21218704Y-22871495D01*
X-21164136Y-22814055D01*
X-21133037Y-22755574D01*
X-21110824Y-22683522D01*
X-21097496Y-22597900D01*
X-21093053Y-22498708D01*
X-21097496Y-22400121D01*
X-21110824Y-22315024D01*
X-21133037Y-22243417D01*
X-21164136Y-22185299D01*
X-21218704Y-22128218D01*
X-21287632Y-22093969D01*
X-21370921Y-22082553D01*
X-21452917Y-22094041D01*
X-21521414Y-22128505D01*
X-21576414Y-22185945D01*
X-21608078Y-22244265D01*
X-21630695Y-22315832D01*
X-21644265Y-22400646D01*
X-21648788Y-22498708D01*
X-22385460Y-22498708D01*
X-22389903Y-22400121D01*
X-22403231Y-22315024D01*
X-22425444Y-22243417D01*
X-22456543Y-22185299D01*
X-22511111Y-22128218D01*
X-22580039Y-22093969D01*
X-22663328Y-22082553D01*
X-22745324Y-22094041D01*
X-22813822Y-22128505D01*
X-22868821Y-22185945D01*
X-22900485Y-22244265D01*
X-22923102Y-22315832D01*
X-22936672Y-22400646D01*
X-22941195Y-22498708D01*
X-23844588Y-22498708D01*
X-23844588Y-22100646D01*
X-23953150Y-22100646D01*
X-24008724Y-22151050D01*
X-24077221Y-22197577D01*
X-24149596Y-22237641D01*
X-24216801Y-22267367D01*
X-25371208Y-22267367D01*
X-25176198Y-21974852D01*
X-24906947Y-21974852D01*
X-21093053Y-21974852D01*
X-20823802Y-21974852D01*
X-20473703Y-22500000D01*
G37*
%TO.C,kibuzzard-66AFC835*%
G36*
X-10085982Y-14002055D02*
G01*
X-9990741Y-14030946D01*
X-9902966Y-14077862D01*
X-9826031Y-14141001D01*
X-9762892Y-14217937D01*
X-9715975Y-14305711D01*
X-9687084Y-14400953D01*
X-9677329Y-14500000D01*
X-9687084Y-14599047D01*
X-9715975Y-14694289D01*
X-9762892Y-14782063D01*
X-9826031Y-14858999D01*
X-9902966Y-14922138D01*
X-9990741Y-14969054D01*
X-10085982Y-14997945D01*
X-10185030Y-15007701D01*
X-10938934Y-15007701D01*
X-11353796Y-15007701D01*
X-11461066Y-15007701D01*
X-12214970Y-15007701D01*
X-12314018Y-14997945D01*
X-12409259Y-14969054D01*
X-12497034Y-14922138D01*
X-12573969Y-14858999D01*
X-12637108Y-14782063D01*
X-12684025Y-14694289D01*
X-12712916Y-14599047D01*
X-12722671Y-14500000D01*
X-12712916Y-14400953D01*
X-12684025Y-14305711D01*
X-12644532Y-14231826D01*
X-11461066Y-14231826D01*
X-11125040Y-14231826D01*
X-11160905Y-14295638D01*
X-11198708Y-14370759D01*
X-11236026Y-14453958D01*
X-11270436Y-14542003D01*
X-11300969Y-14632956D01*
X-11326656Y-14724879D01*
X-11345073Y-14814863D01*
X-11353796Y-14900000D01*
X-11192246Y-14900000D01*
X-11180452Y-14796446D01*
X-11157997Y-14692569D01*
X-11127948Y-14591599D01*
X-11093376Y-14496769D01*
X-11055412Y-14409855D01*
X-11015186Y-14332633D01*
X-10975444Y-14268336D01*
X-10938934Y-14220194D01*
X-10938934Y-14100000D01*
X-11461066Y-14100000D01*
X-11461066Y-14231826D01*
X-12644532Y-14231826D01*
X-12637108Y-14217937D01*
X-12573969Y-14141001D01*
X-12497034Y-14077862D01*
X-12409259Y-14030946D01*
X-12314018Y-14002055D01*
X-12214970Y-13992299D01*
X-11461066Y-13992299D01*
X-10938934Y-13992299D01*
X-10185030Y-13992299D01*
X-10085982Y-14002055D01*
G37*
D10*
%TO.C,TP111*%
X-18400000Y-15100000D02*
X-17000000Y-15100000D01*
X-18400000Y-16500000D02*
X-18400000Y-15100000D01*
X-17000000Y-15100000D02*
X-17000000Y-16500000D01*
X-17000000Y-16500000D02*
X-18400000Y-16500000D01*
%TO.C,TP109*%
X-18400000Y-19100000D02*
X-17000000Y-19100000D01*
X-18400000Y-20500000D02*
X-18400000Y-19100000D01*
X-17000000Y-19100000D02*
X-17000000Y-20500000D01*
X-17000000Y-20500000D02*
X-18400000Y-20500000D01*
D11*
%TO.C,kibuzzard-66A68C2F*%
G36*
X-33881459Y-11502055D02*
G01*
X-33786218Y-11530946D01*
X-33698443Y-11577862D01*
X-33621508Y-11641001D01*
X-33558369Y-11717937D01*
X-33511452Y-11805711D01*
X-33482561Y-11900953D01*
X-33472806Y-12000000D01*
X-33482561Y-12099047D01*
X-33511452Y-12194289D01*
X-33558369Y-12282063D01*
X-33621508Y-12358999D01*
X-33698443Y-12422138D01*
X-33786218Y-12469054D01*
X-33881459Y-12497945D01*
X-33980506Y-12507701D01*
X-34734410Y-12507701D01*
X-35265590Y-12507701D01*
X-36019494Y-12507701D01*
X-36118541Y-12497945D01*
X-36213782Y-12469054D01*
X-36301557Y-12422138D01*
X-36378492Y-12358999D01*
X-36441631Y-12282063D01*
X-36488548Y-12194289D01*
X-36517439Y-12099047D01*
X-36527194Y-12000000D01*
X-36517439Y-11900953D01*
X-36488548Y-11805711D01*
X-36467707Y-11766721D01*
X-35265590Y-11766721D01*
X-35213893Y-11898546D01*
X-35135057Y-11866882D01*
X-35052342Y-11821002D01*
X-35052342Y-12268174D01*
X-35220355Y-12268174D01*
X-35220355Y-12400000D01*
X-34734410Y-12400000D01*
X-34734410Y-12268174D01*
X-34893376Y-12268174D01*
X-34893376Y-11600000D01*
X-35001939Y-11600000D01*
X-35057512Y-11650404D01*
X-35126010Y-11696931D01*
X-35198384Y-11736995D01*
X-35265590Y-11766721D01*
X-36467707Y-11766721D01*
X-36441631Y-11717937D01*
X-36378492Y-11641001D01*
X-36301557Y-11577862D01*
X-36213782Y-11530946D01*
X-36118541Y-11502055D01*
X-36019494Y-11492299D01*
X-35265590Y-11492299D01*
X-34734410Y-11492299D01*
X-33980506Y-11492299D01*
X-33881459Y-11502055D01*
G37*
%TO.C,kibuzzard-66A68C47*%
G36*
X-33878701Y-16484942D02*
G01*
X-33780187Y-16514826D01*
X-33689396Y-16563355D01*
X-33609817Y-16628664D01*
X-33544508Y-16708243D01*
X-33495979Y-16799035D01*
X-33466095Y-16897549D01*
X-33456004Y-17000000D01*
X-33466095Y-17102451D01*
X-33495979Y-17200965D01*
X-33544508Y-17291757D01*
X-33609817Y-17371336D01*
X-33689396Y-17436645D01*
X-33780187Y-17485174D01*
X-33878701Y-17515058D01*
X-33981152Y-17525148D01*
X-34735057Y-17525148D01*
X-35042649Y-17525148D01*
X-35264943Y-17525148D01*
X-36018848Y-17525148D01*
X-36121299Y-17515058D01*
X-36219813Y-17485174D01*
X-36310604Y-17436645D01*
X-36387539Y-17373506D01*
X-35264943Y-17373506D01*
X-35224879Y-17387722D01*
X-35168659Y-17401939D01*
X-35105331Y-17412924D01*
X-35042649Y-17417447D01*
X-34968013Y-17412763D01*
X-34904362Y-17398708D01*
X-34851373Y-17376090D01*
X-34808724Y-17345719D01*
X-34753150Y-17264943D01*
X-34735057Y-17162843D01*
X-34743619Y-17097900D01*
X-34769305Y-17042649D01*
X-34810501Y-16998384D01*
X-34865590Y-16966397D01*
X-34793215Y-16899192D01*
X-34766074Y-16807431D01*
X-34781583Y-16718255D01*
X-34829402Y-16646527D01*
X-34911470Y-16599354D01*
X-34965590Y-16586753D01*
X-35028433Y-16582553D01*
X-35097092Y-16588530D01*
X-35158320Y-16606462D01*
X-35250727Y-16653635D01*
X-35193861Y-16769952D01*
X-35116963Y-16733118D01*
X-35027141Y-16718255D01*
X-34954120Y-16743457D01*
X-34927625Y-16812601D01*
X-34939903Y-16861712D01*
X-34971567Y-16892730D01*
X-35015509Y-16909532D01*
X-35064620Y-16914701D01*
X-35124071Y-16914701D01*
X-35124071Y-17046527D01*
X-35074960Y-17046527D01*
X-35004200Y-17052827D01*
X-34947011Y-17071729D01*
X-34909208Y-17106462D01*
X-34896607Y-17160258D01*
X-34929564Y-17246850D01*
X-34974637Y-17273021D01*
X-35043942Y-17281745D01*
X-35105170Y-17278191D01*
X-35157027Y-17267528D01*
X-35233926Y-17240388D01*
X-35264943Y-17373506D01*
X-36387539Y-17373506D01*
X-36390183Y-17371336D01*
X-36455492Y-17291757D01*
X-36504021Y-17200965D01*
X-36533905Y-17102451D01*
X-36543996Y-17000000D01*
X-36533905Y-16897549D01*
X-36504021Y-16799035D01*
X-36455492Y-16708243D01*
X-36390183Y-16628664D01*
X-36310604Y-16563355D01*
X-36219813Y-16514826D01*
X-36121299Y-16484942D01*
X-36018848Y-16474852D01*
X-35264943Y-16474852D01*
X-34735057Y-16474852D01*
X-33981152Y-16474852D01*
X-33878701Y-16484942D01*
G37*
%TO.C,kibuzzard-66A68C65*%
G36*
X-11155089Y-17022456D02*
G01*
X-11117932Y-17047173D01*
X-11090792Y-17140872D01*
X-11096607Y-17186107D01*
X-11114701Y-17228756D01*
X-11146365Y-17261066D01*
X-11192892Y-17273990D01*
X-11249111Y-17257835D01*
X-11284653Y-17214540D01*
X-11302746Y-17153150D01*
X-11307916Y-17081422D01*
X-11307270Y-17056866D01*
X-11305331Y-17033603D01*
X-11262682Y-17019386D01*
X-11212278Y-17014216D01*
X-11155089Y-17022456D01*
G37*
G36*
X-10080608Y-16491280D02*
G01*
X-9983306Y-16520797D01*
X-9893632Y-16568728D01*
X-9815032Y-16633234D01*
X-9750527Y-16711833D01*
X-9702595Y-16801507D01*
X-9673079Y-16898809D01*
X-9663113Y-17000000D01*
X-9673079Y-17101191D01*
X-9702595Y-17198493D01*
X-9750527Y-17288167D01*
X-9815032Y-17366766D01*
X-9893632Y-17431272D01*
X-9983306Y-17479203D01*
X-10080608Y-17508720D01*
X-10181799Y-17518686D01*
X-10935703Y-17518686D01*
X-11189015Y-17518686D01*
X-11464297Y-17518686D01*
X-12218201Y-17518686D01*
X-12319392Y-17508720D01*
X-12416694Y-17479203D01*
X-12506368Y-17431272D01*
X-12584968Y-17366766D01*
X-12649473Y-17288167D01*
X-12697405Y-17198493D01*
X-12726921Y-17101191D01*
X-12730268Y-17067205D01*
X-11464297Y-17067205D01*
X-11456471Y-17174834D01*
X-11432992Y-17261641D01*
X-11393861Y-17327625D01*
X-11339795Y-17373936D01*
X-11271513Y-17401723D01*
X-11189015Y-17410985D01*
X-11127625Y-17404685D01*
X-11075283Y-17385784D01*
X-10996446Y-17320517D01*
X-10950565Y-17232633D01*
X-10935703Y-17138288D01*
X-10949273Y-17040065D01*
X-10993861Y-16958643D01*
X-11073344Y-16903069D01*
X-11127141Y-16887561D01*
X-11191599Y-16882391D01*
X-11232956Y-16888207D01*
X-11280775Y-16904362D01*
X-11236187Y-16820355D01*
X-11164459Y-16765428D01*
X-11073990Y-16735057D01*
X-10973183Y-16724717D01*
X-10982229Y-16589015D01*
X-11085945Y-16596769D01*
X-11179968Y-16620032D01*
X-11262682Y-16658481D01*
X-11332472Y-16711793D01*
X-11388530Y-16779645D01*
X-11430048Y-16861712D01*
X-11455735Y-16957674D01*
X-11464297Y-17067205D01*
X-12730268Y-17067205D01*
X-12736887Y-17000000D01*
X-12726921Y-16898809D01*
X-12697405Y-16801507D01*
X-12649473Y-16711833D01*
X-12584968Y-16633234D01*
X-12506368Y-16568728D01*
X-12416694Y-16520797D01*
X-12319392Y-16491280D01*
X-12218201Y-16481314D01*
X-11464297Y-16481314D01*
X-10935703Y-16481314D01*
X-10181799Y-16481314D01*
X-10080608Y-16491280D01*
G37*
%TO.C,kibuzzard-66A68C5D*%
G36*
X-34956058Y-19580775D02*
G01*
X-35136995Y-19580775D01*
X-35098223Y-19507108D01*
X-35052342Y-19432795D01*
X-35003877Y-19362359D01*
X-34956058Y-19299031D01*
X-34956058Y-19580775D01*
G37*
G36*
X-33857549Y-19002055D02*
G01*
X-33762308Y-19030946D01*
X-33674533Y-19077862D01*
X-33597598Y-19141001D01*
X-33534459Y-19217937D01*
X-33487542Y-19305711D01*
X-33458651Y-19400953D01*
X-33448896Y-19500000D01*
X-33458651Y-19599047D01*
X-33487542Y-19694289D01*
X-33534459Y-19782063D01*
X-33597598Y-19858999D01*
X-33674533Y-19922138D01*
X-33762308Y-19969054D01*
X-33857549Y-19997945D01*
X-33956597Y-20007701D01*
X-34710501Y-20007701D01*
X-34797092Y-20007701D01*
X-35289499Y-20007701D01*
X-36043403Y-20007701D01*
X-36142451Y-19997945D01*
X-36237692Y-19969054D01*
X-36325467Y-19922138D01*
X-36402402Y-19858999D01*
X-36465541Y-19782063D01*
X-36512458Y-19694289D01*
X-36541349Y-19599047D01*
X-36541748Y-19594992D01*
X-35289499Y-19594992D01*
X-35289499Y-19711309D01*
X-34956058Y-19711309D01*
X-34956058Y-19900000D01*
X-34797092Y-19900000D01*
X-34797092Y-19711309D01*
X-34710501Y-19711309D01*
X-34710501Y-19580775D01*
X-34797092Y-19580775D01*
X-34797092Y-19100000D01*
X-34939257Y-19100000D01*
X-34990953Y-19155089D01*
X-35042649Y-19216963D01*
X-35093053Y-19282714D01*
X-35140872Y-19349435D01*
X-35185460Y-19415832D01*
X-35226171Y-19480614D01*
X-35261389Y-19541195D01*
X-35289499Y-19594992D01*
X-36541748Y-19594992D01*
X-36551104Y-19500000D01*
X-36541349Y-19400953D01*
X-36512458Y-19305711D01*
X-36465541Y-19217937D01*
X-36402402Y-19141001D01*
X-36325467Y-19077862D01*
X-36237692Y-19030946D01*
X-36142451Y-19002055D01*
X-36043403Y-18992299D01*
X-35289499Y-18992299D01*
X-34710501Y-18992299D01*
X-33956597Y-18992299D01*
X-33857549Y-19002055D01*
G37*
D10*
%TO.C,TP112*%
X-18400000Y-13100000D02*
X-17000000Y-13100000D01*
X-18400000Y-14500000D02*
X-18400000Y-13100000D01*
X-17000000Y-13100000D02*
X-17000000Y-14500000D01*
X-17000000Y-14500000D02*
X-18400000Y-14500000D01*
D11*
%TO.C,kibuzzard-66A68C43*%
G36*
X-33874524Y-13993182D02*
G01*
X-33777586Y-14022588D01*
X-33688247Y-14070340D01*
X-33609941Y-14134604D01*
X-33545677Y-14212911D01*
X-33497924Y-14302249D01*
X-33468518Y-14399188D01*
X-33458589Y-14500000D01*
X-33468518Y-14600812D01*
X-33497924Y-14697751D01*
X-33545677Y-14787089D01*
X-33609941Y-14865396D01*
X-33688247Y-14929660D01*
X-33777586Y-14977412D01*
X-33874524Y-15006818D01*
X-33975337Y-15016747D01*
X-34729241Y-15016747D01*
X-35270759Y-15016747D01*
X-36024663Y-15016747D01*
X-36125476Y-15006818D01*
X-36222414Y-14977412D01*
X-36311753Y-14929660D01*
X-36390059Y-14865396D01*
X-36454323Y-14787089D01*
X-36502076Y-14697751D01*
X-36531482Y-14600812D01*
X-36541411Y-14500000D01*
X-36531482Y-14399188D01*
X-36502076Y-14302249D01*
X-36454323Y-14212911D01*
X-36441209Y-14196931D01*
X-35270759Y-14196931D01*
X-35191922Y-14308078D01*
X-35110501Y-14247334D01*
X-35031664Y-14229241D01*
X-34956704Y-14255735D01*
X-34926979Y-14331341D01*
X-34950889Y-14399838D01*
X-35011632Y-14469628D01*
X-35049758Y-14506624D01*
X-35090468Y-14545234D01*
X-35131179Y-14586268D01*
X-35169305Y-14630533D01*
X-35202908Y-14678514D01*
X-35230048Y-14730695D01*
X-35247981Y-14787561D01*
X-35253958Y-14849596D01*
X-35254604Y-14876737D01*
X-35251373Y-14909047D01*
X-34729241Y-14909047D01*
X-34729241Y-14777221D01*
X-35073021Y-14777221D01*
X-35059451Y-14734572D01*
X-35026494Y-14688691D01*
X-34985137Y-14644750D01*
X-34946365Y-14607916D01*
X-34880452Y-14543296D01*
X-34822294Y-14473506D01*
X-34780937Y-14399192D01*
X-34765428Y-14319709D01*
X-34786107Y-14219548D01*
X-34841680Y-14147819D01*
X-34921809Y-14105170D01*
X-35016155Y-14090953D01*
X-35083522Y-14097415D01*
X-35151212Y-14116801D01*
X-35215024Y-14149758D01*
X-35270759Y-14196931D01*
X-36441209Y-14196931D01*
X-36390059Y-14134604D01*
X-36311753Y-14070340D01*
X-36222414Y-14022588D01*
X-36125476Y-13993182D01*
X-36024663Y-13983253D01*
X-35270759Y-13983253D01*
X-34729241Y-13983253D01*
X-33975337Y-13983253D01*
X-33874524Y-13993182D01*
G37*
%TO.C,kibuzzard-66AFC6FD*%
G36*
X-21313409Y-20936349D02*
G01*
X-21283037Y-21004200D01*
X-21299838Y-21073344D01*
X-21356704Y-21138611D01*
X-21420355Y-21108239D01*
X-21461389Y-21079160D01*
X-21491115Y-21005493D01*
X-21459451Y-20936995D01*
X-21386430Y-20913732D01*
X-21313409Y-20936349D01*
G37*
G36*
X-21356704Y-21278837D02*
G01*
X-21301777Y-21311147D01*
X-21270759Y-21346688D01*
X-21261066Y-21391922D01*
X-21295315Y-21458481D01*
X-21387722Y-21486268D01*
X-21474960Y-21459774D01*
X-21511793Y-21381583D01*
X-21492407Y-21311147D01*
X-21436834Y-21244588D01*
X-21356704Y-21278837D01*
G37*
G36*
X-23905331Y-20943457D02*
G01*
X-23867205Y-21002908D01*
X-23849111Y-21091438D01*
X-23845719Y-21144265D01*
X-23844588Y-21200646D01*
X-23845719Y-21256866D01*
X-23849111Y-21309208D01*
X-23867205Y-21397738D01*
X-23905977Y-21457835D01*
X-23971244Y-21479806D01*
X-24037157Y-21457835D01*
X-24075283Y-21398384D01*
X-24093376Y-21309855D01*
X-24096769Y-21257027D01*
X-24097900Y-21200646D01*
X-24096769Y-21144426D01*
X-24093376Y-21092084D01*
X-24075283Y-21003554D01*
X-24037157Y-20943457D01*
X-23971244Y-20921486D01*
X-23905331Y-20943457D01*
G37*
G36*
X-20739318Y-20684309D02*
G01*
X-20640683Y-20714229D01*
X-20549780Y-20762818D01*
X-20470103Y-20828207D01*
X-20404714Y-20907884D01*
X-20356125Y-20998787D01*
X-20326204Y-21097423D01*
X-20316101Y-21200000D01*
X-20326204Y-21302577D01*
X-20356125Y-21401213D01*
X-20404714Y-21492116D01*
X-20470103Y-21571793D01*
X-20549780Y-21637182D01*
X-20640683Y-21685771D01*
X-20739318Y-21715691D01*
X-20841896Y-21725794D01*
X-21111147Y-21725794D01*
X-21390307Y-21725794D01*
X-21855574Y-21725794D01*
X-22619386Y-21725794D01*
X-23578352Y-21725794D01*
X-23969952Y-21725794D01*
X-24640711Y-21725794D01*
X-24888853Y-21725794D01*
X-25158104Y-21725794D01*
X-25260682Y-21715691D01*
X-25359317Y-21685771D01*
X-25450220Y-21637182D01*
X-25529897Y-21571793D01*
X-25541749Y-21557351D01*
X-24888853Y-21557351D01*
X-24799677Y-21596769D01*
X-24730210Y-21612763D01*
X-24640711Y-21618094D01*
X-24550027Y-21611273D01*
X-24476144Y-21590810D01*
X-24419063Y-21556704D01*
X-24364297Y-21482553D01*
X-24346042Y-21382876D01*
X-24351535Y-21322617D01*
X-24368013Y-21273667D01*
X-24424233Y-21201292D01*
X-24425274Y-21200646D01*
X-24259451Y-21200646D01*
X-24254806Y-21297698D01*
X-24240872Y-21382068D01*
X-24217649Y-21453756D01*
X-24185137Y-21512763D01*
X-24128200Y-21571280D01*
X-24056471Y-21606390D01*
X-23969952Y-21618094D01*
X-23885514Y-21606390D01*
X-23814863Y-21571280D01*
X-23757997Y-21512763D01*
X-23725202Y-21453756D01*
X-23701777Y-21382068D01*
X-23687722Y-21297698D01*
X-23683037Y-21200646D01*
X-23687641Y-21103595D01*
X-23701454Y-21019225D01*
X-23724475Y-20947536D01*
X-23732350Y-20933118D01*
X-23578352Y-20933118D01*
X-23403877Y-20933118D01*
X-23403877Y-21469467D01*
X-23578352Y-21469467D01*
X-23578352Y-21601292D01*
X-23070436Y-21601292D01*
X-23070436Y-21469467D01*
X-23243619Y-21469467D01*
X-23243619Y-21200646D01*
X-22967044Y-21200646D01*
X-22961470Y-21295073D01*
X-22944750Y-21378029D01*
X-22916882Y-21449515D01*
X-22877868Y-21509532D01*
X-22809514Y-21569844D01*
X-22723353Y-21606031D01*
X-22619386Y-21618094D01*
X-22548788Y-21613732D01*
X-22486914Y-21600646D01*
X-22395800Y-21562520D01*
X-22435864Y-21437157D01*
X-22501131Y-21465590D01*
X-22603877Y-21479806D01*
X-22696123Y-21461551D01*
X-22758320Y-21406785D01*
X-22761052Y-21400969D01*
X-21660420Y-21400969D01*
X-21641034Y-21492084D01*
X-21586107Y-21560582D01*
X-21500808Y-21603231D01*
X-21448304Y-21614378D01*
X-21390307Y-21618094D01*
X-21318901Y-21612924D01*
X-21259774Y-21597415D01*
X-21173829Y-21545073D01*
X-21126010Y-21473344D01*
X-21111147Y-21394507D01*
X-21118740Y-21336349D01*
X-21141519Y-21283360D01*
X-21182714Y-21234895D01*
X-21245557Y-21190307D01*
X-21195153Y-21149758D01*
X-21160258Y-21100485D01*
X-21139903Y-21046365D01*
X-21133118Y-20991276D01*
X-21150081Y-20905331D01*
X-21200969Y-20838772D01*
X-21280614Y-20796123D01*
X-21383845Y-20781906D01*
X-21450404Y-20787399D01*
X-21505331Y-20803877D01*
X-21584168Y-20859451D01*
X-21627464Y-20935057D01*
X-21641034Y-21015832D01*
X-21620355Y-21108885D01*
X-21590630Y-21151535D01*
X-21542811Y-21191599D01*
X-21595477Y-21236026D01*
X-21631987Y-21286591D01*
X-21653312Y-21342003D01*
X-21660420Y-21400969D01*
X-22761052Y-21400969D01*
X-22784527Y-21350996D01*
X-22785204Y-21347981D01*
X-22209693Y-21347981D01*
X-21855574Y-21347981D01*
X-21855574Y-21191599D01*
X-22209693Y-21191599D01*
X-22209693Y-21347981D01*
X-22785204Y-21347981D01*
X-22800251Y-21280991D01*
X-22805493Y-21196769D01*
X-22801131Y-21124394D01*
X-22788045Y-21064943D01*
X-22742811Y-20980291D01*
X-22679483Y-20935057D01*
X-22606462Y-20921486D01*
X-22510178Y-20935057D01*
X-22438449Y-20968013D01*
X-22397092Y-20841357D01*
X-22423586Y-20825848D01*
X-22466882Y-20806462D01*
X-22526979Y-20790307D01*
X-22603877Y-20783199D01*
X-22679645Y-20790145D01*
X-22749273Y-20810985D01*
X-22811309Y-20845234D01*
X-22864297Y-20892407D01*
X-22907431Y-20952019D01*
X-22939903Y-21023586D01*
X-22960258Y-21106624D01*
X-22967044Y-21200646D01*
X-23243619Y-21200646D01*
X-23243619Y-20933118D01*
X-23070436Y-20933118D01*
X-23070436Y-20801292D01*
X-23578352Y-20801292D01*
X-23578352Y-20933118D01*
X-23732350Y-20933118D01*
X-23756704Y-20888530D01*
X-23813283Y-20830013D01*
X-23884796Y-20794902D01*
X-23971244Y-20783199D01*
X-24055107Y-20794902D01*
X-24125758Y-20830013D01*
X-24183199Y-20888530D01*
X-24216559Y-20947536D01*
X-24240388Y-21019225D01*
X-24254685Y-21103595D01*
X-24259451Y-21200646D01*
X-24425274Y-21200646D01*
X-24499192Y-21154766D01*
X-24577383Y-21123102D01*
X-24627141Y-21103716D01*
X-24672375Y-21079806D01*
X-24705331Y-21048788D01*
X-24718255Y-21008078D01*
X-24704182Y-20957099D01*
X-24661964Y-20926512D01*
X-24591599Y-20916317D01*
X-24500485Y-20929241D01*
X-24428756Y-20960258D01*
X-24382229Y-20837480D01*
X-24474637Y-20800000D01*
X-24534249Y-20787399D01*
X-24603231Y-20783199D01*
X-24682427Y-20790235D01*
X-24749417Y-20811344D01*
X-24804200Y-20846527D01*
X-24858966Y-20922132D01*
X-24877221Y-21022294D01*
X-24856543Y-21117286D01*
X-24804200Y-21181260D01*
X-24733764Y-21223910D01*
X-24658805Y-21253635D01*
X-24604523Y-21276252D01*
X-24555412Y-21303393D01*
X-24519225Y-21337641D01*
X-24505008Y-21381583D01*
X-24510824Y-21419709D01*
X-24532149Y-21453312D01*
X-24574152Y-21476575D01*
X-24640711Y-21484976D01*
X-24705170Y-21480452D01*
X-24758966Y-21466882D01*
X-24842326Y-21428110D01*
X-24888853Y-21557351D01*
X-25541749Y-21557351D01*
X-25595286Y-21492116D01*
X-25643875Y-21401213D01*
X-25673796Y-21302577D01*
X-25683899Y-21200000D01*
X-25673796Y-21097423D01*
X-25643875Y-20998787D01*
X-25595286Y-20907884D01*
X-25529897Y-20828207D01*
X-25450220Y-20762818D01*
X-25359317Y-20714229D01*
X-25260682Y-20684309D01*
X-25158104Y-20674206D01*
X-24888853Y-20674206D01*
X-21111147Y-20674206D01*
X-20841896Y-20674206D01*
X-20739318Y-20684309D01*
G37*
%TO.C,kibuzzard-66A68BD4*%
G36*
X-10515024Y-21752504D02*
G01*
X-10462036Y-21812601D01*
X-10434895Y-21899192D01*
X-10427141Y-22000000D01*
X-10429564Y-22057027D01*
X-10436834Y-22109208D01*
X-10469144Y-22195153D01*
X-10528595Y-22252019D01*
X-10619709Y-22272698D01*
X-10633926Y-22272698D01*
X-10648142Y-22271405D01*
X-10648142Y-21733764D01*
X-10624879Y-21730533D01*
X-10601616Y-21729887D01*
X-10515024Y-21752504D01*
G37*
G36*
X-10109288Y-21484942D02*
G01*
X-10010774Y-21514826D01*
X-9919983Y-21563355D01*
X-9840404Y-21628664D01*
X-9775095Y-21708243D01*
X-9726566Y-21799035D01*
X-9696682Y-21897549D01*
X-9686591Y-22000000D01*
X-9696682Y-22102451D01*
X-9726566Y-22200965D01*
X-9775095Y-22291757D01*
X-9840404Y-22371336D01*
X-9919983Y-22436645D01*
X-10010774Y-22485174D01*
X-10109288Y-22515058D01*
X-10211739Y-22525148D01*
X-10265590Y-22525148D01*
X-10636511Y-22525148D01*
X-11064297Y-22525148D01*
X-11807431Y-22525148D01*
X-12134410Y-22525148D01*
X-12188261Y-22525148D01*
X-12290712Y-22515058D01*
X-12389226Y-22485174D01*
X-12480017Y-22436645D01*
X-12559596Y-22371336D01*
X-12624905Y-22291757D01*
X-12673434Y-22200965D01*
X-12703318Y-22102451D01*
X-12713409Y-22000000D01*
X-12134410Y-22000000D01*
X-12128595Y-22097092D01*
X-12111147Y-22181583D01*
X-12083037Y-22253312D01*
X-12045234Y-22312116D01*
X-11998223Y-22357997D01*
X-11942488Y-22390953D01*
X-11878675Y-22410824D01*
X-11807431Y-22417447D01*
X-11728433Y-22414216D01*
X-11662036Y-22404523D01*
X-11647282Y-22400646D01*
X-11463651Y-22400646D01*
X-11320194Y-22400646D01*
X-11320194Y-21869467D01*
X-11272159Y-21958140D01*
X-11226279Y-22046670D01*
X-11182553Y-22135057D01*
X-11140980Y-22223443D01*
X-11101562Y-22311973D01*
X-11064297Y-22400646D01*
X-10936349Y-22400646D01*
X-10936349Y-21610985D01*
X-10807108Y-21610985D01*
X-10807108Y-22391599D01*
X-10719871Y-22406462D01*
X-10636511Y-22410985D01*
X-10558481Y-22405331D01*
X-10487237Y-22388368D01*
X-10424071Y-22359128D01*
X-10370275Y-22316640D01*
X-10326494Y-22260258D01*
X-10293376Y-22189338D01*
X-10272536Y-22102908D01*
X-10265590Y-22000000D01*
X-10271890Y-21899354D01*
X-10290792Y-21814540D01*
X-10321002Y-21744426D01*
X-10361228Y-21687884D01*
X-10411470Y-21644750D01*
X-10471729Y-21614863D01*
X-10540388Y-21597415D01*
X-10615832Y-21591599D01*
X-10705008Y-21595477D01*
X-10807108Y-21610985D01*
X-10936349Y-21610985D01*
X-10936349Y-21600646D01*
X-11079806Y-21600646D01*
X-11079806Y-22093053D01*
X-11102585Y-22042649D01*
X-11129564Y-21984491D01*
X-11159935Y-21921486D01*
X-11192892Y-21856543D01*
X-11227625Y-21790468D01*
X-11263328Y-21724071D01*
X-11299515Y-21659935D01*
X-11335703Y-21600646D01*
X-11463651Y-21600646D01*
X-11463651Y-22400646D01*
X-11647282Y-22400646D01*
X-11573506Y-22381260D01*
X-11573506Y-21981906D01*
X-11732472Y-21981906D01*
X-11732472Y-22273990D01*
X-11763489Y-22277868D01*
X-11794507Y-22279160D01*
X-11871729Y-22262197D01*
X-11927625Y-22211309D01*
X-11952755Y-22157674D01*
X-11967833Y-22087237D01*
X-11972859Y-22000000D01*
X-11970113Y-21940711D01*
X-11961874Y-21886914D01*
X-11925687Y-21799031D01*
X-11861712Y-21741519D01*
X-11766074Y-21720840D01*
X-11680775Y-21735057D01*
X-11610985Y-21767367D01*
X-11569628Y-21640711D01*
X-11596123Y-21625202D01*
X-11640711Y-21605816D01*
X-11704685Y-21589661D01*
X-11788045Y-21582553D01*
X-11858158Y-21589176D01*
X-11923748Y-21609047D01*
X-11982876Y-21642165D01*
X-12033603Y-21688530D01*
X-12075283Y-21747819D01*
X-12107270Y-21819709D01*
X-12127625Y-21903877D01*
X-12134410Y-22000000D01*
X-12713409Y-22000000D01*
X-12703318Y-21897549D01*
X-12673434Y-21799035D01*
X-12624905Y-21708243D01*
X-12559596Y-21628664D01*
X-12480017Y-21563355D01*
X-12389226Y-21514826D01*
X-12290712Y-21484942D01*
X-12188261Y-21474852D01*
X-12134410Y-21474852D01*
X-10265590Y-21474852D01*
X-10211739Y-21474852D01*
X-10109288Y-21484942D01*
G37*
D10*
%TO.C,TP114*%
X-18400000Y-21800000D02*
X-17000000Y-21800000D01*
X-18400000Y-23200000D02*
X-18400000Y-21800000D01*
X-17000000Y-21800000D02*
X-17000000Y-23200000D01*
X-17000000Y-23200000D02*
X-18400000Y-23200000D01*
%TO.C,C102*%
X-22375000Y-12538748D02*
X-22375000Y-13061252D01*
X-20905000Y-12538748D02*
X-20905000Y-13061252D01*
D11*
%TO.C,kibuzzard-66AFC83C*%
G36*
X-11127625Y-11736349D02*
G01*
X-11097254Y-11804200D01*
X-11114055Y-11873344D01*
X-11170921Y-11938611D01*
X-11234572Y-11908239D01*
X-11275606Y-11879160D01*
X-11305331Y-11805493D01*
X-11273667Y-11736995D01*
X-11200646Y-11713732D01*
X-11127625Y-11736349D01*
G37*
G36*
X-11170921Y-12078837D02*
G01*
X-11115994Y-12111147D01*
X-11084976Y-12146688D01*
X-11075283Y-12191922D01*
X-11109531Y-12258481D01*
X-11201939Y-12286268D01*
X-11289176Y-12259774D01*
X-11326010Y-12181583D01*
X-11306624Y-12111147D01*
X-11251050Y-12044588D01*
X-11170921Y-12078837D01*
G37*
G36*
X-10068882Y-11484309D02*
G01*
X-9970247Y-11514229D01*
X-9879344Y-11562818D01*
X-9799667Y-11628207D01*
X-9734277Y-11707884D01*
X-9685689Y-11798787D01*
X-9655768Y-11897423D01*
X-9645665Y-12000000D01*
X-9655768Y-12102577D01*
X-9685689Y-12201213D01*
X-9734277Y-12292116D01*
X-9799667Y-12371793D01*
X-9879344Y-12437182D01*
X-9970247Y-12485771D01*
X-10068882Y-12515691D01*
X-10171459Y-12525794D01*
X-10925363Y-12525794D01*
X-11204523Y-12525794D01*
X-11474636Y-12525794D01*
X-12228541Y-12525794D01*
X-12331118Y-12515691D01*
X-12429753Y-12485771D01*
X-12520656Y-12437182D01*
X-12600333Y-12371793D01*
X-12665723Y-12292116D01*
X-12714311Y-12201213D01*
X-12714385Y-12200969D01*
X-11474636Y-12200969D01*
X-11455250Y-12292084D01*
X-11400323Y-12360582D01*
X-11315024Y-12403231D01*
X-11262520Y-12414378D01*
X-11204523Y-12418094D01*
X-11133118Y-12412924D01*
X-11073990Y-12397415D01*
X-10988045Y-12345073D01*
X-10940226Y-12273344D01*
X-10925363Y-12194507D01*
X-10932956Y-12136349D01*
X-10955735Y-12083360D01*
X-10996931Y-12034895D01*
X-11059774Y-11990307D01*
X-11009370Y-11949758D01*
X-10974475Y-11900485D01*
X-10954120Y-11846365D01*
X-10947334Y-11791276D01*
X-10964297Y-11705331D01*
X-11015186Y-11638772D01*
X-11094830Y-11596123D01*
X-11198061Y-11581906D01*
X-11264620Y-11587399D01*
X-11319548Y-11603877D01*
X-11398384Y-11659451D01*
X-11441680Y-11735057D01*
X-11455250Y-11815832D01*
X-11434572Y-11908885D01*
X-11404847Y-11951535D01*
X-11357027Y-11991599D01*
X-11409693Y-12036026D01*
X-11446204Y-12086591D01*
X-11467528Y-12142003D01*
X-11474636Y-12200969D01*
X-12714385Y-12200969D01*
X-12744232Y-12102577D01*
X-12754335Y-12000000D01*
X-12744232Y-11897423D01*
X-12714311Y-11798787D01*
X-12665723Y-11707884D01*
X-12600333Y-11628207D01*
X-12520656Y-11562818D01*
X-12429753Y-11514229D01*
X-12331118Y-11484309D01*
X-12228541Y-11474206D01*
X-11474636Y-11474206D01*
X-10925363Y-11474206D01*
X-10171459Y-11474206D01*
X-10068882Y-11484309D01*
G37*
D10*
%TO.C,TP106*%
X-29200000Y-15100000D02*
X-27800000Y-15100000D01*
X-29200000Y-16500000D02*
X-29200000Y-15100000D01*
X-27800000Y-15100000D02*
X-27800000Y-16500000D01*
X-27800000Y-16500000D02*
X-29200000Y-16500000D01*
%TO.C,JP101*%
X-24400000Y-9100000D02*
X-24400000Y-8500000D01*
X-23700000Y-7800000D02*
X-22300000Y-7800000D01*
X-22300000Y-9800000D02*
X-23700000Y-9800000D01*
X-21600000Y-8500000D02*
X-21600000Y-9100000D01*
X-24400000Y-8500000D02*
G75*
G02*
X-23700000Y-7800000I699999J1D01*
G01*
X-23700000Y-9800000D02*
G75*
G02*
X-24400000Y-9100000I-1J699999D01*
G01*
X-22300000Y-7800000D02*
G75*
G02*
X-21600000Y-8500000I0J-700000D01*
G01*
X-21600000Y-9100000D02*
G75*
G02*
X-22300000Y-9800000I-700000J0D01*
G01*
%TO.C,TP101*%
X-29200000Y-7900000D02*
X-27800000Y-7900000D01*
X-29200000Y-9300000D02*
X-29200000Y-7900000D01*
X-27800000Y-7900000D02*
X-27800000Y-9300000D01*
X-27800000Y-9300000D02*
X-29200000Y-9300000D01*
%TD*%
D12*
X-28500000Y-13800000D03*
X-28500000Y-10600000D03*
X-17700000Y-10600000D03*
X-17700000Y-8600000D03*
X-28500000Y-17800000D03*
D13*
X-23810000Y-16500000D03*
X-23810000Y-17900000D03*
X-23810000Y-19300000D03*
X-22410000Y-16500000D03*
X-22410000Y-17900000D03*
X-22410000Y-19300000D03*
D12*
X-28500000Y-22500000D03*
X-28500000Y-19800000D03*
X-17700000Y-17800000D03*
X-17700000Y-15800000D03*
X-17700000Y-19800000D03*
X-17700000Y-13800000D03*
X-17700000Y-22500000D03*
X-28500000Y-15800000D03*
X-28500000Y-8600000D03*
X-14220000Y-9380000D03*
X-14220000Y-11920000D03*
X-14220000Y-14460000D03*
X-14220000Y-17000000D03*
X-14220000Y-19540000D03*
X-14220000Y-22080000D03*
X-32000000Y-9380000D03*
X-32000000Y-11920000D03*
X-32000000Y-14460000D03*
X-32000000Y-17000000D03*
X-32000000Y-19540000D03*
X-32000000Y-22080000D03*
M02*
