M48
METRIC,TZ
T1C0.200
T2C0.200
T3C0.300
T4C0.500
T5C1.000
%
G90
G05
T1
X-27200Y-13000
X-26000Y-14900
X-25800Y-13100
X-25438Y-13838
X-23000Y-11200
X-23000Y-12800
X-23000Y-14800
X-20500Y-13840
X-20200Y-13100
X-20000Y-14900
X-19000Y-13000
T2
X-23810Y-16500
X-23810Y-17900
X-23810Y-19300
X-22410Y-16500
X-22410Y-17900
X-22410Y-19300
T3
X-36000Y-8000
X-36000Y-10000
X-36000Y-12000
X-36000Y-14000
X-36000Y-16000
X-36000Y-18000
X-36000Y-20000
X-36000Y-22000
X-35000Y-6000
X-35000Y-24000
X-33000Y-6000
X-33000Y-24000
X-31000Y-6000
X-31000Y-24000
X-29000Y-6000
X-29000Y-24000
X-27000Y-6000
X-27000Y-24000
X-25000Y-6000
X-25000Y-24000
X-23000Y-6000
X-23000Y-24000
X-21000Y-6000
X-21000Y-24000
X-19000Y-6000
X-19000Y-24000
X-17000Y-6000
X-17000Y-24000
X-15000Y-6000
X-15000Y-24000
X-13000Y-6000
X-13000Y-24000
X-11000Y-6000
X-11000Y-24000
X-10000Y-8000
X-10000Y-10000
X-10000Y-12000
X-10000Y-14000
X-10000Y-16000
X-10000Y-18000
X-10000Y-20000
X-10000Y-22000
T4
X-28500Y-8600
X-28500Y-10600
X-28500Y-13800
X-28500Y-15800
X-28500Y-17800
X-28500Y-19800
X-28500Y-22500
X-17700Y-8600
X-17700Y-10600
X-17700Y-13800
X-17700Y-15800
X-17700Y-17800
X-17700Y-19800
X-17700Y-22500
T5
X-32000Y-9380
X-32000Y-11920
X-32000Y-14460
X-32000Y-17000
X-32000Y-19540
X-32000Y-22080
X-14220Y-9380
X-14220Y-11920
X-14220Y-14460
X-14220Y-17000
X-14220Y-19540
X-14220Y-22080
M30
