M48
; DRILL file {KiCad 8.0.3} date 2024-08-11T06:13:30+1200
; FORMAT={-:-/ absolute / metric / decimal}
; #@! TF.CreationDate,2024-08-11T06:13:30+12:00
; #@! TF.GenerationSoftware,Kicad,Pcbnew,8.0.3
; #@! TF.FileFunction,Plated,1,2,PTH
FMAT,2
METRIC
; #@! TA.AperFunction,Plated,PTH,ViaDrill
T1C0.200
; #@! TA.AperFunction,Plated,PTH,ComponentDrill
T2C0.200
; #@! TA.AperFunction,Plated,PTH,ViaDrill
T3C0.300
; #@! TA.AperFunction,Plated,PTH,ComponentDrill
T4C0.500
; #@! TA.AperFunction,Plated,PTH,ComponentDrill
T5C1.000
%
G90
G05
T1
X95.8Y-90.0
X97.0Y-91.9
X97.2Y-90.1
X97.562Y-90.837
X100.0Y-88.2
X100.0Y-89.8
X100.0Y-91.8
X102.5Y-90.84
X102.8Y-90.1
X103.0Y-91.9
X104.0Y-90.0
T2
X99.19Y-93.5
X99.19Y-94.9
X99.19Y-96.3
X100.59Y-93.5
X100.59Y-94.9
X100.59Y-96.3
T3
X87.0Y-85.0
X87.0Y-87.0
X87.0Y-89.0
X87.0Y-91.0
X87.0Y-93.0
X87.0Y-95.0
X87.0Y-97.0
X87.0Y-99.0
X88.0Y-83.0
X88.0Y-101.0
X90.0Y-83.0
X90.0Y-101.0
X92.0Y-83.0
X92.0Y-101.0
X94.0Y-83.0
X94.0Y-101.0
X96.0Y-83.0
X96.0Y-101.0
X98.0Y-83.0
X98.0Y-101.0
X100.0Y-83.0
X100.0Y-101.0
X102.0Y-83.0
X102.0Y-101.0
X104.0Y-83.0
X104.0Y-101.0
X106.0Y-83.0
X106.0Y-101.0
X108.0Y-83.0
X108.0Y-101.0
X110.0Y-83.0
X110.0Y-101.0
X112.0Y-83.0
X112.0Y-101.0
X113.0Y-85.0
X113.0Y-87.0
X113.0Y-89.0
X113.0Y-91.0
X113.0Y-93.0
X113.0Y-95.0
X113.0Y-97.0
X113.0Y-99.0
T4
X94.5Y-85.6
X94.5Y-87.6
X94.5Y-90.8
X94.5Y-92.8
X94.5Y-94.8
X94.5Y-96.8
X94.5Y-99.5
X105.3Y-85.6
X105.3Y-87.6
X105.3Y-90.8
X105.3Y-92.8
X105.3Y-94.8
X105.3Y-96.8
X105.3Y-99.5
T5
X91.0Y-86.38
X91.0Y-88.92
X91.0Y-91.46
X91.0Y-94.0
X91.0Y-96.54
X91.0Y-99.08
X108.78Y-86.38
X108.78Y-88.92
X108.78Y-91.46
X108.78Y-94.0
X108.78Y-96.54
X108.78Y-99.08
M30
