%TF.GenerationSoftware,KiCad,Pcbnew,8.0.3*%
%TF.CreationDate,2024-09-03T06:20:47+12:00*%
%TF.ProjectId,to-252-2,746f2d32-3532-42d3-922e-6b696361645f,rev?*%
%TF.SameCoordinates,Original*%
%TF.FileFunction,Copper,L2,Bot*%
%TF.FilePolarity,Positive*%
%FSLAX46Y46*%
G04 Gerber Fmt 4.6, Leading zero omitted, Abs format (unit mm)*
G04 Created by KiCad (PCBNEW 8.0.3) date 2024-09-03 06:20:47*
%MOMM*%
%LPD*%
G01*
G04 APERTURE LIST*
%TA.AperFunction,ComponentPad*%
%ADD10R,1.000000X1.000000*%
%TD*%
%TA.AperFunction,ComponentPad*%
%ADD11R,1.700000X1.700000*%
%TD*%
%TA.AperFunction,ComponentPad*%
%ADD12O,1.700000X1.700000*%
%TD*%
%TA.AperFunction,ViaPad*%
%ADD13C,0.600000*%
%TD*%
%ADD14C,0.300000*%
%ADD15C,0.350000*%
G04 APERTURE END LIST*
D10*
%TO.P,TP105,1,1*%
%TO.N,Net-(J101-Pin_2)*%
X93100000Y-88900000D03*
%TD*%
%TO.P,TP102,1,1*%
%TO.N,Net-(J101-Pin_1)*%
X95700000Y-87900000D03*
%TD*%
%TO.P,TP103,1,1*%
%TO.N,Net-(J102-Pin_1)*%
X104300000Y-87900000D03*
%TD*%
%TO.P,TP104,1,1*%
%TO.N,Net-(J102-Pin_1)*%
X104300000Y-85900000D03*
%TD*%
%TO.P,TP110,1,1*%
%TO.N,Net-(J102-Pin_2)*%
X107200000Y-88900000D03*
%TD*%
%TO.P,TP111,1,1*%
%TO.N,GND*%
X93100000Y-98500000D03*
%TD*%
%TO.P,TP109,1,1*%
%TO.N,Net-(J101-Pin_3)*%
X93100000Y-91450000D03*
%TD*%
%TO.P,TP112,1,1*%
%TO.N,GND*%
X107200000Y-98500000D03*
%TD*%
%TO.P,TP101,1,1*%
%TO.N,Net-(J101-Pin_1)*%
X95700000Y-85900000D03*
%TD*%
D11*
%TO.P,J102,1,Pin_1*%
%TO.N,Net-(J102-Pin_1)*%
X110300000Y-86360000D03*
D12*
%TO.P,J102,2,Pin_2*%
%TO.N,Net-(J102-Pin_2)*%
X110300000Y-88900000D03*
%TO.P,J102,3,Pin_3*%
%TO.N,unconnected-(J102-Pin_3-Pad3)*%
X110300000Y-91440000D03*
%TO.P,J102,4,Pin_4*%
%TO.N,GND*%
X110300000Y-93980000D03*
%TD*%
D11*
%TO.P,J101,1,Pin_1*%
%TO.N,Net-(J101-Pin_1)*%
X89980000Y-86360000D03*
D12*
%TO.P,J101,2,Pin_2*%
%TO.N,Net-(J101-Pin_2)*%
X89980000Y-88900000D03*
%TO.P,J101,3,Pin_3*%
%TO.N,Net-(J101-Pin_3)*%
X89980000Y-91440000D03*
%TO.P,J101,4,Pin_4*%
%TO.N,GND*%
X89980000Y-93980000D03*
%TD*%
D13*
%TO.N,GND*%
X102000000Y-101000000D03*
X96000000Y-101000000D03*
X94000000Y-81000000D03*
X96000000Y-81000000D03*
X114000000Y-85000000D03*
X110000000Y-101000000D03*
X102000000Y-81000000D03*
X114000000Y-89000000D03*
X86000000Y-83000000D03*
X98000000Y-81000000D03*
X86000000Y-81000000D03*
X106000000Y-90000000D03*
X114000000Y-93000000D03*
X86000000Y-97000000D03*
X114000000Y-99000000D03*
X112000000Y-101000000D03*
X86000000Y-87000000D03*
X88000000Y-81000000D03*
X96700000Y-89200000D03*
X110000000Y-81000000D03*
X108000000Y-81000000D03*
X114000000Y-97000000D03*
X114000000Y-91000000D03*
X86000000Y-95000000D03*
X114000000Y-87000000D03*
X104000000Y-101000000D03*
X88000000Y-101000000D03*
X86000000Y-89000000D03*
X106000000Y-101000000D03*
X104000000Y-81000000D03*
X102900000Y-87900000D03*
X86000000Y-99000000D03*
X98000000Y-101000000D03*
X90000000Y-81000000D03*
X92000000Y-81000000D03*
X92000000Y-101000000D03*
X90000000Y-101000000D03*
X86000000Y-91000000D03*
X97100000Y-88000000D03*
X106200000Y-92200000D03*
X114000000Y-81000000D03*
X86000000Y-85000000D03*
X108000000Y-101000000D03*
X112000000Y-81000000D03*
X94000000Y-101000000D03*
X114000000Y-83000000D03*
X100000000Y-101000000D03*
X114000000Y-101000000D03*
X100000000Y-81000000D03*
X106000000Y-81000000D03*
X114000000Y-95000000D03*
X86000000Y-93000000D03*
X86000000Y-101000000D03*
%TD*%
%TA.AperFunction,Conductor*%
%TO.N,GND*%
G36*
X113384418Y-80040816D02*
G01*
X113584561Y-80055130D01*
X113602063Y-80057647D01*
X113793797Y-80099355D01*
X113810755Y-80104334D01*
X113994609Y-80172909D01*
X114010701Y-80180259D01*
X114182904Y-80274288D01*
X114197784Y-80283849D01*
X114354867Y-80401441D01*
X114368237Y-80413027D01*
X114506972Y-80551762D01*
X114518558Y-80565132D01*
X114636146Y-80722210D01*
X114645711Y-80737095D01*
X114739740Y-80909298D01*
X114747090Y-80925390D01*
X114815662Y-81109236D01*
X114820646Y-81126212D01*
X114862351Y-81317931D01*
X114864869Y-81335442D01*
X114879184Y-81535580D01*
X114879500Y-81544427D01*
X114879500Y-100395572D01*
X114879184Y-100404419D01*
X114864869Y-100604557D01*
X114862351Y-100622068D01*
X114820646Y-100813787D01*
X114815662Y-100830763D01*
X114747090Y-101014609D01*
X114739740Y-101030701D01*
X114645711Y-101202904D01*
X114636146Y-101217789D01*
X114518558Y-101374867D01*
X114506972Y-101388237D01*
X114368237Y-101526972D01*
X114354867Y-101538558D01*
X114197789Y-101656146D01*
X114182904Y-101665711D01*
X114010701Y-101759740D01*
X113994609Y-101767090D01*
X113810763Y-101835662D01*
X113793787Y-101840646D01*
X113602068Y-101882351D01*
X113584557Y-101884869D01*
X113403779Y-101897799D01*
X113384417Y-101899184D01*
X113375572Y-101899500D01*
X86904428Y-101899500D01*
X86895582Y-101899184D01*
X86873622Y-101897613D01*
X86695442Y-101884869D01*
X86677931Y-101882351D01*
X86486212Y-101840646D01*
X86469236Y-101835662D01*
X86285390Y-101767090D01*
X86269298Y-101759740D01*
X86097095Y-101665711D01*
X86082210Y-101656146D01*
X85925132Y-101538558D01*
X85911762Y-101526972D01*
X85773027Y-101388237D01*
X85761441Y-101374867D01*
X85643849Y-101217784D01*
X85634288Y-101202904D01*
X85540259Y-101030701D01*
X85532909Y-101014609D01*
X85472091Y-100851551D01*
X85464334Y-100830755D01*
X85459355Y-100813797D01*
X85417647Y-100622063D01*
X85415130Y-100604556D01*
X85400816Y-100404418D01*
X85400500Y-100395572D01*
X85400500Y-99047844D01*
X92100000Y-99047844D01*
X92106401Y-99107372D01*
X92106403Y-99107379D01*
X92156645Y-99242086D01*
X92156649Y-99242093D01*
X92242809Y-99357187D01*
X92242812Y-99357190D01*
X92357906Y-99443350D01*
X92357913Y-99443354D01*
X92492620Y-99493596D01*
X92492627Y-99493598D01*
X92552155Y-99499999D01*
X92552172Y-99500000D01*
X92850000Y-99500000D01*
X93350000Y-99500000D01*
X93647828Y-99500000D01*
X93647844Y-99499999D01*
X93707372Y-99493598D01*
X93707379Y-99493596D01*
X93842086Y-99443354D01*
X93842093Y-99443350D01*
X93957187Y-99357190D01*
X93957190Y-99357187D01*
X94043350Y-99242093D01*
X94043354Y-99242086D01*
X94093596Y-99107379D01*
X94093598Y-99107372D01*
X94099999Y-99047844D01*
X106200000Y-99047844D01*
X106206401Y-99107372D01*
X106206403Y-99107379D01*
X106256645Y-99242086D01*
X106256649Y-99242093D01*
X106342809Y-99357187D01*
X106342812Y-99357190D01*
X106457906Y-99443350D01*
X106457913Y-99443354D01*
X106592620Y-99493596D01*
X106592627Y-99493598D01*
X106652155Y-99499999D01*
X106652172Y-99500000D01*
X106950000Y-99500000D01*
X107450000Y-99500000D01*
X107747828Y-99500000D01*
X107747844Y-99499999D01*
X107807372Y-99493598D01*
X107807379Y-99493596D01*
X107942086Y-99443354D01*
X107942093Y-99443350D01*
X108057187Y-99357190D01*
X108057190Y-99357187D01*
X108143350Y-99242093D01*
X108143354Y-99242086D01*
X108193596Y-99107379D01*
X108193598Y-99107372D01*
X108199999Y-99047844D01*
X108200000Y-99047827D01*
X108200000Y-98750000D01*
X107450000Y-98750000D01*
X107450000Y-99500000D01*
X106950000Y-99500000D01*
X106950000Y-98750000D01*
X106200000Y-98750000D01*
X106200000Y-99047844D01*
X94099999Y-99047844D01*
X94100000Y-99047827D01*
X94100000Y-98750000D01*
X93350000Y-98750000D01*
X93350000Y-99500000D01*
X92850000Y-99500000D01*
X92850000Y-98750000D01*
X92100000Y-98750000D01*
X92100000Y-99047844D01*
X85400500Y-99047844D01*
X85400500Y-98450272D01*
X92850000Y-98450272D01*
X92850000Y-98549728D01*
X92888060Y-98641614D01*
X92958386Y-98711940D01*
X93050272Y-98750000D01*
X93149728Y-98750000D01*
X93241614Y-98711940D01*
X93311940Y-98641614D01*
X93350000Y-98549728D01*
X93350000Y-98450272D01*
X106950000Y-98450272D01*
X106950000Y-98549728D01*
X106988060Y-98641614D01*
X107058386Y-98711940D01*
X107150272Y-98750000D01*
X107249728Y-98750000D01*
X107341614Y-98711940D01*
X107411940Y-98641614D01*
X107450000Y-98549728D01*
X107450000Y-98450272D01*
X107411940Y-98358386D01*
X107341614Y-98288060D01*
X107249728Y-98250000D01*
X107450000Y-98250000D01*
X108200000Y-98250000D01*
X108200000Y-97952172D01*
X108199999Y-97952155D01*
X108193598Y-97892627D01*
X108193596Y-97892620D01*
X108143354Y-97757913D01*
X108143350Y-97757906D01*
X108057190Y-97642812D01*
X108057187Y-97642809D01*
X107942093Y-97556649D01*
X107942086Y-97556645D01*
X107807379Y-97506403D01*
X107807372Y-97506401D01*
X107747844Y-97500000D01*
X107450000Y-97500000D01*
X107450000Y-98250000D01*
X107249728Y-98250000D01*
X107150272Y-98250000D01*
X107058386Y-98288060D01*
X106988060Y-98358386D01*
X106950000Y-98450272D01*
X93350000Y-98450272D01*
X93311940Y-98358386D01*
X93241614Y-98288060D01*
X93149728Y-98250000D01*
X93350000Y-98250000D01*
X94100000Y-98250000D01*
X94100000Y-97952172D01*
X94099999Y-97952155D01*
X106200000Y-97952155D01*
X106200000Y-98250000D01*
X106950000Y-98250000D01*
X106950000Y-97500000D01*
X106652155Y-97500000D01*
X106592627Y-97506401D01*
X106592620Y-97506403D01*
X106457913Y-97556645D01*
X106457906Y-97556649D01*
X106342812Y-97642809D01*
X106342809Y-97642812D01*
X106256649Y-97757906D01*
X106256645Y-97757913D01*
X106206403Y-97892620D01*
X106206401Y-97892627D01*
X106200000Y-97952155D01*
X94099999Y-97952155D01*
X94093598Y-97892627D01*
X94093596Y-97892620D01*
X94043354Y-97757913D01*
X94043350Y-97757906D01*
X93957190Y-97642812D01*
X93957187Y-97642809D01*
X93842093Y-97556649D01*
X93842086Y-97556645D01*
X93707379Y-97506403D01*
X93707372Y-97506401D01*
X93647844Y-97500000D01*
X93350000Y-97500000D01*
X93350000Y-98250000D01*
X93149728Y-98250000D01*
X93050272Y-98250000D01*
X92958386Y-98288060D01*
X92888060Y-98358386D01*
X92850000Y-98450272D01*
X85400500Y-98450272D01*
X85400500Y-97952155D01*
X92100000Y-97952155D01*
X92100000Y-98250000D01*
X92850000Y-98250000D01*
X92850000Y-97500000D01*
X92552155Y-97500000D01*
X92492627Y-97506401D01*
X92492620Y-97506403D01*
X92357913Y-97556645D01*
X92357906Y-97556649D01*
X92242812Y-97642809D01*
X92242809Y-97642812D01*
X92156649Y-97757906D01*
X92156645Y-97757913D01*
X92106403Y-97892620D01*
X92106401Y-97892627D01*
X92100000Y-97952155D01*
X85400500Y-97952155D01*
X85400500Y-88899999D01*
X88624341Y-88899999D01*
X88624341Y-88900000D01*
X88644936Y-89135403D01*
X88644938Y-89135413D01*
X88706094Y-89363655D01*
X88706096Y-89363659D01*
X88706097Y-89363663D01*
X88745370Y-89447883D01*
X88805965Y-89577830D01*
X88805967Y-89577834D01*
X88941501Y-89771395D01*
X88941506Y-89771402D01*
X89108597Y-89938493D01*
X89108603Y-89938498D01*
X89294158Y-90068425D01*
X89337783Y-90123002D01*
X89344977Y-90192500D01*
X89313454Y-90254855D01*
X89294158Y-90271575D01*
X89108597Y-90401505D01*
X88941505Y-90568597D01*
X88805965Y-90762169D01*
X88805964Y-90762171D01*
X88706098Y-90976335D01*
X88706094Y-90976344D01*
X88644938Y-91204586D01*
X88644936Y-91204596D01*
X88624341Y-91439999D01*
X88624341Y-91440000D01*
X88644936Y-91675403D01*
X88644938Y-91675413D01*
X88706094Y-91903655D01*
X88706096Y-91903659D01*
X88706097Y-91903663D01*
X88750033Y-91997883D01*
X88805965Y-92117830D01*
X88805967Y-92117834D01*
X88858129Y-92192328D01*
X88938806Y-92307547D01*
X88941501Y-92311395D01*
X88941506Y-92311402D01*
X89108597Y-92478493D01*
X89108603Y-92478498D01*
X89294594Y-92608730D01*
X89338219Y-92663307D01*
X89345413Y-92732805D01*
X89313890Y-92795160D01*
X89294595Y-92811880D01*
X89108922Y-92941890D01*
X89108920Y-92941891D01*
X88941891Y-93108920D01*
X88941886Y-93108926D01*
X88806400Y-93302420D01*
X88806399Y-93302422D01*
X88706570Y-93516507D01*
X88706567Y-93516513D01*
X88649364Y-93729999D01*
X88649364Y-93730000D01*
X89546988Y-93730000D01*
X89514075Y-93787007D01*
X89480000Y-93914174D01*
X89480000Y-94045826D01*
X89514075Y-94172993D01*
X89546988Y-94230000D01*
X88649364Y-94230000D01*
X88706567Y-94443486D01*
X88706570Y-94443492D01*
X88806399Y-94657578D01*
X88941894Y-94851082D01*
X89108917Y-95018105D01*
X89302421Y-95153600D01*
X89516507Y-95253429D01*
X89516516Y-95253433D01*
X89730000Y-95310634D01*
X89730000Y-94413012D01*
X89787007Y-94445925D01*
X89914174Y-94480000D01*
X90045826Y-94480000D01*
X90172993Y-94445925D01*
X90230000Y-94413012D01*
X90230000Y-95310633D01*
X90443483Y-95253433D01*
X90443492Y-95253429D01*
X90657578Y-95153600D01*
X90851082Y-95018105D01*
X91018105Y-94851082D01*
X91153600Y-94657578D01*
X91253429Y-94443492D01*
X91253432Y-94443486D01*
X91310636Y-94230000D01*
X90413012Y-94230000D01*
X90445925Y-94172993D01*
X90480000Y-94045826D01*
X90480000Y-93914174D01*
X90445925Y-93787007D01*
X90413012Y-93730000D01*
X91310636Y-93730000D01*
X91310635Y-93729999D01*
X91253432Y-93516513D01*
X91253429Y-93516507D01*
X91153600Y-93302422D01*
X91153599Y-93302420D01*
X91018113Y-93108926D01*
X91018108Y-93108920D01*
X90851078Y-92941890D01*
X90665405Y-92811879D01*
X90621780Y-92757302D01*
X90614588Y-92687804D01*
X90646110Y-92625449D01*
X90665406Y-92608730D01*
X90851401Y-92478495D01*
X91018495Y-92311401D01*
X91154035Y-92117830D01*
X91253903Y-91903663D01*
X91315063Y-91675408D01*
X91335659Y-91440000D01*
X91315063Y-91204592D01*
X91253903Y-90976337D01*
X91219302Y-90902135D01*
X92099500Y-90902135D01*
X92099500Y-91997870D01*
X92099501Y-91997876D01*
X92105908Y-92057483D01*
X92156202Y-92192328D01*
X92156206Y-92192335D01*
X92242452Y-92307544D01*
X92242455Y-92307547D01*
X92357664Y-92393793D01*
X92357671Y-92393797D01*
X92492517Y-92444091D01*
X92492516Y-92444091D01*
X92499444Y-92444835D01*
X92552127Y-92450500D01*
X93647872Y-92450499D01*
X93707483Y-92444091D01*
X93842331Y-92393796D01*
X93957546Y-92307546D01*
X94043796Y-92192331D01*
X94094091Y-92057483D01*
X94100500Y-91997873D01*
X94100499Y-90902128D01*
X94094091Y-90842517D01*
X94043796Y-90707669D01*
X94043795Y-90707668D01*
X94043793Y-90707664D01*
X93957547Y-90592455D01*
X93957544Y-90592452D01*
X93842335Y-90506206D01*
X93842328Y-90506202D01*
X93707482Y-90455908D01*
X93707483Y-90455908D01*
X93647883Y-90449501D01*
X93647881Y-90449500D01*
X93647873Y-90449500D01*
X93647864Y-90449500D01*
X92552129Y-90449500D01*
X92552123Y-90449501D01*
X92492516Y-90455908D01*
X92357671Y-90506202D01*
X92357664Y-90506206D01*
X92242455Y-90592452D01*
X92242452Y-90592455D01*
X92156206Y-90707664D01*
X92156202Y-90707671D01*
X92105908Y-90842517D01*
X92099501Y-90902116D01*
X92099501Y-90902123D01*
X92099500Y-90902135D01*
X91219302Y-90902135D01*
X91154035Y-90762171D01*
X91115873Y-90707669D01*
X91018494Y-90568597D01*
X90851402Y-90401506D01*
X90851396Y-90401501D01*
X90665842Y-90271575D01*
X90622217Y-90216998D01*
X90615023Y-90147500D01*
X90646546Y-90085145D01*
X90665842Y-90068425D01*
X90688026Y-90052891D01*
X90851401Y-89938495D01*
X91018495Y-89771401D01*
X91154035Y-89577830D01*
X91253903Y-89363663D01*
X91315063Y-89135408D01*
X91335659Y-88900000D01*
X91315063Y-88664592D01*
X91253903Y-88436337D01*
X91214639Y-88352135D01*
X92099500Y-88352135D01*
X92099500Y-89447870D01*
X92099501Y-89447876D01*
X92105908Y-89507483D01*
X92156202Y-89642328D01*
X92156206Y-89642335D01*
X92242452Y-89757544D01*
X92242455Y-89757547D01*
X92357664Y-89843793D01*
X92357671Y-89843797D01*
X92492517Y-89894091D01*
X92492516Y-89894091D01*
X92499444Y-89894835D01*
X92552127Y-89900500D01*
X93647872Y-89900499D01*
X93707483Y-89894091D01*
X93842331Y-89843796D01*
X93957546Y-89757546D01*
X94043796Y-89642331D01*
X94094091Y-89507483D01*
X94100500Y-89447873D01*
X94100499Y-88352128D01*
X94094091Y-88292517D01*
X94043796Y-88157669D01*
X94043795Y-88157668D01*
X94043793Y-88157664D01*
X93957547Y-88042455D01*
X93957544Y-88042452D01*
X93842335Y-87956206D01*
X93842328Y-87956202D01*
X93707482Y-87905908D01*
X93707483Y-87905908D01*
X93647883Y-87899501D01*
X93647881Y-87899500D01*
X93647873Y-87899500D01*
X93647864Y-87899500D01*
X92552129Y-87899500D01*
X92552123Y-87899501D01*
X92492516Y-87905908D01*
X92357671Y-87956202D01*
X92357664Y-87956206D01*
X92242455Y-88042452D01*
X92242452Y-88042455D01*
X92156206Y-88157664D01*
X92156202Y-88157671D01*
X92105908Y-88292517D01*
X92099501Y-88352116D01*
X92099501Y-88352123D01*
X92099500Y-88352135D01*
X91214639Y-88352135D01*
X91154035Y-88222171D01*
X91108870Y-88157669D01*
X91018496Y-88028600D01*
X91018495Y-88028599D01*
X90896567Y-87906671D01*
X90863084Y-87845351D01*
X90868068Y-87775659D01*
X90909939Y-87719725D01*
X90940915Y-87702810D01*
X91072331Y-87653796D01*
X91187546Y-87567546D01*
X91273796Y-87452331D01*
X91324091Y-87317483D01*
X91330500Y-87257873D01*
X91330499Y-85462128D01*
X91324091Y-85402517D01*
X91305299Y-85352135D01*
X94699500Y-85352135D01*
X94699500Y-86447870D01*
X94699501Y-86447876D01*
X94705908Y-86507483D01*
X94756202Y-86642328D01*
X94756206Y-86642335D01*
X94842452Y-86757544D01*
X94842453Y-86757544D01*
X94842454Y-86757546D01*
X94871615Y-86779376D01*
X94900145Y-86800734D01*
X94942015Y-86856668D01*
X94946999Y-86926360D01*
X94913513Y-86987683D01*
X94900145Y-86999266D01*
X94842452Y-87042455D01*
X94756206Y-87157664D01*
X94756202Y-87157671D01*
X94705908Y-87292517D01*
X94699501Y-87352116D01*
X94699501Y-87352123D01*
X94699500Y-87352135D01*
X94699500Y-88447870D01*
X94699501Y-88447876D01*
X94705908Y-88507483D01*
X94756202Y-88642328D01*
X94756206Y-88642335D01*
X94842452Y-88757544D01*
X94842455Y-88757547D01*
X94957664Y-88843793D01*
X94957671Y-88843797D01*
X95092517Y-88894091D01*
X95092516Y-88894091D01*
X95099444Y-88894835D01*
X95152127Y-88900500D01*
X96247872Y-88900499D01*
X96307483Y-88894091D01*
X96442331Y-88843796D01*
X96557546Y-88757546D01*
X96643796Y-88642331D01*
X96694091Y-88507483D01*
X96700500Y-88447873D01*
X96700499Y-87352128D01*
X96694091Y-87292517D01*
X96681173Y-87257883D01*
X96643797Y-87157671D01*
X96643793Y-87157664D01*
X96557547Y-87042456D01*
X96557548Y-87042456D01*
X96557546Y-87042454D01*
X96499854Y-86999265D01*
X96457984Y-86943333D01*
X96453000Y-86873641D01*
X96486485Y-86812318D01*
X96499854Y-86800734D01*
X96557546Y-86757546D01*
X96643796Y-86642331D01*
X96694091Y-86507483D01*
X96700500Y-86447873D01*
X96700499Y-85352135D01*
X103299500Y-85352135D01*
X103299500Y-86447870D01*
X103299501Y-86447876D01*
X103305908Y-86507483D01*
X103356202Y-86642328D01*
X103356206Y-86642335D01*
X103442452Y-86757544D01*
X103442453Y-86757544D01*
X103442454Y-86757546D01*
X103471615Y-86779376D01*
X103500145Y-86800734D01*
X103542015Y-86856668D01*
X103546999Y-86926360D01*
X103513513Y-86987683D01*
X103500145Y-86999266D01*
X103442452Y-87042455D01*
X103356206Y-87157664D01*
X103356202Y-87157671D01*
X103305908Y-87292517D01*
X103299501Y-87352116D01*
X103299501Y-87352123D01*
X103299500Y-87352135D01*
X103299500Y-88447870D01*
X103299501Y-88447876D01*
X103305908Y-88507483D01*
X103356202Y-88642328D01*
X103356206Y-88642335D01*
X103442452Y-88757544D01*
X103442455Y-88757547D01*
X103557664Y-88843793D01*
X103557671Y-88843797D01*
X103692517Y-88894091D01*
X103692516Y-88894091D01*
X103699444Y-88894835D01*
X103752127Y-88900500D01*
X104847872Y-88900499D01*
X104907483Y-88894091D01*
X105042331Y-88843796D01*
X105157546Y-88757546D01*
X105243796Y-88642331D01*
X105294091Y-88507483D01*
X105300500Y-88447873D01*
X105300500Y-88352135D01*
X106199500Y-88352135D01*
X106199500Y-89447870D01*
X106199501Y-89447876D01*
X106205908Y-89507483D01*
X106256202Y-89642328D01*
X106256206Y-89642335D01*
X106342452Y-89757544D01*
X106342455Y-89757547D01*
X106457664Y-89843793D01*
X106457671Y-89843797D01*
X106592517Y-89894091D01*
X106592516Y-89894091D01*
X106599444Y-89894835D01*
X106652127Y-89900500D01*
X107747872Y-89900499D01*
X107807483Y-89894091D01*
X107942331Y-89843796D01*
X108057546Y-89757546D01*
X108143796Y-89642331D01*
X108194091Y-89507483D01*
X108200500Y-89447873D01*
X108200499Y-88899999D01*
X108944341Y-88899999D01*
X108944341Y-88900000D01*
X108964936Y-89135403D01*
X108964938Y-89135413D01*
X109026094Y-89363655D01*
X109026096Y-89363659D01*
X109026097Y-89363663D01*
X109065370Y-89447883D01*
X109125965Y-89577830D01*
X109125967Y-89577834D01*
X109261501Y-89771395D01*
X109261506Y-89771402D01*
X109428597Y-89938493D01*
X109428603Y-89938498D01*
X109614158Y-90068425D01*
X109657783Y-90123002D01*
X109664977Y-90192500D01*
X109633454Y-90254855D01*
X109614158Y-90271575D01*
X109428597Y-90401505D01*
X109261505Y-90568597D01*
X109125965Y-90762169D01*
X109125964Y-90762171D01*
X109026098Y-90976335D01*
X109026094Y-90976344D01*
X108964938Y-91204586D01*
X108964936Y-91204596D01*
X108944341Y-91439999D01*
X108944341Y-91440000D01*
X108964936Y-91675403D01*
X108964938Y-91675413D01*
X109026094Y-91903655D01*
X109026096Y-91903659D01*
X109026097Y-91903663D01*
X109070033Y-91997883D01*
X109125965Y-92117830D01*
X109125967Y-92117834D01*
X109178129Y-92192328D01*
X109258806Y-92307547D01*
X109261501Y-92311395D01*
X109261506Y-92311402D01*
X109428597Y-92478493D01*
X109428603Y-92478498D01*
X109614594Y-92608730D01*
X109658219Y-92663307D01*
X109665413Y-92732805D01*
X109633890Y-92795160D01*
X109614595Y-92811880D01*
X109428922Y-92941890D01*
X109428920Y-92941891D01*
X109261891Y-93108920D01*
X109261886Y-93108926D01*
X109126400Y-93302420D01*
X109126399Y-93302422D01*
X109026570Y-93516507D01*
X109026567Y-93516513D01*
X108969364Y-93729999D01*
X108969364Y-93730000D01*
X109866988Y-93730000D01*
X109834075Y-93787007D01*
X109800000Y-93914174D01*
X109800000Y-94045826D01*
X109834075Y-94172993D01*
X109866988Y-94230000D01*
X108969364Y-94230000D01*
X109026567Y-94443486D01*
X109026570Y-94443492D01*
X109126399Y-94657578D01*
X109261894Y-94851082D01*
X109428917Y-95018105D01*
X109622421Y-95153600D01*
X109836507Y-95253429D01*
X109836516Y-95253433D01*
X110050000Y-95310634D01*
X110050000Y-94413012D01*
X110107007Y-94445925D01*
X110234174Y-94480000D01*
X110365826Y-94480000D01*
X110492993Y-94445925D01*
X110550000Y-94413012D01*
X110550000Y-95310633D01*
X110763483Y-95253433D01*
X110763492Y-95253429D01*
X110977578Y-95153600D01*
X111171082Y-95018105D01*
X111338105Y-94851082D01*
X111473600Y-94657578D01*
X111573429Y-94443492D01*
X111573432Y-94443486D01*
X111630636Y-94230000D01*
X110733012Y-94230000D01*
X110765925Y-94172993D01*
X110800000Y-94045826D01*
X110800000Y-93914174D01*
X110765925Y-93787007D01*
X110733012Y-93730000D01*
X111630636Y-93730000D01*
X111630635Y-93729999D01*
X111573432Y-93516513D01*
X111573429Y-93516507D01*
X111473600Y-93302422D01*
X111473599Y-93302420D01*
X111338113Y-93108926D01*
X111338108Y-93108920D01*
X111171078Y-92941890D01*
X110985405Y-92811879D01*
X110941780Y-92757302D01*
X110934588Y-92687804D01*
X110966110Y-92625449D01*
X110985406Y-92608730D01*
X111171401Y-92478495D01*
X111338495Y-92311401D01*
X111474035Y-92117830D01*
X111573903Y-91903663D01*
X111635063Y-91675408D01*
X111655659Y-91440000D01*
X111635063Y-91204592D01*
X111573903Y-90976337D01*
X111474035Y-90762171D01*
X111435873Y-90707669D01*
X111338494Y-90568597D01*
X111171402Y-90401506D01*
X111171396Y-90401501D01*
X110985842Y-90271575D01*
X110942217Y-90216998D01*
X110935023Y-90147500D01*
X110966546Y-90085145D01*
X110985842Y-90068425D01*
X111008026Y-90052891D01*
X111171401Y-89938495D01*
X111338495Y-89771401D01*
X111474035Y-89577830D01*
X111573903Y-89363663D01*
X111635063Y-89135408D01*
X111655659Y-88900000D01*
X111635063Y-88664592D01*
X111573903Y-88436337D01*
X111474035Y-88222171D01*
X111428870Y-88157669D01*
X111338496Y-88028600D01*
X111338495Y-88028599D01*
X111216567Y-87906671D01*
X111183084Y-87845351D01*
X111188068Y-87775659D01*
X111229939Y-87719725D01*
X111260915Y-87702810D01*
X111392331Y-87653796D01*
X111507546Y-87567546D01*
X111593796Y-87452331D01*
X111644091Y-87317483D01*
X111650500Y-87257873D01*
X111650499Y-85462128D01*
X111644091Y-85402517D01*
X111625295Y-85352123D01*
X111593797Y-85267671D01*
X111593793Y-85267664D01*
X111507547Y-85152455D01*
X111507544Y-85152452D01*
X111392335Y-85066206D01*
X111392328Y-85066202D01*
X111257482Y-85015908D01*
X111257483Y-85015908D01*
X111197883Y-85009501D01*
X111197881Y-85009500D01*
X111197873Y-85009500D01*
X111197864Y-85009500D01*
X109402129Y-85009500D01*
X109402123Y-85009501D01*
X109342516Y-85015908D01*
X109207671Y-85066202D01*
X109207664Y-85066206D01*
X109092455Y-85152452D01*
X109092452Y-85152455D01*
X109006206Y-85267664D01*
X109006202Y-85267671D01*
X108955908Y-85402517D01*
X108949501Y-85462116D01*
X108949501Y-85462123D01*
X108949500Y-85462135D01*
X108949500Y-87257870D01*
X108949501Y-87257876D01*
X108955908Y-87317483D01*
X109006202Y-87452328D01*
X109006206Y-87452335D01*
X109092452Y-87567544D01*
X109092455Y-87567547D01*
X109207664Y-87653793D01*
X109207671Y-87653797D01*
X109339081Y-87702810D01*
X109395015Y-87744681D01*
X109419432Y-87810145D01*
X109404580Y-87878418D01*
X109383430Y-87906673D01*
X109261503Y-88028600D01*
X109125965Y-88222169D01*
X109125964Y-88222171D01*
X109026098Y-88436335D01*
X109026094Y-88436344D01*
X108964938Y-88664586D01*
X108964936Y-88664596D01*
X108944341Y-88899999D01*
X108200499Y-88899999D01*
X108200499Y-88352128D01*
X108194091Y-88292517D01*
X108143796Y-88157669D01*
X108143795Y-88157668D01*
X108143793Y-88157664D01*
X108057547Y-88042455D01*
X108057544Y-88042452D01*
X107942335Y-87956206D01*
X107942328Y-87956202D01*
X107807482Y-87905908D01*
X107807483Y-87905908D01*
X107747883Y-87899501D01*
X107747881Y-87899500D01*
X107747873Y-87899500D01*
X107747864Y-87899500D01*
X106652129Y-87899500D01*
X106652123Y-87899501D01*
X106592516Y-87905908D01*
X106457671Y-87956202D01*
X106457664Y-87956206D01*
X106342455Y-88042452D01*
X106342452Y-88042455D01*
X106256206Y-88157664D01*
X106256202Y-88157671D01*
X106205908Y-88292517D01*
X106199501Y-88352116D01*
X106199501Y-88352123D01*
X106199500Y-88352135D01*
X105300500Y-88352135D01*
X105300499Y-87352128D01*
X105294091Y-87292517D01*
X105281173Y-87257883D01*
X105243797Y-87157671D01*
X105243793Y-87157664D01*
X105157547Y-87042456D01*
X105157548Y-87042456D01*
X105157546Y-87042454D01*
X105099854Y-86999265D01*
X105057984Y-86943333D01*
X105053000Y-86873641D01*
X105086485Y-86812318D01*
X105099854Y-86800734D01*
X105157546Y-86757546D01*
X105243796Y-86642331D01*
X105294091Y-86507483D01*
X105300500Y-86447873D01*
X105300499Y-85352128D01*
X105294091Y-85292517D01*
X105284823Y-85267669D01*
X105243797Y-85157671D01*
X105243793Y-85157664D01*
X105157547Y-85042455D01*
X105157544Y-85042452D01*
X105042335Y-84956206D01*
X105042328Y-84956202D01*
X104907482Y-84905908D01*
X104907483Y-84905908D01*
X104847883Y-84899501D01*
X104847881Y-84899500D01*
X104847873Y-84899500D01*
X104847864Y-84899500D01*
X103752129Y-84899500D01*
X103752123Y-84899501D01*
X103692516Y-84905908D01*
X103557671Y-84956202D01*
X103557664Y-84956206D01*
X103442455Y-85042452D01*
X103442452Y-85042455D01*
X103356206Y-85157664D01*
X103356202Y-85157671D01*
X103305908Y-85292517D01*
X103299501Y-85352116D01*
X103299501Y-85352123D01*
X103299500Y-85352135D01*
X96700499Y-85352135D01*
X96700499Y-85352128D01*
X96694091Y-85292517D01*
X96684823Y-85267669D01*
X96643797Y-85157671D01*
X96643793Y-85157664D01*
X96557547Y-85042455D01*
X96557544Y-85042452D01*
X96442335Y-84956206D01*
X96442328Y-84956202D01*
X96307482Y-84905908D01*
X96307483Y-84905908D01*
X96247883Y-84899501D01*
X96247881Y-84899500D01*
X96247873Y-84899500D01*
X96247864Y-84899500D01*
X95152129Y-84899500D01*
X95152123Y-84899501D01*
X95092516Y-84905908D01*
X94957671Y-84956202D01*
X94957664Y-84956206D01*
X94842455Y-85042452D01*
X94842452Y-85042455D01*
X94756206Y-85157664D01*
X94756202Y-85157671D01*
X94705908Y-85292517D01*
X94699501Y-85352116D01*
X94699501Y-85352123D01*
X94699500Y-85352135D01*
X91305299Y-85352135D01*
X91305295Y-85352123D01*
X91273797Y-85267671D01*
X91273793Y-85267664D01*
X91187547Y-85152455D01*
X91187544Y-85152452D01*
X91072335Y-85066206D01*
X91072328Y-85066202D01*
X90937482Y-85015908D01*
X90937483Y-85015908D01*
X90877883Y-85009501D01*
X90877881Y-85009500D01*
X90877873Y-85009500D01*
X90877864Y-85009500D01*
X89082129Y-85009500D01*
X89082123Y-85009501D01*
X89022516Y-85015908D01*
X88887671Y-85066202D01*
X88887664Y-85066206D01*
X88772455Y-85152452D01*
X88772452Y-85152455D01*
X88686206Y-85267664D01*
X88686202Y-85267671D01*
X88635908Y-85402517D01*
X88629501Y-85462116D01*
X88629501Y-85462123D01*
X88629500Y-85462135D01*
X88629500Y-87257870D01*
X88629501Y-87257876D01*
X88635908Y-87317483D01*
X88686202Y-87452328D01*
X88686206Y-87452335D01*
X88772452Y-87567544D01*
X88772455Y-87567547D01*
X88887664Y-87653793D01*
X88887671Y-87653797D01*
X89019081Y-87702810D01*
X89075015Y-87744681D01*
X89099432Y-87810145D01*
X89084580Y-87878418D01*
X89063430Y-87906673D01*
X88941503Y-88028600D01*
X88805965Y-88222169D01*
X88805964Y-88222171D01*
X88706098Y-88436335D01*
X88706094Y-88436344D01*
X88644938Y-88664586D01*
X88644936Y-88664596D01*
X88624341Y-88899999D01*
X85400500Y-88899999D01*
X85400500Y-81544427D01*
X85400816Y-81535581D01*
X85415130Y-81335443D01*
X85415131Y-81335442D01*
X85415130Y-81335436D01*
X85417646Y-81317938D01*
X85459356Y-81126199D01*
X85464333Y-81109248D01*
X85532911Y-80925385D01*
X85540259Y-80909298D01*
X85602815Y-80794734D01*
X85634291Y-80737089D01*
X85643845Y-80722221D01*
X85761448Y-80565123D01*
X85773020Y-80551769D01*
X85911769Y-80413020D01*
X85925123Y-80401448D01*
X86082221Y-80283845D01*
X86097089Y-80274291D01*
X86269298Y-80180258D01*
X86285385Y-80172911D01*
X86469248Y-80104333D01*
X86486199Y-80099356D01*
X86677938Y-80057646D01*
X86695436Y-80055130D01*
X86895582Y-80040816D01*
X86904428Y-80040500D01*
X86965892Y-80040500D01*
X113314108Y-80040500D01*
X113375572Y-80040500D01*
X113384418Y-80040816D01*
G37*
%TD.AperFunction*%
%TD*%
D14*
X102000000Y-101000000D03*
X96000000Y-101000000D03*
X94000000Y-81000000D03*
X96000000Y-81000000D03*
X114000000Y-85000000D03*
X110000000Y-101000000D03*
X102000000Y-81000000D03*
X114000000Y-89000000D03*
X86000000Y-83000000D03*
X98000000Y-81000000D03*
X86000000Y-81000000D03*
X106000000Y-90000000D03*
X114000000Y-93000000D03*
X86000000Y-97000000D03*
X114000000Y-99000000D03*
X112000000Y-101000000D03*
X86000000Y-87000000D03*
X88000000Y-81000000D03*
X96700000Y-89200000D03*
X110000000Y-81000000D03*
X108000000Y-81000000D03*
X114000000Y-97000000D03*
X114000000Y-91000000D03*
X86000000Y-95000000D03*
X114000000Y-87000000D03*
X104000000Y-101000000D03*
X88000000Y-101000000D03*
X86000000Y-89000000D03*
X106000000Y-101000000D03*
X104000000Y-81000000D03*
X102900000Y-87900000D03*
X86000000Y-99000000D03*
X98000000Y-101000000D03*
X90000000Y-81000000D03*
X92000000Y-81000000D03*
X92000000Y-101000000D03*
X90000000Y-101000000D03*
X86000000Y-91000000D03*
X97100000Y-88000000D03*
X106200000Y-92200000D03*
X114000000Y-81000000D03*
X86000000Y-85000000D03*
X108000000Y-101000000D03*
X112000000Y-81000000D03*
X94000000Y-101000000D03*
X114000000Y-83000000D03*
X100000000Y-101000000D03*
X114000000Y-101000000D03*
X100000000Y-81000000D03*
X106000000Y-81000000D03*
X114000000Y-95000000D03*
X86000000Y-93000000D03*
X86000000Y-101000000D03*
D15*
X93100000Y-88900000D03*
X95700000Y-87900000D03*
X104300000Y-87900000D03*
X104300000Y-85900000D03*
X107200000Y-88900000D03*
X93100000Y-98500000D03*
X93100000Y-91450000D03*
X107200000Y-98500000D03*
X95700000Y-85900000D03*
X110300000Y-86360000D03*
X110300000Y-88900000D03*
X110300000Y-91440000D03*
X110300000Y-93980000D03*
X89980000Y-86360000D03*
X89980000Y-88900000D03*
X89980000Y-91440000D03*
X89980000Y-93980000D03*
M02*
